<svg width="25" height="38" viewBox="0 0 25 38" fill="none" xmlns="http://www.w3.org/2000/svg">
<path d="M5.4682 10.7147C5.4682 6.8685 8.59813 3.73983 12.445 3.73983C16.2919 3.73983 19.4218 6.8685 19.4218 10.7147V16.4116H23.1629V10.7147C23.1629 9.26883 22.8792 7.86537 22.3199 6.5436C21.7797 5.26743 21.0077 4.12173 20.0235 3.13817C19.0399 2.1546 17.8936 1.38257 16.6174 0.842333C15.295 0.283733 13.8909 0 12.445 0C10.9991 0 9.595 0.283733 8.2726 0.842967C6.9958 1.38257 5.8501 2.15523 4.86653 3.1388C3.88233 4.12173 3.10966 5.26743 2.57006 6.5436C2.01083 7.866 1.7271 9.26947 1.7271 10.7147V16.4116H5.4682V10.7147Z" fill="#FE183F"/>
<path d="M0 16.4404V33.3346C0 35.9116 2.08937 38.0004 4.66703 38.0004H20.223C22.8006 38.0004 24.89 35.9116 24.89 33.3346V16.4404H0ZM13.9574 27.4592L14.3824 32.047H10.507L10.932 27.4592C10.1815 26.9664 9.68557 26.1171 9.68557 25.1526C9.68557 23.6294 10.9206 22.3944 12.4444 22.3944C13.9682 22.3944 15.2032 23.6294 15.2032 25.1526C15.2038 26.1171 14.7079 26.9658 13.9574 27.4592Z" fill="#FE183F"/>
</svg>
