<svg width="71" height="49" viewBox="0 0 71 49" fill="none" xmlns="http://www.w3.org/2000/svg">
<path d="M17.3105 19.9004C17.3863 19.9004 17.4622 19.9004 17.5392 19.8992C18.425 18.4454 19.4901 17.0866 20.7248 15.8518C21.5444 15.0323 22.4194 14.2885 23.3401 13.6205C21.4674 13.8131 19.4359 13.9178 17.3105 13.9178C9.00996 13.9178 2.1127 12.3123 0.722656 10.2002V15.3957C0.722656 17.8833 8.14946 19.9004 17.3105 19.9004Z" fill="#FE183F"/>
<path d="M14.4739 29.5354C14.6183 27.4846 15.0503 25.4904 15.7484 23.5997C8.15789 23.4132 2.02484 21.8799 0.722656 19.9014V25.0969C0.722656 27.3222 6.66434 29.1707 14.4739 29.5354Z" fill="#FE183F"/>
<path d="M16.0348 39.2864C15.2465 37.374 14.7374 35.3473 14.528 33.2556C7.508 32.9439 1.95504 31.4708 0.722656 29.6006V34.7961C0.72386 37.1658 7.47069 39.1095 16.0348 39.2864Z" fill="#FE183F"/>
<path d="M18.0242 43.0126C17.7871 43.015 17.55 43.0174 17.3105 43.0174C9.00996 43.0174 2.1127 41.4119 0.722656 39.2998V44.4953C0.722656 46.983 8.14946 48.9988 17.3105 48.9988C19.5117 48.9988 21.613 48.8821 23.535 48.6703C22.5421 47.9674 21.6022 47.1755 20.7248 46.297C19.7079 45.2824 18.8053 44.1812 18.0242 43.0126Z" fill="#FE183F"/>
<path d="M17.3105 9.58708C26.4717 9.58708 33.8984 7.5708 33.8984 5.08358C33.8984 2.59637 26.4717 0.580078 17.3105 0.580078C8.14929 0.580078 0.722656 2.59637 0.722656 5.08358C0.722656 7.5708 8.14929 9.58708 17.3105 9.58708Z" fill="#FE183F"/>
<path d="M57.4066 32.8618C57.2357 34.9559 56.7663 36.9886 56.0165 38.9094C64.0764 38.6025 70.2768 36.7226 70.2768 34.4504V29.2549C69.101 31.0421 63.9813 32.4658 57.4066 32.8618Z" fill="#FE183F"/>
<path d="M54.097 42.6671C53.2654 43.9645 52.2882 45.1812 51.1725 46.2969C50.3878 47.0816 49.5538 47.7964 48.6765 48.4427C50.2579 48.5787 51.9404 48.6521 53.6866 48.6521C62.8477 48.6521 70.2745 46.6363 70.2745 44.1486V38.9531C68.9073 41.0292 62.2135 42.6154 54.097 42.6671Z" fill="#FE183F"/>
<path d="M70.2718 24.7504C70.2718 22.3434 63.3167 20.3781 54.5661 20.2529C56.1439 22.9572 57.1091 25.978 57.3883 29.1408C64.7669 28.6847 70.2718 26.8926 70.2718 24.7504Z" fill="#FE183F"/>
<path d="M35.8123 48.9994C45.4747 48.9994 53.3076 41.1665 53.3076 31.5041C53.3076 21.8417 45.4747 14.0088 35.8123 14.0088C26.1499 14.0088 18.317 21.8417 18.317 31.5041C18.317 41.1665 26.1499 48.9994 35.8123 48.9994Z" fill="#FE183F"/>
</svg>
