<svg width="71" height="49" viewBox="0 0 71 49" fill="none" xmlns="http://www.w3.org/2000/svg">
<path d="M17.3105 19.8994C17.3863 19.8994 17.4622 19.8994 17.5392 19.8982C18.425 18.4444 19.4901 17.0857 20.7248 15.8509C21.5444 15.0313 22.4194 14.2875 23.3401 13.6196C21.4674 13.8121 19.4359 13.9168 17.3105 13.9168C9.00996 13.9168 2.1127 12.3114 0.722656 10.1992V15.3947C0.722656 17.8824 8.14946 19.8994 17.3105 19.8994Z" fill="#00D1FF"/>
<path d="M14.4739 29.5344C14.6183 27.4836 15.0503 25.4894 15.7484 23.5987C8.15789 23.4122 2.02484 21.8789 0.722656 19.9004V25.0959C0.722656 27.3212 6.66434 29.1698 14.4739 29.5344Z" fill="#00D1FF"/>
<path d="M16.0348 39.2873C15.2465 37.375 14.7374 35.3483 14.528 33.2566C7.508 32.9449 1.95504 31.4718 0.722656 29.6016V34.7971C0.72386 37.1668 7.47069 39.1104 16.0348 39.2873Z" fill="#00D1FF"/>
<path d="M18.0242 43.0116C17.7871 43.014 17.55 43.0164 17.3105 43.0164C9.00996 43.0164 2.1127 41.411 0.722656 39.2988V44.4943C0.722656 46.982 8.14946 48.9978 17.3105 48.9978C19.5117 48.9978 21.613 48.8811 23.535 48.6693C22.5421 47.9664 21.6022 47.1745 20.7248 46.296C19.7079 45.2814 18.8053 44.1802 18.0242 43.0116Z" fill="#00D1FF"/>
<path d="M17.3105 9.58708C26.4717 9.58708 33.8984 7.5708 33.8984 5.08358C33.8984 2.59637 26.4717 0.580078 17.3105 0.580078C8.14929 0.580078 0.722656 2.59637 0.722656 5.08358C0.722656 7.5708 8.14929 9.58708 17.3105 9.58708Z" fill="#00D1FF"/>
<path d="M57.4066 32.8608C57.2357 34.9549 56.7664 36.9876 56.0166 38.9084C64.0764 38.6015 70.2769 36.7216 70.2769 34.4494V29.2539C69.1011 31.0411 63.9814 32.4649 57.4066 32.8608Z" fill="#00D1FF"/>
<path d="M54.0971 42.6671C53.2655 43.9645 52.2882 45.1812 51.1726 46.2969C50.3879 47.0816 49.5539 47.7964 48.6765 48.4427C50.2579 48.5787 51.9404 48.6521 53.6867 48.6521C62.8477 48.6521 70.2745 46.6363 70.2745 44.1486V38.9531C68.9074 41.0292 62.2135 42.6154 54.0971 42.6671Z" fill="#00D1FF"/>
<path d="M70.2719 24.7494C70.2719 22.3424 63.3168 20.3771 54.5662 20.252C56.144 22.9562 57.1092 25.977 57.3884 29.1398C64.767 28.6837 70.2719 26.8917 70.2719 24.7494Z" fill="#00D1FF"/>
<path d="M35.8122 49.0004C45.4746 49.0004 53.3075 41.1674 53.3075 31.5051C53.3075 21.8427 45.4746 14.0098 35.8122 14.0098C26.1498 14.0098 18.3169 21.8427 18.3169 31.5051C18.3169 41.1674 26.1498 49.0004 35.8122 49.0004Z" fill="#00D1FF"/>
</svg>
