<svg width="40" height="40" viewBox="0 0 40 40" fill="none" xmlns="http://www.w3.org/2000/svg">
<path d="M39.4016 24.8381C36.7301 35.5525 25.877 42.0731 15.1601 39.4012C4.44772 36.7301 -2.07358 25.8775 0.599038 15.1639C3.26931 4.44838 14.1225 -2.07268 24.836 0.598468C35.5521 3.26961 42.073 14.1234 39.4013 24.8383L39.4015 24.8381H39.4016Z" fill="#F7931A"/>
<path d="M28.7302 17.2235C29.1259 14.5069 27.1114 13.0466 24.3566 12.0724L25.2502 8.39254L23.0683 7.83437L22.1983 11.4174C21.6247 11.2705 21.0356 11.1321 20.4501 10.9949L21.3264 7.38825L19.1458 6.83008L18.2517 10.5088C17.777 10.3978 17.3108 10.2882 16.8584 10.1726L16.861 10.161L13.852 9.38964L13.2716 11.7822C13.2716 11.7822 14.8904 12.1631 14.8563 12.1866C15.7399 12.413 15.8996 13.0135 15.8731 13.4894L14.8551 17.6817C14.916 17.6975 14.9949 17.7205 15.082 17.7564C15.0092 17.7379 14.9317 17.7176 14.8513 17.6978L13.4245 23.5706C13.3165 23.8462 13.0424 24.2598 12.4247 24.1027C12.4465 24.1353 10.8388 23.6964 10.8388 23.6964L9.75549 26.2606L12.5949 26.9873C13.1232 27.1233 13.6408 27.2656 14.1506 27.3994L13.2477 31.1215L15.4271 31.6796L16.3213 27.9971C16.9167 28.163 17.4945 28.3161 18.0601 28.4603L17.169 32.1256L19.351 32.6837L20.2538 28.9686C23.9745 29.6915 26.7722 29.4001 27.9497 25.9451C28.8986 23.1634 27.9025 21.5589 25.9451 20.5126C27.3708 20.1751 28.4446 19.2124 28.731 17.2238L28.7303 17.2233L28.7302 17.2235ZM23.7449 24.4003C23.0706 27.182 18.5087 25.6783 17.0296 25.3012L18.2278 20.3701C19.7067 20.7491 24.4497 21.4993 23.745 24.4003H23.7449ZM24.4197 17.1832C23.8046 19.7134 20.0076 18.4279 18.7759 18.1127L19.8622 13.6405C21.0939 13.9557 25.0605 14.544 24.4199 17.1832H24.4197Z" fill="white"/>
</svg>
