<svg width="33" height="33" viewBox="0 0 33 33" fill="none" xmlns="http://www.w3.org/2000/svg">
<path d="M1.30672 17.2403C0.916192 16.8498 0.916192 16.2166 1.30672 15.8261L3.43324 13.6996C3.82376 13.3091 4.45692 13.3091 4.84745 13.6996L19.3665 28.2187C19.7571 28.6092 19.7571 29.2424 19.3665 29.6329L17.24 31.7594C16.8495 32.1499 16.2163 32.1499 15.8258 31.7594L1.30672 17.2403Z" fill="white"/>
<path d="M17.2403 31.7597C16.8498 32.1502 16.2166 32.1502 15.8261 31.7597L13.6996 29.6332C13.3091 29.2426 13.3091 28.6095 13.6996 28.219L28.2187 13.6999C28.6092 13.3093 29.2423 13.3093 29.6329 13.6999L31.7594 15.8264C32.1499 16.2169 32.1499 16.8501 31.7594 17.2406L17.2403 31.7597Z" fill="white"/>
</svg>
