<svg width="18" height="26" viewBox="0 0 18 26" fill="none" xmlns="http://www.w3.org/2000/svg">
<path d="M17.2961 20.1973H0.646141C1.89433 23.5843 5.15077 26.0003 8.97097 26.0003C12.7915 26.0003 16.0479 23.5843 17.2961 20.1973Z" fill="white"/>
<path d="M17.8406 17.1312C17.8406 14.489 16.6854 12.1169 14.8522 10.4922H3.09008C1.25656 12.1172 0.101364 14.489 0.101364 17.1312C0.101364 17.8018 0.175696 18.4547 0.31728 19.0825H17.6247C17.7662 18.4547 17.8406 17.8018 17.8406 17.1312Z" fill="white"/>
<path d="M2.99032 1.11498C4.02453 1.11498 4.86567 1.95611 4.86567 2.99032C4.86567 4.02421 4.02453 4.86535 2.99032 4.86535C1.95644 4.86535 1.1153 4.02421 1.1153 2.99032C1.11562 1.95611 1.95644 1.11498 2.99032 1.11498ZM0 2.99032C0 4.63881 1.34183 5.98032 2.99032 5.98032C3.93604 5.98032 4.78072 5.53916 5.32903 4.85151C5.38985 5.38535 5.8426 5.7998 6.39252 5.7998H7.60243V5.90728V7.02225H5.66723C4.81193 7.02225 4.11849 7.71569 4.11849 8.57099V9.37609H4.66295H13.2793H13.8238V8.57099C13.8238 7.71569 13.1303 7.02225 12.275 7.02225H10.3398V5.90728V5.7998H11.5497C12.1412 5.7998 12.6203 5.32035 12.6203 4.72923V2.96876C12.6203 1.97285 11.8129 1.16582 10.8174 1.16582H7.1249C6.56822 1.16582 6.07042 1.41842 5.73963 1.81517V1.81485C5.28205 0.748465 4.2221 0 2.99032 0C1.34183 0 0 1.34151 0 2.99032Z" fill="white"/>
</svg>
