<svg width="64" height="64" viewBox="0 0 64 64" fill="none" xmlns="http://www.w3.org/2000/svg">
<path d="M11.0661 42.6291C10.285 41.848 10.285 40.5817 11.0661 39.8006L14.8419 36.0248C15.623 35.2437 16.8893 35.2437 17.6703 36.0248L37.0705 55.4249C37.8515 56.206 37.8516 57.4723 37.0705 58.2534L33.2947 62.0292C32.5136 62.8103 31.2473 62.8103 30.4662 62.0292L11.0661 42.6291Z" fill="#00D1FF"/>
<path d="M33.2953 62.0291C32.5143 62.8102 31.2479 62.8102 30.4669 62.0291L26.691 58.2533C25.91 57.4723 25.91 56.2059 26.691 55.4249L46.0758 36.0401C46.8569 35.259 48.1232 35.259 48.9043 36.0401L52.6801 39.8159C53.4612 40.597 53.4612 41.8633 52.6801 42.6443L33.2953 62.0291Z" fill="#00D1FF"/>
<path d="M52.681 21.6815C53.462 22.4625 53.462 23.7289 52.681 24.5099L48.9052 28.2858C48.1241 29.0668 46.8578 29.0668 46.0767 28.2858L26.6766 8.88561C25.8955 8.10456 25.8955 6.83823 26.6766 6.05718L30.4524 2.28133C31.2335 1.50028 32.4998 1.50028 33.2808 2.28133L52.681 21.6815Z" fill="#00D1FF"/>
<path d="M30.4525 2.28335C31.2335 1.50231 32.4999 1.50231 33.2809 2.28335L37.0568 6.0592C37.8378 6.84025 37.8378 8.10658 37.0568 8.88763L17.672 28.2724C16.8909 29.0535 15.6246 29.0535 14.8435 28.2724L11.0677 24.4966C10.2866 23.7155 10.2866 22.4492 11.0677 21.6681L30.4525 2.28335Z" fill="#00D1FF"/>
</svg>
