<svg width="64" height="64" viewBox="0 0 64 64" fill="none" xmlns="http://www.w3.org/2000/svg">
<path d="M11.0661 42.6291C10.2851 41.848 10.2851 40.5817 11.0661 39.8006L14.842 36.0248C15.623 35.2437 16.8894 35.2437 17.6704 36.0248L37.0706 55.4249C37.8516 56.206 37.8516 57.4723 37.0706 58.2534L33.2947 62.0292C32.5137 62.8103 31.2473 62.8103 30.4663 62.0292L11.0661 42.6291Z" fill="#FE183F"/>
<path d="M33.2954 62.0282C32.5144 62.8092 31.2481 62.8092 30.467 62.0282L26.6912 58.2523C25.9101 57.4713 25.9101 56.2049 26.6912 55.4239L46.0759 36.0391C46.857 35.258 48.1233 35.258 48.9044 36.0391L52.6802 39.8149C53.4613 40.596 53.4613 41.8623 52.6802 42.6434L33.2954 62.0282Z" fill="#FE183F"/>
<path d="M52.6811 21.6825C53.4621 22.4635 53.4621 23.7298 52.6811 24.5109L48.9052 28.2867C48.1242 29.0678 46.8578 29.0678 46.0768 28.2867L26.6766 8.88658C25.8956 8.10554 25.8956 6.83921 26.6766 6.05816L30.4525 2.28231C31.2335 1.50126 32.4999 1.50126 33.2809 2.28231L52.6811 21.6825Z" fill="#FE183F"/>
<path d="M30.4525 2.28238C31.2336 1.50133 32.4999 1.50133 33.281 2.28238L37.0568 6.05822C37.8379 6.83927 37.8379 8.1056 37.0568 8.88665L17.672 28.2714C16.891 29.0525 15.6247 29.0525 14.8436 28.2714L11.0678 24.4956C10.2867 23.7146 10.2867 22.4482 11.0678 21.6672L30.4525 2.28238Z" fill="#FE183F"/>
</svg>
