<svg width="24" height="25" viewBox="0 0 24 25" fill="none" xmlns="http://www.w3.org/2000/svg">
<path d="M21.72 7.64969C20.5955 8.77418 18.7667 8.77418 17.6422 7.64969C16.5177 6.52521 16.5177 4.69637 17.6422 3.57188C18.7667 2.44739 20.5955 2.44739 21.72 3.57188C22.8486 4.70049 22.8486 6.52521 21.72 7.64969Z" fill="#222222"/>
<path opacity="0.9" d="M14.9929 2.59497C14.9929 4.02838 13.8314 5.18994 12.398 5.18994C10.9645 5.18994 9.80298 4.02838 9.80298 2.59497C9.80298 1.16156 10.9645 0 12.398 0C13.8314 0 14.9929 1.16156 14.9929 2.59497Z" fill="#222222"/>
<path opacity="0.8" d="M6.77144 3.95812C7.68586 4.86841 7.68174 6.35126 6.77144 7.26156C5.86114 8.17185 4.38242 8.17185 3.468 7.26156C2.5577 6.35126 2.5577 4.87253 3.468 3.95812C4.3783 3.04782 5.85702 3.04782 6.77144 3.95812Z" fill="#222222"/>
<path opacity="0.7" d="M2.10069 10.792C3.26225 10.792 4.20138 11.7352 4.20138 12.8927C4.20138 14.0542 3.26225 14.9934 2.10069 14.9934C0.939133 14.9934 0 14.0542 0 12.8927C0 11.7311 0.939133 10.792 2.10069 10.792Z" fill="#222222"/>
<path opacity="0.6" d="M3.78116 18.8362C4.51846 18.0989 5.71709 18.0989 6.4544 18.8362C7.1917 19.5735 7.1917 20.7721 6.4544 21.5094C5.71709 22.2467 4.51846 22.2467 3.78116 21.5094C3.03974 20.7721 3.03974 19.5735 3.78116 18.8362Z" fill="#222222"/>
<path opacity="0.5" d="M11.1008 23.1901C11.1008 22.4734 11.6816 21.8926 12.3983 21.8926C13.115 21.8926 13.6958 22.4734 13.6958 23.1901C13.6958 23.9068 13.115 24.4875 12.3983 24.4875C11.6816 24.4917 11.1008 23.9068 11.1008 23.1901Z" fill="#222222"/>
<path opacity="0.4" d="M18.9468 20.9085C18.5431 20.5049 18.5431 19.85 18.9468 19.4463C19.3505 19.0426 20.0054 19.0426 20.4132 19.4463C20.8168 19.85 20.8168 20.5049 20.4132 20.9085C20.0095 21.3122 19.3546 21.3122 18.9468 20.9085Z" fill="#222222"/>
<path opacity="0.3" d="M22.6961 13.5885C22.313 13.5885 22 13.2755 22 12.8924C22 12.5093 22.313 12.1963 22.6961 12.1963C23.0792 12.1963 23.3922 12.5093 23.3922 12.8924C23.3963 13.2796 23.0833 13.5885 22.6961 13.5885Z" fill="#222222"/>
</svg>
