<svg width="40" height="40" viewBox="0 0 40 40" fill="none" xmlns="http://www.w3.org/2000/svg">
<path d="M7.88681 34.5234C10.2426 34.5234 12.1524 32.6136 12.1524 30.2578C12.1524 27.902 10.2426 25.9922 7.88681 25.9922C5.53099 25.9922 3.62122 27.902 3.62122 30.2578C3.62122 32.6136 5.53099 34.5234 7.88681 34.5234Z" fill="#909BA6"/>
<path d="M35.3318 30.7403C37.3765 30.7403 39.034 29.0828 39.034 27.0381C39.034 24.9935 37.3765 23.3359 35.3318 23.3359C33.2872 23.3359 31.6296 24.9935 31.6296 27.0381C31.6296 29.0828 33.2872 30.7403 35.3318 30.7403Z" fill="#C8D2DC"/>
<path d="M31.9518 12.0698C33.6409 12.0698 35.0101 10.7006 35.0101 9.01148C35.0101 7.3224 33.6409 5.95312 31.9518 5.95312C30.2627 5.95312 28.8934 7.3224 28.8934 9.01148C28.8934 10.7006 30.2627 12.0698 31.9518 12.0698Z" fill="#E9EDF1"/>
<path d="M4.52676 24.1141C7.02682 24.1141 9.05352 22.1368 9.05352 19.6977C9.05352 17.2585 7.02682 15.2812 4.52676 15.2812C2.0267 15.2812 0 17.2585 0 19.6977C0 22.1368 2.0267 24.1141 4.52676 24.1141Z" fill="#7E8B96"/>
<path d="M17.5312 39.9967C19.8039 39.9967 21.6464 38.2013 21.6464 35.9866C21.6464 33.7719 19.8039 31.9766 17.5312 31.9766C15.2584 31.9766 13.4159 33.7719 13.4159 35.9866C13.4159 38.2013 15.2584 39.9967 17.5312 39.9967Z" fill="#A2ABB8"/>
<path d="M28.1068 38.246C30.266 38.246 32.0163 36.5417 32.0163 34.4394C32.0163 32.3371 30.266 30.6328 28.1068 30.6328C25.9477 30.6328 24.1974 32.3371 24.1974 34.4394C24.1974 36.5417 25.9477 38.246 28.1068 38.246Z" fill="#B9C3CD"/>
<path d="M9.42387 13.8561C12.0375 13.8561 14.1563 11.7879 14.1563 9.23666C14.1563 6.6854 12.0375 4.61719 9.42387 4.61719C6.8102 4.61719 4.69141 6.6854 4.69141 9.23666C4.69141 11.7879 6.8102 13.8561 9.42387 13.8561Z" fill="#5F6C75"/>
<path d="M36.5018 20.8583C38.4337 20.8583 39.9998 19.3213 39.9998 17.4253C39.9998 15.5292 38.4337 13.9922 36.5018 13.9922C34.57 13.9922 33.0039 15.5292 33.0039 17.4253C33.0039 19.3213 34.57 20.8583 36.5018 20.8583Z" fill="#DCE6EB"/>
<path d="M21.1668 9.97988C23.9227 9.97988 26.1568 7.74581 26.1568 4.98994C26.1568 2.23407 23.9227 0 21.1668 0C18.411 0 16.1769 2.23407 16.1769 4.98994C16.1769 7.74581 18.411 9.97988 21.1668 9.97988Z" fill="#4E5A61"/>
</svg>
