<svg width="20" height="22" viewBox="0 0 20 22" fill="none" xmlns="http://www.w3.org/2000/svg">
<path d="M19.1897 15.6132C19.0436 15.2478 18.8487 14.9068 18.6295 14.5902C17.509 12.9338 15.7796 11.8377 13.8309 11.5697C13.5874 11.5454 13.3194 11.5941 13.1245 11.7402C12.1015 12.4953 10.8836 12.8851 9.61692 12.8851C8.35026 12.8851 7.13236 12.4953 6.10931 11.7402C5.91442 11.5941 5.64648 11.521 5.40292 11.5697C3.45424 11.8377 1.70046 12.9338 0.604345 14.5902C0.385122 14.9068 0.190236 15.2722 0.0441185 15.6132C-0.0289403 15.7594 -0.00460291 15.9299 0.0684559 16.076C0.263342 16.417 0.506902 16.7581 0.726125 17.0504C1.06713 17.5132 1.43252 17.9273 1.84662 18.317C2.18763 18.658 2.57735 18.9747 2.96712 19.2913C4.89141 20.7285 7.20547 21.4835 9.59259 21.4835C11.9797 21.4835 14.2938 20.7284 16.218 19.2913C16.6078 18.999 16.9975 18.658 17.3385 18.317C17.7283 17.9273 18.118 17.5132 18.459 17.0504C18.7026 16.7337 18.9219 16.417 19.1167 16.076C19.2384 15.9299 19.2628 15.7593 19.1897 15.6132Z" fill="white"/>
<path d="M9.61663 0C6.54747 0 4.03857 2.5089 4.03857 5.57807C4.03857 8.64724 6.54747 11.1561 9.61663 11.1561C12.6858 11.1561 15.1947 8.64724 15.1947 5.57807C15.1947 2.5089 12.6858 0 9.61663 0Z" fill="white"/>
</svg>
