<svg width="23" height="24" viewBox="0 0 23 24" fill="none" xmlns="http://www.w3.org/2000/svg">
<circle cx="11.5" cy="11.5" r="11.5" fill="#868686"/>
<path d="M12.1626 6.144C13.304 6.144 14.216 6.44267 14.8986 7.04C15.592 7.63733 15.9386 8.48 15.9386 9.568C15.9386 10.5707 15.608 11.3547 14.9466 11.92C14.296 12.4747 13.432 12.7573 12.3546 12.768L12.2746 13.968H9.87463L9.79463 10.992H10.7546C11.576 10.992 12.2 10.8907 12.6266 10.688C13.064 10.4853 13.2826 10.1173 13.2826 9.584C13.2826 9.21067 13.1813 8.91733 12.9786 8.704C12.776 8.49067 12.4933 8.384 12.1306 8.384C11.7466 8.384 11.448 8.496 11.2346 8.72C11.0213 8.93333 10.9146 9.22667 10.9146 9.6H8.33863C8.31729 8.94933 8.45063 8.36267 8.73863 7.84C9.03729 7.31733 9.47463 6.90667 10.0506 6.608C10.6373 6.29867 11.3413 6.144 12.1626 6.144ZM11.1066 18.128C10.6266 18.128 10.232 17.9893 9.92263 17.712C9.62396 17.424 9.47463 17.072 9.47463 16.656C9.47463 16.2293 9.62396 15.872 9.92263 15.584C10.232 15.296 10.6266 15.152 11.1066 15.152C11.576 15.152 11.96 15.296 12.2586 15.584C12.568 15.872 12.7226 16.2293 12.7226 16.656C12.7226 17.072 12.568 17.424 12.2586 17.712C11.96 17.9893 11.576 18.128 11.1066 18.128Z" fill="white"/>
</svg>
