<svg width="28" height="41" viewBox="0 0 28 41" fill="none" xmlns="http://www.w3.org/2000/svg">
<path d="M14.4926 40.0066C21.4284 40.0066 27.0508 34.4944 27.0508 27.6947V16.0385C27.0508 14.568 25.7333 13.3797 24.197 13.5625C22.908 13.7136 21.9635 14.8303 21.9635 16.102V20.418C21.9635 20.565 21.85 20.7001 21.7 20.7041C21.5419 20.7081 21.4203 20.5849 21.4203 20.4378V14.258C21.4203 12.7876 20.4758 11.7821 18.9273 11.7821C17.1356 11.7821 16.3289 13.0499 16.3289 14.3216V19.0668C16.3289 19.2138 16.2073 19.333 16.0573 19.333C15.9073 19.333 15.7857 19.2138 15.7857 19.0668V2.49451C15.7857 1.02407 14.4683 -0.164194 12.9319 0.0186174C11.6429 0.169635 10.6984 1.28637 10.6984 2.5581V17.1949C10.6984 17.342 10.5768 17.4612 10.4268 17.4612C10.2768 17.4612 10.1552 17.342 10.1552 17.1949V14.254C10.1552 12.7836 9.2107 11.7782 7.6622 11.7782C5.87049 11.7782 5.06382 13.0459 5.06382 14.3176V27.0429L4.42334 20.6882C3.58829 21.3678 2.50191 22.3812 1.49661 23.3549C-0.185652 24.9843 -0.48562 27.5397 0.783169 29.4949L3.90853 34.3077C5.05976 36.0841 6.63663 37.5069 8.46077 38.4885C10.2768 39.4701 12.3482 40.0066 14.4926 40.0066Z" fill="#FE183F"/>
</svg>
