<svg width="35" height="32" viewBox="0 0 35 32" fill="none" xmlns="http://www.w3.org/2000/svg">
<path d="M0.726748 6.60887L5.0848 4.50125L0.726748 2.39362C0.076931 2.08028 -0.183774 1.31929 0.143081 0.696332C0.469934 0.07337 1.26372 -0.180291 1.91354 0.136785L8.45452 3.30009C8.93313 3.53137 9.19772 4.00512 9.17826 4.48633C9.17826 4.49006 9.17826 4.49752 9.17826 4.50125C9.17826 4.50498 9.17826 4.51244 9.17826 4.51617C9.20161 4.99738 8.93702 5.47113 8.45452 5.70241L1.91354 8.86571C1.72287 8.95897 1.52054 9 1.32209 9C0.839591 9 0.376548 8.74634 0.143081 8.30243C-0.187665 7.6832 0.07304 6.92222 0.726748 6.60887Z" fill="#FE183F"/>
<path d="M34.0334 6.60887L30.1596 4.50125L34.0334 2.39362C34.611 2.08028 34.8428 1.31929 34.5522 0.696332C34.2617 0.07337 33.5561 -0.180291 32.9785 0.136785L27.1643 3.30009C26.7388 3.53137 26.5036 4.00512 26.5209 4.48633C26.5209 4.49006 26.5209 4.49752 26.5209 4.50125C26.5209 4.50498 26.5209 4.51244 26.5209 4.51617C26.5002 4.99738 26.7388 5.47113 27.1643 5.70241L32.9785 8.86571C33.148 8.95897 33.3278 9 33.5042 9C33.9331 9 34.3447 8.74634 34.5522 8.30243C34.8462 7.6832 34.6145 6.92222 34.0334 6.60887Z" fill="#FE183F"/>
<path d="M34.6797 17C34.6797 25.2852 26.9156 32 17.3397 32C7.76375 32 -0.000312805 25.2852 -0.000312805 17H34.6797Z" fill="#FE183F"/>
</svg>
