<svg width="45" height="30" viewBox="0 0 45 30" fill="none" xmlns="http://www.w3.org/2000/svg">
<path d="M0.227207 0.61207C0.641254 -0.0131747 1.49758 -0.189168 2.13276 0.22303C2.1657 0.246188 5.45455 2.3396 9.89615 3.18716C14.3707 4.03471 17.8195 3.68272 17.8572 3.67809C18.61 3.61325 19.2922 4.1366 19.3722 4.87763C19.4569 5.61866 18.9111 6.29022 18.1583 6.37358C18.0877 6.38284 17.2549 6.47084 15.8951 6.47084C15.0341 6.47084 13.9519 6.42916 12.7286 6.31801C12.771 6.51253 12.7898 6.71631 12.7898 6.92472C12.7898 8.62446 11.3924 10 9.66561 10C7.93884 10 6.54143 8.62446 6.54143 6.92472C6.54143 6.31801 6.72493 5.7576 7.03076 5.2852C3.30433 4.20144 0.754175 2.58044 0.627138 2.49707C-0.0127525 2.07561 -0.191545 1.23731 0.227207 0.61207Z" fill="#FE183F"/>
<path d="M44.6545 0.61207C44.2405 -0.0131747 43.3841 -0.189168 42.749 0.22303C42.716 0.246188 39.4272 2.3396 34.9856 3.18716C30.511 4.03471 27.0622 3.68272 27.0246 3.67809C26.2717 3.61325 25.5895 4.1366 25.5095 4.87763C25.4248 5.61866 25.9706 6.29022 26.7234 6.37358C26.794 6.38284 27.6268 6.47084 28.9866 6.47084C29.8476 6.47084 30.9298 6.42916 32.1531 6.31801C32.1108 6.51253 32.0919 6.71631 32.0919 6.92472C32.0919 8.62446 33.4893 10 35.2161 10C36.9429 10 38.3403 8.62446 38.3403 6.92472C38.3403 6.31801 38.1568 5.7576 37.851 5.2852C41.5774 4.20144 44.1275 2.58044 44.2546 2.49707C44.8945 2.07561 45.0733 1.23731 44.6545 0.61207Z" fill="#FE183F"/>
<path d="M7.14087 30C7.14087 25.5833 13.5337 22 21.4209 22C29.308 22 35.7009 25.5786 35.7009 30H7.14087Z" fill="#FE183F"/>
</svg>
