<svg width="26" height="26" viewBox="0 0 26 26" fill="none" xmlns="http://www.w3.org/2000/svg">
<path d="M14.9083 15.2793C13.7659 14.4441 13.1202 14.8922 13.4736 16.2721L13.7673 17.4206C13.8236 17.6407 13.87 17.8842 13.9078 18.1425H9.29486C6.21269 18.1364 3.71792 15.6127 3.71262 12.4939C3.71395 11.611 3.91682 10.7778 4.27548 10.0352C4.66995 9.21811 4.41869 8.23262 3.69141 7.69862L3.69074 7.69795C2.75065 7.00831 1.42669 7.35179 0.921502 8.4104C0.331456 9.64544 0.000632456 11.0308 0.000632456 12.4946H-3.05176e-05C0.00129543 17.689 4.16145 21.8972 9.29486 21.8999L13.8787 21.8992C13.8462 22.0898 13.8084 22.2716 13.7653 22.4393L13.4716 23.5891C13.1182 24.9684 13.764 25.4152 14.9063 24.5806L19.9561 20.8769C20.5919 20.4106 20.5919 19.4513 19.9561 18.9851L14.9083 15.2793Z" fill="white"/>
<path d="M15.7067 3.08892H11.2436C11.2754 2.90309 11.3125 2.72599 11.3543 2.5623L11.648 1.41245C12.0014 0.0325084 11.3556 -0.413609 10.2133 0.420262L5.1628 4.12472C4.52701 4.59096 4.52701 5.55028 5.1628 6.01652L10.2127 9.72165C11.355 10.5562 12.0007 10.1087 11.6473 8.72879L11.3536 7.58028C11.2966 7.35622 11.2496 7.108 11.2111 6.8457H15.7067C18.7882 6.85174 21.283 9.37549 21.2883 12.495C21.287 13.3597 21.0921 14.1781 20.7473 14.91C20.3621 15.7258 20.6134 16.7039 21.3367 17.2345C22.2794 17.9262 23.61 17.5807 24.1093 16.5161C24.6807 15.2971 25.001 13.9339 25.0016 12.495C24.9996 7.2992 20.8401 3.08959 15.7067 3.08892Z" fill="white"/>
</svg>
