<svg width="63" height="71" viewBox="0 0 63 71" fill="none" xmlns="http://www.w3.org/2000/svg">
<path d="M60.5401 27.319C58.9661 23.6101 56.7117 20.2812 53.8419 17.4221C50.972 14.5631 47.6306 12.319 43.9077 10.7491C41.0838 9.5593 38.1335 8.79918 35.0988 8.47833V6.43861H37.4088C38.3386 6.43861 39.092 5.68804 39.092 4.76176V1.78622C39.092 0.859945 38.3386 0.109375 37.4088 0.109375H26.0733C25.1435 0.109375 24.3901 0.859945 24.3901 1.78622V4.76176C24.3901 5.68804 25.1435 6.43861 26.0733 6.43861H28.3833V8.47833C25.3486 8.79918 22.3963 9.5593 19.5744 10.7491C15.8515 12.3171 12.5101 14.5631 9.64024 17.4221C6.77041 20.2812 4.51787 23.6101 2.94204 27.319C1.31063 31.1597 0.484375 35.2372 0.484375 39.4408C0.484375 43.6444 1.31063 47.7219 2.94204 51.5626C4.51595 55.2715 6.77041 58.6004 9.64024 61.4594C12.5101 64.3185 15.8515 66.5625 19.5744 68.1324C23.4296 69.7577 27.5226 70.5808 31.742 70.5808C35.9595 70.5808 40.0544 69.7577 43.9096 68.1324C47.6325 66.5644 50.9739 64.3185 53.8438 61.4594C56.7136 58.6004 58.9661 55.2715 60.542 51.5626C62.1734 47.7219 62.9996 43.6444 62.9996 39.4408C62.9977 35.2372 62.1715 31.1597 60.5401 27.319ZM31.7401 65.0347C17.5749 65.0347 6.04959 53.5526 6.04959 39.4408C6.04959 25.3289 17.5749 13.8469 31.7401 13.8469C45.9052 13.8469 57.4306 25.3289 57.4306 39.4408C57.4306 53.5526 45.9071 65.0347 31.7401 65.0347Z" fill="#FE183F"/>
<path d="M32.7441 17.3282C24.0234 17.2996 15.7954 22.5841 12.5192 31.188C8.29782 42.2747 13.8975 54.6696 25.0241 58.8751C36.1527 63.0805 48.5944 57.5019 52.8157 46.4171L32.6674 38.8026L32.7441 17.3282Z" fill="#FE183F"/>
</svg>
