<svg width="36" height="40" viewBox="0 0 36 40" fill="none" xmlns="http://www.w3.org/2000/svg">
<path d="M34.0879 15.4443C33.1946 13.3391 31.9149 11.4496 30.286 9.82683C28.6571 8.20402 26.7605 6.93027 24.6473 6.03919C23.0445 5.36383 21.3698 4.93238 19.6473 4.75026V3.59251H20.9585C21.4863 3.59251 21.9139 3.16648 21.9139 2.64072V0.951787C21.9139 0.426028 21.4863 0 20.9585 0H14.5244C13.9967 0 13.569 0.426028 13.569 0.951787V2.64072C13.569 3.16648 13.9967 3.59251 14.5244 3.59251H15.8356V4.75026C14.1131 4.93238 12.4374 5.36383 10.8356 6.03919C8.72247 6.92919 6.82586 8.20402 5.19692 9.82683C3.56799 11.4496 2.28943 13.3391 1.39499 15.4443C0.468985 17.6243 0 19.9388 0 22.3247C0 24.7107 0.468985 27.0251 1.39499 29.2051C2.28834 31.3103 3.56799 33.1998 5.19692 34.8226C6.82586 36.4454 8.72247 37.7192 10.8356 38.6103C13.0239 39.5328 15.347 40 17.742 40C20.1359 40 22.4602 39.5328 24.6484 38.6103C26.7615 37.7203 28.6582 36.4454 30.2871 34.8226C31.916 33.1998 33.1946 31.3103 34.089 29.2051C35.015 27.0251 35.484 24.7107 35.484 22.3247C35.4829 19.9388 35.0139 17.6243 34.0879 15.4443ZM17.7409 36.852C9.7007 36.852 3.15885 30.3347 3.15885 22.3247C3.15885 14.3148 9.7007 7.7975 17.7409 7.7975C25.7811 7.7975 32.323 14.3148 32.323 22.3247C32.323 30.3347 25.7822 36.852 17.7409 36.852Z" fill="#FE183F"/>
<path d="M18.3113 9.7735C13.3613 9.75724 8.69108 12.7568 6.83146 17.6404C4.43539 23.9332 7.61382 30.9687 13.9293 33.3557C20.246 35.7428 27.3079 32.5763 29.704 26.2845L18.2677 21.9625L18.3113 9.7735Z" fill="#FE183F"/>
</svg>
