<svg width="33" height="33" viewBox="0 0 33 33" fill="none" xmlns="http://www.w3.org/2000/svg">
<path d="M31.6933 15.7597C32.0838 16.1502 32.0838 16.7834 31.6933 17.1739L29.5668 19.3004C29.1762 19.6909 28.5431 19.6909 28.1526 19.3004L13.6335 4.78134C13.2429 4.39081 13.2429 3.75765 13.6335 3.36712L15.76 1.24061C16.1505 0.850081 16.7837 0.850082 17.1742 1.24061L31.6933 15.7597Z" fill="white"/>
<path d="M15.7597 1.24031C16.1502 0.849785 16.7834 0.849786 17.1739 1.24031L19.3004 3.36683C19.6909 3.75735 19.6909 4.39052 19.3004 4.78104L4.78134 19.3001C4.39082 19.6906 3.75765 19.6906 3.36713 19.3001L1.24061 17.1736C0.850082 16.7831 0.850083 16.1499 1.24061 15.7594L15.7597 1.24031Z" fill="white"/>
</svg>
