<svg width="21" height="21" viewBox="0 0 21 21" fill="none" xmlns="http://www.w3.org/2000/svg">
<path fill-rule="evenodd" clip-rule="evenodd" d="M0.706492 2.54422H3.90556V2.105C3.90556 1.36201 6.69305 0.759766 10.1301 0.759766C13.5671 0.759766 16.3549 1.36201 16.3549 2.105V2.54364H19.554C19.9074 2.54364 20.2605 2.88083 20.2605 3.21684C20.2605 5.84808 18.4304 9.9304 13.669 11.3064C12.9517 12.0764 12.0999 12.6481 11.1259 12.8836V14.5065C11.1259 14.9146 12.0335 15.3072 12.0356 15.7148L12.0433 17.1849H13.5428C13.6462 17.1849 13.7869 17.1981 13.8426 17.406L14.5036 19.8578C14.5396 19.9927 14.3909 20.0798 14.3232 20.0798H5.937C5.86927 20.0798 5.72089 19.9909 5.75691 19.8578L6.41784 17.406C6.47356 17.1987 6.61332 17.1849 6.71768 17.1849H8.21932L8.22855 15.7148C8.23102 15.3064 9.13483 14.9149 9.13483 14.5065V12.8836C8.16052 12.6481 7.30904 12.0764 6.59177 11.3064C1.83011 9.9304 0 5.84867 0 3.21655C0 2.88083 0.353092 2.54422 0.706492 2.54422ZM16.3549 4.15246V4.19087C16.3549 5.58654 15.9821 7.2933 15.2781 8.83146C15.7937 8.50278 16.2739 8.10724 16.708 7.63664C17.569 6.70366 18.2484 5.42909 18.483 4.15246H16.3549ZM4.98239 8.83176C4.27805 7.29359 3.90556 5.58654 3.90556 4.19087V4.15305H1.77777C2.01235 5.42938 2.69144 6.70395 3.55247 7.63694C3.98683 8.10753 4.46675 8.50336 4.98239 8.83176Z" fill="#FE183F"/>
</svg>
