<svg width="30" height="30" viewBox="0 0 30 30" fill="none" xmlns="http://www.w3.org/2000/svg">
<path d="M15 10.3125C14.4437 10.3125 13.9 10.4775 13.4375 10.7865C12.9749 11.0955 12.6145 11.5348 12.4016 12.0487C12.1887 12.5626 12.133 13.1281 12.2415 13.6737C12.3501 14.2193 12.6179 14.7204 13.0113 15.1137C13.4046 15.5071 13.9057 15.7749 14.4513 15.8835C14.9969 15.992 15.5624 15.9363 16.0763 15.7234C16.5902 15.5105 17.0295 15.15 17.3385 14.6875C17.6475 14.225 17.8125 13.6813 17.8125 13.125C17.8125 12.3791 17.5162 11.6637 16.9887 11.1363C16.4613 10.6088 15.7459 10.3125 15 10.3125ZM15 15C14.6292 15 14.2666 14.89 13.9583 14.684C13.65 14.478 13.4096 14.1851 13.2677 13.8425C13.1258 13.4999 13.0887 13.1229 13.161 12.7592C13.2334 12.3955 13.412 12.0614 13.6742 11.7992C13.9364 11.537 14.2705 11.3584 14.6342 11.286C14.9979 11.2137 15.3749 11.2508 15.7175 11.3927C16.0601 11.5346 16.353 11.775 16.559 12.0833C16.765 12.3916 16.875 12.7542 16.875 13.125C16.875 13.6223 16.6775 14.0992 16.3258 14.4508C15.9742 14.8025 15.4973 15 15 15Z" fill="white"/>
<path d="M25.7813 19.0969V18.2813H24.8438V19.0172C24.4518 19.0734 24.0902 19.26 23.8173 19.5469L21.3048 18.0984C21.7826 17.1355 22.0313 16.075 22.0313 15C22.0313 13.925 21.7826 12.8645 21.3048 11.9016L23.8173 10.4531C24.0934 10.7366 24.4532 10.924 24.8438 10.9875V11.7188H25.7813V10.9031C25.8875 10.867 25.9896 10.8198 26.086 10.7625C26.5158 10.5136 26.8293 10.1042 26.9576 9.62439C27.0859 9.14454 27.0186 8.63339 26.7704 8.20314C26.6494 7.98917 26.4867 7.80172 26.2918 7.65194C26.0969 7.50216 25.8739 7.3931 25.636 7.33126C25.3435 7.25282 25.0364 7.24639 24.7409 7.31251C24.4454 7.37863 24.1703 7.51534 23.9391 7.71095L23.2313 7.30314L22.7626 8.11407L23.4048 8.48439C23.2623 8.85267 23.2425 9.25711 23.3485 9.63751L20.8407 11.0859C20.2412 10.1941 19.4453 9.45143 18.5141 8.91512C17.5829 8.37881 16.5411 8.06308 15.4688 7.9922V5.09064C15.8514 4.99083 16.1927 4.77262 16.4438 4.4672L17.0813 4.83282L17.5501 4.02189L16.8423 3.61407C16.8936 3.34308 16.8846 3.06409 16.8158 2.79699C16.7469 2.52989 16.62 2.28126 16.4441 2.06884C16.2682 1.85641 16.0475 1.68542 15.7979 1.56805C15.5483 1.45069 15.2759 1.38983 15.0001 1.38983C14.7242 1.38983 14.4518 1.45069 14.2022 1.56805C13.9526 1.68542 13.732 1.85641 13.556 2.06884C13.3801 2.28126 13.2532 2.52989 13.1844 2.79699C13.1156 3.06409 13.1065 3.34308 13.1579 3.61407L12.4501 4.02189L12.9188 4.83282L13.561 4.4672C13.8109 4.7718 14.1504 4.98993 14.5313 5.09064V7.9922C13.459 8.06308 12.4173 8.37881 11.486 8.91512C10.5548 9.45143 9.7589 10.1941 9.15945 11.0859L6.65163 9.63751C6.75759 9.25711 6.73786 8.85267 6.59538 8.48439L7.23757 8.11407L6.76882 7.30314L6.06101 7.71095C5.85187 7.53155 5.60576 7.40046 5.34019 7.32699C5.07462 7.25352 4.79613 7.23949 4.52452 7.28589C4.25291 7.33229 3.99487 7.43798 3.76875 7.59545C3.54264 7.75291 3.35401 7.95828 3.21628 8.19693C3.07856 8.43558 2.99513 8.70166 2.97192 8.97622C2.94872 9.25078 2.98631 9.52709 3.08203 9.78547C3.17775 10.0438 3.32924 10.278 3.52573 10.4711C3.72221 10.6643 3.95885 10.8118 4.21882 10.9031V11.7188H5.15632V10.9875C5.54724 10.9249 5.90739 10.7375 6.18288 10.4531L8.69538 11.9016C8.21752 12.8645 7.96886 13.925 7.96886 15C7.96886 16.075 8.21752 17.1355 8.69538 18.0984L6.18288 19.5469C5.90992 19.26 5.5483 19.0734 5.15632 19.0172V18.2813H4.21882V19.0969C4.11346 19.135 4.01153 19.1821 3.91413 19.2375C3.68574 19.3661 3.48683 19.5411 3.33025 19.7512C3.17366 19.9614 3.06287 20.2021 3.00503 20.4577C2.94719 20.7133 2.94358 20.9782 2.99444 21.2353C3.0453 21.4924 3.14949 21.736 3.30029 21.9503C3.45109 22.1647 3.64516 22.3451 3.86997 22.4798C4.09477 22.6145 4.34533 22.7006 4.60546 22.7325C4.8656 22.7644 5.12953 22.7415 5.38024 22.6651C5.63095 22.5887 5.86286 22.4606 6.06101 22.2891L6.76882 22.6969L7.23757 21.8859L6.59538 21.5156C6.73786 21.1474 6.75759 20.7429 6.65163 20.3625L9.15945 18.9141C9.75637 19.8103 10.5512 20.5575 11.4825 21.0979C12.4139 21.6384 13.457 21.9577 14.5313 22.0313V24.9328C14.1487 25.0326 13.8075 25.2508 13.5563 25.5563L12.9188 25.1906L12.4501 26.0016L13.1579 26.4094C13.1065 26.6804 13.1156 26.9594 13.1844 27.2265C13.2532 27.4936 13.3801 27.7422 13.556 27.9546C13.732 28.167 13.9526 28.338 14.2022 28.4554C14.4518 28.5728 14.7242 28.6336 15.0001 28.6336C15.2759 28.6336 15.5483 28.5728 15.7979 28.4554C16.0475 28.338 16.2682 28.167 16.4441 27.9546C16.62 27.7422 16.7469 27.4936 16.8158 27.2265C16.8846 26.9594 16.8936 26.6804 16.8423 26.4094L17.5501 26.0016L17.0813 25.1906L16.4391 25.5563C16.1927 25.243 15.8528 25.0164 15.4688 24.9094V22.0313C16.5411 21.9604 17.5829 21.6447 18.5141 21.1083C19.4453 20.572 20.2412 19.8294 20.8407 18.9375L23.3485 20.386C23.2425 20.7663 23.2623 21.1708 23.4048 21.5391L22.7626 21.9094L23.2313 22.7203L23.9391 22.3125C24.1505 22.4813 24.3959 22.6023 24.6584 22.6672C24.921 22.7322 25.1945 22.7397 25.4601 22.689C25.7258 22.6383 25.9774 22.5308 26.1976 22.3738C26.4178 22.2167 26.6014 22.0139 26.7359 21.7792C26.8703 21.5445 26.9524 21.2836 26.9765 21.0142C27.0006 20.7448 26.9661 20.4734 26.8754 20.2186C26.7847 19.9637 26.64 19.7316 26.4512 19.538C26.2623 19.3443 26.0338 19.1939 25.7813 19.0969ZM24.6798 8.31564C24.8403 8.22267 25.0248 8.1794 25.2099 8.19131C25.395 8.20323 25.5724 8.26979 25.7196 8.38256C25.8669 8.49534 25.9774 8.64927 26.0372 8.82488C26.0969 9.00048 26.1032 9.18986 26.0553 9.36906C26.0074 9.54825 25.9074 9.70921 25.768 9.83155C25.6286 9.95389 25.456 10.0321 25.2721 10.0563C25.0882 10.0806 24.9012 10.0497 24.7349 9.96763C24.5685 9.88557 24.4303 9.756 24.3376 9.59532C24.2179 9.38149 24.1867 9.1293 24.2506 8.89275C24.3146 8.6562 24.4686 8.45409 24.6798 8.3297V8.31564ZM5.09538 10.0453C4.94639 10.0858 4.78971 10.0888 4.63926 10.0541C4.48882 10.0194 4.34927 9.94813 4.233 9.84655C4.11674 9.74497 4.02736 9.61625 3.97281 9.47182C3.91825 9.32739 3.90021 9.17173 3.92029 9.01865C3.94037 8.86557 3.99794 8.71982 4.08789 8.59434C4.17784 8.46886 4.29738 8.36754 4.43591 8.29938C4.57444 8.23121 4.72765 8.19831 4.88195 8.2036C5.03625 8.20889 5.18685 8.25221 5.32038 8.3297C5.48038 8.42255 5.60933 8.56066 5.69101 8.72663C5.77268 8.89261 5.80342 9.07905 5.77937 9.26246C5.75532 9.44588 5.67754 9.61808 5.55583 9.75738C5.43411 9.89669 5.27391 9.99687 5.09538 10.0453ZM5.75632 21.0938C5.70005 21.3032 5.57292 21.4866 5.39659 21.6128C5.22026 21.739 5.00563 21.8002 4.78926 21.7859C4.57288 21.7717 4.36814 21.6828 4.20991 21.5346C4.05168 21.3863 3.94974 21.1878 3.92145 20.9728C3.89316 20.7578 3.94028 20.5396 4.05477 20.3555C4.16926 20.1713 4.34405 20.0326 4.54937 19.9628C4.75469 19.893 4.97784 19.8966 5.18082 19.9729C5.38379 20.0492 5.55404 20.1935 5.66257 20.3813C5.72429 20.488 5.76434 20.6059 5.78043 20.7282C5.79651 20.8504 5.78832 20.9747 5.75632 21.0938ZM14.0626 3.28126C14.0626 3.09584 14.1176 2.91459 14.2206 2.76041C14.3236 2.60624 14.47 2.48608 14.6413 2.41512C14.8126 2.34417 15.0011 2.3256 15.183 2.36178C15.3648 2.39795 15.5319 2.48724 15.663 2.61835C15.7941 2.74946 15.8834 2.91651 15.9196 3.09836C15.9557 3.28022 15.9372 3.46872 15.8662 3.64003C15.7953 3.81133 15.6751 3.95775 15.5209 4.06076C15.3667 4.16378 15.1855 4.21876 15.0001 4.21876C14.7514 4.21876 14.513 4.11999 14.3372 3.94417C14.1613 3.76836 14.0626 3.5299 14.0626 3.28126ZM11.7563 20.1563C11.8746 19.3807 12.2668 18.6732 12.8619 18.162C13.457 17.6508 14.2156 17.3697 15.0001 17.3697C15.7846 17.3697 16.5431 17.6508 17.1382 18.162C17.7333 18.6732 18.1256 19.3807 18.2438 20.1563C17.275 20.7748 16.1495 21.1034 15.0001 21.1034C13.8506 21.1034 12.7252 20.7748 11.7563 20.1563ZM15.9376 26.7188C15.9376 26.9042 15.8826 27.0854 15.7796 27.2396C15.6766 27.3938 15.5301 27.5139 15.3588 27.5849C15.1875 27.6559 14.999 27.6744 14.8172 27.6382C14.6353 27.6021 14.4683 27.5128 14.3372 27.3817C14.206 27.2506 14.1168 27.0835 14.0806 26.9017C14.0444 26.7198 14.063 26.5313 14.1339 26.36C14.2049 26.1887 14.3251 26.0423 14.4792 25.9393C14.6334 25.8362 14.8147 25.7813 15.0001 25.7813C15.2487 25.7813 15.4872 25.88 15.663 26.0558C15.8388 26.2317 15.9376 26.4701 15.9376 26.7188ZM19.0688 19.5235C18.8245 18.6317 18.2939 17.845 17.5588 17.2842C16.8237 16.7234 15.9247 16.4197 15.0001 16.4197C14.0755 16.4197 13.1765 16.7234 12.4413 17.2842C11.7062 17.845 11.1757 18.6317 10.9313 19.5235C10.0131 18.6999 9.36644 17.6171 9.07676 16.4182C8.78709 15.2193 8.86805 13.9607 9.30896 12.8087C9.74986 11.6568 10.5299 10.6658 11.5461 9.96669C12.5623 9.26758 13.7666 8.89328 15.0001 8.89328C16.2335 8.89328 17.4379 9.26758 18.454 9.96669C19.4702 10.6658 20.2503 11.6568 20.6912 12.8087C21.1321 13.9607 21.2131 15.2193 20.9234 16.4182C20.6337 17.6171 19.987 18.6999 19.0688 19.5235ZM25.9594 21.3281C25.8668 21.4888 25.7285 21.6184 25.5621 21.7004C25.3958 21.7825 25.2088 21.8134 25.0249 21.7892C24.841 21.7649 24.6685 21.6867 24.529 21.5644C24.3896 21.442 24.2896 21.2811 24.2417 21.1019C24.1938 20.9227 24.2001 20.7333 24.2598 20.5577C24.3196 20.3821 24.4301 20.2282 24.5774 20.1154C24.7246 20.0026 24.9021 19.936 25.0872 19.9241C25.2723 19.9122 25.4568 19.9555 25.6173 20.0485C25.8322 20.1729 25.9889 20.3776 26.0531 20.6175C26.1172 20.8574 26.0835 21.113 25.9594 21.3281Z" fill="white"/>
<path d="M4.21875 12.6562H5.15625V13.5938H4.21875V12.6562Z" fill="white"/>
<path d="M4.21875 16.4062H5.15625V17.3438H4.21875V16.4062Z" fill="white"/>
<path d="M4.21875 14.5312H5.15625V15.4688H4.21875V14.5312Z" fill="white"/>
<path d="M7.58032 23.1616L8.04907 22.3497L8.86094 22.8184L8.3922 23.6303L7.58032 23.1616Z" fill="white"/>
<path d="M9.20312 24.1008L9.67187 23.2889L10.4837 23.7576L10.015 24.5695L9.20312 24.1008Z" fill="white"/>
<path d="M10.8261 25.04L11.2949 24.2281L12.1067 24.6968L11.638 25.5087L10.8261 25.04Z" fill="white"/>
<path d="M17.8924 24.6916L18.7043 24.2228L19.173 25.0347L18.3611 25.5035L17.8924 24.6916Z" fill="white"/>
<path d="M19.5176 23.7532L20.3295 23.2844L20.7983 24.0963L19.9864 24.5651L19.5176 23.7532Z" fill="white"/>
<path d="M21.1378 22.8193L21.9497 22.3506L22.4185 23.1625L21.6066 23.6312L21.1378 22.8193Z" fill="white"/>
<path d="M24.8438 12.6562H25.7812V13.5938H24.8438V12.6562Z" fill="white"/>
<path d="M24.8438 14.5312H25.7812V15.4688H24.8438V14.5312Z" fill="white"/>
<path d="M24.8438 16.4062H25.7812V17.3438H24.8438V16.4062Z" fill="white"/>
<path d="M17.8954 5.30133L18.3641 4.48946L19.176 4.95821L18.7073 5.77008L17.8954 5.30133Z" fill="white"/>
<path d="M19.5183 6.24048L19.9871 5.42861L20.7989 5.89735L20.3302 6.70923L19.5183 6.24048Z" fill="white"/>
<path d="M21.1409 7.17969L21.6097 6.36781L22.4216 6.83656L21.9528 7.64844L21.1409 7.17969Z" fill="white"/>
<path d="M10.8242 4.96252L11.6361 4.49378L12.1048 5.30565L11.293 5.7744L10.8242 4.96252Z" fill="white"/>
<path d="M7.58392 6.83466L8.3958 6.36591L8.86455 7.17778L8.05267 7.64653L7.58392 6.83466Z" fill="white"/>
<path d="M9.20404 5.89624L10.0159 5.42749L10.4847 6.23936L9.67279 6.70811L9.20404 5.89624Z" fill="white"/>
</svg>
