<svg width="30" height="30" viewBox="0 0 30 30" fill="none" xmlns="http://www.w3.org/2000/svg">
<g clip-path="url(#clip0)">
<path d="M14.8641 16.2234L20.4891 20.4422C20.9034 20.753 21.4908 20.6691 21.8016 20.2547C22.1123 19.8403 22.0284 19.253 21.6141 18.9422L16.4063 15V7.03125C16.4063 6.51328 15.9867 6.09375 15.4688 6.09375C14.9508 6.09375 14.5312 6.51328 14.5312 7.03125V15.4688C14.5312 15.78 14.6616 16.0603 14.8641 16.2234Z" fill="white"/>
<path d="M15.9374 0.9375C9.07533 0.9375 3.21548 5.89031 2.07173 12.6563L1.71548 12.1266C1.42533 11.6967 0.8422 11.5833 0.412357 11.8734C-0.017487 12.1636 -0.130925 12.7467 0.159232 13.1766L2.03423 15.9891C2.18845 16.2234 2.4397 16.3767 2.71861 16.4063H2.81236C3.06079 16.4053 3.29845 16.3059 3.47329 16.1297L5.81704 13.7859C6.18314 13.4198 6.18314 12.8255 5.81704 12.4594C5.45095 12.0933 4.85658 12.0933 4.49048 12.4594L3.90923 13.0453C4.98876 6.40125 11.2499 1.89094 17.8934 2.97047C24.537 4.05 29.0483 10.3106 27.9688 16.9547C27.0102 22.8544 21.9144 27.1884 15.9374 27.1875C12.1677 27.2559 8.60236 25.4775 6.38892 22.425C6.08845 22.0031 5.50298 21.9042 5.08111 22.2047C4.65923 22.5052 4.56033 23.0906 4.86079 23.5125C7.42392 27.0619 11.5602 29.1342 15.9374 29.0625C23.7041 29.0625 29.9999 22.7667 29.9999 15C29.9999 7.23328 23.7041 0.9375 15.9374 0.9375Z" fill="white"/>
</g>
<defs>
<clipPath id="clip0">
<rect width="30" height="30" fill="white"/>
</clipPath>
</defs>
</svg>
