<svg width="30" height="30" viewBox="0 0 30 30" fill="none" xmlns="http://www.w3.org/2000/svg">
<path d="M24.1776 11.0323C24.0138 9.03859 22.3496 7.50308 20.3492 7.5H9.65081C7.65139 7.50496 5.98845 9.03962 5.82339 11.0323C2.43931 11.7192 0.00544355 14.692 0 18.1452C0.00127016 19.106 0.570968 19.975 1.45161 20.3594V21.0484C1.45161 21.8501 2.10151 22.5 2.90323 22.5H6.29032C7.09204 22.5 7.74194 21.8501 7.74194 21.0484V20.5645H22.7419V21.0484C22.7419 21.8501 23.3918 22.5 24.1935 22.5H27.5806C28.3824 22.5 29.0323 21.8501 29.0323 21.0484V20.0806C29.0323 20.0768 29.0323 20.0739 29.0323 20.07C29.6398 19.6164 29.9982 18.9033 30 18.1452C29.9945 14.6924 27.5612 11.7198 24.1776 11.0323ZM25.5934 12.5453C26.9229 13.2235 27.9696 14.3501 28.5484 15.7258H23.6269C23.3597 15.726 23.1429 15.5096 23.1427 15.2423C23.1426 15.1139 23.1936 14.9906 23.2844 14.8998L25.5034 12.6808C25.5409 12.6411 25.5714 12.5953 25.5934 12.5453ZM9.65081 8.46774H20.3492C21.7608 8.46962 22.9631 9.49379 23.1895 10.8871H6.81048C7.03687 9.49379 8.23923 8.46962 9.65081 8.46774ZM4.34226 12.5763H4.34274C4.36113 12.614 4.38435 12.6492 4.41194 12.6808L6.62903 14.8998C6.81798 15.0889 6.81792 15.3952 6.62897 15.5842C6.53909 15.674 6.41746 15.7249 6.29032 15.7258H1.45161C2.0204 14.3723 3.0424 13.2589 4.34226 12.5763ZM6.77419 21.0484C6.77419 21.3156 6.55754 21.5323 6.29032 21.5323H2.90323C2.63601 21.5323 2.41935 21.3156 2.41935 21.0484V20.5645H6.77419V21.0484ZM9.49258 19.5968L10.9442 16.6935H19.0558L20.5074 19.5968H9.49258ZM28.0645 21.0484C28.0645 21.3156 27.8479 21.5323 27.5806 21.5323H24.1935C23.9263 21.5323 23.7097 21.3156 23.7097 21.0484V20.5645H28.0645V21.0484ZM27.5806 19.5968H21.5894L19.7903 15.9934C19.7079 15.8286 19.5391 15.7248 19.3548 15.7258H10.6452C10.4618 15.7257 10.2941 15.8294 10.2121 15.9934L8.41064 19.5968H2.41935C1.61764 19.5968 0.967742 18.9469 0.967742 18.1452C0.969496 17.6561 1.02847 17.1689 1.14339 16.6935H6.29032C7.09204 16.6934 7.74181 16.0433 7.74163 15.2416C7.74157 14.8568 7.58867 14.4878 7.31661 14.2156L5.27806 12.179C5.91629 11.9651 6.58494 11.8556 7.25806 11.8548H22.7419C23.3929 11.8549 24.0399 11.9566 24.6595 12.1563L22.6002 14.2156C22.0334 14.7826 22.0335 15.7017 22.6005 16.2685C22.8727 16.5407 23.242 16.6936 23.6269 16.6935H28.8566C28.9716 17.1689 29.0305 17.6561 29.0323 18.1452C29.0323 18.9469 28.3824 19.5968 27.5806 19.5968Z" fill="white"/>
</svg>
