<svg width="30" height="30" viewBox="0 0 30 30" fill="none" xmlns="http://www.w3.org/2000/svg">
<path d="M19.4136 0C13.5781 0 8.83076 4.74738 8.83076 10.5828C8.83076 12.5116 9.34972 14.3213 10.2549 15.8802L0.803826 25.3313C-0.262815 26.3979 -0.262815 28.1334 0.803826 29.2C1.33709 29.7333 2.03763 30 2.73812 30C3.43861 30 4.13922 29.7334 4.67242 29.2L14.1255 19.7469C15.6822 20.6487 17.4886 21.1655 19.4134 21.1655C25.2488 21.1655 29.9962 16.4181 29.9962 10.5827C29.9962 4.74738 25.249 0 19.4136 0ZM3.42836 27.9559C3.04773 28.3365 2.42851 28.3365 2.04795 27.956C1.66738 27.5754 1.66738 26.9561 2.04795 26.5755L2.64121 25.9822L4.02162 27.3626L3.42836 27.9559ZM5.26574 26.1186L3.88533 24.7382L4.83824 23.7853L6.21865 25.1657L5.26574 26.1186ZM7.46271 23.9215L6.0823 22.5411L11.279 17.3444C11.6962 17.8454 12.1586 18.3076 12.66 18.7242L7.46271 23.9215ZM19.4136 19.4061C14.5483 19.4061 10.5903 15.4479 10.5903 10.5828C10.5903 5.71764 14.5483 1.75951 19.4136 1.75951C24.2788 1.75951 28.2368 5.71758 28.2368 10.5828C28.2368 15.448 24.2788 19.4061 19.4136 19.4061Z" fill="white"/>
<path d="M24.0766 9.59274C23.5908 9.59274 23.1969 9.98661 23.1969 10.4725V14.2954C23.1969 14.7812 23.5908 15.1751 24.0766 15.1751C24.5625 15.1751 24.9564 14.7812 24.9564 14.2954V10.4725C24.9564 9.98655 24.5624 9.59274 24.0766 9.59274Z" fill="white"/>
<path d="M21.1657 5.66458C20.6798 5.66458 20.2859 6.05845 20.2859 6.54431V14.2953C20.2859 14.7811 20.6798 15.175 21.1657 15.175C21.6515 15.175 22.0454 14.7811 22.0454 14.2953V6.54431C22.0455 6.05845 21.6515 5.66458 21.1657 5.66458Z" fill="white"/>
<path d="M18.2137 7.62869C17.7279 7.62869 17.334 8.02256 17.334 8.50842V14.3479C17.334 14.8338 17.7279 15.2276 18.2137 15.2276C18.6996 15.2276 19.0934 14.8338 19.0934 14.3479V8.50842C19.0935 8.02256 18.6996 7.62869 18.2137 7.62869Z" fill="white"/>
<path d="M15.1363 5.71725C14.6505 5.71725 14.2566 6.11112 14.2566 6.59698V14.3479C14.2566 14.8338 14.6505 15.2277 15.1363 15.2277C15.6222 15.2277 16.016 14.8338 16.016 14.3479V6.59698C16.0161 6.11112 15.6222 5.71725 15.1363 5.71725Z" fill="white"/>
</svg>
