<svg width="30" height="30" viewBox="0 0 30 30" fill="none" xmlns="http://www.w3.org/2000/svg">
<g clip-path="url(#clip0)">
<path d="M27.7087 16.4998C27.7029 16.4998 27.6969 16.4998 27.691 16.5C27.121 16.4988 26.5717 16.7132 26.153 17.1L20.736 22.1C20.4593 22.357 20.0956 22.4999 19.718 22.5H12.1215C11.5692 22.5 11.1215 22.0523 11.1215 21.5C11.1215 20.9477 11.5692 20.5 12.1215 20.5H17.3785C18.4831 20.5 19.3785 19.6045 19.3785 18.5C19.3785 17.3954 18.4831 16.5 17.3785 16.5H9.2205C8.00212 16.4996 6.80831 16.8422 5.7755 17.4885L4 18.6V18H0V30H4V29H14.5415C14.8724 29 15.2029 28.9747 15.53 28.9245L19.635 28.293C21.0022 28.0855 22.2667 27.4448 23.2425 26.465L29.3355 20.371C29.7623 19.9467 30.0016 19.3693 30 18.7675C29.9935 17.5085 28.9676 16.4933 27.7087 16.4998ZM3 29H1V19H3V29ZM28.628 19.665L28.6285 19.664L22.5355 25.758C21.7097 26.587 20.6398 27.1292 19.483 27.305L15.378 27.9365C15.1012 27.9788 14.8216 28.0001 14.5415 28H4V19.777L6.306 18.336C7.17981 17.7894 8.18981 17.4997 9.2205 17.5H17.3785C17.9308 17.5 18.3785 17.9477 18.3785 18.5C18.3785 19.0523 17.9308 19.5 17.3785 19.5H12.1215C11.0169 19.5 10.1215 20.3954 10.1215 21.5C10.1215 22.6045 11.0169 23.5 12.1215 23.5H19.718C20.3467 23.5007 20.9524 23.2639 21.414 22.837L26.8315 17.837C27.0773 17.6137 27.3995 17.4934 27.7315 17.501C28.4315 17.5007 28.9993 18.068 28.9995 18.768C28.9996 19.1044 28.8659 19.4271 28.628 19.665Z" fill="white"/>
<path d="M22.4 5.19995C22.3055 5.07408 22.1574 4.99995 22 4.99995H17.3385L15.4645 0.314455C15.3619 0.0580796 15.071 -0.0666704 14.8146 0.0358921C14.6875 0.0867046 14.5868 0.187392 14.536 0.314455L12.6615 4.99995H8C7.72387 4.99995 7.5 5.22383 7.5 5.49995C7.5 5.65733 7.57412 5.80552 7.7 5.89995L11.4035 8.67745L9.53 13.8275C9.43562 14.087 9.5695 14.3738 9.829 14.4682C9.99281 14.5278 10.1758 14.4977 10.312 14.389L14.9825 10.652L19.1675 14.3715C19.374 14.5548 19.69 14.5361 19.8734 14.3296C19.9854 14.2034 20.0262 14.0293 19.982 13.8665L18.572 8.69645L22.3 5.89995C22.5209 5.73427 22.5657 5.42083 22.4 5.19995ZM17.7 8.09995C17.5359 8.22295 17.4636 8.43364 17.5175 8.63145L18.575 12.509L15.3325 9.62645C15.1505 9.46452 14.8783 9.45739 14.688 9.60945L11.079 12.4965L12.4705 8.67095C12.5457 8.46383 12.4764 8.23195 12.3 8.09995L9.5 5.99995H13C13.2046 6.00002 13.3886 5.87545 13.4645 5.68545L15 1.84595L16.5355 5.68545C16.6114 5.87545 16.7954 6.00002 17 5.99995H20.5L17.7 8.09995Z" fill="white"/>
<path d="M9.85383 1.14672L9.14673 1.85382L11.1468 3.85385L11.8539 3.14675L9.85383 1.14672Z" fill="white"/>
<path d="M20.1463 1.14615L18.1462 3.14618L18.8533 3.85328L20.8534 1.85325L20.1463 1.14615Z" fill="white"/>
<path d="M9.5 9H6.5V10H9.5V9Z" fill="white"/>
<path d="M23.5 9H20.5V10H23.5V9Z" fill="white"/>
<path d="M15.5 12H14.5V15H15.5V12Z" fill="white"/>
</g>
<defs>
<clipPath id="clip0">
<rect width="30" height="30" fill="white"/>
</clipPath>
</defs>
</svg>
