<svg width="30" height="30" viewBox="0 0 30 30" fill="none" xmlns="http://www.w3.org/2000/svg">
<g clip-path="url(#clip0)">
<path d="M28.617 28.8281H27.3319V10.1681C27.3319 9.2996 26.6252 8.59302 25.7568 8.59302H22.8843C22.0157 8.59302 21.3091 9.29966 21.3091 10.1681V28.8281H18.0459V18.6226C18.0459 17.754 17.3394 17.0474 16.4708 17.0474H13.5983C12.7298 17.0474 12.0232 17.7541 12.0232 18.6226V28.8281H8.76V23.5427C8.76 22.6742 8.05336 21.9676 7.18488 21.9676H4.31232C3.44379 21.9676 2.7372 22.6743 2.7372 23.5427V28.8281H1.38275C1.05914 28.8281 0.796814 29.0905 0.796814 29.4141C0.796814 29.7377 1.05914 30 1.38275 30H28.617C28.9406 30 29.2029 29.7377 29.2029 29.4141C29.2029 29.0905 28.9406 28.8281 28.617 28.8281ZM7.58801 28.8281H3.90902V23.5427C3.90902 23.3204 4.0899 23.1395 4.31226 23.1395H7.18476C7.40713 23.1395 7.58801 23.3204 7.58801 23.5427V28.8281ZM16.874 28.8281H13.195V18.6226C13.195 18.4002 13.3759 18.2193 13.5983 18.2193H16.4708C16.6931 18.2193 16.874 18.4002 16.874 18.6226V28.8281ZM26.16 28.8281H22.481V10.1681C22.481 9.94577 22.6619 9.76489 22.8843 9.76489H25.7568C25.9791 9.76489 26.16 9.94577 26.16 10.1681V28.8281Z" fill="white"/>
<path d="M27.3306 0.616172C27.3388 0.45627 27.2826 0.293672 27.1605 0.171562C27.0384 0.0494531 26.8758 -0.00685547 26.7159 0.00140625C26.7064 0.000996094 26.6971 0 26.6875 0H23.1426C22.819 0 22.5567 0.262324 22.5567 0.585938C22.5567 0.909551 22.819 1.17188 23.1426 1.17188H25.3315L19.5391 6.96434L17.3547 4.77996C17.2448 4.6701 17.0958 4.60834 16.9404 4.60834C16.785 4.60834 16.6359 4.6701 16.5261 4.77996L5.99271 15.3134C5.7639 15.5422 5.7639 15.9132 5.99271 16.142C6.10715 16.2564 6.25709 16.3136 6.40703 16.3136C6.55697 16.3136 6.70697 16.2564 6.82135 16.1419L16.9404 6.02285L19.1248 8.20723C19.3536 8.43604 19.7246 8.43604 19.9534 8.20723L26.1602 2.00057V3.98162C26.1602 4.30523 26.4225 4.56756 26.7461 4.56756C27.0697 4.56756 27.332 4.30523 27.332 3.98162V0.644531C27.332 0.63498 27.331 0.625664 27.3306 0.616172Z" fill="white"/>
<path d="M4.43201 18.358C4.75561 18.358 5.01794 18.0956 5.01794 17.772C5.01794 17.4484 4.75561 17.1861 4.43201 17.1861C4.1084 17.1861 3.84607 17.4484 3.84607 17.772C3.84607 18.0956 4.1084 18.358 4.43201 18.358Z" fill="white"/>
</g>
<defs>
<clipPath id="clip0">
<rect width="30" height="30" fill="white"/>
</clipPath>
</defs>
</svg>
