<svg width="23" height="22" viewBox="0 0 23 22" fill="none" xmlns="http://www.w3.org/2000/svg">
<path d="M13.9279 7.18607C13.9732 7.33894 14.0539 7.47815 14.1631 7.59169C14.2722 7.70524 14.4065 7.78971 14.5544 7.83782C14.6527 7.86981 14.7554 7.88523 14.8585 7.88349L21.2935 7.73257C21.4975 7.72915 21.6974 7.79226 21.8645 7.91288C22.0311 8.03479 22.1552 8.20881 22.2183 8.40913C22.2814 8.60945 22.2802 8.8254 22.2148 9.02494C22.1483 9.22371 22.0226 9.39578 21.8557 9.51663L16.5632 13.2929C16.4786 13.3537 16.4043 13.4285 16.3431 13.5141C16.2171 13.6851 16.1511 13.8951 16.1559 14.1098C16.1565 14.2162 16.1739 14.3218 16.2075 14.4224L18.3357 20.6837C18.402 20.8825 18.4055 21.0979 18.3457 21.2989C18.285 21.4998 18.163 21.6752 17.9978 21.7989C17.8326 21.9227 17.6331 21.9881 17.429 21.9856C17.2252 21.9825 17.0276 21.9129 16.8645 21.787L11.7438 17.7642C11.6615 17.6999 11.5695 17.6501 11.4714 17.6168C11.2753 17.5465 11.0618 17.5465 10.8657 17.6168C10.7676 17.6501 10.6756 17.6999 10.5932 17.7642L5.47183 21.7854C5.3087 21.9114 5.1111 21.9809 4.90732 21.984C4.70316 21.9865 4.50367 21.9211 4.33851 21.7973C4.17335 21.6736 4.05134 21.4983 3.99062 21.2973C3.93084 21.0963 3.93434 20.881 4.00064 20.6821L6.12882 14.4192C6.16239 14.3186 6.17982 14.2131 6.18045 14.1067C6.18524 13.892 6.11922 13.6819 5.99318 13.5109C5.93206 13.4253 5.85773 13.3506 5.77316 13.2897L0.479887 9.51544C0.312953 9.39459 0.187277 9.22252 0.12076 9.02375C0.0553755 8.82421 0.0541393 8.60826 0.117234 8.40794C0.18033 8.20762 0.304395 8.0336 0.471024 7.91169C0.638189 7.79107 0.838052 7.72796 1.04208 7.73138L7.47708 7.8823C7.58015 7.88404 7.68281 7.86862 7.78111 7.83663C7.929 7.78852 8.06332 7.70405 8.17247 7.5905C8.28162 7.47696 8.36234 7.33775 8.40766 7.18488L10.2572 0.830244C10.3171 0.629272 10.437 0.452899 10.5998 0.326242C10.7637 0.200641 10.9624 0.132812 11.1666 0.132812C11.3708 0.132812 11.5696 0.200641 11.7334 0.326242C11.8962 0.452899 12.0161 0.629272 12.076 0.830244L13.9279 7.18607Z" fill="#00D1FF"/>
</svg>
