<svg width="24" height="22" viewBox="0 0 24 22" fill="none" xmlns="http://www.w3.org/2000/svg">
<g clip-path="url(#clip0)">
<path d="M10.9616 17.774C9.80363 17.774 8.86523 18.7201 8.86523 19.8875C8.86523 21.0544 9.80363 22.0005 10.9616 22.0005C12.119 22.0005 13.0574 21.0544 13.0574 19.8875C13.0574 18.7201 12.119 17.774 10.9616 17.774Z" fill="white"/>
<path d="M18.5896 17.774C17.4316 17.774 16.4932 18.7201 16.4932 19.8875C16.4932 21.0544 17.4316 22.0005 18.5896 22.0005C19.747 22.0005 20.6854 21.0544 20.6854 19.8875C20.6854 18.7201 19.747 17.774 18.5896 17.774Z" fill="white"/>
<path d="M8.22641 16.7856L8.26481 16.7753H8.22461L8.22641 16.7856Z" fill="white"/>
<path d="M20.838 13.3843C20.8662 13.3552 20.8902 13.3226 20.9112 13.2881C20.9112 13.2881 20.9112 13.2875 20.9118 13.2869C20.9178 13.2766 20.9238 13.2663 20.9286 13.2554C20.952 13.2131 20.97 13.1689 20.9832 13.1217L23.925 5.49561C24.108 5.02076 23.9472 4.48118 23.5344 4.18719C23.2602 3.99181 22.9326 3.88716 22.5972 3.88716H6.57421L5.71861 0.706536C5.59501 0.300036 5.22361 0.0211719 4.80181 0.0193571L0.898206 0C0.388206 0.00181473 -0.00179379 0.288542 6.20544e-06 0.757348C0.00240621 1.22615 0.394806 1.7004 0.904206 1.69798L4.34341 1.78328L8.27521 16.7754H20.874C21.4944 16.7754 21.9978 16.4167 21.9978 15.9751C21.9978 15.5329 21.4944 15.1748 20.874 15.1748H9.57661L9.16921 13.6577H20.2068C20.463 13.6571 20.6916 13.55 20.838 13.3843Z" fill="white"/>
</g>
<defs>
<clipPath id="clip0">
<rect width="24" height="22" fill="white"/>
</clipPath>
</defs>
</svg>
