<svg width="35" height="33" viewBox="0 0 35 33" fill="none" xmlns="http://www.w3.org/2000/svg">
<path d="M10.1174 24.9299C8.58831 24.8518 8.61711 22.701 10.1174 22.6263C14.3671 22.6411 25.5762 22.6303 29.9612 22.6334C31.1605 22.6334 32.1865 21.8172 32.4563 20.6487L34.9462 9.86675C35.0888 9.24941 34.9449 8.61046 34.5515 8.11383C34.1581 7.61721 33.5691 7.32838 32.9355 7.32838C31.1716 7.32838 16.198 7.2606 8.5286 7.23003L7.31287 2.71912C7.02102 1.64114 6.03729 0.888306 4.92052 0.888306H1.02594C0.459346 0.888306 0 1.34765 0 1.91424C0 2.48083 0.459346 2.94018 1.02594 2.94018H4.92052C5.11278 2.94018 5.28206 3.06979 5.33206 3.25425L10.0011 20.5772C9.18014 20.6071 8.41548 20.941 7.83562 21.5293C7.22635 22.1476 6.89914 22.966 6.91426 23.8339C6.94449 25.5696 8.38142 26.9817 10.1174 26.9817H11.6134C11.391 27.4484 11.2662 27.9702 11.2662 28.5207C11.2662 30.5007 12.8771 32.1116 14.8571 32.1116C16.8372 32.1116 18.448 30.5007 18.448 28.5207C18.448 27.9701 18.3231 27.4484 18.1008 26.9817H24.579C24.3568 27.4483 24.232 27.9698 24.232 28.5201C24.232 30.5002 25.8429 32.111 27.8229 32.111C29.803 32.111 31.4139 30.5001 31.4139 28.5201C31.4139 27.9484 31.2789 27.4078 31.0402 26.9275C31.4462 26.7908 31.7389 26.4078 31.7389 25.9558C31.7389 25.3892 31.2795 24.9299 30.713 24.9299H10.1174ZM16.3961 28.5207C16.3961 29.3694 15.7057 30.0598 14.8571 30.0598C14.0084 30.0598 13.318 29.3694 13.318 28.5207C13.318 27.6725 14.0077 26.9824 14.8558 26.9818H14.8584C15.7064 26.9824 16.3961 27.6725 16.3961 28.5207ZM27.823 30.0592C26.9744 30.0592 26.2839 29.3688 26.2839 28.5202C26.2839 27.6799 26.9609 26.9952 27.798 26.9818H27.848C28.6852 26.9952 29.3621 27.6799 29.3621 28.5202C29.3621 29.3688 28.6716 30.0592 27.823 30.0592ZM32.9431 9.38777C32.9492 9.39543 32.9483 9.39906 32.947 9.40494L31.8978 13.9481H28.3452L28.9502 9.36404L32.9273 9.38004C32.9334 9.38018 32.937 9.38018 32.9431 9.38777ZM22.366 20.5814V16H26.0048L25.4002 20.5814H22.366ZM17.2786 20.5814L16.6691 16H20.3141V20.5814H17.2786ZM12.5557 20.5814H12.5525C12.3024 20.5813 12.0821 20.4127 12.0171 20.1724L10.8925 16H14.5991L15.2086 20.5814H12.5557ZM16.396 13.9482L15.779 9.31103L20.3141 9.32929V13.9482H16.396ZM22.366 13.9482V9.33757L26.8816 9.35576L26.2756 13.9482H22.366ZM13.7079 9.30262L14.326 13.9481H10.3394L9.08233 9.28395L13.7079 9.30262ZM29.9612 20.5814H27.4698L28.0744 16H31.4239L30.457 20.187C30.4034 20.4192 30.1995 20.5814 29.9612 20.5814Z" fill="white"/>
</svg>
