<svg width="50" height="50" viewBox="0 0 50 50" fill="none" xmlns="http://www.w3.org/2000/svg">
<path d="M25 8.15217C25.5979 8.15217 26.087 7.66304 26.087 7.06522V6.52174C26.087 5.92391 25.5979 5.43478 25 5.43478C24.4022 5.43478 23.9131 5.92391 23.9131 6.52174V7.06522C23.9131 7.66304 24.4022 8.15217 25 8.15217Z" fill="white"/>
<path d="M25 41.8478C24.4022 41.8478 23.9131 42.337 23.9131 42.9348V43.4783C23.9131 44.0761 24.4022 44.5652 25 44.5652C25.5979 44.5652 26.087 44.0761 26.087 43.4783V42.9348C26.087 42.337 25.5979 41.8478 25 41.8478Z" fill="white"/>
<path d="M7.065 23.9131H6.52153C5.9237 23.9131 5.43457 24.4022 5.43457 25C5.43457 25.5978 5.9237 26.087 6.52153 26.087H7.065C7.66283 26.087 8.15196 25.5978 8.15196 25C8.15196 24.4022 7.66283 23.9131 7.065 23.9131Z" fill="white"/>
<path d="M43.4781 23.9131H42.9346C42.3368 23.9131 41.8477 24.4022 41.8477 25C41.8477 25.5978 42.3368 26.087 42.9346 26.087H43.4781C44.0759 26.087 44.5651 25.5978 44.5651 25C44.5651 24.4022 44.0759 23.9131 43.4781 23.9131Z" fill="white"/>
<path d="M12.717 11.1957C12.2822 10.7609 11.63 10.7609 11.1952 11.1957C10.7604 11.6304 10.7604 12.2826 11.1952 12.7174L11.5757 13.0978C11.7931 13.3152 12.0648 13.4239 12.3365 13.4239C12.6083 13.4239 12.88 13.3152 13.0974 13.0978C13.5322 12.663 13.5322 12.0109 13.0974 11.5761L12.717 11.1957Z" fill="white"/>
<path d="M11.5757 36.9022L11.1952 37.2826C10.7604 37.7174 10.7604 38.3696 11.1952 38.8043C11.4126 39.0217 11.6844 39.1304 11.9561 39.1304C12.2278 39.1304 12.4996 39.0217 12.717 38.8043L13.0974 38.4239C13.5322 37.9891 13.5322 37.337 13.0974 36.9022C12.6626 36.4674 12.0104 36.4674 11.5757 36.9022Z" fill="white"/>
<path d="M37.2827 11.1957L36.9023 11.5761C36.4675 12.0109 36.4675 12.663 36.9023 13.0978C37.1197 13.3152 37.3914 13.4239 37.6631 13.4239C37.9349 13.4239 38.2066 13.3152 38.424 13.0978L38.8044 12.7174C39.2392 12.2826 39.2392 11.6304 38.8044 11.1957C38.3697 10.7609 37.7175 10.7609 37.2827 11.1957Z" fill="white"/>
<path d="M26.087 24.5652V14.6739C26.087 14.0761 25.5979 13.5869 25 13.5869C24.4022 13.5869 23.9131 14.0761 23.9131 14.6739V25C23.9131 25.2717 24.0218 25.5435 24.2392 25.7609L36.1413 37.663C36.3587 37.8804 36.6305 37.9891 36.9022 37.9891C37.1739 37.9891 37.4457 37.8804 37.6631 37.663C38.0978 37.2283 38.0978 36.5761 37.6631 36.1413L26.087 24.5652Z" fill="white"/>
<path d="M25 0C11.1957 0 0 11.1957 0 25C0 38.8043 11.1957 50 25 50C38.8043 50 50 38.8043 50 25C50 11.1957 38.8043 0 25 0ZM25 47.8261C12.3913 47.8261 2.17391 37.6087 2.17391 25C2.17391 12.3913 12.3913 2.17391 25 2.17391C37.6087 2.17391 47.8261 12.3913 47.8261 25C47.8261 37.6087 37.6087 47.8261 25 47.8261Z" fill="white"/>
</svg>
