<svg width="25" height="25" viewBox="0 0 25 25" fill="none" xmlns="http://www.w3.org/2000/svg">
<g clip-path="url(#clip0)">
<path d="M23.6559 1.88244e-06H1.36718C0.974068 -0.000741715 0.613673 0.218867 0.433971 0.568604C0.25179 0.92305 0.283765 1.34987 0.51651 1.67359L8.68217 13.1765C8.68489 13.1805 8.68787 13.1842 8.69059 13.1881C8.98729 13.5887 9.14766 14.0738 9.14865 14.5725V23.9507C9.14691 24.2285 9.25597 24.4952 9.45179 24.6923C9.6476 24.8893 9.91381 24.9999 10.1914 24.9999C10.3327 24.9999 10.4722 24.9716 10.6026 24.9176L15.1911 23.1679C15.6023 23.0425 15.8752 22.6546 15.8752 22.1874V14.5725C15.8759 14.074 16.0366 13.5887 16.333 13.1881C16.3357 13.1842 16.3387 13.1805 16.3414 13.1765L24.5068 1.67309C24.7396 1.34963 24.7716 0.92305 24.5894 0.568604C24.4097 0.218867 24.0493 -0.000741715 23.6559 1.88244e-06ZM15.3098 12.4364C14.8538 13.0553 14.6071 13.8036 14.6056 14.5725V22.0332L10.4177 23.6299V14.5725C10.4162 13.8036 10.1696 13.0553 9.71329 12.4364L1.78583 1.26907H23.2375L15.3098 12.4364Z" fill="#FE183F"/>
<g clip-path="url(#clip1)">
<path d="M23.6559 1.88239e-06H1.36772C0.974368 -0.000741696 0.613982 0.218861 0.434284 0.568589C0.252108 0.923027 0.284082 1.34984 0.516821 1.67354L8.68227 13.1764C8.685 13.1804 8.68797 13.1841 8.6907 13.1881C8.98739 13.5886 9.148 14.0739 9.14874 14.5723V23.9506C9.14701 24.2282 9.25606 24.4951 9.45162 24.6922C9.64743 24.889 9.91363 25 10.1912 25C10.3323 24.9998 10.4721 24.9717 10.6024 24.9175L15.1908 23.1681C15.6017 23.0424 15.8746 22.6545 15.8746 22.1876V14.5723C15.8754 14.0739 16.036 13.5886 16.3324 13.1881C16.3352 13.1841 16.3381 13.1804 16.3409 13.1764L24.5065 1.67329C24.7393 1.34984 24.7713 0.923275 24.5891 0.568837C24.4096 0.218861 24.049 -0.000741696 23.6559 1.88239e-06Z" fill="#FE183F"/>
</g>
</g>
<defs>
<clipPath id="clip0">
<rect width="25" height="25" fill="white"/>
</clipPath>
<clipPath id="clip1">
<rect width="25" height="25" fill="white"/>
</clipPath>
</defs>
</svg>
