<svg width="25" height="25" viewBox="0 0 25 25" fill="none" xmlns="http://www.w3.org/2000/svg">
<path d="M23.6556 1.88243e-06H1.36691C0.97379 -0.000741715 0.613395 0.218867 0.433693 0.568604C0.251512 0.92305 0.283487 1.34987 0.516232 1.67359L8.68189 13.1765C8.68462 13.1805 8.68759 13.1842 8.69032 13.1881C8.98702 13.5887 9.14738 14.0738 9.14838 14.5725V23.9507C9.14664 24.2285 9.2557 24.4952 9.45151 24.6923C9.64733 24.8893 9.91352 24.9999 10.1911 24.9999C10.3324 24.9999 10.4719 24.9716 10.6023 24.9176L15.1908 23.1679C15.602 23.0425 15.8749 22.6546 15.8749 22.1874V14.5725C15.8756 14.074 16.0363 13.5887 16.3327 13.1881C16.3354 13.1842 16.3384 13.1805 16.3411 13.1765L24.5065 1.67309C24.7393 1.34963 24.7713 0.92305 24.5891 0.568604C24.4094 0.218867 24.049 -0.000741715 23.6556 1.88243e-06ZM15.3095 12.4364C14.8534 13.0553 14.6068 13.8036 14.6053 14.5725V22.0332L10.4174 23.6299V14.5725C10.4159 13.8036 10.1693 13.0553 9.71301 12.4364L1.78555 1.26907H23.2372L15.3095 12.4364Z" fill="#FF183F"/>
</svg>
