<svg width="25" height="25" viewBox="0 0 25 25" fill="none" xmlns="http://www.w3.org/2000/svg">
<path d="M23.6556 1.88243e-06H1.3669C0.97379 -0.000741715 0.613395 0.218867 0.433693 0.568604C0.251512 0.92305 0.283487 1.34987 0.516232 1.67359L8.68189 13.1765C8.68461 13.1805 8.68759 13.1842 8.69031 13.1881C8.98701 13.5887 9.14738 14.0738 9.14837 14.5725V23.9507C9.14663 24.2285 9.25569 24.4952 9.45151 24.6923C9.64732 24.8893 9.91353 24.9999 10.1911 24.9999C10.3324 24.9999 10.4719 24.9716 10.6023 24.9176L15.1908 23.1679C15.602 23.0425 15.8749 22.6546 15.8749 22.1874V14.5725C15.8756 14.074 16.0363 13.5887 16.3327 13.1881C16.3354 13.1842 16.3384 13.1805 16.3411 13.1765L24.5065 1.67309C24.7393 1.34963 24.7713 0.92305 24.5891 0.568604C24.4094 0.218867 24.049 -0.000741715 23.6556 1.88243e-06ZM15.3095 12.4364C14.8535 13.0553 14.6068 13.8036 14.6053 14.5725V22.0332L10.4174 23.6299V14.5725C10.4159 13.8036 10.1693 13.0553 9.71301 12.4364L1.78555 1.26907H23.2372L15.3095 12.4364Z" fill="#FF183F"/>
<path d="M23.6553 1.88239e-06H1.36713C0.973773 -0.000741696 0.613387 0.218861 0.433689 0.568589C0.251513 0.923027 0.283487 1.34984 0.516226 1.67354L8.68167 13.1764C8.6844 13.1804 8.68737 13.1841 8.6901 13.1881C8.98679 13.5886 9.1474 14.0739 9.14814 14.5723V23.9506C9.14641 24.2282 9.25547 24.4951 9.45103 24.6922C9.64684 24.889 9.91304 25 10.1906 25C10.3317 24.9998 10.4715 24.9717 10.6018 24.9175L15.1902 23.1681C15.6011 23.0424 15.874 22.6545 15.874 22.1876V14.5723C15.8748 14.0739 16.0354 13.5886 16.3318 13.1881C16.3346 13.1841 16.3375 13.1804 16.3403 13.1764L24.5059 1.67329C24.7387 1.34984 24.7707 0.923275 24.5885 0.568837C24.409 0.218861 24.0484 -0.000741696 23.6553 1.88239e-06Z" fill="#FF183F"/>
</svg>
