<svg width="50" height="50" viewBox="0 0 50 50" fill="none" xmlns="http://www.w3.org/2000/svg">
<g clip-path="url(#clip0)">
<path d="M17.9528 33.543C17.7723 33.2077 17.8757 32.7961 18.1935 32.5855L20.5452 31.0279C21.1163 30.6503 21.4726 30.0419 21.5233 29.3594C21.5741 28.6766 21.3116 28.0224 20.8035 27.5642L19.1082 26.0364C18.882 25.8323 18.8053 25.5047 18.9183 25.2212L20.5365 21.1578C20.6082 20.9778 20.6059 20.7763 20.5292 20.5982C19.1513 17.3828 15.1493 15.5247 11.6089 16.4554C11.1309 16.5813 10.6678 16.7522 10.2322 16.9632C9.86827 17.1394 9.71607 17.5777 9.89269 17.9416C10.0689 18.3056 10.5069 18.4578 10.8712 18.2811C11.2213 18.1114 11.5952 17.9737 11.9816 17.8722C14.7004 17.157 17.8639 18.539 19.059 20.9091L17.5576 24.6792C17.2188 25.5291 17.4481 26.5117 18.1279 27.1244L19.8227 28.6522C19.9921 28.8047 20.0795 29.0229 20.0627 29.2503C20.0459 29.478 19.9269 29.6806 19.7365 29.8069L17.3848 31.3644C16.4318 31.9954 16.1213 33.2302 16.6626 34.2369L19.1674 38.8954C18.7146 38.8 18.2831 38.6097 17.899 38.3312C16.2129 37.1086 13.7867 35.2432 11.694 33.2298L13.4438 32.2254C13.7947 32.024 13.9157 31.5765 13.7143 31.2255C13.5128 30.875 13.0654 30.7537 12.7144 30.9551L10.6251 32.1544C9.52075 30.9879 8.58539 29.8019 8.01738 28.6873C6.60442 25.9166 6.94202 22.2278 8.82038 19.9165C9.07558 19.6026 9.0279 19.1414 8.71395 18.8862C8.4 18.631 7.9388 18.6786 7.6836 18.9926C6.58916 20.3392 5.89336 22.1218 5.72399 24.0112C5.55652 25.8777 5.90747 27.7748 6.71237 29.3525C7.30022 30.5061 8.23101 31.7154 9.32621 32.8998L8.0685 33.6216C8.02845 33.0879 7.86785 32.5637 7.59357 32.0961C7.1236 31.2946 6.37744 30.7312 5.4932 30.5095C3.69075 30.0579 1.82956 31.15 1.34395 32.9441L0.0583974 37.693C-0.0587139 38.1263 -0.000348999 38.5795 0.223192 38.969C0.446734 39.3581 0.808367 39.6373 1.24172 39.7544C5.99864 41.0049 6.10546 41.1609 6.89357 41.1609C7.48561 41.1609 8.07041 41.0064 8.5976 40.7035C9.39334 40.2469 9.96364 39.5076 10.2032 38.6219C10.595 37.1715 9.9934 35.6823 8.81542 34.8819L10.3791 33.9847C12.6118 36.1847 15.2359 38.2095 17.0391 39.5168C17.8658 40.1165 18.8439 40.4316 19.8483 40.4316C20.3812 40.4316 20.8477 40.4163 21.0629 39.9921C21.1716 39.7785 21.1686 39.5248 21.0553 39.3135L17.9528 33.543ZM8.78948 38.2396C8.65177 38.7474 8.32485 39.1712 7.86861 39.4332C7.41199 39.6949 6.88137 39.7636 6.37325 39.6263L1.62433 38.3407C1.50951 38.3094 1.44123 38.1904 1.47212 38.0756L2.75768 33.3267C2.99381 32.455 3.79642 31.8721 4.66426 31.8721C4.82067 31.8721 4.97936 31.8912 5.1369 31.9305C5.63663 32.056 6.06044 32.3776 6.33014 32.8373C6.609 33.313 6.6872 33.8878 6.54491 34.4146L6.52355 34.4928C6.37134 35.0544 6.70475 35.6346 7.26627 35.7868L7.40245 35.8234C8.45073 36.1072 9.07253 37.1913 8.78948 38.2396Z" fill="white"/>
<path d="M49.9912 15.2866C49.9279 14.6831 49.5327 14.1845 48.9594 13.985L48.019 13.6585C47.1451 13.3548 46.611 12.4706 46.7491 11.5558L46.8975 10.5716C46.9883 9.9712 46.7308 9.38908 46.2258 9.05224C45.7211 8.7154 45.0848 8.70091 44.5656 9.01448L43.166 9.85981C42.8196 10.0689 42.7086 10.519 42.9177 10.8654C43.1271 11.2114 43.5772 11.3227 43.9232 11.1137L45.3228 10.2684C45.3377 10.2596 45.3686 10.2409 45.4128 10.2707C45.4571 10.3 45.4518 10.3355 45.4491 10.3527L45.3007 11.3369C45.0573 12.949 45.9984 14.5069 47.538 15.0417L48.4783 15.3686C48.4947 15.3743 48.5287 15.3862 48.5344 15.4392C48.5398 15.4922 48.5089 15.5109 48.4944 15.5197L44.476 17.9466C43.4155 18.5875 42.136 18.7214 40.9661 18.3147L39.9403 17.9584L44.4409 15.2408C44.7872 15.0318 44.8982 14.5816 44.6892 14.2353C44.4802 13.8889 44.03 13.7779 43.6836 13.9869L39.1827 16.7045L39.3448 15.6307C39.5298 14.4058 40.2439 13.3358 41.3044 12.6953C41.6504 12.4862 41.7618 12.0361 41.5528 11.6897C41.3433 11.3437 40.8932 11.2323 40.5472 11.4418C39.1125 12.3081 38.1466 13.755 37.8964 15.4121L37.553 17.6887L36.3487 18.4158C35.2837 17.0646 33.8486 16.1327 32.177 15.7322C28.6179 14.8803 24.6575 16.827 23.3502 20.0725C23.3479 20.0782 23.3456 20.0843 23.3433 20.0904L21.8159 24.189C21.4966 25.0465 21.7476 26.0234 22.4404 26.6208L24.1692 28.1105C24.342 28.2592 24.4343 28.4755 24.4225 28.7033C24.4106 28.931 24.2962 29.1366 24.1089 29.2667L21.7922 30.8761C20.8538 31.5284 20.5708 32.7697 21.1342 33.7639L24.3645 39.4638C24.4961 39.6957 24.741 39.8353 25.0015 39.8353C25.0397 39.8353 25.0778 39.8323 25.1164 39.8262C25.8915 39.7033 26.6335 39.386 27.261 38.9091C28.9219 37.6476 30.4478 36.3872 31.797 35.1631C32.0965 34.8911 32.1186 34.428 31.847 34.1285C31.575 33.8287 31.1119 33.8066 30.8125 34.0782C29.4949 35.2741 28.0022 36.507 26.3748 37.7426C26.0712 37.9734 25.7298 38.1504 25.3689 38.2652L22.4087 33.0417C22.221 32.7106 22.3152 32.2967 22.628 32.0793L24.9447 30.4695C25.507 30.0792 25.8496 29.4632 25.8854 28.7796C25.9209 28.096 25.6439 27.4475 25.1255 27.0008L23.3971 25.5111C23.1659 25.312 23.0824 24.9862 23.1888 24.7005L24.7124 20.6112C25.7454 18.0606 29.0055 16.4795 31.836 17.1566C36.3136 18.23 37.9688 23.8792 36.0394 27.8812C35.484 29.0332 34.4902 30.3726 33.0849 31.8622C32.8076 32.1563 32.8209 32.6198 33.1154 32.8975C33.4095 33.1749 33.873 33.1615 34.1507 32.8674C35.6587 31.2683 36.7382 29.8046 37.3589 28.5171C38.6074 25.9281 38.6055 22.6818 37.3543 20.0454C37.2891 19.9085 37.2212 19.7742 37.1506 19.6426L38.3099 18.9426L40.485 19.6983C41.0877 19.9077 41.7114 20.0111 42.3321 20.0111C43.3426 20.0111 44.3447 19.7372 45.2332 19.2009L49.2516 16.7736C49.7711 16.46 50.0546 15.8901 49.9912 15.2866Z" fill="white"/>
</g>
<defs>
<clipPath id="clip0">
<rect width="50" height="50" fill="white"/>
</clipPath>
</defs>
</svg>
