<svg width="40" height="40" viewBox="0 0 40 40" fill="none" xmlns="http://www.w3.org/2000/svg">
<path d="M38.8276 37.6559H37.5776V14.5312C37.5776 13.8841 37.0529 13.3594 36.4058 13.3594H31.7183C31.0711 13.3594 30.5465 13.8841 30.5465 14.5312V37.6559H28.2027V22.3436C28.2027 21.6964 27.6781 21.1718 27.0309 21.1718H22.3434C21.6963 21.1718 21.1716 21.6964 21.1716 22.3436V37.6559H18.8279V26.6404C18.8279 25.9933 18.3032 25.4686 17.656 25.4686H12.9686C12.3214 25.4686 11.7967 25.9933 11.7967 26.6404V37.6559H9.453V29.4529C9.453 28.8057 8.92832 28.281 8.28114 28.281H3.5937C2.94652 28.281 2.42184 28.8057 2.42184 29.4529V37.6559H1.17186C0.52468 37.6559 0 38.1806 0 38.8278C0 39.475 0.52468 39.9996 1.17186 39.9996H38.8276C39.4748 39.9996 39.9995 39.475 39.9995 38.8278C39.9995 38.1806 39.4748 37.6559 38.8276 37.6559Z" fill="url(#paint0_linear)"/>
<path d="M1.17186 25.1801C8.48566 25.1801 16.417 22.5535 23.5048 17.7839C29.0559 14.0484 33.6833 9.27638 36.5576 4.38996L37.6957 8.63732C37.836 9.16091 38.5135 9.61325 39.1309 9.4659C39.7605 9.31575 40.127 8.65584 39.9595 8.03069L38.0406 0.869069C37.873 0.243999 37.2307 -0.127089 36.6054 0.0404866L29.4437 1.95944C28.8186 2.12694 28.4477 2.76951 28.6152 3.39466C28.7827 4.01981 29.425 4.3909 30.0504 4.22324L34.664 2.98701C31.9824 7.64679 27.5506 12.2364 22.1963 15.8394C15.4911 20.3515 8.0245 22.8364 1.17186 22.8364C0.52468 22.8364 0 23.3611 0 24.0083C0 24.6555 0.52468 25.1801 1.17186 25.1801V25.1801Z" fill="url(#paint1_linear)"/>
<defs>
<linearGradient id="paint0_linear" x1="40.8038" y1="13.3594" x2="5.0875" y2="46.1756" gradientUnits="userSpaceOnUse">
<stop stop-color="#FE173F"/>
<stop offset="1" stop-color="#950552"/>
</linearGradient>
<linearGradient id="paint1_linear" x1="40.8044" y1="0.000245227" x2="6.93841" y2="32.9215" gradientUnits="userSpaceOnUse">
<stop stop-color="#FE173F"/>
<stop offset="1" stop-color="#950552"/>
</linearGradient>
</defs>
</svg>
