<svg width="32" height="40" viewBox="0 0 32 40" fill="none" xmlns="http://www.w3.org/2000/svg">
<path d="M28.8 2.39952H27.156H24.224L22.532 0.583883C22.232 0.263947 21.628 0 21.188 0H10.812C10.372 0 9.764 0.263947 9.464 0.583883L7.776 2.39952H4.844H3.2C1.44 2.39952 0 3.83923 0 5.59888V36.8006C0 38.5603 1.44 40 3.2 40H28.8C30.56 40 32 38.5603 32 36.8006V5.59888C32 3.83923 30.56 2.39952 28.8 2.39952ZM27.956 35.201C27.956 35.6409 27.596 36.0008 27.156 36.0008H4.844C4.404 36.0008 4.044 35.6409 4.044 35.201V7.19856C4.044 6.75865 4.404 6.39872 4.844 6.39872H7.776L9.468 8.21436C9.768 8.53429 10.372 8.79824 10.812 8.79824H21.184C21.624 8.79824 22.232 8.53429 22.532 8.21436L24.224 6.39872H27.156C27.596 6.39872 27.956 6.75865 27.956 7.19856V35.201Z" fill="white"/>
<path d="M21.2998 12.1058C20.9878 11.7939 20.4798 11.7939 20.1678 12.1058L14.3438 17.9247L11.6918 15.3212C11.3758 15.0133 10.8678 15.0173 10.5598 15.3332L9.4878 16.425C9.1798 16.7409 9.1838 17.2488 9.4998 17.5568L13.7838 21.7559C13.8238 21.7959 13.8678 21.8279 13.9118 21.8599C14.2238 22.0718 14.6558 22.0439 14.9318 21.7679L22.3798 14.3174C22.6918 14.0055 22.6918 13.4976 22.3798 13.1856L21.2998 12.1058Z" fill="white"/>
<path d="M21.2998 22.2316C20.9878 21.9197 20.4798 21.9197 20.1678 22.2316L14.3438 28.0505L11.6918 25.447C11.3758 25.1391 10.8678 25.1431 10.5598 25.459L9.4878 26.5508C9.1798 26.8667 9.1838 27.3746 9.4998 27.6825L13.7838 31.8857C13.8238 31.9257 13.8678 31.9577 13.9118 31.9897C14.2238 32.2016 14.6558 32.1737 14.9318 31.8977L22.3838 24.4472C22.6958 24.1353 22.6958 23.6274 22.3838 23.3154L21.2998 22.2316Z" fill="white"/>
</svg>
