<svg width="24" height="30" viewBox="0 0 24 30" fill="none" xmlns="http://www.w3.org/2000/svg">
<path d="M12.0011 12.614C15.1589 12.614 17.6082 9.0916 17.6082 6.06184C17.6082 2.96926 15.093 0.453125 12.0011 0.453125C8.90781 0.453125 6.39185 2.9692 6.39185 6.06184C6.39185 9.0916 8.84113 12.614 12.0011 12.614ZM12.0011 2.46283C13.9853 2.46283 15.5985 4.07709 15.5985 6.06189C15.5985 8.10641 13.9381 10.6044 12.0011 10.6044C10.0619 10.6044 8.4015 8.10641 8.4015 6.06189C8.4015 4.07709 10.0158 2.46283 12.0011 2.46283Z" fill="white"/>
<path d="M20.7042 19.2038V15.5417C20.7042 13.1576 19.4001 11.0815 17.4688 9.97656C17.4745 10.0684 17.4844 10.1591 17.4844 10.2524C17.4844 11.9383 15.0086 15.7453 13.3834 18.0627L12.7173 14.7944L13.4241 14.0876C13.5085 14.0032 13.5085 13.8663 13.4242 13.7819L13.1501 13.5075C12.9811 13.3384 12.7518 13.2433 12.5127 13.2433H11.4871C11.248 13.2433 11.0187 13.3384 10.8497 13.5075L10.5756 13.7819C10.4913 13.8664 10.4914 14.0032 10.5757 14.0876L11.2825 14.7944L10.616 18.0627C8.99112 15.7449 6.51536 11.9383 6.51536 10.2525C6.51536 10.1592 6.52515 10.0684 6.532 9.97662C4.60081 11.0812 3.29663 13.1571 3.29663 15.5417V19.2035C1.85206 19.2545 0.692139 20.4364 0.692139 21.8922V26.8483C0.692139 28.3361 1.90198 29.5465 3.3898 29.5465H20.6088C22.0966 29.5465 23.3075 28.336 23.3075 26.8483V21.8922C23.3075 20.437 22.1476 19.2549 20.7042 19.2038ZM21.2979 26.8483C21.2979 27.2279 20.99 27.5366 20.6091 27.5366H3.39009C3.01034 27.5366 2.70208 27.228 2.70208 26.8483V21.8921C2.70208 21.5123 3.01034 21.2037 3.39009 21.2037H20.6091C20.99 21.2037 21.2979 21.5123 21.2979 21.8921V26.8483Z" fill="white"/>
<path d="M8.588 22.8958C8.85501 22.8958 9.08083 22.9397 9.26382 22.9977C9.30958 23.0122 9.35933 23.0072 9.40134 22.9839C9.44335 22.9606 9.47382 22.921 9.48572 22.8745L9.6063 22.4041C9.62892 22.316 9.57999 22.2251 9.49392 22.1956C9.28245 22.1232 8.9497 22.0586 8.54071 22.0586C7.18655 22.0586 6.09741 22.9089 6.09741 24.4364C6.09741 25.7116 6.89417 26.6748 8.44175 26.6748C8.87394 26.6748 9.2265 26.612 9.44675 26.5396C9.53036 26.5121 9.58005 26.427 9.56335 26.3406L9.47523 25.8854C9.46603 25.8378 9.43743 25.7962 9.39642 25.7706C9.3554 25.7449 9.30548 25.7372 9.25867 25.7497C9.06601 25.8012 8.82091 25.8377 8.59363 25.8377C7.69087 25.8377 7.15919 25.2729 7.15919 24.3765C7.15931 23.3805 7.78421 22.8958 8.588 22.8958Z" fill="white"/>
<path d="M11.2728 24.7156H12.7459C12.8423 24.7156 12.9204 24.6374 12.9204 24.541V24.0664C12.9204 23.9699 12.8423 23.8918 12.7459 23.8918H11.2728V22.962H12.8448C12.9412 22.962 13.0193 22.8838 13.0193 22.7874V22.3064C13.0193 22.2099 12.9412 22.1318 12.8448 22.1318H10.4307C10.3343 22.1318 10.2561 22.21 10.2561 22.3064V26.4336C10.2561 26.5301 10.3343 26.6082 10.4307 26.6082H12.9382C13.0346 26.6082 13.1128 26.53 13.1128 26.4336V25.9526C13.1128 25.8561 13.0346 25.778 12.9382 25.778H11.2728V24.7156Z" fill="white"/>
<path d="M15.778 22.0586C14.4563 22.0586 13.6006 23.0615 13.6006 24.4029C13.6006 25.6781 14.3768 26.6811 15.7045 26.6811C17.0136 26.6811 17.9035 25.791 17.9035 24.323C17.9035 23.088 17.1529 22.0586 15.778 22.0586ZM15.7584 25.8774C15.0804 25.8774 14.6692 25.2597 14.6692 24.3834C14.6692 23.5129 15.0676 22.8623 15.7515 22.8623C16.4494 22.8623 16.8348 23.5527 16.8348 24.3564C16.8349 25.2267 16.4426 25.8774 15.7584 25.8774Z" fill="white"/>
</svg>
