<svg width="50" height="50" viewBox="0 0 50 50" fill="none" xmlns="http://www.w3.org/2000/svg">
<path d="M24.6258 28.9517C24.287 28.7303 23.8329 28.8251 23.6114 29.1639C23.3898 29.5026 23.4847 29.9568 23.8234 30.1784C24.7425 30.7795 25.3713 30.9607 26.1802 31.0076V31.7748C26.1802 32.1795 26.5083 32.5077 26.913 32.5077C27.3178 32.5077 27.6459 32.1796 27.6459 31.7748V30.9489C29.2619 30.6272 30.2057 29.2925 30.4154 28.0458C30.6855 26.4389 29.845 25.0418 28.2742 24.4866C28.0677 24.4135 27.8566 24.3371 27.6459 24.2575V20.8754C28.1698 21.0044 28.4816 21.269 28.5094 21.2933C28.8071 21.5629 29.267 21.5425 29.5399 21.2468C29.8143 20.9493 29.7957 20.4856 29.498 20.2113C29.4571 20.1735 28.7704 19.5547 27.6459 19.3826V18.6976C27.6459 18.2928 27.3178 17.9647 26.913 17.9647C26.5083 17.9647 26.1802 18.2927 26.1802 18.6976V19.4386C26.0761 19.4617 25.9706 19.4882 25.8627 19.5206C24.8278 19.8324 24.0544 20.718 23.8445 21.8317C23.653 22.8477 23.9787 23.8277 24.6947 24.3892C25.0714 24.6847 25.5397 24.9554 26.1802 25.2409V29.5396C25.6327 29.4975 25.2501 29.36 24.6258 28.9517ZM25.5993 23.2358C25.3157 23.0133 25.1951 22.5793 25.285 22.1032C25.3648 21.6802 25.6415 21.1722 26.1803 20.9607V23.609C25.9619 23.4896 25.7643 23.3654 25.5993 23.2358ZM27.7856 25.8684C29.1077 26.3357 29.0262 27.4671 28.9698 27.8027C28.8604 28.4536 28.4096 29.1432 27.6458 29.4241V25.8184C27.6925 25.8351 27.7379 25.8516 27.7856 25.8684Z" fill="white"/>
<path d="M49.4122 37.8068C48.439 36.2998 46.5438 35.7175 44.8944 36.4139L42.9251 37.0643V36.0742C42.9251 34.6841 41.7943 33.5533 40.4042 33.5533C40.074 33.5533 39.8053 33.2846 39.8053 32.9545V19.5362C39.8053 16.8286 38.4058 14.3447 36.0617 12.8917L31.6954 10.1852V7.79936C32.4401 7.2818 34.0108 5.89366 34.9089 2.94891C35.108 2.2961 34.9896 1.60752 34.5839 1.05967C34.1798 0.514077 33.5587 0.20105 32.8796 0.20105H21.074C20.3949 0.20105 19.7738 0.514077 19.3697 1.05967C18.964 1.60752 18.8456 2.2961 19.0447 2.94891C19.9427 5.89366 21.5135 7.2818 22.2582 7.79936V10.1852L17.892 12.8917C15.5478 14.3447 14.1483 16.8286 14.1483 19.5362V22.8643C14.1483 23.269 14.4763 23.5972 14.8812 23.5972C15.286 23.5972 15.614 23.269 15.614 22.8643V19.5362C15.614 17.3395 16.7543 15.3214 18.6642 14.1375L23.1913 11.3313H30.7625L35.2896 14.1375C37.1995 15.3213 38.3398 17.3395 38.3398 19.5362V32.9547C38.3398 34.0931 39.2658 35.0191 40.4043 35.0191C40.9861 35.0191 41.4595 35.4925 41.4595 36.0743V37.5484L33.8597 40.0583C33.8836 39.9579 33.9027 39.8553 33.9166 39.7508C34.025 38.9378 33.8103 38.1315 33.3122 37.48C32.8189 36.835 32.1061 36.4183 31.3029 36.305C31.3029 36.305 19.2053 33.9141 18.6558 33.951C17.2231 34.0428 16.0245 34.911 14.9669 35.677C14.8409 35.7684 14.7171 35.858 14.5954 35.9443C13.9061 36.4334 13.2136 36.7206 12.4943 36.8506V36.0743C12.4943 35.4925 12.9678 35.0191 13.5496 35.0191C14.688 35.0191 15.614 34.0931 15.614 32.9547V26.2463C15.614 25.8416 15.286 25.5134 14.8812 25.5134C14.4763 25.5134 14.1483 25.8416 14.1483 26.2463V32.9547C14.1483 33.2848 13.8796 33.5535 13.5494 33.5535C12.1594 33.5535 11.0285 34.6843 11.0285 36.0744V36.9148C10.2391 36.8543 9.40474 36.6577 8.49908 36.3724V35.8038C8.49908 34.5699 7.49521 33.566 6.26123 33.566H2.23794C1.00396 33.5659 0 34.5698 0 35.8037V47.5614C0 48.7954 1.00396 49.7992 2.23794 49.7992H6.26123C7.49521 49.7992 8.49908 48.7954 8.49908 47.5614V46.6307L13.7188 46.3259C13.7253 46.3255 13.7318 46.3251 13.7384 46.3245C14.8749 46.2275 16.0414 46.3844 17.1119 46.7788C22.6965 48.8358 22.7662 48.8614 22.7662 48.8614C23.9124 49.2836 25.0192 49.4537 26.0965 49.4537C28.3872 49.4537 30.5433 48.6841 32.65 47.9321C33.1295 47.761 33.6251 47.5841 34.1139 47.4194C36.0509 46.7669 38.0154 46.176 39.8616 45.6267C40.2495 45.5113 40.4705 45.1031 40.3551 44.7152C40.2397 44.3273 39.8319 44.1068 39.4436 44.2218C37.5847 44.7748 35.6057 45.37 33.6458 46.0303C33.1445 46.1991 32.6427 46.3784 32.1572 46.5515C29.1743 47.6163 26.3569 48.6218 23.2722 47.4857C23.2401 47.4739 17.6183 45.4031 17.6183 45.4031C16.3506 44.9363 14.9692 44.7494 13.6234 44.863L8.49888 45.1622V37.9066C10.6471 38.5414 13.0489 38.8387 15.4434 37.1395C15.5688 37.0506 15.6964 36.958 15.8263 36.8639C16.723 36.2144 17.7394 35.4783 18.7492 35.4135C19.2126 35.3826 21.9007 35.9357 22.9127 36.1433C23.2075 36.2037 31.0404 37.7472 31.0404 37.7472C31.0552 37.75 31.0702 37.7525 31.0851 37.7545C31.5099 37.8111 31.8872 38.0297 32.1475 38.3702C32.4078 38.7107 32.5201 39.1321 32.4634 39.5569C32.3465 40.4338 31.5386 41.0525 30.661 40.9352C30.6545 40.9343 30.6481 40.9335 30.6414 40.9329L24.1688 40.2464C23.7672 40.2037 23.4054 40.4953 23.3627 40.8978C23.32 41.3004 23.6116 41.6612 24.0141 41.7039L30.4778 42.3896C30.9202 42.4472 31.353 42.4061 31.7549 42.2849C31.7958 42.2788 45.3833 37.7961 45.3833 37.7961C45.4041 37.7892 45.4246 37.7814 45.4447 37.7727C46.4411 37.3412 47.5917 37.6899 48.1805 38.602C48.5222 39.131 48.6221 39.7826 48.4544 40.3898C48.2906 40.983 47.8858 41.4818 47.3404 41.7643C45.9952 42.2284 44.5419 42.6933 42.6373 43.2692C42.2499 43.3863 42.0307 43.7953 42.148 44.1828C42.2437 44.4995 42.5346 44.7037 42.8492 44.7037C42.9194 44.7037 42.9909 44.6935 43.0616 44.6721C45.007 44.0839 46.4889 43.6094 47.8659 43.1336C47.895 43.1236 47.9234 43.1117 47.9509 43.098C48.89 42.6345 49.5885 41.7895 49.8672 40.7799C50.1463 39.7702 49.9803 38.6866 49.4122 37.8068ZM30.2298 9.8656H23.7238V8.12562H30.2298V9.8656ZM30.7651 6.65986H23.1888C23.0092 6.54441 22.6604 6.29215 22.2577 5.85436C21.7155 5.26496 20.9611 4.20817 20.4466 2.52131C20.3844 2.31737 20.4213 2.10254 20.5476 1.93191C20.6725 1.76344 20.8642 1.66671 21.074 1.66671H32.8796C33.0894 1.66671 33.2812 1.76334 33.406 1.93191C33.5323 2.10254 33.5692 2.31746 33.507 2.52131C32.9925 4.20817 32.2381 5.26486 31.6959 5.85436C31.2921 6.29332 30.9424 6.54588 30.7651 6.65986ZM7.03332 47.5614C7.03332 47.9871 6.68697 48.3335 6.26123 48.3335H2.23794C1.81211 48.3335 1.46576 47.9871 1.46576 47.5614V35.8037C1.46576 35.378 1.81211 35.0317 2.23794 35.0317H6.26123C6.68697 35.0317 7.03332 35.378 7.03332 35.8037V47.5614Z" fill="white"/>
</svg>
