<svg width="33" height="23" viewBox="0 0 33 23" fill="none" xmlns="http://www.w3.org/2000/svg">
<path d="M7.70665 8.97513C7.74187 8.97513 7.77709 8.97513 7.81287 8.97457C8.22435 8.29922 8.71912 7.66803 9.29273 7.09442C9.67346 6.71369 10.0799 6.36819 10.5076 6.0579C9.63768 6.14736 8.69397 6.19599 7.70665 6.19599C3.85074 6.19599 0.646703 5.45019 0.000976562 4.46902V6.88253C0.000976563 8.03813 3.451 8.97513 7.70665 8.97513Z" fill="white"/>
<path d="M6.38892 13.4503C6.45601 12.4976 6.65671 11.5712 6.98097 10.6929C3.45491 10.6063 0.605891 9.89403 0.000976562 8.97491V11.3884C0.000976563 12.4221 2.76111 13.2809 6.38892 13.4503Z" fill="white"/>
<path d="M7.11306 17.9802C6.74686 17.0918 6.51038 16.1504 6.4131 15.1787C3.15204 15.0339 0.572488 14.3496 0 13.4808V15.8943C0.000559071 16.9951 3.13471 17.898 7.11306 17.9802Z" fill="white"/>
<path d="M8.03818 19.7114C7.92804 19.7125 7.8179 19.7137 7.70665 19.7137C3.85074 19.7137 0.646703 18.9679 0.000976562 17.9867V20.4002C0.000976562 21.5558 3.451 22.4922 7.70665 22.4922C8.72919 22.4922 9.70533 22.438 10.5982 22.3396C10.1369 22.0131 9.70029 21.6453 9.29273 21.2371C8.82032 20.7658 8.40101 20.2543 8.03818 19.7114Z" fill="white"/>
<path d="M7.70665 4.18408C11.9624 4.18408 15.4123 3.24745 15.4123 2.09204C15.4123 0.93664 11.9624 0 7.70665 0C3.45092 0 0.000976562 0.93664 0.000976562 2.09204C0.000976562 3.24745 3.45092 4.18408 7.70665 4.18408Z" fill="white"/>
<path d="M26.3303 14.9961C26.2509 15.9689 26.0329 16.9131 25.6846 17.8054C29.4287 17.6629 32.309 16.7896 32.309 15.7341V13.3206C31.7628 14.1508 29.3845 14.8122 26.3303 14.9961Z" fill="white"/>
<path d="M24.7944 19.5505C24.4081 20.1532 23.9541 20.7184 23.4359 21.2366C23.0714 21.6012 22.6839 21.9332 22.2764 22.2335C23.011 22.2966 23.7926 22.3307 24.6038 22.3307C28.8594 22.3307 32.3094 21.3943 32.3094 20.2387V17.8252C31.6743 18.7896 28.5648 19.5264 24.7944 19.5505Z" fill="white"/>
<path d="M32.3095 11.2282C32.3095 10.1101 29.0787 9.19712 25.0137 9.13898C25.7466 10.3952 26.195 11.7985 26.3247 13.2677C29.7524 13.0558 32.3095 12.2234 32.3095 11.2282Z" fill="white"/>
<path d="M16.301 22.4925C20.7896 22.4925 24.4282 18.8538 24.4282 14.3652C24.4282 9.87671 20.7896 6.23804 16.301 6.23804C11.8125 6.23804 8.17383 9.87671 8.17383 14.3652C8.17383 18.8538 11.8125 22.4925 16.301 22.4925Z" fill="white"/>
</svg>
