<svg width="40" height="38" viewBox="0 0 40 38" fill="none" xmlns="http://www.w3.org/2000/svg">
<path d="M20 0.25C16.7694 0.25 14.1406 2.95691 14.1406 6.18751C14.1406 9.41811 16.7694 12.0469 20 12.0469C23.2306 12.0469 25.8594 9.41811 25.8594 6.18751C25.8594 2.95691 23.2306 0.25 20 0.25Z" fill="url(#paint0_linear)"/>
<path d="M28.2031 21.4221C30.7883 21.4221 32.8906 19.3198 32.8906 16.7346C32.8906 14.1495 30.7883 12.0471 28.2031 12.0471C25.618 12.0471 23.5156 14.1495 23.5156 16.7346C23.5156 19.3198 25.618 21.4221 28.2031 21.4221Z" fill="url(#paint1_linear)"/>
<path d="M1.17188 35.4842H2.34375C3.63831 35.4842 4.68751 34.4347 4.68751 33.1404V19.0779C4.68751 17.7833 3.63831 16.7341 2.34375 16.7341H1.17188C0.524598 16.7341 0 17.2587 0 17.906V34.3123C0 34.9596 0.524598 35.4842 1.17188 35.4842Z" fill="url(#paint2_linear)"/>
<path d="M7.03125 19.0781V33.1406C7.03125 33.3769 6.99524 33.6033 6.96167 33.83L13.7994 37.2102C14.6085 37.6142 15.5152 37.8282 16.4191 37.8282C16.7786 37.8282 27.0047 37.8282 27.0047 37.8282C27.8757 37.8282 28.7271 37.5868 29.4687 37.129L39.0638 30.3455C40.0971 29.5673 40.3077 28.0955 39.5319 27.0621C38.8282 26.124 37.4643 25.7175 36.2507 26.5943L29.0375 30.6629C28.8694 30.7511 28.6829 30.7969 28.4928 30.7969C28.0704 30.7969 14.5749 30.7969 15.0781 30.7969C14.4302 30.7969 13.9063 30.2729 13.9063 29.625C13.9063 28.9774 14.4302 28.4531 15.0781 28.4531H25.8594C27.154 28.4531 28.2032 27.4036 28.2032 26.1094C28.2032 24.8148 27.154 23.7656 25.8594 23.7656H20.3546L14.7998 20.0623C13.8352 19.4181 12.7112 19.0781 11.5497 19.0781H7.03125Z" fill="url(#paint3_linear)"/>
<defs>
<linearGradient id="paint0_linear" x1="25.0781" y1="0.839846" x2="11.9723" y2="9.58302" gradientUnits="userSpaceOnUse">
<stop stop-color="#00F0FF"/>
<stop offset="1" stop-color="#0098D9"/>
<stop offset="1" stop-color="#0098D9"/>
</linearGradient>
<linearGradient id="paint1_linear" x1="32.2656" y1="12.5159" x2="21.824" y2="19.5282" gradientUnits="userSpaceOnUse">
<stop stop-color="#00F0FF"/>
<stop offset="1" stop-color="#0098D9"/>
<stop offset="1" stop-color="#0098D9"/>
</linearGradient>
<linearGradient id="paint2_linear" x1="4.37501" y1="17.6716" x2="-2.99276" y2="18.9086" gradientUnits="userSpaceOnUse">
<stop stop-color="#00F0FF"/>
<stop offset="1" stop-color="#0098D9"/>
<stop offset="1" stop-color="#0098D9"/>
</linearGradient>
<linearGradient id="paint3_linear" x1="37.7974" y1="20.0156" x2="15.5528" y2="46.3383" gradientUnits="userSpaceOnUse">
<stop stop-color="#00F0FF"/>
<stop offset="1" stop-color="#0098D9"/>
<stop offset="1" stop-color="#0098D9"/>
</linearGradient>
</defs>
</svg>
