<svg width="61" height="61" viewBox="0 0 61 61" fill="none" xmlns="http://www.w3.org/2000/svg">
<path d="M5.5727 30.1681C5.57279 22.7369 11.6179 16.6918 19.0491 16.6917C22.6482 16.6917 26.0336 18.0931 28.5793 20.6389C29.8361 21.8957 30.814 23.3599 31.4808 24.9508L54.1967 24.9506C54.3836 24.9506 54.5653 25.0197 54.7061 25.1425L59.7541 29.5889C59.9204 29.7348 60.0152 29.9447 60.0151 30.1674C60.0151 30.3722 59.9345 30.568 59.7899 30.7127C59.7784 30.7242 59.7668 30.7357 59.754 30.7459L54.7047 35.1937C54.5639 35.3166 54.3822 35.3857 54.1953 35.3857L50.6935 35.3858C50.504 35.3858 50.3223 35.3166 50.1802 35.1899L47.3862 32.6954L44.5832 35.1913C44.299 35.4447 43.8715 35.4524 43.5784 35.2079L41.0084 33.0705L38.4869 35.2054C38.3487 35.3232 38.1708 35.3885 37.989 35.3885L31.4717 35.3885C30.7882 37.0089 29.7975 38.4706 28.5726 39.6955C26.1318 42.1363 22.7618 43.6479 19.0475 43.648C11.6188 43.643 5.57388 37.598 5.5727 30.1681ZM16.3611 32.619C17.7127 31.2674 17.714 29.0672 16.3611 27.7144C15.0096 26.3628 12.8107 26.3628 11.4578 27.7157C10.1062 29.0673 10.1049 31.2675 11.4564 32.6191C12.8093 33.9719 15.0095 33.9706 16.3611 32.619Z" fill="white"/>
</svg>
