<svg width="40" height="40" viewBox="0 0 40 40" fill="none" xmlns="http://www.w3.org/2000/svg">
<path d="M20 0C8.955 0 0 8.955 0 20C0 31.045 8.955 40 20 40C31.045 40 40 31.045 40 20C40 8.955 31.045 0 20 0ZM21.25 28.65V30C21.25 30.69 20.69 31.25 20 31.25C19.31 31.25 18.75 30.69 18.75 30V28.645C17.47 28.435 16.2975 27.9125 15.42 27.135C14.9025 26.675 14.8575 25.8875 15.315 25.37C15.7725 24.8525 16.5625 24.81 17.08 25.265C17.785 25.89 18.85 26.25 20 26.25C22.0325 26.25 23.75 25.105 23.75 23.75C23.75 22.395 22.0325 21.25 20 21.25C16.555 21.25 13.75 19.0075 13.75 16.25C13.75 13.835 15.9 11.815 18.75 11.35V10C18.75 9.31 19.31 8.75 20 8.75C20.69 8.75 21.25 9.31 21.25 10V11.355C22.53 11.565 23.7025 12.0875 24.58 12.865C25.095 13.325 25.145 14.115 24.685 14.63C24.225 15.145 23.4375 15.19 22.92 14.735C22.215 14.11 21.15 13.75 20 13.75C17.9675 13.75 16.25 14.895 16.25 16.25C16.25 17.605 17.9675 18.75 20 18.75C23.4475 18.75 26.25 20.9925 26.25 23.75C26.25 26.165 24.1 28.185 21.25 28.65Z" fill="url(#paint0_linear)"/>
<defs>
<linearGradient id="paint0_linear" x1="37.3333" y1="2.00001" x2="-7.21774" y2="31.9191" gradientUnits="userSpaceOnUse">
<stop stop-color="#00F0FF"/>
<stop offset="1" stop-color="#0098D9"/>
<stop offset="1" stop-color="#0098D9"/>
</linearGradient>
</defs>
</svg>
