<?xml version="1.0" encoding="utf-8"?>
<!-- Generator: Adobe Illustrator 24.1.1, SVG Export Plug-In . SVG Version: 6.00 Build 0)  -->
<svg version="1.1" id="Layer_1" xmlns="http://www.w3.org/2000/svg" xmlns:xlink="http://www.w3.org/1999/xlink" x="0px" y="0px"
	 viewBox="0 0 512 512" style="enable-background:new 0 0 512 512;" xml:space="preserve">
<style type="text/css">
	.st0{fill:#FFFFFF;}
</style>
<g id="XMLID_399_">
	<g id="XMLID_382_">
		<g id="XMLID_383_">
			<path id="XMLID_398_" class="st0" d="M127.5,264h114.8c5.5,0,10-4.5,10-10s-4.5-10-10-10H127.5c-5.5,0-10,4.5-10,10
				C117.5,259.5,122,264,127.5,264z"/>
			<path id="XMLID_397_" class="st0" d="M316.5,316H127.5c-5.5,0-10,4.5-10,10s4.5,10,10,10h188.9c5.5,0,10-4.5,10-10
				S322,316,316.5,316z"/>
			<path id="XMLID_396_" class="st0" d="M316.5,388H168c-5.5,0-10,4.5-10,10s4.5,10,10,10h148.5c5.5,0,10-4.5,10-10
				S322,388,316.5,388z"/>
			<path id="XMLID_395_" class="st0" d="M386.9,306.9c-1.9,1.9-2.9,4.4-2.9,7.1s1.1,5.2,2.9,7.1s4.4,2.9,7.1,2.9s5.2-1.1,7.1-2.9
				c1.9-1.9,2.9-4.4,2.9-7.1s-1.1-5.2-2.9-7.1c-1.9-1.9-4.4-2.9-7.1-2.9S388.8,305.1,386.9,306.9z"/>
			<path id="XMLID_390_" class="st0" d="M370,0c-31.7,0-60.9,10.4-84.6,28H30C13.5,28,0,41.5,0,58v384c0,16.5,13.5,30,30,30h10
				c0,22.1,17.9,40,40,40h284c22.1,0,40-17.9,40-40V354c0-5.5-4.5-10-10-10s-10,4.5-10,10v118c0,11-9,20-20,20H80c-11,0-20-9-20-20
				V192h74c16.5,0,30-13.5,30-30V88h74.7c-6.9,16.7-10.7,34.9-10.7,54c0,10.3,1.1,20.3,3.2,30h-38.9c-5.5,0-10,4.5-10,10
				s4.5,10,10,10h44.8c20.3,53.7,72.2,92,132.9,92c78.3,0,142-63.7,142-142S448.3,0,370,0z M144,162c0,5.5-4.5,10-10,10H74.1
				l69.9-69.9V162z M154,68c-2.8,0-5.3,1.1-7.1,2.9c0,0,0,0,0,0l-104,104c0,0,0,0,0,0c-1.8,1.8-2.9,4.3-2.9,7.1v270H30
				c-5.5,0-10-4.5-10-10V58c0-5.5,4.5-10,10-10h233.7c-5.5,6.2-10.5,12.9-14.8,20H154z M370,264c-67.3,0-122-54.7-122-122
				S302.7,20,370,20s122,54.7,122,122S437.3,264,370,264z"/>
			<path id="XMLID_389_" class="st0" d="M463,132.1H455c-5.5,0-10,4.5-10,10s4.5,10,10,10h8.1c5.5,0,10-4.5,10-10
				S468.6,132.1,463,132.1z"/>
			<path id="XMLID_388_" class="st0" d="M285,131.9H277c-5.5,0-10,4.5-10,10s4.5,10,10,10h8.1c5.5,0,10-4.5,10-10
				S290.5,131.9,285,131.9z"/>
			<path id="XMLID_387_" class="st0" d="M370.1,67c5.5,0,10-4.5,10-10V49c0-5.5-4.5-10-10-10s-10,4.5-10,10V57
				C360.1,62.5,364.6,67,370.1,67z"/>
			<path id="XMLID_386_" class="st0" d="M369.9,217c-5.5,0-10,4.5-10,10v8.1c0,5.5,4.5,10,10,10s10-4.5,10-10V227
				C379.9,221.5,375.4,217,369.9,217z"/>
			<path id="XMLID_385_" class="st0" d="M362.9,149.1c2,1.9,4.5,2.9,7.1,2.9c2.6,0,5.1-1,7.1-2.9l69.1-69.1c3.9-3.9,3.9-10.2,0-14.1
				c-3.9-3.9-10.2-3.9-14.1,0L370,127.9l-36.1-36.1c-3.9-3.9-10.2-3.9-14.1,0c-3.9,3.9-3.9,10.2,0,14.1l43,43L362.9,149.1z"/>
			<path id="XMLID_384_" class="st0" d="M120.9,390.9c-1.9,1.9-2.9,4.4-2.9,7.1s1.1,5.2,2.9,7.1s4.4,2.9,7.1,2.9
				c2.6,0,5.2-1.1,7.1-2.9c1.9-1.9,2.9-4.4,2.9-7.1s-1.1-5.2-2.9-7.1c-1.9-1.9-4.4-2.9-7.1-2.9S122.8,389.1,120.9,390.9z"/>
		</g>
	</g>
</g>
</svg>
