<svg width="103" height="35" viewBox="0 0 103 35" fill="none" xmlns="http://www.w3.org/2000/svg">
<path d="M38.9995 8.99953H34.9995V13.9995H38.9995V8.99953Z" fill="white"/>
<path d="M39.7042 34.623V16.4796H34.9995V34.623H39.7042ZM70.9742 34.8023V30.3561C70.2845 30.3561 69.7008 30.3202 69.2763 30.2485C68.7811 30.1768 68.4097 29.9975 68.1621 29.7465C67.9144 29.4955 67.7553 29.137 67.6668 28.6708C67.5961 28.2226 67.5607 27.631 67.5607 26.9139V20.5673H70.9742V16.4796H67.5607V9.39793H62.8384V26.9497C62.8384 28.4378 62.9622 29.6928 63.2098 30.6967C63.4574 31.6828 63.8819 32.4896 64.4655 33.0991C65.0492 33.7087 65.8274 34.139 66.7648 34.4079C67.7199 34.6768 68.9226 34.8023 70.3552 34.8023H70.9742ZM97.9995 34.623V7.99953H93.2772V34.623H97.9995ZM58.2929 18.2545C56.9841 16.8202 55.1447 16.1031 52.81 16.1031C51.6781 16.1031 50.6522 16.3362 49.7148 16.8023C48.7951 17.2685 47.9992 17.9139 47.3802 18.7386L47.1149 19.0792V18.7744V16.4796H42.4633V34.623H47.1503V24.9597V25.623C47.1503 25.5155 47.1503 25.4079 47.1503 25.3003C47.2033 23.5971 47.6101 22.3422 48.3883 21.5354C49.2196 20.6748 50.2278 20.2445 51.3774 20.2445C52.7393 20.2445 53.7828 20.6748 54.4726 21.4995C55.1447 22.3242 55.4984 23.4896 55.4984 24.9776V25.0135V34.6051H60.2561V24.3143C60.2738 21.7326 59.6017 19.6888 58.2929 18.2545ZM90.8364 25.5155C90.8364 24.2067 90.6065 22.9876 90.1643 21.8402C89.7045 20.7107 89.0677 19.7067 88.2718 18.8461C87.4582 17.9856 86.4855 17.3222 85.3535 16.8382C84.2216 16.3541 82.9658 16.121 81.6039 16.121C80.3128 16.121 79.0924 16.372 77.9605 16.8561C76.8285 17.3581 75.8381 18.0214 75.0068 18.8641C74.1755 19.7067 73.5034 20.7107 73.0259 21.8581C72.5307 23.0055 72.3007 24.2426 72.3007 25.5513C72.3007 26.8601 72.5307 28.0971 72.9905 29.2445C73.4504 30.392 74.1048 31.3959 74.9184 32.2386C75.732 33.0812 76.7401 33.7625 77.9074 34.2465C79.0748 34.7485 80.3659 34.9995 81.7454 34.9995C85.7426 34.9995 88.2188 33.1529 89.7045 31.4318L86.3086 28.8143C85.6011 29.6748 83.9032 30.8402 81.7808 30.8402C80.4543 30.8402 79.3577 30.5354 78.5265 29.9079C77.6952 29.2983 77.1292 28.4378 76.8285 27.38L76.7755 27.2187H90.8364V25.5155ZM76.8109 23.8481C76.8109 22.5214 78.3142 20.2087 81.5509 20.1908C84.7876 20.1908 86.3086 22.5035 86.3086 23.8302L76.8109 23.8481Z" fill="white"/>
<path d="M102.877 32.224C102.801 31.9791 102.693 31.775 102.556 31.5914C102.418 31.4077 102.265 31.2648 102.081 31.1628C101.897 31.0608 101.698 30.9995 101.5 30.9995C101.285 30.9995 101.102 31.0608 100.918 31.1628C100.734 31.2648 100.581 31.4077 100.443 31.5914C100.306 31.775 100.198 31.9791 100.122 32.224C100.045 32.4689 99.9995 32.7342 99.9995 32.9995C99.9995 33.2852 100.045 33.5301 100.122 33.775C100.198 34.0199 100.306 34.224 100.443 34.4077C100.581 34.5914 100.734 34.7342 100.918 34.8363C101.102 34.9383 101.301 34.9995 101.5 34.9995C101.714 34.9995 101.897 34.9383 102.081 34.8363C102.265 34.7342 102.418 34.5914 102.556 34.4077C102.693 34.224 102.801 34.0199 102.877 33.775C102.954 33.5301 103 33.2648 103 32.9995C103 32.7342 102.954 32.4689 102.877 32.224ZM102.632 33.6526C102.571 33.8567 102.479 34.0403 102.372 34.1832C102.265 34.3261 102.127 34.4485 101.974 34.5301C101.821 34.6118 101.668 34.6526 101.484 34.6526C101.316 34.6526 101.147 34.6118 100.994 34.5301C100.841 34.4485 100.704 34.3261 100.596 34.1832C100.489 34.0403 100.397 33.8567 100.336 33.6526C100.275 33.4485 100.244 33.2444 100.244 32.9995C100.244 32.775 100.275 32.5505 100.336 32.3465C100.397 32.1424 100.489 31.9587 100.596 31.8159C100.704 31.673 100.841 31.5505 100.994 31.4689C101.147 31.3873 101.301 31.3465 101.484 31.3465C101.653 31.3465 101.821 31.3873 101.974 31.4689C102.127 31.5505 102.265 31.673 102.372 31.8159C102.479 31.9587 102.571 32.1424 102.632 32.3465C102.693 32.5505 102.724 32.7546 102.724 32.9995C102.739 33.2444 102.693 33.4485 102.632 33.6526ZM101.775 33.1628C101.897 33.1424 101.989 33.0812 102.066 32.9791C102.142 32.8771 102.188 32.7342 102.188 32.5301C102.188 32.3056 102.142 32.1424 102.035 32.0199C101.943 31.8975 101.775 31.8363 101.576 31.8363H100.903V34.1424H101.224V33.2036H101.454L101.882 34.1424H102.219L101.775 33.1628ZM101.607 32.8363C101.561 32.8363 101.515 32.8363 101.454 32.8363H101.224V32.1832H101.454C101.5 32.1832 101.545 32.1832 101.607 32.1832C101.653 32.1832 101.698 32.2036 101.744 32.224C101.79 32.2444 101.821 32.2852 101.836 32.3261C101.852 32.3669 101.867 32.4281 101.867 32.5097C101.867 32.5914 101.852 32.6526 101.836 32.6934C101.806 32.7342 101.775 32.775 101.744 32.7954C101.698 32.8159 101.653 32.8363 101.607 32.8363Z" fill="white"/>
<path d="M29.3847 27.2724C28.8641 28.4642 28.2204 29.6003 27.4637 30.6631C26.4582 32.0783 25.6328 33.0512 25.0025 33.5967C24.012 34.4812 22.9615 34.9382 21.8359 34.9677C21.0255 34.9677 20.05 34.7465 18.9095 34.2748C17.9135 33.8505 16.8432 33.6202 15.7579 33.5967C14.6431 33.6164 13.5425 33.8467 12.5163 34.2748C11.3607 34.7318 10.4302 34.9677 9.70986 34.9972C8.62931 35.0414 7.54877 34.5696 6.46823 33.5819C5.77789 32.9923 4.92246 31.9751 3.88694 30.5451C2.72544 28.9067 1.80586 27.1149 1.15558 25.2233C0.390195 23.0415 0 20.9334 0 18.8843C0 16.5404 0.510255 14.5207 1.54577 12.8254C2.32872 11.4956 3.44454 10.3843 4.78739 9.59695C6.11085 8.81238 7.62389 8.38992 9.16959 8.37337C10.025 8.37337 11.1656 8.63873 12.5613 9.15469C13.957 9.67066 14.8574 9.93601 15.2476 9.93601C15.5478 9.93601 16.5383 9.62643 18.2341 9.02201C19.8349 8.46182 21.1856 8.22595 22.2861 8.3144C25.2876 8.55027 27.5388 9.71488 29.0395 11.8082C26.3532 13.4003 25.0325 15.6411 25.0625 18.501C25.0925 20.7418 25.918 22.5993 27.5388 24.0734C28.2591 24.7402 29.0919 25.2789 30 25.6656C29.8199 26.2258 29.6098 26.7565 29.3847 27.2724ZM22.5113 0.707609C22.5113 2.46189 21.8659 4.09824 20.5603 5.6019C18.9995 7.40041 17.0935 8.43234 15.0525 8.27018C15.021 8.05043 15.006 7.82871 15.0075 7.6068C15.0075 5.92622 15.7579 4.12772 17.0785 2.65353C17.7801 1.87078 18.6384 1.23847 19.5998 0.79606C20.4961 0.343314 21.4761 0.0725749 22.4812 0C22.4962 0.23587 22.5113 0.471739 22.5113 0.707609Z" fill="white"/>
</svg>
