<svg width="80" height="34" viewBox="0 0 80 34" fill="none" xmlns="http://www.w3.org/2000/svg">
<path d="M30.3642 26.4932C29.8262 27.6509 29.1611 28.7546 28.3792 29.787C27.3402 31.1618 26.4872 32.1069 25.8359 32.6368C24.8124 33.496 23.7269 33.94 22.5638 33.9686C21.7264 33.9686 20.7184 33.7538 19.5398 33.2955C18.5106 32.8833 17.4046 32.6596 16.2831 32.6368C15.1312 32.656 13.994 32.8796 12.9335 33.2955C11.7394 33.7395 10.7779 33.9686 10.0335 33.9972C8.91696 34.0402 7.8004 33.5819 6.68384 32.6225C5.97049 32.0496 5.08654 31.0615 4.01651 29.6724C2.81629 28.0808 1.86606 26.3402 1.1941 24.5026C0.403202 22.3832 0 20.3353 0 18.3448C0 16.0678 0.527264 14.1058 1.5973 12.459C2.40635 11.1672 3.55936 10.0876 4.94697 9.32275C6.31454 8.5606 7.87802 8.1502 9.47524 8.13413C10.3592 8.13413 11.5378 8.3919 12.98 8.89313C14.4222 9.39435 15.3527 9.65212 15.7559 9.65212C16.066 9.65212 17.0895 9.35139 18.8419 8.76424C20.4961 8.22006 21.8918 7.99093 23.029 8.07685C26.1306 8.30598 28.4567 9.43731 30.0075 11.4708C27.2316 13.0175 25.8669 15.1942 25.8979 17.9724C25.929 20.1492 26.7819 21.9536 28.4567 23.3856C29.2011 24.0333 30.0616 24.5566 31 24.9323C30.8139 25.4764 30.5968 25.992 30.3642 26.4932ZM23.2616 0.687392C23.2616 2.39155 22.5948 3.98114 21.2456 5.44185C19.6328 7.18897 17.6633 8.19142 15.5543 8.03389C15.5217 7.82042 15.5062 7.60503 15.5078 7.38946C15.5078 5.7569 16.2831 4.00978 17.6478 2.57772C18.3728 1.81733 19.2597 1.20309 20.2531 0.773316C21.1793 0.333505 22.192 0.0705013 23.2306 0C23.2461 0.229131 23.2616 0.458261 23.2616 0.687392Z" fill="white"/>
<path d="M59.4785 34V15.5497H59.3415L51.224 34H47.796L39.6755 15.5497H39.5384V34H35V8H40.8243L49.4315 27.838H49.5855L58.1957 8H64V34H59.4785Z" fill="white"/>
<path d="M75.1958 12.4337H75.0817L68 17.0455V12.7727L75.1583 8H80V34H75.1958V12.4337Z" fill="white"/>
</svg>
