<svg width="768" height="332" viewBox="0 0 768 332" fill="none" xmlns="http://www.w3.org/2000/svg">
<path d="M0 0.79353V41.2629H86.0966V248.371H128.947V41.2629H216.233V0.79353H0Z" fill="url(#paint0_linear)"/>
<path d="M404.719 248.371H451.139L401.148 149.975C408.289 148.388 415.034 145.346 421.383 140.849C427.731 136.088 433.153 130.534 437.65 124.185C442.411 117.573 446.114 110.299 448.759 102.364C451.404 94.1641 452.726 85.8321 452.726 77.3679C452.726 66.5232 450.875 56.472 447.172 47.2143C443.733 37.6921 438.972 29.4924 432.888 22.6153C427.069 15.7381 420.192 10.448 412.257 6.74491C404.322 2.77732 395.99 0.79353 387.261 0.79353H234.906V248.371H277.359V41.2629H382.5C386.468 41.2629 390.039 42.4532 393.213 44.8337C396.651 46.9498 399.429 49.8594 401.545 53.5624C403.925 57.001 405.644 60.8363 406.702 65.0684C408.025 69.036 408.686 73.0036 408.686 76.9712C408.686 80.6743 408.157 84.5096 407.099 88.4772C406.306 92.4448 404.851 96.1479 402.735 99.5864C400.619 102.761 397.974 105.406 394.8 107.522C391.626 109.638 387.923 110.696 383.69 110.696H334.889L404.719 248.371Z" fill="url(#paint1_linear)"/>
<path d="M616.197 271.78L720.942 64.6717V248.371H764.188V0H704.674L616.197 177.748L528.514 0H469.397V248.371H513.437V66.2587L616.197 271.78Z" fill="url(#paint2_linear)"/>
<path d="M19.8438 286.459V293.203H34.1932V327.721H41.3348V293.203H55.8827V286.459H19.8438Z" fill="white"/>
<path d="M91.5951 327.721H99.3319L90.9999 311.322C92.1902 311.058 93.3144 310.551 94.3724 309.801C95.4304 309.008 96.3341 308.082 97.0836 307.024C97.8771 305.922 98.4943 304.709 98.9351 303.387C99.376 302.02 99.5964 300.632 99.5964 299.221C99.5964 297.413 99.2878 295.738 98.6706 294.195C98.0975 292.608 97.304 291.242 96.2901 290.095C95.3202 288.949 94.174 288.068 92.8515 287.45C91.529 286.789 90.1403 286.459 88.6855 286.459H63.293V327.721H70.3685V293.203H87.892C88.5533 293.203 89.1484 293.402 89.6774 293.799C90.2505 294.151 90.7134 294.636 91.0661 295.253C91.4628 295.826 91.7494 296.466 91.9257 297.171C92.1461 297.832 92.2563 298.494 92.2563 299.155C92.2563 299.772 92.1682 300.411 91.9918 301.072C91.8596 301.734 91.6171 302.351 91.2645 302.924C90.9118 303.453 90.4709 303.894 89.9419 304.247C89.4129 304.599 88.7957 304.776 88.0904 304.776H79.9568L91.5951 327.721Z" fill="white"/>
<path d="M101.574 327.721H109.708L124.321 298.295L135.298 320.91H118.701L114.072 327.721H146.871L124.321 282.425L101.574 327.721Z" fill="white"/>
<path d="M151.926 327.721H169.383C171.94 327.721 174.453 327.192 176.921 326.134C179.434 325.076 181.661 323.622 183.6 321.77C185.54 319.919 187.105 317.758 188.295 315.29C189.485 312.777 190.081 310.088 190.081 307.222C190.081 304.357 189.53 301.668 188.427 299.155C187.369 296.642 185.893 294.438 183.997 292.542C182.101 290.647 179.897 289.17 177.384 288.112C174.872 287.01 172.16 286.459 169.251 286.459H151.926V327.721ZM169.317 293.336C171.168 293.336 172.932 293.71 174.607 294.46C176.282 295.209 177.737 296.245 178.971 297.568C180.25 298.846 181.264 300.323 182.013 301.998C182.763 303.673 183.137 305.437 183.137 307.288C183.137 309.14 182.741 310.881 181.947 312.512C181.154 314.143 180.096 315.598 178.773 316.877C177.45 318.111 175.952 319.103 174.276 319.852C172.645 320.558 170.97 320.91 169.251 320.91H159.001V293.336H169.317Z" fill="white"/>
<path d="M227.737 304.776V311.52H206.841V304.776H227.737ZM196.723 327.721V286.459H228.133V293.203H203.799V320.977H228.133V327.721H196.723Z" fill="white"/>
<path d="M287.443 327.721H295.18L286.848 311.322C288.038 311.058 289.162 310.551 290.22 309.801C291.278 309.008 292.182 308.082 292.932 307.024C293.725 305.922 294.342 304.709 294.783 303.387C295.224 302.02 295.444 300.632 295.444 299.221C295.444 297.413 295.136 295.738 294.519 294.195C293.945 292.608 293.152 291.242 292.138 290.095C291.168 288.949 290.022 288.068 288.699 287.45C287.377 286.789 285.988 286.459 284.533 286.459H259.141V327.721H266.216V293.203H283.74C284.401 293.203 284.996 293.402 285.525 293.799C286.098 294.151 286.561 294.636 286.914 295.253C287.311 295.826 287.597 296.466 287.774 297.171C287.994 297.832 288.104 298.494 288.104 299.155C288.104 299.772 288.016 300.411 287.84 301.072C287.708 301.734 287.465 302.351 287.112 302.924C286.76 303.453 286.319 303.894 285.79 304.247C285.261 304.599 284.644 304.776 283.938 304.776H275.805L287.443 327.721Z" fill="white"/>
<path d="M297.422 327.721H305.555L320.169 298.295L331.146 320.91H314.549L309.92 327.721H342.719L320.169 282.425L297.422 327.721Z" fill="white"/>
<path d="M342.264 307.09C342.264 309.955 342.815 312.667 343.918 315.224C345.02 317.736 346.497 319.941 348.348 321.836C350.244 323.688 352.47 325.165 355.027 326.267C357.584 327.369 360.317 327.92 363.227 327.92C367.106 327.92 370.611 326.95 373.741 325.01C376.871 323.071 379.494 320.448 381.61 317.141L376.452 311.983C375.702 313.306 374.843 314.518 373.873 315.62C372.903 316.678 371.823 317.604 370.633 318.398C369.486 319.191 368.274 319.808 366.996 320.249C365.761 320.69 364.505 320.91 363.227 320.91C361.331 320.91 359.523 320.558 357.804 319.852C356.129 319.103 354.652 318.111 353.374 316.877C352.139 315.598 351.147 314.121 350.398 312.446C349.649 310.771 349.274 309.008 349.274 307.156C349.274 305.305 349.649 303.541 350.398 301.866C351.147 300.191 352.139 298.714 353.374 297.436C354.652 296.157 356.129 295.143 357.804 294.394C359.523 293.644 361.353 293.27 363.293 293.27C364.703 293.27 366.07 293.534 367.392 294.063C368.759 294.548 370.038 295.253 371.228 296.179C372.418 297.105 373.498 298.185 374.468 299.419C375.438 300.654 376.253 301.998 376.915 303.453L382.668 299.618C381.786 297.634 380.662 295.826 379.295 294.195C377.973 292.564 376.452 291.176 374.733 290.029C373.057 288.839 371.25 287.913 369.31 287.252C367.37 286.591 365.343 286.26 363.227 286.26C360.317 286.26 357.584 286.811 355.027 287.913C352.47 289.015 350.244 290.514 348.348 292.41C346.497 294.261 345.02 296.466 343.918 299.023C342.815 301.535 342.264 304.224 342.264 307.09Z" fill="white"/>
<path d="M420.356 304.776V311.52H399.46V304.776H420.356ZM389.342 327.721V286.459H420.752V293.203H396.418V320.977H420.752V327.721H389.342Z" fill="white"/>
<path d="M476.227 331.623L493.684 297.105V327.721H500.892V286.326H490.973L476.227 315.951L461.613 286.326H451.76V327.721H459.1V297.369L476.227 331.623Z" fill="white"/>
<path d="M505.991 327.721H514.125L528.739 298.295L539.716 320.91H523.118L518.489 327.721H551.288L528.739 282.425L505.991 327.721Z" fill="white"/>
<path d="M585.836 327.721H594.829V286.459H587.621V318.001L565.667 286.459H556.343V327.721H563.419V296.047L585.836 327.721Z" fill="white"/>
<path d="M599.79 327.721H607.924L622.538 298.295L633.515 320.91H616.917L612.288 327.721H645.087L622.538 282.425L599.79 327.721Z" fill="white"/>
<path d="M683.317 304.776V311.52H662.09V304.776H683.317ZM644.633 307.09C644.633 304.224 645.184 301.535 646.286 299.023C647.388 296.466 648.865 294.261 650.716 292.41C652.612 290.514 654.838 289.015 657.395 287.913C659.952 286.811 662.685 286.26 665.595 286.26C667.711 286.26 669.739 286.591 671.679 287.252C673.618 287.913 675.426 288.839 677.101 290.029C678.82 291.176 680.341 292.564 681.664 294.195C683.03 295.826 684.154 297.634 685.036 299.618L679.283 303.453C678.622 301.998 677.806 300.654 676.836 299.419C675.867 298.185 674.786 297.105 673.596 296.179C672.406 295.253 671.127 294.548 669.761 294.063C668.438 293.534 667.072 293.27 665.661 293.27C663.721 293.27 661.892 293.644 660.172 294.394C658.497 295.143 657.02 296.157 655.742 297.436C654.508 298.714 653.516 300.191 652.766 301.866C652.017 303.541 651.642 305.305 651.642 307.156C651.642 309.008 652.017 310.771 652.766 312.446C653.516 314.121 654.508 315.598 655.742 316.877C657.02 318.111 658.497 319.103 660.172 319.852C661.892 320.558 663.699 320.91 665.595 320.91C666.873 320.91 668.13 320.69 669.364 320.249C670.643 319.808 671.855 319.191 673.001 318.398C674.191 317.604 675.271 316.678 676.241 315.62C677.211 314.518 678.071 313.306 678.82 311.983L683.978 317.141C681.862 320.448 679.239 323.071 676.109 325.01C672.979 326.95 669.474 327.92 665.595 327.92C662.685 327.92 659.952 327.369 657.395 326.267C654.838 325.165 652.612 323.688 650.716 321.836C648.865 319.941 647.388 317.736 646.286 315.224C645.184 312.667 644.633 309.955 644.633 307.09Z" fill="white"/>
<path d="M722.724 304.776V311.52H701.828V304.776H722.724ZM691.711 327.721V286.459H723.121V293.203H698.786V320.977H723.121V327.721H691.711Z" fill="white"/>
<path d="M759.005 327.721H766.741L758.41 311.322C759.6 311.058 760.724 310.551 761.782 309.801C762.84 309.008 763.744 308.082 764.493 307.024C765.287 305.922 765.904 304.709 766.345 303.387C766.786 302.02 767.006 300.632 767.006 299.221C767.006 297.413 766.697 295.738 766.08 294.195C765.507 292.608 764.714 291.242 763.7 290.095C762.73 288.949 761.584 288.068 760.261 287.45C758.939 286.789 757.55 286.459 756.095 286.459H730.703V327.721H737.778V293.203H755.302C755.963 293.203 756.558 293.402 757.087 293.799C757.66 294.151 758.123 294.636 758.476 295.253C758.872 295.826 759.159 296.466 759.335 297.171C759.556 297.832 759.666 298.494 759.666 299.155C759.666 299.772 759.578 300.411 759.401 301.072C759.269 301.734 759.027 302.351 758.674 302.924C758.321 303.453 757.881 303.894 757.351 304.247C756.822 304.599 756.205 304.776 755.5 304.776H747.366L759.005 327.721Z" fill="white"/>
<defs>
<linearGradient id="paint0_linear" x1="382.094" y1="0" x2="382.094" y2="271.78" gradientUnits="userSpaceOnUse">
<stop stop-color="#1CFFFF"/>
<stop offset="1" stop-color="#1CBBFF"/>
</linearGradient>
<linearGradient id="paint1_linear" x1="382.094" y1="0" x2="382.094" y2="271.78" gradientUnits="userSpaceOnUse">
<stop stop-color="#1CFFFF"/>
<stop offset="1" stop-color="#1CBBFF"/>
</linearGradient>
<linearGradient id="paint2_linear" x1="382.094" y1="0" x2="382.094" y2="271.78" gradientUnits="userSpaceOnUse">
<stop stop-color="#1CFFFF"/>
<stop offset="1" stop-color="#1CBBFF"/>
</linearGradient>
</defs>
</svg>
