<svg width="186" height="74" viewBox="0 0 186 74" fill="none" xmlns="http://www.w3.org/2000/svg">
<path d="M146.896 7.52614L148.503 0H175.98C177.587 0 179.049 0.319738 180.364 0.959215C181.68 1.59869 182.752 2.50871 183.58 3.68929C184.408 4.86986 184.968 6.29638 185.26 7.96886C185.601 9.59214 185.553 11.4122 185.114 13.429C184.725 15.249 183.994 16.9707 182.922 18.594C181.899 20.2173 180.632 21.6438 179.122 22.8736C177.612 24.1033 175.955 25.0871 174.153 25.825C172.399 26.5137 170.597 26.858 168.745 26.858L170.353 19.3319C172.399 18.9383 173.934 18.2497 174.957 17.2659C176.029 16.282 176.735 15.0031 177.076 13.429C177.466 11.7565 177.295 10.3546 176.564 9.22322C175.882 8.09183 174.543 7.52614 172.545 7.52614H146.896ZM147.699 38.5161H179.122L177.514 46.0423H138.126L140.976 32.6133C141.366 30.7932 142.073 29.0716 143.096 27.4483C144.119 25.825 145.361 24.3985 146.823 23.1687C148.284 21.939 149.892 20.9797 151.646 20.2911C153.399 19.5532 155.202 19.1843 157.053 19.1843L155.445 26.7842C153.497 27.1777 151.987 27.891 150.915 28.924C149.892 29.9078 149.234 31.1376 148.942 32.6133L147.699 38.5161Z" fill="white"/>
<path d="M0 0.505116V7.9487H15.8359V46.0423H23.7173V7.9487H39.7721V0.505116H0Z" fill="url(#paint0_linear_7825_103)"/>
<path d="M74.4404 46.0423H82.9786L73.7836 27.9442C75.0972 27.6523 76.3378 27.0928 77.5054 26.2657C78.673 25.39 79.6703 24.3684 80.4974 23.2007C81.3731 21.9845 82.0542 20.6466 82.5408 19.187C83.0273 17.6789 83.2705 16.1464 83.2705 14.5895C83.2705 12.5949 82.93 10.7461 82.2488 9.04334C81.6164 7.29191 80.7407 5.78373 79.6217 4.51881C78.5514 3.25389 77.2865 2.28087 75.8269 1.59976C74.3674 0.869998 72.8349 0.505116 71.2294 0.505116H43.2065V46.0423H51.015V7.9487H70.3537C71.0835 7.9487 71.7403 8.16763 72.3241 8.60549C72.9565 8.99469 73.4674 9.52985 73.8566 10.211C74.2944 10.8434 74.6107 11.5489 74.8053 12.3273C75.0485 13.057 75.1701 13.7868 75.1701 14.5166C75.1701 15.1977 75.0728 15.9031 74.8782 16.6329C74.7323 17.3626 74.4647 18.0437 74.0755 18.6762C73.6863 19.26 73.1998 19.7465 72.616 20.1357C72.0322 20.5249 71.3511 20.7195 70.5726 20.7195H61.5966L74.4404 46.0423Z" fill="url(#paint1_linear_7825_103)"/>
<path d="M113.338 50.3479L132.604 12.2543V46.0423H140.558V0.359161H129.612L113.338 33.0525L97.2101 0.359161H86.3367V46.0423H94.437V12.5462L113.338 50.3479Z" fill="url(#paint2_linear_7825_103)"/>
<path d="M33.9202 73.6673H36.6906L34.9621 67.7949C35.4041 67.7002 35.8382 67.5187 36.2644 67.2503C36.7064 66.9662 37.109 66.6347 37.472 66.2558C37.8351 65.8612 38.1429 65.4271 38.3955 64.9535C38.6639 64.4641 38.8533 63.9669 38.9638 63.4617C39.1059 62.8145 39.1296 62.2146 39.0349 61.6621C38.9401 61.0938 38.7586 60.6045 38.4902 60.194C38.2219 59.7836 37.8746 59.4679 37.4484 59.2469C37.0221 59.0101 36.5486 58.8917 36.0276 58.8917H26.9349L23.7856 73.6673H26.3193L28.9476 61.3069H35.2225C35.4593 61.3069 35.6567 61.378 35.8145 61.52C35.9882 61.6463 36.1223 61.82 36.2171 62.041C36.3118 62.2462 36.367 62.4751 36.3828 62.7277C36.3986 62.9644 36.3828 63.2012 36.3355 63.438C36.2881 63.659 36.2092 63.8879 36.0987 64.1247C35.9882 64.3615 35.854 64.5825 35.6961 64.7877C35.5383 64.9772 35.3488 65.135 35.1278 65.2613C34.9068 65.3876 34.67 65.4507 34.4175 65.4507H31.505L33.9202 73.6673Z" fill="white"/>
<path d="M39.3194 73.6673H41.853L45.0023 58.8917H42.4687L39.3194 73.6673Z" fill="white"/>
<path d="M45.9909 66.2795C45.7699 67.3056 45.762 68.2764 45.9672 69.192C46.1724 70.0918 46.5355 70.8811 47.0564 71.5599C47.5932 72.2229 48.272 72.7517 49.0928 73.1464C49.9295 73.541 50.8687 73.7383 51.9106 73.7383C53.2998 73.7383 54.6337 73.3911 55.9123 72.6965C57.191 72.0019 58.3276 71.0626 59.3221 69.8787L57.8777 68.0317C57.5146 68.5053 57.1121 68.9394 56.6701 69.3341C56.2281 69.7129 55.7703 70.0444 55.2967 70.3286C54.8231 70.6127 54.3417 70.8337 53.8523 70.9916C53.3787 71.1495 52.913 71.2284 52.4552 71.2284C51.7764 71.2284 51.1608 71.1021 50.6083 70.8495C50.0558 70.5812 49.598 70.226 49.2349 69.784C48.8876 69.3262 48.6429 68.7973 48.5009 68.1975C48.3588 67.5976 48.3588 66.9662 48.5009 66.3032C48.6429 65.6402 48.9113 65.0087 49.3059 64.4089C49.7006 63.809 50.1742 63.2802 50.7267 62.8224C51.2792 62.3646 51.8869 62.0015 52.5499 61.7331C53.213 61.4648 53.8918 61.3306 54.5863 61.3306C55.0915 61.3306 55.5651 61.4253 56.0071 61.6148C56.4491 61.7884 56.8437 62.041 57.191 62.3725C57.5541 62.704 57.8619 63.0907 58.1145 63.5327C58.3671 63.9747 58.5565 64.4562 58.6828 64.9772L61.027 63.6038C60.8533 62.8934 60.585 62.2462 60.2219 61.6621C59.8746 61.078 59.4405 60.5808 58.9196 60.1703C58.4144 59.7441 57.8382 59.4126 57.191 59.1758C56.5438 58.939 55.8413 58.8206 55.0836 58.8206C54.0417 58.8206 53.0235 59.018 52.029 59.4126C51.0345 59.8073 50.1268 60.344 49.3059 61.0228C48.4851 61.6858 47.7826 62.4751 47.1985 63.3907C46.6144 64.2905 46.2119 65.2534 45.9909 66.2795Z" fill="white"/>
<path d="M72.6518 73.6673H75.2328L78.3821 58.8917H75.8011L74.4041 65.4507H66.8505L66.3296 67.866H73.8831L72.6518 73.6673ZM61.5701 73.6673H64.1038L67.2531 58.8917H64.7194L61.5701 73.6673Z" fill="white"/>
<path d="M96.956 73.6673H99.7264L97.9979 67.7949C98.4399 67.7002 98.874 67.5187 99.3002 67.2503C99.7422 66.9662 100.145 66.6347 100.508 66.2558C100.871 65.8612 101.179 65.4271 101.431 64.9535C101.7 64.4641 101.889 63.9669 102 63.4617C102.142 62.8145 102.165 62.2146 102.071 61.6621C101.976 61.0938 101.794 60.6045 101.526 60.194C101.258 59.7836 100.91 59.4679 100.484 59.2469C100.058 59.0101 99.5844 58.8917 99.0634 58.8917H89.9707L86.8214 73.6673H89.3551L91.9834 61.3069H98.2583C98.4951 61.3069 98.6925 61.378 98.8503 61.52C99.024 61.6463 99.1581 61.82 99.2529 62.041C99.3476 62.2462 99.4028 62.4751 99.4186 62.7277C99.4344 62.9644 99.4186 63.2012 99.3712 63.438C99.3239 63.659 99.245 63.8879 99.1345 64.1247C99.0239 64.3615 98.8898 64.5825 98.7319 64.7877C98.5741 64.9772 98.3846 65.135 98.1636 65.2613C97.9426 65.3876 97.7058 65.4507 97.4533 65.4507H94.5408L96.956 73.6673Z" fill="white"/>
<path d="M100.766 73.6673H103.679L111.161 63.1302L113.363 71.2284H107.42L105.241 73.6673H116.986L112.369 57.4473L100.766 73.6673Z" fill="white"/>
<path d="M118.623 66.2795C118.402 67.3056 118.394 68.2764 118.599 69.192C118.805 70.0918 119.168 70.8811 119.689 71.5599C120.225 72.2229 120.904 72.7517 121.725 73.1464C122.562 73.541 123.501 73.7383 124.543 73.7383C125.932 73.7383 127.266 73.3911 128.545 72.6965C129.823 72.0019 130.96 71.0626 131.954 69.8787L130.51 68.0317C130.147 68.5053 129.744 68.9394 129.302 69.3341C128.86 69.7129 128.402 70.0444 127.929 70.3286C127.455 70.6127 126.974 70.8337 126.485 70.9916C126.011 71.1495 125.545 71.2284 125.087 71.2284C124.409 71.2284 123.793 71.1021 123.241 70.8495C122.688 70.5812 122.23 70.226 121.867 69.784C121.52 69.3262 121.275 68.7973 121.133 68.1975C120.991 67.5976 120.991 66.9662 121.133 66.3032C121.275 65.6402 121.544 65.0087 121.938 64.4089C122.333 63.809 122.806 63.2802 123.359 62.8224C123.911 62.3646 124.519 62.0015 125.182 61.7331C125.845 61.4648 126.524 61.3306 127.219 61.3306C127.724 61.3306 128.197 61.4253 128.639 61.6148C129.081 61.7884 129.476 62.041 129.823 62.3725C130.186 62.704 130.494 63.0907 130.747 63.5327C130.999 63.9747 131.189 64.4562 131.315 64.9772L133.659 63.6038C133.486 62.8934 133.217 62.2462 132.854 61.6621C132.507 61.078 132.073 60.5808 131.552 60.1703C131.047 59.7441 130.47 59.4126 129.823 59.1758C129.176 58.939 128.474 58.8206 127.716 58.8206C126.674 58.8206 125.656 59.018 124.661 59.4126C123.667 59.8073 122.759 60.344 121.938 61.0228C121.117 61.6858 120.415 62.4751 119.831 63.3907C119.247 64.2905 118.844 65.2534 118.623 66.2795Z" fill="white"/>
<path d="M147.013 65.4507L146.492 67.866H139.009L139.53 65.4507H147.013ZM134.155 73.6673L137.304 58.8917H148.552L148.031 61.3069H139.317L137.21 71.2521H145.923L145.402 73.6673H134.155Z" fill="white"/>
<path d="M158.489 73.6673H161.259L159.531 67.7949C159.973 67.7002 160.407 67.5187 160.833 67.2503C161.275 66.9662 161.678 66.6347 162.041 66.2558C162.404 65.8612 162.711 65.4271 162.964 64.9535C163.232 64.4641 163.422 63.9669 163.532 63.4617C163.674 62.8145 163.698 62.2146 163.603 61.6621C163.509 61.0938 163.327 60.6045 163.059 60.194C162.79 59.7836 162.443 59.4679 162.017 59.2469C161.591 59.0101 161.117 58.8917 160.596 58.8917H151.503L148.354 73.6673H150.888L153.516 61.3069H159.791C160.028 61.3069 160.225 61.378 160.383 61.52C160.557 61.6463 160.691 61.82 160.786 62.041C160.88 62.2462 160.936 62.4751 160.951 62.7277C160.967 62.9644 160.951 63.2012 160.904 63.438C160.857 63.659 160.778 63.8879 160.667 64.1247C160.557 64.3615 160.423 64.5825 160.265 64.7877C160.107 64.9772 159.917 65.135 159.696 65.2613C159.475 65.3876 159.239 65.4507 158.986 65.4507H156.074L158.489 73.6673Z" fill="white"/>
<defs>
<linearGradient id="paint0_linear_7825_103" x1="70.279" y1="0.359161" x2="70.279" y2="50.3479" gradientUnits="userSpaceOnUse">
<stop stop-color="#1CFFFF"/>
<stop offset="1" stop-color="#1CBBFF"/>
</linearGradient>
<linearGradient id="paint1_linear_7825_103" x1="70.279" y1="0.359161" x2="70.279" y2="50.3479" gradientUnits="userSpaceOnUse">
<stop stop-color="#1CFFFF"/>
<stop offset="1" stop-color="#1CBBFF"/>
</linearGradient>
<linearGradient id="paint2_linear_7825_103" x1="70.279" y1="0.359161" x2="70.279" y2="50.3479" gradientUnits="userSpaceOnUse">
<stop stop-color="#1CFFFF"/>
<stop offset="1" stop-color="#1CBBFF"/>
</linearGradient>
</defs>
</svg>
