<svg width="40" height="12" viewBox="0 0 40 12" fill="none" xmlns="http://www.w3.org/2000/svg">
<path d="M39.2366 10.3336C39.6496 8.95736 39.5396 7.79779 38.9094 6.88377C37.7101 5.14757 35.0444 4.92536 34.5356 4.89918L33.5385 4.36193L33.4733 4.33514C32.3661 4.01898 28.1964 3.89183 27.5717 3.8743C26.5867 3.3884 25.7685 2.93361 25.0441 2.53129C22.5089 1.12235 20.8336 0.190918 16.0373 0.190918C10.2291 0.190918 5.48884 2.70869 4.85308 3.06114C4.50593 3.08731 4.19916 3.11101 3.90917 3.13397L3.1123 2.05588L4.01843 2.15143C4.37767 2.18921 4.54519 1.99798 4.39261 1.72442C4.23953 1.45085 3.82436 1.19827 3.46438 1.16025L0.507627 0.848661C0.148387 0.811009 -0.0191348 1.00211 0.134067 1.27567C0.287145 1.54924 0.702308 1.80182 1.06229 1.83984L1.51646 1.88749L2.52456 3.25162C0.818105 3.41396 0.818105 3.51568 0.818105 3.79122C0.818105 6.05418 0.528861 6.57576 0.468494 6.67613L0 6.30071V8.64861L0.277516 9.00538C0.266652 9.34796 0.379116 9.66251 0.607622 9.92274C1.34598 10.7627 3.0412 10.787 3.23168 10.787C3.80375 10.787 4.98603 10.4949 5.79698 10.2743C5.74068 10.1779 5.68254 10.0826 5.63649 9.97904C5.59205 9.87916 5.56205 9.77312 5.52724 9.66831C5.42712 9.36154 5.3591 9.03921 5.3591 8.69984C5.3591 6.96241 6.77248 5.54989 8.50893 5.54989C10.2454 5.54989 11.6594 6.9629 11.6594 8.70046C11.6594 9.44956 11.3852 10.1298 10.9467 10.6712C10.8537 10.7857 10.7582 10.8969 10.6508 10.9973C10.5246 11.1155 10.3929 11.2267 10.2491 11.3233C13.8701 11.3367 24.0958 11.3867 31.0761 11.5419C30.9739 11.4403 30.8869 11.3233 30.8 11.2082C30.7195 11.1028 30.6491 10.9922 30.5826 10.8764C30.3154 10.4142 30.1505 9.88571 30.1505 9.31413C30.1505 7.57731 31.5645 6.16455 33.3007 6.16455C35.0369 6.16455 36.4509 7.57793 36.4509 9.31413C36.4509 9.94694 36.2592 10.5332 35.9383 11.0274C35.8636 11.1412 35.7746 11.244 35.6865 11.3476C35.59 11.4614 35.487 11.5675 35.3745 11.6666C36.0176 11.6857 36.5719 11.6952 37.0468 11.6952C39.4619 11.6952 39.9337 11.4869 39.9924 11.0758C40.0119 10.9505 40.0561 10.6411 39.2366 10.3336Z" fill="white"/>
<path d="M6.44032 10.0945C6.88943 10.7585 7.64939 11.1959 8.50885 11.1959C8.53699 11.1959 8.56317 11.1883 8.5907 11.1869C8.9087 11.1767 9.21325 11.1116 9.49077 10.9926C9.68508 10.9089 9.86063 10.7951 10.0256 10.6672C10.6159 10.2102 11.0041 9.50318 11.0041 8.70026C11.0041 7.32453 9.88495 6.20459 8.50897 6.20459C7.133 6.20459 6.01367 7.32453 6.01367 8.70026C6.01367 8.97963 6.07058 9.2448 6.15552 9.49602C6.19107 9.60095 6.23156 9.70255 6.28082 9.80107C6.33032 9.90082 6.37822 10.003 6.44032 10.0945Z" fill="white"/>
<path d="M33.3017 11.8099C33.6296 11.8099 33.9403 11.7422 34.2279 11.6271C34.4241 11.5479 34.6057 11.443 34.7738 11.3191C34.9016 11.2244 35.0192 11.1196 35.1273 11.0032C35.5396 10.5583 35.7978 9.96757 35.7978 9.31427C35.7978 7.93854 34.678 6.81934 33.3023 6.81934C31.9266 6.81934 30.8066 7.93854 30.8066 9.31427C30.8066 9.91646 31.0303 10.4624 31.3871 10.8946C31.4881 11.0166 31.5993 11.1279 31.7214 11.2295C31.8832 11.3638 32.0583 11.4793 32.2514 11.5696C32.571 11.7192 32.925 11.8099 33.3017 11.8099Z" fill="white"/>
</svg>
