<svg width="40" height="36" viewBox="0 0 40 36" fill="none" xmlns="http://www.w3.org/2000/svg">
<path d="M29.7557 22.6795H39.7523C39.3269 21.2434 38.4299 18.5968 36.9697 16.1665H25.8486L29.7557 22.6795Z" fill="white"/>
<path d="M20.1664 21.5661L14.7416 13.8165H37.3591C36.8195 12.1768 35.597 9.41016 32.9538 6.59727C29.1926 2.59453 23.7112 0.298828 17.9151 0.298828H17.2973C12.677 0.298828 8.3332 2.09805 5.06625 5.36508C1.79922 8.63203 0 12.9757 0 17.596V18.4031C0 23.0234 1.79922 27.3672 5.06625 30.6341C8.3332 33.9012 12.677 35.7004 17.2973 35.7004H38.8866L40 25.0299H26.8191C24.1716 25.0299 21.6846 23.7351 20.1664 21.5661ZM33.8839 28.7863H36.0935V31.146H33.8839V28.7863ZM28.7326 28.7863H30.9423V31.146H28.7326V28.7863Z" fill="white"/>
<path d="M23.1068 16.1665H19.2549L22.0911 20.2182C23.17 21.7594 24.9372 22.6795 26.8186 22.6795H27.0139L23.1068 16.1665Z" fill="white"/>
</svg>
