<svg width="16" height="24" viewBox="0 0 16 24" fill="none" xmlns="http://www.w3.org/2000/svg">
<path d="M5.6133 23.943C5.93078 24.0787 6.29992 23.9654 6.48536 23.6725L14.9229 10.2663C15.0595 10.0493 15.0678 9.7753 14.9441 9.55147C14.8205 9.32694 14.5843 9.18753 14.3282 9.18753H8.69702L10.7913 0.876175C10.8758 0.54041 10.7048 0.193628 10.3869 0.0569876C10.071 -0.0789499 9.69953 0.0350033 9.5148 0.327503L1.0773 13.7338C0.940658 13.9507 0.932408 14.2247 1.05602 14.4485C1.17963 14.6731 1.41583 14.8125 1.67195 14.8125H7.30314L5.20886 23.1238C5.12439 23.4597 5.29534 23.8064 5.6133 23.943Z" fill="url(#paint0_linear)"/>
<defs>
<linearGradient id="paint0_linear" x1="8.00008" y1="0" x2="8.00008" y2="24" gradientUnits="userSpaceOnUse">
<stop stop-color="#8043E8"/>
<stop offset="1" stop-color="#540FC9"/>
</linearGradient>
</defs>
</svg>
