<svg width="18" height="27" viewBox="0 0 18 27" fill="none" xmlns="http://www.w3.org/2000/svg">
<path d="M17.9215 10.3968C17.8689 10.3098 17.7926 10.2374 17.7003 10.1871C17.6081 10.1368 17.5033 10.1103 17.3965 10.1103H9.49068L10.8161 0.627649C10.8303 0.500739 10.7985 0.37304 10.7258 0.265113C10.6531 0.157185 10.5437 0.0753102 10.4153 0.0326696C10.2868 -0.00997109 10.1468 -0.0108958 10.0177 0.0300443C9.88865 0.0709843 9.77804 0.151407 9.70371 0.258363L0.0893947 16.0303C0.033173 16.1159 0.0023592 16.214 0.000130159 16.3145C-0.00209888 16.415 0.0243375 16.5142 0.0767138 16.602C0.12909 16.6897 0.205511 16.7628 0.298096 16.8136C0.390681 16.8645 0.496079 16.8913 0.603424 16.8913H8.39111L7.34072 26.3882C7.3304 26.5147 7.36554 26.6407 7.44057 26.7464C7.51559 26.852 7.62618 26.9311 7.75474 26.971C7.8833 27.011 8.02244 27.0096 8.15003 26.967C8.27762 26.9243 8.38632 26.843 8.45885 26.7359L17.9143 10.9657C17.9691 10.8799 17.9987 10.7821 18 10.6821C18.0012 10.5822 17.9742 10.4837 17.9215 10.3968Z" fill="white"/>
</svg>
