<svg width="18" height="20" viewBox="0 0 18 20" fill="none" xmlns="http://www.w3.org/2000/svg">
<path d="M1.35005 6.26601C1.14973 6.21101 0.80244 6.11501 0.637527 6.06752C0.441571 6.01102 0.409073 5.92152 0.468248 5.72953C1.31707 2.98463 2.76539 0.900707 5.35308 0.0277394C5.54904 -0.0382582 5.66836 0.00674015 5.74354 0.236232C5.79689 0.399726 5.81726 0.569719 5.80999 0.792211C5.80223 1.0242 5.75081 1.1167 5.65429 1.2082C3.71171 3.04813 2.924 4.31758 2.69021 7.28847C2.53985 9.1984 1.87195 12.7198 1.36412 14.2607C1.01343 15.3252 1.82684 16.5066 2.95359 16.5066C3.87614 16.5066 4.62698 15.7332 4.62698 14.7822V9.81888C4.62698 8.44943 5.71589 7.47046 6.86592 7.47196C6.90424 7.47196 7.02647 7.47196 7.13803 7.47196V1.2017C7.13803 0.56422 7.63956 0.0477387 8.2575 0.0477387H15.894C16.5124 0.0477387 17.0134 0.56422 17.0134 1.2017C17.0134 2.15216 17.0134 18.2341 17.0134 18.2536C17.0134 18.4356 17.1565 18.5791 17.3331 18.5791C17.3331 18.5791 17.4126 18.5791 17.6804 18.5791C17.8569 18.5791 18 18.7225 18 18.9045V19.67C18 19.852 17.8569 20 17.6804 20H6.47061C6.29406 20 6.15097 19.8525 6.15097 19.67V18.9045C6.15097 18.7225 6.29406 18.5791 6.47061 18.5791C6.73835 18.5791 6.8179 18.5791 6.8179 18.5791C6.99445 18.5791 7.13754 18.4356 7.13754 18.2536V8.77941C7.05363 8.77941 6.97554 8.77941 6.94983 8.77941C6.20238 8.77941 5.90554 9.39589 5.90554 9.81888C5.90554 11.1278 5.90554 13.4347 5.90554 14.7822C5.90554 16.4631 4.58332 17.8256 2.95262 17.8256C1.07067 17.8256 -0.48631 15.9492 0.141331 13.8692C0.748601 11.8558 1.41407 8.45093 1.49556 6.456C1.49799 6.388 1.45191 6.29451 1.35005 6.26601ZM8.41659 6.90198C8.41659 7.08398 8.55968 7.23197 8.73623 7.23197H15.3192C15.4957 7.23197 15.6393 7.08448 15.6393 6.90198V1.74468C15.6393 1.56268 15.4962 1.41469 15.3192 1.41469H8.73672C8.56016 1.41469 8.41708 1.56218 8.41708 1.74468V6.90198H8.41659Z" fill="#FE183F"/>
</svg>
