<svg width="20" height="20" viewBox="0 0 20 20" fill="none" xmlns="http://www.w3.org/2000/svg">
<path d="M9.28141 5.088C9.28141 4.88267 9.34674 4.71933 9.47741 4.598C9.61741 4.47667 9.79474 4.416 10.0094 4.416C10.2241 4.416 10.3967 4.47667 10.5274 4.598C10.6581 4.71933 10.7234 4.88267 10.7234 5.088C10.7234 5.284 10.6581 5.44267 10.5274 5.564C10.3967 5.68533 10.2241 5.746 10.0094 5.746C9.79474 5.746 9.61741 5.68533 9.47741 5.564C9.34674 5.44267 9.28141 5.284 9.28141 5.088ZM10.4994 7.356V15H9.50541V7.356H10.4994Z" fill="#868686"/>
<circle cx="10" cy="10" r="9.5" stroke="#868686"/>
</svg>
