<svg width="18" height="20" viewBox="0 0 18 20" fill="none" xmlns="http://www.w3.org/2000/svg">
<path d="M9 9.375C11.4162 9.375 13.375 7.41625 13.375 5C13.375 2.58375 11.4162 0.625 9 0.625C6.58375 0.625 4.625 2.58375 4.625 5C4.625 7.41625 6.58375 9.375 9 9.375Z" fill="white"/>
<path d="M12.1062 10.625H5.89375C4.5632 10.6267 3.28762 11.1559 2.34678 12.0968C1.40594 13.0376 0.876654 14.3132 0.875 15.6438V18.75C0.875 18.9158 0.940848 19.0747 1.05806 19.1919C1.17527 19.3092 1.33424 19.375 1.5 19.375H16.5C16.6658 19.375 16.8247 19.3092 16.9419 19.1919C17.0592 19.0747 17.125 18.9158 17.125 18.75V15.6438C17.1233 14.3132 16.5941 13.0376 15.6532 12.0968C14.7124 11.1559 13.4368 10.6267 12.1062 10.625Z" fill="white"/>
</svg>
