<svg width="20" height="20" viewBox="0 0 20 20" fill="none" xmlns="http://www.w3.org/2000/svg">
<path d="M19.9479 7.67123C19.8162 7.26626 19.457 6.97954 19.0337 6.94124L13.2603 6.41709L10.9786 1.07521C10.8102 0.682743 10.4269 0.429443 10.0002 0.429443C9.57357 0.429443 9.19011 0.682743 9.02272 1.07521L6.74103 6.41709L0.966703 6.94124C0.543417 6.9803 0.184982 7.26702 0.0525337 7.67123C-0.0791518 8.07621 0.0424627 8.5204 0.362598 8.80117L4.72684 12.628L3.44004 18.2955C3.34589 18.7122 3.50764 19.1431 3.85341 19.3931C4.03926 19.5281 4.25762 19.5956 4.47674 19.5956C4.66504 19.5956 4.85349 19.5455 5.02179 19.4448L10.0002 16.4681L14.9777 19.4448C15.3429 19.663 15.802 19.643 16.147 19.3931C16.4928 19.1431 16.6545 18.7122 16.5604 18.2955L15.2736 12.628L19.6378 8.80117C19.9578 8.5204 20.0796 8.07712 19.9479 7.67123Z" fill="white"/>
</svg>
