<svg width="24" height="26" viewBox="0 0 24 26" fill="none" xmlns="http://www.w3.org/2000/svg">
<path d="M22.3596 9.87255C21.7907 8.52683 20.9758 7.31901 19.9384 6.28165C18.9011 5.2443 17.6932 4.43007 16.3475 3.86046C15.3268 3.42875 14.2603 3.15295 13.1634 3.03654V2.29646H13.9984C14.3345 2.29646 14.6068 2.02413 14.6068 1.68804V0.608416C14.6068 0.272332 14.3345 0 13.9984 0H9.90095C9.56487 0 9.29254 0.272332 9.29254 0.608416V1.68804C9.29254 2.02413 9.56487 2.29646 9.90095 2.29646H10.736V3.03654C9.63901 3.15295 8.57186 3.42875 7.55183 3.86046C6.20611 4.42938 4.99828 5.2443 3.96093 6.28165C2.92357 7.31901 2.10935 8.52683 1.53974 9.87255C0.950031 11.2661 0.651367 12.7456 0.651367 14.2707C0.651367 15.7959 0.950031 17.2754 1.53974 18.6689C2.10865 20.0147 2.92357 21.2225 3.96093 22.2598C4.99828 23.2972 6.20611 24.1114 7.55183 24.681C8.94536 25.2707 10.4248 25.5694 11.95 25.5694C13.4745 25.5694 14.9547 25.2707 16.3482 24.681C17.6939 24.1121 18.9018 23.2972 19.9391 22.2598C20.9765 21.2225 21.7907 20.0147 22.3603 18.6689C22.95 17.2754 23.2487 15.7959 23.2487 14.2707C23.248 12.7456 22.9493 11.2661 22.3596 9.87255ZM11.9493 23.5571C6.82907 23.5571 2.66302 19.391 2.66302 14.2707C2.66302 9.15049 6.82907 4.98444 11.9493 4.98444C17.0696 4.98444 21.2356 9.15049 21.2356 14.2707C21.2356 19.391 17.0703 23.5571 11.9493 23.5571Z" fill="white"/>
<path d="M12.3124 6.24769C9.16011 6.2373 6.18594 8.15471 5.00167 11.2765C3.47578 15.2991 5.49991 19.7964 9.52183 21.3223C13.5444 22.8482 18.0417 20.824 19.5676 16.8021L12.2846 14.0393L12.3124 6.24769Z" fill="white"/>
</svg>
