<svg width="25" height="41" viewBox="0 0 25 41" fill="none" xmlns="http://www.w3.org/2000/svg">
<path d="M25 12.3413C25 5.52514 19.4029 0 12.4994 0C5.59712 0 0 5.52514 0 12.3413C0 15.0053 0.857442 17.4689 2.30987 19.4857C4.05206 22.3562 6.26455 25.4049 6.26455 28.5509V28.7303C6.26455 28.9554 6.45219 29.1407 6.68021 29.1407H18.3186C18.5466 29.1407 18.7343 28.9554 18.7343 28.7303V28.5509C18.7343 25.2231 21.0893 22.1709 22.8338 19.284C24.2008 17.3059 25 14.9162 25 12.3413Z" fill="#FE183F"/>
<path d="M17.4874 34.571H7.51162C6.82282 34.571 6.26465 35.1222 6.26465 35.8022C6.26465 36.4823 6.82282 37.0334 7.51162 37.0334H17.4874C18.1762 37.0334 18.7344 36.4812 18.7344 35.8022C18.7344 35.1222 18.1762 34.571 17.4874 34.571Z" fill="#FE183F"/>
<path d="M17.4874 30.6382H7.51162C6.82282 30.6382 6.26465 31.1893 6.26465 31.8694C6.26465 32.5495 6.82282 33.1006 7.51162 33.1006H17.4874C18.1762 33.1006 18.7344 32.5495 18.7344 31.8694C18.7344 31.1881 18.1762 30.6382 17.4874 30.6382Z" fill="#FE183F"/>
<path d="M8.75875 38.5376C8.53073 38.5376 8.47492 38.6678 8.63643 38.8272L10.5425 40.7092C10.704 40.8687 11.0235 40.9988 11.2515 40.9988H13.7454C13.9735 40.9988 14.2929 40.8687 14.4544 40.7092L16.3605 38.8272C16.522 38.6678 16.4674 38.5376 16.2382 38.5376H8.75875Z" fill="#FE183F"/>
</svg>
