<svg width="30" height="30" viewBox="0 0 30 30" fill="none" xmlns="http://www.w3.org/2000/svg">
<path d="M25.5941 4.40842C22.6631 1.46568 18.8375 0 15.0007 0C11.1751 0 7.33825 1.46568 4.40656 4.40842C-1.4682 10.2825 -1.4682 19.7195 4.40656 25.5936C10.2813 31.4677 19.7193 31.4677 25.5941 25.5936C31.4688 19.7202 31.4688 10.2832 25.5941 4.40842ZM23.8158 23.8162C18.9265 28.7049 11.0721 28.7049 6.18283 23.8162C1.29356 18.9274 1.29356 11.0739 6.18283 6.18517C8.62278 3.73612 11.8161 2.51594 14.9993 2.51594C18.1926 2.51594 21.3765 3.73545 23.8158 6.18517C28.7051 11.0739 28.7051 18.9274 23.8158 23.8162Z" fill="white"/>
<path d="M23.975 9.42151H21.5317V20.6533H23.975V9.42151Z" fill="white"/>
<path d="M8.46869 9.42151H6.02539V20.6533H8.46869V9.42151Z" fill="white"/>
<path d="M14.0337 14.9465C14.0337 15.0722 14.0591 15.1993 14.1073 15.3164C14.1555 15.4335 14.2277 15.5405 14.3167 15.6301C14.4063 15.7198 14.5134 15.7913 14.6305 15.8395C14.7475 15.8877 14.874 15.9131 15.0004 15.9131C15.1269 15.9131 15.2533 15.8877 15.3704 15.8395C15.4875 15.7913 15.5945 15.7191 15.6842 15.6301C15.7738 15.5405 15.8454 15.4335 15.8936 15.3164C15.9418 15.1993 15.9672 15.0722 15.9672 14.9465V10.3126C15.9672 10.1868 15.9418 10.0597 15.8936 9.94266C15.8454 9.82559 15.7732 9.71856 15.6842 9.62892C15.5945 9.53928 15.4875 9.4677 15.3704 9.41953C15.2533 9.37137 15.1269 9.34595 15.0004 9.34595C14.874 9.34595 14.7475 9.37137 14.6305 9.41953C14.5134 9.4677 14.4063 9.53994 14.3167 9.62892C14.227 9.71856 14.1555 9.82559 14.1073 9.94266C14.0591 10.0597 14.0337 10.1868 14.0337 10.3126V14.9465Z" fill="white"/>
<path d="M13.3242 9.50916V12.1863C13.0271 12.3669 12.7568 12.5977 12.5314 12.8646C12.3059 13.1316 12.1246 13.4353 11.9961 13.7604C11.8677 14.0855 11.7928 14.4313 11.7747 14.7799C11.7566 15.1284 11.7954 15.4803 11.8898 15.8167C11.9841 16.1532 12.1333 16.4743 12.3293 16.7626C12.526 17.0516 12.7695 17.3078 13.0479 17.5192C13.3262 17.7306 13.6393 17.8959 13.9704 18.0076C14.3016 18.1186 14.6509 18.1761 15.0001 18.1761C15.3493 18.1761 15.6986 18.1193 16.0297 18.0076C16.3609 17.8965 16.674 17.7306 16.9523 17.5192C17.2306 17.3078 17.4742 17.0516 17.6709 16.7626C17.8675 16.4737 18.0167 16.1526 18.1104 15.8167C18.2047 15.4803 18.2435 15.1284 18.2255 14.7799C18.2074 14.4313 18.1318 14.0848 18.004 13.7604C17.8756 13.4353 17.6943 13.1316 17.4688 12.8646C17.2433 12.5977 16.9731 12.3669 16.676 12.1863V9.50916C17.3169 9.7065 17.9278 10.0216 18.463 10.4316C18.9989 10.8417 19.4592 11.3481 19.8178 11.9181C20.1764 12.4887 20.4326 13.1235 20.5704 13.7831C20.7083 14.4427 20.7277 15.127 20.6273 15.7933C20.5269 16.4596 20.3068 17.1078 19.981 17.6978C19.6552 18.2879 19.223 18.819 18.7125 19.2585C18.2021 19.698 17.612 20.0459 16.9804 20.2807C16.3488 20.5148 15.6745 20.6359 15.0008 20.6359C14.327 20.6359 13.6527 20.5148 13.0211 20.2807C12.3895 20.0466 11.7994 19.698 11.289 19.2585C10.7785 18.819 10.3463 18.2879 10.0205 17.6978C9.69467 17.1078 9.47456 16.4596 9.37421 15.7933C9.27385 15.127 9.29325 14.4427 9.43107 13.7831C9.56889 13.1235 9.82513 12.4887 10.1837 11.9181C10.5423 11.3474 11.0026 10.8417 11.5385 10.4316C12.0724 10.0209 12.6832 9.7065 13.3242 9.50916Z" fill="white"/>
</svg>
