<svg width="24" height="22" viewBox="0 0 24 22" fill="none" xmlns="http://www.w3.org/2000/svg">
<path fill-rule="evenodd" clip-rule="evenodd" d="M14.5808 6.05615C14.5808 9.14053 12.0568 11.6123 8.90723 11.6123C5.75882 11.6123 3.2337 9.14053 3.2337 6.05615C3.2337 2.97176 5.75882 0.5 8.90723 0.5C12.0568 0.5 14.5808 2.97176 14.5808 6.05615ZM0.333008 17.9036C0.333008 15.0484 4.28279 14.334 8.90723 14.334C13.5568 14.334 17.4814 15.073 17.4814 17.9304C17.4814 20.7856 13.5317 21.5 8.90723 21.5C4.25767 21.5 0.333008 20.761 0.333008 17.9036ZM16.8687 6.15688C16.8687 7.72758 16.387 9.1932 15.5422 10.4106C15.4543 10.5358 15.532 10.7046 15.6849 10.7315C15.8973 10.7661 16.1153 10.7874 16.3379 10.7918C18.5525 10.8489 20.54 9.45256 21.0891 7.34972C21.903 4.22956 19.5148 1.42801 16.4726 1.42801C16.1427 1.42801 15.8265 1.46154 15.5183 1.52303C15.476 1.53197 15.4304 1.5521 15.4075 1.58787C15.3779 1.63371 15.3995 1.69296 15.4292 1.73209C16.3436 2.98753 16.8687 4.51575 16.8687 6.15688ZM20.5365 12.986C22.0251 13.2711 23.0034 13.8513 23.4087 14.6976C23.7523 15.3907 23.7523 16.1956 23.4087 16.8887C22.7888 18.199 20.7888 18.6204 20.0114 18.7289C19.8505 18.7512 19.7215 18.6171 19.7386 18.4583C20.1358 14.8273 16.9772 13.1056 16.1598 12.7099C16.1256 12.6909 16.1176 12.664 16.121 12.6462C16.1233 12.635 16.1381 12.6171 16.1644 12.6137C17.9326 12.5802 19.8345 12.8183 20.5365 12.986Z" fill="white"/>
<path fill-rule="evenodd" clip-rule="evenodd" d="M14.5808 6.05615C14.5808 9.14053 12.0568 11.6123 8.90723 11.6123C5.75882 11.6123 3.2337 9.14053 3.2337 6.05615C3.2337 2.97176 5.75882 0.5 8.90723 0.5C12.0568 0.5 14.5808 2.97176 14.5808 6.05615ZM0.333008 17.9036C0.333008 15.0484 4.28279 14.334 8.90723 14.334C13.5568 14.334 17.4814 15.073 17.4814 17.9304C17.4814 20.7856 13.5317 21.5 8.90723 21.5C4.25767 21.5 0.333008 20.761 0.333008 17.9036ZM16.8687 6.15688C16.8687 7.72758 16.387 9.1932 15.5422 10.4106C15.4543 10.5358 15.532 10.7046 15.6849 10.7315C15.8973 10.7661 16.1153 10.7874 16.3379 10.7918C18.5525 10.8489 20.54 9.45256 21.0891 7.34972C21.903 4.22956 19.5148 1.42801 16.4726 1.42801C16.1427 1.42801 15.8265 1.46154 15.5183 1.52303C15.476 1.53197 15.4304 1.5521 15.4075 1.58787C15.3779 1.63371 15.3995 1.69296 15.4292 1.73209C16.3436 2.98753 16.8687 4.51575 16.8687 6.15688ZM20.5365 12.986C22.0251 13.2711 23.0034 13.8513 23.4087 14.6976C23.7523 15.3907 23.7523 16.1956 23.4087 16.8887C22.7888 18.199 20.7888 18.6204 20.0114 18.7289C19.8505 18.7512 19.7215 18.6171 19.7386 18.4583C20.1358 14.8273 16.9772 13.1056 16.1598 12.7099C16.1256 12.6909 16.1176 12.664 16.121 12.6462C16.1233 12.635 16.1381 12.6171 16.1644 12.6137C17.9326 12.5802 19.8345 12.8183 20.5365 12.986Z" fill="url(#paint0_linear)"/>
<defs>
<linearGradient id="paint0_linear" x1="5.69198" y1="-0.115288" x2="54.8141" y2="33.6382" gradientUnits="userSpaceOnUse">
<stop stop-color="#FE173F"/>
<stop offset="1" stop-color="#240B36"/>
</linearGradient>
</defs>
</svg>
