<svg width="24" height="21" viewBox="0 0 24 21" fill="none" xmlns="http://www.w3.org/2000/svg">
<path fill-rule="evenodd" clip-rule="evenodd" d="M14.2478 5.55615C14.2478 8.64053 11.7238 11.1123 8.57422 11.1123C5.42582 11.1123 2.9007 8.64053 2.9007 5.55615C2.9007 2.47176 5.42582 0 8.57422 0C11.7238 0 14.2478 2.47176 14.2478 5.55615ZM0 17.4036C0 14.5484 3.94978 13.834 8.57422 13.834C13.2238 13.834 17.1484 14.573 17.1484 17.4304C17.1484 20.2856 13.1987 21 8.57422 21C3.92467 21 0 20.261 0 17.4036ZM16.5357 5.65688C16.5357 7.22758 16.054 8.6932 15.2092 9.91063C15.1213 10.0358 15.199 10.2046 15.3519 10.2315C15.5642 10.2661 15.7823 10.2874 16.0049 10.2918C18.2195 10.3489 20.207 8.95256 20.756 6.84972C21.57 3.72956 19.1818 0.928006 16.1396 0.928006C15.8097 0.928006 15.4935 0.961544 15.1853 1.02303C15.143 1.03197 15.0974 1.0521 15.0745 1.08787C15.0448 1.13371 15.0665 1.19296 15.0962 1.23209C16.0106 2.48753 16.5357 4.01575 16.5357 5.65688ZM20.2035 12.486C21.6921 12.7711 22.6704 13.3513 23.0757 14.1976C23.4193 14.8907 23.4193 15.6956 23.0757 16.3887C22.4558 17.699 20.4558 18.1204 19.6784 18.2289C19.5175 18.2512 19.3885 18.1171 19.4056 17.9583C19.8028 14.3273 16.6442 12.6056 15.8268 12.2099C15.7926 12.1909 15.7846 12.164 15.788 12.1462C15.7903 12.135 15.8051 12.1171 15.8314 12.1137C17.5996 12.0802 19.5015 12.3183 20.2035 12.486Z" fill="white"/>
</svg>
