<svg width="24" height="24" viewBox="0 0 24 24" fill="none" xmlns="http://www.w3.org/2000/svg">
<path fill-rule="evenodd" clip-rule="evenodd" d="M2.96124 0.333496H6.87319C8.5051 0.333496 9.81294 1.67516 9.81294 3.32133V7.2985C9.81294 8.95516 8.5051 10.2852 6.87319 10.2852H2.96124C1.3409 10.2852 0.0214844 8.95516 0.0214844 7.2985V3.32133C0.0214844 1.67516 1.3409 0.333496 2.96124 0.333496ZM2.96124 13.7147H6.87319C8.5051 13.7147 9.81294 15.0458 9.81294 16.7025V20.6797C9.81294 22.3247 8.5051 23.6663 6.87319 23.6663H2.96124C1.3409 23.6663 0.0214844 22.3247 0.0214844 20.6797V16.7025C0.0214844 15.0458 1.3409 13.7147 2.96124 13.7147ZM20.2284 0.333496H16.3165C14.6846 0.333496 13.3767 1.67516 13.3767 3.32133V7.2985C13.3767 8.95516 14.6846 10.2852 16.3165 10.2852H20.2284C21.8488 10.2852 23.1682 8.95516 23.1682 7.2985V3.32133C23.1682 1.67516 21.8488 0.333496 20.2284 0.333496ZM16.3165 13.7146H20.2284C21.8488 13.7146 23.1682 15.0458 23.1682 16.7024V20.6796C23.1682 22.3246 21.8488 23.6663 20.2284 23.6663H16.3165C14.6846 23.6663 13.3767 22.3246 13.3767 20.6796V16.7024C13.3767 15.0458 14.6846 13.7146 16.3165 13.7146Z" fill="#00D1FF"/>
<path fill-rule="evenodd" clip-rule="evenodd" d="M2.96124 0.333496H6.87319C8.5051 0.333496 9.81294 1.67516 9.81294 3.32133V7.2985C9.81294 8.95516 8.5051 10.2852 6.87319 10.2852H2.96124C1.3409 10.2852 0.0214844 8.95516 0.0214844 7.2985V3.32133C0.0214844 1.67516 1.3409 0.333496 2.96124 0.333496ZM2.96124 13.7147H6.87319C8.5051 13.7147 9.81294 15.0458 9.81294 16.7025V20.6797C9.81294 22.3247 8.5051 23.6663 6.87319 23.6663H2.96124C1.3409 23.6663 0.0214844 22.3247 0.0214844 20.6797V16.7025C0.0214844 15.0458 1.3409 13.7147 2.96124 13.7147ZM20.2284 0.333496H16.3165C14.6846 0.333496 13.3767 1.67516 13.3767 3.32133V7.2985C13.3767 8.95516 14.6846 10.2852 16.3165 10.2852H20.2284C21.8488 10.2852 23.1682 8.95516 23.1682 7.2985V3.32133C23.1682 1.67516 21.8488 0.333496 20.2284 0.333496ZM16.3165 13.7146H20.2284C21.8488 13.7146 23.1682 15.0458 23.1682 16.7024V20.6796C23.1682 22.3246 21.8488 23.6663 20.2284 23.6663H16.3165C14.6846 23.6663 13.3767 22.3246 13.3767 20.6796V16.7024C13.3767 15.0458 14.6846 13.7146 16.3165 13.7146Z" fill="url(#paint0_linear)"/>
<defs>
<linearGradient id="paint0_linear" x1="23.6337" y1="0.333497" x2="-4.21851" y2="17.2413" gradientUnits="userSpaceOnUse">
<stop stop-color="#FE173F"/>
<stop offset="1" stop-color="#950552"/>
</linearGradient>
</defs>
</svg>
