<svg width="24" height="24" viewBox="0 0 24 24" fill="none" xmlns="http://www.w3.org/2000/svg">
<path fill-rule="evenodd" clip-rule="evenodd" d="M3.29536 0.333496H7.2387C8.8837 0.333496 10.202 1.67516 10.202 3.32133V7.2985C10.202 8.95516 8.8837 10.2852 7.2387 10.2852H3.29536C1.66203 10.2852 0.332031 8.95516 0.332031 7.2985V3.32133C0.332031 1.67516 1.66203 0.333496 3.29536 0.333496ZM3.29536 13.7147H7.2387C8.8837 13.7147 10.202 15.0458 10.202 16.7025V20.6797C10.202 22.3247 8.8837 23.6663 7.2387 23.6663H3.29536C1.66203 23.6663 0.332031 22.3247 0.332031 20.6797V16.7025C0.332031 15.0458 1.66203 13.7147 3.29536 13.7147ZM20.702 0.333496H16.7586C15.1136 0.333496 13.7953 1.67516 13.7953 3.32133V7.2985C13.7953 8.95516 15.1136 10.2852 16.7586 10.2852H20.702C22.3353 10.2852 23.6653 8.95516 23.6653 7.2985V3.32133C23.6653 1.67516 22.3353 0.333496 20.702 0.333496ZM16.7586 13.7147H20.702C22.3353 13.7147 23.6653 15.0458 23.6653 16.7025V20.6797C23.6653 22.3247 22.3353 23.6663 20.702 23.6663H16.7586C15.1136 23.6663 13.7953 22.3247 13.7953 20.6797V16.7025C13.7953 15.0458 15.1136 13.7147 16.7586 13.7147Z" fill="white"/>
<path fill-rule="evenodd" clip-rule="evenodd" d="M3.29536 0.333496H7.2387C8.8837 0.333496 10.202 1.67516 10.202 3.32133V7.2985C10.202 8.95516 8.8837 10.2852 7.2387 10.2852H3.29536C1.66203 10.2852 0.332031 8.95516 0.332031 7.2985V3.32133C0.332031 1.67516 1.66203 0.333496 3.29536 0.333496ZM3.29536 13.7147H7.2387C8.8837 13.7147 10.202 15.0458 10.202 16.7025V20.6797C10.202 22.3247 8.8837 23.6663 7.2387 23.6663H3.29536C1.66203 23.6663 0.332031 22.3247 0.332031 20.6797V16.7025C0.332031 15.0458 1.66203 13.7147 3.29536 13.7147ZM20.702 0.333496H16.7586C15.1136 0.333496 13.7953 1.67516 13.7953 3.32133V7.2985C13.7953 8.95516 15.1136 10.2852 16.7586 10.2852H20.702C22.3353 10.2852 23.6653 8.95516 23.6653 7.2985V3.32133C23.6653 1.67516 22.3353 0.333496 20.702 0.333496ZM16.7586 13.7147H20.702C22.3353 13.7147 23.6653 15.0458 23.6653 16.7025V20.6797C23.6653 22.3247 22.3353 23.6663 20.702 23.6663H16.7586C15.1136 23.6663 13.7953 22.3247 13.7953 20.6797V16.7025C13.7953 15.0458 15.1136 13.7147 16.7586 13.7147Z" fill="url(#paint0_linear)"/>
<defs>
<linearGradient id="paint0_linear" x1="5.69099" y1="-0.350143" x2="58" y2="31.9995" gradientUnits="userSpaceOnUse">
<stop stop-color="#FE173F"/>
<stop offset="1" stop-color="#240B36"/>
</linearGradient>
</defs>
</svg>
