<svg width="22" height="24" viewBox="0 0 22 24" fill="none" xmlns="http://www.w3.org/2000/svg">
<path fill-rule="evenodd" clip-rule="evenodd" d="M6.11167 0.333496H15.8895C19.4933 0.333496 21.5 2.41016 21.5 5.9685V18.0202C21.5 21.6368 19.4933 23.6668 15.8895 23.6668H6.11167C2.565 23.6668 0.5 21.6368 0.5 18.0202V5.9685C0.5 2.41016 2.565 0.333496 6.11167 0.333496ZM6.4268 5.77023V5.75856H9.91396C10.4168 5.75856 10.8251 6.16689 10.8251 6.66739C10.8251 7.1819 10.4168 7.59023 9.91396 7.59023H6.4268C5.92396 7.59023 5.5168 7.1819 5.5168 6.68023C5.5168 6.17856 5.92396 5.77023 6.4268 5.77023ZM6.4268 12.8636H15.5735C16.0751 12.8636 16.4835 12.4553 16.4835 11.9536C16.4835 11.4519 16.0751 11.0424 15.5735 11.0424H6.4268C5.92396 11.0424 5.5168 11.4519 5.5168 11.9536C5.5168 12.4553 5.92396 12.8636 6.4268 12.8636ZM6.42682 18.1952H15.5735C16.039 18.1486 16.3902 17.7507 16.3902 17.2852C16.3902 16.8069 16.039 16.4102 15.5735 16.3636H6.42682C6.07682 16.3286 5.73849 16.4919 5.55182 16.7952C5.36516 17.0869 5.36516 17.4719 5.55182 17.7752C5.73849 18.0669 6.07682 18.2419 6.42682 18.1952Z" fill="white"/>
</svg>
