<svg width="20" height="20" viewBox="0 0 20 20" fill="none" xmlns="http://www.w3.org/2000/svg">
<path d="M10.0003 5.704C9.85094 5.704 9.72494 5.65733 9.62227 5.564C9.51961 5.46133 9.46827 5.326 9.46827 5.158C9.46827 4.99933 9.51961 4.86867 9.62227 4.766C9.72494 4.66333 9.85094 4.612 10.0003 4.612C10.1496 4.612 10.2756 4.66333 10.3783 4.766C10.4809 4.86867 10.5323 4.99933 10.5323 5.158C10.5323 5.326 10.4809 5.46133 10.3783 5.564C10.2756 5.65733 10.1496 5.704 10.0003 5.704ZM10.3083 7.398V15H9.67827V7.398H10.3083Z" fill="white" fill-opacity="0.4"/>
<circle opacity="0.4" cx="10" cy="10" r="9.625" stroke="white" stroke-width="0.75"/>
</svg>
