<svg width="24" height="24" viewBox="0 0 24 24" fill="none" xmlns="http://www.w3.org/2000/svg">
<g opacity="0.6" clip-path="url(#clip0)">
<path d="M1.55592 14.1802C0.697967 14.1802 0 14.8781 0 15.736V21.813C0 22.671 0.697967 23.3689 1.55592 23.3689H6.12285V14.1802H1.55592Z" fill="white"/>
<path d="M22.444 16.9858H17.877V23.3689H22.444C23.3019 23.3689 23.9999 22.671 23.9999 21.813V18.5417C23.9998 17.6838 23.3019 16.9858 22.444 16.9858Z" fill="white"/>
<path d="M14.9139 10.6577H9.08717C8.22922 10.6577 7.53125 11.3557 7.53125 12.2136V23.3694H16.4698V12.2136C16.4698 11.3556 15.7719 10.6577 14.9139 10.6577ZM12.1413 17.9113C11.7526 17.9113 11.4374 17.5961 11.4374 17.2074V15.7776L11.4309 15.7825C11.3043 15.8774 11.1559 15.9233 11.009 15.9233C10.795 15.9233 10.5837 15.8261 10.4453 15.6417C10.212 15.3307 10.275 14.8895 10.586 14.6562L11.7188 13.8064C11.7231 13.8032 11.7276 13.8006 11.7319 13.7976C11.7427 13.7898 11.7537 13.7824 11.7651 13.7752C11.7737 13.7697 11.7823 13.7644 11.7911 13.7594C11.8022 13.7531 11.8135 13.7471 11.8249 13.7414C11.8344 13.7366 11.8439 13.7319 11.8537 13.7275C11.8646 13.7226 11.8758 13.7181 11.8869 13.7138C11.8975 13.7097 11.9081 13.7057 11.9187 13.7021C11.9294 13.6986 11.9403 13.6954 11.9512 13.6924C11.9628 13.6892 11.9744 13.6861 11.9861 13.6834C11.9964 13.6811 12.0069 13.6791 12.0175 13.6773C12.03 13.675 12.0427 13.673 12.0553 13.6715C12.0653 13.6703 12.0753 13.6693 12.0855 13.6685C12.0989 13.6675 12.1123 13.6668 12.1257 13.6665C12.1309 13.6664 12.1361 13.6657 12.1413 13.6657C12.1463 13.6657 12.1511 13.6664 12.156 13.6665C12.1688 13.6668 12.1816 13.6675 12.1943 13.6684C12.2054 13.6692 12.2165 13.6702 12.2275 13.6715C12.2386 13.6729 12.2496 13.6747 12.2606 13.6766C12.2727 13.6786 12.2848 13.6808 12.2967 13.6835C12.3066 13.6857 12.3163 13.6884 12.3261 13.691C12.3385 13.6944 12.3507 13.6978 12.3628 13.7018C12.3725 13.705 12.3821 13.7087 12.3917 13.7123C12.4031 13.7167 12.4145 13.721 12.4256 13.7259C12.436 13.7305 12.4461 13.7356 12.4563 13.7407C12.4661 13.7456 12.4758 13.7504 12.4854 13.7557C12.4964 13.7619 12.507 13.7686 12.5178 13.7753C12.5261 13.7806 12.5344 13.7858 12.5425 13.7914C12.5532 13.7988 12.5636 13.8068 12.574 13.8149C12.5816 13.8209 12.5893 13.8269 12.5968 13.8332C12.6063 13.8413 12.6155 13.8498 12.6247 13.8586C12.6326 13.866 12.6404 13.8736 12.648 13.8814C12.6558 13.8896 12.6633 13.8979 12.6708 13.9066C12.6791 13.9161 12.6873 13.9257 12.6951 13.9357C12.6982 13.9397 12.7016 13.9431 12.7046 13.9472C12.7078 13.9514 12.7104 13.956 12.7135 13.9602C12.7212 13.9711 12.7286 13.9821 12.7358 13.9934C12.7413 14.002 12.7466 14.0107 12.7517 14.0195C12.758 14.0305 12.7639 14.0417 12.7697 14.0531C12.7745 14.0627 12.7792 14.0723 12.7836 14.0821C12.7885 14.0929 12.7929 14.1041 12.7973 14.1152C12.8014 14.1258 12.8054 14.1364 12.8089 14.1471C12.8125 14.1578 12.8156 14.1686 12.8187 14.1795C12.8219 14.1911 12.825 14.2027 12.8276 14.2144C12.83 14.2247 12.832 14.2352 12.8338 14.2457C12.836 14.2583 12.838 14.271 12.8396 14.2836C12.8408 14.2936 12.8417 14.3036 12.8425 14.3138C12.8435 14.3272 12.8442 14.3406 12.8445 14.354C12.8446 14.3593 12.8453 14.3644 12.8453 14.3696V17.2075H12.8454C12.8452 17.5961 12.5301 17.9113 12.1413 17.9113Z" fill="white"/>
<path d="M15.9318 3.48709C15.8349 3.1891 15.5821 2.97596 15.272 2.93087L13.5178 2.67596L12.7333 1.08644C12.5946 0.805422 12.3138 0.630859 12.0004 0.630859C11.687 0.630859 11.4062 0.805422 11.2674 1.08644L10.4829 2.67601L8.72874 2.93092C8.41862 2.97596 8.16577 3.1891 8.06893 3.48718C7.97209 3.78526 8.05135 4.10631 8.27574 4.32502L9.54512 5.56233L9.24545 7.30955C9.19252 7.61841 9.31712 7.92469 9.57066 8.10891C9.82421 8.29313 10.154 8.31689 10.4314 8.17106L12.0004 7.34621L13.5694 8.17106C13.6901 8.23453 13.8207 8.26584 13.9506 8.26584C14.1193 8.26584 14.287 8.21297 14.4303 8.10881C14.6838 7.9246 14.8084 7.61822 14.7554 7.30946L14.4558 5.56233L15.7253 4.32493C15.9494 4.10617 16.0286 3.78512 15.9318 3.48709Z" fill="white"/>
</g>
<defs>
<clipPath id="clip0">
<rect width="24" height="24" fill="white"/>
</clipPath>
</defs>
</svg>
