<svg width="24" height="24" viewBox="0 0 24 24" fill="none" xmlns="http://www.w3.org/2000/svg">
<g clip-path="url(#clip0)">
<path d="M1.55592 14.1802C0.697967 14.1802 0 14.8781 0 15.736V21.813C0 22.671 0.697967 23.3689 1.55592 23.3689H6.12285V14.1802H1.55592Z" fill="url(#paint0_linear)"/>
<path d="M22.444 16.9858H17.877V23.3689H22.444C23.3019 23.3689 23.9999 22.671 23.9999 21.813V18.5417C23.9998 17.6838 23.3019 16.9858 22.444 16.9858Z" fill="url(#paint1_linear)"/>
<path d="M14.9134 10.6577H9.08668C8.22873 10.6577 7.53076 11.3557 7.53076 12.2136V23.3694H16.4693V12.2136C16.4693 11.3556 15.7714 10.6577 14.9134 10.6577ZM12.1408 17.9113C11.7521 17.9113 11.4369 17.5961 11.4369 17.2074V15.7776L11.4304 15.7825C11.3038 15.8774 11.1555 15.9233 11.0085 15.9233C10.7945 15.9233 10.5832 15.8261 10.4448 15.6417C10.2115 15.3307 10.2745 14.8895 10.5855 14.6562L11.7183 13.8064C11.7226 13.8032 11.7271 13.8006 11.7314 13.7976C11.7422 13.7898 11.7533 13.7824 11.7646 13.7752C11.7732 13.7697 11.7818 13.7644 11.7907 13.7594C11.8017 13.7531 11.813 13.7471 11.8244 13.7414C11.8339 13.7366 11.8434 13.7319 11.8532 13.7275C11.8641 13.7226 11.8753 13.7181 11.8864 13.7138C11.897 13.7097 11.9076 13.7057 11.9183 13.7021C11.9289 13.6986 11.9398 13.6954 11.9507 13.6924C11.9623 13.6892 11.9739 13.6861 11.9856 13.6834C11.9959 13.6811 12.0064 13.6791 12.017 13.6773C12.0295 13.675 12.0422 13.673 12.0548 13.6715C12.0648 13.6703 12.0748 13.6693 12.085 13.6685C12.0984 13.6675 12.1118 13.6668 12.1252 13.6665C12.1305 13.6664 12.1356 13.6657 12.1408 13.6657C12.1458 13.6657 12.1506 13.6664 12.1555 13.6665C12.1683 13.6668 12.1811 13.6675 12.1938 13.6684C12.2049 13.6692 12.2161 13.6702 12.227 13.6715C12.2381 13.6729 12.2491 13.6747 12.2601 13.6766C12.2722 13.6786 12.2843 13.6808 12.2963 13.6835C12.3061 13.6857 12.3158 13.6884 12.3256 13.691C12.338 13.6944 12.3503 13.6978 12.3623 13.7018C12.372 13.705 12.3816 13.7087 12.3912 13.7123C12.4026 13.7167 12.414 13.721 12.4251 13.7259C12.4355 13.7305 12.4456 13.7356 12.4558 13.7407C12.4656 13.7456 12.4754 13.7504 12.4849 13.7557C12.4959 13.7619 12.5065 13.7686 12.5173 13.7753C12.5256 13.7806 12.5339 13.7858 12.542 13.7914C12.5527 13.7988 12.5631 13.8068 12.5735 13.8149C12.5812 13.8209 12.5888 13.8269 12.5963 13.8332C12.6059 13.8413 12.615 13.8498 12.6242 13.8586C12.6322 13.866 12.6399 13.8736 12.6475 13.8814C12.6553 13.8896 12.6629 13.8979 12.6704 13.9066C12.6787 13.9161 12.6868 13.9257 12.6946 13.9357C12.6977 13.9397 12.7012 13.9431 12.7042 13.9472C12.7073 13.9514 12.7099 13.956 12.713 13.9602C12.7207 13.9711 12.7282 13.9821 12.7353 13.9934C12.7408 14.002 12.7461 14.0107 12.7512 14.0195C12.7575 14.0305 12.7634 14.0417 12.7692 14.0531C12.774 14.0627 12.7787 14.0723 12.7831 14.0821C12.788 14.0929 12.7924 14.1041 12.7968 14.1152C12.8009 14.1258 12.8049 14.1364 12.8085 14.1471C12.812 14.1578 12.8152 14.1686 12.8182 14.1795C12.8214 14.1911 12.8245 14.2027 12.8272 14.2144C12.8295 14.2247 12.8315 14.2352 12.8333 14.2457C12.8355 14.2583 12.8375 14.271 12.8391 14.2836C12.8403 14.2936 12.8412 14.3036 12.842 14.3138C12.843 14.3272 12.8438 14.3406 12.844 14.354C12.8441 14.3593 12.8448 14.3644 12.8448 14.3696V17.2075H12.8449C12.8447 17.5961 12.5296 17.9113 12.1408 17.9113Z" fill="url(#paint2_linear)"/>
<path d="M15.9313 3.48709C15.8345 3.1891 15.5817 2.97596 15.2715 2.93087L13.5173 2.67596L12.7328 1.08644C12.5941 0.805422 12.3133 0.630859 11.9999 0.630859C11.6865 0.630859 11.4057 0.805422 11.267 1.08644L10.4825 2.67601L8.72825 2.93092C8.41813 2.97596 8.16529 3.1891 8.06844 3.48718C7.9716 3.78526 8.05086 4.10631 8.27525 4.32502L9.54463 5.56233L9.24496 7.30955C9.19204 7.61841 9.31663 7.92469 9.57018 8.10891C9.82372 8.29313 10.1535 8.31689 10.4309 8.17106L11.9999 7.34621L13.5689 8.17106C13.6896 8.23453 13.8202 8.26584 13.9501 8.26584C14.1188 8.26584 14.2865 8.21297 14.4298 8.10881C14.6833 7.9246 14.8079 7.61822 14.7549 7.30946L14.4553 5.56233L15.7248 4.32493C15.9489 4.10617 16.0281 3.78512 15.9313 3.48709Z" fill="url(#paint3_linear)"/>
</g>
<defs>
<linearGradient id="paint0_linear" x1="5.71466" y1="14.6396" x2="-2.52953" y2="18.3288" gradientUnits="userSpaceOnUse">
<stop stop-color="#00F0FF"/>
<stop offset="1" stop-color="#0098D9"/>
<stop offset="1" stop-color="#0098D9"/>
</linearGradient>
<linearGradient id="paint1_linear" x1="23.5917" y1="17.305" x2="16.5985" y2="21.81" gradientUnits="userSpaceOnUse">
<stop stop-color="#00F0FF"/>
<stop offset="1" stop-color="#0098D9"/>
<stop offset="1" stop-color="#0098D9"/>
</linearGradient>
<linearGradient id="paint2_linear" x1="15.8734" y1="11.2933" x2="4.06185" y2="16.8711" gradientUnits="userSpaceOnUse">
<stop stop-color="#00F0FF"/>
<stop offset="1" stop-color="#0098D9"/>
<stop offset="1" stop-color="#0098D9"/>
</linearGradient>
<linearGradient id="paint3_linear" x1="15.4423" y1="1.01261" x2="6.81587" y2="7.0404" gradientUnits="userSpaceOnUse">
<stop stop-color="#00F0FF"/>
<stop offset="1" stop-color="#0098D9"/>
<stop offset="1" stop-color="#0098D9"/>
</linearGradient>
<clipPath id="clip0">
<rect width="24" height="24" fill="white"/>
</clipPath>
</defs>
</svg>
