<svg width="24" height="30" viewBox="0 0 24 30" fill="none" xmlns="http://www.w3.org/2000/svg">
<path d="M11.1358 0.31184C9.30134 0.54254 7.65704 1.31564 6.37064 2.54444C5.17064 3.68684 4.39184 5.04824 3.99944 6.65774C3.85514 7.26914 3.84944 7.35584 3.81494 9.70964L3.78044 12.1327L3.49184 12.1732C2.45354 12.3232 1.41494 13.0789 0.947538 14.0365C0.561138 14.8327 0.578238 14.521 0.578238 20.9191C0.578238 27.346 0.560838 27.0112 0.964638 27.8191C1.22414 28.3324 1.89344 29.0191 2.40704 29.2843C2.60324 29.3881 2.96084 29.521 3.20894 29.5843C3.64154 29.6938 3.87824 29.6998 11.9665 29.6998C21.1798 29.6998 20.701 29.7172 21.52 29.3191C22.1026 29.0308 22.7488 28.3903 23.0431 27.8134C23.4355 27.0229 23.4238 27.2941 23.4238 20.9194C23.4238 16.9906 23.4064 15.0694 23.3602 14.8618C23.2621 14.383 22.8928 13.6735 22.5352 13.2754C22.0159 12.7042 21.2257 12.2773 20.5102 12.1735L20.2219 12.133L20.1874 9.76784C20.1526 7.20044 20.1298 6.97574 19.7893 5.92574C19.1317 3.92384 17.6779 2.21054 15.7972 1.22984C14.5858 0.60104 13.5646 0.335539 12.2032 0.30674C11.7298 0.294739 11.2453 0.30044 11.1358 0.31184ZM13.0741 2.03684C14.5165 2.29064 15.6874 2.91944 16.726 3.99824C17.4241 4.72514 17.8624 5.45204 18.1855 6.39254C18.4855 7.28084 18.52 7.65014 18.52 9.97514V12.1039H11.995H5.47604L5.49344 9.75014L5.51654 7.40204L5.67794 6.82514C5.97794 5.72894 6.50294 4.80584 7.27604 3.99824C8.07224 3.17324 8.87414 2.64824 9.89534 2.30204C10.8991 1.95614 12.0586 1.86374 13.0741 2.03684ZM20.7238 13.9672C20.9143 14.0596 21.1621 14.2498 21.3124 14.4172C21.7798 14.9365 21.7567 14.5327 21.7393 20.9938L21.7219 26.7283L21.5893 26.9995C21.4162 27.3457 21.0757 27.6859 20.7238 27.859L20.4526 27.9976H12.001H3.54944L3.27824 27.859C2.93204 27.6916 2.58584 27.3571 2.41274 27.034L2.28014 26.7859L2.26274 21.0226C2.24534 14.5729 2.22224 14.9419 2.66084 14.4457C2.93204 14.1343 3.22034 13.9495 3.57824 13.8571C3.78014 13.7995 5.70134 13.7878 12.1165 13.7935L20.395 13.8058L20.7238 13.9672Z" fill="#222222"/>
<path d="M11.3831 17.7053C11.0255 17.8439 10.6448 18.2072 10.4774 18.5648C10.391 18.7553 10.3562 18.9341 10.3619 19.2572C10.3619 19.7936 10.5407 20.1803 10.9331 20.5034L11.1926 20.7227V22.1993C11.1926 23.555 11.204 23.6819 11.3081 23.855C11.6024 24.3455 12.3986 24.3455 12.6926 23.855C12.7964 23.6819 12.8081 23.555 12.8081 22.1993V20.7224L13.0562 20.5205C13.1888 20.405 13.3736 20.1743 13.4717 20.0012C13.6967 19.586 13.7141 18.9686 13.5122 18.5588C13.1198 17.7572 12.2081 17.3879 11.3831 17.7053Z" fill="#222222"/>
</svg>
