<svg width="30" height="30" viewBox="0 0 30 30" fill="none" xmlns="http://www.w3.org/2000/svg">
<path d="M14.1358 0.311884C12.3013 0.542583 10.657 1.31568 9.37064 2.54448C8.17064 3.68688 7.39184 5.04828 6.99944 6.65778C6.85514 7.26918 6.84944 7.35588 6.81494 9.70968L6.78044 12.1328L6.49184 12.1733C5.45354 12.3233 4.41494 13.079 3.94754 14.0366C3.56114 14.8328 3.57824 14.5211 3.57824 20.9192C3.57824 27.3461 3.56084 27.0113 3.96464 27.8192C4.22414 28.3325 4.89344 29.0192 5.40704 29.2844C5.60324 29.3882 5.96084 29.5211 6.20894 29.5844C6.64154 29.6939 6.87824 29.6999 14.9665 29.6999C24.1798 29.6999 23.701 29.7173 24.52 29.3192C25.1026 29.0309 25.7488 28.3904 26.0431 27.8135C26.4355 27.023 26.4238 27.2942 26.4238 20.9195C26.4238 16.9907 26.4064 15.0695 26.3602 14.8619C26.2621 14.3831 25.8928 13.6736 25.5352 13.2755C25.0159 12.7043 24.2257 12.2774 23.5102 12.1736L23.2219 12.1331L23.1874 9.76788C23.1526 7.20048 23.1298 6.97578 22.7893 5.92578C22.1317 3.92388 20.6779 2.21058 18.7972 1.22988C17.5858 0.601084 16.5646 0.335583 15.2032 0.306784C14.7298 0.294783 14.2453 0.300484 14.1358 0.311884ZM16.0741 2.03688C17.5165 2.29068 18.6874 2.91948 19.726 3.99828C20.4241 4.72518 20.8624 5.45208 21.1855 6.39258C21.4855 7.28088 21.52 7.65018 21.52 9.97518V12.104H14.995H8.47604L8.49344 9.75018L8.51654 7.40208L8.67794 6.82518C8.97794 5.72898 9.50294 4.80588 10.276 3.99828C11.0722 3.17328 11.8741 2.64828 12.8953 2.30208C13.8991 1.95618 15.0586 1.86378 16.0741 2.03688ZM23.7238 13.9673C23.9143 14.0597 24.1621 14.2499 24.3124 14.4173C24.7798 14.9366 24.7567 14.5328 24.7393 20.9939L24.7219 26.7284L24.5893 26.9996C24.4162 27.3458 24.0757 27.686 23.7238 27.8591L23.4526 27.9977H15.001H6.54944L6.27824 27.8591C5.93204 27.6917 5.58584 27.3572 5.41274 27.0341L5.28014 26.786L5.26274 21.0227C5.24534 14.573 5.22224 14.942 5.66084 14.4458C5.93204 14.1344 6.22034 13.9496 6.57824 13.8572C6.78014 13.7996 8.70134 13.7879 15.1165 13.7936L23.395 13.8059L23.7238 13.9673Z" fill="white"/>
<path d="M14.3812 17.7054C14.0236 17.844 13.6429 18.2073 13.4755 18.5649C13.3891 18.7554 13.3543 18.9342 13.36 19.2573C13.36 19.7937 13.5388 20.1804 13.9312 20.5035L14.1907 20.7228V22.1994C14.1907 23.5551 14.2021 23.682 14.3062 23.8551C14.6005 24.3456 15.3966 24.3456 15.6906 23.8551C15.7944 23.682 15.8061 23.5551 15.8061 22.1994V20.7225L16.0542 20.5206C16.1868 20.4051 16.3716 20.1744 16.4697 20.0013C16.6947 19.5861 16.7121 18.9687 16.5102 18.5589C16.1178 17.7573 15.2061 17.388 14.3812 17.7054Z" fill="white"/>
</svg>
