<svg width="21" height="20" viewBox="0 0 21 20" fill="none" xmlns="http://www.w3.org/2000/svg">
<path d="M3.7676 2.34022H8.72402C9.36481 2.34022 9.88419 1.81645 9.88419 1.17022C9.88419 0.523778 9.36481 0 8.72402 0H2.89985C1.362 0 0.115234 1.25733 0.115234 2.80822V17.192C0.115234 18.7427 1.362 20 2.89985 20H8.72402C9.36481 20 9.88419 19.4762 9.88419 18.83C9.88419 18.1838 9.36481 17.66 8.72402 17.66H3.76804C3.03228 17.66 2.43578 17.0585 2.43578 16.3165V3.68334C2.43578 2.94156 3.03206 2.34022 3.7676 2.34022Z" fill="#333333"/>
<path d="M11.9917 12.3287V15.3047C11.9917 15.7593 12.4958 16.0291 12.8691 15.7742L20.6375 10.4696C20.9667 10.2447 20.9669 9.75556 20.6375 9.53067L12.8693 4.22467C12.4961 3.96978 11.9919 4.23934 11.9919 4.694V7.66978L6.12365 7.67023C5.81317 7.67023 5.56152 7.92401 5.56152 8.23712V11.7611C5.56152 12.0742 5.81317 12.328 6.12365 12.328L11.9917 12.3287Z" fill="#333333"/>
</svg>
