<svg width="21" height="21" viewBox="0 0 21 21" fill="none" xmlns="http://www.w3.org/2000/svg">
<g clip-path="url(#clip0)">
<path d="M18.8125 21H9.1875C7.98175 21 7 20.0182 7 18.8125V14.4375C7 14.196 7.196 14 7.4375 14C7.679 14 7.875 14.196 7.875 14.4375V18.8125C7.875 19.5361 8.46388 20.125 9.1875 20.125H18.8125C19.5361 20.125 20.125 19.5361 20.125 18.8125V2.1875C20.125 1.46387 19.5361 0.875 18.8125 0.875H9.1875C8.46388 0.875 7.875 1.46387 7.875 2.1875V6.5625C7.875 6.804 7.679 7 7.4375 7C7.196 7 7 6.804 7 6.5625V2.1875C7 0.98175 7.98175 0 9.1875 0H18.8125C20.0183 0 21 0.98175 21 2.1875V18.8125C21 20.0182 20.0183 21 18.8125 21Z" fill="white"/>
<path d="M13.5625 10.9372H0.4375C0.196 10.9372 0 10.7412 0 10.4998C0 10.2583 0.196 10.0623 0.4375 10.0623H13.5625C13.804 10.0623 14 10.2583 14 10.4998C14 10.7412 13.804 10.9372 13.5625 10.9372Z" fill="white"/>
<path d="M10.0627 14.4373C9.95072 14.4373 9.83872 14.3945 9.75297 14.3096C9.58234 14.139 9.58234 13.8616 9.75297 13.691L12.9441 10.4998L9.75384 7.30958C9.58322 7.13896 9.58322 6.86158 9.75384 6.69096C9.92447 6.52033 10.2018 6.52033 10.3725 6.69096L13.8725 10.191C14.0431 10.3616 14.0431 10.639 13.8725 10.8096L10.3725 14.3096C10.2867 14.3945 10.1747 14.4373 10.0627 14.4373Z" fill="white"/>
</g>
<defs>
<clipPath id="clip0">
<rect width="21" height="21" fill="white"/>
</clipPath>
</defs>
</svg>
