<svg width="29" height="29" viewBox="0 0 29 29" fill="none" xmlns="http://www.w3.org/2000/svg">
<g clip-path="url(#clip0)">
<path d="M23.0683 22.9585H12.2005C10.6333 22.9585 9.24375 21.9302 8.81962 20.4572L5.14629 8.01021C5.01579 7.5595 4.582 7.25016 4.08658 7.25016H1.20833C0.540125 7.25016 0 6.70883 0 6.04183C0 5.37483 0.540125 4.8335 1.20833 4.8335H4.08658C5.65379 4.8335 7.04217 5.86179 7.46629 7.33475L8.15383 9.66683H26.6353C27.3893 9.66683 28.1046 10.0257 28.5481 10.6275C28.9879 11.2244 29.1148 11.9711 28.8961 12.6768L26.4033 20.589C25.9151 22.0172 24.5775 22.9585 23.0683 22.9585ZM26.6365 12.0835H26.6486H26.6365Z" fill="black"/>
<path d="M23.0683 22.9585H12.2005C10.6333 22.9585 9.24375 21.9302 8.81962 20.4572L5.14629 8.01021C5.01579 7.5595 4.582 7.25016 4.08658 7.25016H1.20833C0.540125 7.25016 0 6.70883 0 6.04183C0 5.37483 0.540125 4.8335 1.20833 4.8335H4.08658C5.65379 4.8335 7.04217 5.86179 7.46629 7.33475L8.15383 9.66683H26.6353C27.3893 9.66683 28.1046 10.0257 28.5481 10.6275C28.9879 11.2244 29.1148 11.9711 28.8961 12.6768L26.4033 20.589C25.9151 22.0172 24.5775 22.9585 23.0683 22.9585ZM26.6365 12.0835H26.6486H26.6365Z" fill="#868686"/>
<path d="M23.0683 22.9585H12.2005C10.6333 22.9585 9.24375 21.9302 8.81962 20.4572L5.14629 8.01021C5.01579 7.5595 4.582 7.25016 4.08658 7.25016H1.20833C0.540125 7.25016 0 6.70883 0 6.04183C0 5.37483 0.540125 4.8335 1.20833 4.8335H4.08658C5.65379 4.8335 7.04217 5.86179 7.46629 7.33475L8.15383 9.66683H26.6353C27.3893 9.66683 28.1046 10.0257 28.5481 10.6275C28.9879 11.2244 29.1148 11.9711 28.8961 12.6768L26.4033 20.589C25.9151 22.0172 24.5775 22.9585 23.0683 22.9585ZM26.6365 12.0835H26.6486H26.6365Z" fill="url(#paint0_linear)"/>
<path d="M13.2917 28.9999C11.9589 28.9999 10.875 27.916 10.875 26.5832C10.875 25.2504 11.9589 24.1665 13.2917 24.1665C14.6245 24.1665 15.7083 25.2504 15.7083 26.5832C15.7083 27.916 14.6245 28.9999 13.2917 28.9999ZM13.2917 26.582V26.5832V26.582Z" fill="black"/>
<path d="M13.2917 28.9999C11.9589 28.9999 10.875 27.916 10.875 26.5832C10.875 25.2504 11.9589 24.1665 13.2917 24.1665C14.6245 24.1665 15.7083 25.2504 15.7083 26.5832C15.7083 27.916 14.6245 28.9999 13.2917 28.9999ZM13.2917 26.582V26.5832V26.582Z" fill="#868686"/>
<path d="M13.2917 28.9999C11.9589 28.9999 10.875 27.916 10.875 26.5832C10.875 25.2504 11.9589 24.1665 13.2917 24.1665C14.6245 24.1665 15.7083 25.2504 15.7083 26.5832C15.7083 27.916 14.6245 28.9999 13.2917 28.9999ZM13.2917 26.582V26.5832V26.582Z" fill="url(#paint1_linear)"/>
<path d="M21.7493 28.9999C20.4165 28.9999 19.3326 27.916 19.3326 26.5832C19.3326 25.2504 20.4165 24.1665 21.7493 24.1665C23.0821 24.1665 24.166 25.2504 24.166 26.5832C24.166 27.916 23.0821 28.9999 21.7493 28.9999ZM21.7493 26.582V26.5832V26.582Z" fill="black"/>
<path d="M21.7493 28.9999C20.4165 28.9999 19.3326 27.916 19.3326 26.5832C19.3326 25.2504 20.4165 24.1665 21.7493 24.1665C23.0821 24.1665 24.166 25.2504 24.166 26.5832C24.166 27.916 23.0821 28.9999 21.7493 28.9999ZM21.7493 26.582V26.5832V26.582Z" fill="#868686"/>
<path d="M21.7493 28.9999C20.4165 28.9999 19.3326 27.916 19.3326 26.5832C19.3326 25.2504 20.4165 24.1665 21.7493 24.1665C23.0821 24.1665 24.166 25.2504 24.166 26.5832C24.166 27.916 23.0821 28.9999 21.7493 28.9999ZM21.7493 26.582V26.5832V26.582Z" fill="url(#paint2_linear)"/>
</g>
<defs>
<linearGradient id="paint0_linear" x1="29.5841" y1="4.8335" x2="5.20237" y2="28.7064" gradientUnits="userSpaceOnUse">
<stop stop-color="#FE173F"/>
<stop offset="1" stop-color="#950552"/>
</linearGradient>
<linearGradient id="paint1_linear" x1="15.8055" y1="24.1665" x2="10.0148" y2="27.71" gradientUnits="userSpaceOnUse">
<stop stop-color="#FE173F"/>
<stop offset="1" stop-color="#950552"/>
</linearGradient>
<linearGradient id="paint2_linear" x1="24.2632" y1="24.1665" x2="18.4724" y2="27.71" gradientUnits="userSpaceOnUse">
<stop stop-color="#FE173F"/>
<stop offset="1" stop-color="#950552"/>
</linearGradient>
<clipPath id="clip0">
<rect width="29" height="29" fill="white"/>
</clipPath>
</defs>
</svg>
