<svg width="29" height="29" viewBox="0 0 29 29" fill="none" xmlns="http://www.w3.org/2000/svg">
<path d="M24.8134 15.481H22.5707C22.7993 16.1068 22.9242 16.7823 22.9242 17.4863V25.9625C22.9242 26.2561 22.8731 26.5378 22.7801 26.7998H26.4879C27.8729 26.7998 28.9997 25.673 28.9997 24.288V19.6672C28.9997 17.3589 27.1217 15.481 24.8134 15.481Z" fill="black"/>
<path d="M24.8134 15.481H22.5707C22.7993 16.1068 22.9242 16.7823 22.9242 17.4863V25.9625C22.9242 26.2561 22.8731 26.5378 22.7801 26.7998H26.4879C27.8729 26.7998 28.9997 25.673 28.9997 24.288V19.6672C28.9997 17.3589 27.1217 15.481 24.8134 15.481Z" fill="#868686"/>
<path d="M24.8134 15.481H22.5707C22.7993 16.1068 22.9242 16.7823 22.9242 17.4863V25.9625C22.9242 26.2561 22.8731 26.5378 22.7801 26.7998H26.4879C27.8729 26.7998 28.9997 25.673 28.9997 24.288V19.6672C28.9997 17.3589 27.1217 15.481 24.8134 15.481Z" fill="url(#paint0_linear)"/>
<path d="M6.07557 17.4863C6.07557 16.7822 6.20046 16.1068 6.42906 15.481H4.18632C1.87798 15.481 0 17.3589 0 19.6673V24.2881C0 25.6731 1.12675 26.7999 2.51179 26.7999H6.21961C6.12666 26.5377 6.07557 26.2561 6.07557 25.9625V17.4863Z" fill="black"/>
<path d="M6.07557 17.4863C6.07557 16.7822 6.20046 16.1068 6.42906 15.481H4.18632C1.87798 15.481 0 17.3589 0 19.6673V24.2881C0 25.6731 1.12675 26.7999 2.51179 26.7999H6.21961C6.12666 26.5377 6.07557 26.2561 6.07557 25.9625V17.4863Z" fill="#868686"/>
<path d="M6.07557 17.4863C6.07557 16.7822 6.20046 16.1068 6.42906 15.481H4.18632C1.87798 15.481 0 17.3589 0 19.6673V24.2881C0 25.6731 1.12675 26.7999 2.51179 26.7999H6.21961C6.12666 26.5377 6.07557 26.2561 6.07557 25.9625V17.4863Z" fill="url(#paint1_linear)"/>
<path d="M17.0645 13.3003H11.9373C9.62896 13.3003 7.75098 15.1783 7.75098 17.4866V25.9629C7.75098 26.4253 8.12582 26.8002 8.58824 26.8002H20.4136C20.876 26.8002 21.2508 26.4253 21.2508 25.9629V17.4866C21.2508 15.1783 19.3729 13.3003 17.0645 13.3003Z" fill="black"/>
<path d="M17.0645 13.3003H11.9373C9.62896 13.3003 7.75098 15.1783 7.75098 17.4866V25.9629C7.75098 26.4253 8.12582 26.8002 8.58824 26.8002H20.4136C20.876 26.8002 21.2508 26.4253 21.2508 25.9629V17.4866C21.2508 15.1783 19.3729 13.3003 17.0645 13.3003Z" fill="#868686"/>
<path d="M17.0645 13.3003H11.9373C9.62896 13.3003 7.75098 15.1783 7.75098 17.4866V25.9629C7.75098 26.4253 8.12582 26.8002 8.58824 26.8002H20.4136C20.876 26.8002 21.2508 26.4253 21.2508 25.9629V17.4866C21.2508 15.1783 19.3729 13.3003 17.0645 13.3003Z" fill="url(#paint2_linear)"/>
<path d="M14.5005 2.19971C11.7244 2.19971 9.46594 4.4582 9.46594 7.23433C9.46594 9.11735 10.5052 10.7619 12.0401 11.6253C12.7681 12.0349 13.6074 12.2689 14.5005 12.2689C15.3936 12.2689 16.2329 12.0349 16.9609 11.6253C18.4958 10.7619 19.5351 9.1173 19.5351 7.23433C19.5351 4.45826 17.2766 2.19971 14.5005 2.19971Z" fill="black"/>
<path d="M14.5005 2.19971C11.7244 2.19971 9.46594 4.4582 9.46594 7.23433C9.46594 9.11735 10.5052 10.7619 12.0401 11.6253C12.7681 12.0349 13.6074 12.2689 14.5005 12.2689C15.3936 12.2689 16.2329 12.0349 16.9609 11.6253C18.4958 10.7619 19.5351 9.1173 19.5351 7.23433C19.5351 4.45826 17.2766 2.19971 14.5005 2.19971Z" fill="#868686"/>
<path d="M14.5005 2.19971C11.7244 2.19971 9.46594 4.4582 9.46594 7.23433C9.46594 9.11735 10.5052 10.7619 12.0401 11.6253C12.7681 12.0349 13.6074 12.2689 14.5005 12.2689C15.3936 12.2689 16.2329 12.0349 16.9609 11.6253C18.4958 10.7619 19.5351 9.1173 19.5351 7.23433C19.5351 4.45826 17.2766 2.19971 14.5005 2.19971Z" fill="url(#paint3_linear)"/>
<path d="M5.65911 6.89258C3.58295 6.89258 1.89392 8.5816 1.89392 10.6578C1.89392 12.7339 3.58295 14.423 5.65911 14.423C6.18576 14.423 6.68726 14.3139 7.14282 14.1178C7.93046 13.7787 8.57991 13.1784 8.98177 12.4265C9.26384 11.8988 9.42431 11.2967 9.42431 10.6578C9.42431 8.58166 7.73528 6.89258 5.65911 6.89258Z" fill="black"/>
<path d="M5.65911 6.89258C3.58295 6.89258 1.89392 8.5816 1.89392 10.6578C1.89392 12.7339 3.58295 14.423 5.65911 14.423C6.18576 14.423 6.68726 14.3139 7.14282 14.1178C7.93046 13.7787 8.57991 13.1784 8.98177 12.4265C9.26384 11.8988 9.42431 11.2967 9.42431 10.6578C9.42431 8.58166 7.73528 6.89258 5.65911 6.89258Z" fill="#868686"/>
<path d="M5.65911 6.89258C3.58295 6.89258 1.89392 8.5816 1.89392 10.6578C1.89392 12.7339 3.58295 14.423 5.65911 14.423C6.18576 14.423 6.68726 14.3139 7.14282 14.1178C7.93046 13.7787 8.57991 13.1784 8.98177 12.4265C9.26384 11.8988 9.42431 11.2967 9.42431 10.6578C9.42431 8.58166 7.73528 6.89258 5.65911 6.89258Z" fill="url(#paint4_linear)"/>
<path d="M23.3403 6.89258C21.2641 6.89258 19.5751 8.5816 19.5751 10.6578C19.5751 11.2968 19.7355 11.8988 20.0176 12.4265C20.4195 13.1785 21.0689 13.7787 21.8566 14.1178C22.3121 14.3139 22.8136 14.423 23.3403 14.423C25.4164 14.423 27.1055 12.7339 27.1055 10.6578C27.1055 8.5816 25.4164 6.89258 23.3403 6.89258Z" fill="black"/>
<path d="M23.3403 6.89258C21.2641 6.89258 19.5751 8.5816 19.5751 10.6578C19.5751 11.2968 19.7355 11.8988 20.0176 12.4265C20.4195 13.1785 21.0689 13.7787 21.8566 14.1178C22.3121 14.3139 22.8136 14.423 23.3403 14.423C25.4164 14.423 27.1055 12.7339 27.1055 10.6578C27.1055 8.5816 25.4164 6.89258 23.3403 6.89258Z" fill="#868686"/>
<path d="M23.3403 6.89258C21.2641 6.89258 19.5751 8.5816 19.5751 10.6578C19.5751 11.2968 19.7355 11.8988 20.0176 12.4265C20.4195 13.1785 21.0689 13.7787 21.8566 14.1178C22.3121 14.3139 22.8136 14.423 23.3403 14.423C25.4164 14.423 27.1055 12.7339 27.1055 10.6578C27.1055 8.5816 25.4164 6.89258 23.3403 6.89258Z" fill="url(#paint5_linear)"/>
<defs>
<linearGradient id="paint0_linear" x1="29.1289" y1="15.481" x2="19.6833" y2="18.764" gradientUnits="userSpaceOnUse">
<stop stop-color="#FE173F"/>
<stop offset="1" stop-color="#950552"/>
</linearGradient>
<linearGradient id="paint1_linear" x1="6.55834" y1="15.481" x2="-2.88739" y2="18.7641" gradientUnits="userSpaceOnUse">
<stop stop-color="#FE173F"/>
<stop offset="1" stop-color="#950552"/>
</linearGradient>
<linearGradient id="paint2_linear" x1="21.5223" y1="13.3003" x2="5.34839" y2="23.1977" gradientUnits="userSpaceOnUse">
<stop stop-color="#FE173F"/>
<stop offset="1" stop-color="#950552"/>
</linearGradient>
<linearGradient id="paint3_linear" x1="19.7375" y1="2.19971" x2="7.67389" y2="9.58183" gradientUnits="userSpaceOnUse">
<stop stop-color="#FE173F"/>
<stop offset="1" stop-color="#950552"/>
</linearGradient>
<linearGradient id="paint4_linear" x1="9.57573" y1="6.89258" x2="0.553736" y2="12.4135" gradientUnits="userSpaceOnUse">
<stop stop-color="#FE173F"/>
<stop offset="1" stop-color="#950552"/>
</linearGradient>
<linearGradient id="paint5_linear" x1="27.2569" y1="6.89258" x2="18.2349" y2="12.4135" gradientUnits="userSpaceOnUse">
<stop stop-color="#FE173F"/>
<stop offset="1" stop-color="#950552"/>
</linearGradient>
</defs>
</svg>
