<svg width="70" height="70" viewBox="0 0 70 70" fill="none" xmlns="http://www.w3.org/2000/svg">
<path d="M35 0C15.6998 0 0 15.7013 0 35C0 54.2987 15.6998 70 35 70C54.3002 70 70 54.2987 70 35C70 15.7013 54.3002 0 35 0ZM48.914 36.2262L28.4974 49.3512C28.2581 49.5064 27.9818 49.5834 27.7084 49.5834C27.4691 49.5834 27.227 49.5235 27.0106 49.4054C26.5405 49.149 26.25 48.659 26.25 48.125V21.875C26.25 21.341 26.5405 20.851 27.0106 20.5946C27.472 20.3412 28.0502 20.3567 28.4974 20.6488L48.914 33.7738C49.3299 34.0415 49.5834 34.5044 49.5834 35C49.5834 35.4956 49.3299 35.9584 48.914 36.2262Z" fill="black"/>
<path d="M35 0C15.6998 0 0 15.7013 0 35C0 54.2987 15.6998 70 35 70C54.3002 70 70 54.2987 70 35C70 15.7013 54.3002 0 35 0ZM48.914 36.2262L28.4974 49.3512C28.2581 49.5064 27.9818 49.5834 27.7084 49.5834C27.4691 49.5834 27.227 49.5235 27.0106 49.4054C26.5405 49.149 26.25 48.659 26.25 48.125V21.875C26.25 21.341 26.5405 20.851 27.0106 20.5946C27.472 20.3412 28.0502 20.3567 28.4974 20.6488L48.914 33.7738C49.3299 34.0415 49.5834 34.5044 49.5834 35C49.5834 35.4956 49.3299 35.9584 48.914 36.2262Z" fill="#00D1FF"/>
<path d="M35 0C15.6998 0 0 15.7013 0 35C0 54.2987 15.6998 70 35 70C54.3002 70 70 54.2987 70 35C70 15.7013 54.3002 0 35 0ZM48.914 36.2262L28.4974 49.3512C28.2581 49.5064 27.9818 49.5834 27.7084 49.5834C27.4691 49.5834 27.227 49.5235 27.0106 49.4054C26.5405 49.149 26.25 48.659 26.25 48.125V21.875C26.25 21.341 26.5405 20.851 27.0106 20.5946C27.472 20.3412 28.0502 20.3567 28.4974 20.6488L48.914 33.7738C49.3299 34.0415 49.5834 34.5044 49.5834 35C49.5834 35.4956 49.3299 35.9584 48.914 36.2262Z" fill="url(#paint0_linear)"/>
<defs>
<linearGradient id="paint0_linear" x1="71.4076" y1="3.02133e-06" x2="-12.4579" y2="51.3203" gradientUnits="userSpaceOnUse">
<stop stop-color="#FE173F"/>
<stop offset="1" stop-color="#950552"/>
</linearGradient>
</defs>
</svg>
