<svg width="40" height="40" viewBox="0 0 40 40" fill="none" xmlns="http://www.w3.org/2000/svg">
<g clip-path="url(#clip0)" filter="url(#filter0_d)">
<path d="M34.7153 21.2002C35.0949 20.4484 35.0949 19.5508 34.7153 18.7991L34.3223 18.0206C34.2366 17.8509 34.2067 17.6619 34.2357 17.474L34.3689 16.6122C34.4976 15.78 34.2202 14.9263 33.6269 14.3287L33.0126 13.7097C32.8787 13.5748 32.7918 13.4043 32.7614 13.2166L32.6218 12.3558C32.4884 11.5337 31.971 10.8145 31.2353 10.4263L30.4795 9.98053C30.4649 9.97192 30.4501 9.96372 30.4349 9.95598C30.2659 9.86908 30.1306 9.73377 30.0437 9.56466L29.6449 8.78917C29.2688 8.05786 28.5021 7.51705 27.6438 7.37782L26.783 7.23824C26.5953 7.20777 26.4248 7.12092 26.2899 6.98703L25.6709 6.37262C25.0733 5.77937 24.2198 5.5022 23.3875 5.63064L22.5257 5.76384C22.3376 5.7929 22.1487 5.76296 21.979 5.67729L21.2005 5.28427C20.4488 4.90478 19.5513 4.90473 18.7995 5.28427L18.021 5.67729C17.8514 5.7629 17.6624 5.79279 17.4744 5.7639L16.6126 5.6307C15.7802 5.50196 14.9267 5.77943 14.3291 6.37268L13.7101 6.98697C13.5752 7.12092 13.4047 7.20777 13.217 7.23824L12.3561 7.37782C11.4979 7.51705 10.7311 8.0578 10.3551 8.78917L9.95632 9.56466C9.86936 9.73372 9.73406 9.86908 9.56494 9.95598L8.78939 10.3548C8.05808 10.7308 7.51728 11.4976 7.37811 12.3558L7.23846 13.2167C7.20805 13.4044 7.12115 13.5749 6.98719 13.7098L6.37296 14.3287C5.77971 14.9264 5.50237 15.78 5.63099 16.6122L5.76424 17.4741C5.79331 17.6619 5.76336 17.8509 5.67763 18.0206L5.28461 18.7991C4.90513 19.5508 4.90513 20.4483 5.28461 21.2001L5.67763 21.9786C5.7633 22.1483 5.79325 22.3373 5.76424 22.5252L5.63099 23.3871C5.50237 24.2193 5.77977 25.0729 6.37296 25.6705L6.98731 26.2895C7.12127 26.4245 7.20817 26.5949 7.23858 26.7827L7.37822 27.6434C7.51739 28.5017 8.0582 29.2685 8.78951 29.6445L9.565 30.0433C9.73412 30.1302 9.86942 30.2655 9.95638 30.4347L10.3551 31.2102C10.7312 31.9415 11.498 32.4823 12.3562 32.6215L13.217 32.7611C13.4047 32.7916 13.5753 32.8784 13.7101 33.0123L14.3291 33.6267C14.9269 34.22 15.7804 34.4972 16.6126 34.3687L17.4745 34.2354C17.6623 34.2063 17.8514 34.2364 18.021 34.322L18.7995 34.715C19.1754 34.9048 19.5877 34.9997 20 34.9997C20.4124 34.9997 20.8247 34.9048 21.2005 34.715L21.979 34.322C22.1487 34.2364 22.3378 34.2065 22.5256 34.2354L23.3874 34.3686C24.2196 34.4972 25.0732 34.2199 25.6709 33.6266L26.2899 33.0123C26.4247 32.8783 26.5953 32.7915 26.783 32.761L27.6438 32.6214C28.4658 32.4881 29.1851 31.9707 29.5733 31.2349L30.0191 30.4791C30.0277 30.4645 30.0359 30.4497 30.0436 30.4345C30.1305 30.2655 30.2659 30.1302 30.4349 30.0432L31.2104 29.6445C31.9593 29.2594 32.4869 28.5332 32.6218 27.702L32.7614 26.8412C32.7918 26.6535 32.8787 26.483 33.0126 26.348C33.0219 26.3387 33.6423 25.6549 33.6423 25.6549C34.225 25.0581 34.4965 24.212 34.3689 23.3871L34.2357 22.5253C34.2066 22.3373 34.2366 22.1483 34.3222 21.9786L34.7153 21.2002Z" fill="url(#paint0_linear)"/>
<path d="M20.0009 9.3938C14.1779 9.3938 9.39453 14.1784 9.39453 20.0001C9.39453 25.8231 14.1792 30.6065 20.0009 30.6065C25.8239 30.6065 30.6072 25.8218 30.6072 20.0001C30.6072 14.1771 25.8225 9.3938 20.0009 9.3938ZM26.1275 17.5764L24.3695 24.6082C24.2717 24.9995 23.9201 25.274 23.5168 25.274H16.485C16.0816 25.274 15.73 24.9995 15.6322 24.6082L13.8743 17.5764C13.7707 17.1622 13.9799 16.7334 14.3701 16.5599C14.7602 16.3865 15.2186 16.5187 15.4567 16.8731C15.6973 17.2267 16.5674 18.2422 17.3639 18.2422C17.5095 18.2422 17.9605 17.9034 18.425 16.856C18.8418 15.9163 19.1219 14.7073 19.1219 13.8473C19.1219 13.3619 19.5154 12.9683 20.0009 12.9683C20.4863 12.9683 20.8798 13.3619 20.8798 13.8473C20.8798 14.7073 21.1599 15.9163 21.5767 16.856C22.0413 17.9034 22.4922 18.2422 22.6378 18.2422C23.458 18.2422 24.3508 17.1623 24.545 16.8731C24.7831 16.5187 25.2416 16.3866 25.6317 16.5599C26.0219 16.7334 26.231 17.1622 26.1275 17.5764Z" fill="url(#paint1_linear)"/>
</g>
<defs>
<filter id="filter0_d" x="0" y="0" width="40" height="40" filterUnits="userSpaceOnUse" color-interpolation-filters="sRGB">
<feFlood flood-opacity="0" result="BackgroundImageFix"/>
<feColorMatrix in="SourceAlpha" type="matrix" values="0 0 0 0 0 0 0 0 0 0 0 0 0 0 0 0 0 0 127 0"/>
<feOffset/>
<feGaussianBlur stdDeviation="2.5"/>
<feColorMatrix type="matrix" values="0 0 0 0 1 0 0 0 0 0.847059 0 0 0 0 0.00392157 0 0 0 0.3 0"/>
<feBlend mode="normal" in2="BackgroundImageFix" result="effect1_dropShadow"/>
<feBlend mode="normal" in="SourceGraphic" in2="effect1_dropShadow" result="shape"/>
</filter>
<linearGradient id="paint0_linear" x1="20" y1="34.9997" x2="20" y2="4.99966" gradientUnits="userSpaceOnUse">
<stop stop-color="#FD5900"/>
<stop offset="1" stop-color="#FFDE00"/>
</linearGradient>
<linearGradient id="paint1_linear" x1="20.0009" y1="30.6065" x2="20.0009" y2="9.3938" gradientUnits="userSpaceOnUse">
<stop stop-color="#FFE59A"/>
<stop offset="1" stop-color="#FFFFD5"/>
</linearGradient>
<clipPath id="clip0">
<rect width="30" height="30" fill="white" transform="translate(5 5)"/>
</clipPath>
</defs>
</svg>
