<svg width="30" height="30" viewBox="0 0 30 30" fill="none" xmlns="http://www.w3.org/2000/svg">
<g clip-path="url(#clip0)">
<path d="M29.7153 16.2002C30.0949 15.4484 30.0949 14.5508 29.7153 13.7991L29.3223 13.0206C29.2366 12.8509 29.2067 12.6619 29.2357 12.474L29.3689 11.6122C29.4976 10.78 29.2202 9.92631 28.6269 9.32866L28.0126 8.70975C27.8787 8.57479 27.7918 8.40427 27.7614 8.21658L27.6218 7.35577C27.4884 6.53375 26.971 5.81451 26.2353 5.42629L25.4795 4.98053C25.4649 4.97192 25.4501 4.96372 25.4349 4.95598C25.2659 4.86908 25.1306 4.73377 25.0437 4.56466L24.6449 3.78917C24.2688 3.05786 23.5021 2.51705 22.6438 2.37782L21.783 2.23824C21.5953 2.20777 21.4248 2.12092 21.2899 1.98703L20.6709 1.37262C20.0733 0.779368 19.2198 0.502197 18.3875 0.630645L17.5257 0.76384C17.3376 0.792904 17.1487 0.762961 16.979 0.677289L16.2005 0.284269C15.4488 -0.0952153 14.5513 -0.0952739 13.7995 0.284269L13.021 0.677289C12.8514 0.762902 12.6624 0.792787 12.4744 0.763898L11.6126 0.630704C10.7802 0.501963 9.92671 0.779427 9.32907 1.37268L8.71009 1.98697C8.5752 2.12092 8.40467 2.20777 8.21698 2.23824L7.35611 2.37782C6.49788 2.51705 5.73111 3.0578 5.35509 3.78917L4.95632 4.56466C4.86936 4.73372 4.73406 4.86908 4.56494 4.95598L3.78939 5.3548C3.05808 5.73083 2.51728 6.49759 2.37811 7.35583L2.23846 8.2167C2.20805 8.40439 2.12115 8.57485 1.98719 8.7098L1.37296 9.32872C0.779712 9.92637 0.502365 10.78 0.630989 11.6122L0.764242 12.4741C0.793307 12.6619 0.763363 12.8509 0.677634 13.0206L0.284613 13.7991C-0.0948711 14.5508 -0.0948711 15.4483 0.284613 16.2001L0.677634 16.9786C0.763305 17.1483 0.793249 17.3373 0.764242 17.5252L0.630989 18.3871C0.502365 19.2193 0.779771 20.0729 1.37296 20.6705L1.98731 21.2895C2.12127 21.4245 2.20817 21.5949 2.23858 21.7827L2.37822 22.6434C2.51739 23.5017 3.0582 24.2685 3.78951 24.6445L4.565 25.0433C4.73412 25.1302 4.86942 25.2655 4.95638 25.4347L5.35515 26.2102C5.73123 26.9415 6.49799 27.4823 7.35623 27.6215L8.21704 27.7611C8.40473 27.7916 8.57525 27.8784 8.71015 28.0123L9.32912 28.6267C9.92689 29.22 10.7804 29.4972 11.6126 29.3687L12.4745 29.2354C12.6623 29.2063 12.8514 29.2364 13.021 29.322L13.7995 29.715C14.1754 29.9048 14.5877 29.9997 15 29.9997C15.4124 29.9997 15.8247 29.9048 16.2005 29.715L16.979 29.322C17.1487 29.2364 17.3378 29.2065 17.5256 29.2354L18.3874 29.3686C19.2196 29.4972 20.0732 29.2199 20.6709 28.6266L21.2899 28.0123C21.4247 27.8783 21.5953 27.7915 21.783 27.761L22.6438 27.6214C23.4658 27.4881 24.1851 26.9707 24.5733 26.2349L25.0191 25.4791C25.0277 25.4645 25.0359 25.4497 25.0436 25.4345C25.1305 25.2655 25.2659 25.1302 25.4349 25.0432L26.2104 24.6445C26.9593 24.2594 27.4869 23.5332 27.6218 22.702L27.7614 21.8412C27.7918 21.6535 27.8787 21.483 28.0126 21.348C28.0219 21.3387 28.6423 20.6549 28.6423 20.6549C29.225 20.0581 29.4965 19.212 29.3689 18.3871L29.2357 17.5253C29.2066 17.3373 29.2366 17.1483 29.3222 16.9786L29.7153 16.2002Z" fill="url(#paint0_linear)"/>
<path d="M15.0009 4.39377C9.17787 4.39377 4.39453 9.1784 4.39453 15.0001C4.39453 20.8231 9.17916 25.6064 15.0009 25.6064C20.8239 25.6064 25.6072 20.8218 25.6072 15.0001C25.6072 9.17711 20.8225 4.39377 15.0009 4.39377ZM21.1275 12.5764L19.3695 19.6082C19.2717 19.9994 18.9201 20.274 18.5168 20.274H11.485C11.0816 20.274 10.73 19.9994 10.6322 19.6082L8.87427 12.5764C8.77073 12.1621 8.97987 11.7334 9.37008 11.5599C9.76023 11.3865 10.2186 11.5186 10.4567 11.8731C10.6973 12.2267 11.5674 13.2422 12.3639 13.2422C12.5095 13.2422 12.9605 12.9033 13.425 11.8559C13.8418 10.9163 14.1219 9.70725 14.1219 8.84726C14.1219 8.36183 14.5154 7.96828 15.0009 7.96828C15.4863 7.96828 15.8798 8.36183 15.8798 8.84726C15.8798 9.70725 16.1599 10.9163 16.5767 11.8559C17.0413 12.9033 17.4922 13.2422 17.6378 13.2422C18.458 13.2422 19.3508 12.1623 19.545 11.8731C19.7831 11.5187 20.2416 11.3866 20.6317 11.5599C21.0219 11.7334 21.231 12.1621 21.1275 12.5764Z" fill="url(#paint1_linear)"/>
<path d="M29.7153 16.2005C30.0949 15.4488 30.0949 14.5512 29.7153 13.7995L29.3223 13.021C29.2366 12.8513 29.2067 12.6623 29.2357 12.4744L29.3689 11.6126C29.4976 10.7803 29.2202 9.92668 28.6269 9.32903L28.0126 8.71011C27.8787 8.57516 27.7918 8.40464 27.7614 8.21695L27.6218 7.35613C27.4884 6.53411 26.971 5.81487 26.2353 5.42666L25.4795 4.9809C25.4649 4.97229 25.4501 4.96408 25.4349 4.95635C25.2659 4.86944 25.1306 4.73414 25.0437 4.56503L24.6449 3.78953C24.2688 3.05822 23.5021 2.51742 22.6438 2.37819L21.783 2.2386C21.5953 2.20813 21.4248 2.12129 21.2899 1.98739L20.6709 1.37299C20.0733 0.779734 19.2198 0.502563 18.3875 0.631011L17.5257 0.764206C17.3376 0.793271 17.1487 0.763327 16.979 0.677656L16.2005 0.284635C15.4488 -0.0948491 14.5513 -0.0949077 13.7995 0.284635L13.021 0.677656C12.8514 0.763268 12.6624 0.793153 12.4744 0.764264L11.6126 0.63107C10.7802 0.502329 9.92671 0.779793 9.32907 1.37304L8.71009 1.98733C8.5752 2.12129 8.40467 2.20813 8.21698 2.2386L7.35611 2.37819C6.49788 2.51742 5.73111 3.05816 5.35509 3.78953L4.95632 4.56503C4.86936 4.73408 4.73406 4.86944 4.56494 4.95635L3.78939 5.35517C3.05808 5.7312 2.51728 6.49796 2.37811 7.35619L2.23846 8.21706C2.20805 8.40475 2.12115 8.57522 1.98719 8.71017L1.37296 9.32909C0.779712 9.92673 0.502365 10.7803 0.630989 11.6126L0.764242 12.4744C0.793307 12.6623 0.763363 12.8513 0.677634 13.021L0.284613 13.7995C-0.094871 14.5512 -0.094871 15.4487 0.284613 16.2005L0.677634 16.979C0.763305 17.1487 0.793249 17.3376 0.764242 17.5256L0.630989 18.3874C0.502365 19.2196 0.779771 20.0732 1.37296 20.6709L1.98731 21.2899C2.12127 21.4248 2.20817 21.5953 2.23858 21.783L2.37822 22.6438C2.51739 23.5021 3.0582 24.2688 3.78951 24.6449L4.565 25.0436C4.73412 25.1306 4.86942 25.2659 4.95638 25.435L5.35515 26.2106C5.73123 26.9419 6.49799 27.4827 7.35623 27.6219L8.21704 27.7615C8.40473 27.792 8.57525 27.8788 8.71015 28.0127L9.32912 28.6271C9.92689 29.2204 10.7804 29.4975 11.6126 29.369L12.4745 29.2358C12.6623 29.2067 12.8514 29.2367 13.021 29.3224L13.7995 29.7154C14.1754 29.9052 14.5877 30 15 30C15.4124 30 15.8247 29.9052 16.2005 29.7154L16.979 29.3224C17.1487 29.2367 17.3378 29.2068 17.5256 29.2358L18.3874 29.369C19.2196 29.4975 20.0732 29.2203 20.6709 28.627L21.2899 28.0127C21.4247 27.8787 21.5953 27.7919 21.783 27.7614L22.6438 27.6217C23.4658 27.4884 24.1851 26.9711 24.5733 26.2353L25.0191 25.4795C25.0277 25.4648 25.0359 25.45 25.0436 25.4349C25.1305 25.2658 25.2659 25.1305 25.4349 25.0436L26.2104 24.6448C26.9593 24.2598 27.4869 23.5336 27.6218 22.7023L27.7614 21.8416C27.7918 21.6539 27.8787 21.4834 28.0126 21.3484C28.0219 21.339 28.6423 20.6553 28.6423 20.6553C29.225 20.0584 29.4965 19.2124 29.3689 18.3874L29.2357 17.5256C29.2066 17.3377 29.2366 17.1487 29.3222 16.979L29.7153 16.2005Z" fill="url(#paint2_linear)"/>
<path d="M15.0009 4.39413C9.17787 4.39413 4.39453 9.17877 4.39453 15.0005C4.39453 20.8235 9.17916 25.6068 15.0009 25.6068C20.8239 25.6068 25.6072 20.8222 25.6072 15.0005C25.6072 9.17748 20.8225 4.39413 15.0009 4.39413ZM21.1275 12.5767L19.3695 19.6085C19.2717 19.9998 18.9201 20.2743 18.5168 20.2743H11.485C11.0816 20.2743 10.73 19.9998 10.6322 19.6085L8.87427 12.5767C8.77073 12.1625 8.97987 11.7337 9.37008 11.5603C9.76023 11.3869 10.2186 11.519 10.4567 11.8735C10.6973 12.2271 11.5674 13.2425 12.3639 13.2425C12.5095 13.2425 12.9605 12.9037 13.425 11.8563C13.8418 10.9167 14.1219 9.70762 14.1219 8.84763C14.1219 8.36219 14.5154 7.96865 15.0009 7.96865C15.4863 7.96865 15.8798 8.36219 15.8798 8.84763C15.8798 9.70762 16.1599 10.9167 16.5767 11.8563C17.0413 12.9037 17.4922 13.2425 17.6378 13.2425C18.458 13.2425 19.3508 12.1627 19.545 11.8735C19.7831 11.5191 20.2416 11.3869 20.6317 11.5603C21.0219 11.7337 21.231 12.1625 21.1275 12.5767Z" fill="url(#paint3_linear)"/>
</g>
<defs>
<linearGradient id="paint0_linear" x1="15" y1="29.9997" x2="15" y2="-0.000344753" gradientUnits="userSpaceOnUse">
<stop stop-color="#FD5900"/>
<stop offset="1" stop-color="#FFDE00"/>
</linearGradient>
<linearGradient id="paint1_linear" x1="15.0009" y1="25.6064" x2="15.0009" y2="4.39377" gradientUnits="userSpaceOnUse">
<stop stop-color="#FFE59A"/>
<stop offset="1" stop-color="#FFFFD5"/>
</linearGradient>
<linearGradient id="paint2_linear" x1="15" y1="30" x2="15" y2="2.14577e-05" gradientUnits="userSpaceOnUse">
<stop stop-color="#505050"/>
<stop offset="1" stop-color="#6B6B6B"/>
</linearGradient>
<linearGradient id="paint3_linear" x1="15.0009" y1="25.6068" x2="15.0009" y2="4.39413" gradientUnits="userSpaceOnUse">
<stop stop-color="#707070"/>
<stop offset="1" stop-color="#707070"/>
</linearGradient>
<clipPath id="clip0">
<rect width="30" height="30" fill="white"/>
</clipPath>
</defs>
</svg>
