<svg width="24" height="24" viewBox="0 0 24 24" fill="none" xmlns="http://www.w3.org/2000/svg">
<path d="M18.9041 14.7065C18.6019 14.9993 18.4631 15.4228 18.5319 15.8382L19.5691 21.5782C19.6566 22.0647 19.4512 22.557 19.0441 22.8382C18.6451 23.1298 18.1142 23.1648 17.6791 22.9315L12.5119 20.2365C12.3322 20.1408 12.1327 20.0895 11.9286 20.0837H11.6124C11.5027 20.1 11.3954 20.135 11.2974 20.1887L6.12905 22.8965C5.87355 23.0248 5.58422 23.0703 5.30072 23.0248C4.61005 22.8942 4.14922 22.2362 4.26239 21.542L5.30072 15.802C5.36955 15.3832 5.23072 14.9573 4.92855 14.6598L0.71572 10.5765C0.363386 10.2347 0.240886 9.72134 0.401886 9.25817C0.55822 8.79617 0.95722 8.459 1.43905 8.38317L7.23739 7.542C7.67839 7.4965 8.06572 7.22817 8.26405 6.8315L10.8191 1.59317C10.8797 1.4765 10.9579 1.36917 11.0524 1.27817L11.1574 1.1965C11.2122 1.13584 11.2752 1.08567 11.3452 1.04484L11.4724 0.998171L11.6707 0.916504H12.1619C12.6006 0.962004 12.9867 1.2245 13.1886 1.6165L15.7774 6.8315C15.9641 7.213 16.3269 7.47784 16.7457 7.542L22.5441 8.38317C23.0341 8.45317 23.4436 8.7915 23.6057 9.25817C23.7586 9.726 23.6267 10.2393 23.2674 10.5765L18.9041 14.7065Z" fill="white"/>
<path d="M18.9041 14.7065C18.6019 14.9993 18.4631 15.4228 18.5319 15.8382L19.5691 21.5782C19.6566 22.0647 19.4512 22.557 19.0441 22.8382C18.6451 23.1298 18.1142 23.1648 17.6791 22.9315L12.5119 20.2365C12.3322 20.1408 12.1327 20.0895 11.9286 20.0837H11.6124C11.5027 20.1 11.3954 20.135 11.2974 20.1887L6.12905 22.8965C5.87355 23.0248 5.58422 23.0703 5.30072 23.0248C4.61005 22.8942 4.14922 22.2362 4.26239 21.542L5.30072 15.802C5.36955 15.3832 5.23072 14.9573 4.92855 14.6598L0.71572 10.5765C0.363386 10.2347 0.240886 9.72134 0.401886 9.25817C0.55822 8.79617 0.95722 8.459 1.43905 8.38317L7.23739 7.542C7.67839 7.4965 8.06572 7.22817 8.26405 6.8315L10.8191 1.59317C10.8797 1.4765 10.9579 1.36917 11.0524 1.27817L11.1574 1.1965C11.2122 1.13584 11.2752 1.08567 11.3452 1.04484L11.4724 0.998171L11.6707 0.916504H12.1619C12.6006 0.962004 12.9867 1.2245 13.1886 1.6165L15.7774 6.8315C15.9641 7.213 16.3269 7.47784 16.7457 7.542L22.5441 8.38317C23.0341 8.45317 23.4436 8.7915 23.6057 9.25817C23.7586 9.726 23.6267 10.2393 23.2674 10.5765L18.9041 14.7065Z" fill="url(#paint0_linear)"/>
<defs>
<linearGradient id="paint0_linear" x1="5.69171" y1="0.26699" x2="56.4881" y2="33.336" gradientUnits="userSpaceOnUse">
<stop stop-color="#FE173F"/>
<stop offset="1" stop-color="#240B36"/>
</linearGradient>
</defs>
</svg>
