<svg width="22" height="20" viewBox="0 0 22 20" fill="none" xmlns="http://www.w3.org/2000/svg">
<path d="M21.9989 9.83415C21.9989 9.83265 21.9989 9.83114 21.9989 9.82963H21.9981C21.9797 9.2615 21.8922 8.72423 21.7497 8.31197C21.5055 7.6049 21.1378 7.38126 20.8325 7.3342L18.992 6.67118L18.3844 5.78152C18.3809 5.77625 18.3767 5.7706 18.3725 5.7642L17.8635 4.79208L18.1589 2.88473C18.2647 2.59747 18.2418 2.1739 17.7331 1.62422C17.4351 1.30193 16.9982 0.966473 16.4995 0.676192L16.4999 0.675439C16.4991 0.675063 16.4988 0.674686 16.498 0.67431L16.4067 0.623106L16.4063 0.623859C15.6821 0.230041 14.9781 0.00527098 14.4695 0.00527098C14.0231 0.00527098 13.772 0.17846 13.6364 0.335837L12.115 1.56021L11.181 1.61292C11.1179 1.61631 11.0636 1.6197 11.0151 1.62309L9.89841 1.55833L8.37931 0.331696C8.24326 0.173943 7.9918 0 7.54391 0C7.03525 0 6.33245 0.22364 5.60939 0.615199L5.60901 0.614446L5.6071 0.615576C5.60596 0.616329 5.60443 0.617082 5.60328 0.617835L5.51959 0.664897C5.51806 0.66565 5.51691 0.666403 5.51538 0.667156L5.51576 0.667909C5.01666 0.957437 4.57908 1.29252 4.28023 1.61405C3.77081 2.16299 3.74749 2.58655 3.85297 2.87382L4.14533 4.78191L3.63476 5.7529C3.54762 5.88016 3.19756 6.39069 3.01374 6.65914L1.1721 7.31952C0.867129 7.36658 0.499105 7.58909 0.253756 8.29502C0.110445 8.70691 0.0217833 9.24418 0.00267514 9.81269H0.00191082V9.81307C0.00191082 9.81345 0.00191082 9.81382 0.00191082 9.81457L0 9.91886H0.000764327C-0.00114649 10.4885 0.0680251 11.0292 0.196432 11.4463C0.415794 12.1594 0.773881 12.3959 1.07923 12.4527L2.89412 13.1778L3.48151 14.1059C3.54801 14.2441 3.81552 14.8013 3.95616 15.0942L3.59386 16.9906C3.47769 17.2741 3.48571 17.6985 3.97488 18.2647C4.2615 18.5968 4.68647 18.9473 5.17449 19.2542L5.17411 19.2549L5.26392 19.3095C5.26468 19.3099 5.26507 19.3103 5.26583 19.3106L5.26621 19.3099C6.00646 19.7455 6.72302 19.9947 7.23779 19.9947C7.64824 19.9947 7.889 19.837 8.0239 19.692L9.58733 18.52L10.7208 18.4948L12.4016 18.5234L13.9612 19.6962C14.0957 19.8419 14.3372 20 14.7492 20C15.264 20 15.9802 19.7519 16.7193 19.3182L16.7196 19.3189L16.8114 19.2636L16.811 19.2628C17.2994 18.9567 17.7247 18.6073 18.0117 18.2756C18.5021 17.7094 18.5108 17.2851 18.3951 17.0012L18.0358 15.1044L18.5028 14.1357C18.5055 14.13 18.5086 14.1236 18.5116 14.1168L19.1009 13.1895L20.917 12.467C21.2219 12.4102 21.5804 12.1748 21.8009 11.4629C21.9301 11.0453 22.0004 10.5036 21.9992 9.93279H22L21.9989 9.83415ZM10.8997 14.4715C8.44963 14.4715 6.45627 12.5077 6.45627 10.0939C6.45627 7.6802 8.44963 5.71638 10.8997 5.71638C13.3497 5.71638 15.3431 7.6802 15.3431 10.0939C15.3431 12.5077 13.3497 14.4715 10.8997 14.4715Z" fill="#333333"/>
</svg>
