<svg width="29" height="29" viewBox="0 0 29 29" fill="none" xmlns="http://www.w3.org/2000/svg">
<path d="M14.5358 23.0664C17.3468 23.0664 19.6334 20.7798 19.6334 17.9687C19.6334 15.1577 17.3468 12.8711 14.5358 12.8711C11.7247 12.8711 9.43811 15.1577 9.43811 17.9687C9.43811 20.7798 11.7247 23.0664 14.5358 23.0664ZM11.3862 17.3681C11.7181 17.0362 12.2558 17.0362 12.5876 17.3681L13.6862 18.4666L16.4839 15.6689C16.8158 15.337 17.3535 15.337 17.6853 15.6689C18.0172 16.0007 18.0172 16.5384 17.6853 16.8703L14.2869 20.2687C14.1209 20.4347 13.9035 20.5176 13.6862 20.5176C13.4689 20.5176 13.2514 20.4347 13.0855 20.2687L11.3863 18.5695C11.0544 18.2376 11.0544 17.6999 11.3862 17.3681Z" fill="#868686"/>
<path d="M4.30469 1.69922C3.83508 1.69922 3.45508 2.07922 3.45508 2.54883V28.1504C3.45508 28.62 3.83508 29 4.30469 29H24.6953C25.1649 29 25.5449 28.62 25.5449 28.1504V2.54883C25.5449 2.07922 25.1649 1.69922 24.6953 1.69922H20.4473V5.94727C20.4473 6.41648 20.0669 6.79688 19.5977 6.79688H9.40234C8.93313 6.79688 8.55273 6.41648 8.55273 5.94727V1.69922H4.30469ZM14.5357 11.1154C18.2834 11.1154 21.3326 14.2212 21.3326 17.969C21.3326 21.7167 18.2834 24.7658 14.5357 24.7658C10.7879 24.7658 7.73881 21.7167 7.73881 17.969C7.73881 14.2212 10.7879 11.1154 14.5357 11.1154Z" fill="#868686"/>
<path d="M16.9037 1.69922C16.5527 0.710217 15.6077 0 14.5 0C13.3923 0 12.4473 0.710217 12.0963 1.69922H10.252V5.09766H18.748V1.69922H16.9037Z" fill="#868686"/>
</svg>
