<svg width="20" height="24" viewBox="0 0 20 24" fill="none" xmlns="http://www.w3.org/2000/svg">
<path fill-rule="evenodd" clip-rule="evenodd" d="M0.0820312 10.0375C0.0820312 4.67104 4.56656 0.333496 9.99105 0.333496C15.4308 0.333496 19.9154 4.67104 19.9154 10.0375C19.9154 12.7418 18.9319 15.2524 17.3131 17.3803C15.5273 19.7276 13.3262 21.7727 10.8487 23.378C10.2816 23.749 9.76989 23.777 9.14756 23.378C6.65589 21.7727 4.4548 19.7276 2.68428 17.3803C1.06435 15.2524 0.0820312 12.7418 0.0820312 10.0375ZM6.72548 10.3398C6.72548 12.1376 8.19248 13.5515 9.99123 13.5515C11.7912 13.5515 13.2723 12.1376 13.2723 10.3398C13.2723 8.55601 11.7912 7.07322 9.99123 7.07322C8.19248 7.07322 6.72548 8.55601 6.72548 10.3398Z" fill="white"/>
<path fill-rule="evenodd" clip-rule="evenodd" d="M0.0820312 10.0375C0.0820312 4.67104 4.56656 0.333496 9.99105 0.333496C15.4308 0.333496 19.9154 4.67104 19.9154 10.0375C19.9154 12.7418 18.9319 15.2524 17.3131 17.3803C15.5273 19.7276 13.3262 21.7727 10.8487 23.378C10.2816 23.749 9.76989 23.777 9.14756 23.378C6.65589 21.7727 4.4548 19.7276 2.68428 17.3803C1.06435 15.2524 0.0820312 12.7418 0.0820312 10.0375ZM6.72548 10.3398C6.72548 12.1376 8.19248 13.5515 9.99123 13.5515C11.7912 13.5515 13.2723 12.1376 13.2723 10.3398C13.2723 8.55601 11.7912 7.07322 9.99123 7.07322C8.19248 7.07322 6.72548 8.55601 6.72548 10.3398Z" fill="url(#paint0_linear)"/>
<defs>
<linearGradient id="paint0_linear" x1="4.63716" y1="-0.350157" x2="52.7976" y2="24.9658" gradientUnits="userSpaceOnUse">
<stop stop-color="#FE173F"/>
<stop offset="1" stop-color="#240B36"/>
</linearGradient>
</defs>
</svg>
