<svg width="30" height="30" viewBox="0 0 30 30" fill="none" xmlns="http://www.w3.org/2000/svg">
<path fill-rule="evenodd" clip-rule="evenodd" d="M14.1368 0.31184C12.3023 0.54254 10.658 1.31564 9.37161 2.54444C8.17161 3.68684 7.39281 5.04824 7.00041 6.65774C6.93663 6.92799 6.89993 7.09572 6.87585 7.40204H8.51751L8.67892 6.82514C8.97892 5.72894 9.50391 4.80584 10.277 3.99824C11.0732 3.17324 11.8751 2.64824 12.8963 2.30204C13.9001 1.95614 15.0596 1.86374 16.0751 2.03684C17.5175 2.29064 18.6884 2.91944 19.727 3.99824C20.4251 4.72514 20.8634 5.45204 21.1865 6.39254C21.4865 7.28084 21.521 7.65014 21.521 9.97514V12.1039H14.996H8.47701L6.78141 12.1327L6.49281 12.1732C5.45451 12.3232 4.41591 13.0789 3.94851 14.0365C3.93248 14.0696 3.91714 14.1007 3.90246 14.1305C3.86066 14.2153 3.82426 14.2892 3.79255 14.3651C3.57853 14.8771 3.5786 15.4785 3.57915 20.1399C3.57918 20.3879 3.57921 20.6475 3.57921 20.9191C3.57921 21.1852 3.57918 21.4396 3.57916 21.683C3.57861 26.3583 3.57854 26.9666 3.79934 27.4798C3.83237 27.5566 3.87033 27.6312 3.91397 27.717C3.93037 27.7492 3.94757 27.783 3.96561 27.8191C4.22511 28.3324 4.89441 29.0191 5.40801 29.2843C5.60421 29.3881 5.96181 29.521 6.20991 29.5843C6.64251 29.6938 6.87921 29.6998 14.9675 29.6998C15.3541 29.6998 15.7237 29.6999 16.077 29.6999C23.0273 29.7005 23.6868 29.7005 24.2382 29.4565C24.296 29.4309 24.3527 29.4027 24.4152 29.3715C24.4485 29.3549 24.4834 29.3374 24.521 29.3191C25.1036 29.0308 25.7498 28.3903 26.0441 27.8134C26.0588 27.7838 26.0729 27.7557 26.0865 27.7287C26.1297 27.6428 26.1674 27.5678 26.2003 27.4907C26.4251 26.9638 26.4251 26.3409 26.4248 21.4573C26.4248 21.2835 26.4248 21.1042 26.4248 20.9194C26.4248 16.9906 26.4074 15.0694 26.3612 14.8618C26.2631 14.383 25.8938 13.6735 25.5362 13.2754C25.0169 12.7042 24.2267 12.2773 23.5112 12.1735L23.2229 12.133L23.1884 9.76784C23.1536 7.20044 23.1308 6.97574 22.7903 5.92574C22.1327 3.92384 20.6789 2.21054 18.7982 1.22984C17.5868 0.60104 16.5656 0.335539 15.2042 0.30674C14.7308 0.294741 14.2463 0.30044 14.1368 0.31184ZM24.3134 14.4172C24.1631 14.2498 23.9153 14.0596 23.7248 13.9672L23.396 13.8058L15.1175 13.7935C8.70231 13.7878 6.78111 13.7995 6.57921 13.8571C6.22131 13.9495 5.93301 14.1343 5.66181 14.4457C5.63968 14.4708 5.61872 14.4936 5.59887 14.5152C5.55933 14.5583 5.52422 14.5966 5.49306 14.6378C5.24619 14.9647 5.24769 15.4791 5.26102 20.0695C5.26189 20.3695 5.26281 20.6868 5.26371 21.0226L5.28111 26.7859L5.41371 27.034C5.58681 27.3571 5.93301 27.6916 6.27921 27.859L6.55041 27.9976H15.002H23.4536L23.7248 27.859C24.0767 27.6859 24.4172 27.3457 24.5903 26.9995L24.7229 26.7283L24.7403 20.9938C24.7412 20.6759 24.742 20.3747 24.7429 20.0891C24.7561 15.4933 24.7577 14.9609 24.5012 14.6263C24.4676 14.5824 24.4295 14.542 24.3865 14.4962C24.3636 14.4718 24.3393 14.446 24.3134 14.4172Z" fill="#C4C4C4"/>
<path d="M14.3831 17.7053C14.0255 17.8439 13.6448 18.2072 13.4774 18.5648C13.391 18.7553 13.3562 18.9341 13.3619 19.2572C13.3619 19.7936 13.5407 20.1803 13.9331 20.5034L14.1926 20.7227V22.1993C14.1926 23.555 14.204 23.6819 14.3081 23.855C14.6024 24.3455 15.3986 24.3455 15.6926 23.855C15.7964 23.6819 15.8081 23.555 15.8081 22.1993V20.7224L16.0562 20.5205C16.1888 20.405 16.3736 20.1743 16.4717 20.0012C16.6967 19.586 16.7141 18.9686 16.5122 18.5588C16.1198 17.7572 15.2081 17.3879 14.3831 17.7053Z" fill="white"/>
</svg>
