<svg width="20" height="20" viewBox="0 0 20 20" fill="none" xmlns="http://www.w3.org/2000/svg">
<g clip-path="url(#clip0)">
<path d="M10.0013 0C7.14418 0 4.80859 2.33559 4.80859 5.19275C4.80859 8.04991 7.14418 10.3855 10.0013 10.3855C12.8585 10.3855 15.1941 8.04991 15.1941 5.19275C15.1941 2.33559 12.8585 0 10.0013 0Z" fill="black"/>
<path d="M10.0013 0C7.14418 0 4.80859 2.33559 4.80859 5.19275C4.80859 8.04991 7.14418 10.3855 10.0013 10.3855C12.8585 10.3855 15.1941 8.04991 15.1941 5.19275C15.1941 2.33559 12.8585 0 10.0013 0Z" fill="url(#paint0_linear)"/>
<path d="M10.0013 0C7.14418 0 4.80859 2.33559 4.80859 5.19275C4.80859 8.04991 7.14418 10.3855 10.0013 10.3855C12.8585 10.3855 15.1941 8.04991 15.1941 5.19275C15.1941 2.33559 12.8585 0 10.0013 0Z" fill="url(#paint1_linear)"/>
<path d="M10.0013 0C7.14418 0 4.80859 2.33559 4.80859 5.19275C4.80859 8.04991 7.14418 10.3855 10.0013 10.3855C12.8585 10.3855 15.1941 8.04991 15.1941 5.19275C15.1941 2.33559 12.8585 0 10.0013 0Z" fill="url(#paint2_linear)"/>
<path d="M10.0013 0C7.14418 0 4.80859 2.33559 4.80859 5.19275C4.80859 8.04991 7.14418 10.3855 10.0013 10.3855C12.8585 10.3855 15.1941 8.04991 15.1941 5.19275C15.1941 2.33559 12.8585 0 10.0013 0Z" fill="url(#paint3_linear)"/>
<path d="M18.9132 14.5354C18.7772 14.1953 18.5958 13.8778 18.3917 13.5831C17.3486 12.0411 15.7387 11.0207 13.9246 10.7713C13.6979 10.7486 13.4484 10.7939 13.267 10.93C12.3146 11.6329 11.1809 11.9957 10.0017 11.9957C8.82252 11.9957 7.68875 11.6329 6.73637 10.93C6.55494 10.7939 6.30551 10.7259 6.07877 10.7713C4.26471 11.0207 2.63207 12.0411 1.61167 13.5831C1.40759 13.8778 1.22617 14.218 1.09014 14.5354C1.02213 14.6715 1.04479 14.8302 1.1128 14.9663C1.29422 15.2837 1.52096 15.6012 1.72504 15.8733C2.04249 16.3042 2.38263 16.6896 2.76814 17.0524C3.08559 17.3699 3.44839 17.6647 3.81124 17.9595C5.6026 19.2974 7.75681 20.0003 9.97903 20.0003C12.2013 20.0003 14.3555 19.2973 16.1468 17.9595C16.5096 17.6874 16.8724 17.3699 17.1899 17.0524C17.5527 16.6896 17.9155 16.3041 18.233 15.8733C18.4598 15.5785 18.6639 15.2837 18.8453 14.9663C18.9586 14.8302 18.9812 14.6715 18.9132 14.5354Z" fill="black"/>
<path d="M18.9132 14.5354C18.7772 14.1953 18.5958 13.8778 18.3917 13.5831C17.3486 12.0411 15.7387 11.0207 13.9246 10.7713C13.6979 10.7486 13.4484 10.7939 13.267 10.93C12.3146 11.6329 11.1809 11.9957 10.0017 11.9957C8.82252 11.9957 7.68875 11.6329 6.73637 10.93C6.55494 10.7939 6.30551 10.7259 6.07877 10.7713C4.26471 11.0207 2.63207 12.0411 1.61167 13.5831C1.40759 13.8778 1.22617 14.218 1.09014 14.5354C1.02213 14.6715 1.04479 14.8302 1.1128 14.9663C1.29422 15.2837 1.52096 15.6012 1.72504 15.8733C2.04249 16.3042 2.38263 16.6896 2.76814 17.0524C3.08559 17.3699 3.44839 17.6647 3.81124 17.9595C5.6026 19.2974 7.75681 20.0003 9.97903 20.0003C12.2013 20.0003 14.3555 19.2973 16.1468 17.9595C16.5096 17.6874 16.8724 17.3699 17.1899 17.0524C17.5527 16.6896 17.9155 16.3041 18.233 15.8733C18.4598 15.5785 18.6639 15.2837 18.8453 14.9663C18.9586 14.8302 18.9812 14.6715 18.9132 14.5354Z" fill="url(#paint4_linear)"/>
<path d="M18.9132 14.5354C18.7772 14.1953 18.5958 13.8778 18.3917 13.5831C17.3486 12.0411 15.7387 11.0207 13.9246 10.7713C13.6979 10.7486 13.4484 10.7939 13.267 10.93C12.3146 11.6329 11.1809 11.9957 10.0017 11.9957C8.82252 11.9957 7.68875 11.6329 6.73637 10.93C6.55494 10.7939 6.30551 10.7259 6.07877 10.7713C4.26471 11.0207 2.63207 12.0411 1.61167 13.5831C1.40759 13.8778 1.22617 14.218 1.09014 14.5354C1.02213 14.6715 1.04479 14.8302 1.1128 14.9663C1.29422 15.2837 1.52096 15.6012 1.72504 15.8733C2.04249 16.3042 2.38263 16.6896 2.76814 17.0524C3.08559 17.3699 3.44839 17.6647 3.81124 17.9595C5.6026 19.2974 7.75681 20.0003 9.97903 20.0003C12.2013 20.0003 14.3555 19.2973 16.1468 17.9595C16.5096 17.6874 16.8724 17.3699 17.1899 17.0524C17.5527 16.6896 17.9155 16.3041 18.233 15.8733C18.4598 15.5785 18.6639 15.2837 18.8453 14.9663C18.9586 14.8302 18.9812 14.6715 18.9132 14.5354Z" fill="url(#paint5_linear)"/>
<path d="M18.9132 14.5354C18.7772 14.1953 18.5958 13.8778 18.3917 13.5831C17.3486 12.0411 15.7387 11.0207 13.9246 10.7713C13.6979 10.7486 13.4484 10.7939 13.267 10.93C12.3146 11.6329 11.1809 11.9957 10.0017 11.9957C8.82252 11.9957 7.68875 11.6329 6.73637 10.93C6.55494 10.7939 6.30551 10.7259 6.07877 10.7713C4.26471 11.0207 2.63207 12.0411 1.61167 13.5831C1.40759 13.8778 1.22617 14.218 1.09014 14.5354C1.02213 14.6715 1.04479 14.8302 1.1128 14.9663C1.29422 15.2837 1.52096 15.6012 1.72504 15.8733C2.04249 16.3042 2.38263 16.6896 2.76814 17.0524C3.08559 17.3699 3.44839 17.6647 3.81124 17.9595C5.6026 19.2974 7.75681 20.0003 9.97903 20.0003C12.2013 20.0003 14.3555 19.2973 16.1468 17.9595C16.5096 17.6874 16.8724 17.3699 17.1899 17.0524C17.5527 16.6896 17.9155 16.3041 18.233 15.8733C18.4598 15.5785 18.6639 15.2837 18.8453 14.9663C18.9586 14.8302 18.9812 14.6715 18.9132 14.5354Z" fill="url(#paint6_linear)"/>
<path d="M18.9132 14.5354C18.7772 14.1953 18.5958 13.8778 18.3917 13.5831C17.3486 12.0411 15.7387 11.0207 13.9246 10.7713C13.6979 10.7486 13.4484 10.7939 13.267 10.93C12.3146 11.6329 11.1809 11.9957 10.0017 11.9957C8.82252 11.9957 7.68875 11.6329 6.73637 10.93C6.55494 10.7939 6.30551 10.7259 6.07877 10.7713C4.26471 11.0207 2.63207 12.0411 1.61167 13.5831C1.40759 13.8778 1.22617 14.218 1.09014 14.5354C1.02213 14.6715 1.04479 14.8302 1.1128 14.9663C1.29422 15.2837 1.52096 15.6012 1.72504 15.8733C2.04249 16.3042 2.38263 16.6896 2.76814 17.0524C3.08559 17.3699 3.44839 17.6647 3.81124 17.9595C5.6026 19.2974 7.75681 20.0003 9.97903 20.0003C12.2013 20.0003 14.3555 19.2973 16.1468 17.9595C16.5096 17.6874 16.8724 17.3699 17.1899 17.0524C17.5527 16.6896 17.9155 16.3041 18.233 15.8733C18.4598 15.5785 18.6639 15.2837 18.8453 14.9663C18.9586 14.8302 18.9812 14.6715 18.9132 14.5354Z" fill="url(#paint7_linear)"/>
</g>
<defs>
<linearGradient id="paint0_linear" x1="6.67966" y1="10.3855" x2="11.0534" y2="-1.52103" gradientUnits="userSpaceOnUse">
<stop stop-color="#EC266A"/>
<stop offset="1" stop-color="#F76BC5"/>
</linearGradient>
<linearGradient id="paint1_linear" x1="5.35045" y1="-2.90794" x2="20.8379" y2="7.05965" gradientUnits="userSpaceOnUse">
<stop stop-color="#C31432"/>
<stop offset="1" stop-color="#240B36"/>
</linearGradient>
<linearGradient id="paint2_linear" x1="8.0853" y1="5.19275" x2="26.2084" y2="8.30939" gradientUnits="userSpaceOnUse">
<stop offset="0.539793" stop-color="#FE173F"/>
<stop offset="1" stop-color="#240B36"/>
</linearGradient>
<linearGradient id="paint3_linear" x1="28.8964" y1="-9.73641" x2="2.36199" y2="-3.99098" gradientUnits="userSpaceOnUse">
<stop stop-color="#2B16F7"/>
<stop offset="1" stop-color="#23FFFF"/>
</linearGradient>
<linearGradient id="paint4_linear" x1="4.27441" y1="20.0003" x2="6.47615" y2="8.39122" gradientUnits="userSpaceOnUse">
<stop stop-color="#EC266A"/>
<stop offset="1" stop-color="#F76BC5"/>
</linearGradient>
<linearGradient id="paint5_linear" x1="1.98311" y1="8.16922" x2="16.7666" y2="26.5976" gradientUnits="userSpaceOnUse">
<stop stop-color="#C31432"/>
<stop offset="1" stop-color="#240B36"/>
</linearGradient>
<linearGradient id="paint6_linear" x1="6.69743" y1="15.3788" x2="35.6497" y2="25.0223" gradientUnits="userSpaceOnUse">
<stop offset="0.539793" stop-color="#FE173F"/>
<stop offset="1" stop-color="#240B36"/>
</linearGradient>
<linearGradient id="paint7_linear" x1="42.5714" y1="2.09195" x2="1.84947" y2="19.1701" gradientUnits="userSpaceOnUse">
<stop stop-color="#2B16F7"/>
<stop offset="1" stop-color="#23FFFF"/>
</linearGradient>
<clipPath id="clip0">
<rect width="20" height="20" fill="white"/>
</clipPath>
</defs>
</svg>
