<svg width="20" height="20" viewBox="0 0 20 20" fill="none" xmlns="http://www.w3.org/2000/svg">
<g clip-path="url(#clip0)">
<path d="M10.0013 0C7.14418 0 4.80859 2.33559 4.80859 5.19275C4.80859 8.04991 7.14418 10.3855 10.0013 10.3855C12.8585 10.3855 15.1941 8.04991 15.1941 5.19275C15.1941 2.33559 12.8585 0 10.0013 0Z" fill="black"/>
<path d="M10.0013 0C7.14418 0 4.80859 2.33559 4.80859 5.19275C4.80859 8.04991 7.14418 10.3855 10.0013 10.3855C12.8585 10.3855 15.1941 8.04991 15.1941 5.19275C15.1941 2.33559 12.8585 0 10.0013 0Z" fill="url(#paint0_linear)"/>
<path d="M10.0013 0C7.14418 0 4.80859 2.33559 4.80859 5.19275C4.80859 8.04991 7.14418 10.3855 10.0013 10.3855C12.8585 10.3855 15.1941 8.04991 15.1941 5.19275C15.1941 2.33559 12.8585 0 10.0013 0Z" fill="url(#paint1_linear)"/>
<path d="M10.0013 0C7.14418 0 4.80859 2.33559 4.80859 5.19275C4.80859 8.04991 7.14418 10.3855 10.0013 10.3855C12.8585 10.3855 15.1941 8.04991 15.1941 5.19275C15.1941 2.33559 12.8585 0 10.0013 0Z" fill="url(#paint2_linear)"/>
<path d="M18.9149 14.5354C18.7789 14.1952 18.5975 13.8778 18.3934 13.583C17.3503 12.041 15.7404 11.0206 13.9263 10.7712C13.6996 10.7485 13.4501 10.7939 13.2687 10.9299C12.3163 11.6329 11.1826 11.9957 10.0034 11.9957C8.82423 11.9957 7.69046 11.6329 6.73808 10.9299C6.55665 10.7939 6.30722 10.7258 6.08048 10.7712C4.26642 11.0206 2.63378 12.041 1.61338 13.583C1.4093 13.8778 1.22788 14.2179 1.09185 14.5354C1.02384 14.6714 1.0465 14.8302 1.11451 14.9662C1.29593 15.2837 1.52267 15.6012 1.72675 15.8733C2.0442 16.3041 2.38434 16.6896 2.76985 17.0524C3.08729 17.3698 3.4501 17.6646 3.81295 17.9594C5.60431 19.2973 7.75852 20.0002 9.98074 20.0002C12.203 20.0002 14.3572 19.2973 16.1485 17.9594C16.5113 17.6873 16.8741 17.3698 17.1916 17.0524C17.5544 16.6896 17.9172 16.3041 18.2347 15.8733C18.4615 15.5785 18.6656 15.2837 18.847 14.9662C18.9603 14.8302 18.983 14.6714 18.9149 14.5354Z" fill="black"/>
<path d="M18.9149 14.5354C18.7789 14.1952 18.5975 13.8778 18.3934 13.583C17.3503 12.041 15.7404 11.0206 13.9263 10.7712C13.6996 10.7485 13.4501 10.7939 13.2687 10.9299C12.3163 11.6329 11.1826 11.9957 10.0034 11.9957C8.82423 11.9957 7.69046 11.6329 6.73808 10.9299C6.55665 10.7939 6.30722 10.7258 6.08048 10.7712C4.26642 11.0206 2.63378 12.041 1.61338 13.583C1.4093 13.8778 1.22788 14.2179 1.09185 14.5354C1.02384 14.6714 1.0465 14.8302 1.11451 14.9662C1.29593 15.2837 1.52267 15.6012 1.72675 15.8733C2.0442 16.3041 2.38434 16.6896 2.76985 17.0524C3.08729 17.3698 3.4501 17.6646 3.81295 17.9594C5.60431 19.2973 7.75852 20.0002 9.98074 20.0002C12.203 20.0002 14.3572 19.2973 16.1485 17.9594C16.5113 17.6873 16.8741 17.3698 17.1916 17.0524C17.5544 16.6896 17.9172 16.3041 18.2347 15.8733C18.4615 15.5785 18.6656 15.2837 18.847 14.9662C18.9603 14.8302 18.983 14.6714 18.9149 14.5354Z" fill="url(#paint3_linear)"/>
<path d="M18.9149 14.5354C18.7789 14.1952 18.5975 13.8778 18.3934 13.583C17.3503 12.041 15.7404 11.0206 13.9263 10.7712C13.6996 10.7485 13.4501 10.7939 13.2687 10.9299C12.3163 11.6329 11.1826 11.9957 10.0034 11.9957C8.82423 11.9957 7.69046 11.6329 6.73808 10.9299C6.55665 10.7939 6.30722 10.7258 6.08048 10.7712C4.26642 11.0206 2.63378 12.041 1.61338 13.583C1.4093 13.8778 1.22788 14.2179 1.09185 14.5354C1.02384 14.6714 1.0465 14.8302 1.11451 14.9662C1.29593 15.2837 1.52267 15.6012 1.72675 15.8733C2.0442 16.3041 2.38434 16.6896 2.76985 17.0524C3.08729 17.3698 3.4501 17.6646 3.81295 17.9594C5.60431 19.2973 7.75852 20.0002 9.98074 20.0002C12.203 20.0002 14.3572 19.2973 16.1485 17.9594C16.5113 17.6873 16.8741 17.3698 17.1916 17.0524C17.5544 16.6896 17.9172 16.3041 18.2347 15.8733C18.4615 15.5785 18.6656 15.2837 18.847 14.9662C18.9603 14.8302 18.983 14.6714 18.9149 14.5354Z" fill="url(#paint4_linear)"/>
<path d="M18.9149 14.5354C18.7789 14.1952 18.5975 13.8778 18.3934 13.583C17.3503 12.041 15.7404 11.0206 13.9263 10.7712C13.6996 10.7485 13.4501 10.7939 13.2687 10.9299C12.3163 11.6329 11.1826 11.9957 10.0034 11.9957C8.82423 11.9957 7.69046 11.6329 6.73808 10.9299C6.55665 10.7939 6.30722 10.7258 6.08048 10.7712C4.26642 11.0206 2.63378 12.041 1.61338 13.583C1.4093 13.8778 1.22788 14.2179 1.09185 14.5354C1.02384 14.6714 1.0465 14.8302 1.11451 14.9662C1.29593 15.2837 1.52267 15.6012 1.72675 15.8733C2.0442 16.3041 2.38434 16.6896 2.76985 17.0524C3.08729 17.3698 3.4501 17.6646 3.81295 17.9594C5.60431 19.2973 7.75852 20.0002 9.98074 20.0002C12.203 20.0002 14.3572 19.2973 16.1485 17.9594C16.5113 17.6873 16.8741 17.3698 17.1916 17.0524C17.5544 16.6896 17.9172 16.3041 18.2347 15.8733C18.4615 15.5785 18.6656 15.2837 18.847 14.9662C18.9603 14.8302 18.983 14.6714 18.9149 14.5354Z" fill="url(#paint5_linear)"/>
</g>
<defs>
<linearGradient id="paint0_linear" x1="6.67966" y1="10.3855" x2="11.0534" y2="-1.52103" gradientUnits="userSpaceOnUse">
<stop stop-color="#EC266A"/>
<stop offset="1" stop-color="#F76BC5"/>
</linearGradient>
<linearGradient id="paint1_linear" x1="5.35045" y1="-2.90794" x2="20.8379" y2="7.05965" gradientUnits="userSpaceOnUse">
<stop stop-color="#C31432"/>
<stop offset="1" stop-color="#240B36"/>
</linearGradient>
<linearGradient id="paint2_linear" x1="8.0853" y1="5.19275" x2="26.2084" y2="8.30939" gradientUnits="userSpaceOnUse">
<stop offset="0.539793" stop-color="#FE173F"/>
<stop offset="1" stop-color="#240B36"/>
</linearGradient>
<linearGradient id="paint3_linear" x1="4.27612" y1="20.0002" x2="6.47786" y2="8.39116" gradientUnits="userSpaceOnUse">
<stop stop-color="#EC266A"/>
<stop offset="1" stop-color="#F76BC5"/>
</linearGradient>
<linearGradient id="paint4_linear" x1="1.98482" y1="8.16916" x2="16.7683" y2="26.5975" gradientUnits="userSpaceOnUse">
<stop stop-color="#C31432"/>
<stop offset="1" stop-color="#240B36"/>
</linearGradient>
<linearGradient id="paint5_linear" x1="6.69914" y1="15.3787" x2="35.6514" y2="25.0222" gradientUnits="userSpaceOnUse">
<stop offset="0.539793" stop-color="#FE173F"/>
<stop offset="1" stop-color="#240B36"/>
</linearGradient>
<clipPath id="clip0">
<rect width="20" height="20" fill="white"/>
</clipPath>
</defs>
</svg>
