<svg width="24" height="22" viewBox="0 0 24 22" fill="none" xmlns="http://www.w3.org/2000/svg">
<path fill-rule="evenodd" clip-rule="evenodd" d="M18.7291 6.77877H23.6654C23.6654 2.81536 21.2906 0.5 17.2668 0.5H6.73055C2.70685 0.5 0.332031 2.81536 0.332031 6.72821V15.2718C0.332031 19.1846 2.70685 21.5 6.73055 21.5H17.2668C21.2906 21.5 23.6654 19.1846 23.6654 15.2718V14.9078H18.7291C16.4381 14.9078 14.5809 13.0971 14.5809 10.8635C14.5809 8.6299 16.4381 6.81921 18.7291 6.81921V6.77877ZM18.7288 8.51792H22.794C23.2751 8.51792 23.6651 8.89816 23.6651 9.36722V12.3196C23.6595 12.7863 23.2727 13.1634 22.794 13.1689H18.8221C17.6623 13.1841 16.6481 12.4099 16.3851 11.3085C16.2533 10.6248 16.4383 9.91926 16.8903 9.38103C17.3424 8.84278 18.0153 8.52686 18.7288 8.51792ZM18.9048 11.6219H19.2885C19.7811 11.6219 20.1804 11.2326 20.1804 10.7524C20.1804 10.2722 19.7811 9.88287 19.2885 9.88287H18.9048C18.6693 9.88017 18.4424 9.96952 18.2748 10.131C18.1073 10.2924 18.013 10.5126 18.013 10.7423C18.0129 11.2242 18.4106 11.6164 18.9048 11.6219ZM5.85933 6.77867H12.4445C12.9371 6.77867 13.3364 6.38937 13.3364 5.90915C13.3364 5.42893 12.9371 5.03963 12.4445 5.03963H5.85933C5.37079 5.03959 4.97315 5.42277 4.96747 5.89904C4.96744 6.38093 5.3651 6.77313 5.85933 6.77867Z" fill="white"/>
</svg>
