<svg width="30" height="30" viewBox="0 0 30 30" fill="none" xmlns="http://www.w3.org/2000/svg">
<g clip-path="url(#clip0)">
<path d="M20.0287 17.7414L15.0435 8.26953L10.0583 17.7414L2.08203 9.26662L6.95996 25.3638C7.02365 25.574 7.21742 25.7178 7.43703 25.7178H22.65C22.8696 25.7178 23.0634 25.5741 23.1271 25.3638L28.005 9.26662L20.0287 17.7414Z" fill="#FFE17D"/>
<path d="M10.0583 17.7424L2.08203 9.26758L6.95996 25.3648C7.02365 25.575 7.21742 25.7188 7.43709 25.7188H11.3178L10.0583 17.7424Z" fill="#FFD164"/>
<path d="M6.46484 23.7246L6.96184 25.3647C7.02553 25.5749 7.2193 25.7187 7.43896 25.7187H22.6519C22.8716 25.7187 23.0653 25.5749 23.129 25.3647L23.626 23.7246H6.46484Z" fill="#FFD164"/>
<path d="M6.46484 23.7246L6.96184 25.3647C7.02553 25.5749 7.2193 25.7187 7.43897 25.7187H11.3197L11.0048 23.7246H6.46484Z" fill="#FFC350"/>
<path d="M15.0432 6.77383C15.7315 6.77383 16.2895 6.21584 16.2895 5.52754C16.2895 4.83923 15.7315 4.28125 15.0432 4.28125C14.3549 4.28125 13.7969 4.83923 13.7969 5.52754C13.7969 6.21584 14.3549 6.77383 15.0432 6.77383Z" fill="#FFE17D"/>
<path d="M15.6663 6.15104C14.978 6.15104 14.42 5.59305 14.42 4.90475C14.42 4.72199 14.4603 4.54896 14.531 4.39258C14.0984 4.58805 13.7969 5.02234 13.7969 5.52789C13.7969 6.21619 14.3549 6.77418 15.0432 6.77418C15.5487 6.77418 15.983 6.4726 16.1785 6.04006C16.0221 6.11072 15.8491 6.15104 15.6663 6.15104Z" fill="#FFD164"/>
<path d="M0.997266 8.26992C1.54804 8.26992 1.99453 7.82343 1.99453 7.27265C1.99453 6.72188 1.54804 6.27539 0.997266 6.27539C0.446491 6.27539 0 6.72188 0 7.27265C0 7.82343 0.446491 8.26992 0.997266 8.26992Z" fill="#FFE17D"/>
<path d="M1.49555 7.77201C0.944883 7.77201 0.498516 7.32565 0.498516 6.77498C0.498516 6.62879 0.530742 6.49033 0.587285 6.36523C0.24123 6.52162 0 6.86902 0 7.2735C0 7.82416 0.446367 8.27053 0.997031 8.27053C1.40145 8.27053 1.74891 8.0293 1.90529 7.68324C1.7802 7.73979 1.64174 7.77201 1.49555 7.77201Z" fill="#FFD164"/>
<path d="M29.0012 8.26992C29.5519 8.26992 29.9984 7.82343 29.9984 7.27265C29.9984 6.72188 29.5519 6.27539 29.0012 6.27539C28.4504 6.27539 28.0039 6.72188 28.0039 7.27265C28.0039 7.82343 28.4504 8.26992 29.0012 8.26992Z" fill="#FFE17D"/>
<path d="M29.5034 7.77201C28.9527 7.77201 28.5063 7.32565 28.5063 6.77498C28.5063 6.62879 28.5386 6.49033 28.5951 6.36523C28.249 6.52162 28.0078 6.86908 28.0078 7.2735C28.0078 7.82416 28.4542 8.27053 29.0048 8.27053C29.4093 8.27053 29.7567 8.0293 29.9131 7.68324C29.788 7.73979 29.6495 7.77201 29.5034 7.77201Z" fill="#FFD164"/>
</g>
<defs>
<clipPath id="clip0">
<rect width="30" height="30" fill="white"/>
</clipPath>
</defs>
</svg>
