<svg width="48" height="80" viewBox="0 0 48 80" fill="none" xmlns="http://www.w3.org/2000/svg">
<path d="M24.0001 80.0001C26.8815 80.0001 29.2174 77.6642 29.2174 74.7828C29.2174 71.9013 26.8815 69.5654 24.0001 69.5654C21.1186 69.5654 18.7827 71.9013 18.7827 74.7828C18.7827 77.6642 21.1186 80.0001 24.0001 80.0001Z" fill="white"/>
<path d="M24.0001 0C11.246 0 0.869629 10.3764 0.869629 23.1305H11.3045C11.3045 16.1302 16.9998 10.4348 24.0001 10.4348C31.0004 10.4348 36.6957 16.1302 36.6957 23.1305C36.6957 26.5216 35.3751 29.7098 32.9773 32.1075C29.8438 35.2408 20.5498 43.845 20.4562 43.9317L18.7826 45.4806V64.348H29.2174V50.037C32.0971 47.3602 37.8901 41.9516 40.3557 39.4863C44.7246 35.1175 47.1306 29.3089 47.1306 23.1306C47.1306 10.3764 36.7543 0 24.0001 0Z" fill="white"/>
</svg>
