<svg width="39" height="18" viewBox="0 0 39 18" fill="none" xmlns="http://www.w3.org/2000/svg">
<path d="M11.4512 16.4996C10.5205 17.3785 9.65749 17.3427 8.72684 17.0564C0.951583 14.6701 -0.587561 8.25502 1.15839 2.07459C1.23396 1.80414 1.34929 1.54165 1.4169 1.26723C1.60383 0.467833 2.03733 0.197389 2.88048 0.368405C14.1795 2.63536 24.7546 6.63634 34.1605 13.4332C35.5286 14.4235 36.7933 15.557 38.0938 16.6388C38.3285 16.8337 38.5075 17.0922 38.7501 17.3626C37.9785 17.999 37.4655 17.5495 36.9206 17.1598C35.115 15.8712 33.3054 14.5866 31.4839 13.3219C31.1737 13.1071 30.7958 12.952 30.426 12.8725C25.7847 11.8424 21.1434 10.8322 16.4981 9.81405C15.9811 9.70269 15.472 9.53963 14.951 9.45213C12.6642 9.08624 11.8489 7.38801 11.2125 5.46309C11.0813 5.06538 10.6876 4.56824 10.3256 4.47279C8.47628 3.9836 6.59511 3.62168 4.72984 3.19613C4.00998 3.03307 3.66397 3.25579 3.41739 3.9836C1.6953 9.03454 3.66397 13.302 8.78252 15.4735C9.60578 15.8274 10.4609 16.1257 11.4512 16.4996Z" fill="white"/>
</svg>
