<svg width="46" height="46" viewBox="0 0 46 46" fill="none" xmlns="http://www.w3.org/2000/svg">
<g filter="url(#filter0_d)">
<circle cx="23" cy="21" r="14" fill="#111111"/>
<circle cx="23" cy="21" r="14" fill="url(#paint0_linear)"/>
<circle cx="23" cy="21" r="14" fill="url(#paint1_radial)"/>
<circle cx="23" cy="21" r="14" stroke="#EB2163" stroke-width="2"/>
<circle cx="23" cy="21" r="14" stroke="url(#paint2_linear)" stroke-width="2"/>
<circle cx="23" cy="21" r="14" stroke="#FFD43B" stroke-width="2"/>
</g>
<g clip-path="url(#clip0)" filter="url(#filter1_i)">
<path d="M23.2081 20.0003V20.3831L23.5777 20.4829C24.5124 20.7356 25.3955 21.0246 26.0455 21.5056C26.6626 21.9623 27.0763 22.596 27.0763 23.616C27.0763 24.4015 26.8319 25.1351 26.3113 25.6905C25.7931 26.2434 24.9553 26.6687 23.6752 26.7531L23.2081 26.7839V27.252V28.3832C23.2081 28.4474 23.1562 28.4993 23.092 28.4993H23.0796L23.0672 28.4999C22.999 28.5033 22.9411 28.4515 22.9361 28.3844C22.936 28.3798 22.9358 28.3759 22.9356 28.3726L22.9355 28.3703V27.2722V26.7881L22.4517 26.7724C21.173 26.731 19.95 26.2406 18.9962 25.3878C18.9506 25.3374 18.9255 25.2721 18.9259 25.2042H18.9259L18.9258 25.1953C18.9233 25.0012 19.0662 24.8387 19.2555 24.814C19.3213 24.8197 19.3832 24.844 19.4336 24.8828C20.267 25.5815 21.2824 26.0274 22.3589 26.1719L22.9254 26.248V25.6764V21.6364V21.2536L22.5559 21.1538C21.6126 20.8988 20.7425 20.6318 20.1042 20.1813C19.5037 19.7575 19.1077 19.1718 19.1077 18.2025C19.1077 16.6718 20.3676 15.4162 22.4609 15.2673L22.9254 15.2343V14.7686V13.6222C22.9275 13.5573 22.9782 13.5052 23.0418 13.5004L23.0467 13.5011H23.0819C23.1462 13.5011 23.198 13.5529 23.198 13.6172V14.809V15.2812L23.6695 15.3081C24.716 15.368 25.7149 15.7674 26.5143 16.4445C26.5576 16.494 26.5815 16.5573 26.5815 16.6231C26.5786 16.8221 26.4167 16.9835 26.2165 16.9854C26.1707 16.9842 26.1273 16.9709 26.0892 16.9468C25.4147 16.4345 24.6267 16.093 23.7913 15.9521L23.2081 15.8537V16.4451V20.0003ZM22.9347 28.3576C22.9347 28.3575 22.9347 28.3575 22.9347 28.3577L22.9347 28.3576ZM22.2947 20.1568L22.9356 20.345V19.6771V16.3744V15.8345L22.3972 15.8759C21.0577 15.9789 19.9762 16.7891 19.9762 18.0813C19.9762 18.7452 20.2983 19.2063 20.7606 19.5228C21.1873 19.8149 21.7515 19.9974 22.2947 20.1568ZM23.2081 25.6966V26.2611L23.7685 26.1929C24.6103 26.0905 25.2332 25.7751 25.6467 25.3255C26.0571 24.8793 26.2275 24.3367 26.2281 23.8406C26.2341 23.1394 25.9296 22.6241 25.456 22.2574C25.0116 21.9133 24.4241 21.7033 23.8444 21.5392L23.2081 21.359V22.0202V25.6966Z" stroke="#FFD43B"/>
</g>
<defs>
<filter id="filter0_d" x="0" y="0" width="46" height="46" filterUnits="userSpaceOnUse" color-interpolation-filters="sRGB">
<feFlood flood-opacity="0" result="BackgroundImageFix"/>
<feColorMatrix in="SourceAlpha" type="matrix" values="0 0 0 0 0 0 0 0 0 0 0 0 0 0 0 0 0 0 127 0"/>
<feOffset dy="2"/>
<feGaussianBlur stdDeviation="4"/>
<feColorMatrix type="matrix" values="0 0 0 0 0 0 0 0 0 0 0 0 0 0 0 0 0 0 0.4 0"/>
<feBlend mode="normal" in2="BackgroundImageFix" result="effect1_dropShadow"/>
<feBlend mode="normal" in="SourceGraphic" in2="effect1_dropShadow" result="shape"/>
</filter>
<filter id="filter1_i" x="15" y="13" width="16" height="17" filterUnits="userSpaceOnUse" color-interpolation-filters="sRGB">
<feFlood flood-opacity="0" result="BackgroundImageFix"/>
<feBlend mode="normal" in="SourceGraphic" in2="BackgroundImageFix" result="shape"/>
<feColorMatrix in="SourceAlpha" type="matrix" values="0 0 0 0 0 0 0 0 0 0 0 0 0 0 0 0 0 0 127 0" result="hardAlpha"/>
<feOffset dy="1"/>
<feGaussianBlur stdDeviation="0.5"/>
<feComposite in2="hardAlpha" operator="arithmetic" k2="-1" k3="1"/>
<feColorMatrix type="matrix" values="0 0 0 0 0 0 0 0 0 0 0 0 0 0 0 0 0 0 0.5 0"/>
<feBlend mode="normal" in2="shape" result="effect1_innerShadow"/>
</filter>
<linearGradient id="paint0_linear" x1="8" y1="6.90278" x2="12.4559" y2="42.6892" gradientUnits="userSpaceOnUse">
<stop stop-color="#2F4D52"/>
<stop offset="0.435761" stop-color="#152E32"/>
<stop offset="1" stop-color="#091416"/>
</linearGradient>
<radialGradient id="paint1_radial" cx="0" cy="0" r="1" gradientUnits="userSpaceOnUse" gradientTransform="translate(13.4114 3.16981) rotate(80.5889) scale(32.5131 41.9587)">
<stop stop-color="#494949"/>
<stop offset="1" stop-color="#111111"/>
</radialGradient>
<linearGradient id="paint2_linear" x1="36.92" y1="-188.995" x2="16.6812" y2="-188.974" gradientUnits="userSpaceOnUse">
<stop stop-color="#EB2163"/>
<stop offset="1" stop-color="#950552"/>
</linearGradient>
<clipPath id="clip0">
<rect width="16" height="16" fill="white" transform="translate(15 13)"/>
</clipPath>
</defs>
</svg>
