<svg width="23" height="22" viewBox="0 0 23 22" fill="none" xmlns="http://www.w3.org/2000/svg">
<path d="M13.8571 7.05326C13.9024 7.20613 13.9831 7.34534 14.0923 7.45888C14.2014 7.57243 14.3357 7.6569 14.4836 7.70501C14.5819 7.737 14.6846 7.75242 14.7877 7.75068L21.2227 7.59976C21.4267 7.59634 21.6266 7.65945 21.7937 7.78007C21.9603 7.90198 22.0844 8.076 22.1475 8.27632C22.2106 8.47664 22.2094 8.69259 22.144 8.89213C22.0775 9.0909 21.9518 9.26297 21.7849 9.38382L16.4924 13.1601C16.4078 13.2209 16.3335 13.2956 16.2723 13.3813C16.1463 13.5523 16.0803 13.7623 16.0851 13.977C16.0857 14.0834 16.1031 14.189 16.1367 14.2896L18.2649 20.5509C18.3312 20.7497 18.3347 20.9651 18.2749 21.1661C18.2142 21.367 18.0922 21.5424 17.927 21.6661C17.7618 21.7898 17.5623 21.8553 17.3582 21.8528C17.1544 21.8496 16.9568 21.7801 16.7937 21.6542L11.673 17.6313C11.5907 17.5671 11.4987 17.5173 11.4006 17.484C11.2045 17.4137 10.991 17.4137 10.7949 17.484C10.6968 17.5173 10.6048 17.5671 10.5224 17.6313L5.40103 21.6526C5.2379 21.7785 5.0403 21.8481 4.83652 21.8512C4.63236 21.8537 4.43287 21.7882 4.26771 21.6645C4.10255 21.5408 3.98054 21.3654 3.91982 21.1645C3.86004 20.9635 3.86354 20.7481 3.92984 20.5493L6.05802 14.2864C6.09158 14.1858 6.10902 14.0802 6.10965 13.9739C6.11444 13.7591 6.04842 13.5491 5.92238 13.3781C5.86126 13.2925 5.78693 13.2177 5.70236 13.1569L0.409086 9.38263C0.242152 9.26178 0.116476 9.08971 0.0499588 8.89094C-0.0154253 8.6914 -0.0166614 8.47545 0.0464337 8.27513C0.109529 8.07481 0.233594 7.90078 0.400223 7.77888C0.567389 7.65826 0.767251 7.59515 0.971282 7.59857L7.40628 7.74949C7.50935 7.75123 7.61201 7.73581 7.71031 7.70381C7.8582 7.6557 7.99252 7.57123 8.10167 7.45769C8.21082 7.34414 8.29154 7.20494 8.33685 7.05207L10.1864 0.697431C10.2463 0.49646 10.3662 0.320087 10.529 0.193429C10.6929 0.067829 10.8916 0 11.0958 0C11.3 0 11.4988 0.067829 11.6626 0.193429C11.8254 0.320087 11.9453 0.49646 12.0052 0.697431L13.8571 7.05326Z" fill="#FE183F"/>
</svg>
