<svg width="69" height="59" viewBox="0 0 69 59" fill="none" xmlns="http://www.w3.org/2000/svg">
<g clip-path="url(#clip0)">
<path d="M13.0355 48.4764V57.7561C13.0355 58.4442 13.5809 58.9997 14.2566 58.9997H54.9093C55.5849 58.9997 56.1303 58.4442 56.1303 57.7561V48.4792L61.5436 26.645C61.6766 26.1144 61.4487 25.5562 60.9874 25.2743L57.4518 23.1161C57.156 22.9365 56.7978 22.8922 56.4695 22.9917C56.1385 23.094 55.8671 23.3344 55.7206 23.6522C54.1522 27.0402 51.8105 29.3587 49.2979 30.0109C48.8882 30.1159 48.5626 30.431 48.435 30.84C48.3075 31.249 48.397 31.6966 48.6684 32.0227C49.3494 32.838 49.7266 33.8743 49.7266 34.941C49.7266 37.4253 47.7431 39.4454 45.3037 39.4454C42.8643 39.4454 40.8808 37.4253 40.8808 34.941C40.8808 33.1944 41.8902 31.5916 43.4531 30.8538C43.8439 30.6686 44.1098 30.29 44.1559 29.8534C44.1993 29.4168 44.0148 28.9884 43.6702 28.7287C40.4277 26.2747 38.1918 21.1678 37.8336 15.3977C37.8038 14.9279 37.5162 14.5134 37.0901 14.331L35.0632 13.4578C34.7593 13.3279 34.4147 13.3279 34.1108 13.4578L32.0838 14.331C31.6578 14.5134 31.3702 14.9279 31.3404 15.3977C30.9822 21.1678 28.7436 26.2775 25.5038 28.7287C25.1592 28.9912 24.9719 29.4195 25.0181 29.8534C25.0615 30.29 25.3301 30.6714 25.7208 30.8538C27.2838 31.5889 28.2932 33.1944 28.2932 34.941C28.2932 37.4253 26.3097 39.4454 23.8703 39.4454C21.4309 39.4454 19.4474 37.4253 19.4474 34.941C19.4474 33.8743 19.8218 32.838 20.5056 32.0227C20.7797 31.6966 20.8665 31.249 20.739 30.84C20.6114 30.431 20.2858 30.1187 19.8761 30.0109C17.3607 29.3587 15.019 27.0402 13.4534 23.6522C13.3069 23.3344 13.0328 23.094 12.7045 22.9917C12.3734 22.8895 12.018 22.9337 11.7222 23.1161L8.18661 25.2743C7.72532 25.5562 7.49739 26.1144 7.63035 26.645L13.0355 48.4764ZM53.6909 56.5126H46.6604V54.3958C46.6604 53.7076 46.115 53.1522 45.4394 53.1522C44.7637 53.1522 44.2183 53.7076 44.2183 54.3958V56.5126H41.2336V54.3958C41.2336 53.7076 40.6882 53.1522 40.0125 53.1522C39.3369 53.1522 38.7915 53.7076 38.7915 54.3958V56.5126H35.8067V54.3958C35.8067 53.7076 35.2613 53.1522 34.5856 53.1522C33.91 53.1522 33.3646 53.7076 33.3646 54.3958V56.5126H30.3798V54.3958C30.3798 53.7076 29.8344 53.1522 29.1588 53.1522C28.4831 53.1522 27.9377 53.7076 27.9377 54.3958V56.5126H24.9529V54.3958C24.9529 53.7076 24.4075 53.1522 23.7319 53.1522C23.0562 53.1522 22.5108 53.7076 22.5108 54.3958V56.5126H15.4776V49.5597H53.6882V56.5126H53.6909ZM11.8497 25.9293C13.3883 28.748 15.4098 30.7875 17.7026 31.8569C17.2413 32.8103 16.9971 33.866 16.9971 34.9382C16.9971 38.7932 20.0769 41.9298 23.8621 41.9298C27.6474 41.9298 30.7271 38.7932 30.7271 34.9382C30.7271 32.849 29.7964 30.8897 28.2606 29.5798C31.2454 26.5925 33.2289 21.8062 33.7146 16.3235L34.5829 15.9504L35.4512 16.3235C35.9369 21.8062 37.9205 26.5925 40.9052 29.5798C39.3694 30.8897 38.4387 32.849 38.4387 34.9382C38.4387 38.7932 41.5185 41.9298 45.3037 41.9298C49.089 41.9298 52.1687 38.7932 52.1687 34.9382C52.1687 33.8632 51.9245 32.8076 51.4632 31.8569C53.7561 30.7902 55.7776 28.748 57.3161 25.9293L58.955 26.9297L53.9623 47.0698H15.2063L10.2135 26.9297L11.8497 25.9293Z" fill="#23FFFF"/>
<path d="M6.22734 24.2361C2.79484 24.2361 0 21.3897 0 17.8939C0 14.3954 2.79484 11.5518 6.22734 11.5518C9.66255 11.5518 12.4547 14.3981 12.4547 17.8939C12.4547 21.3897 9.66255 24.2361 6.22734 24.2361ZM6.22734 14.3152C4.28994 14.3152 2.71344 15.9208 2.71344 17.8939C2.71344 19.867 4.28994 21.4726 6.22734 21.4726C8.16473 21.4726 9.74124 19.867 9.74124 17.8939C9.74124 15.9208 8.16473 14.3152 6.22734 14.3152Z" fill="#23FFFF"/>
<path d="M62.7732 23.8293C59.338 23.8293 56.5459 20.983 56.5459 17.4872C56.5459 13.9914 59.3407 11.145 62.7732 11.145C66.2085 11.145 69.0006 13.9914 69.0006 17.4872C69.0006 20.983 66.2085 23.8293 62.7732 23.8293ZM62.7732 13.9085C60.8358 13.9085 59.2593 15.5141 59.2593 17.4872C59.2593 19.4603 60.8358 21.0659 62.7732 21.0659C64.7106 21.0659 66.2871 19.4603 66.2871 17.4872C66.2871 15.5141 64.7106 13.9085 62.7732 13.9085Z" fill="#23FFFF"/>
<path d="M34.5857 12.6843C31.1505 12.6843 28.3584 9.83794 28.3584 6.34215C28.3557 2.84637 31.1505 0 34.5857 0C38.0209 0 40.8131 2.84637 40.8131 6.34215C40.8131 9.8407 38.0182 12.6843 34.5857 12.6843ZM34.5857 2.76347C32.6483 2.76347 31.0718 4.36904 31.0718 6.34215C31.0718 8.31527 32.6483 9.92084 34.5857 9.92084C36.5231 9.92084 38.0996 8.31527 38.0996 6.34215C38.0996 4.36904 36.5231 2.76347 34.5857 2.76347Z" fill="#23FFFF"/>
</g>
<defs>
<clipPath id="clip0">
<rect width="69" height="59" fill="white"/>
</clipPath>
</defs>
</svg>
