<svg width="58" height="64" viewBox="0 0 58 64" fill="none" xmlns="http://www.w3.org/2000/svg">
<path d="M58 63.9999H0L0.0375648 60.5402C0.135233 50.167 0.192332 43.9059 7.99679 41.0532C14.5376 38.5373 18.542 35.9369 18.5825 35.9112L19.9754 34.9991L25.2766 51.8599L26.1631 49.3606C24.1301 46.3463 23.5681 44.0267 24.4441 42.2855C25.4644 40.2574 27.9437 40.0082 28.9639 39.9946C30.0683 40.0082 32.5476 40.2574 33.5679 42.2855C34.4439 44.0282 33.8819 46.3478 31.8474 49.3636L32.7159 51.8417L38.011 34.9976L39.4054 35.9142C39.4445 35.9384 43.4474 38.5524 50.0062 41.0608C57.7881 43.8999 57.8512 50.1368 57.9579 60.4692L58 63.9999ZM2.5544 61.4614H55.4411L55.4306 60.4964C55.3254 50.3271 55.2788 45.6849 49.1242 43.4408C44.5398 41.6875 41.1965 39.9116 39.4325 38.8937L32.8316 59.8153L29.0285 48.9694L29.4117 48.4318C31.8128 45.0627 31.4718 43.7504 31.311 43.4287C30.9864 42.7854 29.8715 42.5438 29.0135 42.5332C28.1375 42.5453 27.0211 42.7854 26.6965 43.4287C26.5342 43.7504 26.1932 45.0627 28.5958 48.4318L28.9805 48.9709L25.1428 59.7957L18.548 38.8922C16.7869 39.9055 13.4497 41.6754 8.87731 43.4332C2.70016 45.6909 2.65658 50.3512 2.56192 60.5658L2.5544 61.4614Z" fill="#23FFFF"/>
<path d="M29.0935 39.0977C27.9561 39.0977 26.8351 38.9059 25.7623 38.5269C20.9044 36.7962 17.9518 32.1706 17.1073 28.3198C16.1772 27.7021 15.4305 26.2539 14.7242 23.7652C13.9895 21.1692 14.0195 19.4628 14.8189 18.3981C15.0082 18.1474 15.2381 17.9405 15.4966 17.782C15.45 17.5826 15.4094 17.3848 15.3734 17.19C14.9121 14.7934 14.9091 12.8559 15.3688 11.1056C15.8978 8.83436 17.0893 6.7277 18.8999 4.87626C19.8766 3.85087 20.957 2.95536 22.099 2.22747C23.1357 1.51166 24.183 0.974044 25.2604 0.61463C26.2476 0.283908 27.2468 0.0936291 28.2295 0.051345C28.5977 0.0166116 29.0079 0 29.4061 0C31.6524 0 33.7095 0.548183 35.5171 1.63096C37.3142 2.63521 38.369 3.89316 38.8619 4.5984C39.529 4.79622 40.5583 5.27796 41.4628 6.4302C43.1983 8.64408 43.6641 12.2609 42.8482 17.1855C42.8092 17.3984 42.7686 17.6038 42.7235 17.8016C42.9835 17.9602 43.2119 18.1671 43.3997 18.4177C44.1991 19.4809 44.2291 21.1828 43.4943 23.7757C42.7986 26.2539 42.0564 27.6946 41.1218 28.3137C40.2503 32.2371 37.1189 36.8189 32.4518 38.5102C31.379 38.8999 30.2475 39.0977 29.0935 39.0977ZM18.4492 26.1437L19.3131 26.1995L19.4679 27.2083C19.9848 30.5654 22.6023 34.7092 26.6007 36.1318C27.4001 36.4142 28.24 36.5576 29.092 36.5576C29.0935 36.5576 29.0935 36.5576 29.0935 36.5576C29.9545 36.5576 30.7975 36.4111 31.5968 36.1212C35.6253 34.6624 38.2503 30.5306 38.7627 27.2068L38.9145 26.2207L39.7739 26.1482C39.9242 25.9972 40.4276 25.3599 41.0662 23.0826C41.7814 20.5576 41.3892 19.9521 41.3847 19.946L39.4118 20.1167L39.9588 18.2698C40.127 17.8092 40.2578 17.3108 40.3599 16.749C41.2059 11.6372 40.3795 9.20887 39.5365 8.07626C38.8123 7.10222 37.9949 6.99198 37.9603 6.98745L37.3022 6.90741L36.9596 6.31241C36.9566 6.30788 36.1812 4.90798 34.2549 3.82973C32.5465 2.80736 30.6517 2.38905 28.3888 2.58235C27.5759 2.61859 26.8321 2.76055 26.0568 3.02029C25.2063 3.30571 24.3664 3.73912 23.4889 4.34469C22.4806 4.98952 21.558 5.75215 20.7106 6.64162C19.2185 8.16838 18.2493 9.87334 17.8181 11.7172C17.4469 13.1368 17.4605 14.6711 17.8556 16.7203C17.9473 17.2232 18.084 17.7457 18.2673 18.2833L18.9014 20.1529L16.9466 19.9566C16.7963 19.9521 16.4357 20.5395 17.1509 23.0675C17.794 25.3267 18.2929 25.9821 18.4492 26.1437Z" fill="#23FFFF"/>
</svg>
