<svg width="70" height="57" viewBox="0 0 70 57" fill="none" xmlns="http://www.w3.org/2000/svg">
<path d="M3.12918 38.0032L3.12918 38.003L3.12181 38.0031C2.12276 38.0128 1.84499 38.0136 0.790372 37.9726C0.845166 37.6876 0.901173 37.4025 0.962926 37.1116L0.962998 37.1116L0.964115 37.1056L0.964188 37.1052L0.964386 37.1042L0.965075 37.1007L0.967421 37.0891L0.975599 37.0499C0.982569 37.0169 0.992523 36.9706 1.00556 36.9116C1.03164 36.7936 1.07 36.625 1.12142 36.41C1.22427 35.9801 1.37933 35.3651 1.5929 34.5992C2.02006 33.0672 2.68104 30.9325 3.62598 28.469C5.49665 23.5921 8.47615 17.4373 12.9492 12.1189C13.9414 12.7797 14.9005 13.2706 15.7705 13.642L15.7319 13.6813L16.1113 13.8081C18.8572 14.7261 24.9573 16.1922 33.015 14.6934L33.0327 14.6901L33.0497 14.6843C33.489 14.5352 34.8006 14.1348 36.4458 13.9984C38.093 13.8618 40.0528 13.9918 41.8055 14.8818L41.8057 14.8819C43.7176 15.8504 45.0462 17.5126 45.755 19.8331L45.7547 19.8332L45.7591 19.8454C46.3016 21.3391 46.5636 23.7623 45.6611 26.2043C44.7626 28.6354 42.7012 31.1097 38.5519 32.7074L38.5516 32.7075C37.9663 32.9336 24.3617 38.0137 5.88267 38.0137C5.65618 38.0137 5.4323 38.0171 5.2086 38.0205C4.87369 38.0255 4.5392 38.0306 4.19698 38.0243L3.12918 38.0032ZM13.8381 16.3709L13.6572 16.2967L13.5416 16.4543C8.74697 22.9934 6.10291 30.3648 4.88584 34.4965L4.79213 34.8147L5.12377 34.8172C23.2291 34.9535 37.0483 29.8741 37.4542 29.7249L37.462 29.722L37.462 29.7221L37.4664 29.7204C41.1289 28.3102 42.5097 26.1737 42.9386 24.3263C43.358 22.5204 42.8568 21.0381 42.7989 20.8746C42.3284 19.3529 41.5778 18.3505 40.436 17.7634L40.4355 17.7631C39.0873 17.0738 37.468 17.0781 36.2074 17.2427C34.9447 17.4077 33.9819 17.7445 33.9861 17.7434L33.984 17.744L33.7126 17.8156C23.3873 19.7655 16.0472 17.2771 13.8381 16.3709Z" fill="#23FFFF" stroke="#111111" stroke-width="0.5"/>
<path d="M5.85621 50.6562L5.35631 50.6655L5.66368 51.0598C6.45224 52.0715 7.16991 52.5133 7.27267 52.5707L7.27266 52.5707C8.74693 53.4037 10.1342 53.4269 10.2993 53.4269H53.2313C54.7593 53.4269 55.8278 53.2068 56.5223 52.9802C56.8694 52.8669 57.1225 52.7522 57.2923 52.663C57.3772 52.6184 57.4413 52.5801 57.4859 52.5516C57.5082 52.5373 57.5259 52.5254 57.539 52.5161C57.5455 52.5115 57.5513 52.5073 57.5563 52.5036L57.5645 52.4973L57.5707 52.4922C57.5708 52.4921 57.5718 52.4913 57.5735 52.4898C61.8685 48.8746 64.1274 43.2531 65.3151 38.5484C66.5043 33.8377 66.6306 30.0016 66.6306 29.91C66.6306 23.4966 64.9909 18.6238 62.4722 14.9265C59.9548 11.231 56.5697 8.72475 53.1002 7.0259C46.1681 3.63158 38.8709 3.4465 37.3755 3.4465H37.2407C29.4373 3.4465 23.3346 6.50573 18.6135 10.7892C17.8052 10.5491 16.6889 10.1239 15.4916 9.40589C20.8221 4.14795 27.911 0.25 37.2407 0.25H37.3755C38.8551 0.25 46.64 0.43954 54.274 4.1119C57.8095 5.81532 61.6794 8.47944 64.6639 12.6115C67.646 16.7402 69.7542 22.3481 69.7497 29.9591C69.7389 30.3367 69.5966 34.5539 68.2529 39.694C66.9037 44.8551 64.3523 50.9113 59.5413 54.9606L59.5412 54.9605L59.5345 54.9665C59.3016 55.1773 57.5159 56.6128 53.221 56.6128H10.2889C9.75182 56.6128 7.8191 56.5208 5.78638 55.3775L5.78642 55.3775L5.78083 55.3745C5.67635 55.3192 4.11339 54.4623 2.67669 52.303C1.26454 50.1807 -0.0364473 46.7843 0.306515 41.6189C1.39864 41.6641 2.47457 41.6825 3.44239 41.6825C3.44314 41.6825 3.44389 41.6825 3.44463 41.6825L4.02081 41.6931L4.02081 41.6932L4.02801 41.6931C6.02687 41.6719 9.90317 41.5552 16.1442 40.8678L16.1458 40.8676C16.9984 40.7681 17.7796 41.4021 17.8696 42.2818L17.8699 42.2843C17.9689 43.1644 17.3382 43.9555 16.4845 44.0461L16.4836 44.0462C10.0625 44.7529 5.82981 44.8896 3.75447 44.9002L3.47713 44.9016L3.50721 45.1773C3.59133 45.9483 3.71771 46.6463 3.87638 47.2712L3.9234 47.4563L4.11441 47.4596C5.35915 47.4809 9.90139 47.4698 17.5337 46.6344L17.5354 46.6342C18.388 46.5347 19.1692 47.1686 19.2592 48.0483L19.2594 48.0508C19.3585 48.9309 18.7278 49.7221 17.8741 49.8126L17.8732 49.8127C12.1257 50.4456 8.12002 50.6141 5.85621 50.6562Z" fill="#23FFFF" stroke="#111111" stroke-width="0.5"/>
<path d="M37.7083 25.0832C38.9969 25.0832 40.0415 24.0193 40.0415 22.7069C40.0415 21.3945 38.9969 20.3306 37.7083 20.3306C36.4196 20.3306 35.375 21.3945 35.375 22.7069C35.375 24.0193 36.4196 25.0832 37.7083 25.0832Z" fill="#23FFFF"/>
</svg>
