<svg width="120" height="97" viewBox="0 0 120 97" fill="none" xmlns="http://www.w3.org/2000/svg">
<path d="M28.1255 40.7178C29.8273 40.7178 31.212 41.8773 31.212 43.3023C31.212 44.5965 32.2613 45.646 33.5558 45.646C34.8502 45.646 35.8995 44.5965 35.8995 43.3023C35.8995 40.0564 33.6139 37.3009 30.4693 36.3687V36.043C30.4693 34.7488 29.42 33.6992 28.1255 33.6992C26.8311 33.6992 25.7818 34.7488 25.7818 36.043V36.3687C22.6372 37.3011 20.3516 40.0564 20.3516 43.3023C20.3516 47.3122 23.8388 50.5742 28.1255 50.5742C29.8273 50.5742 31.212 51.7334 31.212 53.1584C31.212 54.5834 29.8273 55.7429 28.1255 55.7429C26.4237 55.7429 25.0391 54.5834 25.0391 53.1584C25.0391 51.8642 23.9898 50.8147 22.6953 50.8147C21.4009 50.8147 20.3516 51.8642 20.3516 53.1584C20.3516 56.4043 22.6372 59.1598 25.7818 60.092V60.418C25.7818 61.7122 26.8311 62.7617 28.1255 62.7617C29.42 62.7617 30.4693 61.7122 30.4693 60.418V60.0922C33.6139 59.1598 35.8995 56.4045 35.8995 53.1587C35.8995 49.1488 32.4123 45.8867 28.1255 45.8867C26.4237 45.8867 25.0391 44.7275 25.0391 43.3025C25.0391 41.8775 26.4237 40.7178 28.1255 40.7178Z" fill="black"/>
<path d="M28.1255 40.7178C29.8273 40.7178 31.212 41.8773 31.212 43.3023C31.212 44.5965 32.2613 45.646 33.5558 45.646C34.8502 45.646 35.8995 44.5965 35.8995 43.3023C35.8995 40.0564 33.6139 37.3009 30.4693 36.3687V36.043C30.4693 34.7488 29.42 33.6992 28.1255 33.6992C26.8311 33.6992 25.7818 34.7488 25.7818 36.043V36.3687C22.6372 37.3011 20.3516 40.0564 20.3516 43.3023C20.3516 47.3122 23.8388 50.5742 28.1255 50.5742C29.8273 50.5742 31.212 51.7334 31.212 53.1584C31.212 54.5834 29.8273 55.7429 28.1255 55.7429C26.4237 55.7429 25.0391 54.5834 25.0391 53.1584C25.0391 51.8642 23.9898 50.8147 22.6953 50.8147C21.4009 50.8147 20.3516 51.8642 20.3516 53.1584C20.3516 56.4043 22.6372 59.1598 25.7818 60.092V60.418C25.7818 61.7122 26.8311 62.7617 28.1255 62.7617C29.42 62.7617 30.4693 61.7122 30.4693 60.418V60.0922C33.6139 59.1598 35.8995 56.4045 35.8995 53.1587C35.8995 49.1488 32.4123 45.8867 28.1255 45.8867C26.4237 45.8867 25.0391 44.7275 25.0391 43.3025C25.0391 41.8775 26.4237 40.7178 28.1255 40.7178Z" fill="url(#paint0_linear)"/>
<path d="M28.1255 40.7178C29.8273 40.7178 31.212 41.8773 31.212 43.3023C31.212 44.5965 32.2613 45.646 33.5558 45.646C34.8502 45.646 35.8995 44.5965 35.8995 43.3023C35.8995 40.0564 33.6139 37.3009 30.4693 36.3687V36.043C30.4693 34.7488 29.42 33.6992 28.1255 33.6992C26.8311 33.6992 25.7818 34.7488 25.7818 36.043V36.3687C22.6372 37.3011 20.3516 40.0564 20.3516 43.3023C20.3516 47.3122 23.8388 50.5742 28.1255 50.5742C29.8273 50.5742 31.212 51.7334 31.212 53.1584C31.212 54.5834 29.8273 55.7429 28.1255 55.7429C26.4237 55.7429 25.0391 54.5834 25.0391 53.1584C25.0391 51.8642 23.9898 50.8147 22.6953 50.8147C21.4009 50.8147 20.3516 51.8642 20.3516 53.1584C20.3516 56.4043 22.6372 59.1598 25.7818 60.092V60.418C25.7818 61.7122 26.8311 62.7617 28.1255 62.7617C29.42 62.7617 30.4693 61.7122 30.4693 60.418V60.0922C33.6139 59.1598 35.8995 56.4045 35.8995 53.1587C35.8995 49.1488 32.4123 45.8867 28.1255 45.8867C26.4237 45.8867 25.0391 44.7275 25.0391 43.3025C25.0391 41.8775 26.4237 40.7178 28.1255 40.7178Z" fill="url(#paint1_linear)"/>
<path d="M56.25 48.2305C56.25 44.6682 55.5923 41.1955 54.2951 37.9093C53.8198 36.7051 52.459 36.1147 51.2545 36.5895C50.0505 37.0646 49.4597 38.4261 49.935 39.6301C51.015 42.3662 51.5625 45.2598 51.5625 48.2305C51.5625 61.1541 41.0484 71.668 28.125 71.668C15.2016 71.668 4.6875 61.1539 4.6875 48.2305C4.6875 35.307 15.2016 24.793 28.125 24.793C31.0779 24.793 33.9553 25.3344 36.6778 26.4017C37.8827 26.8747 39.2428 26.2805 39.7153 25.0754C40.188 23.8702 39.5941 22.5104 38.389 22.0379C35.1192 20.7556 31.6659 20.1055 28.125 20.1055C12.6169 20.1055 0 32.7223 0 48.2305C0 63.7386 12.6169 76.3555 28.125 76.3555C43.6331 76.3555 56.25 63.7386 56.25 48.2305Z" fill="black"/>
<path d="M56.25 48.2305C56.25 44.6682 55.5923 41.1955 54.2951 37.9093C53.8198 36.7051 52.459 36.1147 51.2545 36.5895C50.0505 37.0646 49.4597 38.4261 49.935 39.6301C51.015 42.3662 51.5625 45.2598 51.5625 48.2305C51.5625 61.1541 41.0484 71.668 28.125 71.668C15.2016 71.668 4.6875 61.1539 4.6875 48.2305C4.6875 35.307 15.2016 24.793 28.125 24.793C31.0779 24.793 33.9553 25.3344 36.6778 26.4017C37.8827 26.8747 39.2428 26.2805 39.7153 25.0754C40.188 23.8702 39.5941 22.5104 38.389 22.0379C35.1192 20.7556 31.6659 20.1055 28.125 20.1055C12.6169 20.1055 0 32.7223 0 48.2305C0 63.7386 12.6169 76.3555 28.125 76.3555C43.6331 76.3555 56.25 63.7386 56.25 48.2305Z" fill="url(#paint2_linear)"/>
<path d="M56.25 48.2305C56.25 44.6682 55.5923 41.1955 54.2951 37.9093C53.8198 36.7051 52.459 36.1147 51.2545 36.5895C50.0505 37.0646 49.4597 38.4261 49.935 39.6301C51.015 42.3662 51.5625 45.2598 51.5625 48.2305C51.5625 61.1541 41.0484 71.668 28.125 71.668C15.2016 71.668 4.6875 61.1539 4.6875 48.2305C4.6875 35.307 15.2016 24.793 28.125 24.793C31.0779 24.793 33.9553 25.3344 36.6778 26.4017C37.8827 26.8747 39.2428 26.2805 39.7153 25.0754C40.188 23.8702 39.5941 22.5104 38.389 22.0379C35.1192 20.7556 31.6659 20.1055 28.125 20.1055C12.6169 20.1055 0 32.7223 0 48.2305C0 63.7386 12.6169 76.3555 28.125 76.3555C43.6331 76.3555 56.25 63.7386 56.25 48.2305Z" fill="url(#paint3_linear)"/>
<path d="M91.8755 40.7178C93.5773 40.7178 94.962 41.8773 94.962 43.3023C94.962 44.5965 96.0113 45.646 97.3058 45.646C98.6002 45.646 99.6495 44.5965 99.6495 43.3023C99.6495 40.0564 97.3639 37.3009 94.2193 36.3687V36.043C94.2193 34.7488 93.17 33.6992 91.8755 33.6992C90.5811 33.6992 89.5318 34.7488 89.5318 36.043V36.3687C86.3872 37.3011 84.1016 40.0564 84.1016 43.3023C84.1016 47.3122 87.5888 50.5742 91.8755 50.5742C93.5773 50.5742 94.962 51.7334 94.962 53.1584C94.962 54.5834 93.5773 55.7429 91.8755 55.7429C90.1738 55.7429 88.7891 54.5834 88.7891 53.1584C88.7891 51.8642 87.7398 50.8147 86.4453 50.8147C85.1509 50.8147 84.1016 51.8642 84.1016 53.1584C84.1016 56.4043 86.3872 59.1598 89.5318 60.092V60.418C89.5318 61.7122 90.5811 62.7617 91.8755 62.7617C93.17 62.7617 94.2193 61.7122 94.2193 60.418V60.0922C97.3639 59.1598 99.6495 56.4045 99.6495 53.1587C99.6495 49.1488 96.1623 45.8867 91.8755 45.8867C90.1738 45.8867 88.7891 44.7275 88.7891 43.3025C88.7891 41.8775 90.1738 40.7178 91.8755 40.7178Z" fill="black"/>
<path d="M91.8755 40.7178C93.5773 40.7178 94.962 41.8773 94.962 43.3023C94.962 44.5965 96.0113 45.646 97.3058 45.646C98.6002 45.646 99.6495 44.5965 99.6495 43.3023C99.6495 40.0564 97.3639 37.3009 94.2193 36.3687V36.043C94.2193 34.7488 93.17 33.6992 91.8755 33.6992C90.5811 33.6992 89.5318 34.7488 89.5318 36.043V36.3687C86.3872 37.3011 84.1016 40.0564 84.1016 43.3023C84.1016 47.3122 87.5888 50.5742 91.8755 50.5742C93.5773 50.5742 94.962 51.7334 94.962 53.1584C94.962 54.5834 93.5773 55.7429 91.8755 55.7429C90.1738 55.7429 88.7891 54.5834 88.7891 53.1584C88.7891 51.8642 87.7398 50.8147 86.4453 50.8147C85.1509 50.8147 84.1016 51.8642 84.1016 53.1584C84.1016 56.4043 86.3872 59.1598 89.5318 60.092V60.418C89.5318 61.7122 90.5811 62.7617 91.8755 62.7617C93.17 62.7617 94.2193 61.7122 94.2193 60.418V60.0922C97.3639 59.1598 99.6495 56.4045 99.6495 53.1587C99.6495 49.1488 96.1623 45.8867 91.8755 45.8867C90.1738 45.8867 88.7891 44.7275 88.7891 43.3025C88.7891 41.8775 90.1738 40.7178 91.8755 40.7178Z" fill="url(#paint4_linear)"/>
<path d="M91.8755 40.7178C93.5773 40.7178 94.962 41.8773 94.962 43.3023C94.962 44.5965 96.0113 45.646 97.3058 45.646C98.6002 45.646 99.6495 44.5965 99.6495 43.3023C99.6495 40.0564 97.3639 37.3009 94.2193 36.3687V36.043C94.2193 34.7488 93.17 33.6992 91.8755 33.6992C90.5811 33.6992 89.5318 34.7488 89.5318 36.043V36.3687C86.3872 37.3011 84.1016 40.0564 84.1016 43.3023C84.1016 47.3122 87.5888 50.5742 91.8755 50.5742C93.5773 50.5742 94.962 51.7334 94.962 53.1584C94.962 54.5834 93.5773 55.7429 91.8755 55.7429C90.1738 55.7429 88.7891 54.5834 88.7891 53.1584C88.7891 51.8642 87.7398 50.8147 86.4453 50.8147C85.1509 50.8147 84.1016 51.8642 84.1016 53.1584C84.1016 56.4043 86.3872 59.1598 89.5318 60.092V60.418C89.5318 61.7122 90.5811 62.7617 91.8755 62.7617C93.17 62.7617 94.2193 61.7122 94.2193 60.418V60.0922C97.3639 59.1598 99.6495 56.4045 99.6495 53.1587C99.6495 49.1488 96.1623 45.8867 91.8755 45.8867C90.1738 45.8867 88.7891 44.7275 88.7891 43.3025C88.7891 41.8775 90.1738 40.7178 91.8755 40.7178Z" fill="url(#paint5_linear)"/>
<path d="M91.875 20.1055C76.3669 20.1055 63.75 32.7223 63.75 48.2305C63.75 63.7386 76.3669 76.3555 91.875 76.3555C107.383 76.3555 120 63.7386 120 48.2305C120 32.7223 107.383 20.1055 91.875 20.1055ZM91.875 71.668C78.9516 71.668 68.4375 61.1541 68.4375 48.2305C68.4375 35.3068 78.9516 24.793 91.875 24.793C104.798 24.793 115.312 35.3068 115.312 48.2305C115.312 61.1541 104.798 71.668 91.875 71.668Z" fill="black"/>
<path d="M91.875 20.1055C76.3669 20.1055 63.75 32.7223 63.75 48.2305C63.75 63.7386 76.3669 76.3555 91.875 76.3555C107.383 76.3555 120 63.7386 120 48.2305C120 32.7223 107.383 20.1055 91.875 20.1055ZM91.875 71.668C78.9516 71.668 68.4375 61.1541 68.4375 48.2305C68.4375 35.3068 78.9516 24.793 91.875 24.793C104.798 24.793 115.312 35.3068 115.312 48.2305C115.312 61.1541 104.798 71.668 91.875 71.668Z" fill="url(#paint6_linear)"/>
<path d="M80.0675 82.5808C79.1523 81.6658 77.6682 81.6658 76.7527 82.5808C75.8375 83.496 75.8375 84.9801 76.7527 85.8955L77.6914 86.8342H36.6523C35.3579 86.8342 34.3086 87.8838 34.3086 89.178C34.3086 90.4722 35.3579 91.5217 36.6523 91.5217H77.6914L76.7527 92.4604C75.8375 93.3756 75.8375 94.8597 76.7527 95.7752C77.2105 96.2327 77.8102 96.4616 78.41 96.4616C79.0098 96.4616 79.6098 96.2327 80.0673 95.7752L85.007 90.8355C85.9222 89.9202 85.9222 88.4362 85.007 87.5207L80.0675 82.5808Z" fill="black"/>
<path d="M80.0675 82.5808C79.1523 81.6658 77.6682 81.6658 76.7527 82.5808C75.8375 83.496 75.8375 84.9801 76.7527 85.8955L77.6914 86.8342H36.6523C35.3579 86.8342 34.3086 87.8838 34.3086 89.178C34.3086 90.4722 35.3579 91.5217 36.6523 91.5217H77.6914L76.7527 92.4604C75.8375 93.3756 75.8375 94.8597 76.7527 95.7752C77.2105 96.2327 77.8102 96.4616 78.41 96.4616C79.0098 96.4616 79.6098 96.2327 80.0673 95.7752L85.007 90.8355C85.9222 89.9202 85.9222 88.4362 85.007 87.5207L80.0675 82.5808Z" fill="url(#paint7_linear)"/>
<path d="M80.0675 82.5808C79.1523 81.6658 77.6682 81.6658 76.7527 82.5808C75.8375 83.496 75.8375 84.9801 76.7527 85.8955L77.6914 86.8342H36.6523C35.3579 86.8342 34.3086 87.8838 34.3086 89.178C34.3086 90.4722 35.3579 91.5217 36.6523 91.5217H77.6914L76.7527 92.4604C75.8375 93.3756 75.8375 94.8597 76.7527 95.7752C77.2105 96.2327 77.8102 96.4616 78.41 96.4616C79.0098 96.4616 79.6098 96.2327 80.0673 95.7752L85.007 90.8355C85.9222 89.9202 85.9222 88.4362 85.007 87.5207L80.0675 82.5808Z" fill="url(#paint8_linear)"/>
<path d="M39.9349 13.8806C40.3927 14.3381 40.9924 14.5671 41.5922 14.5671C42.192 14.5671 42.792 14.3381 43.2495 13.8806C44.1647 12.9654 44.1647 11.4813 43.2495 10.5659L42.3108 9.62719H83.3499C84.6443 9.62719 85.6936 8.57766 85.6936 7.28344C85.6936 5.98922 84.6443 4.93969 83.3499 4.93969H42.3108L43.2495 4.00102C44.1647 3.08578 44.1647 1.60172 43.2495 0.68625C42.3342 -0.22875 40.8502 -0.22875 39.9347 0.68625L34.995 5.62594C34.0798 6.54117 34.0798 8.02524 34.995 8.9407L39.9349 13.8806Z" fill="black"/>
<path d="M39.9349 13.8806C40.3927 14.3381 40.9924 14.5671 41.5922 14.5671C42.192 14.5671 42.792 14.3381 43.2495 13.8806C44.1647 12.9654 44.1647 11.4813 43.2495 10.5659L42.3108 9.62719H83.3499C84.6443 9.62719 85.6936 8.57766 85.6936 7.28344C85.6936 5.98922 84.6443 4.93969 83.3499 4.93969H42.3108L43.2495 4.00102C44.1647 3.08578 44.1647 1.60172 43.2495 0.68625C42.3342 -0.22875 40.8502 -0.22875 39.9347 0.68625L34.995 5.62594C34.0798 6.54117 34.0798 8.02524 34.995 8.9407L39.9349 13.8806Z" fill="url(#paint9_linear)"/>
<path d="M39.9349 13.8806C40.3927 14.3381 40.9924 14.5671 41.5922 14.5671C42.192 14.5671 42.792 14.3381 43.2495 13.8806C44.1647 12.9654 44.1647 11.4813 43.2495 10.5659L42.3108 9.62719H83.3499C84.6443 9.62719 85.6936 8.57766 85.6936 7.28344C85.6936 5.98922 84.6443 4.93969 83.3499 4.93969H42.3108L43.2495 4.00102C44.1647 3.08578 44.1647 1.60172 43.2495 0.68625C42.3342 -0.22875 40.8502 -0.22875 39.9347 0.68625L34.995 5.62594C34.0798 6.54117 34.0798 8.02524 34.995 8.9407L39.9349 13.8806Z" fill="url(#paint10_linear)"/>
<path d="M44.6984 28.3449C44.2625 28.7809 44.0117 29.3855 44.0117 30.002C44.0117 30.6184 44.2625 31.223 44.6984 31.659C45.1344 32.0947 45.7391 32.3457 46.3555 32.3457C46.9719 32.3457 47.5766 32.0949 48.0125 31.659C48.4484 31.223 48.6992 30.6184 48.6992 30.002C48.6992 29.3855 48.4484 28.7809 48.0125 28.3449C47.5766 27.9069 46.9719 27.6582 46.3555 27.6582C45.7391 27.6582 45.1344 27.9069 44.6984 28.3449Z" fill="black"/>
<path d="M44.6984 28.3449C44.2625 28.7809 44.0117 29.3855 44.0117 30.002C44.0117 30.6184 44.2625 31.223 44.6984 31.659C45.1344 32.0947 45.7391 32.3457 46.3555 32.3457C46.9719 32.3457 47.5766 32.0949 48.0125 31.659C48.4484 31.223 48.6992 30.6184 48.6992 30.002C48.6992 29.3855 48.4484 28.7809 48.0125 28.3449C47.5766 27.9069 46.9719 27.6582 46.3555 27.6582C45.7391 27.6582 45.1344 27.9069 44.6984 28.3449Z" fill="url(#paint11_linear)"/>
<path d="M44.6984 28.3449C44.2625 28.7809 44.0117 29.3855 44.0117 30.002C44.0117 30.6184 44.2625 31.223 44.6984 31.659C45.1344 32.0947 45.7391 32.3457 46.3555 32.3457C46.9719 32.3457 47.5766 32.0949 48.0125 31.659C48.4484 31.223 48.6992 30.6184 48.6992 30.002C48.6992 29.3855 48.4484 28.7809 48.0125 28.3449C47.5766 27.9069 46.9719 27.6582 46.3555 27.6582C45.7391 27.6582 45.1344 27.9069 44.6984 28.3449Z" fill="url(#paint12_linear)"/>
<defs>
<linearGradient id="paint0_linear" x1="35.0886" y1="54.4063" x2="22.3525" y2="56.8436" gradientUnits="userSpaceOnUse">
<stop offset="0.645833" stop-color="#EB2163"/>
<stop offset="1" stop-color="#950552"/>
</linearGradient>
<linearGradient id="paint1_linear" x1="46.1266" y1="30.2859" x2="-2.78328" y2="70.4468" gradientUnits="userSpaceOnUse">
<stop stop-color="#EB2163"/>
<stop offset="1" stop-color="#950552"/>
</linearGradient>
<linearGradient id="paint2_linear" x1="53.3163" y1="60.1836" x2="10.9701" y2="75.3316" gradientUnits="userSpaceOnUse">
<stop offset="0.645833" stop-color="#EB2163"/>
<stop offset="1" stop-color="#950552"/>
</linearGradient>
<linearGradient id="paint3_linear" x1="93.25" y1="13.499" x2="4.96817" y2="148.998" gradientUnits="userSpaceOnUse">
<stop stop-color="#EB2163"/>
<stop offset="1" stop-color="#950552"/>
</linearGradient>
<linearGradient id="paint4_linear" x1="98.8386" y1="54.4063" x2="86.1025" y2="56.8436" gradientUnits="userSpaceOnUse">
<stop offset="0.645833" stop-color="#EB2163"/>
<stop offset="1" stop-color="#950552"/>
</linearGradient>
<linearGradient id="paint5_linear" x1="109.877" y1="30.2859" x2="60.9667" y2="70.4468" gradientUnits="userSpaceOnUse">
<stop stop-color="#EB2163"/>
<stop offset="1" stop-color="#950552"/>
</linearGradient>
<linearGradient id="paint6_linear" x1="157" y1="13.499" x2="68.7182" y2="148.998" gradientUnits="userSpaceOnUse">
<stop stop-color="#EB2163"/>
<stop offset="1" stop-color="#950552"/>
</linearGradient>
<linearGradient id="paint7_linear" x1="83.0135" y1="92.2736" x2="66.1809" y2="113.513" gradientUnits="userSpaceOnUse">
<stop offset="0.645833" stop-color="#EB2163"/>
<stop offset="1" stop-color="#950552"/>
</linearGradient>
<linearGradient id="paint8_linear" x1="119.493" y1="80.1837" x2="110.565" y2="128.521" gradientUnits="userSpaceOnUse">
<stop stop-color="#EB2163"/>
<stop offset="1" stop-color="#950552"/>
</linearGradient>
<linearGradient id="paint9_linear" x1="83.0137" y1="10.3791" x2="66.1812" y2="31.619" gradientUnits="userSpaceOnUse">
<stop offset="0.645833" stop-color="#EB2163"/>
<stop offset="1" stop-color="#950552"/>
</linearGradient>
<linearGradient id="paint10_linear" x1="119.494" y1="-1.71088" x2="110.566" y2="46.6261" gradientUnits="userSpaceOnUse">
<stop stop-color="#EB2163"/>
<stop offset="1" stop-color="#950552"/>
</linearGradient>
<linearGradient id="paint11_linear" x1="48.4547" y1="30.998" x2="44.9259" y2="32.2604" gradientUnits="userSpaceOnUse">
<stop offset="0.645833" stop-color="#EB2163"/>
<stop offset="1" stop-color="#950552"/>
</linearGradient>
<linearGradient id="paint12_linear" x1="51.7826" y1="27.1077" x2="44.4257" y2="38.3993" gradientUnits="userSpaceOnUse">
<stop stop-color="#EB2163"/>
<stop offset="1" stop-color="#950552"/>
</linearGradient>
</defs>
</svg>
