<svg width="119" height="119" viewBox="0 0 119 119" fill="none" xmlns="http://www.w3.org/2000/svg">
<path d="M116.188 55.2093C114.407 53.5522 111.983 52.5287 109.539 52.4005C106.764 52.2558 104.164 53.2538 102.227 55.2075L88.9955 68.4103C88.734 67.9535 88.4353 67.5223 88.1003 67.1222C86.4724 65.173 84.0919 64.1 81.3982 64.1H62.8752C59.3826 64.1 55.9752 63.6432 52.7485 62.7432C44.336 60.3967 36.2992 62.1106 29.5054 67.7026C26.7427 69.9768 24.7272 72.4506 23.4525 74.2541L20.1314 71.004C19.6947 70.5765 19.1027 70.3339 18.4935 70.3339C18.4881 70.3339 18.4836 70.3339 18.4781 70.3339C17.8471 70.3384 17.237 70.603 16.7994 71.0608L0.654247 87.9623C0.222087 88.4146 -0.0130583 89.0225 0.000560219 89.6506C0.0141787 90.2795 0.274746 90.8765 0.725971 91.3095L28.0328 117.529C28.4859 117.964 29.0669 118.181 29.6471 118.181C30.2563 118.181 30.8655 117.942 31.324 117.468L47.3184 100.921C47.7551 100.468 47.9975 99.8505 47.9857 99.2188C47.9739 98.5962 47.7152 97.9956 47.2721 97.5617L45.8794 96.1993L49.067 95.8377C50.9954 95.6116 52.9565 95.4971 54.8975 95.4971H83.0796C87.659 95.4971 91.5485 94.4873 94.6408 92.4951C94.6662 92.4786 94.6916 92.4612 94.717 92.4439C95.8247 91.6675 96.8297 90.7474 97.7031 89.7101L116.695 67.1799C119.945 63.3246 119.741 58.5135 116.188 55.2093ZM29.5862 112.502L5.65949 89.5279L18.5489 76.0339L42.3359 99.3112L29.5862 112.502ZM113.127 64.122L94.136 86.6531C93.5331 87.3682 92.8422 88.0035 92.0805 88.5419C89.759 90.0241 86.7312 90.7767 83.0796 90.7767H54.8966C52.7767 90.7767 50.6331 90.9021 48.535 91.1484L41.5278 91.9412L26.8562 77.5839C27.8758 76.0596 29.7506 73.5959 32.4661 71.3602C38.1114 66.7129 44.5157 65.3442 51.5002 67.2934C55.1336 68.3069 58.9604 68.8214 62.8752 68.8214H81.3982C84.7247 68.8214 85.6126 71.7273 85.6126 73.4439C85.6126 74.6982 85.2132 75.892 84.5168 76.7197C83.7614 77.616 82.6874 78.0701 81.3246 78.0701H65.2004C63.9075 78.0701 62.8598 79.1275 62.8598 80.4312C62.8598 81.7349 63.9075 82.7914 65.2004 82.7914H81.3246C84.0465 82.7914 86.447 81.7203 88.0849 79.7757C89.4476 78.1589 90.2248 76.033 90.2901 73.7607L105.529 58.5547C107.707 56.3583 111.11 56.9095 113.014 58.6801C113.998 59.5956 115.322 61.5192 113.127 64.122Z" fill="black"/>
<path d="M116.188 55.2093C114.407 53.5522 111.983 52.5287 109.539 52.4005C106.764 52.2558 104.164 53.2538 102.227 55.2075L88.9955 68.4103C88.734 67.9535 88.4353 67.5223 88.1003 67.1222C86.4724 65.173 84.0919 64.1 81.3982 64.1H62.8752C59.3826 64.1 55.9752 63.6432 52.7485 62.7432C44.336 60.3967 36.2992 62.1106 29.5054 67.7026C26.7427 69.9768 24.7272 72.4506 23.4525 74.2541L20.1314 71.004C19.6947 70.5765 19.1027 70.3339 18.4935 70.3339C18.4881 70.3339 18.4836 70.3339 18.4781 70.3339C17.8471 70.3384 17.237 70.603 16.7994 71.0608L0.654247 87.9623C0.222087 88.4146 -0.0130583 89.0225 0.000560219 89.6506C0.0141787 90.2795 0.274746 90.8765 0.725971 91.3095L28.0328 117.529C28.4859 117.964 29.0669 118.181 29.6471 118.181C30.2563 118.181 30.8655 117.942 31.324 117.468L47.3184 100.921C47.7551 100.468 47.9975 99.8505 47.9857 99.2188C47.9739 98.5962 47.7152 97.9956 47.2721 97.5617L45.8794 96.1993L49.067 95.8377C50.9954 95.6116 52.9565 95.4971 54.8975 95.4971H83.0796C87.659 95.4971 91.5485 94.4873 94.6408 92.4951C94.6662 92.4786 94.6916 92.4612 94.717 92.4439C95.8247 91.6675 96.8297 90.7474 97.7031 89.7101L116.695 67.1799C119.945 63.3246 119.741 58.5135 116.188 55.2093ZM29.5862 112.502L5.65949 89.5279L18.5489 76.0339L42.3359 99.3112L29.5862 112.502ZM113.127 64.122L94.136 86.6531C93.5331 87.3682 92.8422 88.0035 92.0805 88.5419C89.759 90.0241 86.7312 90.7767 83.0796 90.7767H54.8966C52.7767 90.7767 50.6331 90.9021 48.535 91.1484L41.5278 91.9412L26.8562 77.5839C27.8758 76.0596 29.7506 73.5959 32.4661 71.3602C38.1114 66.7129 44.5157 65.3442 51.5002 67.2934C55.1336 68.3069 58.9604 68.8214 62.8752 68.8214H81.3982C84.7247 68.8214 85.6126 71.7273 85.6126 73.4439C85.6126 74.6982 85.2132 75.892 84.5168 76.7197C83.7614 77.616 82.6874 78.0701 81.3246 78.0701H65.2004C63.9075 78.0701 62.8598 79.1275 62.8598 80.4312C62.8598 81.7349 63.9075 82.7914 65.2004 82.7914H81.3246C84.0465 82.7914 86.447 81.7203 88.0849 79.7757C89.4476 78.1589 90.2248 76.033 90.2901 73.7607L105.529 58.5547C107.707 56.3583 111.11 56.9095 113.014 58.6801C113.998 59.5956 115.322 61.5192 113.127 64.122Z" fill="url(#paint0_linear)"/>
<path d="M57.9015 79.8027C57.6064 78.5328 56.3472 77.7464 55.0879 78.043C53.8296 78.3406 53.0479 79.6104 53.3439 80.8803L53.3657 80.9764C53.619 82.064 54.5804 82.7983 55.6427 82.7983C55.8197 82.7983 55.9995 82.7781 56.1792 82.736C57.4385 82.4385 58.2193 81.1677 57.9242 79.8988L57.9015 79.8027Z" fill="black"/>
<path d="M57.9015 79.8027C57.6064 78.5328 56.3472 77.7464 55.0879 78.043C53.8296 78.3406 53.0479 79.6104 53.3439 80.8803L53.3657 80.9764C53.619 82.064 54.5804 82.7983 55.6427 82.7983C55.8197 82.7983 55.9995 82.7781 56.1792 82.736C57.4385 82.4385 58.2193 81.1677 57.9242 79.8988L57.9015 79.8027Z" fill="url(#paint1_linear)"/>
<path d="M18.8243 49.8047H41.6343C42.8763 49.8047 44.0257 49.3982 44.9608 48.7116C45.896 49.3982 47.0454 49.8047 48.2874 49.8047H71.0983C72.3403 49.8047 73.4897 49.3982 74.4249 48.7116C75.36 49.3982 76.5094 49.8047 77.7514 49.8047H100.561C103.686 49.8047 106.229 47.2403 106.229 44.0891V33.3627C106.229 28.5452 103.555 24.3604 99.5528 22.2958C101.492 19.9374 102.66 16.9125 102.66 13.6166C102.66 6.1084 96.6021 0 89.1564 0C81.7107 0 75.6532 6.1084 75.6532 13.6166C75.6532 16.9125 76.8208 19.9384 78.7601 22.2958C77.0305 23.1894 75.5497 24.4794 74.4249 26.044C73.3 24.4785 71.8192 23.1885 70.0887 22.2958C72.028 19.9384 73.1956 16.9125 73.1956 13.6166C73.1956 6.1084 67.1381 0 59.6924 0C52.2467 0 46.1892 6.1084 46.1892 13.6166C46.1892 16.9125 47.3577 19.9384 49.297 22.2968C47.5665 23.1894 46.0857 24.4794 44.9608 26.0449C43.8359 24.4794 42.3552 23.1894 40.6247 22.2958C42.564 19.9384 43.7315 16.9125 43.7315 13.6176C43.7315 6.1084 37.674 0 30.2284 0C22.7836 0 16.7261 6.1084 16.7261 13.6176C16.7261 16.9125 17.8937 19.9384 19.8329 22.2968C15.8309 24.3613 13.1562 28.5471 13.1562 33.3637V44.0891C13.1562 47.2403 15.6993 49.8047 18.8243 49.8047ZM89.1573 4.72138C94.0209 4.72138 97.9785 8.71125 97.9785 13.6166C97.9785 18.5211 94.0209 22.5119 89.1573 22.5119C84.2928 22.5119 80.3362 18.522 80.3362 13.6166C80.3353 8.71125 84.2928 4.72138 89.1573 4.72138ZM83.0753 25.7684C84.9047 26.7032 86.9702 27.2333 89.1564 27.2333C91.3435 27.2333 93.409 26.7032 95.2375 25.7684C98.8755 26.4075 101.547 29.5688 101.547 33.3627V44.0891C101.547 44.6375 101.105 45.0833 100.561 45.0833H77.7514C77.2085 45.0833 76.7663 44.6375 76.7663 44.0891V33.3627C76.7654 29.5697 79.4383 26.4075 83.0753 25.7684ZM59.6933 4.72138C64.5569 4.72138 68.5144 8.71125 68.5144 13.6166C68.5144 18.5211 64.5569 22.5119 59.6933 22.5119C54.8288 22.5119 50.8722 18.522 50.8722 13.6166C50.8722 8.71125 54.8288 4.72138 59.6933 4.72138ZM53.6122 25.7684C55.4407 26.7032 57.5062 27.2333 59.6933 27.2333C61.8804 27.2333 63.945 26.7032 65.7744 25.7684C69.4114 26.4075 72.0843 29.5688 72.0843 33.3627V44.0891C72.0843 44.6375 71.6422 45.0833 71.0983 45.0833H48.2883C47.7444 45.0833 47.3023 44.6375 47.3023 44.0891V33.3627C47.3023 29.5697 49.9752 26.4075 53.6122 25.7684ZM30.2293 4.72138C35.0929 4.72138 39.0504 8.71125 39.0504 13.6166C39.0504 18.5211 35.0929 22.5119 30.2293 22.5119C25.3657 22.5119 21.4081 18.5211 21.4081 13.6166C21.4081 8.71125 25.3657 4.72138 30.2293 4.72138ZM17.8383 33.3627C17.8383 29.5697 20.5111 26.4075 24.1482 25.7684C25.9776 26.7032 28.0422 27.2333 30.2293 27.2333C32.4164 27.2333 34.481 26.7032 36.3104 25.7684C39.9483 26.4075 42.6203 29.5688 42.6203 33.3627V44.0891C42.6203 44.6375 42.1781 45.0833 41.6343 45.0833H18.8243C18.2804 45.0833 17.8383 44.6375 17.8383 44.0891V33.3627Z" fill="black"/>
<path d="M18.8243 49.8047H41.6343C42.8763 49.8047 44.0257 49.3982 44.9608 48.7116C45.896 49.3982 47.0454 49.8047 48.2874 49.8047H71.0983C72.3403 49.8047 73.4897 49.3982 74.4249 48.7116C75.36 49.3982 76.5094 49.8047 77.7514 49.8047H100.561C103.686 49.8047 106.229 47.2403 106.229 44.0891V33.3627C106.229 28.5452 103.555 24.3604 99.5528 22.2958C101.492 19.9374 102.66 16.9125 102.66 13.6166C102.66 6.1084 96.6021 0 89.1564 0C81.7107 0 75.6532 6.1084 75.6532 13.6166C75.6532 16.9125 76.8208 19.9384 78.7601 22.2958C77.0305 23.1894 75.5497 24.4794 74.4249 26.044C73.3 24.4785 71.8192 23.1885 70.0887 22.2958C72.028 19.9384 73.1956 16.9125 73.1956 13.6166C73.1956 6.1084 67.1381 0 59.6924 0C52.2467 0 46.1892 6.1084 46.1892 13.6166C46.1892 16.9125 47.3577 19.9384 49.297 22.2968C47.5665 23.1894 46.0857 24.4794 44.9608 26.0449C43.8359 24.4794 42.3552 23.1894 40.6247 22.2958C42.564 19.9384 43.7315 16.9125 43.7315 13.6176C43.7315 6.1084 37.674 0 30.2284 0C22.7836 0 16.7261 6.1084 16.7261 13.6176C16.7261 16.9125 17.8937 19.9384 19.8329 22.2968C15.8309 24.3613 13.1562 28.5471 13.1562 33.3637V44.0891C13.1562 47.2403 15.6993 49.8047 18.8243 49.8047ZM89.1573 4.72138C94.0209 4.72138 97.9785 8.71125 97.9785 13.6166C97.9785 18.5211 94.0209 22.5119 89.1573 22.5119C84.2928 22.5119 80.3362 18.522 80.3362 13.6166C80.3353 8.71125 84.2928 4.72138 89.1573 4.72138ZM83.0753 25.7684C84.9047 26.7032 86.9702 27.2333 89.1564 27.2333C91.3435 27.2333 93.409 26.7032 95.2375 25.7684C98.8755 26.4075 101.547 29.5688 101.547 33.3627V44.0891C101.547 44.6375 101.105 45.0833 100.561 45.0833H77.7514C77.2085 45.0833 76.7663 44.6375 76.7663 44.0891V33.3627C76.7654 29.5697 79.4383 26.4075 83.0753 25.7684ZM59.6933 4.72138C64.5569 4.72138 68.5144 8.71125 68.5144 13.6166C68.5144 18.5211 64.5569 22.5119 59.6933 22.5119C54.8288 22.5119 50.8722 18.522 50.8722 13.6166C50.8722 8.71125 54.8288 4.72138 59.6933 4.72138ZM53.6122 25.7684C55.4407 26.7032 57.5062 27.2333 59.6933 27.2333C61.8804 27.2333 63.945 26.7032 65.7744 25.7684C69.4114 26.4075 72.0843 29.5688 72.0843 33.3627V44.0891C72.0843 44.6375 71.6422 45.0833 71.0983 45.0833H48.2883C47.7444 45.0833 47.3023 44.6375 47.3023 44.0891V33.3627C47.3023 29.5697 49.9752 26.4075 53.6122 25.7684ZM30.2293 4.72138C35.0929 4.72138 39.0504 8.71125 39.0504 13.6166C39.0504 18.5211 35.0929 22.5119 30.2293 22.5119C25.3657 22.5119 21.4081 18.5211 21.4081 13.6166C21.4081 8.71125 25.3657 4.72138 30.2293 4.72138ZM17.8383 33.3627C17.8383 29.5697 20.5111 26.4075 24.1482 25.7684C25.9776 26.7032 28.0422 27.2333 30.2293 27.2333C32.4164 27.2333 34.481 26.7032 36.3104 25.7684C39.9483 26.4075 42.6203 29.5688 42.6203 33.3627V44.0891C42.6203 44.6375 42.1781 45.0833 41.6343 45.0833H18.8243C18.2804 45.0833 17.8383 44.6375 17.8383 44.0891V33.3627Z" fill="url(#paint2_linear)"/>
<defs>
<linearGradient id="paint0_linear" x1="197.275" y1="44.6593" x2="125.288" y2="244.496" gradientUnits="userSpaceOnUse">
<stop stop-color="#EB2163"/>
<stop offset="1" stop-color="#950552"/>
</linearGradient>
<linearGradient id="paint1_linear" x1="61.0816" y1="77.4146" x2="53.4495" y2="88.8552" gradientUnits="userSpaceOnUse">
<stop stop-color="#EB2163"/>
<stop offset="1" stop-color="#950552"/>
</linearGradient>
<linearGradient id="paint2_linear" x1="167.449" y1="-5.84946" x2="114.323" y2="146.529" gradientUnits="userSpaceOnUse">
<stop stop-color="#EB2163"/>
<stop offset="1" stop-color="#950552"/>
</linearGradient>
</defs>
</svg>
