<svg width="112" height="98" viewBox="0 0 112 98" fill="none" xmlns="http://www.w3.org/2000/svg">
<path d="M102.667 0H9.33333C4.18086 0.00643719 0.00638022 4.21819 0 9.41667V73.45C0.00638022 78.6485 4.18086 82.8602 9.33333 82.8667H46.6667V79.1H9.33333C6.24076 79.1 3.73333 76.5702 3.73333 73.45V9.41667C3.73333 6.29648 6.24076 3.76667 9.33333 3.76667H102.667C105.759 3.76667 108.267 6.29648 108.267 9.41667V73.45C108.267 76.5702 105.759 79.1 102.667 79.1H100.8V82.8667H102.667C107.819 82.8602 111.994 78.6485 112 73.45V9.41667C111.994 4.21819 107.819 0.00643719 102.667 0Z" fill="black"/>
<path d="M102.667 0H9.33333C4.18086 0.00643719 0.00638022 4.21819 0 9.41667V73.45C0.00638022 78.6485 4.18086 82.8602 9.33333 82.8667H46.6667V79.1H9.33333C6.24076 79.1 3.73333 76.5702 3.73333 73.45V9.41667C3.73333 6.29648 6.24076 3.76667 9.33333 3.76667H102.667C105.759 3.76667 108.267 6.29648 108.267 9.41667V73.45C108.267 76.5702 105.759 79.1 102.667 79.1H100.8V82.8667H102.667C107.819 82.8602 111.994 78.6485 112 73.45V9.41667C111.994 4.21819 107.819 0.00643719 102.667 0Z" fill="url(#paint0_linear)"/>
<path d="M102.669 69.6832V9.41654C102.669 8.37647 101.833 7.5332 100.803 7.5332H11.2026C10.1717 7.5332 9.33594 8.37647 9.33594 9.41654V73.4499C9.33594 74.4899 10.1717 75.3332 11.2026 75.3332H59.7359V71.5665H13.0693V11.2999H98.9359V69.6832H102.669Z" fill="black"/>
<path d="M102.669 69.6832V9.41654C102.669 8.37647 101.833 7.5332 100.803 7.5332H11.2026C10.1717 7.5332 9.33594 8.37647 9.33594 9.41654V73.4499C9.33594 74.4899 10.1717 75.3332 11.2026 75.3332H59.7359V71.5665H13.0693V11.2999H98.9359V69.6832H102.669Z" fill="url(#paint1_linear)"/>
<path d="M16.8008 15.0664H20.5341V18.8331H16.8008V15.0664Z" fill="black"/>
<path d="M16.8008 15.0664H20.5341V18.8331H16.8008V15.0664Z" fill="url(#paint2_linear)"/>
<path d="M16.8008 22.6016H24.2674V26.3682H16.8008V22.6016Z" fill="black"/>
<path d="M16.8008 22.6016H24.2674V26.3682H16.8008V22.6016Z" fill="url(#paint3_linear)"/>
<path d="M16.8008 30.1328H24.2674V33.8995H16.8008V30.1328Z" fill="black"/>
<path d="M16.8008 30.1328H24.2674V33.8995H16.8008V30.1328Z" fill="url(#paint4_linear)"/>
<path d="M16.8008 37.668H24.2674V41.4346H16.8008V37.668Z" fill="black"/>
<path d="M16.8008 37.668H24.2674V41.4346H16.8008V37.668Z" fill="url(#paint5_linear)"/>
<path d="M16.8008 45.1992H24.2674V48.9659H16.8008V45.1992Z" fill="black"/>
<path d="M16.8008 45.1992H24.2674V48.9659H16.8008V45.1992Z" fill="url(#paint6_linear)"/>
<path d="M16.8008 52.7344H24.2674V56.501H16.8008V52.7344Z" fill="black"/>
<path d="M16.8008 52.7344H24.2674V56.501H16.8008V52.7344Z" fill="url(#paint7_linear)"/>
<path d="M16.8008 60.2656H24.2674V64.0323H16.8008V60.2656Z" fill="black"/>
<path d="M16.8008 60.2656H24.2674V64.0323H16.8008V60.2656Z" fill="url(#paint8_linear)"/>
<path d="M95.2021 45.2016H39.2021V40.3314L42.6465 36.8562L45.1156 40.5971C45.4237 41.0689 45.925 41.376 46.4819 41.4349H46.6687C47.1637 41.4349 47.6385 41.2363 47.9885 40.8831L56.0021 32.798L60.2823 37.1165C60.6496 37.4953 61.1618 37.6958 61.6859 37.6664C62.21 37.6416 62.7004 37.3969 63.0376 36.9923L70.9354 27.4267L78.8332 36.9923C79.1704 37.3969 79.6608 37.6416 80.1849 37.6664C80.7099 37.6977 81.2221 37.4972 81.5885 37.1165L85.8687 32.798L88.2823 35.2331C88.6605 35.6267 89.1937 35.8272 89.7342 35.7794C90.2747 35.7389 90.7715 35.464 91.095 35.0262L96.695 27.4929L93.7091 25.2325L89.4006 31.0297L87.1885 28.7978C86.4594 28.0621 85.2781 28.0621 84.549 28.7978L80.3936 32.9902L72.3673 23.2719C72 22.8627 71.4786 22.6292 70.9318 22.6292C70.3849 22.6292 69.8635 22.8627 69.4962 23.2719L61.4699 32.9902L57.3146 28.7978C56.5854 28.0621 55.4042 28.0621 54.675 28.7978L46.9504 36.5914L44.4812 32.8505C44.1704 32.3815 43.6682 32.0771 43.1113 32.0219C42.5553 31.9667 42.0039 32.1654 41.6083 32.5645L39.2021 35.0051V22.6016H35.4688V47.0849C35.4688 48.125 36.3046 48.9682 37.3354 48.9682H95.2021V45.2016Z" fill="black"/>
<path d="M95.2021 45.2016H39.2021V40.3314L42.6465 36.8562L45.1156 40.5971C45.4237 41.0689 45.925 41.376 46.4819 41.4349H46.6687C47.1637 41.4349 47.6385 41.2363 47.9885 40.8831L56.0021 32.798L60.2823 37.1165C60.6496 37.4953 61.1618 37.6958 61.6859 37.6664C62.21 37.6416 62.7004 37.3969 63.0376 36.9923L70.9354 27.4267L78.8332 36.9923C79.1704 37.3969 79.6608 37.6416 80.1849 37.6664C80.7099 37.6977 81.2221 37.4972 81.5885 37.1165L85.8687 32.798L88.2823 35.2331C88.6605 35.6267 89.1937 35.8272 89.7342 35.7794C90.2747 35.7389 90.7715 35.464 91.095 35.0262L96.695 27.4929L93.7091 25.2325L89.4006 31.0297L87.1885 28.7978C86.4594 28.0621 85.2781 28.0621 84.549 28.7978L80.3936 32.9902L72.3673 23.2719C72 22.8627 71.4786 22.6292 70.9318 22.6292C70.3849 22.6292 69.8635 22.8627 69.4962 23.2719L61.4699 32.9902L57.3146 28.7978C56.5854 28.0621 55.4042 28.0621 54.675 28.7978L46.9504 36.5914L44.4812 32.8505C44.1704 32.3815 43.6682 32.0771 43.1113 32.0219C42.5553 31.9667 42.0039 32.1654 41.6083 32.5645L39.2021 35.0051V22.6016H35.4688V47.0849C35.4688 48.125 36.3046 48.9682 37.3354 48.9682H95.2021V45.2016Z" fill="url(#paint9_linear)"/>
<path d="M35.4688 15.0664H46.6687V18.8331H35.4688V15.0664Z" fill="black"/>
<path d="M35.4688 15.0664H46.6687V18.8331H35.4688V15.0664Z" fill="url(#paint10_linear)"/>
<path d="M50.3984 15.0664H54.1318V18.8331H50.3984V15.0664Z" fill="black"/>
<path d="M50.3984 15.0664H54.1318V18.8331H50.3984V15.0664Z" fill="url(#paint11_linear)"/>
<path d="M35.4688 52.7344H42.9354V56.501H35.4688V52.7344Z" fill="black"/>
<path d="M35.4688 52.7344H42.9354V56.501H35.4688V52.7344Z" fill="url(#paint12_linear)"/>
<path d="M46.6641 52.7344H50.3974V56.501H46.6641V52.7344Z" fill="black"/>
<path d="M46.6641 52.7344H50.3974V56.501H46.6641V52.7344Z" fill="url(#paint13_linear)"/>
<path d="M35.4688 60.2656H42.9354V64.0323H35.4688V60.2656Z" fill="black"/>
<path d="M35.4688 60.2656H42.9354V64.0323H35.4688V60.2656Z" fill="url(#paint14_linear)"/>
<path d="M46.6641 60.2656H50.3974V64.0323H46.6641V60.2656Z" fill="black"/>
<path d="M46.6641 60.2656H50.3974V64.0323H46.6641V60.2656Z" fill="url(#paint15_linear)"/>
<path d="M57.8672 52.7344H61.6005V56.501H57.8672V52.7344Z" fill="black"/>
<path d="M57.8672 52.7344H61.6005V56.501H57.8672V52.7344Z" fill="url(#paint16_linear)"/>
<path d="M80.2656 52.7344H87.7323V56.501H80.2656V52.7344Z" fill="black"/>
<path d="M80.2656 52.7344H87.7323V56.501H80.2656V52.7344Z" fill="url(#paint17_linear)"/>
<path d="M91.4688 52.7344H95.2021V56.501H91.4688V52.7344Z" fill="black"/>
<path d="M91.4688 52.7344H95.2021V56.501H91.4688V52.7344Z" fill="url(#paint18_linear)"/>
<path d="M80.2656 60.2656H87.7323V64.0323H80.2656V60.2656Z" fill="black"/>
<path d="M80.2656 60.2656H87.7323V64.0323H80.2656V60.2656Z" fill="url(#paint19_linear)"/>
<path d="M91.4688 60.2656H95.2021V64.0323H91.4688V60.2656Z" fill="black"/>
<path d="M91.4688 60.2656H95.2021V64.0323H91.4688V60.2656Z" fill="url(#paint20_linear)"/>
<path d="M92.3978 69.7597C90.7691 69.4875 89.1038 69.951 87.8451 71.0288C87.8077 71.0591 87.7722 71.0913 87.7348 71.1253C85.6111 69.2015 82.3918 69.2015 80.2681 71.1253C78.7232 69.7901 76.6004 69.3652 74.6681 70.0044V60.4691C74.7037 57.6579 72.7377 55.2255 70.0015 54.6931C68.3754 54.4144 66.7093 54.8733 65.4496 55.9483C64.1891 57.0224 63.4636 58.6032 63.4645 60.2677V83.3082L58.5107 80.3103C56.9977 79.3879 55.1219 79.3171 53.5451 80.1217L53.2498 80.2689C51.631 81.0864 50.5555 82.7003 50.4142 84.5211C50.273 86.3419 51.0869 88.1048 52.5598 89.1678L64.2465 97.5876C64.5637 97.8148 64.9429 97.9352 65.3312 97.9343H95.1978C96.2287 97.9343 97.0645 97.0911 97.0645 96.051V75.5357C97.0991 72.7245 95.134 70.2922 92.3978 69.7597ZM93.3312 94.1677H65.9282L54.7282 86.0973C54.3198 85.8049 54.0929 85.3165 54.1312 84.8117C54.1694 84.3068 54.4666 83.859 54.915 83.6318L55.2085 83.4856C55.6442 83.2622 56.1628 83.2824 56.5802 83.5381L64.3623 88.2464C64.9392 88.5995 65.6602 88.6115 66.2472 88.2776C66.8351 87.9429 67.1987 87.3148 67.1978 86.6343V60.2677C67.1978 59.7141 67.4384 59.189 67.8568 58.8303C68.2797 58.4653 68.843 58.3117 69.3908 58.4128C70.3232 58.6427 70.9667 59.5016 70.9312 60.4691V75.3343C70.9312 76.3744 71.767 77.2177 72.7978 77.2177C73.8287 77.2177 74.6645 76.3744 74.6645 75.3343C74.6645 74.2943 75.5003 73.451 76.5312 73.451C77.562 73.451 78.3978 74.2943 78.3978 75.3343C78.3978 76.3744 79.2336 77.2177 80.2645 77.2177C81.2954 77.2177 82.1312 76.3744 82.1312 75.3343C82.1312 74.2943 82.967 73.451 83.9978 73.451C85.0287 73.451 85.8645 74.2943 85.8645 75.3343C85.8645 76.3744 86.7003 77.2177 87.7312 77.2177C88.762 77.2177 89.5978 76.3744 89.5978 75.3343C89.5978 74.7771 89.8421 74.2483 90.265 73.8906C90.6888 73.5319 91.2476 73.382 91.7908 73.4795C92.7232 73.7094 93.3667 74.5683 93.3312 75.5357V94.1677Z" fill="black"/>
<path d="M92.3978 69.7597C90.7691 69.4875 89.1038 69.951 87.8451 71.0288C87.8077 71.0591 87.7722 71.0913 87.7348 71.1253C85.6111 69.2015 82.3918 69.2015 80.2681 71.1253C78.7232 69.7901 76.6004 69.3652 74.6681 70.0044V60.4691C74.7037 57.6579 72.7377 55.2255 70.0015 54.6931C68.3754 54.4144 66.7093 54.8733 65.4496 55.9483C64.1891 57.0224 63.4636 58.6032 63.4645 60.2677V83.3082L58.5107 80.3103C56.9977 79.3879 55.1219 79.3171 53.5451 80.1217L53.2498 80.2689C51.631 81.0864 50.5555 82.7003 50.4142 84.5211C50.273 86.3419 51.0869 88.1048 52.5598 89.1678L64.2465 97.5876C64.5637 97.8148 64.9429 97.9352 65.3312 97.9343H95.1978C96.2287 97.9343 97.0645 97.0911 97.0645 96.051V75.5357C97.0991 72.7245 95.134 70.2922 92.3978 69.7597ZM93.3312 94.1677H65.9282L54.7282 86.0973C54.3198 85.8049 54.0929 85.3165 54.1312 84.8117C54.1694 84.3068 54.4666 83.859 54.915 83.6318L55.2085 83.4856C55.6442 83.2622 56.1628 83.2824 56.5802 83.5381L64.3623 88.2464C64.9392 88.5995 65.6602 88.6115 66.2472 88.2776C66.8351 87.9429 67.1987 87.3148 67.1978 86.6343V60.2677C67.1978 59.7141 67.4384 59.189 67.8568 58.8303C68.2797 58.4653 68.843 58.3117 69.3908 58.4128C70.3232 58.6427 70.9667 59.5016 70.9312 60.4691V75.3343C70.9312 76.3744 71.767 77.2177 72.7978 77.2177C73.8287 77.2177 74.6645 76.3744 74.6645 75.3343C74.6645 74.2943 75.5003 73.451 76.5312 73.451C77.562 73.451 78.3978 74.2943 78.3978 75.3343C78.3978 76.3744 79.2336 77.2177 80.2645 77.2177C81.2954 77.2177 82.1312 76.3744 82.1312 75.3343C82.1312 74.2943 82.967 73.451 83.9978 73.451C85.0287 73.451 85.8645 74.2943 85.8645 75.3343C85.8645 76.3744 86.7003 77.2177 87.7312 77.2177C88.762 77.2177 89.5978 76.3744 89.5978 75.3343C89.5978 74.7771 89.8421 74.2483 90.265 73.8906C90.6888 73.5319 91.2476 73.382 91.7908 73.4795C92.7232 73.7094 93.3667 74.5683 93.3312 75.5357V94.1677Z" fill="url(#paint21_linear)"/>
<path d="M28 15.0664H31.7333V67.7997H28V15.0664Z" fill="black"/>
<path d="M28 15.0664H31.7333V67.7997H28V15.0664Z" fill="url(#paint22_linear)"/>
<defs>
<linearGradient id="paint0_linear" x1="185.671" y1="-9.73252" x2="74.445" y2="221.001" gradientUnits="userSpaceOnUse">
<stop stop-color="#EB2163"/>
<stop offset="1" stop-color="#950552"/>
</linearGradient>
<linearGradient id="paint1_linear" x1="164.062" y1="-0.429764" x2="74.1021" y2="189.644" gradientUnits="userSpaceOnUse">
<stop stop-color="#EB2163"/>
<stop offset="1" stop-color="#950552"/>
</linearGradient>
<linearGradient id="paint2_linear" x1="22.9898" y1="14.624" x2="17.0571" y2="23.6492" gradientUnits="userSpaceOnUse">
<stop stop-color="#EB2163"/>
<stop offset="1" stop-color="#950552"/>
</linearGradient>
<linearGradient id="paint3_linear" x1="29.1789" y1="22.1592" x2="25.3449" y2="33.8241" gradientUnits="userSpaceOnUse">
<stop stop-color="#EB2163"/>
<stop offset="1" stop-color="#950552"/>
</linearGradient>
<linearGradient id="paint4_linear" x1="29.1789" y1="29.6904" x2="25.3449" y2="41.3553" gradientUnits="userSpaceOnUse">
<stop stop-color="#EB2163"/>
<stop offset="1" stop-color="#950552"/>
</linearGradient>
<linearGradient id="paint5_linear" x1="29.1789" y1="37.2256" x2="25.3449" y2="48.8905" gradientUnits="userSpaceOnUse">
<stop stop-color="#EB2163"/>
<stop offset="1" stop-color="#950552"/>
</linearGradient>
<linearGradient id="paint6_linear" x1="29.1789" y1="44.7568" x2="25.3449" y2="56.4217" gradientUnits="userSpaceOnUse">
<stop stop-color="#EB2163"/>
<stop offset="1" stop-color="#950552"/>
</linearGradient>
<linearGradient id="paint7_linear" x1="29.1789" y1="52.292" x2="25.3449" y2="63.9569" gradientUnits="userSpaceOnUse">
<stop stop-color="#EB2163"/>
<stop offset="1" stop-color="#950552"/>
</linearGradient>
<linearGradient id="paint8_linear" x1="29.1789" y1="59.8232" x2="25.3449" y2="71.4881" gradientUnits="userSpaceOnUse">
<stop stop-color="#EB2163"/>
<stop offset="1" stop-color="#950552"/>
</linearGradient>
<linearGradient id="paint9_linear" x1="136.968" y1="19.5049" x2="113.436" y2="103.377" gradientUnits="userSpaceOnUse">
<stop stop-color="#EB2163"/>
<stop offset="1" stop-color="#950552"/>
</linearGradient>
<linearGradient id="paint10_linear" x1="54.0359" y1="14.624" x2="51.3335" y2="26.9569" gradientUnits="userSpaceOnUse">
<stop stop-color="#EB2163"/>
<stop offset="1" stop-color="#950552"/>
</linearGradient>
<linearGradient id="paint11_linear" x1="56.5875" y1="14.624" x2="50.6548" y2="23.6492" gradientUnits="userSpaceOnUse">
<stop stop-color="#EB2163"/>
<stop offset="1" stop-color="#950552"/>
</linearGradient>
<linearGradient id="paint12_linear" x1="47.8468" y1="52.292" x2="44.0129" y2="63.9569" gradientUnits="userSpaceOnUse">
<stop stop-color="#EB2163"/>
<stop offset="1" stop-color="#950552"/>
</linearGradient>
<linearGradient id="paint13_linear" x1="52.8531" y1="52.292" x2="46.9204" y2="61.3172" gradientUnits="userSpaceOnUse">
<stop stop-color="#EB2163"/>
<stop offset="1" stop-color="#950552"/>
</linearGradient>
<linearGradient id="paint14_linear" x1="47.8468" y1="59.8232" x2="44.0129" y2="71.4881" gradientUnits="userSpaceOnUse">
<stop stop-color="#EB2163"/>
<stop offset="1" stop-color="#950552"/>
</linearGradient>
<linearGradient id="paint15_linear" x1="52.8531" y1="59.8232" x2="46.9204" y2="68.8484" gradientUnits="userSpaceOnUse">
<stop stop-color="#EB2163"/>
<stop offset="1" stop-color="#950552"/>
</linearGradient>
<linearGradient id="paint16_linear" x1="64.0562" y1="52.292" x2="58.1236" y2="61.3172" gradientUnits="userSpaceOnUse">
<stop stop-color="#EB2163"/>
<stop offset="1" stop-color="#950552"/>
</linearGradient>
<linearGradient id="paint17_linear" x1="92.6437" y1="52.292" x2="88.8098" y2="63.9569" gradientUnits="userSpaceOnUse">
<stop stop-color="#EB2163"/>
<stop offset="1" stop-color="#950552"/>
</linearGradient>
<linearGradient id="paint18_linear" x1="97.6578" y1="52.292" x2="91.7251" y2="61.3172" gradientUnits="userSpaceOnUse">
<stop stop-color="#EB2163"/>
<stop offset="1" stop-color="#950552"/>
</linearGradient>
<linearGradient id="paint19_linear" x1="92.6437" y1="59.8232" x2="88.8098" y2="71.4881" gradientUnits="userSpaceOnUse">
<stop stop-color="#EB2163"/>
<stop offset="1" stop-color="#950552"/>
</linearGradient>
<linearGradient id="paint20_linear" x1="97.6578" y1="59.8232" x2="91.7251" y2="68.8484" gradientUnits="userSpaceOnUse">
<stop stop-color="#EB2163"/>
<stop offset="1" stop-color="#950552"/>
</linearGradient>
<linearGradient id="paint21_linear" x1="127.761" y1="49.5253" x2="61.9331" y2="158.364" gradientUnits="userSpaceOnUse">
<stop stop-color="#EB2163"/>
<stop offset="1" stop-color="#950552"/>
</linearGradient>
<linearGradient id="paint22_linear" x1="34.189" y1="8.87299" x2="14.7561" y2="10.9846" gradientUnits="userSpaceOnUse">
<stop stop-color="#EB2163"/>
<stop offset="1" stop-color="#950552"/>
</linearGradient>
</defs>
</svg>
