<svg width="104" height="121" viewBox="0 0 104 121" fill="none" xmlns="http://www.w3.org/2000/svg">
<path d="M0 32.002V86.002C0.00661224 91.5221 4.47989 95.9954 10 96.002H30C30.6283 96.007 31.2191 96.3023 31.6 96.802L47.384 117.842C48.5375 119.225 50.2502 120.018 52.0509 120.002C53.8516 119.987 55.5505 119.165 56.68 117.762L72.4 96.802C72.7816 96.303 73.3719 96.0079 74 96.002H94C99.5201 95.9954 103.993 91.5221 104 86.002V32.002C103.993 26.4819 99.5201 22.0086 94 22.002H80.896C77.1717 8.47961 64.5632 -0.648222 50.554 0.0360195C37.6242 0.685323 26.559 9.53214 23.08 22.002H10C4.47989 22.0086 0.00661224 26.4819 0 32.002H0ZM50.742 4.03202C57.8477 3.68781 64.7841 6.27022 69.9347 11.1774C75.0853 16.0846 78.0001 22.888 78 30.002C78.0273 37.1944 75.0393 44.0691 69.762 48.956C64.7239 53.8169 61.9154 60.5417 62 67.542V70.002H42V67.878C42.0871 60.7256 39.2417 53.8495 34.126 48.85C26.561 41.6944 24.0003 30.7126 27.6201 20.9489C31.2399 11.1851 40.3406 4.52673 50.742 4.03202ZM58 84.002H46C43.7909 84.002 42 82.2112 42 80.002V74.002H62V80.002C62 82.2112 60.2092 84.002 58 84.002ZM4 32.002C4 28.6883 6.68629 26.002 10 26.002H22.294C22.238 26.42 22.16 26.832 22.124 27.256C21.2714 36.412 24.6852 45.4501 31.378 51.756C35.6959 55.9992 38.0888 61.8249 38 67.878V80.002C38.0136 83.6389 40.4786 86.8088 44 87.718V90.002C44 91.1066 44.8954 92.002 46 92.002C47.1046 92.002 48 91.1066 48 90.002V88.002H56V90.002C56 91.1066 56.8954 92.002 58 92.002C59.1046 92.002 60 91.1066 60 90.002V87.718C63.5214 86.8088 65.9864 83.6389 66 80.002V67.542C65.9128 61.6487 68.2626 55.9809 72.494 51.878C78.5845 46.2377 82.0325 38.303 82 30.002C81.9901 28.6637 81.8918 27.3274 81.706 26.002H94C97.3137 26.002 100 28.6883 100 32.002V86.002C100 89.3157 97.3137 92.002 94 92.002H74C72.1136 92.0111 70.3391 92.8983 69.2 94.402L53.544 115.284C52.7303 116.14 51.3778 116.175 50.52 115.364L34.8 94.402C33.6616 92.8976 31.8866 92.0101 30 92.002H10C6.68629 92.002 4 89.3157 4 86.002V32.002Z" fill="black"/>
<path d="M0 32.002V86.002C0.00661224 91.5221 4.47989 95.9954 10 96.002H30C30.6283 96.007 31.2191 96.3023 31.6 96.802L47.384 117.842C48.5375 119.225 50.2502 120.018 52.0509 120.002C53.8516 119.987 55.5505 119.165 56.68 117.762L72.4 96.802C72.7816 96.303 73.3719 96.0079 74 96.002H94C99.5201 95.9954 103.993 91.5221 104 86.002V32.002C103.993 26.4819 99.5201 22.0086 94 22.002H80.896C77.1717 8.47961 64.5632 -0.648222 50.554 0.0360195C37.6242 0.685323 26.559 9.53214 23.08 22.002H10C4.47989 22.0086 0.00661224 26.4819 0 32.002H0ZM50.742 4.03202C57.8477 3.68781 64.7841 6.27022 69.9347 11.1774C75.0853 16.0846 78.0001 22.888 78 30.002C78.0273 37.1944 75.0393 44.0691 69.762 48.956C64.7239 53.8169 61.9154 60.5417 62 67.542V70.002H42V67.878C42.0871 60.7256 39.2417 53.8495 34.126 48.85C26.561 41.6944 24.0003 30.7126 27.6201 20.9489C31.2399 11.1851 40.3406 4.52673 50.742 4.03202ZM58 84.002H46C43.7909 84.002 42 82.2112 42 80.002V74.002H62V80.002C62 82.2112 60.2092 84.002 58 84.002ZM4 32.002C4 28.6883 6.68629 26.002 10 26.002H22.294C22.238 26.42 22.16 26.832 22.124 27.256C21.2714 36.412 24.6852 45.4501 31.378 51.756C35.6959 55.9992 38.0888 61.8249 38 67.878V80.002C38.0136 83.6389 40.4786 86.8088 44 87.718V90.002C44 91.1066 44.8954 92.002 46 92.002C47.1046 92.002 48 91.1066 48 90.002V88.002H56V90.002C56 91.1066 56.8954 92.002 58 92.002C59.1046 92.002 60 91.1066 60 90.002V87.718C63.5214 86.8088 65.9864 83.6389 66 80.002V67.542C65.9128 61.6487 68.2626 55.9809 72.494 51.878C78.5845 46.2377 82.0325 38.303 82 30.002C81.9901 28.6637 81.8918 27.3274 81.706 26.002H94C97.3137 26.002 100 28.6883 100 32.002V86.002C100 89.3157 97.3137 92.002 94 92.002H74C72.1136 92.0111 70.3391 92.8983 69.2 94.402L53.544 115.284C52.7303 116.14 51.3778 116.175 50.52 115.364L34.8 94.402C33.6616 92.8976 31.8866 92.0101 30 92.002H10C6.68629 92.002 4 89.3157 4 86.002V32.002Z" fill="url(#paint0_linear)"/>
<path d="M48 56.002C46.8954 56.002 46 56.8974 46 58.002V64.002C46 65.1065 46.8954 66.002 48 66.002C49.1046 66.002 50 65.1065 50 64.002V58.002C50 56.8974 49.1046 56.002 48 56.002Z" fill="black"/>
<path d="M48 56.002C46.8954 56.002 46 56.8974 46 58.002V64.002C46 65.1065 46.8954 66.002 48 66.002C49.1046 66.002 50 65.1065 50 64.002V58.002C50 56.8974 49.1046 56.002 48 56.002Z" fill="url(#paint1_linear)"/>
<path d="M46 48.002C46 49.1065 46.8954 50.002 48 50.002C49.1046 50.002 50 49.1065 50 48.002V46.002C50 44.8974 49.1046 44.002 48 44.002C46.8954 44.002 46 44.8974 46 46.002V48.002Z" fill="black"/>
<path d="M46 48.002C46 49.1065 46.8954 50.002 48 50.002C49.1046 50.002 50 49.1065 50 48.002V46.002C50 44.8974 49.1046 44.002 48 44.002C46.8954 44.002 46 44.8974 46 46.002V48.002Z" fill="url(#paint2_linear)"/>
<path d="M56 66.002C57.1046 66.002 58 65.1065 58 64.002V58.002C58 56.8974 57.1046 56.002 56 56.002C54.8954 56.002 54 56.8974 54 58.002V64.002C54 65.1065 54.8954 66.002 56 66.002Z" fill="black"/>
<path d="M56 66.002C57.1046 66.002 58 65.1065 58 64.002V58.002C58 56.8974 57.1046 56.002 56 56.002C54.8954 56.002 54 56.8974 54 58.002V64.002C54 65.1065 54.8954 66.002 56 66.002Z" fill="url(#paint3_linear)"/>
<path d="M56 50.002C57.1046 50.002 58 49.1065 58 48.002V46.002C58 44.8974 57.1046 44.002 56 44.002C54.8954 44.002 54 44.8974 54 46.002V48.002C54 49.1065 54.8954 50.002 56 50.002Z" fill="black"/>
<path d="M56 50.002C57.1046 50.002 58 49.1065 58 48.002V46.002C58 44.8974 57.1046 44.002 56 44.002C54.8954 44.002 54 44.8974 54 46.002V48.002C54 49.1065 54.8954 50.002 56 50.002Z" fill="url(#paint4_linear)"/>
<path d="M20.0007 14.0026C20.8503 14.003 21.6074 13.4666 21.8888 12.6649C22.1701 11.8632 21.9142 10.9712 21.2507 10.4406L11.2507 2.44061C10.388 1.75026 9.12902 1.88994 8.43866 2.75261C7.7483 3.61528 7.88799 4.87426 8.75066 5.56461L18.7507 13.5646C19.1055 13.8483 19.5463 14.0028 20.0007 14.0026Z" fill="black"/>
<path d="M20.0007 14.0026C20.8503 14.003 21.6074 13.4666 21.8888 12.6649C22.1701 11.8632 21.9142 10.9712 21.2507 10.4406L11.2507 2.44061C10.388 1.75026 9.12902 1.88994 8.43866 2.75261C7.7483 3.61528 7.88799 4.87426 8.75066 5.56461L18.7507 13.5646C19.1055 13.8483 19.5463 14.0028 20.0007 14.0026Z" fill="url(#paint5_linear)"/>
<path d="M85.2506 13.5646L95.2506 5.56461C96.1133 4.87426 96.253 3.61528 95.5626 2.75261C94.8723 1.88994 93.6133 1.75026 92.7506 2.44061L82.7506 10.4406C82.1926 10.8872 81.9152 11.5976 82.0229 12.3041C82.1306 13.0107 82.6071 13.6062 83.2729 13.8661C83.9387 14.1261 84.6926 14.0112 85.2506 13.5646Z" fill="black"/>
<path d="M85.2506 13.5646L95.2506 5.56461C96.1133 4.87426 96.253 3.61528 95.5626 2.75261C94.8723 1.88994 93.6133 1.75026 92.7506 2.44061L82.7506 10.4406C82.1926 10.8872 81.9152 11.5976 82.0229 12.3041C82.1306 13.0107 82.6071 13.6062 83.2729 13.8661C83.9387 14.1261 84.6926 14.0112 85.2506 13.5646Z" fill="url(#paint6_linear)"/>
<path d="M8.43883 71.2526C8.77026 71.667 9.25279 71.9327 9.78019 71.9912C10.3076 72.0497 10.8366 71.8963 11.2508 71.5646L21.2508 63.5646C22.1135 62.8743 22.2532 61.6153 21.5628 60.7526C20.8725 59.8899 19.6135 59.7503 18.7508 60.4406L8.75083 68.4406C8.33643 68.772 8.07072 69.2546 8.0122 69.782C7.95369 70.3094 8.10716 70.8384 8.43883 71.2526Z" fill="black"/>
<path d="M8.43883 71.2526C8.77026 71.667 9.25279 71.9327 9.78019 71.9912C10.3076 72.0497 10.8366 71.8963 11.2508 71.5646L21.2508 63.5646C22.1135 62.8743 22.2532 61.6153 21.5628 60.7526C20.8725 59.8899 19.6135 59.7503 18.7508 60.4406L8.75083 68.4406C8.33643 68.772 8.07072 69.2546 8.0122 69.782C7.95369 70.3094 8.10716 70.8384 8.43883 71.2526Z" fill="url(#paint7_linear)"/>
<path d="M92.7507 71.5646C93.6133 72.255 94.8723 72.1153 95.5627 71.2526C96.253 70.3899 96.1133 69.131 95.2507 68.4406L85.2507 60.4406C84.388 59.7503 83.129 59.8899 82.4387 60.7526C81.7483 61.6153 81.888 62.8743 82.7507 63.5646L92.7507 71.5646Z" fill="black"/>
<path d="M92.7507 71.5646C93.6133 72.255 94.8723 72.1153 95.5627 71.2526C96.253 70.3899 96.1133 69.131 95.2507 68.4406L85.2507 60.4406C84.388 59.7503 83.129 59.8899 82.4387 60.7526C81.7483 61.6153 81.888 62.8743 82.7507 63.5646L92.7507 71.5646Z" fill="url(#paint8_linear)"/>
<path d="M33.6166 25.9638C33.7424 25.989 33.8703 26.0017 33.9986 26.0018C34.9553 26.0001 35.7768 25.3211 35.9586 24.3818C37.3926 17.0158 44.6866 13.8798 44.7586 13.8498C45.7798 13.4284 46.266 12.2589 45.8446 11.2378C45.4232 10.2166 44.2538 9.73037 43.2326 10.1518C42.8506 10.3078 33.8806 14.0998 32.0326 23.6218C31.8237 24.7058 32.5327 25.7541 33.6166 25.9638Z" fill="black"/>
<path d="M33.6166 25.9638C33.7424 25.989 33.8703 26.0017 33.9986 26.0018C34.9553 26.0001 35.7768 25.3211 35.9586 24.3818C37.3926 17.0158 44.6866 13.8798 44.7586 13.8498C45.7798 13.4284 46.266 12.2589 45.8446 11.2378C45.4232 10.2166 44.2538 9.73037 43.2326 10.1518C42.8506 10.3078 33.8806 14.0998 32.0326 23.6218C31.8237 24.7058 32.5327 25.7541 33.6166 25.9638Z" fill="url(#paint9_linear)"/>
<path d="M10 36.002H16C17.1046 36.002 18 35.1065 18 34.002C18 32.8974 17.1046 32.002 16 32.002H10C8.89543 32.002 8 32.8974 8 34.002C8 35.1065 8.89543 36.002 10 36.002Z" fill="black"/>
<path d="M10 36.002H16C17.1046 36.002 18 35.1065 18 34.002C18 32.8974 17.1046 32.002 16 32.002H10C8.89543 32.002 8 32.8974 8 34.002C8 35.1065 8.89543 36.002 10 36.002Z" fill="url(#paint10_linear)"/>
<path d="M88 36.002H94C95.1046 36.002 96 35.1065 96 34.002C96 32.8974 95.1046 32.002 94 32.002H88C86.8954 32.002 86 32.8974 86 34.002C86 35.1065 86.8954 36.002 88 36.002Z" fill="black"/>
<path d="M88 36.002H94C95.1046 36.002 96 35.1065 96 34.002C96 32.8974 95.1046 32.002 94 32.002H88C86.8954 32.002 86 32.8974 86 34.002C86 35.1065 86.8954 36.002 88 36.002Z" fill="url(#paint11_linear)"/>
<defs>
<linearGradient id="paint0_linear" x1="172.409" y1="-14.094" x2="-25.3757" y2="248.995" gradientUnits="userSpaceOnUse">
<stop stop-color="#EB2163"/>
<stop offset="1" stop-color="#950552"/>
</linearGradient>
<linearGradient id="paint1_linear" x1="52.6311" y1="54.8275" x2="37.3311" y2="64.2207" gradientUnits="userSpaceOnUse">
<stop stop-color="#EB2163"/>
<stop offset="1" stop-color="#950552"/>
</linearGradient>
<linearGradient id="paint2_linear" x1="52.6311" y1="43.2973" x2="42.3396" y2="53.8279" gradientUnits="userSpaceOnUse">
<stop stop-color="#EB2163"/>
<stop offset="1" stop-color="#950552"/>
</linearGradient>
<linearGradient id="paint3_linear" x1="60.6311" y1="54.8275" x2="45.3311" y2="64.2208" gradientUnits="userSpaceOnUse">
<stop stop-color="#EB2163"/>
<stop offset="1" stop-color="#950552"/>
</linearGradient>
<linearGradient id="paint4_linear" x1="60.6311" y1="43.2973" x2="50.3396" y2="53.8279" gradientUnits="userSpaceOnUse">
<stop stop-color="#EB2163"/>
<stop offset="1" stop-color="#950552"/>
</linearGradient>
<linearGradient id="paint5_linear" x1="31.2117" y1="0.592501" x2="13.6826" y2="31.9833" gradientUnits="userSpaceOnUse">
<stop stop-color="#EB2163"/>
<stop offset="1" stop-color="#950552"/>
</linearGradient>
<linearGradient id="paint6_linear" x1="105.211" y1="0.592429" x2="87.6802" y2="31.9836" gradientUnits="userSpaceOnUse">
<stop stop-color="#EB2163"/>
<stop offset="1" stop-color="#950552"/>
</linearGradient>
<linearGradient id="paint7_linear" x1="31.2114" y1="58.5924" x2="13.6803" y2="89.9841" gradientUnits="userSpaceOnUse">
<stop stop-color="#EB2163"/>
<stop offset="1" stop-color="#950552"/>
</linearGradient>
<linearGradient id="paint8_linear" x1="105.211" y1="58.5924" x2="87.6802" y2="89.9837" gradientUnits="userSpaceOnUse">
<stop stop-color="#EB2163"/>
<stop offset="1" stop-color="#950552"/>
</linearGradient>
<linearGradient id="paint9_linear" x1="55.2054" y1="8.12063" x2="28.9023" y2="43.4423" gradientUnits="userSpaceOnUse">
<stop stop-color="#EB2163"/>
<stop offset="1" stop-color="#950552"/>
</linearGradient>
<linearGradient id="paint10_linear" x1="24.5778" y1="31.5322" x2="21.2282" y2="44.3849" gradientUnits="userSpaceOnUse">
<stop stop-color="#EB2163"/>
<stop offset="1" stop-color="#950552"/>
</linearGradient>
<linearGradient id="paint11_linear" x1="102.578" y1="31.5322" x2="99.2282" y2="44.3849" gradientUnits="userSpaceOnUse">
<stop stop-color="#EB2163"/>
<stop offset="1" stop-color="#950552"/>
</linearGradient>
</defs>
</svg>
