<svg width="167" height="101" viewBox="0 0 167 101" fill="none" xmlns="http://www.w3.org/2000/svg">
<path d="M24.4771 41.0648C23.8499 41.2648 23.2109 41.189 22.6848 40.9044C22.1585 40.6196 21.7457 40.1263 21.5699 39.4919C19.5603 32.2314 13.3028 26.0167 8.1163 22.6213C7.03594 21.9141 6.75049 20.4269 7.47822 19.2999C8.20627 18.1727 9.66819 17.8347 10.7522 18.5395C16.6342 22.3901 23.758 29.5354 26.1124 38.0421C26.4637 39.3111 25.7315 40.6645 24.4771 41.0648Z" fill="black"/>
<path d="M24.4771 41.0648C23.8499 41.2648 23.2109 41.189 22.6848 40.9044C22.1585 40.6196 21.7457 40.1263 21.5699 39.4919C19.5603 32.2314 13.3028 26.0167 8.1163 22.6213C7.03594 21.9141 6.75049 20.4269 7.47822 19.2999C8.20627 18.1727 9.66819 17.8347 10.7522 18.5395C16.6342 22.3901 23.758 29.5354 26.1124 38.0421C26.4637 39.3111 25.7315 40.6645 24.4771 41.0648Z" fill="url(#paint0_linear)"/>
<path d="M3.89314 14.9658C3.96224 14.9818 4.03229 14.9986 4.10275 15.0161C5.3992 15.3413 6.16754 16.6765 5.81957 17.9976C5.47139 19.3186 4.13818 20.1259 2.84197 19.8003L2.7178 19.7703C2.50586 19.7213 2.30733 19.6454 2.12498 19.5467C1.18685 19.0392 0.675361 17.933 0.94718 16.8222C1.2718 15.4955 2.59047 14.6644 3.89314 14.9658Z" fill="black"/>
<path d="M3.89314 14.9658C3.96224 14.9818 4.03229 14.9986 4.10275 15.0161C5.3992 15.3413 6.16754 16.6765 5.81957 17.9976C5.47139 19.3186 4.13818 20.1259 2.84197 19.8003L2.7178 19.7703C2.50586 19.7213 2.30733 19.6454 2.12498 19.5467C1.18685 19.0392 0.675361 17.933 0.94718 16.8222C1.2718 15.4955 2.59047 14.6644 3.89314 14.9658Z" fill="url(#paint1_linear)"/>
<path d="M5.32422 51.3752H7.64866V53.7188C7.64866 55.0132 8.68945 56.0625 9.97288 56.0625C11.2565 56.0625 12.2971 55.0132 12.2971 53.7188V51.3752H14.6211C15.9045 51.3752 16.9453 50.3257 16.9453 49.0315C16.9453 47.7373 15.9045 46.6877 14.6211 46.6877H12.2971V44.3438C12.2971 43.0495 11.2565 42 9.97288 42C8.68945 42 7.64866 43.0495 7.64866 44.3438V46.6877H5.32422C4.04079 46.6877 3 47.7373 3 49.0315C3 50.3259 4.04079 51.3752 5.32422 51.3752Z" fill="black"/>
<path d="M5.32422 51.3752H7.64866V53.7188C7.64866 55.0132 8.68945 56.0625 9.97288 56.0625C11.2565 56.0625 12.2971 55.0132 12.2971 53.7188V51.3752H14.6211C15.9045 51.3752 16.9453 50.3257 16.9453 49.0315C16.9453 47.7373 15.9045 46.6877 14.6211 46.6877H12.2971V44.3438C12.2971 43.0495 11.2565 42 9.97288 42C8.68945 42 7.64866 43.0495 7.64866 44.3438V46.6877H5.32422C4.04079 46.6877 3 47.7373 3 49.0315C3 50.3259 4.04079 51.3752 5.32422 51.3752Z" fill="url(#paint2_linear)"/>
<path d="M158.621 31.3027H156.297V28.959C156.297 27.6648 155.256 26.6152 153.973 26.6152C152.689 26.6152 151.648 27.6648 151.648 28.959V31.3027H149.324C148.041 31.3027 147 32.3523 147 33.6465C147 34.9407 148.041 35.9902 149.324 35.9902H151.648V38.334C151.648 39.6282 152.689 40.6777 153.973 40.6777C155.256 40.6777 156.297 39.6282 156.297 38.334V35.9902H158.621C159.905 35.9902 160.945 34.9407 160.945 33.6465C160.945 32.3523 159.905 31.3027 158.621 31.3027Z" fill="black"/>
<path d="M158.621 31.3027H156.297V28.959C156.297 27.6648 155.256 26.6152 153.973 26.6152C152.689 26.6152 151.648 27.6648 151.648 28.959V31.3027H149.324C148.041 31.3027 147 32.3523 147 33.6465C147 34.9407 148.041 35.9902 149.324 35.9902H151.648V38.334C151.648 39.6282 152.689 40.6777 153.973 40.6777C155.256 40.6777 156.297 39.6282 156.297 38.334V35.9902H158.621C159.905 35.9902 160.945 34.9407 160.945 33.6465C160.945 32.3523 159.905 31.3027 158.621 31.3027Z" fill="url(#paint3_linear)"/>
<path d="M147.973 24.0625C151.817 24.0625 154.945 20.9083 154.945 17.0312C154.945 13.1542 151.817 10 147.973 10C144.128 10 141 13.1542 141 17.0312C141 20.9083 144.128 24.0625 147.973 24.0625ZM147.973 14.6875C149.254 14.6875 150.297 15.7389 150.297 17.0312C150.297 18.3236 149.254 19.375 147.973 19.375C146.691 19.375 145.648 18.3236 145.648 17.0312C145.648 15.7389 146.691 14.6875 147.973 14.6875Z" fill="black"/>
<path d="M147.973 24.0625C151.817 24.0625 154.945 20.9083 154.945 17.0312C154.945 13.1542 151.817 10 147.973 10C144.128 10 141 13.1542 141 17.0312C141 20.9083 144.128 24.0625 147.973 24.0625ZM147.973 14.6875C149.254 14.6875 150.297 15.7389 150.297 17.0312C150.297 18.3236 149.254 19.375 147.973 19.375C146.691 19.375 145.648 18.3236 145.648 17.0312C145.648 15.7389 146.691 14.6875 147.973 14.6875Z" fill="url(#paint4_linear)"/>
<path d="M23.9727 8C20.1279 8 17 11.1542 17 15.0312C17 18.9083 20.1279 22.0625 23.9727 22.0625C27.8174 22.0625 30.9453 18.9083 30.9453 15.0312C30.9453 11.1542 27.8171 8 23.9727 8ZM23.9727 17.375C22.6911 17.375 21.6484 16.3236 21.6484 15.0312C21.6484 13.7389 22.6911 12.6875 23.9727 12.6875C25.2542 12.6875 26.2969 13.7389 26.2969 15.0312C26.2969 16.3236 25.2542 17.375 23.9727 17.375Z" fill="black"/>
<path d="M23.9727 8C20.1279 8 17 11.1542 17 15.0312C17 18.9083 20.1279 22.0625 23.9727 22.0625C27.8174 22.0625 30.9453 18.9083 30.9453 15.0312C30.9453 11.1542 27.8171 8 23.9727 8ZM23.9727 17.375C22.6911 17.375 21.6484 16.3236 21.6484 15.0312C21.6484 13.7389 22.6911 12.6875 23.9727 12.6875C25.2542 12.6875 26.2969 13.7389 26.2969 15.0312C26.2969 16.3236 25.2542 17.375 23.9727 17.375Z" fill="url(#paint5_linear)"/>
<path d="M159.246 2.34375C159.246 1.05281 158.202 0 156.922 0C155.642 0 154.598 1.05281 154.598 2.34375C154.598 3.63469 155.642 4.6875 156.922 4.6875C158.202 4.6875 159.246 3.63445 159.246 2.34375Z" fill="black"/>
<path d="M159.246 2.34375C159.246 1.05281 158.202 0 156.922 0C155.642 0 154.598 1.05281 154.598 2.34375C154.598 3.63469 155.642 4.6875 156.922 4.6875C158.202 4.6875 159.246 3.63445 159.246 2.34375Z" fill="url(#paint6_linear)"/>
<path d="M163.895 17.5781C162.615 17.5781 161.57 18.6312 161.57 19.9221C161.57 21.2131 162.615 22.2659 163.895 22.2659C165.175 22.2659 166.219 21.2131 166.219 19.9221C166.219 18.6312 165.175 17.5781 163.895 17.5781Z" fill="black"/>
<path d="M163.895 17.5781C162.615 17.5781 161.57 18.6312 161.57 19.9221C161.57 21.2131 162.615 22.2659 163.895 22.2659C165.175 22.2659 166.219 21.2131 166.219 19.9221C166.219 18.6312 165.175 17.5781 163.895 17.5781Z" fill="url(#paint7_linear)"/>
<path d="M53.7787 58.8012L78.4141 44.558L87.693 50.5461C88.7927 51.256 90.1854 51.2986 91.3273 50.6571L112.746 38.6178L112.192 40.2882C111.886 41.2097 112.385 42.2044 113.306 42.51C114.226 42.8145 115.222 42.3188 115.528 41.3951L117.195 36.3706C117.682 34.9013 116.784 33.3284 115.265 33.0068L110.086 31.9097C109.137 31.7082 108.203 32.3152 108.002 33.2651C107.801 34.2148 108.408 35.1479 109.358 35.3489L110.83 35.6609L89.5992 47.592L80.3205 41.6039C79.2049 40.8839 77.798 40.8495 76.6488 41.5142L52.0188 55.7574C51.1783 56.2435 50.891 57.3188 51.3771 58.159C51.8639 59.0014 52.9399 59.2866 53.7787 58.8012Z" fill="black"/>
<path d="M53.7787 58.8012L78.4141 44.558L87.693 50.5461C88.7927 51.256 90.1854 51.2986 91.3273 50.6571L112.746 38.6178L112.192 40.2882C111.886 41.2097 112.385 42.2044 113.306 42.51C114.226 42.8145 115.222 42.3188 115.528 41.3951L117.195 36.3706C117.682 34.9013 116.784 33.3284 115.265 33.0068L110.086 31.9097C109.137 31.7082 108.203 32.3152 108.002 33.2651C107.801 34.2148 108.408 35.1479 109.358 35.3489L110.83 35.6609L89.5992 47.592L80.3205 41.6039C79.2049 40.8839 77.798 40.8495 76.6488 41.5142L52.0188 55.7574C51.1783 56.2435 50.891 57.3188 51.3771 58.159C51.8639 59.0014 52.9399 59.2866 53.7787 58.8012Z" fill="url(#paint8_linear)"/>
<path d="M127.991 75.111V27.6159C127.991 25.7598 126.481 24.25 124.625 24.25H57.0444C56.0736 24.25 55.2866 25.037 55.2866 26.0078C55.2866 26.9786 56.0736 27.7656 57.0444 27.7656H124.475V74.9613H116.857V67.1369C116.857 66.1661 116.07 65.3791 115.099 65.3791C114.129 65.3791 113.341 66.1661 113.341 67.1369V74.9613H109.614V52.6577L113.341 50.5626V58.9171C113.341 59.8879 114.129 60.6749 115.099 60.6749C116.07 60.6749 116.857 59.8879 116.857 58.9171V50.1208C116.857 47.631 114.177 46.0602 112.004 47.2813L107.76 49.667C106.735 50.2431 106.099 51.3311 106.099 52.5065V74.9613H98.5367V60.4188C98.5367 57.929 95.8571 56.3582 93.6835 57.5793L89.4394 59.965C88.4148 60.5411 87.7784 61.6291 87.7784 62.8045V74.9615H80.2166V57.3787C80.2166 54.8704 77.5011 53.3017 75.3275 54.5596L71.0834 57.0161C70.081 57.5966 69.4583 58.6766 69.4583 59.8349V74.9613H61.8964V67.9727C61.8964 65.4653 59.183 63.8966 57.009 65.1527L52.7649 67.6061C51.7616 68.1864 51.1381 69.2669 51.1381 70.4259V74.9613H43.5195V27.7656H48.8413C49.812 27.7656 50.5991 26.9786 50.5991 26.0078C50.5991 25.037 49.812 24.25 48.8413 24.25H43.3698C41.5137 24.25 40.0039 25.7598 40.0039 27.6159V75.111C40.0039 76.967 41.5137 78.4769 43.3698 78.4769H124.625C126.481 78.4769 127.991 76.967 127.991 75.111ZM91.2941 62.9554L95.0211 60.8605V74.9615H91.2941V62.9554ZM72.9739 59.984L76.7009 57.8266V74.9613H72.9739V59.984ZM54.6538 70.5749L58.3808 68.4206V74.9613H54.6538V70.5749Z" fill="black"/>
<path d="M127.991 75.111V27.6159C127.991 25.7598 126.481 24.25 124.625 24.25H57.0444C56.0736 24.25 55.2866 25.037 55.2866 26.0078C55.2866 26.9786 56.0736 27.7656 57.0444 27.7656H124.475V74.9613H116.857V67.1369C116.857 66.1661 116.07 65.3791 115.099 65.3791C114.129 65.3791 113.341 66.1661 113.341 67.1369V74.9613H109.614V52.6577L113.341 50.5626V58.9171C113.341 59.8879 114.129 60.6749 115.099 60.6749C116.07 60.6749 116.857 59.8879 116.857 58.9171V50.1208C116.857 47.631 114.177 46.0602 112.004 47.2813L107.76 49.667C106.735 50.2431 106.099 51.3311 106.099 52.5065V74.9613H98.5367V60.4188C98.5367 57.929 95.8571 56.3582 93.6835 57.5793L89.4394 59.965C88.4148 60.5411 87.7784 61.6291 87.7784 62.8045V74.9615H80.2166V57.3787C80.2166 54.8704 77.5011 53.3017 75.3275 54.5596L71.0834 57.0161C70.081 57.5966 69.4583 58.6766 69.4583 59.8349V74.9613H61.8964V67.9727C61.8964 65.4653 59.183 63.8966 57.009 65.1527L52.7649 67.6061C51.7616 68.1864 51.1381 69.2669 51.1381 70.4259V74.9613H43.5195V27.7656H48.8413C49.812 27.7656 50.5991 26.9786 50.5991 26.0078C50.5991 25.037 49.812 24.25 48.8413 24.25H43.3698C41.5137 24.25 40.0039 25.7598 40.0039 27.6159V75.111C40.0039 76.967 41.5137 78.4769 43.3698 78.4769H124.625C126.481 78.4769 127.991 76.967 127.991 75.111ZM91.2941 62.9554L95.0211 60.8605V74.9615H91.2941V62.9554ZM72.9739 59.984L76.7009 57.8266V74.9613H72.9739V59.984ZM54.6538 70.5749L58.3808 68.4206V74.9613H54.6538V70.5749Z" fill="url(#paint9_linear)"/>
<path d="M139.33 83.2138H136.245V23.8513C136.245 19.522 132.723 16 128.394 16H39.6063C35.2772 16 31.755 19.522 31.755 23.8513V83.2138H28.6699C26.0948 83.2138 24 85.3087 24 87.8838C24 95.0212 29.8069 100.828 36.9443 100.828H131.056C138.193 100.828 144 95.0212 144 87.8838C144 85.3087 141.905 83.2138 139.33 83.2138ZM35.2706 23.8511C35.2706 21.4605 37.2155 19.5154 39.6063 19.5154H128.394C130.784 19.5154 132.729 21.4605 132.729 23.8511V83.2136H35.2706V23.8511ZM67.0547 86.7295H100.945V88.4964C100.945 89.4707 100.153 90.2634 99.1784 90.2634H68.8216C67.8473 90.2634 67.0547 89.4707 67.0547 88.4964V86.7295ZM131.056 97.3124H36.9443C31.7454 97.3124 27.5156 93.0827 27.5156 87.8838C27.5156 87.2472 28.0334 86.7295 28.6699 86.7295H63.5391V88.4964C63.5391 91.4092 65.9088 93.779 68.8216 93.779H99.1784C102.091 93.779 104.461 91.4092 104.461 88.4964V86.7295H139.33C139.967 86.7295 140.484 87.2472 140.484 87.8838C140.484 93.0827 136.255 97.3124 131.056 97.3124Z" fill="black"/>
<path d="M139.33 83.2138H136.245V23.8513C136.245 19.522 132.723 16 128.394 16H39.6063C35.2772 16 31.755 19.522 31.755 23.8513V83.2138H28.6699C26.0948 83.2138 24 85.3087 24 87.8838C24 95.0212 29.8069 100.828 36.9443 100.828H131.056C138.193 100.828 144 95.0212 144 87.8838C144 85.3087 141.905 83.2138 139.33 83.2138ZM35.2706 23.8511C35.2706 21.4605 37.2155 19.5154 39.6063 19.5154H128.394C130.784 19.5154 132.729 21.4605 132.729 23.8511V83.2136H35.2706V23.8511ZM67.0547 86.7295H100.945V88.4964C100.945 89.4707 100.153 90.2634 99.1784 90.2634H68.8216C67.8473 90.2634 67.0547 89.4707 67.0547 88.4964V86.7295ZM131.056 97.3124H36.9443C31.7454 97.3124 27.5156 93.0827 27.5156 87.8838C27.5156 87.2472 28.0334 86.7295 28.6699 86.7295H63.5391V88.4964C63.5391 91.4092 65.9088 93.779 68.8216 93.779H99.1784C102.091 93.779 104.461 91.4092 104.461 88.4964V86.7295H139.33C139.967 86.7295 140.484 87.2472 140.484 87.8838C140.484 93.0827 136.255 97.3124 131.056 97.3124Z" fill="url(#paint10_linear)"/>
<defs>
<linearGradient id="paint0_linear" x1="-5.72491" y1="7.74698" x2="-12.8806" y2="52.5099" gradientUnits="userSpaceOnUse">
<stop stop-color="#EB2163"/>
<stop offset="1" stop-color="#950552"/>
</linearGradient>
<linearGradient id="paint1_linear" x1="-0.233543" y1="11.9182" x2="0.937105" y2="26.2457" gradientUnits="userSpaceOnUse">
<stop stop-color="#EB2163"/>
<stop offset="1" stop-color="#950552"/>
</linearGradient>
<linearGradient id="paint2_linear" x1="26.1182" y1="40.3484" x2="3.97368" y2="74.0537" gradientUnits="userSpaceOnUse">
<stop stop-color="#EB2163"/>
<stop offset="1" stop-color="#950552"/>
</linearGradient>
<linearGradient id="paint3_linear" x1="170.118" y1="24.9636" x2="147.974" y2="58.669" gradientUnits="userSpaceOnUse">
<stop stop-color="#EB2163"/>
<stop offset="1" stop-color="#950552"/>
</linearGradient>
<linearGradient id="paint4_linear" x1="164.118" y1="8.34839" x2="141.974" y2="42.0537" gradientUnits="userSpaceOnUse">
<stop stop-color="#EB2163"/>
<stop offset="1" stop-color="#950552"/>
</linearGradient>
<linearGradient id="paint5_linear" x1="40.1182" y1="6.34839" x2="17.9737" y2="40.0537" gradientUnits="userSpaceOnUse">
<stop stop-color="#EB2163"/>
<stop offset="1" stop-color="#950552"/>
</linearGradient>
<linearGradient id="paint6_linear" x1="162.304" y1="-0.550537" x2="154.922" y2="10.6846" gradientUnits="userSpaceOnUse">
<stop stop-color="#EB2163"/>
<stop offset="1" stop-color="#950552"/>
</linearGradient>
<linearGradient id="paint7_linear" x1="169.277" y1="17.0276" x2="161.895" y2="28.2632" gradientUnits="userSpaceOnUse">
<stop stop-color="#EB2163"/>
<stop offset="1" stop-color="#950552"/>
</linearGradient>
<linearGradient id="paint8_linear" x1="160.864" y1="28.6804" x2="137.599" y2="115.679" gradientUnits="userSpaceOnUse">
<stop stop-color="#EB2163"/>
<stop offset="1" stop-color="#950552"/>
</linearGradient>
<linearGradient id="paint9_linear" x1="185.867" y1="17.8812" x2="121.525" y2="178.12" gradientUnits="userSpaceOnUse">
<stop stop-color="#EB2163"/>
<stop offset="1" stop-color="#950552"/>
</linearGradient>
<linearGradient id="paint10_linear" x1="222.933" y1="6.03712" x2="112.332" y2="246.179" gradientUnits="userSpaceOnUse">
<stop stop-color="#EB2163"/>
<stop offset="1" stop-color="#950552"/>
</linearGradient>
</defs>
</svg>
