<svg width="120" height="120" viewBox="0 0 120 120" fill="none" xmlns="http://www.w3.org/2000/svg">
<path d="M72.6562 44.5312C71.3625 44.5312 70.3125 45.5812 70.3125 46.875C70.3125 48.1688 71.3625 49.2188 72.6562 49.2188C73.95 49.2188 75 48.1688 75 46.875C75 45.5812 73.95 44.5312 72.6562 44.5312Z" fill="black"/>
<path d="M72.6562 44.5312C71.3625 44.5312 70.3125 45.5812 70.3125 46.875C70.3125 48.1688 71.3625 49.2188 72.6562 49.2188C73.95 49.2188 75 48.1688 75 46.875C75 45.5812 73.95 44.5312 72.6562 44.5312Z" fill="url(#paint0_linear)"/>
<path d="M117.253 103.997L85.969 72.7123C91.0655 65.0356 93.75 56.1457 93.75 46.875C93.75 21.0281 72.7219 0 46.875 0C21.0281 0 0 21.0281 0 46.875C0 72.7219 21.0281 93.75 46.875 93.75C56.1459 93.75 65.0358 91.0652 72.7123 85.9692L81.3595 94.6165C81.3607 94.6177 81.3619 94.6188 81.3633 94.6202L103.996 117.253C105.768 119.025 108.122 120 110.625 120C113.128 120 115.482 119.025 117.253 117.254C119.024 115.484 120 113.13 120 110.625C120 108.12 119.024 105.766 117.253 103.997ZM71.61 81.0298C71.61 81.03 71.6098 81.03 71.6095 81.0302C64.3751 86.2849 55.8223 89.0625 46.875 89.0625C23.6128 89.0625 4.6875 70.1372 4.6875 46.875C4.6875 23.6128 23.6128 4.6875 46.875 4.6875C70.1372 4.6875 89.0625 23.6128 89.0625 46.875C89.0625 55.8223 86.2849 64.3751 81.03 71.6098C78.401 75.2316 75.2318 78.401 71.61 81.0298ZM76.5272 83.1546C78.953 81.1702 81.1704 78.9527 83.1546 76.5272L89.8041 83.1766C87.7819 85.5633 85.5633 87.7821 83.1766 89.8041L76.5272 83.1546ZM113.939 113.939C113.053 114.825 111.876 115.312 110.625 115.312C109.374 115.312 108.197 114.825 107.311 113.939L86.4998 93.1275C88.8734 91.0905 91.0905 88.8736 93.1273 86.5001L113.939 107.312C114.825 108.197 115.312 109.373 115.312 110.625C115.312 111.877 114.825 113.053 113.939 113.939Z" fill="black"/>
<path d="M117.253 103.997L85.969 72.7123C91.0655 65.0356 93.75 56.1457 93.75 46.875C93.75 21.0281 72.7219 0 46.875 0C21.0281 0 0 21.0281 0 46.875C0 72.7219 21.0281 93.75 46.875 93.75C56.1459 93.75 65.0358 91.0652 72.7123 85.9692L81.3595 94.6165C81.3607 94.6177 81.3619 94.6188 81.3633 94.6202L103.996 117.253C105.768 119.025 108.122 120 110.625 120C113.128 120 115.482 119.025 117.253 117.254C119.024 115.484 120 113.13 120 110.625C120 108.12 119.024 105.766 117.253 103.997ZM71.61 81.0298C71.61 81.03 71.6098 81.03 71.6095 81.0302C64.3751 86.2849 55.8223 89.0625 46.875 89.0625C23.6128 89.0625 4.6875 70.1372 4.6875 46.875C4.6875 23.6128 23.6128 4.6875 46.875 4.6875C70.1372 4.6875 89.0625 23.6128 89.0625 46.875C89.0625 55.8223 86.2849 64.3751 81.03 71.6098C78.401 75.2316 75.2318 78.401 71.61 81.0298ZM76.5272 83.1546C78.953 81.1702 81.1704 78.9527 83.1546 76.5272L89.8041 83.1766C87.7819 85.5633 85.5633 87.7821 83.1766 89.8041L76.5272 83.1546ZM113.939 113.939C113.053 114.825 111.876 115.312 110.625 115.312C109.374 115.312 108.197 114.825 107.311 113.939L86.4998 93.1275C88.8734 91.0905 91.0905 88.8736 93.1273 86.5001L113.939 107.312C114.825 108.197 115.312 109.373 115.312 110.625C115.312 111.877 114.825 113.053 113.939 113.939Z" fill="url(#paint1_linear)"/>
<path d="M46.875 9.375C26.1973 9.375 9.375 26.1973 9.375 46.875C9.375 67.5527 26.1973 84.375 46.875 84.375C67.5527 84.375 84.375 67.5527 84.375 46.875C84.375 26.1973 67.5527 9.375 46.875 9.375ZM46.875 79.6875C28.7822 79.6875 14.0625 64.9678 14.0625 46.875C14.0625 28.7822 28.7822 14.0625 46.875 14.0625C64.9678 14.0625 79.6875 28.7822 79.6875 46.875C79.6875 64.9678 64.9678 79.6875 46.875 79.6875Z" fill="black"/>
<path d="M46.875 9.375C26.1973 9.375 9.375 26.1973 9.375 46.875C9.375 67.5527 26.1973 84.375 46.875 84.375C67.5527 84.375 84.375 67.5527 84.375 46.875C84.375 26.1973 67.5527 9.375 46.875 9.375ZM46.875 79.6875C28.7822 79.6875 14.0625 64.9678 14.0625 46.875C14.0625 28.7822 28.7822 14.0625 46.875 14.0625C64.9678 14.0625 79.6875 28.7822 79.6875 46.875C79.6875 64.9678 64.9678 79.6875 46.875 79.6875Z" fill="url(#paint2_linear)"/>
<path d="M73.1402 36.814C71.122 31.5612 67.6081 27.0701 62.9777 23.8266C58.2373 20.5055 52.669 18.75 46.875 18.75C45.5808 18.75 44.5312 19.7995 44.5312 21.0937C44.5312 22.388 45.5808 23.4375 46.875 23.4375C56.5076 23.4375 65.3041 29.4886 68.7647 38.4954C69.1228 39.4273 70.0109 39.9991 70.9531 39.9991C71.2324 39.9991 71.5167 39.9487 71.7931 39.8426C73.0013 39.3783 73.6045 38.0224 73.1402 36.814Z" fill="black"/>
<path d="M73.1402 36.814C71.122 31.5612 67.6081 27.0701 62.9777 23.8266C58.2373 20.5055 52.669 18.75 46.875 18.75C45.5808 18.75 44.5312 19.7995 44.5312 21.0937C44.5312 22.388 45.5808 23.4375 46.875 23.4375C56.5076 23.4375 65.3041 29.4886 68.7647 38.4954C69.1228 39.4273 70.0109 39.9991 70.9531 39.9991C71.2324 39.9991 71.5167 39.9487 71.7931 39.8426C73.0013 39.3783 73.6045 38.0224 73.1402 36.814Z" fill="url(#paint3_linear)"/>
<defs>
<linearGradient id="paint0_linear" x1="78.0833" y1="43.9807" x2="70.7265" y2="55.2723" gradientUnits="userSpaceOnUse">
<stop stop-color="#EB2163"/>
<stop offset="1" stop-color="#950552"/>
</linearGradient>
<linearGradient id="paint1_linear" x1="198.933" y1="-14.0937" x2="10.5988" y2="274.972" gradientUnits="userSpaceOnUse">
<stop stop-color="#EB2163"/>
<stop offset="1" stop-color="#950552"/>
</linearGradient>
<linearGradient id="paint2_linear" x1="133.708" y1="0.566408" x2="15.9992" y2="181.232" gradientUnits="userSpaceOnUse">
<stop stop-color="#EB2163"/>
<stop offset="1" stop-color="#950552"/>
</linearGradient>
<linearGradient id="paint3_linear" x1="92.2182" y1="16.2543" x2="63.7253" y2="75.456" gradientUnits="userSpaceOnUse">
<stop stop-color="#EB2163"/>
<stop offset="1" stop-color="#950552"/>
</linearGradient>
</defs>
</svg>
