<svg width="40" height="40" viewBox="0 0 40 40" fill="none" xmlns="http://www.w3.org/2000/svg">
<path d="M38.41 13.7182C39.3697 13.0032 40 11.8697 40 10.581C40 8.4149 38.2441 6.65941 36.0784 6.65941H31.3725C30.3554 6.65941 29.4378 7.05647 28.7408 7.69146C26.8278 6.23774 24.5102 5.28833 21.9608 5.13058V2.73784H24.3137V1.16921H18.0392V2.73784H20.3922V5.13058C19.1398 5.20794 17.9381 5.47147 16.8115 5.88882C17.0344 4.47725 16.574 2.81745 15.3301 0.711858C15.193 0.480093 14.9379 0.357544 14.6779 0.357544C14.5347 0.357544 14.3895 0.394701 14.2625 0.471662L5.43971 5.78666C4.49755 6.35411 3.92157 7.37401 3.92157 8.47382V13.7181C3.92157 13.7181 3.92157 18.4344 3.92157 18.4658C3.92157 19.9103 4.10804 21.3097 4.44245 22.6508L3.92157 23.1718L0 27.0933L12.549 39.6423L18.8653 33.3261H28.2353H30.5882H32.9412C35.1069 33.3261 36.8627 31.5702 36.8627 29.4045C36.8627 28.4004 36.474 27.4939 35.8532 26.8004C37.3545 26.25 38.4314 24.8216 38.4314 23.13C38.4314 22.1259 38.0426 21.2194 37.4219 20.5259C38.9231 19.9755 40 18.5471 40 16.8555C40 15.5664 39.3696 14.4332 38.41 13.7182ZM31.3725 8.22803H36.0784C37.3759 8.22803 38.4314 9.28352 38.4314 10.581C38.4314 11.8784 37.3759 12.9339 36.0784 12.9339H31.3725C30.0751 12.9339 29.0196 11.8784 29.0196 10.581C29.0196 9.28352 30.0751 8.22803 31.3725 8.22803ZM28.4605 19.4596C27.0424 19.9797 26.0141 21.2871 25.9038 22.8566C24.6507 23.9936 22.9978 24.6971 21.1766 24.6971C17.2853 24.6971 14.1193 21.5312 14.1193 17.6399C14.1193 13.7486 17.2853 10.5826 21.1766 10.5826C24.2415 10.5826 26.8299 12.5583 27.8023 15.2938C27.5885 15.7736 27.4511 16.2952 27.4511 16.8555C27.451 17.8596 27.8397 18.7661 28.4605 19.4596ZM18.8653 31.7574C18.4494 31.7574 18.0503 31.9228 17.7562 32.217L12.549 37.4238L2.21853 27.0933L5.03098 24.2809L5.55186 23.7596C5.94098 23.3705 6.09755 22.8057 5.96431 22.2714C5.6499 21.0091 5.4902 19.7288 5.4902 18.4659V13.7182V8.47392C5.4902 7.92705 5.78088 7.41235 6.24922 7.13048L14.3838 2.23009C15.5392 4.40833 15.5715 5.75568 14.7989 6.84637C11.1061 9.02607 8.62745 13.0396 8.62745 17.6398C8.62745 24.5703 14.246 30.1888 21.1765 30.1888C22.2778 30.1888 23.3303 30.0073 24.3475 29.7384C24.4125 30.4944 24.6833 31.1853 25.1157 31.7574H18.8653ZM24.5527 28.081C23.4888 28.4282 22.3553 28.6202 21.1765 28.6202C15.1218 28.6202 10.1961 23.6945 10.1961 17.6398C10.1961 11.5851 15.1218 6.65941 21.1765 6.65941C23.6795 6.65941 25.9792 7.51264 27.8271 8.9296C27.592 9.43284 27.451 9.98892 27.451 10.581C27.451 11.1467 27.59 11.6736 27.8075 12.1572C26.2281 10.2439 23.8523 9.01392 21.1765 9.01392C16.4124 9.01392 12.5506 12.8757 12.5506 17.6398C12.5506 22.4039 16.4124 26.2657 21.1765 26.2657C23.0561 26.2657 24.771 25.6341 26.1869 24.6124C26.36 25.0253 26.5974 25.4052 26.8919 25.7342C25.805 26.1328 24.9472 26.9949 24.5527 28.081ZM32.9412 31.7574H30.5882H28.2353C26.9378 31.7574 25.8824 30.702 25.8824 29.4045C25.8824 28.1071 26.9378 27.0516 28.2353 27.0516H29.8039H32.9412C34.2386 27.0516 35.2941 28.1071 35.2941 29.4045C35.2941 30.702 34.2386 31.7574 32.9412 31.7574ZM34.5098 25.4829H32.9412H29.8039C28.5065 25.4829 27.451 24.4274 27.451 23.13C27.451 21.8325 28.5065 20.7771 29.8039 20.7771H31.3725H34.5098C35.8073 20.7771 36.8627 21.8325 36.8627 23.13C36.8627 24.4274 35.8073 25.4829 34.5098 25.4829ZM36.0784 19.2084H34.5098H31.3725C30.0751 19.2084 29.0196 18.1529 29.0196 16.8555C29.0196 15.558 30.0751 14.5025 31.3725 14.5025H36.0784C37.3759 14.5025 38.4314 15.558 38.4314 16.8555C38.4314 18.1529 37.3759 19.2084 36.0784 19.2084Z" fill="#23FFFF"/>
<path d="M24.4959 13.1L19.9033 17.795L21.0248 18.8921L25.6173 14.1971L24.4959 13.1Z" fill="#23FFFF"/>
<path d="M21.9593 12.1224H20.3906V13.6911H21.9593V12.1224Z" fill="#23FFFF"/>
<path d="M17.2561 16.8282H15.6875V18.3969H17.2561V16.8282Z" fill="#23FFFF"/>
<path d="M26.6663 16.8282H25.0977V18.3969H26.6663V16.8282Z" fill="#23FFFF"/>
<path d="M21.9593 21.5342H20.3906V23.1028H21.9593V21.5342Z" fill="#23FFFF"/>
</svg>
