<svg width="40" height="40" viewBox="0 0 40 40" fill="none" xmlns="http://www.w3.org/2000/svg">
<g clip-path="url(#clip0)">
<path d="M39.3826 3.97369C38.8937 3.37616 38.1619 3.04688 37.3217 3.04688C36.8646 3.04688 36.3809 3.14331 35.8834 3.33313L2.02398 16.2582C0.227113 16.9439 -0.0148908 17.973 0.000673129 18.5256C0.016237 19.078 0.316224 20.0918 2.1491 20.6747C2.16009 20.6783 2.17108 20.6814 2.18206 20.6847L6.93058 22.0434L30.0567 10.2286C30.6329 9.93375 31.3391 10.1626 31.6336 10.7391C31.8649 11.192 31.7721 11.7242 31.4425 12.0746L31.4434 12.0755L18.5852 25.7378L18.2184 27.2243L22.81 30.9218L29.1729 36.0454C29.1784 36.0497 29.1839 36.0543 29.1897 36.0585C29.8898 36.6017 30.6546 36.8886 31.4013 36.8889C32.8607 36.8889 34.0225 35.8089 34.3609 34.1378L39.9087 6.74407C40.1311 5.64483 39.9444 4.66064 39.3826 3.97369Z" fill="white"/>
<path d="M16.3842 24.8782C16.4308 24.6887 16.5248 24.5081 16.668 24.3558L25.1052 15.3906L9.44873 23.3893L13.0037 33.5562C13.2064 34.1354 13.5079 34.6286 13.8808 35.0146L16.3835 24.8779L16.3842 24.8782Z" fill="white"/>
<path d="M16.0625 35.9556C16.9075 35.9485 17.7379 35.5921 18.4655 34.9222L21.0665 32.5272L17.5984 29.7349L16.0625 35.9556Z" fill="white"/>
</g>
<defs>
<clipPath id="clip0">
<rect width="40" height="40" fill="white"/>
</clipPath>
</defs>
</svg>
