<svg width="40" height="40" viewBox="0 0 40 40" fill="none" xmlns="http://www.w3.org/2000/svg">
<g clip-path="url(#clip0)">
<path d="M15.208 4.79893C15.6223 4.79893 15.9186 4.41932 15.8222 4.02408C15.7404 3.68869 15.3986 3.48377 15.0638 3.5658C14.3468 3.73643 14.4708 4.79893 15.208 4.79893Z" fill="white"/>
<path d="M15.208 4.79893C15.6223 4.79893 15.9186 4.41932 15.8222 4.02408C15.7404 3.68869 15.3986 3.48377 15.0638 3.5658C14.3468 3.73643 14.4708 4.79893 15.208 4.79893Z" fill="url(#paint0_linear)"/>
<path d="M27.1337 6.37716C27.1337 4.2278 23.1642 3.10327 19.2431 3.10327C18.543 3.10327 17.8491 3.13851 17.1805 3.20804C16.8372 3.24374 16.5878 3.551 16.6235 3.89428C16.6592 4.23756 16.9661 4.48787 17.3098 4.45131C19.4321 4.23061 22.1591 4.35944 24.1666 5.09131C25.4341 5.55334 25.8837 6.07279 25.8837 6.37716C25.8837 6.68153 25.434 7.20098 24.1666 7.66301C21.4692 8.64644 17.0256 8.64957 14.3197 7.66301C13.0522 7.20098 12.6026 6.68153 12.6026 6.37716C12.6026 6.16919 12.7965 5.91826 13.1487 5.67068C13.4311 5.47216 13.4991 5.08232 13.3006 4.7999C13.102 4.51748 12.7121 4.44959 12.4298 4.64803C11.5395 5.27396 11.3525 5.9338 11.3525 6.37716C11.3525 10.7235 27.1337 10.7395 27.1337 6.37716Z" fill="white"/>
<path d="M27.1337 6.37716C27.1337 4.2278 23.1642 3.10327 19.2431 3.10327C18.543 3.10327 17.8491 3.13851 17.1805 3.20804C16.8372 3.24374 16.5878 3.551 16.6235 3.89428C16.6592 4.23756 16.9661 4.48787 17.3098 4.45131C19.4321 4.23061 22.1591 4.35944 24.1666 5.09131C25.4341 5.55334 25.8837 6.07279 25.8837 6.37716C25.8837 6.68153 25.434 7.20098 24.1666 7.66301C21.4692 8.64644 17.0256 8.64957 14.3197 7.66301C13.0522 7.20098 12.6026 6.68153 12.6026 6.37716C12.6026 6.16919 12.7965 5.91826 13.1487 5.67068C13.4311 5.47216 13.4991 5.08232 13.3006 4.7999C13.102 4.51748 12.7121 4.44959 12.4298 4.64803C11.5395 5.27396 11.3525 5.9338 11.3525 6.37716C11.3525 10.7235 27.1337 10.7395 27.1337 6.37716Z" fill="url(#paint1_linear)"/>
<path d="M33.9794 19.8259C33.772 19.5499 33.3801 19.4944 33.1044 19.7015C32.8284 19.9088 32.7727 20.3007 32.98 20.5766C33.3923 21.1256 33.6015 21.6955 33.6015 22.2706C33.6015 24.3014 31.0151 26.1016 27.3854 26.924C29.2842 25.9631 31.0673 24.3971 31.0673 22.2706C31.0673 18.111 31.0932 18.2337 30.9895 17.7373C30.9189 17.3995 30.5878 17.183 30.2499 17.2534C29.912 17.3241 29.6953 17.6552 29.766 17.9931C30.4024 21.0343 25.1892 23.6134 19.2412 23.6134C16.1505 23.6134 13.2618 22.9254 11.2849 21.8239C18.9027 24.0414 28.7968 21.2653 28.7968 16.2159V13.9585C30.2718 12.8777 31.0673 11.5631 31.0673 10.1613V6.37717C31.0673 0.581187 18.3189 -1.98622 11.0354 1.75391C8.70076 2.95281 7.41507 4.5946 7.41507 6.37717V8.63583C5.92828 9.72598 5.14453 11.033 5.14453 12.4318V16.216C5.14453 17.6177 5.94007 18.9324 7.41507 20.0132C7.41507 22.3075 7.28053 23.0359 7.94662 24.2035C7.59413 24.8214 7.41507 25.4679 7.41507 26.1306V33.6232C7.41507 39.4192 20.1635 41.9866 27.4471 38.2464C29.7816 37.0475 31.0673 35.4057 31.0673 33.6232V30.7584C33.0169 29.7948 34.8515 28.2133 34.8515 26.0549V22.2707C34.8515 21.4187 34.558 20.5962 33.9794 19.8259ZM29.8173 21.3845V22.2706C29.8173 25.0496 24.974 27.3975 19.2412 27.3975C14.6687 27.3975 10.6622 25.9039 9.22763 23.8892C9.21076 23.8599 9.1917 23.8317 9.1699 23.805C8.58412 22.933 8.66506 22.3695 8.66506 21.3848C12.9275 25.9909 25.507 26.0231 29.8173 21.3845ZM29.8173 10.1613C29.8173 11.9972 27.6433 13.2357 27.8217 13.1157C25.8825 14.4205 22.7263 15.2882 19.2412 15.2882C13.5083 15.2882 8.66506 12.9403 8.66506 10.1613V9.2752C12.9824 13.9213 25.5238 13.8956 29.8173 9.2752V10.1613ZM19.2412 1.25025C24.974 1.25025 29.8173 3.59812 29.8173 6.37717C29.8173 9.15621 24.974 11.5041 19.2412 11.5041C13.5083 11.5041 8.66506 9.15621 8.66506 6.37717C8.66506 3.59812 13.5083 1.25025 19.2412 1.25025ZM7.41764 10.2736C7.56983 15.2802 17.4142 17.956 24.9272 15.7693C22.9502 16.8708 20.0615 17.5587 16.9707 17.5587C9.63427 17.5587 3.98118 13.7434 7.41764 10.2736ZM6.3946 16.2159V15.3299C10.784 20.0534 23.3502 19.8647 27.5468 15.3302V16.2159C27.5468 18.995 22.7036 21.3429 16.9707 21.3429C11.2379 21.3429 6.3946 18.995 6.3946 16.2159ZM11.3351 27.0406C11.7476 28.5234 13.09 29.8631 15.1571 30.8443C11.3832 30.0522 8.66506 28.2124 8.66506 26.1305C8.66506 25.8576 8.71303 25.5856 8.80678 25.3164C9.38576 25.8999 10.1908 26.492 11.3351 27.0406ZM19.2412 38.75C13.5083 38.75 8.66506 36.4021 8.66506 33.6231V32.8127C11.3667 35.72 16.9832 36.5357 20.9842 36.2243C21.3283 36.1975 21.5856 35.8968 21.5587 35.5526C21.532 35.2085 21.2315 34.9515 20.8871 34.9781C14.5576 35.4707 8.66506 33.001 8.66506 29.9146C8.66506 29.8084 8.66506 29.2116 8.66506 29.0285C11.423 31.9965 17.2606 32.8435 21.5858 32.3841C24.1705 32.5505 26.8968 32.2769 29.2862 31.4841C28.6499 32.4077 27.4652 33.2476 25.8586 33.8858C25.5378 34.0133 25.3811 34.3766 25.5086 34.6975C25.6367 35.0199 26.0009 35.1743 26.3202 35.0475C27.8119 34.4548 29.0017 33.6817 29.8174 32.8002V33.623C29.8173 36.4021 24.974 38.75 19.2412 38.75ZM33.6015 26.0548C33.6015 30.3442 22.6511 32.9841 15.7329 29.7342C14.5126 29.161 13.5981 28.4706 13.0481 27.722C15.5472 28.5388 18.4208 28.7958 21.1287 28.5673C25.1836 28.9117 30.8758 28.102 33.6015 25.1688V26.0548Z" fill="white"/>
<path d="M33.9794 19.8259C33.772 19.5499 33.3801 19.4944 33.1044 19.7015C32.8284 19.9088 32.7727 20.3007 32.98 20.5766C33.3923 21.1256 33.6015 21.6955 33.6015 22.2706C33.6015 24.3014 31.0151 26.1016 27.3854 26.924C29.2842 25.9631 31.0673 24.3971 31.0673 22.2706C31.0673 18.111 31.0932 18.2337 30.9895 17.7373C30.9189 17.3995 30.5878 17.183 30.2499 17.2534C29.912 17.3241 29.6953 17.6552 29.766 17.9931C30.4024 21.0343 25.1892 23.6134 19.2412 23.6134C16.1505 23.6134 13.2618 22.9254 11.2849 21.8239C18.9027 24.0414 28.7968 21.2653 28.7968 16.2159V13.9585C30.2718 12.8777 31.0673 11.5631 31.0673 10.1613V6.37717C31.0673 0.581187 18.3189 -1.98622 11.0354 1.75391C8.70076 2.95281 7.41507 4.5946 7.41507 6.37717V8.63583C5.92828 9.72598 5.14453 11.033 5.14453 12.4318V16.216C5.14453 17.6177 5.94007 18.9324 7.41507 20.0132C7.41507 22.3075 7.28053 23.0359 7.94662 24.2035C7.59413 24.8214 7.41507 25.4679 7.41507 26.1306V33.6232C7.41507 39.4192 20.1635 41.9866 27.4471 38.2464C29.7816 37.0475 31.0673 35.4057 31.0673 33.6232V30.7584C33.0169 29.7948 34.8515 28.2133 34.8515 26.0549V22.2707C34.8515 21.4187 34.558 20.5962 33.9794 19.8259ZM29.8173 21.3845V22.2706C29.8173 25.0496 24.974 27.3975 19.2412 27.3975C14.6687 27.3975 10.6622 25.9039 9.22763 23.8892C9.21076 23.8599 9.1917 23.8317 9.1699 23.805C8.58412 22.933 8.66506 22.3695 8.66506 21.3848C12.9275 25.9909 25.507 26.0231 29.8173 21.3845ZM29.8173 10.1613C29.8173 11.9972 27.6433 13.2357 27.8217 13.1157C25.8825 14.4205 22.7263 15.2882 19.2412 15.2882C13.5083 15.2882 8.66506 12.9403 8.66506 10.1613V9.2752C12.9824 13.9213 25.5238 13.8956 29.8173 9.2752V10.1613ZM19.2412 1.25025C24.974 1.25025 29.8173 3.59812 29.8173 6.37717C29.8173 9.15621 24.974 11.5041 19.2412 11.5041C13.5083 11.5041 8.66506 9.15621 8.66506 6.37717C8.66506 3.59812 13.5083 1.25025 19.2412 1.25025ZM7.41764 10.2736C7.56983 15.2802 17.4142 17.956 24.9272 15.7693C22.9502 16.8708 20.0615 17.5587 16.9707 17.5587C9.63427 17.5587 3.98118 13.7434 7.41764 10.2736ZM6.3946 16.2159V15.3299C10.784 20.0534 23.3502 19.8647 27.5468 15.3302V16.2159C27.5468 18.995 22.7036 21.3429 16.9707 21.3429C11.2379 21.3429 6.3946 18.995 6.3946 16.2159ZM11.3351 27.0406C11.7476 28.5234 13.09 29.8631 15.1571 30.8443C11.3832 30.0522 8.66506 28.2124 8.66506 26.1305C8.66506 25.8576 8.71303 25.5856 8.80678 25.3164C9.38576 25.8999 10.1908 26.492 11.3351 27.0406ZM19.2412 38.75C13.5083 38.75 8.66506 36.4021 8.66506 33.6231V32.8127C11.3667 35.72 16.9832 36.5357 20.9842 36.2243C21.3283 36.1975 21.5856 35.8968 21.5587 35.5526C21.532 35.2085 21.2315 34.9515 20.8871 34.9781C14.5576 35.4707 8.66506 33.001 8.66506 29.9146C8.66506 29.8084 8.66506 29.2116 8.66506 29.0285C11.423 31.9965 17.2606 32.8435 21.5858 32.3841C24.1705 32.5505 26.8968 32.2769 29.2862 31.4841C28.6499 32.4077 27.4652 33.2476 25.8586 33.8858C25.5378 34.0133 25.3811 34.3766 25.5086 34.6975C25.6367 35.0199 26.0009 35.1743 26.3202 35.0475C27.8119 34.4548 29.0017 33.6817 29.8174 32.8002V33.623C29.8173 36.4021 24.974 38.75 19.2412 38.75ZM33.6015 26.0548C33.6015 30.3442 22.6511 32.9841 15.7329 29.7342C14.5126 29.161 13.5981 28.4706 13.0481 27.722C15.5472 28.5388 18.4208 28.7958 21.1287 28.5673C25.1836 28.9117 30.8758 28.102 33.6015 25.1688V26.0548Z" fill="url(#paint2_linear)"/>
<path d="M23.6987 34.5522C23.3608 34.6257 23.1476 34.964 23.2279 35.3051C23.3073 35.6426 23.6476 35.8472 23.9798 35.7702C24.3162 35.6926 24.5259 35.357 24.4482 35.0207C24.3706 34.6844 24.035 34.4747 23.6987 34.5522Z" fill="white"/>
<path d="M23.6987 34.5522C23.3608 34.6257 23.1476 34.964 23.2279 35.3051C23.3073 35.6426 23.6476 35.8472 23.9798 35.7702C24.3162 35.6926 24.5259 35.357 24.4482 35.0207C24.3706 34.6844 24.035 34.4747 23.6987 34.5522Z" fill="url(#paint3_linear)"/>
</g>
<defs>
<linearGradient id="paint0_linear" x1="14.4757" y1="3.13504" x2="16.8791" y2="3.12958" gradientUnits="userSpaceOnUse">
<stop offset="0.489583" stop-color="#C31432"/>
<stop offset="1" stop-color="#240B36"/>
</linearGradient>
<linearGradient id="paint1_linear" x1="9.96572" y1="0.946283" x2="40.1989" y2="0.78091" gradientUnits="userSpaceOnUse">
<stop offset="0.489583" stop-color="#C31432"/>
<stop offset="1" stop-color="#240B36"/>
</linearGradient>
<linearGradient id="paint2_linear" x1="2.53393" y1="-13.1932" x2="59.4473" y2="-13.289" gradientUnits="userSpaceOnUse">
<stop offset="0.489583" stop-color="#C31432"/>
<stop offset="1" stop-color="#240B36"/>
</linearGradient>
<linearGradient id="paint3_linear" x1="23.1008" y1="34.1238" x2="25.5021" y2="34.1183" gradientUnits="userSpaceOnUse">
<stop offset="0.489583" stop-color="#C31432"/>
<stop offset="1" stop-color="#240B36"/>
</linearGradient>
<clipPath id="clip0">
<rect width="40" height="40" fill="white"/>
</clipPath>
</defs>
</svg>
