<svg width="40" height="40" viewBox="0 0 40 40" fill="none" xmlns="http://www.w3.org/2000/svg">
<path d="M18.3677 36.6667H0.834405C0.577739 36.6667 0.336072 36.5483 0.177739 36.3467C0.0194054 36.1433 -0.0372613 35.8817 0.0244054 35.6317L0.924406 32.015C1.37774 30.2167 2.69274 28.8 4.43941 28.225L11.1361 25.9933C12.1294 25.5783 12.7494 24.0817 12.8127 21.875C12.0461 21.1783 10.4011 19.4783 10.4011 17.735C10.4011 17.1233 10.1961 16.9983 10.1944 16.9967C9.94107 16.9283 9.80774 16.7717 9.70941 16.5267C9.62607 16.3167 8.90107 14.4567 8.90107 13.2C8.90107 13.1333 8.90941 13.0667 8.92607 13.0017C9.03107 12.57 9.28441 12.1367 9.66607 11.8733C9.67607 11.6733 9.68774 11.4517 9.70107 11.205C9.74274 10.3817 9.80107 9.28333 9.80107 7.91667C9.80107 4.79 13.6244 0 18.3344 0C22.5961 0 24.6594 2.27 25.0011 3.73667C26.0427 4.31333 26.9511 5.265 26.9511 7.91667V11.8783C27.3644 12.1633 27.6194 12.62 27.7261 12.935C27.7544 13.02 27.7677 13.11 27.7677 13.2C27.7677 13.66 27.3944 14.0667 26.9344 14.0667C26.5161 14.0667 26.1711 13.7867 26.1111 13.3917C26.0794 13.3333 26.0394 13.275 26.0127 13.255C25.5544 13.255 25.2827 12.91 25.2827 12.45V7.91667C25.2827 5.74167 24.5844 5.39 24.1677 5.18167C23.9161 5.05333 23.3844 4.78667 23.3844 4.15C23.3544 3.64833 21.9511 1.66667 18.3344 1.66667C14.3677 1.66667 11.4677 5.77667 11.4677 7.91667C11.4677 9.32 11.4094 10.4467 11.3627 11.2917C11.3394 11.7733 11.3177 12.1617 11.3177 12.45C11.3177 12.8817 10.9894 13.2367 10.5694 13.28C10.5961 13.9633 10.9377 15.035 11.1561 15.6333C11.6027 15.95 12.0677 16.5967 12.0677 17.7333C12.0677 18.6733 13.1644 20.0117 14.1844 20.8583C14.3744 21.0167 14.4844 21.2517 14.4844 21.5C14.4844 24.6633 13.5027 26.8133 11.7194 27.5533L4.96441 29.8083C3.75774 30.2067 2.85274 31.1833 2.54107 32.4217L1.90107 35H18.3677C18.8277 35 19.2011 35.3733 19.2011 35.8333C19.2011 36.2933 18.8277 36.6667 18.3677 36.6667Z" fill="white"/>
<path d="M18.3677 36.6667H0.834405C0.577739 36.6667 0.336072 36.5483 0.177739 36.3467C0.0194054 36.1433 -0.0372613 35.8817 0.0244054 35.6317L0.924406 32.015C1.37774 30.2167 2.69274 28.8 4.43941 28.225L11.1361 25.9933C12.1294 25.5783 12.7494 24.0817 12.8127 21.875C12.0461 21.1783 10.4011 19.4783 10.4011 17.735C10.4011 17.1233 10.1961 16.9983 10.1944 16.9967C9.94107 16.9283 9.80774 16.7717 9.70941 16.5267C9.62607 16.3167 8.90107 14.4567 8.90107 13.2C8.90107 13.1333 8.90941 13.0667 8.92607 13.0017C9.03107 12.57 9.28441 12.1367 9.66607 11.8733C9.67607 11.6733 9.68774 11.4517 9.70107 11.205C9.74274 10.3817 9.80107 9.28333 9.80107 7.91667C9.80107 4.79 13.6244 0 18.3344 0C22.5961 0 24.6594 2.27 25.0011 3.73667C26.0427 4.31333 26.9511 5.265 26.9511 7.91667V11.8783C27.3644 12.1633 27.6194 12.62 27.7261 12.935C27.7544 13.02 27.7677 13.11 27.7677 13.2C27.7677 13.66 27.3944 14.0667 26.9344 14.0667C26.5161 14.0667 26.1711 13.7867 26.1111 13.3917C26.0794 13.3333 26.0394 13.275 26.0127 13.255C25.5544 13.255 25.2827 12.91 25.2827 12.45V7.91667C25.2827 5.74167 24.5844 5.39 24.1677 5.18167C23.9161 5.05333 23.3844 4.78667 23.3844 4.15C23.3544 3.64833 21.9511 1.66667 18.3344 1.66667C14.3677 1.66667 11.4677 5.77667 11.4677 7.91667C11.4677 9.32 11.4094 10.4467 11.3627 11.2917C11.3394 11.7733 11.3177 12.1617 11.3177 12.45C11.3177 12.8817 10.9894 13.2367 10.5694 13.28C10.5961 13.9633 10.9377 15.035 11.1561 15.6333C11.6027 15.95 12.0677 16.5967 12.0677 17.7333C12.0677 18.6733 13.1644 20.0117 14.1844 20.8583C14.3744 21.0167 14.4844 21.2517 14.4844 21.5C14.4844 24.6633 13.5027 26.8133 11.7194 27.5533L4.96441 29.8083C3.75774 30.2067 2.85274 31.1833 2.54107 32.4217L1.90107 35H18.3677C18.8277 35 19.2011 35.3733 19.2011 35.8333C19.2011 36.2933 18.8277 36.6667 18.3677 36.6667Z" fill="url(#paint0_linear)"/>
<path d="M30 39.9999C29.89 39.9999 29.78 39.9782 29.6767 39.9332C29.28 39.7682 20 35.7566 20 27.5599V20.5949C20 20.2382 20.2283 19.9199 20.5667 19.8049L29.7333 16.7099C29.9067 16.6516 30.095 16.6516 30.2667 16.7099L39.4333 19.8049C39.7717 19.9182 40 20.2366 40 20.5949V27.5599C40 35.7566 30.72 39.7682 30.3233 39.9349C30.22 39.9782 30.11 39.9999 30 39.9999ZM21.6667 21.1932V27.5599C21.6667 33.8682 28.425 37.4899 30 38.2499C31.5733 37.4882 38.3333 33.8532 38.3333 27.5599V21.1932L30 18.3799L21.6667 21.1932Z" fill="white"/>
<path d="M30 39.9999C29.89 39.9999 29.78 39.9782 29.6767 39.9332C29.28 39.7682 20 35.7566 20 27.5599V20.5949C20 20.2382 20.2283 19.9199 20.5667 19.8049L29.7333 16.7099C29.9067 16.6516 30.095 16.6516 30.2667 16.7099L39.4333 19.8049C39.7717 19.9182 40 20.2366 40 20.5949V27.5599C40 35.7566 30.72 39.7682 30.3233 39.9349C30.22 39.9782 30.11 39.9999 30 39.9999ZM21.6667 21.1932V27.5599C21.6667 33.8682 28.425 37.4899 30 38.2499C31.5733 37.4882 38.3333 33.8532 38.3333 27.5599V21.1932L30 18.3799L21.6667 21.1932Z" fill="url(#paint1_linear)"/>
<path d="M29.1659 31.6665C29.1509 31.6665 29.1342 31.6665 29.1209 31.6649C28.8825 31.6515 28.6642 31.5382 28.5159 31.3532L25.1825 27.1866C24.8959 26.8266 24.9525 26.3032 25.3125 26.0149C25.6742 25.7282 26.1975 25.7882 26.4842 26.1449L29.2342 29.5849L34.4092 24.4099C34.7342 24.0849 35.2625 24.0849 35.5875 24.4099C35.9125 24.7349 35.9125 25.2632 35.5875 25.5882L29.7542 31.4215C29.5992 31.5799 29.3859 31.6665 29.1659 31.6665Z" fill="white"/>
<path d="M29.1659 31.6665C29.1509 31.6665 29.1342 31.6665 29.1209 31.6649C28.8825 31.6515 28.6642 31.5382 28.5159 31.3532L25.1825 27.1866C24.8959 26.8266 24.9525 26.3032 25.3125 26.0149C25.6742 25.7282 26.1975 25.7882 26.4842 26.1449L29.2342 29.5849L34.4092 24.4099C34.7342 24.0849 35.2625 24.0849 35.5875 24.4099C35.9125 24.7349 35.9125 25.2632 35.5875 25.5882L29.7542 31.4215C29.5992 31.5799 29.3859 31.6665 29.1659 31.6665Z" fill="url(#paint2_linear)"/>
<defs>
<linearGradient id="paint0_linear" x1="-2.44019" y1="-12.0939" x2="50.7581" y2="-12.1852" gradientUnits="userSpaceOnUse">
<stop offset="0.489583" stop-color="#C31432"/>
<stop offset="1" stop-color="#240B36"/>
</linearGradient>
<linearGradient id="paint1_linear" x1="18.2424" y1="8.96991" x2="56.559" y2="8.89547" gradientUnits="userSpaceOnUse">
<stop offset="0.489583" stop-color="#C31432"/>
<stop offset="1" stop-color="#240B36"/>
</linearGradient>
<linearGradient id="paint2_linear" x1="24.0482" y1="21.6923" x2="44.7989" y2="21.6243" gradientUnits="userSpaceOnUse">
<stop offset="0.489583" stop-color="#C31432"/>
<stop offset="1" stop-color="#240B36"/>
</linearGradient>
</defs>
</svg>
