<svg width="40" height="40" viewBox="0 0 40 40" fill="none" xmlns="http://www.w3.org/2000/svg">
<g clip-path="url(#clip0)">
<path d="M16.5977 18.0132H19.2644V19.3468H16.5977V18.0132Z" fill="#23FFFF"/>
<path d="M39.3603 16.0197L34.8315 15.373C34.0057 14.8657 33.1487 14.4115 32.2651 14.013C29.3471 12.6913 26.1801 12.0093 22.9765 12.0128H22.1898C18.4092 12.0155 14.689 12.9642 11.3685 14.7724L9.08288 16.0192C6.40746 16.0493 3.78358 16.7609 1.4592 18.0858C0.51458 18.6276 -0.0686848 19.6327 -0.0703125 20.7214V24.6803C-0.0703125 25.0487 0.228102 25.3471 0.596509 25.3471H2.83516C3.56329 27.4243 5.83748 28.5181 7.91472 27.79C9.05819 27.3893 9.95696 26.4903 10.3577 25.3471H28.1703C28.8984 27.4243 31.1726 28.5181 33.2499 27.79C34.3931 27.3893 35.2921 26.4903 35.6928 25.3471H35.9321C36.017 25.3471 36.1011 25.3311 36.18 25.2996L38.3395 24.4331C39.3041 24.0512 39.936 23.1174 39.9324 22.0803V16.6798C39.9324 16.3483 39.6886 16.0669 39.3603 16.0197ZM9.20957 24.5471C8.91468 25.99 7.50589 26.9208 6.06292 26.6259C4.61968 26.331 3.6889 24.9223 3.98379 23.479C4.27895 22.036 5.68773 21.1053 7.1307 21.4001C8.37238 21.6538 9.26383 22.7463 9.26356 24.0137C9.26356 24.1928 9.24538 24.3715 9.20957 24.5471ZM21.2644 24.0137H10.5969C10.5969 21.8044 8.80617 20.0133 6.59681 20.0133C4.38746 20.0133 2.59643 21.8044 2.59643 24.0137H1.26306V20.7214C1.26387 20.1107 1.59104 19.5467 2.12114 19.2434C4.29685 18.0012 6.7585 17.3474 9.26356 17.3466H21.2644V24.0137ZM21.2644 16.0132H11.8785L12.0071 15.943C14.8575 14.3939 18.0237 13.5158 21.2644 13.3755V16.0132ZM22.5978 13.3462H22.9752C25.662 13.3432 28.3244 13.8532 30.8199 14.8491L29.6559 16.0132H22.5978V13.3462ZM34.5447 24.5471C34.2498 25.99 32.841 26.9208 31.3978 26.6259C29.9548 26.331 29.024 24.9223 29.3189 23.479C29.6138 22.036 31.0229 21.1053 32.4658 21.4001C33.7075 21.6538 34.599 22.7463 34.5987 24.0137C34.5987 24.1928 34.5805 24.3715 34.5447 24.5471ZM38.5991 18.0131H36.5989V19.3468H38.5991V22.0803C38.6007 22.5716 38.3012 23.0138 37.8444 23.1942L35.9321 23.9622C35.9321 23.9009 35.9242 23.8401 35.9201 23.7788C35.9161 23.7175 35.9147 23.6456 35.9082 23.5788C35.9014 23.5121 35.8881 23.4454 35.8775 23.3789C35.8667 23.3122 35.8588 23.2454 35.8455 23.1849C35.8322 23.1242 35.8127 23.0569 35.7953 22.9934C35.778 22.9302 35.7647 22.8662 35.7446 22.804C35.7248 22.7422 35.7007 22.6828 35.6781 22.622C35.6553 22.5615 35.6347 22.4989 35.6114 22.4386C35.5881 22.3787 35.5566 22.3241 35.5287 22.2674C35.5007 22.2107 35.4733 22.1486 35.4421 22.0914C35.4106 22.0341 35.3754 21.9853 35.3453 21.9321C35.3154 21.8787 35.2788 21.8179 35.2408 21.7634C35.2026 21.7086 35.1673 21.6655 35.1307 21.6161C35.0941 21.5667 35.0526 21.5087 35.01 21.4574C34.9674 21.4061 34.9275 21.366 34.886 21.3239C34.8447 21.2821 34.7986 21.2254 34.7528 21.1788C34.7067 21.1321 34.6614 21.0952 34.6155 21.054C34.5694 21.0127 34.52 20.9639 34.4693 20.9205C34.4188 20.8774 34.3673 20.844 34.3168 20.806C34.2661 20.768 34.2154 20.7274 34.1622 20.6918C34.1087 20.6565 34.0488 20.6254 33.9916 20.5879C33.934 20.5505 33.8874 20.5212 33.8334 20.4927C33.7794 20.4639 33.7121 20.4338 33.6508 20.4045C33.5895 20.3752 33.5415 20.3492 33.4848 20.3253C33.4281 20.3012 33.3513 20.2759 33.2849 20.2521C33.2181 20.2279 33.1747 20.2092 33.118 20.1913C33.042 20.168 32.9642 20.1511 32.8866 20.1319C32.8359 20.1199 32.7873 20.1039 32.736 20.0934C32.6541 20.0765 32.57 20.0673 32.4867 20.0551C32.4374 20.0486 32.3901 20.0377 32.3408 20.0331C32.2073 20.0198 32.0741 20.0125 31.9341 20.0125C29.7256 20.0147 27.9359 21.8044 27.9337 24.0129H22.5981V17.3463H29.9318C30.1086 17.3463 30.2782 17.2761 30.403 17.151L32.1319 15.4221C32.8576 15.7674 33.5632 16.1535 34.2455 16.5783C34.3241 16.6274 34.412 16.6597 34.504 16.673L38.5991 17.2576V18.0131Z" fill="#23FFFF"/>
</g>
<defs>
<clipPath id="clip0">
<rect width="40" height="40" fill="white"/>
</clipPath>
</defs>
</svg>
