<svg width="35" height="36" viewBox="0 0 35 36" fill="none" xmlns="http://www.w3.org/2000/svg">
<path d="M6.89038 9.8859C6.89038 11.5205 5.54986 12.8478 3.89913 12.8478C2.24841 12.8478 0.902344 11.5205 0.902344 9.8859C0.902344 8.25134 2.24287 6.92395 3.89359 6.92395C5.54432 6.92395 6.89038 8.25134 6.89038 9.8859Z" stroke="#23FFFF" stroke-width="1.5" stroke-miterlimit="10" stroke-linecap="round" stroke-linejoin="round"/>
<path d="M27.4355 9.8859C27.4355 11.5205 28.7761 12.8478 30.4268 12.8478C32.0775 12.8478 33.418 11.5205 33.418 9.8859C33.418 8.25134 32.0775 6.92395 30.4268 6.92395C28.7761 6.92395 27.4355 8.25134 27.4355 9.8859Z" stroke="#23FFFF" stroke-width="1.5" stroke-miterlimit="10" stroke-linecap="round" stroke-linejoin="round"/>
<path d="M17.1612 6.92394C15.5104 6.92394 14.1699 5.59654 14.1699 3.96197C14.1699 2.3274 15.5104 1 17.1612 1C18.8119 1 20.1524 2.3274 20.1524 3.96197C20.158 5.59654 18.8174 6.92394 17.1612 6.92394Z" stroke="#23FFFF" stroke-width="1.5" stroke-miterlimit="10" stroke-linecap="round" stroke-linejoin="round"/>
<path d="M6.38672 11.5313L11.915 15.338L16.0252 6.69897" stroke="#23FFFF" stroke-width="1.5" stroke-miterlimit="10" stroke-linecap="round" stroke-linejoin="round"/>
<path d="M27.9402 11.5313L22.4064 15.338L18.3018 6.69897" stroke="#23FFFF" stroke-width="1.5" stroke-miterlimit="10" stroke-linecap="round" stroke-linejoin="round"/>
<path d="M3.89355 12.8477L6.38626 26.4836H27.9399L30.4326 12.8477" stroke="#23FFFF" stroke-width="1.5" stroke-miterlimit="10" stroke-linecap="round" stroke-linejoin="round"/>
<path d="M27.9385 34.2792V30.5658L6.38485 30.5658V34.2792L27.9385 34.2792Z" stroke="#23FFFF" stroke-width="1.5" stroke-miterlimit="10" stroke-linecap="round" stroke-linejoin="round"/>
</svg>
