<svg width="40" height="40" viewBox="0 0 40 40" fill="none" xmlns="http://www.w3.org/2000/svg">
<g clip-path="url(#clip0)">
<path d="M33.2407 3.20898C30.1844 3.20898 27.7695 5.66159 27.7695 8.71792C27.7695 11.7743 30.2221 14.1891 33.2407 14.1891C36.2593 14.1891 38.7497 11.7365 38.7497 8.68019C38.7497 5.62386 36.2971 3.20898 33.2407 3.20898ZM33.2407 12.9817C30.8636 12.9817 28.9392 11.0573 28.9392 8.68019C28.9392 6.30305 30.9013 4.41642 33.2407 4.41642C35.6179 4.41642 37.5422 6.34078 37.5422 8.71792C37.5422 11.0951 35.6179 12.9817 33.2407 12.9817Z" fill="#23FFFF"/>
<path d="M34.9779 9.54812C34.9401 9.43492 34.9401 9.35945 34.8647 9.24626C34.8269 9.17079 34.7892 9.0576 34.7137 8.98213C34.6383 8.90667 34.6005 8.8312 34.5251 8.75574C34.4496 8.68027 34.3742 8.60481 34.261 8.56707C34.1855 8.49161 34.0723 8.45388 33.9968 8.41614C33.8836 8.37841 33.8082 8.30295 33.695 8.26521C33.5818 8.22748 33.4686 8.18975 33.3931 8.15202C33.3554 8.15202 33.2799 8.11429 33.2422 8.07655C33.2044 8.03882 33.129 8.03882 33.0912 8.00109C33.0535 7.96336 32.978 7.96335 32.9403 7.92562C32.9026 7.88789 32.8649 7.85016 32.8271 7.81243C32.7894 7.77469 32.7517 7.73696 32.7517 7.6615C32.7139 7.62376 32.7139 7.5483 32.7139 7.51057C32.7139 7.4351 32.7139 7.39737 32.7139 7.3219C32.7139 7.28417 32.7517 7.20871 32.7517 7.17097C32.7894 7.13324 32.7894 7.05778 32.8271 7.02004C32.8649 6.98231 32.9026 6.94458 32.9403 6.90685C32.978 6.86911 33.0535 6.83138 33.129 6.83138C33.2044 6.79365 33.2422 6.79365 33.3176 6.79365C33.3554 6.79365 33.3931 6.79365 33.4308 6.79365C33.4686 6.79365 33.5063 6.79365 33.544 6.79365C33.6195 6.79365 33.6572 6.79365 33.7327 6.83138C33.8082 6.83138 33.8836 6.86911 33.9214 6.86911C33.9591 6.86911 34.0346 6.90685 34.0723 6.90685C34.1478 6.90685 34.1855 6.94458 34.2232 6.94458L34.4119 7.02004L34.4496 6.79365L34.5251 6.18993V6.039L34.3741 6.00127C34.3364 6.00127 34.261 5.96354 34.2232 5.96354C34.1855 5.96354 34.1478 5.9258 34.0723 5.9258C34.0346 5.9258 33.9591 5.88807 33.8836 5.88807C33.8082 5.88807 33.7704 5.85034 33.695 5.85034H33.6572V5.32208V5.13342H33.4686H32.9403H32.7517V5.32208V5.88807H32.7139C32.6007 5.9258 32.4875 5.96354 32.3743 6.039C32.2611 6.07673 32.1857 6.1522 32.1102 6.22766C32.0347 6.30313 31.9593 6.37859 31.8838 6.49179C31.8083 6.56726 31.7706 6.68045 31.7329 6.79365C31.6951 6.90685 31.6574 7.02004 31.6197 7.13324C31.5819 7.24644 31.5819 7.39737 31.5819 7.51057C31.5819 7.62376 31.5819 7.69923 31.6197 7.81243C31.6574 7.92562 31.6574 8.00109 31.7329 8.11428C31.7706 8.18975 31.8461 8.30295 31.8838 8.37841C31.9593 8.45388 31.997 8.52934 32.0725 8.60481C32.1479 8.68027 32.2234 8.75574 32.3366 8.79347C32.4121 8.86893 32.5253 8.90667 32.6007 8.9444C32.7139 8.98213 32.8271 9.0576 32.9026 9.09533C33.0158 9.13306 33.129 9.17079 33.2044 9.20853C33.2422 9.20853 33.3176 9.24626 33.3554 9.28399C33.3931 9.32172 33.4686 9.32172 33.5063 9.35946C33.544 9.39719 33.5818 9.43492 33.6195 9.43492C33.6572 9.47265 33.695 9.51039 33.7327 9.54812C33.7704 9.58585 33.7704 9.62358 33.8082 9.69905C33.8082 9.73678 33.8459 9.81224 33.8459 9.88771C33.8459 9.96317 33.8459 10.0009 33.8459 10.0764C33.8459 10.1141 33.8082 10.1896 33.7704 10.2273C33.7327 10.265 33.695 10.3028 33.6572 10.3405C33.6195 10.3782 33.5818 10.416 33.5063 10.4537C33.4686 10.4914 33.3931 10.4914 33.3554 10.5292C33.3176 10.5292 33.2422 10.5669 33.1667 10.5669C33.129 10.5669 33.0912 10.5669 33.0158 10.5669C32.978 10.5669 32.9026 10.5669 32.8649 10.5669C32.7894 10.5669 32.7139 10.5669 32.6762 10.5669C32.6007 10.5669 32.5253 10.5292 32.4875 10.5292C32.4121 10.5292 32.3366 10.4914 32.2611 10.4537C32.1857 10.416 32.1102 10.416 32.0347 10.3782C31.997 10.3782 31.9593 10.3405 31.9215 10.3405C31.8838 10.3405 31.8461 10.3028 31.8083 10.3028L31.5819 10.1896L31.5442 10.4537L31.4688 11.1329V11.2461L31.5819 11.2838C31.7329 11.2461 31.8083 11.2838 31.9215 11.3215C31.997 11.3593 32.1102 11.397 32.1857 11.397C32.2611 11.4347 32.3743 11.4347 32.4875 11.4725C32.6007 11.5102 32.6762 11.5102 32.7894 11.5102H32.8649V12.0762V12.2649H33.0535H33.5818H33.7704V12.0762V11.4725H33.8082C33.9214 11.4347 34.0346 11.397 34.1478 11.3215C34.261 11.2838 34.3364 11.2083 34.4496 11.1329C34.5251 11.0574 34.6005 10.9819 34.676 10.8688C34.7515 10.7933 34.7892 10.6801 34.8647 10.5669C34.9024 10.4537 34.9401 10.3405 34.9779 10.2273C35.0156 10.1141 35.0156 10.0009 35.0156 9.84998C35.0156 9.73678 35.0156 9.66131 34.9779 9.54812Z" fill="#23FFFF"/>
<path d="M30.6013 14.906C30.4127 14.6419 29.9976 14.6042 29.7335 14.7928L23.6208 19.6603L15.7347 16.3776C15.5461 16.3021 15.3197 16.3399 15.1687 16.4531L6.71667 22.4903C6.45254 22.6789 6.37708 23.0563 6.56574 23.3204C6.67894 23.5091 6.8676 23.5845 7.05626 23.5845C7.16946 23.5845 7.28266 23.5468 7.39585 23.4713L15.5838 17.6228L23.5076 20.9055C23.6963 20.981 23.9604 20.9432 24.1113 20.83L30.4881 15.7739C30.7523 15.5852 30.79 15.1702 30.6013 14.906Z" fill="#23FFFF"/>
<path d="M39.4305 35.5836H36.6383V18.1135C36.6383 17.7739 36.3741 17.5098 36.0345 17.5098H30.4879C30.1483 17.5098 29.8841 17.7739 29.8841 18.1135V35.5836H27.8466V24.1507C27.8466 23.8111 27.5825 23.547 27.2429 23.547H21.6585C21.3189 23.547 21.0547 23.8111 21.0547 24.1507V35.5836H19.0172V23.2451C19.0172 22.9055 18.753 22.6414 18.4135 22.6414H12.8668C12.5272 22.6414 12.2631 22.9055 12.2631 23.2451V35.5836H10.2255V26.792C10.2255 26.4524 9.96138 26.1882 9.62179 26.1882H4.03738C3.69778 26.1882 3.43366 26.4524 3.43366 26.792V35.5836H0.60372C0.264127 35.5836 0 35.8478 0 36.1873C0 36.5269 0.264127 36.7911 0.60372 36.7911H3.99964H9.54632H12.8668H18.4135H21.6585H27.2051H30.4501H35.9968H39.3927C39.7323 36.7911 39.9964 36.5269 39.9964 36.1873C40.0342 35.8478 39.7701 35.5836 39.4305 35.5836ZM8.98033 35.5836H4.6411V27.3957H8.98033V35.5836ZM17.8097 35.5836H13.4705V23.8488H17.8097V35.5836ZM26.6014 35.5836H22.2622V24.7544H26.6014V35.5836ZM35.4308 35.5836H31.0916V18.7172H35.4308V35.5836Z" fill="#23FFFF"/>
</g>
<defs>
<clipPath id="clip0">
<rect width="40" height="40" fill="white"/>
</clipPath>
</defs>
</svg>
