<svg width="40" height="40" viewBox="0 0 40 40" fill="none" xmlns="http://www.w3.org/2000/svg">
<g clip-path="url(#clip0)">
<path d="M36.945 21.9997C36.9372 21.9997 36.9292 21.9998 36.9213 21.9999C36.1613 21.9984 35.4289 22.2842 34.8707 22.7999L27.648 29.4666C27.2791 29.8093 26.7942 29.9998 26.2907 29.9999H16.162C15.4256 29.9999 14.8287 29.403 14.8287 28.6666C14.8287 27.9302 15.4256 27.3333 16.162 27.3333H23.1713C24.6441 27.3333 25.838 26.1393 25.838 24.6666C25.838 23.1938 24.6441 21.9999 23.1713 21.9999H12.294C10.6695 21.9994 9.07775 22.4562 7.70067 23.3179L5.33333 24.7999V23.9999H0V39.9999H5.33333V38.6666H19.3887C19.8299 38.6666 20.2705 38.6329 20.7067 38.5659L26.18 37.7239C28.0029 37.4474 29.6889 36.593 30.99 35.2866L39.114 27.1613C39.6831 26.5956 40.0022 25.8257 40 25.0233C39.9913 23.3447 38.6235 21.991 36.945 21.9997ZM4 38.6666H1.33333V25.3333H4V38.6666ZM38.1707 26.2199L38.1713 26.2186L30.0473 34.3439C28.9463 35.4493 27.5197 36.1723 25.9773 36.4066L20.504 37.2486C20.1349 37.305 19.7621 37.3334 19.3887 37.3333H5.33333V26.3693L8.408 24.4479C9.57308 23.7192 10.9197 23.3328 12.294 23.3333H23.1713C23.9077 23.3333 24.5047 23.9302 24.5047 24.6666C24.5047 25.403 23.9077 25.9999 23.1713 25.9999H16.162C14.6892 25.9999 13.4953 27.1938 13.4953 28.6666C13.4953 30.1393 14.6892 31.3333 16.162 31.3333H26.2907C27.1289 31.3342 27.9366 31.0184 28.552 30.4493L35.7753 23.7826C36.1031 23.4848 36.5327 23.3245 36.9753 23.3346C37.9087 23.3343 38.6657 24.0906 38.666 25.0239C38.6662 25.4725 38.4879 25.9028 38.1707 26.2199Z" fill="#23FFFF"/>
<path d="M29.8667 6.93327C29.7407 6.76544 29.5432 6.66661 29.3333 6.66661H23.118L20.6193 0.419273C20.4826 0.0774395 20.0947 -0.0888938 19.7527 0.0478562C19.5833 0.115606 19.4491 0.249856 19.3813 0.419273L16.882 6.66661H10.6667C10.2985 6.66661 10 6.96511 10 7.33327C10 7.54311 10.0988 7.74069 10.2667 7.86661L15.2047 11.5699L12.7067 18.4366C12.5808 18.7826 12.7593 19.1651 13.1053 19.2909C13.3237 19.3704 13.5677 19.3303 13.7493 19.1853L19.9767 14.2026L25.5567 19.1619C25.832 19.4064 26.2533 19.3814 26.4978 19.1061C26.6472 18.9379 26.7017 18.7057 26.6427 18.4886L24.7627 11.5953L29.7333 7.86661C30.0279 7.64569 30.0876 7.22777 29.8667 6.93327ZM23.6 10.7999C23.3812 10.9639 23.2848 11.2449 23.3567 11.5086L24.7667 16.6786L20.4433 12.8353C20.2007 12.6194 19.8377 12.6099 19.584 12.8126L14.772 16.6619L16.6273 11.5613C16.7276 11.2851 16.6352 10.9759 16.4 10.7999L12.6667 7.99994H17.3333C17.6062 8.00002 17.8515 7.83394 17.9527 7.58061L20 2.46127L22.0473 7.58061C22.1485 7.83394 22.3939 8.00002 22.6667 7.99994H27.3333L23.6 10.7999Z" fill="#23FFFF"/>
<path d="M13.1391 1.52888L12.1963 2.47168L14.863 5.13839L15.8058 4.19559L13.1391 1.52888Z" fill="#23FFFF"/>
<path d="M26.862 1.52836L24.1953 4.19507L25.1381 5.13787L27.8048 2.47116L26.862 1.52836Z" fill="#23FFFF"/>
<path d="M12.668 12H8.66797V13.3333H12.668V12Z" fill="#23FFFF"/>
<path d="M31.332 12H27.332V13.3333H31.332V12Z" fill="#23FFFF"/>
<path d="M20.6654 16H19.332V20H20.6654V16Z" fill="#23FFFF"/>
</g>
<defs>
<clipPath id="clip0">
<rect width="40" height="40" fill="white"/>
</clipPath>
</defs>
</svg>
