<svg width="40" height="40" viewBox="0 0 40 40" fill="none" xmlns="http://www.w3.org/2000/svg">
<path d="M19.9313 5.08281C20.3658 5.08281 20.7181 4.73055 20.7181 4.29602V0.786797C20.7181 0.352266 20.3658 0 19.9313 0C19.4968 0 19.1445 0.352266 19.1445 0.786797V4.29602C19.1446 4.73055 19.4969 5.08281 19.9313 5.08281Z" fill="white"/>
<path d="M19.9313 5.08281C20.3658 5.08281 20.7181 4.73055 20.7181 4.29602V0.786797C20.7181 0.352266 20.3658 0 19.9313 0C19.4968 0 19.1445 0.352266 19.1445 0.786797V4.29602C19.1446 4.73055 19.4969 5.08281 19.9313 5.08281Z" fill="url(#paint0_linear)"/>
<path d="M39.162 27.0302L37.7721 25.6442C37.2776 25.1503 36.6186 24.8783 35.9164 24.8783C35.4675 24.8783 35.0364 24.99 34.6545 25.1993L32.0353 22.5832L32.1628 22.4558C33.2254 21.3911 33.225 19.661 32.1628 18.5999C31.7832 18.2196 31.3095 17.966 30.7932 17.8593C30.8643 17.6139 30.9017 17.3569 30.9017 17.0939C30.9017 16.363 30.6178 15.6777 30.1039 15.1659C29.7242 14.7856 29.2506 14.532 28.7343 14.4253C28.8053 14.1799 28.8428 13.9229 28.8428 13.6598C28.8428 12.9289 28.5589 12.2436 28.0441 11.731C27.6554 11.3428 27.1775 11.097 26.6757 10.9924C26.9441 10.0668 26.7147 9.02549 25.9866 8.29612C25.3805 7.6926 24.5581 7.43323 23.7655 7.51729L18.5753 6.53487C17.7837 6.38471 16.7952 6.28541 16.1712 6.85456C16.1318 6.89049 16.0917 6.93182 16.0521 6.97784C15.0846 6.62518 13.9562 6.83518 13.1814 7.60909C12.6675 8.12245 12.3843 8.80745 12.3843 9.53791C12.3843 9.80104 12.4216 10.058 12.4926 10.3035C11.9768 10.4101 11.5038 10.6634 11.1254 11.0424C10.6104 11.5553 10.3264 12.2396 10.3259 12.9692C10.3257 13.2329 10.3631 13.4907 10.4345 13.7368C9.91848 13.8432 9.44512 14.096 9.06559 14.4751C8.55059 14.9896 8.26699 15.6749 8.26699 16.405C8.26699 16.9642 8.43395 17.497 8.74332 17.947C8.3527 18.0794 7.99488 18.2998 7.69527 18.5991C6.63199 19.661 6.6316 21.3912 7.69598 22.4574L7.82309 22.584L5.20356 25.1988C4.23004 24.7404 3.03059 24.9121 2.22723 25.7145L0.836445 27.1014C0.341758 27.5954 0.0694141 28.2545 0.0693359 28.9571C0.0693359 29.6597 0.341758 30.3189 0.836445 30.813L2.57215 32.5466C2.87957 32.8537 3.37777 32.8534 3.6848 32.546C3.99191 32.2385 3.9916 31.7403 3.68418 31.4333L1.94848 29.6997C1.75145 29.5029 1.64293 29.2392 1.64293 28.9571C1.64293 28.6752 1.75145 28.4115 1.94801 28.2152L3.33887 26.8282C3.68637 26.4811 4.21824 26.4294 4.62215 26.6709C4.65059 26.7136 4.68348 26.7542 4.72113 26.792C4.78855 26.8596 4.86551 26.9114 4.94723 26.9492L12.9232 34.9135C12.9611 34.9961 13.0132 35.0739 13.0811 35.1418C13.1471 35.208 13.2225 35.2592 13.3025 35.2968C13.4712 35.4875 13.5644 35.7311 13.5644 35.991C13.5644 36.273 13.4559 36.5367 13.2589 36.7335L11.8694 38.1213C11.4589 38.53 10.7911 38.5299 10.3818 38.1225L8.64606 36.3867C8.33879 36.0794 7.84066 36.0794 7.5334 36.3867C7.22613 36.6939 7.22613 37.1921 7.5334 37.4993L9.27035 39.2364C9.7816 39.7456 10.453 40 11.1247 40C11.7966 40 12.4688 39.7452 12.9807 39.2356L14.371 37.8469C14.8657 37.3528 15.1381 36.6937 15.1381 35.991C15.1381 35.4895 14.9986 35.0106 14.7393 34.5976L17.6875 31.6531C17.6906 31.6499 17.6937 31.6467 17.6969 31.6435C18.0345 31.2945 18.9746 31.3598 19.8837 31.4229C20.5296 31.4678 21.2498 31.5178 21.9534 31.4367L25.1818 34.6613C24.9727 35.0426 24.8611 35.4731 24.8611 35.9214C24.8611 36.6233 25.1335 37.282 25.6282 37.7761L27.0186 39.1648C27.5129 39.6586 28.1719 39.9306 28.8741 39.9306C29.5762 39.9306 30.2352 39.6587 30.7296 39.1648L39.1625 30.7421C39.6572 30.2481 39.9296 29.589 39.9296 28.8864C39.9296 28.1838 39.6571 27.5247 39.162 27.0302ZM18.2823 8.08096L21.6954 8.72698L19.6525 10.7691C19.3364 10.6172 18.9033 10.3339 18.4282 9.8794C17.7778 9.25721 17.3125 8.53885 17.2702 8.0908C17.2701 8.09057 17.2701 8.09034 17.2701 8.0901C17.2701 8.09002 17.27 8.08995 17.27 8.08987C17.267 8.05768 17.2662 8.03198 17.2666 8.01237C17.3695 7.98737 17.6428 7.95963 18.2823 8.08096ZM14.2934 8.72245C14.692 8.32424 15.3112 8.27831 15.7616 8.5833C16.0168 9.65346 16.9297 10.6234 17.3404 11.0164C17.6448 11.3076 18.6214 12.1808 19.6072 12.4208C19.7406 12.612 19.8132 12.8399 19.8132 13.0803C19.8132 13.3901 19.694 13.6797 19.4769 13.8966C19.2604 14.1135 18.9704 14.2328 18.66 14.2328C18.3496 14.2328 18.0596 14.1135 17.8421 13.8956L17.842 13.8955L17.8416 13.8951L14.2933 10.3532C14.077 10.1372 13.9579 9.8476 13.9579 9.53791C13.9579 9.22815 14.0771 8.93854 14.2934 8.72245ZM12.2375 12.1558C12.4539 11.939 12.7437 11.8196 13.0536 11.8196C13.3638 11.8196 13.6545 11.9392 13.8724 12.1569L16.7296 15.0084C17.1795 15.459 17.1795 16.1923 16.7311 16.6414C16.5135 16.8581 16.2224 16.9775 15.9115 16.9775C15.6007 16.9775 15.3096 16.8581 15.0929 16.6423L15.0928 16.6422L12.9252 14.4751C12.9218 14.4717 12.9182 14.4686 12.9147 14.4652L12.2366 13.7874C12.019 13.57 11.8993 13.2799 11.8995 12.9703C11.8998 12.6618 12.0192 12.3731 12.2375 12.1558ZM10.1776 15.5885C10.3943 15.3721 10.6846 15.253 10.9954 15.253C11.3036 15.253 11.5915 15.3704 11.8072 15.583L13.9814 17.7562C14.1982 17.9721 14.3177 18.2614 14.3177 18.5708C14.3177 18.8801 14.1982 19.1694 13.9806 19.3862C13.764 19.6024 13.4739 19.7216 13.1637 19.7216C12.853 19.7216 12.562 19.6021 12.3451 19.3862L11.5569 18.5989C11.5568 18.5987 11.5565 18.5985 11.5564 18.5984L10.1777 17.2214C9.96035 17.0042 9.84066 16.7142 9.84066 16.4049C9.84066 16.0956 9.96035 15.8055 10.1776 15.5885ZM8.8073 19.7124C9.02488 19.495 9.31566 19.3753 9.62605 19.3753C9.93637 19.3753 10.2271 19.4949 10.4446 19.7121L11.2339 20.5005C11.4507 20.7164 11.5701 21.0057 11.5701 21.3151C11.5701 21.6245 11.4507 21.9137 11.2322 22.1314C11.0157 22.3481 10.7257 22.4676 10.4154 22.4676C10.105 22.4676 9.81488 22.3482 9.59684 22.1298L9.49801 22.0314C9.49668 22.03 9.49566 22.0286 9.49441 22.0274C9.49293 22.026 9.49137 22.0247 9.48988 22.0233L8.80809 21.3442C8.35816 20.8933 8.35777 20.1614 8.8073 19.7124ZM24.8412 28.6544C24.5341 28.3469 24.0359 28.3467 23.7286 28.6537L23.0286 29.3528C22.3634 30.018 21.1582 29.9342 19.9926 29.8534C18.7269 29.7654 17.4181 29.6746 16.5711 30.5442L13.6731 33.4387L6.42598 26.2022L8.99066 23.6421C9.41457 23.902 9.90371 24.0413 10.4155 24.0413C11.1467 24.0413 11.8323 23.7578 12.3444 23.2448C12.86 22.7314 13.1439 22.0461 13.1439 21.3152C13.1439 21.3084 13.1435 21.3017 13.1435 21.2949C13.1503 21.2949 13.1571 21.2953 13.1639 21.2953C13.894 21.2953 14.5791 21.0128 15.0919 20.5006C15.6075 19.9871 15.8914 19.3018 15.8914 18.571C15.8914 18.5642 15.891 18.5574 15.891 18.5506C15.8979 18.5506 15.9047 18.5511 15.9117 18.5511C16.6416 18.5511 17.3271 18.2689 17.8433 17.7547C18.3793 17.2179 18.6443 16.5112 18.6393 15.806C18.6463 15.806 18.6533 15.8064 18.6604 15.8064C19.3915 15.8064 20.0771 15.523 20.59 15.0092C21.1039 14.4958 21.3871 13.8108 21.3871 13.0803C21.3871 12.5695 21.2482 12.0811 20.9892 11.6581L23.2371 9.41112C23.4046 9.24432 23.6111 9.13963 23.8276 9.09643C23.8511 9.09393 23.8742 9.09018 23.8971 9.08565C24.2444 9.03776 24.6092 9.14495 24.8748 9.40948C25.3247 9.86018 25.3247 10.5935 24.8764 11.0425L24.1918 11.7243C24.1896 11.7266 24.1871 11.7286 24.1849 11.7309L23.3964 12.5181C23.0889 12.8251 23.0886 13.3233 23.3957 13.6307C23.7029 13.9382 24.201 13.9385 24.5083 13.6314L25.1957 12.945C25.1958 12.9449 25.196 12.9447 25.1961 12.9446L25.3 12.841C25.7512 12.394 26.4821 12.3949 26.9329 12.845C27.1497 13.061 27.2692 13.3503 27.2692 13.6596C27.2692 13.9689 27.1497 14.2582 26.9311 14.4759L26.2426 15.1658C26.2425 15.1659 26.2425 15.166 26.2424 15.1661L25.4539 15.9514C25.1461 16.258 25.145 16.7562 25.4517 17.064C25.7583 17.3719 26.2564 17.3728 26.5643 17.0663L27.3564 16.2774C27.5729 16.0606 27.8629 15.9412 28.1732 15.9412C28.4836 15.9412 28.7738 16.0606 28.9918 16.279C29.2087 16.495 29.3281 16.7843 29.3281 17.0937C29.3281 17.403 29.2087 17.6923 28.9906 17.9095L27.6179 19.2827C27.3107 19.59 27.3108 20.0881 27.6181 20.3953C27.7718 20.5489 27.973 20.6256 28.1743 20.6256C28.3757 20.6256 28.5771 20.5488 28.7307 20.3951L29.4035 19.7221C29.4073 19.7185 29.4114 19.7153 29.4153 19.7114C29.6318 19.4946 29.9218 19.3752 30.2321 19.3752C30.5425 19.3752 30.8326 19.4946 31.0499 19.7122C31.4993 20.1612 31.4989 20.8932 31.0499 21.3431L30.3659 22.0263C30.3657 22.0265 30.3654 22.0267 30.3651 22.027C30.3649 22.0272 30.3646 22.0275 30.3644 22.0278L29.2788 23.1121C28.9714 23.4192 28.9711 23.9174 29.2781 24.2248C29.4318 24.3786 29.6333 24.4556 29.8348 24.4556C30.036 24.4556 30.2372 24.3789 30.3908 24.2255L30.9218 23.6951L33.4669 26.2372L26.2204 33.4749L23.624 30.8816C23.805 30.7652 23.9782 30.6283 24.1408 30.4657L24.8404 29.767C25.148 29.46 25.1483 28.9618 24.8412 28.6544ZM38.0504 29.6288L29.6175 38.0514C29.4203 38.2485 29.1562 38.357 28.874 38.357C28.5918 38.357 28.3278 38.2485 28.1304 38.0514L26.74 36.6627C26.543 36.466 26.4345 36.2027 26.4345 35.9214C26.4345 35.6401 26.543 35.3768 26.74 35.18L35.1729 26.7574C35.3703 26.5603 35.6343 26.4517 35.9165 26.4517C36.1987 26.4517 36.4628 26.5603 36.6606 26.7578L38.0505 28.1439C38.2475 28.3406 38.3561 28.6042 38.3561 28.8863C38.356 29.1684 38.2475 29.4321 38.0504 29.6288Z" fill="white"/>
<path d="M39.162 27.0302L37.7721 25.6442C37.2776 25.1503 36.6186 24.8783 35.9164 24.8783C35.4675 24.8783 35.0364 24.99 34.6545 25.1993L32.0353 22.5832L32.1628 22.4558C33.2254 21.3911 33.225 19.661 32.1628 18.5999C31.7832 18.2196 31.3095 17.966 30.7932 17.8593C30.8643 17.6139 30.9017 17.3569 30.9017 17.0939C30.9017 16.363 30.6178 15.6777 30.1039 15.1659C29.7242 14.7856 29.2506 14.532 28.7343 14.4253C28.8053 14.1799 28.8428 13.9229 28.8428 13.6598C28.8428 12.9289 28.5589 12.2436 28.0441 11.731C27.6554 11.3428 27.1775 11.097 26.6757 10.9924C26.9441 10.0668 26.7147 9.02549 25.9866 8.29612C25.3805 7.6926 24.5581 7.43323 23.7655 7.51729L18.5753 6.53487C17.7837 6.38471 16.7952 6.28541 16.1712 6.85456C16.1318 6.89049 16.0917 6.93182 16.0521 6.97784C15.0846 6.62518 13.9562 6.83518 13.1814 7.60909C12.6675 8.12245 12.3843 8.80745 12.3843 9.53791C12.3843 9.80104 12.4216 10.058 12.4926 10.3035C11.9768 10.4101 11.5038 10.6634 11.1254 11.0424C10.6104 11.5553 10.3264 12.2396 10.3259 12.9692C10.3257 13.2329 10.3631 13.4907 10.4345 13.7368C9.91848 13.8432 9.44512 14.096 9.06559 14.4751C8.55059 14.9896 8.26699 15.6749 8.26699 16.405C8.26699 16.9642 8.43395 17.497 8.74332 17.947C8.3527 18.0794 7.99488 18.2998 7.69527 18.5991C6.63199 19.661 6.6316 21.3912 7.69598 22.4574L7.82309 22.584L5.20356 25.1988C4.23004 24.7404 3.03059 24.9121 2.22723 25.7145L0.836445 27.1014C0.341758 27.5954 0.0694141 28.2545 0.0693359 28.9571C0.0693359 29.6597 0.341758 30.3189 0.836445 30.813L2.57215 32.5466C2.87957 32.8537 3.37777 32.8534 3.6848 32.546C3.99191 32.2385 3.9916 31.7403 3.68418 31.4333L1.94848 29.6997C1.75145 29.5029 1.64293 29.2392 1.64293 28.9571C1.64293 28.6752 1.75145 28.4115 1.94801 28.2152L3.33887 26.8282C3.68637 26.4811 4.21824 26.4294 4.62215 26.6709C4.65059 26.7136 4.68348 26.7542 4.72113 26.792C4.78855 26.8596 4.86551 26.9114 4.94723 26.9492L12.9232 34.9135C12.9611 34.9961 13.0132 35.0739 13.0811 35.1418C13.1471 35.208 13.2225 35.2592 13.3025 35.2968C13.4712 35.4875 13.5644 35.7311 13.5644 35.991C13.5644 36.273 13.4559 36.5367 13.2589 36.7335L11.8694 38.1213C11.4589 38.53 10.7911 38.5299 10.3818 38.1225L8.64606 36.3867C8.33879 36.0794 7.84066 36.0794 7.5334 36.3867C7.22613 36.6939 7.22613 37.1921 7.5334 37.4993L9.27035 39.2364C9.7816 39.7456 10.453 40 11.1247 40C11.7966 40 12.4688 39.7452 12.9807 39.2356L14.371 37.8469C14.8657 37.3528 15.1381 36.6937 15.1381 35.991C15.1381 35.4895 14.9986 35.0106 14.7393 34.5976L17.6875 31.6531C17.6906 31.6499 17.6937 31.6467 17.6969 31.6435C18.0345 31.2945 18.9746 31.3598 19.8837 31.4229C20.5296 31.4678 21.2498 31.5178 21.9534 31.4367L25.1818 34.6613C24.9727 35.0426 24.8611 35.4731 24.8611 35.9214C24.8611 36.6233 25.1335 37.282 25.6282 37.7761L27.0186 39.1648C27.5129 39.6586 28.1719 39.9306 28.8741 39.9306C29.5762 39.9306 30.2352 39.6587 30.7296 39.1648L39.1625 30.7421C39.6572 30.2481 39.9296 29.589 39.9296 28.8864C39.9296 28.1838 39.6571 27.5247 39.162 27.0302ZM18.2823 8.08096L21.6954 8.72698L19.6525 10.7691C19.3364 10.6172 18.9033 10.3339 18.4282 9.8794C17.7778 9.25721 17.3125 8.53885 17.2702 8.0908C17.2701 8.09057 17.2701 8.09034 17.2701 8.0901C17.2701 8.09002 17.27 8.08995 17.27 8.08987C17.267 8.05768 17.2662 8.03198 17.2666 8.01237C17.3695 7.98737 17.6428 7.95963 18.2823 8.08096ZM14.2934 8.72245C14.692 8.32424 15.3112 8.27831 15.7616 8.5833C16.0168 9.65346 16.9297 10.6234 17.3404 11.0164C17.6448 11.3076 18.6214 12.1808 19.6072 12.4208C19.7406 12.612 19.8132 12.8399 19.8132 13.0803C19.8132 13.3901 19.694 13.6797 19.4769 13.8966C19.2604 14.1135 18.9704 14.2328 18.66 14.2328C18.3496 14.2328 18.0596 14.1135 17.8421 13.8956L17.842 13.8955L17.8416 13.8951L14.2933 10.3532C14.077 10.1372 13.9579 9.8476 13.9579 9.53791C13.9579 9.22815 14.0771 8.93854 14.2934 8.72245ZM12.2375 12.1558C12.4539 11.939 12.7437 11.8196 13.0536 11.8196C13.3638 11.8196 13.6545 11.9392 13.8724 12.1569L16.7296 15.0084C17.1795 15.459 17.1795 16.1923 16.7311 16.6414C16.5135 16.8581 16.2224 16.9775 15.9115 16.9775C15.6007 16.9775 15.3096 16.8581 15.0929 16.6423L15.0928 16.6422L12.9252 14.4751C12.9218 14.4717 12.9182 14.4686 12.9147 14.4652L12.2366 13.7874C12.019 13.57 11.8993 13.2799 11.8995 12.9703C11.8998 12.6618 12.0192 12.3731 12.2375 12.1558ZM10.1776 15.5885C10.3943 15.3721 10.6846 15.253 10.9954 15.253C11.3036 15.253 11.5915 15.3704 11.8072 15.583L13.9814 17.7562C14.1982 17.9721 14.3177 18.2614 14.3177 18.5708C14.3177 18.8801 14.1982 19.1694 13.9806 19.3862C13.764 19.6024 13.4739 19.7216 13.1637 19.7216C12.853 19.7216 12.562 19.6021 12.3451 19.3862L11.5569 18.5989C11.5568 18.5987 11.5565 18.5985 11.5564 18.5984L10.1777 17.2214C9.96035 17.0042 9.84066 16.7142 9.84066 16.4049C9.84066 16.0956 9.96035 15.8055 10.1776 15.5885ZM8.8073 19.7124C9.02488 19.495 9.31566 19.3753 9.62605 19.3753C9.93637 19.3753 10.2271 19.4949 10.4446 19.7121L11.2339 20.5005C11.4507 20.7164 11.5701 21.0057 11.5701 21.3151C11.5701 21.6245 11.4507 21.9137 11.2322 22.1314C11.0157 22.3481 10.7257 22.4676 10.4154 22.4676C10.105 22.4676 9.81488 22.3482 9.59684 22.1298L9.49801 22.0314C9.49668 22.03 9.49566 22.0286 9.49441 22.0274C9.49293 22.026 9.49137 22.0247 9.48988 22.0233L8.80809 21.3442C8.35816 20.8933 8.35777 20.1614 8.8073 19.7124ZM24.8412 28.6544C24.5341 28.3469 24.0359 28.3467 23.7286 28.6537L23.0286 29.3528C22.3634 30.018 21.1582 29.9342 19.9926 29.8534C18.7269 29.7654 17.4181 29.6746 16.5711 30.5442L13.6731 33.4387L6.42598 26.2022L8.99066 23.6421C9.41457 23.902 9.90371 24.0413 10.4155 24.0413C11.1467 24.0413 11.8323 23.7578 12.3444 23.2448C12.86 22.7314 13.1439 22.0461 13.1439 21.3152C13.1439 21.3084 13.1435 21.3017 13.1435 21.2949C13.1503 21.2949 13.1571 21.2953 13.1639 21.2953C13.894 21.2953 14.5791 21.0128 15.0919 20.5006C15.6075 19.9871 15.8914 19.3018 15.8914 18.571C15.8914 18.5642 15.891 18.5574 15.891 18.5506C15.8979 18.5506 15.9047 18.5511 15.9117 18.5511C16.6416 18.5511 17.3271 18.2689 17.8433 17.7547C18.3793 17.2179 18.6443 16.5112 18.6393 15.806C18.6463 15.806 18.6533 15.8064 18.6604 15.8064C19.3915 15.8064 20.0771 15.523 20.59 15.0092C21.1039 14.4958 21.3871 13.8108 21.3871 13.0803C21.3871 12.5695 21.2482 12.0811 20.9892 11.6581L23.2371 9.41112C23.4046 9.24432 23.6111 9.13963 23.8276 9.09643C23.8511 9.09393 23.8742 9.09018 23.8971 9.08565C24.2444 9.03776 24.6092 9.14495 24.8748 9.40948C25.3247 9.86018 25.3247 10.5935 24.8764 11.0425L24.1918 11.7243C24.1896 11.7266 24.1871 11.7286 24.1849 11.7309L23.3964 12.5181C23.0889 12.8251 23.0886 13.3233 23.3957 13.6307C23.7029 13.9382 24.201 13.9385 24.5083 13.6314L25.1957 12.945C25.1958 12.9449 25.196 12.9447 25.1961 12.9446L25.3 12.841C25.7512 12.394 26.4821 12.3949 26.9329 12.845C27.1497 13.061 27.2692 13.3503 27.2692 13.6596C27.2692 13.9689 27.1497 14.2582 26.9311 14.4759L26.2426 15.1658C26.2425 15.1659 26.2425 15.166 26.2424 15.1661L25.4539 15.9514C25.1461 16.258 25.145 16.7562 25.4517 17.064C25.7583 17.3719 26.2564 17.3728 26.5643 17.0663L27.3564 16.2774C27.5729 16.0606 27.8629 15.9412 28.1732 15.9412C28.4836 15.9412 28.7738 16.0606 28.9918 16.279C29.2087 16.495 29.3281 16.7843 29.3281 17.0937C29.3281 17.403 29.2087 17.6923 28.9906 17.9095L27.6179 19.2827C27.3107 19.59 27.3108 20.0881 27.6181 20.3953C27.7718 20.5489 27.973 20.6256 28.1743 20.6256C28.3757 20.6256 28.5771 20.5488 28.7307 20.3951L29.4035 19.7221C29.4073 19.7185 29.4114 19.7153 29.4153 19.7114C29.6318 19.4946 29.9218 19.3752 30.2321 19.3752C30.5425 19.3752 30.8326 19.4946 31.0499 19.7122C31.4993 20.1612 31.4989 20.8932 31.0499 21.3431L30.3659 22.0263C30.3657 22.0265 30.3654 22.0267 30.3651 22.027C30.3649 22.0272 30.3646 22.0275 30.3644 22.0278L29.2788 23.1121C28.9714 23.4192 28.9711 23.9174 29.2781 24.2248C29.4318 24.3786 29.6333 24.4556 29.8348 24.4556C30.036 24.4556 30.2372 24.3789 30.3908 24.2255L30.9218 23.6951L33.4669 26.2372L26.2204 33.4749L23.624 30.8816C23.805 30.7652 23.9782 30.6283 24.1408 30.4657L24.8404 29.767C25.148 29.46 25.1483 28.9618 24.8412 28.6544ZM38.0504 29.6288L29.6175 38.0514C29.4203 38.2485 29.1562 38.357 28.874 38.357C28.5918 38.357 28.3278 38.2485 28.1304 38.0514L26.74 36.6627C26.543 36.466 26.4345 36.2027 26.4345 35.9214C26.4345 35.6401 26.543 35.3768 26.74 35.18L35.1729 26.7574C35.3703 26.5603 35.6343 26.4517 35.9165 26.4517C36.1987 26.4517 36.4628 26.5603 36.6606 26.7578L38.0505 28.1439C38.2475 28.3406 38.3561 28.6042 38.3561 28.8863C38.356 29.1684 38.2475 29.4321 38.0504 29.6288Z" fill="url(#paint1_linear)"/>
<path d="M9.48475 4.41957C9.63834 4.57285 9.83943 4.64941 10.0405 4.64941C10.2421 4.64941 10.4437 4.57238 10.5974 4.41839C10.9044 4.11082 10.9039 3.61269 10.5963 3.30574L7.72928 0.444409C7.42178 0.137456 6.92357 0.137847 6.61662 0.445503C6.30967 0.753081 6.31014 1.25121 6.61772 1.55816L9.48475 4.41957Z" fill="white"/>
<path d="M9.48475 4.41957C9.63834 4.57285 9.83943 4.64941 10.0405 4.64941C10.2421 4.64941 10.4437 4.57238 10.5974 4.41839C10.9044 4.11082 10.9039 3.61269 10.5963 3.30574L7.72928 0.444409C7.42178 0.137456 6.92357 0.137847 6.61662 0.445503C6.30967 0.753081 6.31014 1.25121 6.61772 1.55816L9.48475 4.41957Z" fill="url(#paint2_linear)"/>
<path d="M29.8229 4.64926C30.0241 4.64926 30.2253 4.57254 30.3789 4.41918L33.2438 1.55777C33.5512 1.25074 33.5515 0.752539 33.2444 0.445117C32.9374 0.137695 32.4392 0.137383 32.1317 0.444492L29.2669 3.3059C28.9595 3.61293 28.9592 4.11113 29.2663 4.41855C29.4199 4.57238 29.6214 4.64926 29.8229 4.64926Z" fill="white"/>
<path d="M29.8229 4.64926C30.0241 4.64926 30.2253 4.57254 30.3789 4.41918L33.2438 1.55777C33.5512 1.25074 33.5515 0.752539 33.2444 0.445117C32.9374 0.137695 32.4392 0.137383 32.1317 0.444492L29.2669 3.3059C28.9595 3.61293 28.9592 4.11113 29.2663 4.41855C29.4199 4.57238 29.6214 4.64926 29.8229 4.64926Z" fill="url(#paint3_linear)"/>
<path d="M4.90931 33.844C4.6047 34.1538 4.60892 34.652 4.91884 34.9566L4.9211 34.9588C5.07399 35.1091 5.27251 35.184 5.47095 35.184C5.67462 35.184 5.87829 35.1052 6.03259 34.9482C6.33719 34.6384 6.3318 34.1391 6.02196 33.8344C5.7122 33.5298 5.21407 33.5341 4.90931 33.844Z" fill="white"/>
<path d="M4.90931 33.844C4.6047 34.1538 4.60892 34.652 4.91884 34.9566L4.9211 34.9588C5.07399 35.1091 5.27251 35.184 5.47095 35.184C5.67462 35.184 5.87829 35.1052 6.03259 34.9482C6.33719 34.6384 6.3318 34.1391 6.02196 33.8344C5.7122 33.5298 5.21407 33.5341 4.90931 33.844Z" fill="url(#paint4_linear)"/>
<path d="M26.7654 27.5208C26.885 27.5208 27.0064 27.4936 27.1204 27.4361C27.5084 27.2404 27.6643 26.7673 27.4686 26.3793C27.2729 25.9914 26.7997 25.8354 26.4118 26.0311L26.4075 26.0333C26.0195 26.229 25.8658 26.701 26.0615 27.089C26.1996 27.3631 26.4774 27.5208 26.7654 27.5208Z" fill="white"/>
<path d="M26.7654 27.5208C26.885 27.5208 27.0064 27.4936 27.1204 27.4361C27.5084 27.2404 27.6643 26.7673 27.4686 26.3793C27.2729 25.9914 26.7997 25.8354 26.4118 26.0311L26.4075 26.0333C26.0195 26.229 25.8658 26.701 26.0615 27.089C26.1996 27.3631 26.4774 27.5208 26.7654 27.5208Z" fill="url(#paint5_linear)"/>
<defs>
<linearGradient id="paint0_linear" x1="19.0062" y1="-1.67648" x2="22.021" y2="-1.67859" gradientUnits="userSpaceOnUse">
<stop offset="0.489583" stop-color="#C31432"/>
<stop offset="1" stop-color="#240B36"/>
</linearGradient>
<linearGradient id="paint1_linear" x1="-3.43353" y1="-4.65799" x2="72.9317" y2="-4.86345" gradientUnits="userSpaceOnUse">
<stop offset="0.489583" stop-color="#C31432"/>
<stop offset="1" stop-color="#240B36"/>
</linearGradient>
<linearGradient id="paint2_linear" x1="5.99649" y1="-1.24831" x2="14.5039" y2="-1.26761" gradientUnits="userSpaceOnUse">
<stop offset="0.489583" stop-color="#C31432"/>
<stop offset="1" stop-color="#240B36"/>
</linearGradient>
<linearGradient id="paint3_linear" x1="28.6461" y1="-1.24842" x2="37.1493" y2="-1.26771" gradientUnits="userSpaceOnUse">
<stop offset="0.489583" stop-color="#C31432"/>
<stop offset="1" stop-color="#240B36"/>
</linearGradient>
<linearGradient id="paint4_linear" x1="4.54526" y1="33.0892" x2="7.56103" y2="33.0824" gradientUnits="userSpaceOnUse">
<stop offset="0.489583" stop-color="#C31432"/>
<stop offset="1" stop-color="#240B36"/>
</linearGradient>
<linearGradient id="paint5_linear" x1="25.838" y1="25.4274" x2="28.8583" y2="25.4206" gradientUnits="userSpaceOnUse">
<stop offset="0.489583" stop-color="#C31432"/>
<stop offset="1" stop-color="#240B36"/>
</linearGradient>
</defs>
</svg>
