<svg width="40" height="40" viewBox="0 0 40 40" fill="none" xmlns="http://www.w3.org/2000/svg">
<g clip-path="url(#clip0)">
<path d="M11.188 17.1075L14.8404 12.7134C15.0473 12.4645 15.0132 12.0951 14.7643 11.8882C14.5155 11.6814 14.146 11.7155 13.9391 11.9643L10.8084 15.7308L10.1241 14.6192C9.95445 14.3437 9.59359 14.2577 9.31789 14.4275C9.04234 14.5971 8.95648 14.9581 9.12609 15.2335L10.2383 17.04C10.4486 17.3814 10.9319 17.4156 11.188 17.1075Z" fill="white"/>
<path d="M11.188 17.1075L14.8404 12.7134C15.0473 12.4645 15.0132 12.0951 14.7643 11.8882C14.5155 11.6814 14.146 11.7155 13.9391 11.9643L10.8084 15.7308L10.1241 14.6192C9.95445 14.3437 9.59359 14.2577 9.31789 14.4275C9.04234 14.5971 8.95648 14.9581 9.12609 15.2335L10.2383 17.04C10.4486 17.3814 10.9319 17.4156 11.188 17.1075Z" fill="url(#paint0_linear)"/>
<path d="M9.12615 22.9681L10.2383 24.7746C10.4485 25.116 10.9318 25.1502 11.1879 24.842L14.8403 20.4479C15.0472 20.199 15.0131 19.8296 14.7642 19.6228C14.5154 19.416 14.1459 19.4499 13.939 19.6988L10.8083 23.4653L10.124 22.3538C9.95436 22.0782 9.5935 21.9922 9.31779 22.162C9.04232 22.3317 8.95646 22.6927 9.12615 22.9681Z" fill="white"/>
<path d="M9.12615 22.9681L10.2383 24.7746C10.4485 25.116 10.9318 25.1502 11.1879 24.842L14.8403 20.4479C15.0472 20.199 15.0131 19.8296 14.7642 19.6228C14.5154 19.416 14.1459 19.4499 13.939 19.6988L10.8083 23.4653L10.124 22.3538C9.95436 22.0782 9.5935 21.9922 9.31779 22.162C9.04232 22.3317 8.95646 22.6927 9.12615 22.9681Z" fill="url(#paint1_linear)"/>
<path d="M9.12615 30.7546L10.2383 32.5611C10.4485 32.9025 10.9318 32.9367 11.1879 32.6285L14.8403 28.2344C15.0472 27.9855 15.0131 27.6161 14.7642 27.4093C14.5154 27.2025 14.1459 27.2364 13.939 27.4853L10.8083 31.2518L10.124 30.1403C9.95436 29.8647 9.5935 29.7788 9.31779 29.9485C9.04232 30.1182 8.95646 30.4792 9.12615 30.7546Z" fill="white"/>
<path d="M9.12615 30.7546L10.2383 32.5611C10.4485 32.9025 10.9318 32.9367 11.1879 32.6285L14.8403 28.2344C15.0472 27.9855 15.0131 27.6161 14.7642 27.4093C14.5154 27.2025 14.1459 27.2364 13.939 27.4853L10.8083 31.2518L10.124 30.1403C9.95436 29.8647 9.5935 29.7788 9.31779 29.9485C9.04232 30.1182 8.95646 30.4792 9.12615 30.7546Z" fill="url(#paint2_linear)"/>
<path d="M35.0391 33.0784C34.7155 33.0784 34.4531 33.3407 34.4531 33.6644V37.9296C34.4531 38.425 34.0501 38.828 33.5547 38.828H6.44531C5.94992 38.828 5.54688 38.425 5.54688 37.9296V12.2506C5.54688 11.9269 5.28453 11.6647 4.96094 11.6647C4.63734 11.6647 4.375 11.9269 4.375 12.2506V37.9296C4.375 39.0712 5.30375 39.9999 6.44531 39.9999H33.5547C34.6963 39.9999 35.625 39.0712 35.625 37.9296V33.6644C35.625 33.3408 35.3627 33.0784 35.0391 33.0784Z" fill="white"/>
<path d="M35.0391 33.0784C34.7155 33.0784 34.4531 33.3407 34.4531 33.6644V37.9296C34.4531 38.425 34.0501 38.828 33.5547 38.828H6.44531C5.94992 38.828 5.54688 38.425 5.54688 37.9296V12.2506C5.54688 11.9269 5.28453 11.6647 4.96094 11.6647C4.63734 11.6647 4.375 11.9269 4.375 12.2506V37.9296C4.375 39.0712 5.30375 39.9999 6.44531 39.9999H33.5547C34.6963 39.9999 35.625 39.0712 35.625 37.9296V33.6644C35.625 33.3408 35.3627 33.0784 35.0391 33.0784Z" fill="url(#paint3_linear)"/>
<path d="M33.5547 4.51492H30.6884V2.09375C30.6884 0.939297 29.7492 0 28.5947 0C27.4402 0 26.5009 0.939219 26.5009 2.09375V4.51492H22.0938V2.09375C22.0938 0.939219 21.1545 0 20 0C18.8455 0 17.9062 0.939219 17.9062 2.09375V4.51492H13.499V2.09375C13.499 0.939297 12.5598 0 11.4052 0C10.2508 0 9.31148 0.939219 9.31148 2.09375V4.51492H6.44531C5.30375 4.51492 4.375 5.44367 4.375 6.58523V9.51633C4.375 9.84 4.63734 10.1023 4.96094 10.1023C5.28453 10.1023 5.54688 9.84 5.54688 9.51633V6.58523C5.54688 6.08984 5.94992 5.6868 6.44531 5.6868H9.31148V6.61719C9.31148 7.77164 10.2507 8.71094 11.4052 8.71094C12.5598 8.71094 13.499 7.77172 13.499 6.61719V5.6868H17.9062V6.61719C17.9062 7.77164 18.8455 8.71094 20 8.71094C21.1545 8.71094 22.0938 7.77172 22.0938 6.61719V5.6868H26.501V6.61719C26.501 7.77164 27.4402 8.71094 28.5948 8.71094C29.7492 8.71094 30.6885 7.77172 30.6885 6.61719V5.6868H33.5547C34.0501 5.6868 34.4531 6.08984 34.4531 6.58523V30.9301C34.4531 31.2537 34.7155 31.516 35.0391 31.516C35.3627 31.516 35.625 31.2537 35.625 30.9301V6.58523C35.625 5.44367 34.6963 4.51492 33.5547 4.51492ZM12.3272 6.61719C12.3272 7.12555 11.9137 7.53906 11.4053 7.53906C10.897 7.53906 10.4834 7.12555 10.4834 6.61719C10.4834 5.3682 10.4834 2.48469 10.4834 2.09375C10.4834 1.58539 10.897 1.17188 11.4053 1.17188C11.9137 1.17188 12.3272 1.58539 12.3272 2.09375V6.61719ZM20.9219 6.61719C20.9219 7.12555 20.5084 7.53906 20 7.53906C19.4916 7.53906 19.0781 7.12555 19.0781 6.61719C19.0781 5.3682 19.0781 2.48469 19.0781 2.09375C19.0781 1.58539 19.4916 1.17188 20 1.17188C20.5084 1.17188 20.9219 1.58539 20.9219 2.09375V6.61719ZM29.5166 6.61719C29.5166 7.12555 29.1031 7.53906 28.5948 7.53906C28.0864 7.53906 27.6729 7.12555 27.6729 6.61719C27.6729 5.3682 27.6729 2.48469 27.6729 2.09375C27.6729 1.58539 28.0864 1.17188 28.5948 1.17188C29.103 1.17188 29.5166 1.58539 29.5166 2.09375V6.61719Z" fill="white"/>
<path d="M33.5547 4.51492H30.6884V2.09375C30.6884 0.939297 29.7492 0 28.5947 0C27.4402 0 26.5009 0.939219 26.5009 2.09375V4.51492H22.0938V2.09375C22.0938 0.939219 21.1545 0 20 0C18.8455 0 17.9062 0.939219 17.9062 2.09375V4.51492H13.499V2.09375C13.499 0.939297 12.5598 0 11.4052 0C10.2508 0 9.31148 0.939219 9.31148 2.09375V4.51492H6.44531C5.30375 4.51492 4.375 5.44367 4.375 6.58523V9.51633C4.375 9.84 4.63734 10.1023 4.96094 10.1023C5.28453 10.1023 5.54688 9.84 5.54688 9.51633V6.58523C5.54688 6.08984 5.94992 5.6868 6.44531 5.6868H9.31148V6.61719C9.31148 7.77164 10.2507 8.71094 11.4052 8.71094C12.5598 8.71094 13.499 7.77172 13.499 6.61719V5.6868H17.9062V6.61719C17.9062 7.77164 18.8455 8.71094 20 8.71094C21.1545 8.71094 22.0938 7.77172 22.0938 6.61719V5.6868H26.501V6.61719C26.501 7.77164 27.4402 8.71094 28.5948 8.71094C29.7492 8.71094 30.6885 7.77172 30.6885 6.61719V5.6868H33.5547C34.0501 5.6868 34.4531 6.08984 34.4531 6.58523V30.9301C34.4531 31.2537 34.7155 31.516 35.0391 31.516C35.3627 31.516 35.625 31.2537 35.625 30.9301V6.58523C35.625 5.44367 34.6963 4.51492 33.5547 4.51492ZM12.3272 6.61719C12.3272 7.12555 11.9137 7.53906 11.4053 7.53906C10.897 7.53906 10.4834 7.12555 10.4834 6.61719C10.4834 5.3682 10.4834 2.48469 10.4834 2.09375C10.4834 1.58539 10.897 1.17188 11.4053 1.17188C11.9137 1.17188 12.3272 1.58539 12.3272 2.09375V6.61719ZM20.9219 6.61719C20.9219 7.12555 20.5084 7.53906 20 7.53906C19.4916 7.53906 19.0781 7.12555 19.0781 6.61719C19.0781 5.3682 19.0781 2.48469 19.0781 2.09375C19.0781 1.58539 19.4916 1.17188 20 1.17188C20.5084 1.17188 20.9219 1.58539 20.9219 2.09375V6.61719ZM29.5166 6.61719C29.5166 7.12555 29.1031 7.53906 28.5948 7.53906C28.0864 7.53906 27.6729 7.12555 27.6729 6.61719C27.6729 5.3682 27.6729 2.48469 27.6729 2.09375C27.6729 1.58539 28.0864 1.17188 28.5948 1.17188C29.103 1.17188 29.5166 1.58539 29.5166 2.09375V6.61719Z" fill="url(#paint4_linear)"/>
<path d="M17.3242 17.5923H29.668C30.6803 17.5923 31.5039 16.7687 31.5039 15.7563C31.5039 14.744 30.6803 13.9204 29.668 13.9204H17.3242C16.3119 13.9204 15.4883 14.744 15.4883 15.7563C15.4883 16.7687 16.3119 17.5923 17.3242 17.5923ZM17.3242 15.0923H29.668C30.0342 15.0923 30.332 15.3902 30.332 15.7563C30.332 16.1225 30.0342 16.4204 29.668 16.4204H17.3242C16.958 16.4204 16.6602 16.1225 16.6602 15.7563C16.6602 15.3902 16.958 15.0923 17.3242 15.0923Z" fill="white"/>
<path d="M17.3242 17.5923H29.668C30.6803 17.5923 31.5039 16.7687 31.5039 15.7563C31.5039 14.744 30.6803 13.9204 29.668 13.9204H17.3242C16.3119 13.9204 15.4883 14.744 15.4883 15.7563C15.4883 16.7687 16.3119 17.5923 17.3242 17.5923ZM17.3242 15.0923H29.668C30.0342 15.0923 30.332 15.3902 30.332 15.7563C30.332 16.1225 30.0342 16.4204 29.668 16.4204H17.3242C16.958 16.4204 16.6602 16.1225 16.6602 15.7563C16.6602 15.3902 16.958 15.0923 17.3242 15.0923Z" fill="url(#paint5_linear)"/>
<path d="M17.3242 25.3434H29.668C30.6803 25.3434 31.5039 24.5198 31.5039 23.5074C31.5039 22.4951 30.6803 21.6715 29.668 21.6715H17.3242C16.3119 21.6715 15.4883 22.4951 15.4883 23.5074C15.4883 24.5198 16.3119 25.3434 17.3242 25.3434ZM17.3242 22.8434H29.668C30.0342 22.8434 30.332 23.1413 30.332 23.5074C30.332 23.8736 30.0342 24.1715 29.668 24.1715H17.3242C16.958 24.1715 16.6602 23.8736 16.6602 23.5074C16.6602 23.1413 16.958 22.8434 17.3242 22.8434Z" fill="white"/>
<path d="M17.3242 25.3434H29.668C30.6803 25.3434 31.5039 24.5198 31.5039 23.5074C31.5039 22.4951 30.6803 21.6715 29.668 21.6715H17.3242C16.3119 21.6715 15.4883 22.4951 15.4883 23.5074C15.4883 24.5198 16.3119 25.3434 17.3242 25.3434ZM17.3242 22.8434H29.668C30.0342 22.8434 30.332 23.1413 30.332 23.5074C30.332 23.8736 30.0342 24.1715 29.668 24.1715H17.3242C16.958 24.1715 16.6602 23.8736 16.6602 23.5074C16.6602 23.1413 16.958 22.8434 17.3242 22.8434Z" fill="url(#paint6_linear)"/>
<path d="M17.3242 33.0945H29.668C30.6803 33.0945 31.5039 32.2709 31.5039 31.2585C31.5039 30.2462 30.6803 29.4226 29.668 29.4226H17.3242C16.3119 29.4226 15.4883 30.2462 15.4883 31.2585C15.4883 32.2709 16.3119 33.0945 17.3242 33.0945ZM17.3242 30.5945H29.668C30.0342 30.5945 30.332 30.8924 30.332 31.2585C30.332 31.6247 30.0342 31.9226 29.668 31.9226H17.3242C16.958 31.9226 16.6602 31.6247 16.6602 31.2585C16.6602 30.8924 16.958 30.5945 17.3242 30.5945Z" fill="white"/>
<path d="M17.3242 33.0945H29.668C30.6803 33.0945 31.5039 32.2709 31.5039 31.2585C31.5039 30.2462 30.6803 29.4226 29.668 29.4226H17.3242C16.3119 29.4226 15.4883 30.2462 15.4883 31.2585C15.4883 32.2709 16.3119 33.0945 17.3242 33.0945ZM17.3242 30.5945H29.668C30.0342 30.5945 30.332 30.8924 30.332 31.2585C30.332 31.6247 30.0342 31.9226 29.668 31.9226H17.3242C16.958 31.9226 16.6602 31.6247 16.6602 31.2585C16.6602 30.8924 16.958 30.5945 17.3242 30.5945Z" fill="url(#paint7_linear)"/>
</g>
<defs>
<linearGradient id="paint0_linear" x1="8.51736" y1="9.91713" x2="19.891" y2="9.88963" gradientUnits="userSpaceOnUse">
<stop offset="0.489583" stop-color="#C31432"/>
<stop offset="1" stop-color="#240B36"/>
</linearGradient>
<linearGradient id="paint1_linear" x1="8.51736" y1="17.6516" x2="19.8908" y2="17.6241" gradientUnits="userSpaceOnUse">
<stop offset="0.489583" stop-color="#C31432"/>
<stop offset="1" stop-color="#240B36"/>
</linearGradient>
<linearGradient id="paint2_linear" x1="8.51736" y1="25.4381" x2="19.8908" y2="25.4106" gradientUnits="userSpaceOnUse">
<stop offset="0.489583" stop-color="#C31432"/>
<stop offset="1" stop-color="#240B36"/>
</linearGradient>
<linearGradient id="paint3_linear" x1="1.6288" y1="2.3188" x2="61.4983" y2="2.16913" gradientUnits="userSpaceOnUse">
<stop offset="0.489583" stop-color="#C31432"/>
<stop offset="1" stop-color="#240B36"/>
</linearGradient>
<linearGradient id="paint4_linear" x1="1.6288" y1="-10.395" x2="61.4983" y2="-10.5296" gradientUnits="userSpaceOnUse">
<stop offset="0.489583" stop-color="#C31432"/>
<stop offset="1" stop-color="#240B36"/>
</linearGradient>
<linearGradient id="paint5_linear" x1="14.0809" y1="12.7093" x2="44.7612" y2="12.406" gradientUnits="userSpaceOnUse">
<stop offset="0.489583" stop-color="#C31432"/>
<stop offset="1" stop-color="#240B36"/>
</linearGradient>
<linearGradient id="paint6_linear" x1="14.0809" y1="20.4604" x2="44.7612" y2="20.1571" gradientUnits="userSpaceOnUse">
<stop offset="0.489583" stop-color="#C31432"/>
<stop offset="1" stop-color="#240B36"/>
</linearGradient>
<linearGradient id="paint7_linear" x1="14.0809" y1="28.2115" x2="44.7612" y2="27.9082" gradientUnits="userSpaceOnUse">
<stop offset="0.489583" stop-color="#C31432"/>
<stop offset="1" stop-color="#240B36"/>
</linearGradient>
<clipPath id="clip0">
<rect width="40" height="40" fill="white"/>
</clipPath>
</defs>
</svg>
