<svg width="40" height="40" viewBox="0 0 40 40" fill="none" xmlns="http://www.w3.org/2000/svg">
<path d="M12.1846 20.3125C12.616 20.3125 12.9658 19.9627 12.9658 19.5312C12.9658 19.0998 12.616 18.75 12.1846 18.75C11.7531 18.75 11.4033 19.0998 11.4033 19.5312C11.4033 19.9627 11.7531 20.3125 12.1846 20.3125Z" fill="white"/>
<path d="M12.1846 20.3125C12.616 20.3125 12.9658 19.9627 12.9658 19.5312C12.9658 19.0998 12.616 18.75 12.1846 18.75C11.7531 18.75 11.4033 19.0998 11.4033 19.5312C11.4033 19.9627 11.7531 20.3125 12.1846 20.3125Z" fill="url(#paint0_linear)"/>
<path d="M9.05957 14.0625C9.49104 14.0625 9.84082 13.7127 9.84082 13.2812C9.84082 12.8498 9.49104 12.5 9.05957 12.5C8.6281 12.5 8.27832 12.8498 8.27832 13.2812C8.27832 13.7127 8.6281 14.0625 9.05957 14.0625Z" fill="white"/>
<path d="M9.05957 14.0625C9.49104 14.0625 9.84082 13.7127 9.84082 13.2812C9.84082 12.8498 9.49104 12.5 9.05957 12.5C8.6281 12.5 8.27832 12.8498 8.27832 13.2812C8.27832 13.7127 8.6281 14.0625 9.05957 14.0625Z" fill="url(#paint1_linear)"/>
<path d="M7.49707 35.3125C7.92854 35.3125 8.27832 34.9627 8.27832 34.5312C8.27832 34.0998 7.92854 33.75 7.49707 33.75C7.0656 33.75 6.71582 34.0998 6.71582 34.5312C6.71582 34.9627 7.0656 35.3125 7.49707 35.3125Z" fill="white"/>
<path d="M7.49707 35.3125C7.92854 35.3125 8.27832 34.9627 8.27832 34.5312C8.27832 34.0998 7.92854 33.75 7.49707 33.75C7.0656 33.75 6.71582 34.0998 6.71582 34.5312C6.71582 34.9627 7.0656 35.3125 7.49707 35.3125Z" fill="url(#paint2_linear)"/>
<path d="M29.387 25.9048C29.3846 25.9048 29.3821 25.9048 29.3797 25.9048C29.0417 25.9016 28.6932 25.6976 28.3722 25.3145C28.0949 24.9839 27.6023 24.9405 27.2716 25.2177C26.941 25.4949 26.8975 25.9877 27.1747 26.3184C27.5878 26.8111 28.0746 27.1561 28.5914 27.3323V28.2812C28.5914 28.7127 28.9413 29.0625 29.3727 29.0625C29.8041 29.0625 30.1539 28.7127 30.1539 28.2812V27.339C31.0553 27.0273 31.7297 26.1661 31.7297 25.1234C31.7297 23.8311 30.6783 22.7797 29.386 22.7797C28.9552 22.7797 28.6047 22.4292 28.6047 21.9984C28.6047 21.5712 28.9521 21.2206 29.3781 21.2172C29.6593 21.212 29.9529 21.3564 30.2309 21.6255C30.541 21.9255 31.0356 21.9175 31.3357 21.6074C31.6357 21.2974 31.6276 20.8028 31.3177 20.5027C30.9166 20.1146 30.5154 19.8963 30.1539 19.7785V18.9062C30.1539 18.4748 29.8041 18.125 29.3727 18.125C28.9413 18.125 28.5914 18.4748 28.5914 18.9062V19.7945C27.6898 20.1217 27.0422 20.9884 27.0422 21.9985C27.0422 23.2909 28.0936 24.3423 29.386 24.3423C29.8167 24.3423 30.1672 24.6927 30.1672 25.1235C30.1671 25.5528 29.8196 25.9048 29.387 25.9048Z" fill="white"/>
<path d="M29.387 25.9048C29.3846 25.9048 29.3821 25.9048 29.3797 25.9048C29.0417 25.9016 28.6932 25.6976 28.3722 25.3145C28.0949 24.9839 27.6023 24.9405 27.2716 25.2177C26.941 25.4949 26.8975 25.9877 27.1747 26.3184C27.5878 26.8111 28.0746 27.1561 28.5914 27.3323V28.2812C28.5914 28.7127 28.9413 29.0625 29.3727 29.0625C29.8041 29.0625 30.1539 28.7127 30.1539 28.2812V27.339C31.0553 27.0273 31.7297 26.1661 31.7297 25.1234C31.7297 23.8311 30.6783 22.7797 29.386 22.7797C28.9552 22.7797 28.6047 22.4292 28.6047 21.9984C28.6047 21.5712 28.9521 21.2206 29.3781 21.2172C29.6593 21.212 29.9529 21.3564 30.2309 21.6255C30.541 21.9255 31.0356 21.9175 31.3357 21.6074C31.6357 21.2974 31.6276 20.8028 31.3177 20.5027C30.9166 20.1146 30.5154 19.8963 30.1539 19.7785V18.9062C30.1539 18.4748 29.8041 18.125 29.3727 18.125C28.9413 18.125 28.5914 18.4748 28.5914 18.9062V19.7945C27.6898 20.1217 27.0422 20.9884 27.0422 21.9985C27.0422 23.2909 28.0936 24.3423 29.386 24.3423C29.8167 24.3423 30.1672 24.6927 30.1672 25.1235C30.1671 25.5528 29.8196 25.9048 29.387 25.9048Z" fill="url(#paint3_linear)"/>
<path d="M10.6211 25C15.3597 25 19.2149 21.1448 19.2149 16.4062C19.2149 15.028 18.8932 13.7009 18.2779 12.5H21.5656C23.6907 12.5 25.6108 11.2643 26.5068 9.375H37.1906C37.622 9.375 37.9718 9.02523 37.9718 8.59375V0.78125C37.9718 0.349766 37.622 0 37.1906 0H9.68747C9.45262 0 9.2302 0.105703 9.08184 0.287734L2.20294 8.72906C1.94981 9.03977 1.97278 9.49164 2.25614 9.77508C2.77442 10.2934 3.41512 10.6404 4.09645 10.8054C2.77395 12.339 2.02739 14.3062 2.02739 16.4062C2.02739 21.1448 5.88255 25 10.6211 25ZM33.2774 1.5625H36.4094V7.8125H33.2774V1.5625ZM30.1524 1.5625H31.7149V7.8125H30.1524V1.5625ZM3.92739 9.08648L10.0587 1.5625H28.5899V7.8125H26.9779C27.0147 7.55508 27.0344 7.29437 27.0344 7.03125C27.0344 6.59977 26.6846 6.25 26.2532 6.25C25.8218 6.25 25.4719 6.59977 25.4719 7.03125C25.4719 7.47891 25.3972 7.91672 25.2493 8.33367C24.6994 9.89109 23.2191 10.9375 21.5657 10.9375H16.2298C16.5632 9.99578 17.4607 9.375 18.4407 9.375H21.5657C21.9971 9.375 22.3469 9.02523 22.3469 8.59375C22.3469 6.43984 20.5946 4.6875 18.4407 4.6875H10.9821C10.7749 4.6875 10.5762 4.76984 10.4297 4.91633L6.67583 8.67016C5.93801 9.40797 4.82348 9.5557 3.92739 9.08648ZM15.4018 9.26594C14.8449 8.89281 14.2465 8.58602 13.621 8.35258L15.7237 6.25H18.4407C19.4592 6.25 20.3281 6.90305 20.6505 7.8125H18.4407C17.2501 7.8125 16.1346 8.3625 15.4018 9.26594ZM13.5139 6.25L11.8619 7.90195C11.4529 7.84258 11.0372 7.8125 10.6211 7.8125C10.3098 7.8125 9.99973 7.83031 9.69208 7.86367L11.3057 6.25H13.5139ZM10.6211 9.375C12.0761 9.375 13.4836 9.81977 14.6781 10.6645C14.5825 11.0053 14.5343 11.358 14.5343 11.7188C14.5343 12.1502 14.8842 12.5 15.3156 12.5H16.4672C17.243 13.6566 17.6523 14.9988 17.6523 16.4062C17.6523 20.2833 14.4981 23.4375 10.6211 23.4375C6.74403 23.4375 3.58981 20.2833 3.58981 16.4062C3.58989 12.4477 6.80341 9.375 10.6211 9.375Z" fill="white"/>
<path d="M10.6211 25C15.3597 25 19.2149 21.1448 19.2149 16.4062C19.2149 15.028 18.8932 13.7009 18.2779 12.5H21.5656C23.6907 12.5 25.6108 11.2643 26.5068 9.375H37.1906C37.622 9.375 37.9718 9.02523 37.9718 8.59375V0.78125C37.9718 0.349766 37.622 0 37.1906 0H9.68747C9.45262 0 9.2302 0.105703 9.08184 0.287734L2.20294 8.72906C1.94981 9.03977 1.97278 9.49164 2.25614 9.77508C2.77442 10.2934 3.41512 10.6404 4.09645 10.8054C2.77395 12.339 2.02739 14.3062 2.02739 16.4062C2.02739 21.1448 5.88255 25 10.6211 25ZM33.2774 1.5625H36.4094V7.8125H33.2774V1.5625ZM30.1524 1.5625H31.7149V7.8125H30.1524V1.5625ZM3.92739 9.08648L10.0587 1.5625H28.5899V7.8125H26.9779C27.0147 7.55508 27.0344 7.29437 27.0344 7.03125C27.0344 6.59977 26.6846 6.25 26.2532 6.25C25.8218 6.25 25.4719 6.59977 25.4719 7.03125C25.4719 7.47891 25.3972 7.91672 25.2493 8.33367C24.6994 9.89109 23.2191 10.9375 21.5657 10.9375H16.2298C16.5632 9.99578 17.4607 9.375 18.4407 9.375H21.5657C21.9971 9.375 22.3469 9.02523 22.3469 8.59375C22.3469 6.43984 20.5946 4.6875 18.4407 4.6875H10.9821C10.7749 4.6875 10.5762 4.76984 10.4297 4.91633L6.67583 8.67016C5.93801 9.40797 4.82348 9.5557 3.92739 9.08648ZM15.4018 9.26594C14.8449 8.89281 14.2465 8.58602 13.621 8.35258L15.7237 6.25H18.4407C19.4592 6.25 20.3281 6.90305 20.6505 7.8125H18.4407C17.2501 7.8125 16.1346 8.3625 15.4018 9.26594ZM13.5139 6.25L11.8619 7.90195C11.4529 7.84258 11.0372 7.8125 10.6211 7.8125C10.3098 7.8125 9.99973 7.83031 9.69208 7.86367L11.3057 6.25H13.5139ZM10.6211 9.375C12.0761 9.375 13.4836 9.81977 14.6781 10.6645C14.5825 11.0053 14.5343 11.358 14.5343 11.7188C14.5343 12.1502 14.8842 12.5 15.3156 12.5H16.4672C17.243 13.6566 17.6523 14.9988 17.6523 16.4062C17.6523 20.2833 14.4981 23.4375 10.6211 23.4375C6.74403 23.4375 3.58981 20.2833 3.58981 16.4062C3.58989 12.4477 6.80341 9.375 10.6211 9.375Z" fill="url(#paint4_linear)"/>
<path d="M8.04858 20.0836L14.2986 13.8336C14.6037 13.5285 14.6037 13.0338 14.2986 12.7287C13.9934 12.4236 13.4989 12.4236 13.1937 12.7287L6.94365 18.9787C6.63857 19.2838 6.63857 19.7785 6.94365 20.0836C7.24881 20.3887 7.74342 20.3888 8.04858 20.0836Z" fill="white"/>
<path d="M8.04858 20.0836L14.2986 13.8336C14.6037 13.5285 14.6037 13.0338 14.2986 12.7287C13.9934 12.4236 13.4989 12.4236 13.1937 12.7287L6.94365 18.9787C6.63857 19.2838 6.63857 19.7785 6.94365 20.0836C7.24881 20.3887 7.74342 20.3888 8.04858 20.0836Z" fill="url(#paint5_linear)"/>
<path d="M21.5596 40C21.991 40 22.3408 39.6502 22.3408 39.2188C22.3408 38.7873 21.991 38.4375 21.5596 38.4375C21.1281 38.4375 20.7783 38.7873 20.7783 39.2188C20.7783 39.6502 21.1281 40 21.5596 40Z" fill="white"/>
<path d="M21.5596 40C21.991 40 22.3408 39.6502 22.3408 39.2188C22.3408 38.7873 21.991 38.4375 21.5596 38.4375C21.1281 38.4375 20.7783 38.7873 20.7783 39.2188C20.7783 39.6502 21.1281 40 21.5596 40Z" fill="url(#paint6_linear)"/>
<path d="M2.80957 40H18.0439C18.4753 40 18.8252 39.6502 18.8252 39.2188C18.8252 38.7873 18.4753 38.4375 18.0439 38.4375H11.4033V32.1867H13.0223C12.9854 32.4451 12.9658 32.7058 12.9658 32.9688C12.9658 33.4002 13.3157 33.75 13.7471 33.75C14.1785 33.75 14.5283 33.4002 14.5283 32.9688C14.5283 32.5215 14.6029 32.0834 14.75 31.6666C15.3007 30.109 16.7814 29.0625 18.4346 29.0617H23.7699C23.4317 30.0138 22.5296 30.625 21.5596 30.625H18.4346C18.0032 30.625 17.6533 30.9748 17.6533 31.4062C17.6533 33.5602 19.4057 35.3125 21.5596 35.3125H29.0182C29.2253 35.3125 29.424 35.2302 29.5706 35.0837L33.3245 31.3298C34.0612 30.593 35.1746 30.4391 36.0735 30.9127L29.9407 38.4375H25.0752C24.6438 38.4375 24.2939 38.7873 24.2939 39.2188C24.2939 39.6502 24.6438 40 25.0752 40H30.3119C30.5468 40 30.7692 39.8944 30.9175 39.7123L37.7972 31.2709C38.0504 30.9601 38.0274 30.508 37.7438 30.2247C37.22 29.7012 36.5768 29.353 35.8942 29.1888C37.2768 27.5793 37.9658 25.5859 37.9658 23.5938C37.9658 18.8552 34.1107 15 29.3721 15C24.6335 15 20.7783 18.8552 20.7783 23.5938C20.7783 24.972 21.1 26.2991 21.7153 27.5H18.4346C16.3103 27.5 14.3902 28.7352 13.493 30.625H2.80957C2.37816 30.625 2.02832 30.9748 2.02832 31.4062V39.2188C2.02832 39.6502 2.37816 40 2.80957 40ZM24.2766 33.75H21.5596C20.5411 33.75 19.6721 33.097 19.3497 32.1875H21.5596C22.7482 32.1875 23.8628 31.6385 24.5951 30.7373C25.1518 31.1097 25.7507 31.416 26.3773 31.6493L24.2766 33.75ZM28.6945 33.75H26.4863L28.1374 32.0989C28.5457 32.1577 28.9595 32.1875 29.3721 32.1875C29.6862 32.1875 29.9988 32.1696 30.3089 32.1357L28.6945 33.75ZM29.3721 16.5625C33.2491 16.5625 36.4033 19.7167 36.4033 23.5938C36.4033 27.5953 33.1518 30.625 29.3721 30.625C27.8811 30.625 26.482 30.1596 25.3205 29.3402C25.4171 28.9981 25.4658 28.6439 25.4658 28.2812C25.4658 27.8498 25.116 27.5 24.6846 27.5H23.5259C22.7501 26.3434 22.3408 25.0012 22.3408 23.5938C22.3408 19.7167 25.495 16.5625 29.3721 16.5625ZM3.59082 32.1875H9.84082V38.4375H3.59082V32.1875Z" fill="white"/>
<path d="M2.80957 40H18.0439C18.4753 40 18.8252 39.6502 18.8252 39.2188C18.8252 38.7873 18.4753 38.4375 18.0439 38.4375H11.4033V32.1867H13.0223C12.9854 32.4451 12.9658 32.7058 12.9658 32.9688C12.9658 33.4002 13.3157 33.75 13.7471 33.75C14.1785 33.75 14.5283 33.4002 14.5283 32.9688C14.5283 32.5215 14.6029 32.0834 14.75 31.6666C15.3007 30.109 16.7814 29.0625 18.4346 29.0617H23.7699C23.4317 30.0138 22.5296 30.625 21.5596 30.625H18.4346C18.0032 30.625 17.6533 30.9748 17.6533 31.4062C17.6533 33.5602 19.4057 35.3125 21.5596 35.3125H29.0182C29.2253 35.3125 29.424 35.2302 29.5706 35.0837L33.3245 31.3298C34.0612 30.593 35.1746 30.4391 36.0735 30.9127L29.9407 38.4375H25.0752C24.6438 38.4375 24.2939 38.7873 24.2939 39.2188C24.2939 39.6502 24.6438 40 25.0752 40H30.3119C30.5468 40 30.7692 39.8944 30.9175 39.7123L37.7972 31.2709C38.0504 30.9601 38.0274 30.508 37.7438 30.2247C37.22 29.7012 36.5768 29.353 35.8942 29.1888C37.2768 27.5793 37.9658 25.5859 37.9658 23.5938C37.9658 18.8552 34.1107 15 29.3721 15C24.6335 15 20.7783 18.8552 20.7783 23.5938C20.7783 24.972 21.1 26.2991 21.7153 27.5H18.4346C16.3103 27.5 14.3902 28.7352 13.493 30.625H2.80957C2.37816 30.625 2.02832 30.9748 2.02832 31.4062V39.2188C2.02832 39.6502 2.37816 40 2.80957 40ZM24.2766 33.75H21.5596C20.5411 33.75 19.6721 33.097 19.3497 32.1875H21.5596C22.7482 32.1875 23.8628 31.6385 24.5951 30.7373C25.1518 31.1097 25.7507 31.416 26.3773 31.6493L24.2766 33.75ZM28.6945 33.75H26.4863L28.1374 32.0989C28.5457 32.1577 28.9595 32.1875 29.3721 32.1875C29.6862 32.1875 29.9988 32.1696 30.3089 32.1357L28.6945 33.75ZM29.3721 16.5625C33.2491 16.5625 36.4033 19.7167 36.4033 23.5938C36.4033 27.5953 33.1518 30.625 29.3721 30.625C27.8811 30.625 26.482 30.1596 25.3205 29.3402C25.4171 28.9981 25.4658 28.6439 25.4658 28.2812C25.4658 27.8498 25.116 27.5 24.6846 27.5H23.5259C22.7501 26.3434 22.3408 25.0012 22.3408 23.5938C22.3408 19.7167 25.495 16.5625 29.3721 16.5625ZM3.59082 32.1875H9.84082V38.4375H3.59082V32.1875Z" fill="url(#paint7_linear)"/>
<defs>
<linearGradient id="paint0_linear" x1="11.266" y1="18.2346" x2="14.2595" y2="18.2279" gradientUnits="userSpaceOnUse">
<stop offset="0.489583" stop-color="#C31432"/>
<stop offset="1" stop-color="#240B36"/>
</linearGradient>
<linearGradient id="paint1_linear" x1="8.14101" y1="11.9846" x2="11.1345" y2="11.9779" gradientUnits="userSpaceOnUse">
<stop offset="0.489583" stop-color="#C31432"/>
<stop offset="1" stop-color="#240B36"/>
</linearGradient>
<linearGradient id="paint2_linear" x1="6.57851" y1="33.2346" x2="9.57199" y2="33.2279" gradientUnits="userSpaceOnUse">
<stop offset="0.489583" stop-color="#C31432"/>
<stop offset="1" stop-color="#240B36"/>
</linearGradient>
<linearGradient id="paint3_linear" x1="26.5759" y1="14.5175" x2="35.6522" y2="14.5085" gradientUnits="userSpaceOnUse">
<stop offset="0.489583" stop-color="#C31432"/>
<stop offset="1" stop-color="#240B36"/>
</linearGradient>
<linearGradient id="paint4_linear" x1="-1.1314" y1="-8.24581" x2="67.7316" y2="-8.47024" gradientUnits="userSpaceOnUse">
<stop offset="0.489583" stop-color="#C31432"/>
<stop offset="1" stop-color="#240B36"/>
</linearGradient>
<linearGradient id="paint5_linear" x1="6.02829" y1="9.92304" x2="20.9958" y2="9.88911" gradientUnits="userSpaceOnUse">
<stop offset="0.489583" stop-color="#C31432"/>
<stop offset="1" stop-color="#240B36"/>
</linearGradient>
<linearGradient id="paint6_linear" x1="20.641" y1="37.9221" x2="23.6345" y2="37.9154" gradientUnits="userSpaceOnUse">
<stop offset="0.489583" stop-color="#C31432"/>
<stop offset="1" stop-color="#240B36"/>
</linearGradient>
<linearGradient id="paint7_linear" x1="-1.13043" y1="6.75419" x2="67.7326" y2="6.52976" gradientUnits="userSpaceOnUse">
<stop offset="0.489583" stop-color="#C31432"/>
<stop offset="1" stop-color="#240B36"/>
</linearGradient>
</defs>
</svg>
