<svg width="416" height="233" viewBox="0 0 416 233" fill="none" xmlns="http://www.w3.org/2000/svg">
<g filter="url(#filter0_d_8863_8)">
<path d="M291.611 75.6471L294.099 64H336.62C339.108 64 341.37 64.4948 343.405 65.4844C345.441 66.4741 347.1 67.8824 348.381 69.7094C349.663 71.5364 350.53 73.744 350.982 76.3322C351.51 78.8443 351.435 81.661 350.756 84.7821C350.153 87.5987 349.022 90.2631 347.363 92.7752C345.78 95.2873 343.82 97.4949 341.483 99.398C339.146 101.301 336.582 102.824 333.793 103.966C331.079 105.031 328.289 105.564 325.424 105.564L327.912 93.917C331.079 93.3081 333.454 92.2423 335.037 90.7198C336.695 89.1973 337.789 87.2181 338.316 84.7821C338.92 82.1938 338.656 80.0243 337.525 78.2734C336.469 76.5225 334.396 75.6471 331.305 75.6471H291.611ZM292.855 123.606H341.483L338.995 135.253H278.04L282.451 114.471C283.054 111.654 284.147 108.99 285.73 106.478C287.313 103.966 289.236 101.758 291.498 99.8548C293.759 97.9517 296.247 96.4672 298.961 95.4015C301.676 94.2596 304.465 93.6887 307.33 93.6887L304.842 105.45C301.826 106.059 299.489 107.163 297.831 108.761C296.247 110.284 295.23 112.187 294.777 114.471L292.855 123.606Z" fill="white"/>
<path d="M64.2822 64.7827V76.302H88.789V135.254H100.986V76.302H125.832V64.7827H64.2822Z" fill="url(#paint0_linear_8863_8)"/>
<path d="M179.483 135.254H192.696L178.466 107.246C180.499 106.794 182.419 105.929 184.226 104.649C186.033 103.293 187.576 101.712 188.856 99.9053C190.211 98.0231 191.265 95.9526 192.018 93.6939C192.771 91.3599 193.148 88.9883 193.148 86.579C193.148 83.4922 192.621 80.6312 191.567 77.996C190.588 75.2856 189.233 72.9516 187.501 70.9941C185.845 69.0365 183.887 67.5307 181.628 66.4767C179.37 65.3473 176.998 64.7827 174.513 64.7827H131.147V135.254H143.231V76.302H173.158C174.288 76.302 175.304 76.6408 176.207 77.3184C177.186 77.9207 177.977 78.7489 178.579 79.803C179.257 80.7817 179.746 81.8734 180.047 83.0781C180.424 84.2074 180.612 85.3368 180.612 86.4661C180.612 87.5202 180.461 88.6119 180.16 89.7412C179.934 90.8706 179.52 91.9246 178.918 92.9034C178.316 93.8069 177.563 94.5598 176.659 95.1621C175.756 95.7644 174.702 96.0655 173.497 96.0655H159.606L179.483 135.254Z" fill="url(#paint1_linear_8863_8)"/>
<path d="M239.678 141.917L269.493 82.9651V135.254H281.803V64.5568H264.863L239.678 115.152L214.72 64.5568H197.893V135.254H210.428V83.4169L239.678 141.917Z" fill="url(#paint2_linear_8863_8)"/>
<path d="M79.2514 168.843H81.7524L80.1919 163.542C80.591 163.457 80.9828 163.293 81.3676 163.05C81.7666 162.794 82.13 162.495 82.4578 162.153C82.7855 161.796 83.0634 161.405 83.2914 160.977C83.5337 160.535 83.7047 160.086 83.8045 159.63C83.9327 159.046 83.9541 158.505 83.8686 158.006C83.7831 157.493 83.6192 157.051 83.3769 156.68C83.1347 156.31 82.8212 156.025 82.4364 155.825C82.0516 155.612 81.6241 155.505 81.1539 155.505H72.9455L70.1025 168.843H72.3898L74.7625 157.685H80.4271C80.6408 157.685 80.819 157.749 80.9615 157.878C81.1182 157.992 81.2394 158.148 81.3249 158.348C81.4104 158.533 81.4602 158.74 81.4745 158.968C81.4887 159.181 81.4745 159.395 81.4317 159.609C81.389 159.808 81.3177 160.015 81.218 160.229C81.1182 160.443 80.9971 160.642 80.8546 160.827C80.7121 160.998 80.5411 161.141 80.3416 161.255C80.1421 161.369 79.9283 161.426 79.7003 161.426H77.0711L79.2514 168.843Z" fill="white"/>
<path d="M100.799 168.843H103.086L105.929 155.505H103.642L100.799 168.843Z" fill="white"/>
<path d="M123.494 162.174C123.295 163.1 123.288 163.977 123.473 164.803C123.658 165.616 123.986 166.328 124.456 166.941C124.941 167.539 125.554 168.017 126.295 168.373C127.05 168.729 127.898 168.907 128.838 168.907C130.092 168.907 131.297 168.594 132.451 167.967C133.605 167.34 134.631 166.492 135.529 165.423L134.225 163.756C133.897 164.183 133.534 164.575 133.135 164.932C132.736 165.274 132.323 165.573 131.895 165.829C131.468 166.086 131.033 166.285 130.591 166.428C130.164 166.57 129.743 166.642 129.33 166.642C128.717 166.642 128.161 166.528 127.663 166.3C127.164 166.057 126.751 165.737 126.423 165.338C126.109 164.924 125.888 164.447 125.76 163.906C125.632 163.364 125.632 162.794 125.76 162.195C125.888 161.597 126.131 161.027 126.487 160.485C126.843 159.944 127.271 159.466 127.77 159.053C128.268 158.64 128.817 158.312 129.416 158.07C130.014 157.828 130.627 157.707 131.254 157.707C131.71 157.707 132.137 157.792 132.536 157.963C132.935 158.12 133.292 158.348 133.605 158.647C133.933 158.946 134.211 159.295 134.439 159.694C134.667 160.094 134.838 160.528 134.952 160.998L137.068 159.759C136.911 159.117 136.669 158.533 136.341 158.006C136.028 157.479 135.636 157.03 135.166 156.659C134.71 156.274 134.189 155.975 133.605 155.761C133.021 155.548 132.387 155.441 131.703 155.441C130.762 155.441 129.843 155.619 128.945 155.975C128.047 156.331 127.228 156.816 126.487 157.429C125.746 158.027 125.112 158.74 124.585 159.566C124.057 160.379 123.694 161.248 123.494 162.174Z" fill="white"/>
<path d="M164.235 168.843H166.565L169.408 155.505H167.078L165.817 161.426H158.998L158.528 163.606H165.347L164.235 168.843ZM154.232 168.843H156.519L159.362 155.505H157.075L154.232 168.843Z" fill="white"/>
<path d="M219.522 168.843H222.023L220.463 163.542C220.862 163.457 221.253 163.293 221.638 163.05C222.037 162.794 222.401 162.495 222.728 162.153C223.056 161.796 223.334 161.405 223.562 160.977C223.804 160.535 223.975 160.086 224.075 159.63C224.203 159.046 224.225 158.505 224.139 158.006C224.054 157.493 223.89 157.051 223.648 156.68C223.405 156.31 223.092 156.025 222.707 155.825C222.322 155.612 221.895 155.505 221.424 155.505H213.216L210.373 168.843H212.66L215.033 157.685H220.698C220.911 157.685 221.09 157.749 221.232 157.878C221.389 157.992 221.51 158.148 221.595 158.348C221.681 158.533 221.731 158.74 221.745 158.968C221.759 159.181 221.745 159.395 221.702 159.609C221.66 159.808 221.588 160.015 221.489 160.229C221.389 160.443 221.268 160.642 221.125 160.827C220.983 160.998 220.812 161.141 220.612 161.255C220.413 161.369 220.199 161.426 219.971 161.426H217.342L219.522 168.843Z" fill="white"/>
<path d="M239.635 168.843H242.264L249.019 159.331L251.007 166.642H245.641L243.675 168.843H254.277L250.109 154.201L239.635 168.843Z" fill="white"/>
<path d="M272.428 162.174C272.229 163.1 272.221 163.977 272.407 164.803C272.592 165.616 272.92 166.328 273.39 166.941C273.875 167.539 274.487 168.017 275.228 168.373C275.984 168.729 276.832 168.907 277.772 168.907C279.026 168.907 280.23 168.594 281.385 167.967C282.539 167.34 283.565 166.492 284.463 165.423L283.159 163.756C282.831 164.183 282.468 164.575 282.069 164.932C281.67 165.274 281.256 165.573 280.829 165.829C280.401 166.086 279.967 166.285 279.525 166.428C279.097 166.57 278.677 166.642 278.264 166.642C277.651 166.642 277.095 166.528 276.596 166.3C276.098 166.057 275.684 165.737 275.357 165.338C275.043 164.924 274.822 164.447 274.694 163.906C274.566 163.364 274.566 162.794 274.694 162.195C274.822 161.597 275.064 161.027 275.421 160.485C275.777 159.944 276.204 159.466 276.703 159.053C277.202 158.64 277.751 158.312 278.349 158.07C278.948 157.828 279.561 157.707 280.188 157.707C280.644 157.707 281.071 157.792 281.47 157.963C281.869 158.12 282.225 158.348 282.539 158.647C282.867 158.946 283.145 159.295 283.373 159.694C283.601 160.094 283.772 160.528 283.886 160.998L286.002 159.759C285.845 159.117 285.603 158.533 285.275 158.006C284.961 157.479 284.57 157.03 284.099 156.659C283.643 156.274 283.123 155.975 282.539 155.761C281.955 155.548 281.32 155.441 280.636 155.441C279.696 155.441 278.777 155.619 277.879 155.975C276.981 156.331 276.162 156.816 275.421 157.429C274.68 158.027 274.046 158.74 273.518 159.566C272.991 160.379 272.628 161.248 272.428 162.174Z" fill="white"/>
<path d="M314.73 161.426L314.259 163.606H307.505L307.975 161.426H314.73ZM303.122 168.843L305.965 155.505H316.119L315.649 157.685H307.782L305.88 166.663H313.746L313.276 168.843H303.122Z" fill="white"/>
<path d="M341.763 168.843H344.264L342.703 163.542C343.102 163.457 343.494 163.293 343.879 163.05C344.278 162.794 344.641 162.495 344.969 162.153C345.297 161.796 345.575 161.405 345.803 160.977C346.045 160.535 346.216 160.086 346.316 159.63C346.444 159.046 346.465 158.505 346.38 158.006C346.294 157.493 346.13 157.051 345.888 156.68C345.646 156.31 345.332 156.025 344.948 155.825C344.563 155.612 344.135 155.505 343.665 155.505H335.457L332.614 168.843H334.901L337.274 157.685H342.938C343.152 157.685 343.33 157.749 343.473 157.878C343.629 157.992 343.751 158.148 343.836 158.348C343.922 158.533 343.971 158.74 343.986 158.968C344 159.181 343.986 159.395 343.943 159.609C343.9 159.808 343.829 160.015 343.729 160.229C343.629 160.443 343.508 160.642 343.366 160.827C343.223 160.998 343.052 161.141 342.853 161.255C342.653 161.369 342.44 161.426 342.212 161.426H339.582L341.763 168.843Z" fill="white"/>
</g>
<defs>
<filter id="filter0_d_8863_8" x="0.282227" y="0" width="415.047" height="232.907" filterUnits="userSpaceOnUse" color-interpolation-filters="sRGB">
<feFlood flood-opacity="0" result="BackgroundImageFix"/>
<feColorMatrix in="SourceAlpha" type="matrix" values="0 0 0 0 0 0 0 0 0 0 0 0 0 0 0 0 0 0 127 0" result="hardAlpha"/>
<feOffset/>
<feGaussianBlur stdDeviation="32"/>
<feComposite in2="hardAlpha" operator="out"/>
<feColorMatrix type="matrix" values="0 0 0 0 0 0 0 0 0 0 0 0 0 0 0 0 0 0 1 0"/>
<feBlend mode="normal" in2="BackgroundImageFix" result="effect1_dropShadow_8863_8"/>
<feBlend mode="normal" in="SourceGraphic" in2="effect1_dropShadow_8863_8" result="shape"/>
</filter>
<linearGradient id="paint0_linear_8863_8" x1="173.043" y1="64.5568" x2="173.043" y2="141.917" gradientUnits="userSpaceOnUse">
<stop stop-color="#1CFFFF"/>
<stop offset="1" stop-color="#1CBBFF"/>
</linearGradient>
<linearGradient id="paint1_linear_8863_8" x1="173.043" y1="64.5568" x2="173.043" y2="141.917" gradientUnits="userSpaceOnUse">
<stop stop-color="#1CFFFF"/>
<stop offset="1" stop-color="#1CBBFF"/>
</linearGradient>
<linearGradient id="paint2_linear_8863_8" x1="173.043" y1="64.5568" x2="173.043" y2="141.917" gradientUnits="userSpaceOnUse">
<stop stop-color="#1CFFFF"/>
<stop offset="1" stop-color="#1CBBFF"/>
</linearGradient>
</defs>
</svg>
