<svg width="52" height="48" viewBox="0 0 52 48" fill="none" xmlns="http://www.w3.org/2000/svg">
<path fill-rule="evenodd" clip-rule="evenodd" d="M26 0L0 48H52L26 0ZM26 11.6364L9.45455 42.1818H42.5455L26 11.6364Z" fill="url(#paint0_linear_8863_18)"/>
<path d="M28.4314 20.3633L27.8936 33.6343H23.9946L23.4568 20.3633H28.4314ZM26.0113 40.7269C25.2046 40.7269 24.5413 40.4868 24.0215 40.0066C23.5195 39.5079 23.2686 38.8983 23.2686 38.178C23.2686 37.4392 23.5195 36.8204 24.0215 36.3217C24.5413 35.823 25.2046 35.5737 26.0113 35.5737C26.8001 35.5737 27.4454 35.823 27.9473 36.3217C28.4672 36.8204 28.7271 37.4392 28.7271 38.178C28.7271 38.8983 28.4672 39.5079 27.9473 40.0066C27.4454 40.4868 26.8001 40.7269 26.0113 40.7269Z" fill="url(#paint1_linear_8863_18)"/>
<defs>
<linearGradient id="paint0_linear_8863_18" x1="48.5333" y1="2.40001" x2="-6.41777" y2="42.3787" gradientUnits="userSpaceOnUse">
<stop stop-color="#00F0FF"/>
<stop offset="1" stop-color="#0098D9"/>
<stop offset="1" stop-color="#0098D9"/>
</linearGradient>
<linearGradient id="paint1_linear_8863_18" x1="28.3632" y1="21.3815" x2="19.8185" y2="22.9197" gradientUnits="userSpaceOnUse">
<stop stop-color="#00F0FF"/>
<stop offset="1" stop-color="#0098D9"/>
<stop offset="1" stop-color="#0098D9"/>
</linearGradient>
</defs>
</svg>
