<svg width="16" height="12" viewBox="0 0 16 12" fill="none" xmlns="http://www.w3.org/2000/svg">
<path d="M2.90503 11.0204L7.70492 10.9946L12.5048 11.0204C12.5048 11.0204 12.6578 10.3812 12.8773 9.46277H2.53223C2.75201 10.3812 2.90503 11.0204 2.90503 11.0204Z" fill="white"/>
<path d="M14.4362 1.94716C13.8984 1.94716 13.4626 2.38294 13.4626 2.92074C13.4626 3.20569 13.5851 3.46231 13.7803 3.64021C13.1131 4.32096 12.3565 4.96834 11.4156 5.2152C11.1946 5.27313 10.9899 5.28887 10.8 5.26998C9.99587 5.19095 9.45429 4.49887 9.03174 3.82473C8.64508 3.2079 8.33178 2.55045 8.05659 1.88135C8.42026 1.74029 8.67845 1.38732 8.67845 0.973579C8.67845 0.43578 8.24267 0 7.70487 0C7.16708 0 6.7313 0.43578 6.7313 0.973579C6.7313 1.387 6.98917 1.74029 7.35317 1.88135C7.07797 2.55045 6.76467 3.2079 6.37801 3.82473C5.95546 4.49887 5.41356 5.19095 4.6097 5.26998C4.41983 5.28856 4.21517 5.27313 3.99413 5.2152C3.0533 4.96834 2.29698 4.32096 1.62945 3.64021C1.82467 3.46231 1.94716 3.20569 1.94716 2.92074C1.94716 2.38294 1.51138 1.94716 0.973579 1.94716C0.43578 1.94716 0 2.38294 0 2.92074C0 3.45853 0.43578 3.89431 0.973579 3.89431C1.04946 3.89431 1.12314 3.8855 1.1943 3.86881C1.47296 5.0332 1.96196 7.07828 2.3461 8.68412H13.064C13.4481 7.07828 13.9374 5.0332 14.2158 3.86881C14.2866 3.88518 14.3606 3.89431 14.4365 3.89431C14.9743 3.89431 15.4101 3.45853 15.4101 2.92074C15.4097 2.38294 14.974 1.94716 14.4362 1.94716Z" fill="white"/>
</svg>
