<svg width="16" height="12" viewBox="0 0 16 12" fill="none" xmlns="http://www.w3.org/2000/svg">
<path d="M7.7076 10.4946L7.7076 10.4946L7.70223 10.4946L3.29896 10.5183L3.28731 10.4696L3.16601 9.96277H12.2437L12.1225 10.4697L12.1108 10.5183L7.7076 10.4946Z" fill="#111111" stroke="black"/>
<path d="M1.20176 3.3535L1.08014 3.38202C1.04583 3.39007 1.01044 3.39431 0.973579 3.39431C0.711923 3.39431 0.5 3.18239 0.5 2.92074C0.5 2.65908 0.711923 2.44716 0.973579 2.44716C1.23523 2.44716 1.44716 2.65908 1.44716 2.92074C1.44716 3.05942 1.38815 3.18365 1.29267 3.27065L1.20176 3.3535ZM2.33901 6.50507C2.17451 5.81725 2.01339 5.14356 1.87493 4.56475C2.43336 5.05412 3.08681 5.49405 3.86723 5.69882L3.86736 5.69886C4.14161 5.77074 4.4057 5.79233 4.65839 5.76761L4.65862 5.76758C5.73001 5.66225 6.38695 4.75191 6.80166 4.09029C7.15608 3.5249 7.44892 2.93183 7.70487 2.33517C7.96082 2.93183 8.25367 3.5249 8.60809 4.09029C9.02276 4.75184 9.67939 5.66226 10.7511 5.76759L10.8 5.27037L10.7505 5.76753C11.0043 5.79277 11.2687 5.7706 11.5424 5.69886L11.5425 5.69882C12.3231 5.49401 12.9768 5.05395 13.5353 4.56442C13.3393 5.38414 13.0977 6.39423 12.8653 7.36532C12.7989 7.64324 12.7331 7.91797 12.6695 8.18412H2.7406C2.61159 7.64475 2.47416 7.07014 2.33901 6.50507ZM7.87577 1.41519L7.70495 1.48145L7.53384 1.41514C7.35581 1.34614 7.2313 1.17368 7.2313 0.973579C7.2313 0.711923 7.44322 0.5 7.70487 0.5C7.96653 0.5 8.17845 0.711923 8.17845 0.973579C8.17845 1.17371 8.05389 1.3461 7.87577 1.41519ZM14.2085 3.35395L14.1171 3.27065C14.0216 3.18365 13.9626 3.05942 13.9626 2.92074C13.9626 2.65908 14.1745 2.44716 14.4362 2.44716C14.6978 2.44716 14.9099 2.65909 14.9101 2.92103C14.9099 3.18255 14.698 3.39431 14.4365 3.39431C14.4008 3.39431 14.3645 3.39002 14.3284 3.38165L14.2085 3.35395Z" fill="#111111" stroke="black"/>
</svg>
