<svg width="28" height="30" viewBox="0 0 28 30" fill="none" xmlns="http://www.w3.org/2000/svg">
<path d="M26.5334 7.05L26.5584 7.025L20.35 0.833359L18.5834 2.6L22.1 6.11664C20.5334 6.71664 19.4166 8.225 19.4166 10C19.4166 12.3 21.2833 14.1666 23.5833 14.1666C24.1749 14.1666 24.7416 14.0416 25.2499 13.8166V25.8333C25.25 26.75 24.5 27.5 23.5834 27.5C22.6667 27.5 21.9167 26.75 21.9167 25.8334V18.3334C21.9167 16.4917 20.4251 15 18.5834 15H16.9167V3.33336C16.9166 1.49164 15.425 0 13.5834 0H3.58336C1.74164 0 0.25 1.49164 0.25 3.33336V30H16.9166V17.5H19.4166V25.8334C19.4166 28.1334 21.2833 30 23.5833 30C25.8833 30 27.7499 28.1334 27.7499 25.8334V10C27.75 8.85 27.2834 7.80836 26.5334 7.05ZM13.5834 11.6666H3.58336V3.33336H13.5834V11.6666ZM23.5834 11.6666C22.6667 11.6666 21.9167 10.9166 21.9167 10C21.9167 9.08336 22.6667 8.33336 23.5834 8.33336C24.5 8.33336 25.25 9.08336 25.25 10C25.25 10.9166 24.5 11.6666 23.5834 11.6666Z" fill="white"/>
</svg>
