<svg width="30" height="30" viewBox="0 0 30 30" fill="none" xmlns="http://www.w3.org/2000/svg">
<path d="M26.4585 17.7784C28.4113 17.7784 29.9999 16.1897 29.9999 14.237V12.5455H27.7555C27.0662 12.5455 26.3995 12.7468 25.8284 13.1192C25.7646 12.7679 25.6847 12.4208 25.5878 12.0794L26.2648 11.6897C27.0841 11.2167 27.67 10.453 27.9149 9.53931C28.1597 8.62552 28.0341 7.67118 27.5611 6.85195L26.7154 5.38699L24.7716 6.50919C24.1746 6.85389 23.6982 7.36158 23.3903 7.96953C23.1463 7.68278 22.8863 7.40775 22.6115 7.14509L22.9378 6.57997C23.4108 5.76075 23.5364 4.80635 23.2916 3.89268C23.0468 2.97888 22.4608 2.2152 21.6415 1.74225L20.1767 0.896484L19.0544 2.84014C18.5814 3.65936 18.4558 4.61376 18.7006 5.52749C18.9454 6.44123 19.5314 7.20491 20.3506 7.67786L20.9839 8.04359C23.0596 9.80315 24.2491 12.3689 24.2491 15.0953C24.2491 18.9873 21.8325 22.3252 18.4212 23.6882V26.3907C18.8954 27.1936 19.6508 27.7683 20.5529 28.01C20.858 28.0918 21.1676 28.1323 21.4752 28.1323C22.0889 28.1323 22.6946 27.9712 23.2402 27.6562L24.7052 26.8105L23.583 24.8667C23.2375 24.2683 22.7281 23.791 22.1183 23.4832C22.3901 23.2522 22.6505 23.0083 22.8987 22.7524L23.5818 23.1482C24.1275 23.4633 24.7331 23.6242 25.3468 23.6242C25.6544 23.6242 25.9641 23.5838 26.2691 23.5021C27.1829 23.2572 27.9465 22.6712 28.4195 21.852L29.2653 20.387L27.3217 19.2649C26.7248 18.9203 26.0464 18.7618 25.3648 18.7998C25.4845 18.4661 25.5885 18.125 25.6758 17.7773L26.4585 17.7784Z" fill="url(#paint0_linear)"/>
<path d="M5.75122 15.0952C5.75122 12.3689 6.94069 9.80309 9.01635 8.04353L9.64966 7.6778C10.4689 7.20485 11.0549 6.44117 11.2997 5.52744C11.5446 4.61364 11.4189 3.65931 10.9459 2.84008L9.8238 0.896484L8.35883 1.74219C6.66771 2.71856 6.08619 4.88879 7.06256 6.57992L7.38885 7.14503C7.11394 7.40775 6.85385 7.6829 6.60976 7.96976C6.30186 7.3617 5.82546 6.85389 5.22829 6.50914L3.28458 5.38693L2.43881 6.85184C1.9658 7.67106 1.84018 8.62546 2.08504 9.53919C2.32989 10.4529 2.91586 11.2166 3.73614 11.6902L4.41246 12.0795C4.31555 12.421 4.23558 12.768 4.17183 13.1194C3.60062 12.7469 2.93385 12.5454 2.24435 12.5454H0V14.2369C0 16.1897 1.58871 17.7784 3.54267 17.7784L4.32458 17.7773C4.41194 18.125 4.516 18.4661 4.63564 18.7999C3.95387 18.7619 3.27538 18.9203 2.67839 19.2649L0.734737 20.387L1.5805 21.852C2.05345 22.6712 2.81714 23.2572 3.73093 23.5021C4.03596 23.5838 4.34544 23.6242 4.65298 23.6242C5.26684 23.6242 5.8728 23.4631 6.41928 23.1476L7.10164 22.7523C7.34977 23.0083 7.61021 23.2521 7.88202 23.4831C7.27202 23.7909 6.76257 24.2681 6.41705 24.8667L5.29485 26.8105L6.75976 27.6562C7.30548 27.9713 7.91108 28.1323 8.52482 28.1323C8.83243 28.1323 9.14208 28.0918 9.44717 28.01C10.3489 27.7684 11.104 27.1941 11.5788 26.3907V23.688C8.16759 22.3248 5.75122 18.9871 5.75122 15.0952Z" fill="url(#paint1_linear)"/>
<path d="M21.0708 15.0673C21.0708 11.7196 18.3473 8.99609 14.9996 8.99609C11.6519 8.99609 8.92834 11.7196 8.92834 15.0673C8.92834 18.415 11.6519 21.1385 14.9996 21.1385C18.3473 21.1385 21.0708 18.415 21.0708 15.0673ZM17.0508 18.046H12.9492V16.2882H14.1211V13.8464H13.2421V12.0887H15.8789V16.2882H17.0508V18.046Z" fill="url(#paint2_linear)"/>
<path d="M16.6635 22.7168C16.127 22.8334 15.5704 22.8954 14.9995 22.8954C14.4289 22.8954 13.8727 22.8335 13.3364 22.717V29.1028L15.0001 28.5277L16.6635 29.1028V22.7168H16.6635Z" fill="url(#paint3_linear)"/>
<defs>
<linearGradient id="paint0_linear" x1="29.228" y1="2.25828" x2="11.926" y2="7.19805" gradientUnits="userSpaceOnUse">
<stop stop-color="#00F0FF"/>
<stop offset="1" stop-color="#0098D9"/>
<stop offset="1" stop-color="#0098D9"/>
</linearGradient>
<linearGradient id="paint1_linear" x1="10.8069" y1="2.25828" x2="-6.49522" y2="7.19814" gradientUnits="userSpaceOnUse">
<stop stop-color="#00F0FF"/>
<stop offset="1" stop-color="#0098D9"/>
<stop offset="1" stop-color="#0098D9"/>
</linearGradient>
<linearGradient id="paint2_linear" x1="20.2613" y1="9.60321" x2="6.73736" y2="18.6855" gradientUnits="userSpaceOnUse">
<stop stop-color="#00F0FF"/>
<stop offset="1" stop-color="#0098D9"/>
<stop offset="1" stop-color="#0098D9"/>
</linearGradient>
<linearGradient id="paint3_linear" x1="16.4417" y1="23.0361" x2="11.6513" y2="24.7122" gradientUnits="userSpaceOnUse">
<stop stop-color="#00F0FF"/>
<stop offset="1" stop-color="#0098D9"/>
<stop offset="1" stop-color="#0098D9"/>
</linearGradient>
</defs>
</svg>
