<svg width="8" height="22" viewBox="0 0 8 22" fill="none" xmlns="http://www.w3.org/2000/svg">
<path d="M3.59999 6.19998C4.38401 6.19998 5.04644 5.93116 5.58786 5.39182C6.12928 4.85305 6.39999 4.18929 6.39999 3.3994C6.39999 2.61009 6.12928 1.94633 5.58786 1.40756C5.04587 0.86936 4.38344 0.599976 3.59999 0.599976C2.81596 0.599976 2.15296 0.86936 1.61154 1.40813C1.07012 1.9469 0.799988 2.61066 0.799988 3.39998C0.799988 4.18987 1.07012 4.85362 1.61211 5.39239C2.15296 5.93116 2.81596 6.19998 3.59999 6.19998Z" fill="white"/>
<path d="M7.03033 19.2556C6.6007 19.2556 6.24919 18.9186 6.24919 18.5067V8.54887C6.24919 8.13698 5.89767 7.79998 5.46804 7.79998H4.84364C4.41401 7.79998 3.71098 7.79998 3.28134 7.79998H2.68298C2.25335 7.79998 1.55032 7.79998 1.12069 7.79998H0.781148C0.351517 7.79998 0 8.13698 0 8.54887V9.66823C0 10.0801 0.351517 10.4171 0.781148 10.4171H1.12069C1.55032 10.4171 1.90184 10.7541 1.90184 11.166V18.5067C1.90184 18.9186 1.55032 19.2556 1.12069 19.2556H0.93217C0.502539 19.2556 0.151022 19.5926 0.151022 20.0045V20.6511C0.151022 21.063 0.502539 21.4 0.93217 21.4H1.12069C1.55032 21.4 2.25335 21.4 2.68298 21.4H5.46804C5.89767 21.4 6.6007 21.4 7.03033 21.4H7.21885C7.64848 21.4 8 21.063 8 20.6511V20.0045C8 19.5926 7.64848 19.2556 7.21885 19.2556H7.03033Z" fill="white"/>
</svg>
