<svg width="30" height="30" viewBox="0 0 30 30" fill="none" xmlns="http://www.w3.org/2000/svg">
<path d="M27.6316 0H2.36842C1.74028 0 1.13786 0.249529 0.693694 0.693694C0.249529 1.13786 0 1.74028 0 2.36842L0 27.6316C0 28.2597 0.249529 28.8621 0.693694 29.3063C1.13786 29.7505 1.74028 30 2.36842 30H27.6316C28.2597 30 28.8621 29.7505 29.3063 29.3063C29.7505 28.8621 30 28.2597 30 27.6316V2.36842C30 1.74028 29.7505 1.13786 29.3063 0.693694C28.8621 0.249529 28.2597 0 27.6316 0V0ZM16.2395 20.5263H13.7901V12.6849H16.2395V20.5263ZM15.9868 11.5184C15.7058 11.7335 15.3618 11.8501 15.0079 11.8501C14.654 11.8501 14.31 11.7335 14.0289 11.5184C13.91 11.4099 13.8151 11.2777 13.7501 11.1304C13.6851 10.9831 13.6516 10.8238 13.6516 10.6628C13.6516 10.5018 13.6851 10.3426 13.7501 10.1953C13.8151 10.048 13.91 9.9158 14.0289 9.80724C14.3094 9.59086 14.6537 9.4735 15.0079 9.4735C15.3621 9.4735 15.7064 9.59086 15.9868 9.80724C16.1057 9.9158 16.2007 10.048 16.2657 10.1953C16.3307 10.3426 16.3642 10.5018 16.3642 10.6628C16.3642 10.8238 16.3307 10.9831 16.2657 11.1304C16.2007 11.2777 16.1057 11.4099 15.9868 11.5184Z" fill="white"/>
</svg>
