<svg width="28" height="26" viewBox="0 0 28 26" fill="none" xmlns="http://www.w3.org/2000/svg">
<path d="M24.1812 21.2029V10.8904C24.1812 10.506 23.7312 10.1779 23.1781 10.1779H18.3875C18.2072 10.175 18.0283 10.2102 17.8625 10.281V21.2029C17.8617 21.3348 17.8261 21.4642 17.7593 21.5779H24.0312C24.1259 21.4758 24.1794 21.3422 24.1812 21.2029Z" fill="white"/>
<path d="M10.25 21.5786C10.1816 21.4121 10.1466 21.2337 10.1468 21.0536V10.3474C9.9906 10.2464 9.80785 10.1942 9.62184 10.1974H4.82184C4.69055 10.1962 4.56032 10.221 4.43867 10.2703C4.31701 10.3197 4.20635 10.3927 4.11308 10.4851C4.01981 10.5775 3.94577 10.6875 3.89524 10.8087C3.84472 10.9299 3.81871 11.0599 3.81871 11.1912V21.0536C3.81551 21.2396 3.86773 21.4224 3.96871 21.5786H10.25Z" fill="white"/>
<path d="M26.6469 22.0469H1.33442C1.03108 22.0469 0.740165 22.1674 0.52567 22.3819C0.311176 22.5964 0.190674 22.8873 0.190674 23.1906V23.9219C0.190674 24.2252 0.311176 24.5161 0.52567 24.7306C0.740165 24.9451 1.03108 25.0656 1.33442 25.0656H26.6469C26.9503 25.0656 27.2412 24.9451 27.4557 24.7306C27.6702 24.5161 27.7907 24.2252 27.7907 23.9219V23.1906C27.7907 22.8873 27.6702 22.5964 27.4557 22.3819C27.2412 22.1674 26.9503 22.0469 26.6469 22.0469Z" fill="white"/>
<path d="M10.6062 21.0523C10.6031 21.2383 10.6553 21.4211 10.7562 21.5773H17.2437C17.3344 21.4166 17.3858 21.2367 17.3937 21.0523V19.093V1.96484C17.3963 1.69701 17.2936 1.43888 17.1077 1.24601C16.9219 1.05314 16.6677 0.940953 16.4 0.933594H11.6C11.3323 0.940953 11.0781 1.05314 10.8922 1.24601C10.7064 1.43888 10.6037 1.69701 10.6062 1.96484V19.093V21.0523Z" fill="white"/>
</svg>
