<svg width="28" height="26" viewBox="0 0 28 26" fill="none" xmlns="http://www.w3.org/2000/svg">
<path d="M24.1812 21.2029V10.8904C24.1812 10.506 23.7312 10.1779 23.1781 10.1779H18.3875C18.2072 10.175 18.0283 10.2102 17.8625 10.281V21.2029C17.8617 21.3348 17.8261 21.4642 17.7593 21.5779H24.0312C24.1259 21.4758 24.1794 21.3422 24.1812 21.2029Z" fill="url(#paint0_linear)"/>
<path d="M10.25 21.5786C10.1817 21.4121 10.1466 21.2337 10.1469 21.0536V10.3474C9.99063 10.2464 9.80788 10.1942 9.62187 10.1974H4.82187C4.69058 10.1962 4.56035 10.221 4.4387 10.2703C4.31704 10.3197 4.20639 10.3927 4.11311 10.4851C4.01984 10.5775 3.9458 10.6875 3.89527 10.8087C3.84475 10.9299 3.81874 11.0599 3.81874 11.1912V21.0536C3.81555 21.2396 3.86776 21.4224 3.96874 21.5786H10.25Z" fill="url(#paint1_linear)"/>
<path d="M26.6469 22.0469H1.33442C1.03108 22.0469 0.740165 22.1674 0.52567 22.3819C0.311176 22.5964 0.190674 22.8873 0.190674 23.1906V23.9219C0.190674 24.2252 0.311176 24.5161 0.52567 24.7306C0.740165 24.9451 1.03108 25.0656 1.33442 25.0656H26.6469C26.9503 25.0656 27.2412 24.9451 27.4557 24.7306C27.6702 24.5161 27.7907 24.2252 27.7907 23.9219V23.1906C27.7907 22.8873 27.6702 22.5964 27.4557 22.3819C27.2412 22.1674 26.9503 22.0469 26.6469 22.0469Z" fill="url(#paint2_linear)"/>
<path d="M10.6063 21.0523C10.6031 21.2383 10.6553 21.4211 10.7563 21.5773H17.2438C17.3344 21.4166 17.3858 21.2367 17.3938 21.0523V19.093V1.96484C17.3963 1.69701 17.2936 1.43888 17.1078 1.24601C16.9219 1.05314 16.6678 0.940953 16.4 0.933594H11.6C11.3323 0.940953 11.0781 1.05314 10.8923 1.24601C10.7064 1.43888 10.6037 1.69701 10.6063 1.96484V19.093V21.0523Z" fill="url(#paint3_linear)"/>
<defs>
<linearGradient id="paint0_linear" x1="23.7531" y1="10.7477" x2="14.6741" y2="14.1824" gradientUnits="userSpaceOnUse">
<stop stop-color="#00F0FF"/>
<stop offset="1" stop-color="#0098D9"/>
<stop offset="1" stop-color="#0098D9"/>
</linearGradient>
<linearGradient id="paint1_linear" x1="9.82124" y1="10.7663" x2="0.735904" y2="14.2141" gradientUnits="userSpaceOnUse">
<stop stop-color="#00F0FF"/>
<stop offset="1" stop-color="#0098D9"/>
<stop offset="1" stop-color="#0098D9"/>
</linearGradient>
<linearGradient id="paint2_linear" x1="25.9507" y1="22.1978" x2="24.7981" y2="29.2746" gradientUnits="userSpaceOnUse">
<stop stop-color="#00F0FF"/>
<stop offset="1" stop-color="#0098D9"/>
<stop offset="1" stop-color="#0098D9"/>
</linearGradient>
<linearGradient id="paint3_linear" x1="16.9413" y1="1.96578" x2="6.48176" y2="4.27538" gradientUnits="userSpaceOnUse">
<stop stop-color="#00F0FF"/>
<stop offset="1" stop-color="#0098D9"/>
<stop offset="1" stop-color="#0098D9"/>
</linearGradient>
</defs>
</svg>
