<svg width="29" height="27" viewBox="0 0 29 27" fill="none" xmlns="http://www.w3.org/2000/svg">
<path d="M11.6951 8.10548C10.7782 9.59292 9.86475 11.0804 8.94789 12.5678C10.4217 13.5206 11.8139 14.6173 13.0194 15.9025C13.9363 14.4151 14.8498 12.9276 15.7666 11.4402C14.5611 10.155 13.1688 9.05826 11.6951 8.10548Z" fill="url(#paint0_linear)"/>
<path d="M9.30785 0C6.20749 5.04151 3.10375 10.083 0 15.1245C3.60293 16.9752 6.75082 18.401 9.73911 21.2319C10.9548 22.3835 12.123 23.583 13.522 24.5187C15.3999 25.7765 17.6411 26.1123 19.6922 26.9966C22.7959 21.9551 25.8996 16.9136 29 11.872C26.9489 10.9878 24.7077 10.6554 22.8299 9.39756C21.4342 8.46192 20.266 7.2658 19.0537 6.11424C16.0621 3.27989 12.9142 1.85415 9.30785 0ZM14.3064 23.7681C15.2131 22.2944 16.1198 20.8172 17.0265 19.3435C15.5629 18.3599 14.2249 17.1912 13.0228 15.8991C12.1162 17.3762 11.2061 18.85 10.2994 20.3237C9.07014 19.0659 7.69485 17.952 6.22447 16.989C7.13115 15.5152 8.04122 14.0381 8.94789 12.5644C7.47752 11.5842 5.8034 11.0358 4.21077 10.3058C5.12763 8.81835 6.0411 7.33092 6.95796 5.84349C8.55059 6.5735 10.2247 7.12186 11.6951 8.10206C12.6018 6.62833 13.5084 5.15461 14.4185 3.67746C15.8855 4.64052 17.2608 5.75438 18.4934 7.01219C17.5868 8.48591 16.6767 9.96306 15.77 11.4368C16.9755 12.7254 18.3135 13.8976 19.7737 14.8812C20.6803 13.4075 21.5904 11.9303 22.4971 10.4566C23.9912 11.4985 25.8012 11.7315 27.4855 12.3073C26.5788 13.781 25.6687 15.2582 24.7621 16.7319C23.0778 16.1561 21.2644 15.9231 19.7703 14.8812C18.8534 16.3686 17.9399 17.8561 17.0231 19.3435C18.5172 20.3854 20.3306 20.6184 22.0149 21.1942C21.1082 22.6679 20.1981 24.1451 19.2915 25.6188C17.6105 25.0465 15.7972 24.81 14.3064 23.7681Z" fill="url(#paint1_linear)"/>
<defs>
<linearGradient id="paint0_linear" x1="15.9037" y1="8.10548" x2="7.17504" y2="12.7767" gradientUnits="userSpaceOnUse">
<stop stop-color="#FE173F"/>
<stop offset="1" stop-color="#950552"/>
</linearGradient>
<linearGradient id="paint1_linear" x1="29.5832" y1="1.16522e-06" x2="-3.76272" y2="21.9198" gradientUnits="userSpaceOnUse">
<stop stop-color="#FE173F"/>
<stop offset="1" stop-color="#950552"/>
</linearGradient>
</defs>
</svg>
