<svg width="20" height="20" viewBox="0 0 20 20" fill="none" xmlns="http://www.w3.org/2000/svg">
<path d="M11.9256 12.2231C11.0119 11.555 10.4953 11.9134 10.778 13.0173L11.0129 13.936C11.058 14.1121 11.0951 14.3069 11.1254 14.5135H7.4353C4.96977 14.5086 2.97412 12.4898 2.96988 9.99496C2.97094 9.28875 3.13322 8.62224 3.42013 8.02818C3.73568 7.37456 3.53468 6.58623 2.95291 6.15907L2.95238 6.15853C2.20036 5.60687 1.14128 5.88163 0.737166 6.72844C0.265168 7.71639 0.000530335 8.82455 0.000530335 9.9955H0C0.00106067 14.1507 3.32891 17.517 7.4353 17.5192L11.102 17.5186C11.0761 17.671 11.0458 17.8165 11.0114 17.9506L10.7764 18.8704C10.4937 19.9738 11.0103 20.3312 11.9241 19.6636L15.9636 16.7008C16.4722 16.3278 16.4722 15.5604 15.9636 15.1875L11.9256 12.2231Z" fill="white"/>
<path d="M12.5647 2.47142H8.99449C9.01994 2.32277 9.04964 2.1811 9.08305 2.05016L9.31799 1.13036C9.60066 0.0264929 9.08411 -0.330372 8.17035 0.33667L4.13025 3.29999C3.62166 3.67296 3.62166 4.44035 4.13025 4.81331L8.16982 7.77717C9.08358 8.44475 9.60013 8.08681 9.31746 6.98294L9.08252 6.06422C9.03691 5.88498 8.99926 5.68642 8.9685 5.4766H12.5647C15.0297 5.48143 17.0254 7.50026 17.0296 9.99564C17.0285 10.6874 16.8726 11.3421 16.5968 11.9275C16.2887 12.5801 16.4897 13.3625 17.0683 13.787C17.8224 14.3403 18.8868 14.0639 19.2862 13.2122C19.7433 12.2372 19.9995 11.1467 20 9.99564C19.9984 5.83937 16.6711 2.47196 12.5647 2.47142Z" fill="white"/>
</svg>
