<svg width="14" height="22" viewBox="0 0 14 22" fill="none" xmlns="http://www.w3.org/2000/svg">
<path fill-rule="evenodd" clip-rule="evenodd" d="M1.23664 6.02588H5.03696V15.5095H1.23664C0.896853 15.5095 0.587694 15.3661 0.363116 15.1338C0.138538 14.9015 0 14.5816 0 14.2286V7.30524C0 6.95372 0.138538 6.63388 0.363116 6.40154C0.587694 6.1692 0.896853 6.02588 1.23664 6.02588Z" fill="white"/>
<path fill-rule="evenodd" clip-rule="evenodd" d="M6.05957 5.62462L11.9759 0.308023C12.4863 -0.149108 13.2577 -0.090269 13.6981 0.436261C13.8979 0.674633 13.9956 0.970334 13.9956 1.26302H14V20.2709C14 20.9709 13.4517 21.5382 12.775 21.5382C12.4338 21.5382 12.1246 21.3934 11.903 21.161L6.05957 15.9108V5.62462Z" fill="white"/>
</svg>
