<svg width="29" height="29" viewBox="0 0 29 29" fill="none" xmlns="http://www.w3.org/2000/svg">
<path d="M23 17.0001H6C6 13.4566 8.16818 10.4197 11.2503 9.14368C11.5903 9.39222 11.9578 9.59996 12.3492 9.76554C13.0309 10.0539 13.7544 10.2001 14.5 10.2001C15.2453 10.2001 15.9691 10.0539 16.6508 9.76554C17.0418 9.59996 17.4094 9.39222 17.7497 9.14368C20.8318 10.4197 23 13.4569 23 17.0001Z" fill="white"/>
<path d="M19.1742 4.675C19.1742 6.4549 18.1797 8.00224 16.716 8.79207C16.0564 9.14805 15.3013 9.35001 14.4992 9.35001C13.6972 9.35001 12.942 9.14805 12.2824 8.79207C10.8187 8.00224 9.82422 6.4549 9.82422 4.675C9.82422 2.09304 11.9173 0 14.4992 0C17.0812 0 19.1742 2.09304 19.1742 4.675Z" fill="white"/>
<path d="M4.90759 21.148V19.24H8.23159V28H6.09559V21.148H4.90759ZM10.1633 26.356C10.4353 26.14 10.5593 26.04 10.5353 26.056C11.3193 25.408 11.9353 24.876 12.3833 24.46C12.8393 24.044 13.2233 23.608 13.5353 23.152C13.8473 22.696 14.0033 22.252 14.0033 21.82C14.0033 21.492 13.9273 21.236 13.7753 21.052C13.6233 20.868 13.3953 20.776 13.0913 20.776C12.7873 20.776 12.5473 20.892 12.3713 21.124C12.2033 21.348 12.1193 21.668 12.1193 22.084H10.1393C10.1553 21.404 10.2993 20.836 10.5713 20.38C10.8513 19.924 11.2153 19.588 11.6633 19.372C12.1193 19.156 12.6233 19.048 13.1753 19.048C14.1273 19.048 14.8433 19.292 15.3233 19.78C15.8113 20.268 16.0553 20.904 16.0553 21.688C16.0553 22.544 15.7633 23.34 15.1793 24.076C14.5953 24.804 13.8513 25.516 12.9473 26.212H16.1873V27.88H10.1633V26.356ZM17.7628 21.712C17.7948 20.856 18.0748 20.196 18.6028 19.732C19.1308 19.268 19.8468 19.036 20.7508 19.036C21.3508 19.036 21.8628 19.14 22.2868 19.348C22.7188 19.556 23.0428 19.84 23.2588 20.2C23.4828 20.56 23.5948 20.964 23.5948 21.412C23.5948 21.94 23.4628 22.372 23.1988 22.708C22.9348 23.036 22.6268 23.26 22.2748 23.38V23.428C22.7308 23.58 23.0908 23.832 23.3548 24.184C23.6188 24.536 23.7508 24.988 23.7508 25.54C23.7508 26.036 23.6348 26.476 23.4028 26.86C23.1788 27.236 22.8468 27.532 22.4068 27.748C21.9748 27.964 21.4588 28.072 20.8588 28.072C19.8988 28.072 19.1308 27.836 18.5548 27.364C17.9868 26.892 17.6868 26.18 17.6548 25.228H19.6468C19.6548 25.58 19.7548 25.86 19.9468 26.068C20.1388 26.268 20.4188 26.368 20.7868 26.368C21.0988 26.368 21.3388 26.28 21.5068 26.104C21.6828 25.92 21.7708 25.68 21.7708 25.384C21.7708 25 21.6468 24.724 21.3988 24.556C21.1588 24.38 20.7708 24.292 20.2348 24.292H19.8508V22.624H20.2348C20.6428 22.624 20.9708 22.556 21.2188 22.42C21.4748 22.276 21.6028 22.024 21.6028 21.664C21.6028 21.376 21.5228 21.152 21.3628 20.992C21.2028 20.832 20.9828 20.752 20.7028 20.752C20.3988 20.752 20.1708 20.844 20.0188 21.028C19.8748 21.212 19.7908 21.44 19.7668 21.712H17.7628Z" fill="white"/>
</svg>
