<svg width="28" height="26" viewBox="0 0 28 26" fill="none" xmlns="http://www.w3.org/2000/svg">
<path d="M13.5277 0.358695C13.6834 -0.0890853 14.3166 -0.0890861 14.4723 0.358694L17.4125 8.81726C17.4811 9.01479 17.6655 9.14873 17.8746 9.15299L26.8277 9.33544C27.3017 9.3451 27.4974 9.94737 27.1196 10.2338L19.9836 15.6439C19.8169 15.7702 19.7465 15.987 19.8071 16.1871L22.4002 24.7584C22.5375 25.2122 22.0252 25.5844 21.6361 25.3136L14.2856 20.1987C14.1139 20.0793 13.8861 20.0793 13.7144 20.1987L6.36392 25.3136C5.9748 25.5844 5.46248 25.2122 5.59976 24.7584L8.19291 16.1871C8.25347 15.987 8.18305 15.7702 8.0164 15.6439L0.880404 10.2338C0.502638 9.94737 0.698328 9.3451 1.17229 9.33544L10.1254 9.15299C10.3345 9.14873 10.5189 9.01479 10.5875 8.81726L13.5277 0.358695Z" fill="#C4C4C4"/>
<path d="M13.5277 0.358695C13.6834 -0.0890853 14.3166 -0.0890861 14.4723 0.358694L17.4125 8.81726C17.4811 9.01479 17.6655 9.14873 17.8746 9.15299L26.8277 9.33544C27.3017 9.3451 27.4974 9.94737 27.1196 10.2338L19.9836 15.6439C19.8169 15.7702 19.7465 15.987 19.8071 16.1871L22.4002 24.7584C22.5375 25.2122 22.0252 25.5844 21.6361 25.3136L14.2856 20.1987C14.1139 20.0793 13.8861 20.0793 13.7144 20.1987L6.36392 25.3136C5.9748 25.5844 5.46248 25.2122 5.59976 24.7584L8.19291 16.1871C8.25347 15.987 8.18305 15.7702 8.0164 15.6439L0.880404 10.2338C0.502638 9.94737 0.698328 9.3451 1.17229 9.33544L10.1254 9.15299C10.3345 9.14873 10.5189 9.01479 10.5875 8.81726L13.5277 0.358695Z" fill="url(#paint0_linear)"/>
<defs>
<linearGradient id="paint0_linear" x1="27.4354" y1="20.375" x2="4.85071" y2="28.4539" gradientUnits="userSpaceOnUse">
<stop stop-color="#EB2163"/>
<stop offset="1" stop-color="#950552"/>
</linearGradient>
</defs>
</svg>
