<svg width="68" height="42" viewBox="0 0 68 42" fill="none" xmlns="http://www.w3.org/2000/svg">
<g clip-path="url(#clip0)">
<path d="M67.9999 0.282227H58.7432V42.001H67.9999V0.282227Z" fill="#1CFFFF"/>
<path d="M9.25674 0.282227H0V42.001H9.25674V0.282227Z" fill="#1CFFFF"/>
<path d="M30.3389 20.8027C30.3389 21.2691 30.4345 21.7413 30.6175 22.1764C30.8005 22.6116 31.072 23.0097 31.4108 23.3407C31.7496 23.6728 32.1557 23.939 32.5984 24.1184C33.0412 24.2978 33.5205 24.3915 33.9998 24.3915C34.4791 24.3915 34.9584 24.2978 35.4011 24.1184C35.8438 23.939 36.2499 23.6717 36.5887 23.3407C36.9275 23.0085 37.1991 22.6104 37.3821 22.1764C37.565 21.7413 37.6607 21.2691 37.6607 20.8027V3.58998C37.6607 3.12358 37.565 2.6514 37.3821 2.21625C37.1991 1.7811 36.9275 1.38299 36.5887 1.052C36.2499 0.719848 35.8438 0.453666 35.4011 0.274283C34.9596 0.0937423 34.4803 0 34.0009 0C33.5216 0 33.0423 0.0937423 32.5996 0.273126C32.1569 0.452509 31.7508 0.719848 31.412 1.05084C31.0732 1.38183 30.8016 1.7811 30.6187 2.21509C30.4357 2.64909 30.34 3.12243 30.34 3.58882V20.8027H30.3389Z" fill="#1CFFFF"/>
<path d="M27.6532 0.605469V10.5479C26.5269 11.218 25.5045 12.0744 24.6498 13.0674C23.7951 14.0592 23.108 15.1876 22.6228 16.3947C22.1364 17.6006 21.8519 18.8864 21.7834 20.1814C21.715 21.4764 21.8625 22.7842 22.2191 24.0329C22.5756 25.2828 23.1411 26.4749 23.8848 27.5477C24.6286 28.6205 25.5529 29.5741 26.6072 30.3576C27.6614 31.1423 28.8467 31.7568 30.1016 32.17C31.3566 32.5831 32.68 32.7961 34.0034 32.7961C35.3268 32.7961 36.6502 32.5831 37.9051 32.17C39.16 31.7568 40.3453 31.1411 41.3995 30.3576C42.4538 29.573 43.377 28.6205 44.1219 27.5477C44.8657 26.4749 45.4311 25.2828 45.7877 24.0329C46.1442 22.783 46.2918 21.4764 46.2233 20.1814C46.1548 18.8852 45.8691 17.6006 45.3839 16.3947C44.8975 15.1888 44.2116 14.0604 43.3569 13.0674C42.5022 12.0756 41.4798 11.218 40.3536 10.5479V0.605469C42.7808 1.3392 45.0959 2.50809 47.1252 4.03227C49.1546 5.55645 50.8995 7.43592 52.2571 9.5538C53.6147 11.6728 54.5863 14.0314 55.1093 16.4815C55.6311 18.9315 55.7043 21.4741 55.3242 23.9484C54.9441 26.4239 54.1106 28.8311 52.8757 31.0219C51.6409 33.2127 50.0046 35.1859 48.0697 36.8189C46.1348 38.4519 43.9 39.7434 41.507 40.6149C39.1128 41.4852 36.5604 41.9354 34.0069 41.9354C31.4534 41.9354 28.8998 41.4863 26.5068 40.6149C24.1127 39.7446 21.8791 38.4519 19.9441 36.8189C18.0092 35.1859 16.3729 33.2127 15.1381 31.0219C13.9032 28.8311 13.0698 26.4228 12.6896 23.9484C12.3095 21.473 12.3827 18.9315 12.9045 16.4815C13.4263 14.0314 14.3979 11.6728 15.7567 9.5538C17.1143 7.43476 18.8592 5.55645 20.8886 4.03227C22.9109 2.50809 25.2259 1.3392 27.6532 0.605469Z" fill="#1CFFFF"/>
</g>
<defs>
<clipPath id="clip0">
<rect width="68" height="42" fill="white"/>
</clipPath>
</defs>
</svg>
