<svg width="78" height="49" viewBox="0 0 78 49" fill="none" xmlns="http://www.w3.org/2000/svg">
<g clip-path="url(#clip0)">
<path d="M78.0008 0.32959H67.3828V49.0015H78.0008V0.32959Z" fill="#1CFFFF"/>
<path d="M10.618 0.32959H0V49.0015H10.618V0.32959Z" fill="#1CFFFF"/>
<path d="M34.8008 24.2698C34.8008 24.8139 34.9105 25.3648 35.1204 25.8725C35.3303 26.3801 35.6417 26.8446 36.0304 27.2308C36.419 27.6183 36.8848 27.9288 37.3927 28.1381C37.9005 28.3474 38.4503 28.4568 39 28.4568C39.5498 28.4568 40.0996 28.3474 40.6074 28.1381C41.1153 27.9288 41.5811 27.6169 41.9697 27.2308C42.3584 26.8433 42.6698 26.3788 42.8797 25.8725C43.0896 25.3648 43.1993 24.8139 43.1993 24.2698V4.18831C43.1993 3.64418 43.0896 3.0933 42.8797 2.58563C42.6698 2.07795 42.3584 1.61349 41.9697 1.22733C41.5811 0.839823 41.1153 0.529277 40.6074 0.319997C40.101 0.109366 39.5512 0 39.0014 0C38.4516 0 37.9018 0.109366 37.394 0.318646C36.8862 0.527927 36.4204 0.839823 36.0317 1.22598C35.6431 1.61214 35.3316 2.07795 35.1217 2.58428C34.9118 3.0906 34.8021 3.64283 34.8021 4.18696V24.2698H34.8008Z" fill="#1CFFFF"/>
<path d="M31.7199 0.706055V12.3056C30.4281 13.0874 29.2554 14.0865 28.2749 15.245C27.2945 16.4021 26.5064 17.7185 25.9498 19.1268C25.3919 20.5337 25.0656 22.0338 24.987 23.5446C24.9085 25.0555 25.0778 26.5812 25.4867 28.0381C25.8957 29.4963 26.5443 30.887 27.3974 32.1386C28.2506 33.3903 29.3109 34.5028 30.5202 35.4169C31.7294 36.3324 33.089 37.0493 34.5285 37.5313C35.968 38.0133 37.486 38.2618 39.004 38.2618C40.522 38.2618 42.04 38.0133 43.4795 37.5313C44.919 37.0493 46.2786 36.331 47.4879 35.4169C48.6971 34.5015 49.7561 33.3903 50.6106 32.1386C51.4637 30.887 52.1123 29.4963 52.5213 28.0381C52.9303 26.5799 53.0995 25.0555 53.021 23.5446C52.9424 22.0324 52.6147 20.5337 52.0582 19.1268C51.5003 17.7199 50.7135 16.4034 49.7331 15.245C48.7527 14.0879 47.5799 13.0874 46.2881 12.3056V0.706055C49.0722 1.56208 51.7278 2.92578 54.0556 4.70399C56.3834 6.4822 58.3848 8.67492 59.9421 11.1458C61.4994 13.618 62.6139 16.3697 63.2138 19.2281C63.8123 22.0864 63.8963 25.0528 63.4603 27.9395C63.0242 30.8276 62.0682 33.636 60.6517 36.1919C59.2353 38.7479 57.3584 41.0499 55.1389 42.9551C52.9194 44.8602 50.356 46.367 47.6111 47.3837C44.8648 48.3991 41.9371 48.9243 39.0081 48.9243C36.079 48.9243 33.1499 48.4004 30.405 47.3837C27.6588 46.3684 25.0967 44.8602 22.8772 42.9551C20.6578 41.0499 18.7809 38.7479 17.3644 36.1919C15.948 33.636 14.9919 30.8263 14.5559 27.9395C14.1198 25.0515 14.2038 22.0864 14.8023 19.2281C15.4009 16.3697 16.5154 13.618 18.074 11.1458C19.6313 8.67357 21.6328 6.4822 23.9606 4.70399C26.2803 2.92578 28.9358 1.56208 31.7199 0.706055Z" fill="#1CFFFF"/>
</g>
<defs>
<clipPath id="clip0">
<rect width="78" height="49" fill="white"/>
</clipPath>
</defs>
</svg>
