<svg width="138" height="51" viewBox="0 0 138 51" fill="none" xmlns="http://www.w3.org/2000/svg">
<path d="M109.29 5.59943L110.486 0H130.929C132.125 0 133.212 0.237884 134.191 0.713653C135.169 1.18942 135.967 1.86648 136.583 2.74482C137.199 3.62316 137.616 4.68449 137.833 5.9288C138.087 7.13653 138.051 8.49064 137.725 9.99113C137.435 11.3452 136.891 12.6262 136.094 13.8339C135.332 15.0416 134.39 16.1029 133.266 17.0179C132.143 17.9328 130.911 18.6648 129.569 19.2137C128.265 19.7261 126.924 19.9823 125.546 19.9823L126.742 14.3828C128.265 14.0901 129.406 13.5777 130.167 12.8457C130.965 12.1138 131.49 11.1623 131.744 9.99113C132.034 8.74682 131.907 7.70379 131.364 6.86204C130.856 6.0203 129.859 5.59943 128.373 5.59943H109.29ZM109.888 28.6559H133.266L132.07 34.2553H102.766L104.886 24.2642C105.176 22.9101 105.702 21.6292 106.463 20.4214C107.224 19.2137 108.148 18.1524 109.236 17.2375C110.323 16.3225 111.519 15.6089 112.824 15.0965C114.129 14.5475 115.47 14.2731 116.847 14.2731L115.651 19.9274C114.201 20.2202 113.078 20.7508 112.28 21.5194C111.519 22.2513 111.03 23.1663 110.812 24.2642L109.888 28.6559Z" fill="white"/>
<path d="M0 0.37568V5.91368H11.7818V34.2552H17.6456V5.91368H29.5903V0.37568H0Z" fill="url(#paint0_linear_1406:31)"/>
<path d="M55.3834 34.2552H61.7358L54.8948 20.7903C55.8721 20.5731 56.7951 20.1568 57.6638 19.5415C58.5325 18.89 59.2745 18.1299 59.8898 17.2612C60.5414 16.3563 61.0481 15.3609 61.4101 14.275C61.772 13.1529 61.953 12.0127 61.953 10.8544C61.953 9.37041 61.6996 7.99496 61.1929 6.72809C60.7223 5.42503 60.0708 4.30295 59.2383 3.36186C58.442 2.42076 57.5009 1.69684 56.415 1.19009C55.3291 0.64715 54.1889 0.37568 52.9945 0.37568H32.1455V34.2552H37.955V5.91368H52.343C52.8859 5.91368 53.3745 6.07656 53.8089 6.40233C54.2794 6.6919 54.6595 7.09005 54.9491 7.5968C55.2748 8.06735 55.5101 8.59219 55.6549 9.17133C55.8359 9.71427 55.9264 10.2572 55.9264 10.8002C55.9264 11.3069 55.854 11.8317 55.7092 12.3747C55.6006 12.9176 55.4015 13.4244 55.112 13.8949C54.8224 14.3293 54.4604 14.6912 54.0261 14.9808C53.5917 15.2704 53.085 15.4152 52.5058 15.4152H45.8277L55.3834 34.2552Z" fill="url(#paint1_linear_1406:31)"/>
<path d="M84.3231 37.4586L98.6567 9.11703V34.2552H104.575V0.26709H96.4307L84.3231 24.5909L72.324 0.26709H64.2342V34.2552H70.2609V9.33421L84.3231 37.4586Z" fill="url(#paint2_linear_1406:31)"/>
<path d="M7.19623 50.4042H8.3986L7.64841 47.8556C7.84024 47.8145 8.02864 47.7357 8.21362 47.6193C8.40545 47.4959 8.58015 47.3521 8.73772 47.1876C8.8953 47.0164 9.02889 46.828 9.13851 46.6224C9.25498 46.41 9.33719 46.1942 9.38515 45.975C9.44681 45.6941 9.45709 45.4338 9.41598 45.194C9.37487 44.9473 9.29609 44.735 9.17962 44.5568C9.06315 44.3787 8.91243 44.2417 8.72745 44.1458C8.54247 44.043 8.33694 43.9916 8.11085 43.9916H4.16464L2.79785 50.4042H3.89745L5.03815 45.0398H7.76145C7.86421 45.0398 7.94985 45.0707 8.01836 45.1323C8.09372 45.1871 8.15196 45.2625 8.19307 45.3584C8.23417 45.4475 8.25815 45.5468 8.265 45.6564C8.27185 45.7592 8.265 45.862 8.24445 45.9647C8.22389 46.0606 8.18964 46.16 8.14168 46.2627C8.09372 46.3655 8.03549 46.4614 7.96698 46.5505C7.89847 46.6327 7.81626 46.7012 7.72034 46.756C7.62443 46.8108 7.52166 46.8382 7.41204 46.8382H6.14802L7.19623 50.4042Z" fill="white"/>
<path d="M17.5552 50.4042H18.6548L20.0216 43.9916H18.922L17.5552 50.4042Z" fill="white"/>
<path d="M28.4664 47.1979C28.3705 47.6432 28.367 48.0646 28.4561 48.4619C28.5452 48.8524 28.7027 49.195 28.9288 49.4896C29.1618 49.7773 29.4564 50.0069 29.8126 50.1781C30.1757 50.3494 30.5834 50.435 31.0355 50.435C31.6384 50.435 32.2173 50.2843 32.7723 49.9829C33.3272 49.6814 33.8205 49.2738 34.2521 48.76L33.6252 47.9584C33.4677 48.1639 33.293 48.3523 33.1011 48.5236C32.9093 48.688 32.7106 48.8319 32.5051 48.9552C32.2996 49.0785 32.0906 49.1744 31.8782 49.243C31.6727 49.3115 31.4706 49.3457 31.2719 49.3457C30.9773 49.3457 30.7101 49.2909 30.4703 49.1813C30.2305 49.0648 30.0318 48.9107 29.8743 48.7189C29.7235 48.5202 29.6174 48.2907 29.5557 48.0303C29.494 47.77 29.494 47.4959 29.5557 47.2082C29.6174 46.9204 29.7338 46.6464 29.9051 46.3861C30.0764 46.1257 30.2819 45.8962 30.5217 45.6975C30.7615 45.4989 31.0253 45.3413 31.313 45.2248C31.6007 45.1083 31.8953 45.0501 32.1968 45.0501C32.416 45.0501 32.6215 45.0912 32.8134 45.1734C33.0052 45.2488 33.1765 45.3584 33.3272 45.5023C33.4848 45.6462 33.6184 45.814 33.728 46.0058C33.8376 46.1977 33.9198 46.4066 33.9746 46.6327L34.992 46.0367C34.9167 45.7284 34.8002 45.4475 34.6426 45.194C34.4919 44.9405 34.3035 44.7247 34.0774 44.5466C33.8582 44.3616 33.6081 44.2177 33.3272 44.1149C33.0463 44.0122 32.7414 43.9608 32.4126 43.9608C31.9604 43.9608 31.5185 44.0464 31.0869 44.2177C30.6553 44.389 30.2614 44.6219 29.9051 44.9165C29.5488 45.2043 29.244 45.5468 28.9905 45.9442C28.737 46.3347 28.5623 46.7526 28.4664 47.1979Z" fill="white"/>
<path d="M48.0529 50.4042H49.1731L50.5399 43.9916H49.4197L48.8134 46.8382H45.5352L45.3091 47.8864H48.5873L48.0529 50.4042ZM43.2435 50.4042H44.3431L45.7099 43.9916H44.6103L43.2435 50.4042Z" fill="white"/>
<path d="M74.6324 50.4042H75.8347L75.0845 47.8556C75.2764 47.8145 75.4648 47.7357 75.6498 47.6193C75.8416 47.4959 76.0163 47.3521 76.1739 47.1876C76.3314 47.0164 76.465 46.828 76.5747 46.6224C76.6911 46.41 76.7733 46.1942 76.8213 45.975C76.8829 45.6941 76.8932 45.4338 76.8521 45.194C76.811 44.9473 76.7322 44.735 76.6158 44.5568C76.4993 44.3787 76.3486 44.2417 76.1636 44.1458C75.9786 44.043 75.7731 43.9916 75.547 43.9916H71.6008L70.234 50.4042H71.3336L72.4743 45.0398H75.1976C75.3004 45.0398 75.386 45.0707 75.4545 45.1323C75.5299 45.1871 75.5881 45.2625 75.6292 45.3584C75.6703 45.4475 75.6943 45.5468 75.7011 45.6564C75.708 45.7592 75.7011 45.862 75.6806 45.9647C75.66 46.0606 75.6258 46.16 75.5778 46.2627C75.5299 46.3655 75.4716 46.4614 75.4031 46.5505C75.3346 46.6327 75.2524 46.7012 75.1565 46.756C75.0606 46.8108 74.9578 46.8382 74.8482 46.8382H73.5842L74.6324 50.4042Z" fill="white"/>
<path d="M84.3017 50.4042H85.5657L88.8131 45.8311L89.7688 49.3457H87.1894L86.244 50.4042H91.3412L89.3372 43.3647L84.3017 50.4042Z" fill="white"/>
<path d="M100.067 47.1979C99.9714 47.6432 99.968 48.0646 100.057 48.4619C100.146 48.8524 100.304 49.195 100.53 49.4896C100.763 49.7773 101.057 50.0069 101.414 50.1781C101.777 50.3494 102.184 50.435 102.637 50.435C103.239 50.435 103.818 50.2843 104.373 49.9829C104.928 49.6814 105.421 49.2738 105.853 48.76L105.226 47.9584C105.069 48.1639 104.894 48.3523 104.702 48.5236C104.51 48.688 104.312 48.8319 104.106 48.9552C103.901 49.0785 103.692 49.1744 103.479 49.243C103.274 49.3115 103.072 49.3457 102.873 49.3457C102.578 49.3457 102.311 49.2909 102.071 49.1813C101.832 49.0648 101.633 48.9107 101.475 48.7189C101.325 48.5202 101.218 48.2907 101.157 48.0303C101.095 47.77 101.095 47.4959 101.157 47.2082C101.218 46.9204 101.335 46.6464 101.506 46.3861C101.677 46.1257 101.883 45.8962 102.123 45.6975C102.362 45.4989 102.626 45.3413 102.914 45.2248C103.202 45.1083 103.496 45.0501 103.798 45.0501C104.017 45.0501 104.223 45.0912 104.414 45.1734C104.606 45.2488 104.777 45.3584 104.928 45.5023C105.086 45.6462 105.219 45.814 105.329 46.0058C105.439 46.1977 105.521 46.4066 105.576 46.6327L106.593 46.0367C106.518 45.7284 106.401 45.4475 106.244 45.194C106.093 44.9405 105.904 44.7247 105.678 44.5466C105.459 44.3616 105.209 44.2177 104.928 44.1149C104.647 44.0122 104.342 43.9608 104.014 43.9608C103.561 43.9608 103.119 44.0464 102.688 44.2177C102.256 44.389 101.862 44.6219 101.506 44.9165C101.15 45.2043 100.845 45.5468 100.591 45.9442C100.338 46.3347 100.163 46.7526 100.067 47.1979Z" fill="white"/>
<path d="M120.404 46.8382L120.178 47.8864H116.931L117.157 46.8382H120.404ZM114.824 50.4042L116.191 43.9916H121.072L120.846 45.0398H117.064L116.15 49.356H119.931L119.705 50.4042H114.824Z" fill="white"/>
<path d="M133.4 50.4042H134.603L133.853 47.8556C134.044 47.8145 134.233 47.7357 134.418 47.6193C134.61 47.4959 134.784 47.3521 134.942 47.1876C135.1 47.0164 135.233 46.828 135.343 46.6224C135.459 46.41 135.541 46.1942 135.589 45.975C135.651 45.6941 135.661 45.4338 135.62 45.194C135.579 44.9473 135.5 44.735 135.384 44.5568C135.267 44.3787 135.117 44.2417 134.932 44.1458C134.747 44.043 134.541 43.9916 134.315 43.9916H130.369L129.002 50.4042H130.102L131.242 45.0398H133.966C134.068 45.0398 134.154 45.0707 134.223 45.1323C134.298 45.1871 134.356 45.2625 134.397 45.3584C134.438 45.4475 134.462 45.5468 134.469 45.6564C134.476 45.7592 134.469 45.862 134.449 45.9647C134.428 46.0606 134.394 46.16 134.346 46.2627C134.298 46.3655 134.24 46.4614 134.171 46.5505C134.103 46.6327 134.02 46.7012 133.925 46.756C133.829 46.8108 133.726 46.8382 133.616 46.8382H132.352L133.4 50.4042Z" fill="white"/>
<defs>
<linearGradient id="paint0_linear_1406:31" x1="52.2874" y1="0.26709" x2="52.2874" y2="37.4586" gradientUnits="userSpaceOnUse">
<stop stop-color="#1CFFFF"/>
<stop offset="1" stop-color="#1CBBFF"/>
</linearGradient>
<linearGradient id="paint1_linear_1406:31" x1="52.2874" y1="0.26709" x2="52.2874" y2="37.4586" gradientUnits="userSpaceOnUse">
<stop stop-color="#1CFFFF"/>
<stop offset="1" stop-color="#1CBBFF"/>
</linearGradient>
<linearGradient id="paint2_linear_1406:31" x1="52.2874" y1="0.26709" x2="52.2874" y2="37.4586" gradientUnits="userSpaceOnUse">
<stop stop-color="#1CFFFF"/>
<stop offset="1" stop-color="#1CBBFF"/>
</linearGradient>
</defs>
</svg>
