<svg width="25" height="25" viewBox="0 0 25 25" fill="none" xmlns="http://www.w3.org/2000/svg">
<path d="M12.5 25C5.60762 25 0 19.3924 0 12.5C0 5.60762 5.60762 0 12.5 0C19.3924 0 25 5.60762 25 12.5C25 19.3924 19.3924 25 12.5 25Z" fill="#C3E678"/>
<path d="M18.3334 20.8323C11.441 20.8323 5.83335 15.2247 5.83335 8.33231C5.83335 5.4472 6.82544 2.79471 8.47354 0.67688C3.55313 2.35789 0 7.01654 0 12.499C0 19.3914 5.60762 24.999 12.5 24.999C16.5073 24.999 20.0708 23.096 22.3598 20.1544C21.0943 20.5868 19.7433 20.8323 18.3334 20.8323Z" fill="#A5D76E"/>
<path d="M9.91732 18.9663C9.69672 18.9663 9.47601 18.882 9.3078 18.7137L4.13539 13.5413C3.79862 13.2047 3.79862 12.6588 4.13539 12.3222C4.47172 11.9854 5.0181 11.9854 5.35443 12.3222L9.91737 16.8849L18.7906 8.01185C19.1269 7.67509 19.6733 7.67509 20.0097 8.01185C20.3464 8.34838 20.3464 8.89433 20.0097 9.2309L10.5268 18.7137C10.3587 18.882 10.1379 18.9663 9.91732 18.9663Z" fill="white"/>
</svg>
