<svg width="39" height="30" viewBox="0 0 39 30" fill="none" xmlns="http://www.w3.org/2000/svg">
<path fill-rule="evenodd" clip-rule="evenodd" d="M38.3601 2.60672L36.4084 0.643127C35.5561 -0.214375 34.1735 -0.214375 33.3212 0.643127L13.3369 20.7502L5.67812 13.0448C4.82581 12.1873 3.44324 12.1873 2.59093 13.0448L0.63923 15.0084C-0.213077 15.8659 -0.213077 17.2569 0.63923 18.1144L9.84156 27.3728L11.7933 29.3364L11.8136 29.3569C12.6659 30.2144 14.0485 30.2144 14.9008 29.3569L16.8525 27.3933C16.9349 27.3104 17.007 27.222 17.0728 27.1298L38.3601 5.71272C39.2133 4.85522 39.2133 3.46423 38.3601 2.60672Z" fill="url(#paint0_linear)"/>
<defs>
<linearGradient id="paint0_linear" x1="36.4" y1="1.5" x2="0.633446" y2="32.7256" gradientUnits="userSpaceOnUse">
<stop stop-color="#00F0FF"/>
<stop offset="1" stop-color="#0098D9"/>
<stop offset="1" stop-color="#0098D9"/>
</linearGradient>
</defs>
</svg>
