<svg width="46" height="42" viewBox="0 0 46 42" fill="none" xmlns="http://www.w3.org/2000/svg">
<path fill-rule="evenodd" clip-rule="evenodd" d="M0.62085 25.6123L4.17273 25.6831L9.14056 20.7191L13.0796 24.6582C14.1097 23.3346 15.375 22.2249 16.8454 21.3746L17.1035 21.2278L17.306 21.4404L16.4341 17.7506C15.7217 17.9315 14.9828 18.0251 14.2273 18.0251C11.7725 18.0251 9.48094 17.0382 7.77776 15.2527L7.5753 15.0401L7.31717 15.1869C3.7134 17.271 1.34211 20.9114 0.646157 25.4478L0.62085 25.6123ZM14.2286 16.203C9.76312 16.203 6.12899 12.5689 6.12899 8.1034C6.12899 3.63413 9.76185 0 14.2286 0C18.0943 0 21.3362 2.7218 22.1371 6.35087C18.7498 7.52007 15.8786 11.4984 15.8483 16.0398C15.3244 16.1461 14.7828 16.203 14.2286 16.203Z" fill="url(#paint0_linear)"/>
<path fill-rule="evenodd" clip-rule="evenodd" d="M19.9707 41.5995H45.3527C45.6602 34.8311 43.3091 29.0382 36.9924 25.3902L36.6698 25.2042L36.4078 25.475C34.2466 27.7412 31.34 28.9927 28.2247 28.9927C25.1094 28.9927 22.2041 27.7412 20.0416 25.475L19.7847 25.2042L19.457 25.3902C18.1195 26.1633 16.9604 27.0326 15.9658 27.988L20.2036 32.2257H13.5718C13.8717 35.4461 15.0687 38.0995 17.9158 40.1317L19.9707 41.5995ZM28.2247 26.6809C22.5597 26.6809 17.9499 22.0711 17.9499 16.4048C17.9499 10.7347 22.5597 6.125 28.2247 6.125C33.891 6.125 38.5008 10.7347 38.5008 16.3998C38.5008 22.0661 33.891 26.6809 28.2247 26.6809Z" fill="url(#paint1_linear)"/>
<path fill-rule="evenodd" clip-rule="evenodd" d="M8.55603 24.1211L1.44214 30.9161H5.50396C6.52132 37.7174 11.6005 40.6278 16.6797 41.5996C13.1227 39.1714 11.5018 35.7713 11.5018 30.9161H15.6636L8.55603 24.1211Z" fill="url(#paint2_linear)"/>
<defs>
<linearGradient id="paint0_linear" x1="20.7027" y1="1.28416" x2="-5.70934" y2="16.1439" gradientUnits="userSpaceOnUse">
<stop stop-color="#00F0FF"/>
<stop offset="1" stop-color="#0098D9"/>
<stop offset="1" stop-color="#0098D9"/>
</linearGradient>
<linearGradient id="paint1_linear" x1="43.2586" y1="7.89873" x2="5.53334" y2="30.6148" gradientUnits="userSpaceOnUse">
<stop stop-color="#00F0FF"/>
<stop offset="1" stop-color="#0098D9"/>
<stop offset="1" stop-color="#0098D9"/>
</linearGradient>
<linearGradient id="paint2_linear" x1="15.6638" y1="24.995" x2="-2.67535" y2="35.732" gradientUnits="userSpaceOnUse">
<stop stop-color="#00F0FF"/>
<stop offset="1" stop-color="#0098D9"/>
<stop offset="1" stop-color="#0098D9"/>
</linearGradient>
</defs>
</svg>
