<svg width="51" height="35" viewBox="0 0 51 35" fill="none" xmlns="http://www.w3.org/2000/svg">
<path d="M12.5256 13.7835C12.5797 13.7835 12.6338 13.7835 12.6888 13.7827C13.3207 12.7455 14.0805 11.7761 14.9615 10.8952C15.5462 10.3105 16.1704 9.77992 16.8272 9.3034C15.4912 9.44078 14.0419 9.51547 12.5256 9.51547C6.60392 9.51547 1.68332 8.37011 0.69165 6.86328V10.5698C0.69165 12.3445 5.99002 13.7835 12.5256 13.7835Z" fill="#FE183F"/>
<path d="M10.5019 20.6562C10.605 19.1932 10.9132 17.7705 11.4112 16.4217C5.99603 16.2886 1.62065 15.1947 0.69165 13.7832V17.4897C0.69165 19.0773 4.93052 20.3961 10.5019 20.6562Z" fill="#FE183F"/>
<path d="M11.6145 27.6131C11.0522 26.2488 10.689 24.8029 10.5396 23.3107C5.53142 23.0883 1.56987 22.0374 0.690674 20.7031V24.4097C0.691532 26.1002 5.5048 27.4869 11.6145 27.6131Z" fill="#FE183F"/>
<path d="M13.0348 30.2718C12.8656 30.2735 12.6965 30.2752 12.5256 30.2752C6.60392 30.2752 1.68332 29.1299 0.69165 27.623V31.3296C0.69165 33.1043 5.99002 34.5424 12.5256 34.5424C14.096 34.5424 15.5951 34.4592 16.9663 34.308C16.2579 33.8066 15.5874 33.2417 14.9615 32.6149C14.2359 31.8911 13.592 31.1055 13.0348 30.2718Z" fill="#FE183F"/>
<path d="M12.5259 6.4257C19.0616 6.4257 24.3598 4.98726 24.3598 3.21285C24.3598 1.43844 19.0616 0 12.5259 0C5.99015 0 0.691895 1.43844 0.691895 3.21285C0.691895 4.98726 5.99015 6.4257 12.5259 6.4257Z" fill="#FE183F"/>
<path d="M41.1279 23.0302C41.006 24.5242 40.6711 25.9743 40.1362 27.3447C45.8862 27.1257 50.3097 25.7846 50.3097 24.1636V20.457C49.4708 21.732 45.8184 22.7478 41.1279 23.0302Z" fill="#FE183F"/>
<path d="M38.7682 30.0246C38.1749 30.9502 37.4778 31.8182 36.6818 32.6141C36.122 33.1739 35.527 33.6839 34.9011 34.145C36.0293 34.242 37.2296 34.2944 38.4754 34.2944C45.011 34.2944 50.3094 32.8563 50.3094 31.0815V27.375C49.3341 28.8561 44.5586 29.9877 38.7682 30.0246Z" fill="#FE183F"/>
<path d="M50.3096 17.2437C50.3096 15.5265 45.3478 14.1244 39.105 14.0352C40.2306 15.9644 40.9192 18.1195 41.1184 20.3759C46.3824 20.0505 50.3096 18.772 50.3096 17.2437Z" fill="#FE183F"/>
<path d="M25.725 34.5428C32.6183 34.5428 38.2064 28.9547 38.2064 22.0614C38.2064 15.1682 32.6183 9.58008 25.725 9.58008C18.8317 9.58008 13.2437 15.1682 13.2437 22.0614C13.2437 28.9547 18.8317 34.5428 25.725 34.5428Z" fill="#FE183F"/>
</svg>
