<svg width="20" height="20" viewBox="0 0 20 20" fill="none" xmlns="http://www.w3.org/2000/svg">
<g clip-path="url(#clip0)">
<path d="M18.7604 7.63248C18.7469 7.61697 18.7355 7.60187 18.7195 7.58676L18.0187 6.91041C18.5999 6.77857 19.2257 6.29161 19.2257 5.792C19.2257 5.20993 18.4179 5.00339 17.7285 5.00339C17.0076 5.00339 16.924 5.49729 16.9154 5.84628L15.1071 4.10295C14.7398 3.73926 14.043 3.45312 13.5222 3.45312H10.0004H9.99959H6.477C5.95657 3.45312 5.26021 3.73926 4.89244 4.10295L3.08462 5.84628C3.07523 5.49729 2.99155 5.00339 2.27152 5.00339C1.58129 5.00339 0.773909 5.20993 0.773909 5.792C0.773909 6.29161 1.40006 6.77857 1.98131 6.91041L1.28046 7.58676C1.26454 7.60187 1.25352 7.61697 1.23964 7.63248C0.489816 8.27332 0 9.46194 0 10.3244V12.8874C0 13.5095 0.245316 14.074 0.641659 14.4948V15.4887C0.641659 16.07 1.12821 16.5439 1.7266 16.5439H3.03849C3.63688 16.5439 4.12303 16.0708 4.12303 15.4887V15.2344H9.99959H10.0004H15.8766V15.4887C15.8766 16.0708 16.3623 16.5439 16.9615 16.5439H18.273C18.8718 16.5439 19.3575 16.07 19.3575 15.4887V14.4948C19.7543 14.074 19.9992 13.5095 19.9992 12.8874V10.3244C20 9.46194 19.5102 8.27332 18.7604 7.63248ZM5.55655 4.87767C5.81085 4.66583 6.25536 4.505 6.477 4.505H9.99959H10.0004H13.523C13.7446 4.505 14.1891 4.66583 14.4434 4.87767L16.8146 7.17573H10.0004H9.99959H3.18584L5.55655 4.87767ZM0.813503 9.93666C0.813503 9.30561 1.3074 8.79334 1.91722 8.79334C2.52663 8.79334 4.51814 9.96237 4.51814 10.5934C4.51814 11.2245 2.52663 11.0783 1.91722 11.0783C1.3074 11.0783 0.813503 10.5681 0.813503 9.93666ZM4.12343 14.1107H3.91322H3.70301L2.45602 14.1127C2.10988 14.005 1.86579 13.8793 1.69313 13.7442C1.60578 13.676 1.53884 13.605 1.48659 13.5344C1.43394 13.4629 1.39557 13.3927 1.37067 13.3225C1.21556 12.8841 1.53598 12.4812 1.53598 12.4812H3.66423L5.08306 14.1099L4.12343 14.1107ZM13.0601 14.1115H10.0004H9.99959H6.93988C6.30189 14.1115 5.78391 13.5935 5.78391 12.956H9.99959H10.0004H14.2161C14.2161 13.5944 13.6981 14.1115 13.0601 14.1115ZM13.3287 12.1674H10.0004H9.99959H6.67129C5.97739 12.1674 5.4141 11.3118 5.4141 10.2567H9.99959H10.0004H14.5859C14.5859 11.3122 14.0226 12.1674 13.3287 12.1674ZM18.6297 13.3233C18.6044 13.3935 18.5661 13.4637 18.5134 13.5348C18.4616 13.6054 18.3946 13.6764 18.3069 13.7446C18.1346 13.8797 17.8901 14.0062 17.544 14.1132L16.297 14.1111H16.0868H15.8766H14.9161L16.3358 12.4825H18.4636C18.4636 12.4821 18.7844 12.8841 18.6297 13.3233ZM18.0828 11.0783C17.4738 11.0783 15.4823 11.2236 15.4823 10.5934C15.4823 9.96319 17.4738 8.79334 18.0828 8.79334C18.6926 8.79334 19.1865 9.30561 19.1865 9.93666C19.1865 10.5673 18.6926 11.0783 18.0828 11.0783Z" fill="black"/>
<path d="M18.7604 7.63248C18.7469 7.61697 18.7355 7.60187 18.7195 7.58676L18.0187 6.91041C18.5999 6.77857 19.2257 6.29161 19.2257 5.792C19.2257 5.20993 18.4179 5.00339 17.7285 5.00339C17.0076 5.00339 16.924 5.49729 16.9154 5.84628L15.1071 4.10295C14.7398 3.73926 14.043 3.45312 13.5222 3.45312H10.0004H9.99959H6.477C5.95657 3.45312 5.26021 3.73926 4.89244 4.10295L3.08462 5.84628C3.07523 5.49729 2.99155 5.00339 2.27152 5.00339C1.58129 5.00339 0.773909 5.20993 0.773909 5.792C0.773909 6.29161 1.40006 6.77857 1.98131 6.91041L1.28046 7.58676C1.26454 7.60187 1.25352 7.61697 1.23964 7.63248C0.489816 8.27332 0 9.46194 0 10.3244V12.8874C0 13.5095 0.245316 14.074 0.641659 14.4948V15.4887C0.641659 16.07 1.12821 16.5439 1.7266 16.5439H3.03849C3.63688 16.5439 4.12303 16.0708 4.12303 15.4887V15.2344H9.99959H10.0004H15.8766V15.4887C15.8766 16.0708 16.3623 16.5439 16.9615 16.5439H18.273C18.8718 16.5439 19.3575 16.07 19.3575 15.4887V14.4948C19.7543 14.074 19.9992 13.5095 19.9992 12.8874V10.3244C20 9.46194 19.5102 8.27332 18.7604 7.63248ZM5.55655 4.87767C5.81085 4.66583 6.25536 4.505 6.477 4.505H9.99959H10.0004H13.523C13.7446 4.505 14.1891 4.66583 14.4434 4.87767L16.8146 7.17573H10.0004H9.99959H3.18584L5.55655 4.87767ZM0.813503 9.93666C0.813503 9.30561 1.3074 8.79334 1.91722 8.79334C2.52663 8.79334 4.51814 9.96237 4.51814 10.5934C4.51814 11.2245 2.52663 11.0783 1.91722 11.0783C1.3074 11.0783 0.813503 10.5681 0.813503 9.93666ZM4.12343 14.1107H3.91322H3.70301L2.45602 14.1127C2.10988 14.005 1.86579 13.8793 1.69313 13.7442C1.60578 13.676 1.53884 13.605 1.48659 13.5344C1.43394 13.4629 1.39557 13.3927 1.37067 13.3225C1.21556 12.8841 1.53598 12.4812 1.53598 12.4812H3.66423L5.08306 14.1099L4.12343 14.1107ZM13.0601 14.1115H10.0004H9.99959H6.93988C6.30189 14.1115 5.78391 13.5935 5.78391 12.956H9.99959H10.0004H14.2161C14.2161 13.5944 13.6981 14.1115 13.0601 14.1115ZM13.3287 12.1674H10.0004H9.99959H6.67129C5.97739 12.1674 5.4141 11.3118 5.4141 10.2567H9.99959H10.0004H14.5859C14.5859 11.3122 14.0226 12.1674 13.3287 12.1674ZM18.6297 13.3233C18.6044 13.3935 18.5661 13.4637 18.5134 13.5348C18.4616 13.6054 18.3946 13.6764 18.3069 13.7446C18.1346 13.8797 17.8901 14.0062 17.544 14.1132L16.297 14.1111H16.0868H15.8766H14.9161L16.3358 12.4825H18.4636C18.4636 12.4821 18.7844 12.8841 18.6297 13.3233ZM18.0828 11.0783C17.4738 11.0783 15.4823 11.2236 15.4823 10.5934C15.4823 9.96319 17.4738 8.79334 18.0828 8.79334C18.6926 8.79334 19.1865 9.30561 19.1865 9.93666C19.1865 10.5673 18.6926 11.0783 18.0828 11.0783Z" fill="url(#paint0_linear)"/>
</g>
<defs>
<linearGradient id="paint0_linear" x1="9.99959" y1="8.68942" x2="36.346" y2="18.1214" gradientUnits="userSpaceOnUse">
<stop stop-color="#FE173F"/>
<stop offset="1" stop-color="#240B36"/>
</linearGradient>
<clipPath id="clip0">
<rect width="19.9996" height="20" fill="white"/>
</clipPath>
</defs>
</svg>
