<svg width="33" height="60" viewBox="0 0 33 60" fill="none" xmlns="http://www.w3.org/2000/svg">
<path d="M22.728 39.8C23.3893 38.4347 24.008 37.4107 24.584 36.728H5.928V35.384H24.584C24.008 34.7013 23.3893 33.6773 22.728 32.312H23.848C25.192 33.8693 26.6 35.0213 28.072 35.768V36.344C26.6 37.0693 25.192 38.2213 23.848 39.8H22.728Z" fill="#FA183E"/>
<path d="M9.152 27.8C7.808 26.2213 6.4 25.0693 4.928 24.344V23.768C6.4 23.0213 7.808 21.8693 9.152 20.312H10.272C9.632 21.656 9.01333 22.68 8.416 23.384H27.072V24.728H8.416C9.01333 25.432 9.632 26.456 10.272 27.8H9.152Z" fill="#FA183E"/>
</svg>
