<svg width="50" height="50" viewBox="0 0 50 50" fill="none" xmlns="http://www.w3.org/2000/svg">
<g clip-path="url(#clip0)">
<path d="M31.8262 14.8438C31.0937 14.1406 30.3026 13.4374 29.4824 12.7343C29.5409 12.4414 29.5995 12.1776 29.6875 11.9141C30.83 8.7793 35.3418 6.41602 37.2166 5.77139C37.6854 5.6249 38.0663 5.21475 38.1835 4.7167C38.3008 4.24805 38.1542 3.72051 37.7733 3.36894C37.4511 3.01738 34.3163 -9.91821e-05 30.8887 -9.91821e-05C28.5156 -9.91821e-05 26.289 1.43545 25.0293 2.43144C23.7695 1.43555 21.543 -1.52584e-06 19.1699 -1.52584e-06C15.7422 -1.52584e-06 12.6074 3.01748 12.2852 3.36904C11.9044 3.72061 11.7577 4.24805 11.8751 4.7168C11.9922 5.21475 12.373 5.625 12.8419 5.77148C12.9297 5.80078 19.0528 8.13477 20.371 11.9142C20.459 12.1777 20.5468 12.4708 20.5761 12.7344C19.7558 13.4375 18.9647 14.1407 18.2323 14.8439C4.40438 27.6465 3.52528 36.2305 5.40037 41.2987C7.65623 47.4512 14.4825 50 17.6171 50H32.4415C35.547 50 42.3145 47.4219 44.5996 41.2109C46.4746 36.1425 45.5958 27.5585 31.8262 14.8438Z" fill="url(#paint0_linear)"/>
<path d="M26.4941 29.6108V23.8191C28.1782 24.2327 29.4238 25.3167 29.4238 26.5625C29.4238 27.3722 30.079 28.0274 30.8886 28.0274C31.6983 28.0274 32.3535 27.3722 32.3535 26.5625C32.3535 23.7324 29.8331 21.366 26.4941 20.8217V19.2383C26.4941 18.4286 25.8389 17.7734 25.0293 17.7734C24.2196 17.7734 23.5644 18.4286 23.5644 19.2383V20.8217C20.2255 21.366 17.7051 23.7324 17.7051 26.5625C17.7051 29.3926 20.2255 31.759 23.5644 32.3033V38.0949C21.8804 37.6814 20.6348 36.5974 20.6348 35.3516C20.6348 34.5419 19.9796 33.8867 19.1699 33.8867C18.3603 33.8867 17.7051 34.5419 17.7051 35.3516C17.7051 38.1817 20.2255 40.5481 23.5644 41.0924V42.6758C23.5644 43.4855 24.2196 44.1406 25.0293 44.1406C25.8389 44.1406 26.4941 43.4855 26.4941 42.6758V41.0924C29.8331 40.5481 32.3535 38.1817 32.3535 35.3516C32.3535 32.5215 29.8331 30.1551 26.4941 29.6108ZM20.6348 26.5625C20.6348 25.3167 21.8804 24.2327 23.5644 23.8191V29.3059C21.8804 28.8923 20.6348 27.8083 20.6348 26.5625ZM26.4941 38.0949V32.6082C28.1782 33.0218 29.4238 34.1058 29.4238 35.3516C29.4238 36.5974 28.1782 37.6814 26.4941 38.0949Z" fill="url(#paint1_linear)"/>
</g>
<defs>
<linearGradient id="paint0_linear" x1="25.0004" y1="50" x2="25.0004" y2="-3.81467e-06" gradientUnits="userSpaceOnUse">
<stop stop-color="#FD5900"/>
<stop offset="1" stop-color="#FFDE00"/>
</linearGradient>
<linearGradient id="paint1_linear" x1="25.0293" y1="44.1406" x2="25.0293" y2="17.7734" gradientUnits="userSpaceOnUse">
<stop stop-color="#FFEDAD"/>
<stop offset="1" stop-color="#FFFFE5"/>
</linearGradient>
<clipPath id="clip0">
<rect width="50" height="50" fill="white"/>
</clipPath>
</defs>
</svg>
