<svg width="22" height="16" viewBox="0 0 22 16" fill="none" xmlns="http://www.w3.org/2000/svg">
<path d="M0 16H11.1826L11.7965 12.4568H6.31486C9.16532 10.6518 12.3447 7.95543 12.9148 4.7688C13.3314 2.29526 12.2789 0 8.46367 0C5.50358 0 2.56541 1.67131 1.71028 5.81616H5.87633C6.1833 4.25627 6.68762 3.67688 7.52083 3.67688C8.28826 3.67688 8.63908 4.12256 8.46367 5.16992C8.06899 7.42061 4.27569 10.117 0.570092 12.7242L0 16Z" fill="white"/>
<path d="M17.0212 16H19.8178L17.9237 12.5686L21 9H18.2669L16.9195 10.7594L15.9534 9H13.1568L15.0127 12.369L12 16H14.7203L16.0551 14.2406L17.0212 16Z" fill="white"/>
<path fill-rule="evenodd" clip-rule="evenodd" d="M21.9999 4.07803C21.9999 4.55584 21.6126 4.94317 21.1348 4.94317H14.708C14.2302 4.94317 13.8429 4.55584 13.8429 4.07803V4.07803C13.8429 3.60023 14.2302 3.21289 14.708 3.21289H21.1348C21.6126 3.21289 21.9999 3.60023 21.9999 4.07803V4.07803Z" fill="white"/>
<path fill-rule="evenodd" clip-rule="evenodd" d="M18.415 6.79678C18.415 7.27459 18.0276 7.66192 17.5498 7.66192H13.8421C13.3643 7.66192 12.9769 7.27459 12.9769 6.79678V6.79678C12.9769 6.31898 13.3643 5.93164 13.8421 5.93164H17.5498C18.0276 5.93164 18.415 6.31898 18.415 6.79678V6.79678Z" fill="white"/>
<path fill-rule="evenodd" clip-rule="evenodd" d="M18.415 1.35928C18.415 1.83709 18.0276 2.22442 17.5498 2.22442H13.8421C13.3643 2.22442 12.9769 1.83709 12.9769 1.35928V1.35928C12.9769 0.881478 13.3643 0.494141 13.8421 0.494141H17.5498C18.0276 0.494141 18.415 0.881478 18.415 1.35928V1.35928Z" fill="white"/>
</svg>
