<svg width="20" height="20" viewBox="0 0 20 20" fill="none" xmlns="http://www.w3.org/2000/svg">
<path d="M16.088 10.5808C14.7266 10.1364 13.0887 10.017 11.8629 10.0018V9.99824C13.0887 9.98301 14.7266 9.86363 16.088 9.41918C16.7443 9.27465 17.3992 8.92387 17.9453 8.37774C19.2516 7.07141 19.4396 5.14141 18.365 4.06688C17.905 3.6068 17.288 3.37816 16.6303 3.36969C16.6218 2.71203 16.3932 2.09504 15.9331 1.63496C14.8586 0.56043 12.9286 0.74836 11.6223 2.05469C11.0761 2.60078 10.7255 3.25594 10.5808 3.91199C10.1364 5.27344 10.017 6.91133 10.0018 8.13707H9.99824C9.98301 6.91133 9.86363 5.27336 9.41918 3.91199C9.27465 3.25574 8.92387 2.60078 8.37774 2.05469C7.07145 0.74836 5.14141 0.56043 4.06688 1.63496C3.6068 2.09504 3.37816 2.71203 3.36969 3.36969C2.71199 3.37816 2.09504 3.6068 1.63496 4.06688C0.56043 5.14141 0.74836 7.07141 2.05469 8.37774C2.60082 8.92387 3.25594 9.27449 3.91199 9.41918C5.27344 9.86363 6.91133 9.98301 8.13707 9.99824V10.0018C6.91133 10.017 5.2734 10.1364 3.91199 10.5808C3.25574 10.7254 2.60082 11.0761 2.05469 11.6223C0.74836 12.9286 0.56043 14.8586 1.63496 15.9331C2.09504 16.3932 2.71199 16.6218 3.36969 16.6303C3.37816 17.288 3.6068 17.905 4.06688 18.365C5.14141 19.4396 7.07145 19.2518 8.37774 17.9453C8.92387 17.3992 9.27453 16.7441 9.41918 16.088C9.86363 14.7266 9.98301 13.0887 9.99824 11.8629H10.0018C10.017 13.0887 10.1364 14.7266 10.5808 16.088C10.7254 16.7443 11.0761 17.3992 11.6223 17.9453C12.9286 19.2516 14.8586 19.4396 15.9331 18.365C16.3932 17.905 16.6218 17.288 16.6303 16.6303C17.288 16.6218 17.905 16.3932 18.365 15.9331C19.4396 14.8586 19.2518 12.9286 17.9453 11.6223C17.3992 11.0761 16.7441 10.7255 16.088 10.5808Z" fill="#8AC563"/>
<path d="M14.8704 10.4665C13.7813 10.1111 12.4709 10.0155 11.4903 10.0033V10.0005C12.4708 9.98831 13.7813 9.8928 14.8704 9.53725C15.4348 9.40627 15.9501 9.11728 16.3562 8.70409C17.4013 7.65905 17.5516 6.11502 16.6922 5.25541C16.3241 4.88733 15.8305 4.70444 15.3044 4.69768C15.2976 4.17151 15.1147 3.67791 14.7466 3.30987C13.887 2.45026 12.343 2.60057 11.298 3.64581C10.8848 4.05181 10.5959 4.56706 10.4648 5.13127C10.1094 6.22041 10.0138 7.53077 10.0016 8.51135H9.99878C9.9866 7.53088 9.89109 6.22041 9.53554 5.13127C9.40451 4.5669 9.11545 4.05153 8.70218 3.64545C7.65714 2.60038 6.11312 2.45014 5.25351 3.30952C4.88542 3.67756 4.70253 4.17116 4.69574 4.69733C4.1696 4.70409 3.67601 4.88698 3.30796 5.25506C2.44835 6.11467 2.59867 7.6587 3.6439 8.70374C4.05 9.11693 4.56537 9.40592 5.12972 9.5369C6.21886 9.89237 7.52921 9.98795 8.5098 10.0001V10.003C7.52933 10.0151 6.21886 10.1106 5.12972 10.4662C4.5653 10.5972 4.04986 10.8862 3.64374 11.2995C2.59867 12.3446 2.44843 13.8886 3.30781 14.7482C3.67585 15.1163 4.16945 15.2992 4.69558 15.3059C4.70238 15.8321 4.88527 16.3255 5.25335 16.6937C6.11296 17.5533 7.65699 17.403 8.70203 16.3578C9.11522 15.9517 9.40421 15.4363 9.53519 14.872C9.89066 13.7828 9.98624 12.4725 9.99843 11.4919H10.0012C10.0134 12.4724 10.1089 13.7828 10.4645 14.872C10.5955 15.4363 10.8845 15.9517 11.2977 16.3578C12.3427 17.4029 13.8867 17.5531 14.7463 16.6937C15.1144 16.3257 15.2973 15.8321 15.3041 15.3059C15.8302 15.2992 16.3238 15.1163 16.6919 14.7482C17.5515 13.8886 17.4012 12.3446 16.3559 11.2995C15.9499 10.8864 15.4346 10.5975 14.8704 10.4665Z" fill="#96C576"/>
<path d="M1.66194 7.34854C1.04812 6.24826 1.12616 5.01858 1.85616 4.28861C2.2446 3.90014 2.76948 3.69072 3.37394 3.68295C3.45547 3.68194 3.53337 3.6491 3.59102 3.59145C3.64868 3.53379 3.68152 3.45589 3.68253 3.37436C3.69034 2.76983 3.89976 2.24498 4.28823 1.85651C4.74058 1.40416 5.38589 1.19369 6.10542 1.26362C6.84761 1.33592 7.57636 1.69553 8.15706 2.27623C8.64534 2.76451 8.97624 3.35346 9.11433 3.9799C9.11655 3.9899 9.11925 3.99983 9.12245 4.00959C9.56265 5.35787 9.67194 7.00076 9.68612 8.14155C9.68742 8.22402 9.7211 8.30268 9.77989 8.36055C9.83867 8.41842 9.91785 8.45085 10.0003 8.45085C10.0828 8.45085 10.162 8.41842 10.2208 8.36055C10.2796 8.30268 10.3133 8.22402 10.3146 8.14155C10.3287 7.00092 10.438 5.35787 10.8782 4.00959C10.8814 3.99983 10.8841 3.99006 10.8864 3.9799C11.0244 3.35346 11.3555 2.76436 11.8436 2.27623C12.4243 1.69553 13.1529 1.33592 13.8953 1.26362C14.6149 1.19365 15.2601 1.40424 15.7125 1.85651C16.1009 2.24498 16.3104 2.76983 16.3182 3.37436C16.3192 3.45589 16.352 3.53379 16.4097 3.59145C16.4673 3.6491 16.5452 3.68194 16.6267 3.68295C17.2312 3.69076 17.7561 3.90014 18.1445 4.28861C19.0955 5.23955 18.9072 6.97514 17.7248 8.15752C17.2365 8.6458 16.6476 8.97662 16.0212 9.11475C16.0112 9.11697 16.0012 9.11967 15.9915 9.12287C14.6431 9.56311 13.0003 9.67237 11.8595 9.68651C11.777 9.68781 11.6984 9.72149 11.6405 9.78028C11.5826 9.83907 11.5502 9.91827 11.5502 10.0008C11.5502 10.0833 11.5826 10.1625 11.6405 10.2212C11.6984 10.28 11.777 10.3137 11.8595 10.315C13.0001 10.3292 14.6431 10.4384 15.9915 10.8787C16.0012 10.8819 16.011 10.8846 16.0212 10.8868C16.6476 11.0249 17.2367 11.3559 17.7248 11.8438C17.9658 12.084 18.1723 12.3564 18.3385 12.6532L18.8843 12.3488C18.6899 12.0017 18.4484 11.6831 18.1666 11.4023C17.5979 10.8337 16.9081 10.4458 16.1708 10.2801C15.8167 10.1668 15.4565 10.0736 15.0919 10.0009C15.4565 9.92824 15.8167 9.83507 16.1708 9.72182C16.9081 9.55604 17.5979 9.16822 18.1666 8.59959C19.5926 7.17354 19.7809 5.04143 18.5863 3.84682C18.1519 3.41248 17.5704 3.14401 16.9257 3.07537C16.8571 2.43084 16.5886 1.84916 16.1543 1.41487C15.5674 0.827873 14.7436 0.553459 13.8346 0.641857C12.9485 0.728146 12.0844 1.1517 11.4015 1.83459C10.8328 2.40322 10.4451 3.09303 10.2793 3.83037C10.166 4.18441 10.0728 4.54457 10.0002 4.90912C9.92761 4.54457 9.83444 4.18441 9.72116 3.83037C9.55538 3.09303 9.16761 2.40322 8.59894 1.83459C7.91608 1.1517 7.05206 0.728146 6.16589 0.641857C5.25714 0.553459 4.43312 0.827834 3.84612 1.41494C3.41187 1.84916 3.14335 2.43057 3.07472 3.07537C2.43019 3.14401 1.84851 3.41248 1.41417 3.84682C0.484483 4.77651 0.364678 6.30619 1.11612 7.65311L1.66194 7.34854Z" fill="black"/>
<path d="M19.1856 13.0259L18.593 13.2246C18.9138 14.1811 18.7463 15.1113 18.1451 15.7124C17.7566 16.1008 17.2318 16.3103 16.6273 16.3179C16.5457 16.3189 16.4678 16.3517 16.4102 16.4094C16.3525 16.467 16.3197 16.5449 16.3187 16.6264C16.3109 17.2309 16.1014 17.7558 15.713 18.1443C15.2606 18.5966 14.6153 18.8072 13.8958 18.7371C13.1536 18.6648 12.4248 18.3052 11.8441 17.7245C11.3558 17.2362 11.025 16.6473 10.8871 16.0209C10.8848 16.0109 10.8821 16.001 10.8789 15.9912C10.4387 14.6429 10.3294 13 10.3153 11.8592C10.314 11.7767 10.2803 11.6981 10.2215 11.6402C10.1627 11.5823 10.0835 11.5499 10.001 11.5499C9.91856 11.5499 9.83938 11.5823 9.78059 11.6402C9.72181 11.6981 9.68813 11.7767 9.68683 11.8592C9.67265 12.9998 9.56335 14.6429 9.12316 15.9912C9.11996 16.001 9.11725 16.0109 9.11503 16.0209C8.97691 16.6473 8.64593 17.2364 8.15777 17.7245C7.57706 18.3052 6.84847 18.6648 6.10613 18.7371C5.3866 18.8071 4.74128 18.5965 4.28894 18.1443C3.90046 17.7558 3.69101 17.2309 3.68324 16.6264C3.68222 16.5449 3.64939 16.467 3.59173 16.4094C3.53408 16.3517 3.45617 16.3189 3.37464 16.3179C2.77019 16.31 2.24531 16.1006 1.85687 15.7124C0.905932 14.7614 1.09421 13.0259 2.2766 11.8435C2.76468 11.3552 3.35378 11.0244 3.98019 10.8864C3.99023 10.8842 4.00015 10.8815 4.00988 10.8783C5.35831 10.4381 7.00113 10.3288 8.14187 10.3147C8.22436 10.3134 8.30303 10.2797 8.3609 10.2209C8.41877 10.1621 8.45121 10.0829 8.45121 10.0004C8.45121 9.91793 8.41877 9.83874 8.3609 9.77995C8.30303 9.72115 8.22436 9.68747 8.14187 9.68617C7.00124 9.67203 5.35831 9.56277 4.00988 9.12254C4.00015 9.11934 3.99035 9.11664 3.98019 9.11441C3.35378 8.97629 2.76468 8.64531 2.2766 8.15738C2.20175 8.0825 2.12945 8.00395 2.06175 7.92383L1.58445 8.32734C1.66335 8.42066 1.74749 8.51215 1.83445 8.5993C2.40308 9.16793 3.09292 9.55574 3.83023 9.72152C4.18438 9.83469 4.54464 9.92774 4.90929 10.0002C4.54471 10.0729 4.18453 10.166 3.83046 10.2793C3.09316 10.4451 2.40331 10.8329 1.83468 11.4015C0.408666 12.8276 0.220346 14.9597 1.41507 16.1543C1.84937 16.5886 2.43097 16.8571 3.07562 16.9257C3.14425 17.5703 3.41277 18.152 3.84703 18.5863C4.43398 19.1732 5.25785 19.4477 6.16679 19.3593C7.05289 19.273 7.91679 18.8494 8.59984 18.1665C9.16851 17.5979 9.55628 16.908 9.72206 16.1707C9.8353 15.8167 9.92843 15.4565 10.001 15.092C10.0736 15.4565 10.1668 15.8167 10.2801 16.1707C10.4459 16.908 10.8336 17.5979 11.4023 18.1665C12.0851 18.8494 12.9492 19.273 13.8353 19.3593C13.9471 19.3701 14.0575 19.3756 14.1665 19.3755C14.9432 19.3755 15.6403 19.1011 16.1551 18.5863C16.5894 18.152 16.8579 17.5704 16.9265 16.9257C17.571 16.8571 18.1528 16.5886 18.5871 16.1543C19.3481 15.3932 19.5775 14.1945 19.1856 13.0259Z" fill="black"/>
</svg>
