<svg width="24" height="24" viewBox="0 0 24 24" fill="none" xmlns="http://www.w3.org/2000/svg">
<path d="M20.0613 12.7691C18.2586 12.1805 16.0898 12.0225 14.4667 12.0023V11.9976C16.0898 11.9775 18.2586 11.8194 20.0613 11.2309C20.9303 11.0395 21.7975 10.575 22.5206 9.85188C24.2504 8.12212 24.4992 5.56654 23.0764 4.14372C22.4672 3.53451 21.6503 3.23177 20.7794 3.22055C20.7682 2.34972 20.4654 1.53274 19.8562 0.923533C18.4334 -0.499291 15.8778 -0.250447 14.1481 1.47931C13.4249 2.20241 12.9606 3.06993 12.7691 3.93863C12.1805 5.74137 12.0225 7.91016 12.0023 9.53321H11.9976C11.9775 7.91016 11.8194 5.74126 11.2309 3.93863C11.0395 3.06967 10.575 2.20241 9.85188 1.47931C8.12217 -0.250447 5.56654 -0.499291 4.14372 0.923533C3.53451 1.53274 3.23177 2.34972 3.22055 3.22055C2.34967 3.23177 1.53274 3.53451 0.923533 4.14372C-0.499291 5.56654 -0.250447 8.12212 1.47931 9.85188C2.20246 10.575 3.06993 11.0393 3.93863 11.2309C5.74137 11.8194 7.91016 11.9775 9.53321 11.9976V12.0023C7.91016 12.0225 5.74132 12.1805 3.93863 12.7691C3.06967 12.9604 2.20246 13.4249 1.47931 14.1481C-0.250447 15.8778 -0.499291 18.4334 0.923533 19.8562C1.53274 20.4654 2.34967 20.7682 3.22055 20.7794C3.23177 21.6503 3.53451 22.4672 4.14372 23.0764C5.56654 24.4992 8.12217 24.2506 9.85188 22.5206C10.575 21.7975 11.0394 20.93 11.2309 20.0613C11.8194 18.2586 11.9775 16.0898 11.9976 14.4667H12.0023C12.0225 16.0898 12.1805 18.2587 12.7691 20.0613C12.9604 20.9303 13.4249 21.7975 14.1481 22.5206C15.8778 24.2504 18.4334 24.4992 19.8562 23.0764C20.4654 22.4672 20.7682 21.6503 20.7794 20.7794C21.6503 20.7682 22.4672 20.4654 23.0764 19.8562C24.4992 18.4334 24.2506 15.8778 22.5206 14.1481C21.7975 13.4249 20.93 12.9606 20.0613 12.7691Z" fill="#01E1F9"/>
</svg>
