<svg width="12" height="13" viewBox="0 0 12 13" fill="none" xmlns="http://www.w3.org/2000/svg">
<path d="M2.71119 12.704C2.71119 12.5653 2.68452 12.496 2.63119 12.496L2.26319 12.672C2.26319 12.5973 2.22052 12.544 2.13519 12.512L2.00719 12.496C1.92185 12.496 1.81519 12.5333 1.68719 12.608C1.66585 12.5547 1.63919 12.5013 1.60719 12.448C1.57519 12.3947 1.54852 12.3467 1.52719 12.304C1.38852 12.0373 1.24985 11.744 1.11119 11.424C0.983188 11.0933 0.860521 10.7787 0.743188 10.48C0.636521 10.1813 0.551188 9.94667 0.487188 9.776C0.444521 9.63733 0.396521 9.42933 0.343188 9.152C0.289854 8.87467 0.236521 8.52267 0.183188 8.096C0.300521 8.17067 0.391188 8.208 0.455188 8.208C0.529854 8.208 0.599188 8.096 0.663188 7.872C0.695188 7.91467 0.753854 7.936 0.839188 7.936C0.903188 7.936 0.951188 7.91467 0.983188 7.872L1.23919 7.488L1.52719 7.584H1.54319C1.56452 7.584 1.58585 7.57333 1.60719 7.552C1.62852 7.53067 1.66052 7.50933 1.70319 7.488C1.78852 7.43467 1.85252 7.408 1.89519 7.408L1.94319 7.424C2.20985 7.552 2.38052 7.78667 2.45519 8.128C2.64719 8.93867 2.83919 9.344 3.03119 9.344C3.22319 9.344 3.44719 9.14133 3.70319 8.736C3.83119 8.53333 3.95919 8.29867 4.08719 8.032C4.22585 7.76533 4.36452 7.46667 4.50319 7.136C4.52452 7.264 4.54585 7.328 4.56719 7.328C4.62052 7.328 4.71119 7.19467 4.83919 6.928C4.97785 6.66133 5.19652 6.29333 5.49519 5.824C5.66585 5.536 5.87919 5.21067 6.13519 4.848C6.40185 4.48533 6.68452 4.112 6.98319 3.728C7.28185 3.344 7.56985 2.98133 7.84719 2.64C8.13519 2.29867 8.39119 2.00533 8.61519 1.76C8.83919 1.51467 9.00452 1.35467 9.11119 1.28C9.51652 1.00267 9.83652 0.735999 10.0712 0.48C10.0605 0.554666 10.0445 0.623999 10.0232 0.688C10.0125 0.741333 10.0072 0.778666 10.0072 0.799999C10.0072 0.842666 10.0285 0.863999 10.0712 0.863999L10.5192 0.639999V0.704C10.5192 0.789333 10.5405 0.832 10.5832 0.832C10.6152 0.832 10.6792 0.784 10.7752 0.688C10.8712 0.592 10.9245 0.522666 10.9352 0.48L10.9032 0.704L11.4472 0.384L11.3192 0.672C11.4899 0.554666 11.6125 0.495999 11.6872 0.495999C11.7299 0.495999 11.7619 0.522666 11.7832 0.575999C11.8045 0.618666 11.8152 0.661333 11.8152 0.704C11.8152 0.767999 11.7885 0.842666 11.7352 0.927999C11.6819 1.01333 11.6125 1.11467 11.5272 1.232C11.4632 1.31733 11.3565 1.44533 11.2072 1.616C11.0685 1.776 10.8552 2.016 10.5672 2.336C10.2792 2.64533 9.89519 3.07733 9.41519 3.632C9.28719 3.77067 9.08985 4.016 8.82319 4.368C8.55652 4.70933 8.25252 5.10933 7.91119 5.568C7.58052 6.016 7.24985 6.46933 6.91919 6.928C6.58852 7.38667 6.29519 7.80267 6.03919 8.176C5.78319 8.53867 5.60185 8.81067 5.49519 8.992L4.50319 10.672C4.28985 11.0347 4.11385 11.3333 3.97519 11.568C3.83652 11.792 3.72985 11.9467 3.65519 12.032C3.49519 12.224 3.31919 12.3947 3.12719 12.544L2.98319 12.464L2.85519 12.544L2.71119 12.704Z" fill="#84C319"/>
</svg>
