<svg width="22" height="32" viewBox="0 0 22 32" fill="none" xmlns="http://www.w3.org/2000/svg">
<path d="M18.66 10.7413C18.66 13.3986 16.6461 14.4661 16.6461 14.4661C16.6461 14.4661 17.8318 5.38901 8.50661 0C8.80004 10.9854 0 12.0883 0 21.3899C0 26.227 3.04401 30.3437 7.29773 31.8833C7.37694 31.9119 7.45656 31.9401 7.5366 31.9669C5.73961 30.8124 4.54673 28.7795 4.54673 26.4646C4.54673 24.6293 5.07081 22.4742 6.49876 20.2409C6.14783 23.9151 8.67892 24.7351 8.67892 24.7351C8.67892 24.7351 7.30216 17.9317 12.361 13.9629C12.406 20.2372 17.405 21.0283 17.405 26.4646C17.405 28.8019 16.1892 30.8514 14.3631 32C14.4788 31.9625 14.5934 31.9226 14.7075 31.8812C18.9585 30.3401 22.0002 26.2249 22.0002 21.3899C22 18.2498 20.9796 14.5626 18.66 10.7413Z" fill="#FE183F"/>
</svg>
