<svg width="30" height="30" viewBox="0 0 30 30" fill="none" xmlns="http://www.w3.org/2000/svg">
<path d="M21.8853 9.59764C21.2601 8.91508 20.2881 7.99381 19.8747 10.074C19.734 10.7813 19.4055 11.3265 19.1239 11.7655C18.8205 10.2296 17.9075 8.63993 17.0472 7.56807C16.7253 7.16706 15.5831 5.5729 15.3636 2.90594C15.3309 2.50791 14.8581 2.321 14.5624 2.58948C11.7363 5.15495 10.1851 8.68334 10.1275 12.6556C10.1275 12.6556 8.95067 11.6637 8.31135 9.81831C8.1392 9.32137 7.47299 9.22657 7.18395 9.66596C7.12846 9.75034 7.07701 9.83483 7.03061 9.91686C4.85016 13.7723 3.80127 18.4543 4.77094 22.8101C6.39223 30.1049 17.1169 32.1443 22.7946 27.5594C28.3495 23.0737 26.5838 14.7247 21.8853 9.59764Z" fill="#ED694A"/>
<path d="M6.28002 23.2676C5.3216 18.8652 6.33609 14.1377 8.46533 10.2218C8.41149 10.0919 8.35969 9.95758 8.31129 9.8179C8.13914 9.32096 7.47293 9.22616 7.18389 9.66555C7.1284 9.74993 7.07701 9.83442 7.03061 9.91645C4.85016 13.7719 3.80127 18.4539 4.77094 22.8097C5.51045 26.137 8.14412 28.3703 11.3288 29.3809C8.84438 28.1775 6.89883 26.1145 6.28002 23.2676Z" fill="#D8553A"/>
<path d="M11.6435 12.5826C11.7612 8.97751 13.0652 5.7449 15.399 3.26158C15.3829 3.12482 15.371 3.00253 15.3634 2.90972C15.3299 2.5083 14.8744 2.30697 14.58 2.5731C11.8504 5.04095 10.1867 8.53367 10.127 12.6556L10.6378 13.0524C10.8894 13.2478 11.2303 13.2393 11.4706 13.0603C11.614 12.9387 11.6346 12.7553 11.6435 12.5826Z" fill="#D8553A"/>
<path d="M20.1705 14.93C19.7088 14.4259 18.9909 13.7454 18.6855 15.2819C18.5816 15.8042 18.3389 16.207 18.1311 16.5313C17.9069 15.3968 17.2325 14.2226 16.5971 13.4309C16.3594 13.1348 15.5157 11.9573 15.3536 9.98734C15.3294 9.69331 14.9802 9.55532 14.7618 9.7536C12.6744 11.6485 11.5286 14.2547 11.4861 17.1886C11.4861 17.1886 10.6169 16.456 10.1447 15.093C10.0176 14.7259 9.52545 14.6559 9.31199 14.9805C9.27103 15.0427 9.23301 15.1052 9.19873 15.1658C7.58816 18.0135 6.81344 21.4717 7.52963 24.689C8.72717 30.0771 16.6486 31.5835 20.8422 28.1969C24.9452 24.8837 23.641 18.717 20.1705 14.93Z" fill="#F4A32C"/>
<path d="M9.02227 25.1126C8.38816 21.9675 9.04494 18.5928 10.4374 15.7826C10.3313 15.5749 10.2308 15.3452 10.1437 15.0939C10.0165 14.7269 9.52441 14.6568 9.31096 14.9814C9.27 15.0436 9.23197 15.1061 9.1977 15.1668C7.58719 18.0145 6.81252 21.4726 7.52859 24.6899C8.08559 27.1959 10.0972 28.8616 12.5115 29.5865C10.7961 28.7262 9.44555 27.2149 9.02227 25.1126Z" fill="#E89528"/>
<path d="M18.6058 19.7986C18.2932 19.4574 17.8071 18.9966 17.6004 20.0368C17.5301 20.3905 17.3658 20.663 17.225 20.8825C17.0733 20.1146 16.6168 19.3197 16.1866 18.7838C16.0257 18.5833 15.4546 17.7863 15.3448 16.4527C15.3284 16.2537 15.0921 16.1602 14.9442 16.2945C13.5312 17.5773 12.7556 19.3415 12.7268 21.3276C12.7268 21.3276 12.1383 20.8316 11.8188 19.9089C11.7327 19.6605 11.3996 19.6131 11.2551 19.8328C11.2273 19.8749 11.2017 19.9172 11.1784 19.9582C10.0882 21.886 9.56373 24.2269 10.0485 26.4049C10.8592 30.0523 16.2215 31.072 19.0603 28.7795C20.0325 27.9945 20.6352 26.8883 20.7574 25.6647C20.9419 23.8113 20.2287 21.5696 18.6058 19.7986Z" fill="#F4D44E"/>
<path d="M17.1526 24.316C16.9785 24.1259 16.7077 23.8693 16.5925 24.4487C16.5534 24.6458 16.4618 24.7976 16.3834 24.9199C16.2988 24.4921 16.0445 24.0492 15.8049 23.7507C15.7152 23.6389 15.397 23.1949 15.3358 22.4519C15.3267 22.341 15.195 22.2891 15.1126 22.3638C14.3254 23.0784 13.8933 24.0613 13.8773 25.1678C13.8773 25.1678 13.5494 24.8915 13.3714 24.3775C13.3234 24.239 13.1378 24.2126 13.0574 24.335C13.0419 24.3585 13.0276 24.3821 13.0147 24.4049C12.4073 25.479 12.1151 26.7831 12.3852 27.9966C13.0003 30.764 18.0422 30.6801 18.3515 27.5841C18.4541 26.5516 18.0568 25.3026 17.1526 24.316Z" fill="#EAE9E8"/>
<path d="M13.5568 28.5459C13.2867 27.4605 13.5789 26.2938 14.1863 25.3331C14.1992 25.3127 14.2136 25.2916 14.229 25.2706C14.3095 25.1611 14.495 25.1847 14.543 25.3085C14.721 25.7684 15.0489 26.0156 15.0489 26.0156C15.0621 25.2023 15.3567 24.464 15.8978 23.8719C15.7768 23.7043 15.4066 23.3002 15.3368 22.4522C15.3277 22.3413 15.1959 22.2893 15.1136 22.364C14.3264 23.0787 13.8942 24.0616 13.8782 25.1681C13.8782 25.1681 13.5504 24.8917 13.3723 24.3778C13.3244 24.2393 13.1388 24.2129 13.0583 24.3353C13.0429 24.3588 13.0286 24.3824 13.0157 24.4052C12.4083 25.4792 12.1161 26.7834 12.3862 27.9969C12.6362 29.1216 13.6631 29.7975 14.7984 29.9606C14.186 29.6599 13.7153 29.1836 13.5568 28.5459Z" fill="#F7E7A1"/>
<path d="M10.8165 3.98701C12.0836 2.95641 12.0808 1.02826 10.8165 0C9.54938 1.03055 9.55214 2.95875 10.8165 3.98701Z" fill="#D8553A"/>
<path d="M26.0038 12.2587C27.2708 11.2281 27.268 9.29999 26.0038 8.27173C25.4246 8.7427 24.7395 11.2305 26.0038 12.2587Z" fill="#D8553A"/>
<path d="M3.56126 13.0433C4.47444 12.3005 4.47245 10.911 3.56126 10.1698C3.14389 10.5092 2.65006 12.3022 3.56126 13.0433Z" fill="#D8553A"/>
<path d="M19.3765 6.86104C20.2897 6.11825 20.2877 4.7287 19.3765 3.98755C18.4633 4.73028 18.4654 6.11995 19.3765 6.86104Z" fill="#D8553A"/>
<path d="M12.6515 16.7176C12.8612 14.2419 13.8066 12.0406 15.394 10.3625C15.3779 10.2408 15.3644 10.116 15.3539 9.98758C15.3297 9.69356 14.9805 9.55557 14.7621 9.75385C13.108 11.2554 12.0464 13.204 11.6553 15.408L11.6547 15.4078C11.6257 15.5713 11.5897 15.8094 11.567 15.9965C11.5671 15.9967 11.5671 15.9968 11.5672 15.9969C11.5197 16.3874 11.4922 16.7849 11.4863 17.1889C11.5305 17.1975 12.5306 17.7116 12.6515 16.7176Z" fill="#E89528"/>
<path d="M11.5098 26.9219C11.0788 24.8873 11.4459 22.7175 12.2985 20.8376C12.1334 20.6059 11.9526 20.2948 11.8188 19.9086C11.7327 19.6601 11.3996 19.6127 11.2551 19.8324C11.2274 19.8745 11.2016 19.9168 11.1784 19.9578C10.0882 21.8856 9.56373 24.2265 10.0485 26.4045C10.4282 28.1126 11.8062 29.2444 13.4556 29.7296C12.4955 29.0923 11.7693 28.1488 11.5098 26.9219Z" fill="#E8C842"/>
<path d="M14.2821 20.4385C14.4249 19.4175 14.8425 18.2925 15.4999 17.352C15.4283 17.0865 15.372 16.7864 15.3445 16.4527C15.3281 16.2537 15.0917 16.1602 14.9439 16.2945C14.0634 17.0938 13.4315 18.0804 13.0725 19.1907L13.0716 19.1905C13.0151 19.3649 12.9352 19.6539 12.8868 19.882C12.8872 19.8819 12.8876 19.8819 12.888 19.8817C12.7889 20.3472 12.7338 20.8302 12.7266 21.3275C13.5171 21.4262 14.1711 21.2304 14.2821 20.4385Z" fill="#E8C842"/>
</svg>
