<svg width="40" height="40" viewBox="0 0 40 40" fill="none" xmlns="http://www.w3.org/2000/svg">
<g clip-path="url(#clip0)">
<path d="M35.1171 18.6719C35.1171 16.9531 33.7187 15.5547 31.9999 15.5547C31.3046 15.5547 30.6562 15.7891 30.1327 16.1797V15.7031C30.1327 13.9844 28.7343 12.586 27.0155 12.586C26.3202 12.586 25.6718 12.8203 25.1483 13.211V12.3203C25.1483 10.6016 23.7499 9.20315 22.0312 9.20315C21.3358 9.20315 20.6874 9.43752 20.164 9.82815V3.82034C20.164 2.10159 18.7655 0.703155 17.0468 0.703155C15.328 0.703155 13.9296 2.10159 13.9296 3.82034V17.211C12.3515 17.3438 11.1562 18.3906 10.539 20.2109C9.37491 23.625 10.5546 29.2969 13.8671 31.7812C15.7733 33.2109 16.4218 34.2422 16.578 34.5391V39.3828C16.578 39.7266 16.8593 40.0078 17.203 40.0078H29.8202C30.164 40.0078 30.4452 39.7266 30.4452 39.3828C30.4452 38.1094 30.414 37.1875 30.3905 36.5078C30.3202 34.5391 30.3202 34.5391 31.5546 32.4844C31.8202 32.0391 32.1483 31.4922 32.539 30.8203C34.7733 27 35.1015 21.8828 35.1171 21.6641C35.1171 21.6563 35.1171 21.6484 35.1171 21.6484C35.1171 21.6406 35.1171 21.6328 35.1171 21.6328V18.6719ZM31.4608 30.1797C31.0702 30.8438 30.7421 31.3906 30.4843 31.8281C29.0937 34.1406 29.0624 34.2734 29.1405 36.5469C29.164 37.0937 29.1874 37.8125 29.1952 38.75H17.828V34.3906C17.828 34.3125 17.8124 34.2422 17.789 34.1719C17.7343 34.0234 17.1796 32.6953 14.6171 30.7734C11.7655 28.6328 10.7187 23.5547 11.7187 20.6094C12.0312 19.6953 12.664 18.6328 13.9296 18.4688V23.2266C13.9296 23.5703 14.2108 23.8516 14.5546 23.8516C14.8983 23.8516 15.1796 23.5703 15.1796 23.2266V3.82034C15.1796 2.78909 16.0155 1.95315 17.0468 1.95315C18.078 1.95315 18.914 2.78909 18.914 3.82034V12.3125V20.5469V21.6172C18.914 21.9609 19.1952 22.2422 19.539 22.2422C19.8827 22.2422 20.164 21.9609 20.164 21.6172V20.5469V12.3125C20.164 11.2813 20.9999 10.4453 22.0312 10.4453C23.0624 10.4453 23.8983 11.2813 23.8983 12.3125V15.7031V21.625C23.8983 21.9688 24.1796 22.25 24.5233 22.25C24.8671 22.25 25.1483 21.9688 25.1483 21.625V15.7031C25.1483 14.6719 25.9843 13.836 27.0155 13.836C28.0468 13.836 28.8827 14.6719 28.8827 15.7031V18.6719V21.6172C28.8827 21.9609 29.164 22.2422 29.5077 22.2422C29.8515 22.2422 30.1327 21.9609 30.1327 21.6172V18.6719C30.1327 17.6406 30.9687 16.8047 31.9999 16.8047C33.0312 16.8047 33.8671 17.6406 33.8671 18.6719V21.5938C33.8437 21.9219 33.4765 26.7188 31.4608 30.1797ZM11.453 12.0625L8.70303 14.8125C8.57803 14.9375 8.42178 14.9922 8.25772 14.9922C8.10147 14.9922 7.93741 14.9297 7.81241 14.8125L5.06241 12.0625C4.82022 11.8203 4.82022 11.4219 5.06241 11.1797C5.3046 10.9375 5.70303 10.9375 5.94522 11.1797L7.63272 12.8594V2.13284L5.95303 3.82034C5.71085 4.06253 5.31241 4.06253 5.07022 3.82034C4.82803 3.57815 4.82803 3.17971 5.07022 2.93753L7.82022 0.18753C7.93741 0.070343 8.09366 0.00784302 8.26553 0.00784302C8.4296 0.00784302 8.59366 0.070343 8.71085 0.18753L11.4608 2.93753C11.703 3.17971 11.703 3.57815 11.4608 3.82034C11.3358 3.94534 11.1796 4.00003 11.0155 4.00003C10.8515 4.00003 10.6952 3.93753 10.5702 3.82034L8.89053 2.13284V12.8594L10.5702 11.1797C10.8124 10.9375 11.2108 10.9375 11.453 11.1797C11.703 11.4219 11.703 11.8203 11.453 12.0625Z" fill="#00D1FF"/>
</g>
<defs>
<clipPath id="clip0">
<rect width="40" height="40" fill="white"/>
</clipPath>
</defs>
</svg>
