<svg width="30" height="28" viewBox="0 0 30 28" fill="none" xmlns="http://www.w3.org/2000/svg">
<path d="M29.9984 13.7678C29.9984 13.7657 29.9984 13.7636 29.9984 13.7615H29.9974C29.9724 12.9661 29.853 12.2139 29.6587 11.6368C29.3257 10.6469 28.8243 10.3338 28.4079 10.2679L25.8982 9.33966L25.0696 8.09412C25.0649 8.08674 25.0591 8.07884 25.0534 8.06988L24.3593 6.70891L24.7621 4.03863C24.9065 3.63645 24.8752 3.04347 24.1816 2.2739C23.7751 1.82271 23.1794 1.35306 22.4993 0.946669L22.4999 0.945615C22.4988 0.945088 22.4983 0.94456 22.4973 0.944033L22.3727 0.872348L22.3722 0.873402C21.3846 0.322057 20.4247 0.00737938 19.7311 0.00737938C19.1224 0.00737938 18.78 0.249845 18.595 0.470172L16.5204 2.1843L15.2468 2.25809C15.1608 2.26283 15.0868 2.26758 15.0206 2.27232L13.4978 2.18166L11.4263 0.464374C11.2408 0.24352 10.8979 0 10.2871 0C9.59352 0 8.63516 0.313097 7.64917 0.861279L7.64865 0.860225L7.64605 0.861806C7.64448 0.86286 7.6424 0.863914 7.64084 0.864969L7.52671 0.930856C7.52462 0.93191 7.52306 0.932964 7.52098 0.934018L7.5215 0.935073C6.8409 1.34041 6.2442 1.80953 5.83668 2.25967C5.14201 3.02818 5.11022 3.62117 5.25405 4.02334L5.65272 6.69468L4.95649 8.05406C4.83767 8.23222 4.36031 8.94697 4.10965 9.32279L1.59831 10.2473C1.18245 10.3132 0.680598 10.6247 0.346032 11.613C0.150607 12.1897 0.0297045 12.9418 0.00364792 13.7378H0.00260566V13.7383C0.00260566 13.7388 0.00260566 13.7393 0.00260566 13.7404L0 13.8864H0.00104226C-0.0015634 14.6839 0.0927615 15.4408 0.267862 16.0248C0.566992 17.0232 1.05529 17.3542 1.47168 17.4338L3.94653 18.449L4.74751 19.7483C4.83819 19.9417 5.20298 20.7218 5.39476 21.1319L4.90072 23.7869C4.7423 24.1838 4.75324 24.7778 5.42029 25.5706C5.81114 26.0355 6.39064 26.5262 7.05613 26.9558L7.0556 26.9569L7.17807 27.0333C7.17911 27.0338 7.17963 27.0344 7.18068 27.0349L7.1812 27.0338C8.19063 27.6437 9.16775 27.9926 9.86972 27.9926C10.4294 27.9926 10.7577 27.7718 10.9417 27.5688L13.0736 25.928L14.6193 25.8927L16.9113 25.9327L19.038 27.5746C19.2214 27.7786 19.5508 28 20.1126 28C20.8145 28 21.7911 27.6526 22.799 27.0454L22.7995 27.0465L22.9246 26.969L22.9241 26.9679C23.5901 26.5394 24.1701 26.0503 24.5615 25.5859C25.2301 24.7931 25.2421 24.1991 25.0842 23.8017L24.5943 21.1461L25.2311 19.7899C25.2348 19.782 25.2389 19.773 25.2431 19.7636L26.0467 18.4653L28.5231 17.4538C28.939 17.3742 29.4278 17.0448 29.7285 16.048C29.9046 15.4635 30.0005 14.705 29.999 13.9059H30L29.9984 13.7678ZM14.8632 20.2601C11.5222 20.2601 8.804 17.5107 8.804 14.1315C8.804 10.7523 11.5222 8.00294 14.8632 8.00294C18.2042 8.00294 20.9224 10.7523 20.9224 14.1315C20.9224 17.5107 18.2042 20.2601 14.8632 20.2601Z" fill="#00D1FF"/>
</svg>
