<svg width="30" height="24" viewBox="0 0 30 24" fill="none" xmlns="http://www.w3.org/2000/svg">
<path d="M27.8392 3.9082H2.15651C0.967392 3.9082 0 4.86147 0 6.03322L0.29035 12.1365C0.296948 13.2939 1.2485 14.2355 2.4231 14.2485L7.77213 14.6998C8.61151 14.7713 9.34266 14.8493 10.0078 14.939C10.5252 15.008 11.0452 15.0665 11.5665 15.1146V14.1874C11.5678 14.1613 11.5678 14.1353 11.5691 14.1093H11.6074C11.6549 12.8739 12.6936 11.8816 13.9579 11.8816H16.0392C17.3022 11.8816 18.3409 12.8739 18.3884 14.1093H18.428C18.4293 14.1353 18.4306 14.1613 18.4306 14.1874V15.1133C18.9519 15.0639 19.4732 15.0067 19.9893 14.9377C20.6531 14.848 21.3842 14.77 22.2249 14.6985L27.574 14.2472C28.7472 14.2342 29.7001 13.2926 29.7067 12.1352L29.9958 6.05533L29.9971 6.03192C29.9944 4.86147 29.027 3.9082 27.8392 3.9082Z" fill="#00D1FF"/>
<path d="M27.6228 15.206L22.3068 15.6546C21.4938 15.7236 20.7798 15.799 20.1212 15.8887C19.6144 15.9563 19.0773 16.0175 18.5203 16.0695L18.2722 16.0929C17.9634 17.0176 17.0791 17.6847 16.0392 17.6847H13.9579C12.9179 17.6847 12.0337 17.0163 11.7235 16.0929L11.4754 16.0695C10.9198 16.0175 10.3813 15.9576 9.87583 15.8887C9.21726 15.8003 8.50195 15.7236 7.68897 15.6546L2.37293 15.206C2.16045 15.2008 1.9506 15.1747 1.74736 15.1279H1.29468V21.7592C1.29468 22.7007 1.99284 23.4667 2.85201 23.4667H27.1437C28.0029 23.4667 28.701 22.7007 28.701 21.7592V15.1357H28.214C28.0214 15.1786 27.8234 15.2008 27.6228 15.206Z" fill="#00D1FF"/>
<path d="M10.5106 3.24279C10.7099 3.24279 10.9013 3.16997 11.0504 3.03861L12.0838 2.12176H17.9119L18.9453 3.03861C19.0931 3.16997 19.2858 3.24279 19.485 3.24279C19.7134 3.24279 19.9324 3.14656 20.0855 2.97879C20.2294 2.82143 20.3033 2.61725 20.2914 2.40527C20.2795 2.19329 20.1858 1.99821 20.0248 1.85646L18.7605 0.735429C18.6127 0.604078 18.4213 0.53125 18.2207 0.53125H11.7736C11.5743 0.53125 11.3817 0.604078 11.2338 0.735429L9.9695 1.85646C9.63824 2.15037 9.61184 2.65367 9.91011 2.98009C10.0632 3.14656 10.281 3.24279 10.5106 3.24279Z" fill="#00D1FF"/>
<path d="M16.0379 16.7238C16.7967 16.7238 17.4144 16.1152 17.4144 15.3674V14.1917C17.4104 13.4465 16.7941 12.8418 16.0379 12.8418H13.9566C13.2004 12.8418 12.584 13.4465 12.5801 14.1917V15.3674C12.5801 16.1152 13.1977 16.7238 13.9566 16.7238H16.0379Z" fill="#00D1FF"/>
</svg>
