<svg width="34" height="24" viewBox="0 0 34 24" fill="none" xmlns="http://www.w3.org/2000/svg">
<path d="M7.99215 9.30812C8.02868 9.30812 8.0652 9.30812 8.10231 9.30754C8.52906 8.60711 9.0422 7.9525 9.6371 7.3576C10.032 6.96274 10.4535 6.60442 10.897 6.28261C9.99485 6.37539 9.01611 6.42583 7.99215 6.42583C3.99313 6.42583 0.67018 5.65235 0.000488281 4.63477V7.13785C0.000488281 8.33634 3.57856 9.30812 7.99215 9.30812Z" fill="#00D1FF"/>
<path d="M6.62551 13.9491C6.69509 12.9611 6.90324 12.0003 7.23954 11.0894C3.58262 10.9995 0.627854 10.2608 0.000488281 9.30762V11.8107C0.000488281 12.8828 2.86306 13.7734 6.62551 13.9491Z" fill="#00D1FF"/>
<path d="M7.37705 18.6478C6.99727 17.7265 6.752 16.7501 6.65112 15.7424C3.26903 15.5922 0.593736 14.8825 0 13.9814V16.4845C0.00057982 17.6262 3.25105 18.5626 7.37705 18.6478Z" fill="#00D1FF"/>
<path d="M8.33598 20.443C8.22176 20.4442 8.10753 20.4454 7.99215 20.4454C3.99313 20.4454 0.67018 19.6719 0.000488281 18.6543V21.1574C0.000488281 22.3559 3.57856 23.3271 7.99215 23.3271C9.05264 23.3271 10.065 23.2708 10.991 23.1688C10.5126 22.8302 10.0598 22.4486 9.6371 22.0254C9.14715 21.5366 8.71228 21.006 8.33598 20.443Z" fill="#00D1FF"/>
<path d="M7.99239 4.33937C12.4061 4.33937 15.984 3.36797 15.984 2.16969C15.984 0.971403 12.4061 0 7.99239 0C3.57872 0 0.000732422 0.971403 0.000732422 2.16969C0.000732422 3.36797 3.57872 4.33937 7.99239 4.33937Z" fill="#00D1FF"/>
<path d="M27.3079 15.5522C27.2255 16.5611 26.9994 17.5404 26.6382 18.4658C30.5212 18.3179 33.5085 17.4122 33.5085 16.3175V13.8145C32.942 14.6755 30.4754 15.3614 27.3079 15.5522Z" fill="#00D1FF"/>
<path d="M25.7145 20.2766C25.3139 20.9017 24.8431 21.4879 24.3056 22.0254C23.9275 22.4034 23.5257 22.7478 23.103 23.0592C23.8649 23.1247 24.6755 23.1601 25.5168 23.1601C29.9304 23.1601 33.5085 22.1889 33.5085 20.9904V18.4873C32.8498 19.4875 29.6248 20.2517 25.7145 20.2766Z" fill="#00D1FF"/>
<path d="M33.5085 11.6443C33.5085 10.4847 30.1578 9.53784 25.9419 9.47754C26.702 10.7804 27.1671 12.2357 27.3016 13.7595C30.8565 13.5398 33.5085 12.6764 33.5085 11.6443Z" fill="#00D1FF"/>
<path d="M16.9059 23.3274C21.561 23.3274 25.3347 19.5537 25.3347 14.8986C25.3347 10.2434 21.561 6.46973 16.9059 6.46973C12.2508 6.46973 8.47705 10.2434 8.47705 14.8986C8.47705 19.5537 12.2508 23.3274 16.9059 23.3274Z" fill="#00D1FF"/>
</svg>
