<svg width="34" height="32" viewBox="0 0 34 32" fill="none" xmlns="http://www.w3.org/2000/svg">
<path d="M13.7114 9.60645C12.6365 11.3693 11.5655 13.1322 10.4906 14.8951C12.2185 16.0243 13.8508 17.3241 15.2641 18.8474C16.3391 17.0845 17.41 15.3216 18.485 13.5587C17.0716 12.0355 15.4393 10.7357 13.7114 9.60645Z" fill="#FE183F"/>
<path d="M10.9126 0C7.27775 5.97512 3.63888 11.9502 0 17.9254C4.22412 20.1188 7.91475 21.8086 11.4183 25.1637C12.8436 26.5286 14.2131 27.9502 15.8534 29.0592C18.055 30.5499 20.6827 30.948 23.0874 31.9959C26.7262 26.0208 30.3651 20.0457 34 14.0706C31.5953 13.0226 28.9677 12.6286 26.766 11.1379C25.1297 10.0289 23.7602 8.61132 22.3389 7.24651C18.8314 3.88728 15.1407 2.19751 10.9126 0ZM16.7731 28.1696C17.8361 26.423 18.8991 24.6723 19.9621 22.9256C18.2461 21.7598 16.6775 20.3747 15.2681 18.8434C14.2052 20.5941 13.1382 22.3407 12.0752 24.0873C10.634 22.5966 9.02155 21.2765 7.29766 20.1351C8.36066 18.3884 9.42763 16.6377 10.4906 14.8911C8.76674 13.7294 6.80398 13.0795 4.93677 12.2143C6.01171 10.4514 7.08267 8.6885 8.15761 6.92562C10.0248 7.79081 11.9876 8.44072 13.7115 9.60244C14.7745 7.8558 15.8375 6.10916 16.9044 4.35847C18.6244 5.49987 20.2368 6.82 21.682 8.31074C20.619 10.0574 19.552 11.8081 18.489 13.5547C19.9023 15.082 21.471 16.4712 23.1829 17.637C24.2459 15.8903 25.3129 14.1396 26.3759 12.393C28.1276 13.6278 30.2496 13.904 32.2244 14.5864C31.1614 16.3331 30.0944 18.0838 29.0314 19.8304C27.0567 19.148 24.9307 18.8718 23.1789 17.637C22.104 19.3998 21.033 21.1627 19.9581 22.9256C21.7098 24.1604 23.8358 24.4367 25.8105 25.1191C24.7475 26.8657 23.6806 28.6164 22.6176 30.363C20.6468 29.6847 18.5208 29.4044 16.7731 28.1696Z" fill="#FE183F"/>
</svg>
