<svg width="25" height="35" viewBox="0 0 25 35" fill="none" xmlns="http://www.w3.org/2000/svg">
<g clip-path="url(#clip0)">
<path fill-rule="evenodd" clip-rule="evenodd" d="M13.1642 29.8975L14.6308 34.4416C14.8849 35.2272 15.2639 35.1245 15.5804 34.5174L17.4616 30.9375C17.5864 30.7099 17.7514 30.6608 17.9787 30.7724L21.603 32.5579C22.2093 32.8614 22.5748 32.723 22.3252 31.9374L19.646 23.6885C19.3919 23.7153 19.1512 23.7644 19.0263 23.8402C18.75 24.0054 18.3577 24.6259 18.1526 24.8892C17.6845 25.4963 16.8776 25.9516 16.1421 26.1524C15.5848 26.3042 14.9429 26.3444 14.3455 26.2283L13.1642 29.8975Z" fill="#FE183F"/>
<path fill-rule="evenodd" clip-rule="evenodd" d="M10.6901 33.4287L13.1687 25.7868C12.9146 25.6842 12.6649 25.586 12.5 25.586C12.1835 25.586 11.5282 25.9386 11.225 26.0681C10.5162 26.3582 9.59344 26.3582 8.84897 26.1573C8.11787 25.9565 7.30653 25.5012 6.83845 24.8941C6.63784 24.6397 6.24555 24.0103 5.9647 23.8451C5.83988 23.7692 5.59915 23.7201 5.34505 23.6934L2.99127 30.9335C2.73717 31.7057 3.10271 31.8575 3.71345 31.554L7.34219 29.7551C7.56955 29.6435 7.74786 29.706 7.85931 29.9202L9.74055 33.5135C10.0571 34.1117 10.436 34.2143 10.6901 33.4287Z" fill="#FE183F"/>
<path fill-rule="evenodd" clip-rule="evenodd" d="M24.8529 14.2708C24.6122 13.6638 24.2823 13.146 24.2823 12.5121C24.2823 11.8783 24.6122 11.3605 24.8529 10.7534C25.0446 10.3115 25.0312 9.66428 24.8886 9.18666C24.7638 8.70458 24.4606 8.13769 24.0817 7.84754C23.5646 7.44135 23.0207 7.15121 22.7042 6.60663C22.4011 6.06206 22.4144 5.45499 22.3253 4.80775C22.2629 4.32567 21.9196 3.77217 21.5808 3.42847C21.2286 3.07583 20.6714 2.73213 20.2033 2.66963C19.548 2.58036 18.9417 2.60714 18.3978 2.29022C17.854 1.97329 17.5642 1.42872 17.1585 0.91093C16.8688 0.531515 16.2982 0.227982 15.8212 0.102998C15.3397 -0.0219862 14.6978 -0.0487685 14.2564 0.138708C13.6502 0.379748 13.133 0.710063 12.5 0.710063C11.867 0.710063 11.3499 0.379748 10.7436 0.138708C10.3023 -0.0487685 9.65587 -0.0264499 9.17442 0.102998C8.69296 0.227982 8.12681 0.531515 7.83704 0.91093C7.43137 1.42872 7.14161 1.97329 6.59774 2.29022C6.05387 2.60714 5.4476 2.58036 4.8012 2.66963C4.31975 2.73213 3.76696 3.07583 3.4237 3.42847C3.07153 3.77217 2.72827 4.32567 2.66586 4.80775C2.5767 5.45499 2.60345 6.06206 2.28693 6.60663C1.97042 7.15121 1.42656 7.44135 0.909438 7.84754C0.530515 8.13769 0.227377 8.70904 0.102555 9.18666C-0.0222663 9.66874 -0.0490138 10.3115 0.138219 10.7534C0.378946 11.3605 0.708832 11.8783 0.708832 12.5121C0.708832 13.146 0.378946 13.6638 0.138219 14.2708C-0.0534718 14.7127 -0.0267242 15.36 0.102555 15.8421C0.227377 16.3241 0.530515 16.891 0.909438 17.1812C1.42656 17.5874 1.97042 17.8775 2.28693 18.4221C2.60345 18.9667 2.5767 19.5737 2.66586 20.2299C2.72827 20.6986 3.07153 21.2565 3.4237 21.6092C3.76696 21.9484 4.31975 22.2921 4.8012 22.3546C5.4476 22.4439 6.05387 22.4171 6.59774 22.734C7.14161 23.051 7.43137 23.5955 7.83704 24.1133C8.12681 24.4927 8.69742 24.7963 9.17442 24.9213C9.65587 25.0596 10.2978 25.073 10.7436 24.8855C11.3499 24.6445 11.867 24.3142 12.5 24.3142C13.133 24.3142 13.6502 24.6445 14.2564 24.8855C14.6978 25.073 15.3442 25.0641 15.8212 24.9213C16.3026 24.7963 16.8688 24.4927 17.1585 24.1133C17.5642 23.5955 17.854 23.051 18.3978 22.734C18.9417 22.4171 19.548 22.4439 20.2033 22.3546C20.6714 22.2921 21.2286 21.9484 21.5808 21.6092C21.9241 21.2565 22.2629 20.6986 22.3253 20.2299C22.4144 19.5737 22.4011 18.9667 22.7042 18.4221C23.0207 17.8775 23.5646 17.5874 24.0817 17.1812C24.4606 16.891 24.7638 16.3197 24.9019 15.8421C25.0312 15.36 25.0446 14.7127 24.8529 14.2708ZM12.4956 18.739C9.06297 18.739 6.27677 15.9492 6.27677 12.5121C6.27677 9.07507 9.06297 6.28524 12.4956 6.28524C15.9282 6.28524 18.7144 9.07507 18.7144 12.5121C18.7144 15.9492 15.9282 18.739 12.4956 18.739Z" fill="#FE183F"/>
</g>
<defs>
<clipPath id="clip0">
<rect width="25" height="35" fill="white"/>
</clipPath>
</defs>
</svg>
