<svg width="34" height="24" viewBox="0 0 34 24" fill="none" xmlns="http://www.w3.org/2000/svg">
<path d="M7.99227 9.30812C8.0288 9.30812 8.06533 9.30812 8.10243 9.30754C8.52918 8.60711 9.04232 7.9525 9.63722 7.3576C10.0321 6.96274 10.4536 6.60442 10.8972 6.28261C9.99497 6.37539 9.01623 6.42583 7.99227 6.42583C3.99325 6.42583 0.670302 5.65235 0.000610352 4.63477V7.13785C0.000610352 8.33634 3.57868 9.30812 7.99227 9.30812Z" fill="#FE173F"/>
<path d="M6.62563 13.9491C6.69521 12.9611 6.90337 12.0003 7.23966 11.0894C3.58274 10.9995 0.627976 10.2608 0.000610352 9.30762V11.8107C0.000610352 12.8828 2.86318 13.7734 6.62563 13.9491Z" fill="#FE173F"/>
<path d="M7.37705 18.6478C6.99727 17.7265 6.752 16.7501 6.65112 15.7424C3.26903 15.5922 0.593736 14.8825 0 13.9814V16.4845C0.00057982 17.6262 3.25105 18.5626 7.37705 18.6478Z" fill="#FE173F"/>
<path d="M8.3361 20.443C8.22188 20.4442 8.10765 20.4454 7.99227 20.4454C3.99325 20.4454 0.670303 19.6719 0.000610352 18.6543V21.1574C0.000610352 22.3559 3.57868 23.3271 7.99227 23.3271C9.05276 23.3271 10.0651 23.2708 10.9911 23.1688C10.5127 22.8302 10.0599 22.4486 9.63722 22.0254C9.14727 21.5366 8.71241 21.006 8.3361 20.443Z" fill="#FE173F"/>
<path d="M7.99239 4.33937C12.4061 4.33937 15.984 3.36797 15.984 2.16969C15.984 0.971403 12.4061 0 7.99239 0C3.57872 0 0.000732422 0.971403 0.000732422 2.16969C0.000732422 3.36797 3.57872 4.33937 7.99239 4.33937Z" fill="#FE173F"/>
<path d="M27.3079 15.5522C27.2255 16.5611 26.9994 17.5404 26.6382 18.4658C30.5212 18.3179 33.5085 17.4122 33.5085 16.3175V13.8145C32.942 14.6755 30.4754 15.3614 27.3079 15.5522Z" fill="#FE173F"/>
<path d="M25.7144 20.2766C25.3138 20.9017 24.8429 21.4879 24.3055 22.0254C23.9274 22.4034 23.5256 22.7478 23.1029 23.0592C23.8648 23.1247 24.6754 23.1601 25.5167 23.1601C29.9303 23.1601 33.5084 22.1889 33.5084 20.9904V18.4873C32.8497 19.4875 29.6247 20.2517 25.7144 20.2766Z" fill="#FE173F"/>
<path d="M33.5084 11.6443C33.5084 10.4847 30.1576 9.53784 25.9418 9.47754C26.7019 10.7804 27.1669 12.2357 27.3015 13.7595C30.8563 13.5398 33.5084 12.6764 33.5084 11.6443Z" fill="#FE173F"/>
<path d="M16.9058 23.3274C21.5609 23.3274 25.3346 19.5537 25.3346 14.8986C25.3346 10.2434 21.5609 6.46973 16.9058 6.46973C12.2507 6.46973 8.47693 10.2434 8.47693 14.8986C8.47693 19.5537 12.2507 23.3274 16.9058 23.3274Z" fill="#FE173F"/>
</svg>
