<svg width="196" height="70" viewBox="0 0 196 70" fill="none" xmlns="http://www.w3.org/2000/svg">
<g opacity="0.8" clip-path="url(#clip0)">
<path d="M195.417 16.5778H185.251L179.368 41.8646L178.543 45.3347C177.975 45.4924 177.408 45.6497 176.84 45.7556C175.808 45.9654 174.724 46.0706 173.59 46.0706C172.299 46.0706 171.268 45.8607 170.494 45.4924C169.771 45.1245 169.203 44.5993 168.894 43.8627C168.584 43.179 168.48 42.338 168.532 41.392C168.584 40.4459 168.79 39.3939 169.048 38.3435L172.144 25.1996L174.156 16.4731H163.784L159.089 36.66C158.521 39.0777 158.211 41.3916 158.108 43.5999C158.005 45.8074 158.366 47.7003 159.089 49.4352C159.811 51.1175 161.101 52.4315 162.856 53.4301C164.61 54.4292 167.139 54.9014 170.338 54.9014C172.558 54.9014 174.518 54.6923 176.17 54.3236C176.221 54.3236 176.324 54.2715 176.376 54.2715C175.912 56.3739 174.983 58.0558 173.537 59.371C172.041 60.6853 169.873 61.3686 166.984 61.3686C165.745 61.3686 164.61 61.3161 163.578 61.1592L161.565 69.7284C162.908 69.8861 164.404 69.9912 166.055 69.9912C169.151 69.9912 171.834 69.6233 174.156 68.9392C176.478 68.203 178.44 67.1522 180.142 65.6797C181.793 64.2076 183.187 62.3677 184.322 60.2127C185.457 58.0048 186.334 55.4278 187.005 52.3789L194.023 22.308L195.417 16.5778ZM152.845 38.1842C152.226 40.813 152.019 43.4939 152.277 46.1227C152.535 48.8037 153.567 52.8516 154.548 54.9018H144.744C143.557 52.8524 143.609 51.8533 143.351 51.2226C142.061 52.2742 140.668 53.1677 139.12 53.8514C137.572 54.5351 135.869 54.903 133.908 54.903C131.637 54.903 129.677 54.4821 128.077 53.6937C126.477 52.9057 125.135 51.8016 124.103 50.4342C123.071 49.0669 122.349 47.4897 121.884 45.6497C121.419 43.8097 121.213 41.8646 121.213 39.7622C121.213 36.5545 121.781 33.5586 122.865 30.7199C124 27.8809 125.548 25.4094 127.509 23.307C129.47 21.2042 134.269 16.5256 142.112 16.5256H157.851L152.845 38.1842V38.1842ZM145.673 25.3043C140.926 25.3043 140.048 25.3043 138.088 26.3037C136.694 27.0396 135.559 28.1437 134.578 29.4051C133.598 30.6666 132.772 32.1387 132.205 33.8214C131.637 35.5037 131.327 37.2381 131.327 39.026C131.327 41.2339 131.689 43.0209 132.411 44.3353C133.133 45.6497 134.475 46.2804 136.436 46.2804C137.469 46.2804 138.448 46.0706 139.275 45.6497C140.1 45.2288 141.028 44.5463 141.958 43.5473C142.061 42.391 142.216 41.1813 142.422 39.9207C142.628 38.658 142.886 37.4492 143.093 36.3976L145.673 25.3043V25.3043ZM118.427 31.7707C118.427 35.1879 117.859 38.2893 116.775 41.1284C115.692 43.967 114.144 46.3855 112.182 48.4361C110.221 50.4868 107.9 52.0636 105.165 53.2207C102.43 54.3762 99.4886 54.9547 96.2892 54.9547C94.7411 54.9547 93.193 54.7971 91.593 54.5343L88.4976 67.2039H78.3312L90.1481 16.6295H103.719C106.3 16.6295 108.518 17.0504 110.324 17.838C112.182 18.6264 113.679 19.731 114.917 21.0983C116.104 22.4653 116.981 24.0946 117.548 25.9346C118.169 27.7224 118.427 29.6679 118.427 31.7707V31.7707ZM93.5026 46.1227C94.276 46.3326 95.257 46.3855 96.3924 46.3855C98.1984 46.3855 99.7985 46.0698 101.294 45.3861C102.739 44.7028 104.029 43.7563 105.061 42.5479C106.094 41.3386 106.867 39.8665 107.487 38.1842C108.054 36.5011 108.364 34.609 108.364 32.5591C108.364 30.5607 107.951 28.8262 107.074 27.4588C106.196 26.0401 104.701 25.3039 102.534 25.3039H98.508L93.5026 46.1227V46.1227ZM72.1396 46.1227C70.8491 46.1227 69.8181 45.9125 69.0435 45.5446C68.3208 45.1766 67.7529 44.651 67.4438 43.9144C67.1338 43.2311 67.0307 42.3902 67.0826 41.4437C67.1338 40.4972 67.3402 39.4456 67.5982 38.3945L70.6939 25.2517H82.2528L84.3688 16.5248H72.7579L75.441 5.4845L64.6044 7.21857L57.7413 36.7643C57.1735 39.182 56.8639 41.4963 56.7607 43.7034C56.6572 45.9113 57.0187 47.805 57.7413 49.5391C58.4636 51.2214 59.7537 52.5354 61.5082 53.5344C63.2626 54.5335 65.7913 55.0061 68.9907 55.0061C71.2098 55.0061 73.1703 54.7963 74.8219 54.428C74.9767 54.3746 75.2346 54.3224 75.389 54.2703L77.505 45.2802C76.7823 45.543 76.0601 45.7014 75.389 45.8054C74.3584 46.0172 73.2742 46.1227 72.1396 46.1227V46.1227ZM46.2872 16.5778L37.3082 54.9544H47.4737L56.4008 16.5778H46.2872ZM57.4846 12.1612L59.0326 5.4845H48.8671L47.319 12.1612H57.4846ZM23.7885 16.6295C25.9556 16.6295 27.8649 17.0504 29.4645 17.838C31.0642 18.6264 32.3544 19.678 33.4377 21.0454C34.4699 22.4127 35.2438 23.9899 35.7597 25.7773C36.2756 27.564 36.5335 29.5099 36.5335 31.6127C36.5335 34.8196 35.966 37.8163 34.7791 40.7075C33.5921 43.5465 32.044 46.0698 30.032 48.1721C28.0196 50.2749 25.6457 51.958 22.911 53.1669C20.176 54.3758 17.2346 55.0065 14.0356 55.0065C13.6225 55.0065 12.9002 55.0065 11.8684 54.9544C10.8362 54.9544 9.64968 54.8488 8.35954 54.6386C7.01781 54.4288 5.62448 54.1655 4.17957 53.798C2.73768 53.4408 1.33675 52.9298 0 52.2734L11.8165 1.6994L22.3951 0.0162964L18.2152 17.9427C19.1438 17.5227 19.9696 17.2069 20.8986 16.9971C21.7757 16.7351 22.7563 16.6295 23.7885 16.6295V16.6295ZM14.9126 46.3855C16.5123 46.3855 18.0088 46.0172 19.4021 45.1766C20.814 44.3793 22.0587 43.3076 23.0658 42.0223C24.098 40.7075 24.9234 39.1828 25.4913 37.5527C26.0588 35.8704 26.3684 34.1363 26.3684 32.3489C26.3684 30.1406 26.0072 28.4065 25.2846 27.1443C24.5623 25.8824 23.0658 25.3043 21.105 25.3043C20.4855 25.3043 19.8149 25.3573 18.7827 25.6201C17.7505 25.8299 16.8734 26.3563 16.048 27.0917L11.6101 46.1753C12.9518 46.3855 13.3645 46.4377 13.7261 46.4377C13.984 46.3855 14.3967 46.3855 14.9126 46.3855V46.3855Z" fill="white"/>
</g>
<defs>
<clipPath id="clip0">
<rect width="195.417" height="70" fill="white"/>
</clipPath>
</defs>
</svg>
