<svg width="40" height="40" viewBox="0 0 40 40" fill="none" xmlns="http://www.w3.org/2000/svg">
<g clip-path="url(#clip0)">
<path d="M39.2366 24.3334C39.6496 22.9571 39.5396 21.7976 38.9094 20.8835C37.7101 19.1473 35.0444 18.9251 34.5356 18.8989L33.5385 18.3617L33.4733 18.3349C32.3661 18.0187 28.1964 17.8916 27.5717 17.8741C26.5867 17.3882 25.7685 16.9334 25.0441 16.531C22.5089 15.1221 20.8336 14.1907 16.0373 14.1907C10.2291 14.1907 5.48884 16.7084 4.85308 17.0609C4.50593 17.0871 4.19916 17.1108 3.90917 17.1337L3.1123 16.0556L4.01843 16.1512C4.37767 16.189 4.54519 15.9977 4.39261 15.7242C4.23953 15.4506 3.82436 15.198 3.46438 15.16L0.507627 14.8484C0.148387 14.8108 -0.0191348 15.0019 0.134067 15.2754C0.287145 15.549 0.702308 15.8016 1.06229 15.8396L1.51646 15.8873L2.52456 17.2514C0.818105 17.4137 0.818105 17.5154 0.818105 17.791C0.818105 20.054 0.528861 20.5755 0.468494 20.6759L0 20.3005V22.6484L0.277516 23.0052C0.266652 23.3477 0.379116 23.6623 0.607622 23.9225C1.34598 24.7625 3.0412 24.7868 3.23168 24.7868C3.80375 24.7868 4.98603 24.4947 5.79698 24.2741C5.74068 24.1777 5.68254 24.0824 5.63649 23.9788C5.59205 23.8789 5.56205 23.7729 5.52724 23.6681C5.42712 23.3613 5.3591 23.039 5.3591 22.6996C5.3591 20.9622 6.77248 19.5497 8.50893 19.5497C10.2454 19.5497 11.6594 20.9627 11.6594 22.7002C11.6594 23.4493 11.3852 24.1295 10.9467 24.671C10.8537 24.7854 10.7582 24.8967 10.6508 24.997C10.5246 25.1153 10.3929 25.2265 10.2491 25.3231C13.8701 25.3365 24.0958 25.3865 31.0761 25.5417C30.9739 25.4401 30.8869 25.3231 30.8 25.208C30.7195 25.1026 30.6491 24.992 30.5826 24.8762C30.3154 24.414 30.1505 23.8855 30.1505 23.3139C30.1505 21.5771 31.5645 20.1643 33.3007 20.1643C35.0369 20.1643 36.4509 21.5777 36.4509 23.3139C36.4509 23.9467 36.2592 24.533 35.9383 25.0272C35.8636 25.141 35.7746 25.2438 35.6865 25.3474C35.59 25.4612 35.487 25.5672 35.3745 25.6664C36.0176 25.6855 36.5719 25.695 37.0468 25.695C39.4619 25.695 39.9337 25.4866 39.9924 25.0755C40.0119 24.9502 40.0561 24.6409 39.2366 24.3334Z" fill="white"/>
<path d="M6.44056 24.0944C6.88967 24.7584 7.64963 25.1958 8.50909 25.1958C8.53724 25.1958 8.56341 25.1882 8.59094 25.1868C8.90895 25.1766 9.2135 25.1115 9.49101 24.9925C9.68533 24.9088 9.86087 24.795 10.0258 24.6671C10.6161 24.2101 11.0044 23.5031 11.0044 22.7001C11.0044 21.3244 9.88519 20.2045 8.50922 20.2045C7.13324 20.2045 6.01392 21.3244 6.01392 22.7001C6.01392 22.9795 6.07083 23.2447 6.15576 23.4959C6.19131 23.6008 6.23181 23.7024 6.28106 23.8009C6.33057 23.9007 6.37846 24.0029 6.44056 24.0944Z" fill="white"/>
<path d="M33.3014 25.8094C33.6293 25.8094 33.9401 25.7416 34.2277 25.6266C34.4239 25.5473 34.6054 25.4425 34.7736 25.3186C34.9014 25.2239 35.019 25.1191 35.127 25.0027C35.5393 24.5578 35.7976 23.9671 35.7976 23.3138C35.7976 21.938 34.6778 20.8188 33.3021 20.8188C31.9263 20.8188 30.8064 21.938 30.8064 23.3138C30.8064 23.916 31.0301 24.4618 31.3869 24.894C31.4878 25.0161 31.5991 25.1274 31.7212 25.229C31.883 25.3633 32.0581 25.4788 32.2511 25.5691C32.5707 25.7187 32.9248 25.8094 33.3014 25.8094Z" fill="white"/>
</g>
<defs>
<clipPath id="clip0">
<rect width="40.0001" height="40" fill="white"/>
</clipPath>
</defs>
</svg>
