<svg width="20" height="20" viewBox="0 0 20 20" fill="none" xmlns="http://www.w3.org/2000/svg">
<path d="M0.656163 19.346L0.654837 19.3447C0.448222 19.1381 0.448222 18.8031 0.654837 18.5965L18.5965 0.654837C18.8031 0.448222 19.1381 0.448222 19.3447 0.654837C19.5512 0.861355 19.5514 1.19632 19.3447 1.40328C19.3447 1.40332 19.3446 1.40336 19.3446 1.40339L1.40439 19.3436C1.40418 19.3438 1.40398 19.344 1.40377 19.3442C1.29833 19.4487 1.16287 19.5002 1.02843 19.5002C0.891667 19.5002 0.757962 19.4486 0.656163 19.346Z" fill="black" stroke="url(#paint0_linear)" stroke-width="0.999751"/>
<path d="M18.5989 19.3458L18.5978 19.3447L0.654948 1.40339C0.654906 1.40335 0.654864 1.40331 0.654823 1.40327C0.448124 1.1963 0.448324 0.86135 0.654837 0.654837C0.861355 0.44832 1.19632 0.448124 1.40328 0.654835C1.40332 0.654873 1.40335 0.65491 1.40339 0.654948L19.3447 18.5965C19.5512 18.803 19.5513 19.1377 19.3451 19.3444C19.2393 19.449 19.1041 19.5002 18.9714 19.5002C18.8348 19.5002 18.7011 19.4487 18.5989 19.3458Z" fill="black" stroke="url(#paint1_linear)" stroke-width="0.999751"/>
<defs>
<linearGradient id="paint0_linear" x1="26.2292" y1="2.01461e-06" x2="-0.197371" y2="13.5465" gradientUnits="userSpaceOnUse">
<stop stop-color="#EB2163"/>
<stop offset="1" stop-color="#950552"/>
</linearGradient>
<linearGradient id="paint1_linear" x1="26.2292" y1="2.01461e-06" x2="-0.197371" y2="13.5465" gradientUnits="userSpaceOnUse">
<stop stop-color="#EB2163"/>
<stop offset="1" stop-color="#950552"/>
</linearGradient>
</defs>
</svg>
