<svg width="24" height="24" viewBox="0 0 24 24" fill="none" xmlns="http://www.w3.org/2000/svg">
<g clip-path="url(#clip0)">
<path d="M23.8992 9.15815C22.8652 11.2061 21.2266 12.941 19.1595 14.1776L21.6972 16.7153C22.0633 17.0814 22.0633 17.675 21.6972 18.0411C21.3311 18.4072 20.7376 18.4072 20.3714 18.0411L17.3943 15.0639C15.9912 15.6447 14.4851 15.994 12.9375 16.0945V20.3437C12.9375 20.8615 12.5178 21.2812 12 21.2812C11.4822 21.2812 11.0625 20.8615 11.0625 20.3437V16.0946C9.5149 15.994 8.00881 15.6447 6.60565 15.064L3.62857 18.0412C3.26243 18.4073 2.66881 18.4073 2.30271 18.0412C1.93667 17.6751 1.93667 17.0815 2.30276 16.7153L4.84043 14.1776C2.77334 12.941 1.13478 11.2061 0.100807 9.1582C-0.132537 8.69597 0.052994 8.13215 0.515181 7.89876C0.977228 7.66537 1.54128 7.85086 1.77457 8.31309C3.51354 11.7573 7.38889 14.25 12 14.25C16.6146 14.25 20.488 11.7543 22.2254 8.31304C22.4592 7.85006 23.0233 7.6657 23.4848 7.89872C23.9471 8.13211 24.1326 8.69597 23.8992 9.15815Z" fill="url(#paint0_radial)"/>
</g>
<defs>
<radialGradient id="paint0_radial" cx="0" cy="0" r="1" gradientUnits="userSpaceOnUse" gradientTransform="translate(-5.06667 22.3466) rotate(-42.6563) scale(32.231 34.8288)">
<stop stop-color="#F3683A"/>
<stop offset="1" stop-color="#F9EC32"/>
</radialGradient>
<clipPath id="clip0">
<rect width="24" height="24" fill="white" transform="matrix(1 0 0 -1 0 24)"/>
</clipPath>
</defs>
</svg>
