<svg width="45" height="32" viewBox="0 0 45 32" fill="none" xmlns="http://www.w3.org/2000/svg">
<path d="M10.7324 12.5007C10.7814 12.5007 10.8305 12.5007 10.8803 12.4999C11.4534 11.5593 12.1425 10.6801 12.9414 9.88123C13.4717 9.35095 14.0378 8.86974 14.6335 8.43758C13.4219 8.56217 12.1075 8.62991 10.7324 8.62991C5.3619 8.62991 0.899359 7.59117 0 6.22461V9.58611C0 11.1956 4.80515 12.5007 10.7324 12.5007Z" fill="white"/>
<path d="M8.89704 18.7332C8.99048 17.4064 9.27002 16.1161 9.72165 14.8928C4.8106 14.7721 0.842517 13.7801 0 12.5V15.8615C0 17.3013 3.84427 18.4973 8.89704 18.7332Z" fill="white"/>
<path d="M9.90697 25.0441C9.39694 23.8068 9.06757 22.4955 8.93208 21.1422C4.39012 20.9405 0.797354 19.9874 0 18.7773V22.1388C0.000778666 23.672 4.36598 24.9296 9.90697 25.0441Z" fill="white"/>
<path d="M11.1941 27.453C11.0407 27.4545 10.8873 27.4561 10.7324 27.4561C5.3619 27.4561 0.899359 26.4173 0 25.0508V28.4123C0 30.0218 4.80515 31.326 10.7324 31.326C12.1565 31.326 13.5161 31.2505 14.7596 31.1135C14.1172 30.6587 13.5091 30.1464 12.9414 29.5779C12.2835 28.9215 11.6995 28.209 11.1941 27.453Z" fill="white"/>
<path d="M10.7324 5.82754C16.6597 5.82754 21.4647 4.523 21.4647 2.91377C21.4647 1.30454 16.6597 0 10.7324 0C4.80504 0 0 1.30454 0 2.91377C0 4.523 4.80504 5.82754 10.7324 5.82754Z" fill="white"/>
<path d="M36.6728 20.8864C36.5622 22.2413 36.2585 23.5564 35.7734 24.7992C40.9882 24.6006 44.9999 23.3844 44.9999 21.9142V18.5527C44.2391 19.7091 40.9266 20.6302 36.6728 20.8864Z" fill="white"/>
<path d="M34.5306 27.2311C33.9925 28.0705 33.3602 28.8577 32.6384 29.5795C32.1307 30.0872 31.5911 30.5498 31.0234 30.9679C32.0466 31.0559 33.1352 31.1034 34.265 31.1034C40.1922 31.1034 44.9974 29.7991 44.9974 28.1896V24.8281C44.1128 26.1713 39.7819 27.1976 34.5306 27.2311Z" fill="white"/>
<path d="M44.9975 15.6364C44.9975 14.0791 40.4976 12.8075 34.8359 12.7266C35.8568 14.4762 36.4813 16.4307 36.6619 18.477C41.4359 18.1819 44.9975 17.0225 44.9975 15.6364Z" fill="white"/>
<path d="M22.7023 31.3264C28.9539 31.3264 34.0218 26.2585 34.0218 20.007C34.0218 13.7554 28.9539 8.6875 22.7023 8.6875C16.4507 8.6875 11.3828 13.7554 11.3828 20.007C11.3828 26.2585 16.4507 31.3264 22.7023 31.3264Z" fill="white"/>
</svg>
