<svg width="17" height="20" viewBox="0 0 17 20" fill="none" xmlns="http://www.w3.org/2000/svg">
<path d="M1.581 3.9978H10.8786C11.4691 3.9978 11.9562 4.48115 11.9596 5.08004V18.419C11.9596 19.0152 11.4748 19.5 10.8786 19.5H1.581C0.984723 19.5 0.5 19.0152 0.5 18.419V5.0788C0.5 4.48253 0.984724 3.9978 1.581 3.9978ZM10.8745 19.39C11.4128 19.39 11.8496 18.9531 11.8496 18.4149V5.0788C11.8496 4.54052 11.4128 4.10368 10.8745 4.10368H1.5769C1.03863 4.10368 0.601783 4.54052 0.601783 5.0788V18.4149C0.601783 18.9531 1.03863 19.39 1.5769 19.39H10.8745Z" fill="black" stroke="url(#paint0_linear)"/>
<path d="M5.13569 0.5H14.4333C15.0295 0.5 15.5143 0.984725 15.5143 1.581V14.9212C15.5143 15.5174 15.0295 16.0022 14.4333 16.0022C14.416 16.0022 14.4039 15.9961 14.3951 15.9873C14.3864 15.9786 14.3803 15.9665 14.3803 15.9492C14.3803 15.932 14.3864 15.9198 14.3951 15.9111C14.4039 15.9024 14.416 15.8963 14.4333 15.8963C14.9715 15.8963 15.4084 15.4595 15.4084 14.9212V1.581C15.4084 1.04272 14.9715 0.605879 14.4333 0.605879H5.13569C4.59741 0.605879 4.16057 1.04272 4.16057 1.581C4.16057 1.59827 4.15446 1.61038 4.14574 1.61911C4.13701 1.62783 4.1249 1.63394 4.10763 1.63394C4.09035 1.63394 4.07824 1.62783 4.06951 1.61911C4.06079 1.61038 4.05469 1.59827 4.05469 1.581C4.05469 0.984724 4.53941 0.5 5.13569 0.5Z" fill="black" stroke="url(#paint1_linear)"/>
<defs>
<linearGradient id="paint0_linear" x1="6.22978" y1="10.0987" x2="24.1853" y2="13.2755" gradientUnits="userSpaceOnUse">
<stop stop-color="#FE173F"/>
<stop offset="1" stop-color="#240B36"/>
</linearGradient>
<linearGradient id="paint1_linear" x1="9.78447" y1="6.60087" x2="27.74" y2="9.77768" gradientUnits="userSpaceOnUse">
<stop stop-color="#FE173F"/>
<stop offset="1" stop-color="#240B36"/>
</linearGradient>
</defs>
</svg>
