<svg width="27" height="30" viewBox="0 0 27 30" fill="none" xmlns="http://www.w3.org/2000/svg">
<path d="M10.7367 24.3738C8.15253 24.3738 6.04917 21.99 6.04917 19.0612V6.24886H4.11909C2.4459 6.24886 1.08594 7.78992 1.08594 9.6862V26.5612C1.08594 28.4575 2.4459 29.9988 4.11909 29.9988H17.9057C19.5789 29.9988 20.9389 28.4575 20.9389 26.5612V24.3738H10.7367Z" fill="url(#paint0_linear)"/>
<path d="M25.3501 3.43758C25.3501 1.53877 23.9924 0 22.3172 0H10.7363C9.06087 0 7.70312 1.53877 7.70312 3.43758V19.0624C7.70312 20.9612 9.06087 22.5 10.7363 22.5H22.3172C23.9924 22.5 25.3501 20.9612 25.3501 19.0624V3.43758Z" fill="url(#paint1_linear)"/>
<defs>
<linearGradient id="paint0_linear" x1="19.6153" y1="7.43635" x2="-4.78068" y2="21.1317" gradientUnits="userSpaceOnUse">
<stop stop-color="#00F0FF"/>
<stop offset="1" stop-color="#0098D9"/>
<stop offset="1" stop-color="#0098D9"/>
</linearGradient>
<linearGradient id="paint1_linear" x1="24.1737" y1="1.125" x2="1.84823" y2="12.8842" gradientUnits="userSpaceOnUse">
<stop stop-color="#00F0FF"/>
<stop offset="1" stop-color="#0098D9"/>
<stop offset="1" stop-color="#0098D9"/>
</linearGradient>
</defs>
</svg>
