<svg width="30" height="30" viewBox="0 0 30 30" fill="none" xmlns="http://www.w3.org/2000/svg">
<g clip-path="url(#clip0)">
<path d="M1.19727 21.123H28.7782L28.6985 21.9229C28.4519 23.8965 27.0487 25.0488 25.6226 25.0488H4.35289C2.74121 25.0488 1.47963 23.6613 1.27871 21.9375C1.27648 21.9196 1.28756 22.0289 1.19727 21.123Z" fill="white"/>
<path d="M29.9811 9.0703L28.954 19.3652H1.02268L0.0196689 9.28886C-0.248808 6.92595 2.29984 5.83382 3.47647 7.18593C6.30731 10.4501 6.61035 11.0944 7.56133 10.981C7.91875 10.9376 8.17416 10.7774 8.38627 10.582C14.1497 5.05253 13.7728 5.4106 13.8321 5.36367C14.6078 4.76695 15.6054 4.86538 16.1898 5.35195C22.0134 10.2453 21.7435 10.0298 21.8736 10.1039C22.4173 10.4164 23.0586 10.3766 23.6066 9.83905C26.843 6.65906 26.6378 6.85722 26.6978 6.80917C28.1782 5.65652 30.218 6.99597 29.9811 9.0703Z" fill="white"/>
</g>
<defs>
<clipPath id="clip0">
<rect width="30" height="30" fill="white"/>
</clipPath>
</defs>
</svg>
