<svg width="40" height="40" viewBox="0 0 40 40" fill="none" xmlns="http://www.w3.org/2000/svg">
<g clip-path="url(#clip0)">
<path d="M20 1.25C16.7694 1.25 14.1406 3.95691 14.1406 7.18751C14.1406 10.4181 16.7694 13.0469 20 13.0469C23.2306 13.0469 25.8594 10.4181 25.8594 7.18751C25.8594 3.95691 23.2306 1.25 20 1.25Z" fill="url(#paint0_linear)"/>
<path d="M28.2031 22.4221C30.7883 22.4221 32.8906 20.3198 32.8906 17.7346C32.8906 15.1495 30.7883 13.0471 28.2031 13.0471C25.618 13.0471 23.5156 15.1495 23.5156 17.7346C23.5156 20.3198 25.618 22.4221 28.2031 22.4221Z" fill="url(#paint1_linear)"/>
<path d="M1.17188 36.4842H2.34375C3.63831 36.4842 4.68751 35.4347 4.68751 34.1404V20.0779C4.68751 18.7833 3.63831 17.7341 2.34375 17.7341H1.17188C0.524598 17.7341 0 18.2587 0 18.906V35.3123C0 35.9596 0.524598 36.4842 1.17188 36.4842Z" fill="url(#paint2_linear)"/>
<path d="M7.03125 20.0781V34.1406C7.03125 34.3769 6.99524 34.6033 6.96167 34.83L13.7994 38.2102C14.6085 38.6142 15.5152 38.8282 16.4191 38.8282C16.7786 38.8282 27.0047 38.8282 27.0047 38.8282C27.8757 38.8282 28.7271 38.5868 29.4687 38.129L39.0638 31.3455C40.0971 30.5673 40.3077 29.0955 39.5319 28.0621C38.8282 27.124 37.4643 26.7175 36.2507 27.5943L29.0375 31.6629C28.8694 31.7511 28.6829 31.7969 28.4928 31.7969C28.0704 31.7969 14.5749 31.7969 15.0781 31.7969C14.4302 31.7969 13.9063 31.2729 13.9063 30.625C13.9063 29.9774 14.4302 29.4531 15.0781 29.4531H25.8594C27.154 29.4531 28.2032 28.4036 28.2032 27.1094C28.2032 25.8148 27.154 24.7656 25.8594 24.7656H20.3546L14.7998 21.0623C13.8352 20.4181 12.7112 20.0781 11.5497 20.0781H7.03125Z" fill="url(#paint3_linear)"/>
</g>
<defs>
<linearGradient id="paint0_linear" x1="25.0781" y1="1.83985" x2="11.9723" y2="10.583" gradientUnits="userSpaceOnUse">
<stop stop-color="#00F0FF"/>
<stop offset="1" stop-color="#0098D9"/>
<stop offset="1" stop-color="#0098D9"/>
</linearGradient>
<linearGradient id="paint1_linear" x1="32.2656" y1="13.5159" x2="21.824" y2="20.5282" gradientUnits="userSpaceOnUse">
<stop stop-color="#00F0FF"/>
<stop offset="1" stop-color="#0098D9"/>
<stop offset="1" stop-color="#0098D9"/>
</linearGradient>
<linearGradient id="paint2_linear" x1="4.37501" y1="18.6716" x2="-2.99276" y2="19.9086" gradientUnits="userSpaceOnUse">
<stop stop-color="#00F0FF"/>
<stop offset="1" stop-color="#0098D9"/>
<stop offset="1" stop-color="#0098D9"/>
</linearGradient>
<linearGradient id="paint3_linear" x1="37.7974" y1="21.0156" x2="15.5528" y2="47.3383" gradientUnits="userSpaceOnUse">
<stop stop-color="#00F0FF"/>
<stop offset="1" stop-color="#0098D9"/>
<stop offset="1" stop-color="#0098D9"/>
</linearGradient>
<clipPath id="clip0">
<rect width="40" height="40" fill="white"/>
</clipPath>
</defs>
</svg>
