<svg width="30" height="28" viewBox="0 0 30 28" fill="none" xmlns="http://www.w3.org/2000/svg">
<path d="M14.1626 27.1698C13.5663 27.1702 12.9768 27.0428 12.4339 26.796L6.67515 24.1759C6.57725 24.1314 6.50105 24.0498 6.4633 23.9491C6.42555 23.8484 6.42935 23.7368 6.47387 23.6389C6.51838 23.541 6.59996 23.4648 6.70066 23.4271C6.80136 23.3893 6.91293 23.3931 7.01083 23.4377L12.77 26.0582C13.3081 26.3017 13.9007 26.3999 14.4886 26.343C15.0765 26.2861 15.6393 26.0761 16.1207 25.7339L27.9322 17.3314C28.1383 17.1823 28.2841 16.9642 28.3429 16.7166C28.4018 16.4691 28.3698 16.2086 28.2527 15.9827C28.1357 15.7568 27.9414 15.5804 27.7053 15.4857C27.4691 15.391 27.2068 15.3842 26.9661 15.4666L18.408 18.4216C18.3063 18.4567 18.1949 18.45 18.0982 18.4029C18.0015 18.3558 17.9274 18.2723 17.8923 18.1706C17.8572 18.069 17.8639 17.9575 17.911 17.8608C17.958 17.7641 18.0416 17.6901 18.1433 17.655L26.7038 14.6955C27.1296 14.5489 27.594 14.5607 28.0118 14.7286C28.4296 14.8966 28.7729 15.2095 28.9788 15.61C29.1847 16.0105 29.2393 16.4718 29.1327 16.9093C29.0261 17.3469 28.7654 17.7313 28.3984 17.9923L16.591 26.3955C15.8817 26.8999 15.0329 27.1706 14.1626 27.1698Z" fill="black"/>
<path d="M14.1626 27.1698C13.5663 27.1702 12.9768 27.0428 12.4339 26.796L6.67515 24.1759C6.57725 24.1314 6.50105 24.0498 6.4633 23.9491C6.42555 23.8484 6.42935 23.7368 6.47387 23.6389C6.51838 23.541 6.59996 23.4648 6.70066 23.4271C6.80136 23.3893 6.91293 23.3931 7.01083 23.4377L12.77 26.0582C13.3081 26.3017 13.9007 26.3999 14.4886 26.343C15.0765 26.2861 15.6393 26.0761 16.1207 25.7339L27.9322 17.3314C28.1383 17.1823 28.2841 16.9642 28.3429 16.7166C28.4018 16.4691 28.3698 16.2086 28.2527 15.9827C28.1357 15.7568 27.9414 15.5804 27.7053 15.4857C27.4691 15.391 27.2068 15.3842 26.9661 15.4666L18.408 18.4216C18.3063 18.4567 18.1949 18.45 18.0982 18.4029C18.0015 18.3558 17.9274 18.2723 17.8923 18.1706C17.8572 18.069 17.8639 17.9575 17.911 17.8608C17.958 17.7641 18.0416 17.6901 18.1433 17.655L26.7038 14.6955C27.1296 14.5489 27.594 14.5607 28.0118 14.7286C28.4296 14.8966 28.7729 15.2095 28.9788 15.61C29.1847 16.0105 29.2393 16.4718 29.1327 16.9093C29.0261 17.3469 28.7654 17.7313 28.3984 17.9923L16.591 26.3955C15.8817 26.8999 15.0329 27.1706 14.1626 27.1698Z" fill="url(#paint0_linear)"/>
<path d="M12.7164 19.9542C12.6172 19.9543 12.5213 19.9179 12.4471 19.8521C12.3728 19.7863 12.3253 19.6955 12.3135 19.5969C12.3017 19.4984 12.3265 19.3989 12.3831 19.3174C12.4397 19.2359 12.5243 19.178 12.6208 19.1547L17.5845 17.9446C17.8494 17.8694 18.0781 17.7011 18.2286 17.4706C18.3792 17.2401 18.4414 16.963 18.4038 16.6903C18.3662 16.4176 18.2313 16.1677 18.024 15.9866C17.8167 15.8055 17.5509 15.7054 17.2756 15.7047L12.7241 15.7858C12.6566 15.7857 12.59 15.77 12.5295 15.74L10.8954 14.8886C9.69144 14.2594 8.34053 13.9653 6.984 14.0373L6.85954 14.0425C6.80622 14.0453 6.75289 14.0373 6.70268 14.0191C6.65247 14.001 6.6064 13.973 6.56716 13.9367C6.52793 13.9005 6.49632 13.8568 6.47419 13.8082C6.45207 13.7597 6.43988 13.7071 6.43833 13.6538C6.43615 13.6005 6.44449 13.5474 6.46285 13.4974C6.48122 13.4474 6.50925 13.4015 6.54536 13.3624C6.58146 13.3232 6.62493 13.2916 6.67327 13.2692C6.72162 13.2469 6.77389 13.2343 6.82711 13.2321L6.9463 13.2277C8.44596 13.1478 9.9395 13.4728 11.2704 14.1686L12.8109 14.9729L17.257 14.8919C17.731 14.8887 18.19 15.0581 18.5483 15.3684C18.9066 15.6788 19.1397 16.1089 19.2043 16.5785C19.2688 17.0481 19.1602 17.5252 18.8989 17.9206C18.6376 18.3161 18.2413 18.603 17.784 18.7278L12.8129 19.9424C12.7813 19.9501 12.7489 19.954 12.7164 19.9542Z" fill="black"/>
<path d="M12.7164 19.9542C12.6172 19.9543 12.5213 19.9179 12.4471 19.8521C12.3728 19.7863 12.3253 19.6955 12.3135 19.5969C12.3017 19.4984 12.3265 19.3989 12.3831 19.3174C12.4397 19.2359 12.5243 19.178 12.6208 19.1547L17.5845 17.9446C17.8494 17.8694 18.0781 17.7011 18.2286 17.4706C18.3792 17.2401 18.4414 16.963 18.4038 16.6903C18.3662 16.4176 18.2313 16.1677 18.024 15.9866C17.8167 15.8055 17.5509 15.7054 17.2756 15.7047L12.7241 15.7858C12.6566 15.7857 12.59 15.77 12.5295 15.74L10.8954 14.8886C9.69144 14.2594 8.34053 13.9653 6.984 14.0373L6.85954 14.0425C6.80622 14.0453 6.75289 14.0373 6.70268 14.0191C6.65247 14.001 6.6064 13.973 6.56716 13.9367C6.52793 13.9005 6.49632 13.8568 6.47419 13.8082C6.45207 13.7597 6.43988 13.7071 6.43833 13.6538C6.43615 13.6005 6.44449 13.5474 6.46285 13.4974C6.48122 13.4474 6.50925 13.4015 6.54536 13.3624C6.58146 13.3232 6.62493 13.2916 6.67327 13.2692C6.72162 13.2469 6.77389 13.2343 6.82711 13.2321L6.9463 13.2277C8.44596 13.1478 9.9395 13.4728 11.2704 14.1686L12.8109 14.9729L17.257 14.8919C17.731 14.8887 18.19 15.0581 18.5483 15.3684C18.9066 15.6788 19.1397 16.1089 19.2043 16.5785C19.2688 17.0481 19.1602 17.5252 18.8989 17.9206C18.6376 18.3161 18.2413 18.603 17.784 18.7278L12.8129 19.9424C12.7813 19.9501 12.7489 19.954 12.7164 19.9542Z" fill="url(#paint1_linear)"/>
<path d="M5.81568 25.174H2.24325C1.8634 25.1736 1.49924 25.0225 1.23065 24.7539C0.962059 24.4853 0.810976 24.1212 0.810547 23.7413V13.1322C0.810976 12.7524 0.962072 12.3883 1.23067 12.1198C1.49928 11.8513 1.86344 11.7003 2.24325 11.7H5.81568C6.19546 11.7004 6.55956 11.8514 6.82814 12.1199C7.09672 12.3884 7.24785 12.7525 7.24838 13.1322V23.7413C7.24796 24.1212 7.09687 24.4853 6.82828 24.7539C6.55969 25.0225 6.19553 25.1736 5.81568 25.174ZM2.24325 12.5108C2.07842 12.5109 1.92036 12.5764 1.80377 12.6929C1.68717 12.8094 1.62157 12.9674 1.62136 13.1322V23.7413C1.62157 23.9062 1.68716 24.0642 1.80374 24.1808C1.92032 24.2974 2.07838 24.363 2.24325 24.3632H5.81568C5.98055 24.363 6.13861 24.2974 6.25519 24.1808C6.37177 24.0642 6.43736 23.9062 6.43757 23.7413V13.1322C6.43736 12.9674 6.37176 12.8094 6.25516 12.6929C6.13857 12.5764 5.98051 12.5109 5.81568 12.5108H2.24325Z" fill="black"/>
<path d="M5.81568 25.174H2.24325C1.8634 25.1736 1.49924 25.0225 1.23065 24.7539C0.962059 24.4853 0.810976 24.1212 0.810547 23.7413V13.1322C0.810976 12.7524 0.962072 12.3883 1.23067 12.1198C1.49928 11.8513 1.86344 11.7003 2.24325 11.7H5.81568C6.19546 11.7004 6.55956 11.8514 6.82814 12.1199C7.09672 12.3884 7.24785 12.7525 7.24838 13.1322V23.7413C7.24796 24.1212 7.09687 24.4853 6.82828 24.7539C6.55969 25.0225 6.19553 25.1736 5.81568 25.174ZM2.24325 12.5108C2.07842 12.5109 1.92036 12.5764 1.80377 12.6929C1.68717 12.8094 1.62157 12.9674 1.62136 13.1322V23.7413C1.62157 23.9062 1.68716 24.0642 1.80374 24.1808C1.92032 24.2974 2.07838 24.363 2.24325 24.3632H5.81568C5.98055 24.363 6.13861 24.2974 6.25519 24.1808C6.37177 24.0642 6.43736 23.9062 6.43757 23.7413V13.1322C6.43736 12.9674 6.37176 12.8094 6.25516 12.6929C6.13857 12.5764 5.98051 12.5109 5.81568 12.5108H2.24325Z" fill="url(#paint2_linear)"/>
<path d="M24.9919 16.1236C24.9246 16.1236 24.8584 16.1068 24.7992 16.0747C24.74 16.0427 24.6897 15.9965 24.6529 15.9401C24.616 15.8838 24.5938 15.8192 24.5881 15.7522C24.5825 15.6851 24.5936 15.6177 24.6205 15.556C25.3827 13.8087 23.0593 9.82278 20.5786 6.60264H16.6766C15.4665 8.17926 12.2674 12.6026 12.5009 15.0091C12.5082 15.1145 12.474 15.2185 12.4058 15.299C12.3375 15.3796 12.2405 15.4303 12.1354 15.4405C12.0303 15.4506 11.9254 15.4193 11.843 15.3533C11.7606 15.2873 11.7072 15.1917 11.6942 15.087C11.4294 12.3566 14.7436 7.76616 16.1808 5.91913C16.2322 5.85343 16.3026 5.80517 16.3824 5.78094C16.4622 5.75671 16.5475 5.75768 16.6267 5.78372C16.6476 5.78997 16.6694 5.79284 16.6912 5.79224H20.5503C20.5732 5.79285 20.5961 5.78956 20.618 5.78251C20.6981 5.7543 20.7851 5.75199 20.8667 5.77593C20.9482 5.79986 21.0202 5.84882 21.0724 5.91588C22.7374 8.05237 26.4895 13.3003 25.3636 15.8803C25.3321 15.9527 25.2801 16.0142 25.214 16.0574C25.148 16.1006 25.0708 16.1236 24.9919 16.1236Z" fill="black"/>
<path d="M24.9919 16.1236C24.9246 16.1236 24.8584 16.1068 24.7992 16.0747C24.74 16.0427 24.6897 15.9965 24.6529 15.9401C24.616 15.8838 24.5938 15.8192 24.5881 15.7522C24.5825 15.6851 24.5936 15.6177 24.6205 15.556C25.3827 13.8087 23.0593 9.82278 20.5786 6.60264H16.6766C15.4665 8.17926 12.2674 12.6026 12.5009 15.0091C12.5082 15.1145 12.474 15.2185 12.4058 15.299C12.3375 15.3796 12.2405 15.4303 12.1354 15.4405C12.0303 15.4506 11.9254 15.4193 11.843 15.3533C11.7606 15.2873 11.7072 15.1917 11.6942 15.087C11.4294 12.3566 14.7436 7.76616 16.1808 5.91913C16.2322 5.85343 16.3026 5.80517 16.3824 5.78094C16.4622 5.75671 16.5475 5.75768 16.6267 5.78372C16.6476 5.78997 16.6694 5.79284 16.6912 5.79224H20.5503C20.5732 5.79285 20.5961 5.78956 20.618 5.78251C20.6981 5.7543 20.7851 5.75199 20.8667 5.77593C20.9482 5.79986 21.0202 5.84882 21.0724 5.91588C22.7374 8.05237 26.4895 13.3003 25.3636 15.8803C25.3321 15.9527 25.2801 16.0142 25.214 16.0574C25.148 16.1006 25.0708 16.1236 24.9919 16.1236Z" fill="url(#paint3_linear)"/>
<path d="M20.7527 5.24554C20.7073 5.24552 20.6622 5.23799 20.6193 5.22324C20.5971 5.21601 20.5738 5.21258 20.5504 5.21311H16.693C16.673 5.21244 16.6531 5.21449 16.6338 5.21919C16.5461 5.24493 16.4524 5.24032 16.3677 5.2061C16.283 5.17189 16.2123 5.11007 16.1672 5.03068L14.8913 2.78554C14.7863 2.58561 14.7401 2.35998 14.7582 2.13487C14.7763 1.90975 14.8579 1.69438 14.9935 1.51378C15.1261 1.33547 15.3063 1.19821 15.5134 1.11781C15.7205 1.03741 15.9462 1.01713 16.1643 1.05933L16.4035 1.10514C16.6064 1.15227 16.8172 1.15323 17.0205 1.10797L18.0409 0.880542C18.4712 0.786388 18.9198 0.822663 19.3293 0.984731L19.9913 1.24095C20.2995 1.36207 20.6404 1.37125 20.9546 1.26689C21.1776 1.19992 21.4154 1.1999 21.6385 1.26684C21.8616 1.33378 22.0601 1.46474 22.2094 1.64347C22.3587 1.82219 22.4523 2.04082 22.4785 2.27224C22.5047 2.50365 22.4624 2.73767 22.3569 2.94527C22.3528 2.95338 22.3484 2.96149 22.3439 2.9696L21.1001 5.04811C21.0642 5.10822 21.0133 5.15801 20.9524 5.19261C20.8915 5.22721 20.8227 5.24544 20.7527 5.24554ZM16.7436 4.4023H20.5423L21.6401 2.56784C21.6679 2.51163 21.6808 2.44919 21.6775 2.38656C21.6741 2.32392 21.6547 2.26321 21.6211 2.21027C21.5784 2.14048 21.5144 2.08631 21.4385 2.05578C21.3626 2.02525 21.2789 2.02 21.1998 2.04081C20.709 2.2025 20.1769 2.18715 19.6962 1.99743L19.033 1.74041C18.7727 1.63708 18.4875 1.61392 18.214 1.67392L17.1981 1.89851C16.8818 1.97007 16.5536 1.97007 16.2373 1.89851L16.0139 1.85392C15.9442 1.84182 15.8724 1.84936 15.8067 1.87569C15.741 1.90203 15.684 1.94612 15.6419 2.00304C15.5998 2.05996 15.5744 2.12747 15.5685 2.198C15.5626 2.26853 15.5765 2.33932 15.6085 2.40243L16.7436 4.4023Z" fill="black"/>
<path d="M20.7527 5.24554C20.7073 5.24552 20.6622 5.23799 20.6193 5.22324C20.5971 5.21601 20.5738 5.21258 20.5504 5.21311H16.693C16.673 5.21244 16.6531 5.21449 16.6338 5.21919C16.5461 5.24493 16.4524 5.24032 16.3677 5.2061C16.283 5.17189 16.2123 5.11007 16.1672 5.03068L14.8913 2.78554C14.7863 2.58561 14.7401 2.35998 14.7582 2.13487C14.7763 1.90975 14.8579 1.69438 14.9935 1.51378C15.1261 1.33547 15.3063 1.19821 15.5134 1.11781C15.7205 1.03741 15.9462 1.01713 16.1643 1.05933L16.4035 1.10514C16.6064 1.15227 16.8172 1.15323 17.0205 1.10797L18.0409 0.880542C18.4712 0.786388 18.9198 0.822663 19.3293 0.984731L19.9913 1.24095C20.2995 1.36207 20.6404 1.37125 20.9546 1.26689C21.1776 1.19992 21.4154 1.1999 21.6385 1.26684C21.8616 1.33378 22.0601 1.46474 22.2094 1.64347C22.3587 1.82219 22.4523 2.04082 22.4785 2.27224C22.5047 2.50365 22.4624 2.73767 22.3569 2.94527C22.3528 2.95338 22.3484 2.96149 22.3439 2.9696L21.1001 5.04811C21.0642 5.10822 21.0133 5.15801 20.9524 5.19261C20.8915 5.22721 20.8227 5.24544 20.7527 5.24554ZM16.7436 4.4023H20.5423L21.6401 2.56784C21.6679 2.51163 21.6808 2.44919 21.6775 2.38656C21.6741 2.32392 21.6547 2.26321 21.6211 2.21027C21.5784 2.14048 21.5144 2.08631 21.4385 2.05578C21.3626 2.02525 21.2789 2.02 21.1998 2.04081C20.709 2.2025 20.1769 2.18715 19.6962 1.99743L19.033 1.74041C18.7727 1.63708 18.4875 1.61392 18.214 1.67392L17.1981 1.89851C16.8818 1.97007 16.5536 1.97007 16.2373 1.89851L16.0139 1.85392C15.9442 1.84182 15.8724 1.84936 15.8067 1.87569C15.741 1.90203 15.684 1.94612 15.6419 2.00304C15.5998 2.05996 15.5744 2.12747 15.5685 2.198C15.5626 2.26853 15.5765 2.33932 15.6085 2.40243L16.7436 4.4023Z" fill="url(#paint4_linear)"/>
<path d="M18.6583 15.157C18.0721 15.1571 17.4991 14.9833 17.0117 14.6578C16.5243 14.3322 16.1444 13.8694 15.92 13.3279C15.6957 12.7864 15.6369 12.1905 15.7512 11.6156C15.8655 11.0407 16.1477 10.5126 16.5622 10.0981C16.9766 9.68362 17.5047 9.40134 18.0795 9.28695C18.6544 9.17257 19.2503 9.23124 19.7918 9.45553C20.3334 9.67982 20.7962 10.0597 21.1219 10.547C21.4475 11.0344 21.6214 11.6073 21.6214 12.1935C21.6205 12.9791 21.3081 13.7324 20.7526 14.2879C20.1971 14.8435 19.4439 15.156 18.6583 15.157ZM18.6583 10.0412C18.2325 10.0411 17.8162 10.1673 17.4621 10.4038C17.1081 10.6403 16.8321 10.9765 16.6691 11.3699C16.5061 11.7633 16.4634 12.1962 16.5465 12.6138C16.6295 13.0314 16.8346 13.415 17.1357 13.7161C17.4367 14.0172 17.8204 14.2222 18.238 14.3053C18.6556 14.3883 19.0885 14.3456 19.4818 14.1827C19.8752 14.0197 20.2114 13.7437 20.4479 13.3896C20.6844 13.0356 20.8106 12.6193 20.8106 12.1935C20.8098 11.6229 20.5828 11.0759 20.1793 10.6724C19.7759 10.2689 19.2288 10.0419 18.6583 10.0412Z" fill="black"/>
<path d="M18.6583 15.157C18.0721 15.1571 17.4991 14.9833 17.0117 14.6578C16.5243 14.3322 16.1444 13.8694 15.92 13.3279C15.6957 12.7864 15.6369 12.1905 15.7512 11.6156C15.8655 11.0407 16.1477 10.5126 16.5622 10.0981C16.9766 9.68362 17.5047 9.40134 18.0795 9.28695C18.6544 9.17257 19.2503 9.23124 19.7918 9.45553C20.3334 9.67982 20.7962 10.0597 21.1219 10.547C21.4475 11.0344 21.6214 11.6073 21.6214 12.1935C21.6205 12.9791 21.3081 13.7324 20.7526 14.2879C20.1971 14.8435 19.4439 15.156 18.6583 15.157ZM18.6583 10.0412C18.2325 10.0411 17.8162 10.1673 17.4621 10.4038C17.1081 10.6403 16.8321 10.9765 16.6691 11.3699C16.5061 11.7633 16.4634 12.1962 16.5465 12.6138C16.6295 13.0314 16.8346 13.415 17.1357 13.7161C17.4367 14.0172 17.8204 14.2222 18.238 14.3053C18.6556 14.3883 19.0885 14.3456 19.4818 14.1827C19.8752 14.0197 20.2114 13.7437 20.4479 13.3896C20.6844 13.0356 20.8106 12.6193 20.8106 12.1935C20.8098 11.6229 20.5828 11.0759 20.1793 10.6724C19.7759 10.2689 19.2288 10.0419 18.6583 10.0412Z" fill="url(#paint5_linear)"/>
<path d="M18.5226 13.6392V13.43C18.3065 13.4295 18.0949 13.3685 17.9116 13.2541L18.0073 12.9865C18.1785 13.098 18.3783 13.1576 18.5826 13.1584C18.8664 13.1584 19.0577 12.9963 19.0577 12.7668C19.0577 12.5471 18.902 12.4113 18.6065 12.2913C18.2011 12.1319 17.9473 11.9479 17.9473 11.6021C17.9497 11.439 18.0129 11.2827 18.1244 11.1637C18.236 11.0447 18.3879 10.9716 18.5505 10.9587V10.7495H18.7982V10.9429C18.9805 10.9443 19.1593 10.9925 19.3176 11.0828L19.2178 11.3463C19.0656 11.2557 18.8914 11.2088 18.7143 11.2105C18.4066 11.2105 18.2907 11.3945 18.2907 11.5542C18.2907 11.7618 18.4387 11.8656 18.7861 12.0095C19.1976 12.1773 19.4055 12.3849 19.4055 12.7392C19.4025 12.9103 19.3363 13.0742 19.2198 13.1995C19.1034 13.3248 18.9447 13.4027 18.7743 13.4183V13.6396L18.5226 13.6392Z" fill="black"/>
<path d="M18.5226 13.6392V13.43C18.3065 13.4295 18.0949 13.3685 17.9116 13.2541L18.0073 12.9865C18.1785 13.098 18.3783 13.1576 18.5826 13.1584C18.8664 13.1584 19.0577 12.9963 19.0577 12.7668C19.0577 12.5471 18.902 12.4113 18.6065 12.2913C18.2011 12.1319 17.9473 11.9479 17.9473 11.6021C17.9497 11.439 18.0129 11.2827 18.1244 11.1637C18.236 11.0447 18.3879 10.9716 18.5505 10.9587V10.7495H18.7982V10.9429C18.9805 10.9443 19.1593 10.9925 19.3176 11.0828L19.2178 11.3463C19.0656 11.2557 18.8914 11.2088 18.7143 11.2105C18.4066 11.2105 18.2907 11.3945 18.2907 11.5542C18.2907 11.7618 18.4387 11.8656 18.7861 12.0095C19.1976 12.1773 19.4055 12.3849 19.4055 12.7392C19.4025 12.9103 19.3363 13.0742 19.2198 13.1995C19.1034 13.3248 18.9447 13.4027 18.7743 13.4183V13.6396L18.5226 13.6392Z" fill="url(#paint6_linear)"/>
<path d="M18.7745 13.7406H18.5228C18.4959 13.7406 18.4701 13.7299 18.4511 13.7109C18.4321 13.6919 18.4214 13.6661 18.4214 13.6393V13.5262C18.2195 13.5109 18.0244 13.4457 17.8539 13.3364C17.836 13.3236 17.8227 13.3053 17.8162 13.2844C17.8096 13.2634 17.81 13.2408 17.8174 13.2201L17.9135 12.9525C17.9185 12.938 17.9269 12.9249 17.9378 12.9141C17.9488 12.9034 17.9621 12.8953 17.9767 12.8905C17.9914 12.8856 18.0069 12.8841 18.0222 12.8862C18.0376 12.8882 18.0522 12.8937 18.0651 12.9022C18.2195 13.0028 18.3997 13.0566 18.584 13.0571C18.8078 13.0571 18.9578 12.9404 18.9578 12.7668C18.9578 12.6505 18.9108 12.5236 18.5698 12.3858C18.2131 12.2455 17.8474 12.0428 17.8474 11.6005C17.8477 11.4282 17.9082 11.2615 18.0183 11.129C18.1284 10.9965 18.2813 10.9066 18.4506 10.8748V10.7483C18.4506 10.735 18.4532 10.7218 18.4582 10.7095C18.4633 10.6972 18.4708 10.686 18.4802 10.6765C18.4896 10.6671 18.5008 10.6597 18.5131 10.6546C18.5254 10.6495 18.5386 10.6469 18.552 10.647H18.7997C18.813 10.6469 18.8262 10.6495 18.8385 10.6546C18.8508 10.6597 18.862 10.6671 18.8715 10.6765C18.8809 10.686 18.8883 10.6972 18.8934 10.7095C18.8985 10.7218 18.9011 10.735 18.901 10.7483V10.8464C19.0663 10.8604 19.2264 10.9107 19.3701 10.9936C19.3903 11.0057 19.4058 11.0244 19.4138 11.0466C19.4217 11.0687 19.4218 11.093 19.4139 11.1152L19.3141 11.3791C19.3089 11.3928 19.3007 11.4053 19.2902 11.4155C19.2797 11.4258 19.2671 11.4337 19.2533 11.4387C19.2395 11.4434 19.2249 11.4452 19.2104 11.4439C19.1959 11.4427 19.1818 11.4384 19.169 11.4314C19.032 11.3499 18.8752 11.3078 18.7158 11.3098C18.4782 11.3098 18.3939 11.4351 18.3939 11.5531C18.3939 11.6795 18.4563 11.7622 18.8264 11.9151C19.0135 11.9611 19.1809 12.0662 19.3037 12.2147C19.4265 12.3632 19.4982 12.5472 19.5083 12.7397C19.5063 12.9198 19.4426 13.0937 19.3277 13.2324C19.2128 13.371 19.0537 13.466 18.8771 13.5014V13.6401C18.877 13.6534 18.8743 13.6666 18.869 13.6789C18.8638 13.6912 18.8562 13.7023 18.8467 13.7117C18.8372 13.721 18.8259 13.7284 18.8135 13.7333C18.8011 13.7383 18.7879 13.7408 18.7745 13.7406ZM18.6241 13.5379H18.6732V13.4163C18.6732 13.3923 18.6817 13.3691 18.6972 13.3508C18.7127 13.3326 18.7342 13.3204 18.7579 13.3166C18.9045 13.3047 19.0415 13.2389 19.1424 13.1319C19.2434 13.0249 19.3011 12.8843 19.3044 12.7372C19.3044 12.4458 19.1422 12.2613 18.7482 12.0999C18.4316 11.9694 18.1899 11.8458 18.1899 11.5506C18.1915 11.4856 18.2068 11.4217 18.2348 11.363C18.2627 11.3043 18.3028 11.2523 18.3524 11.2101C18.4019 11.168 18.4598 11.1369 18.5222 11.1187C18.5846 11.1005 18.6501 11.0957 18.7145 11.1047C18.8693 11.1039 19.0225 11.1362 19.1637 11.1995L19.1909 11.1266C19.0661 11.0712 18.9313 11.0417 18.7948 11.0398C18.7686 11.0389 18.7437 11.0278 18.7255 11.0089C18.7073 10.99 18.6971 10.9647 18.6971 10.9385V10.8468H18.6521V10.9543C18.6521 10.9783 18.6436 11.0016 18.6281 11.0199C18.6126 11.0382 18.5911 11.0505 18.5674 11.0544C18.4285 11.0632 18.298 11.1239 18.2019 11.2246C18.1058 11.3253 18.0511 11.4585 18.0489 11.5976C18.0489 11.8595 18.2155 12.0266 18.6436 12.1944C18.8844 12.2917 19.1593 12.4441 19.1593 12.764C19.1557 12.8349 19.1378 12.9044 19.1065 12.9681C19.0752 13.0319 19.0312 13.0886 18.9772 13.1347C18.9233 13.1809 18.8605 13.2155 18.7926 13.2365C18.7248 13.2575 18.6534 13.2645 18.5828 13.257C18.4019 13.2561 18.2236 13.2135 18.0618 13.1325L18.0347 13.2083C18.1873 13.2831 18.3545 13.3233 18.5244 13.3259C18.551 13.3264 18.5763 13.3373 18.5949 13.3563C18.6135 13.3752 18.624 13.4007 18.6241 13.4272V13.5379Z" fill="black"/>
<path d="M18.7745 13.7406H18.5228C18.4959 13.7406 18.4701 13.7299 18.4511 13.7109C18.4321 13.6919 18.4214 13.6661 18.4214 13.6393V13.5262C18.2195 13.5109 18.0244 13.4457 17.8539 13.3364C17.836 13.3236 17.8227 13.3053 17.8162 13.2844C17.8096 13.2634 17.81 13.2408 17.8174 13.2201L17.9135 12.9525C17.9185 12.938 17.9269 12.9249 17.9378 12.9141C17.9488 12.9034 17.9621 12.8953 17.9767 12.8905C17.9914 12.8856 18.0069 12.8841 18.0222 12.8862C18.0376 12.8882 18.0522 12.8937 18.0651 12.9022C18.2195 13.0028 18.3997 13.0566 18.584 13.0571C18.8078 13.0571 18.9578 12.9404 18.9578 12.7668C18.9578 12.6505 18.9108 12.5236 18.5698 12.3858C18.2131 12.2455 17.8474 12.0428 17.8474 11.6005C17.8477 11.4282 17.9082 11.2615 18.0183 11.129C18.1284 10.9965 18.2813 10.9066 18.4506 10.8748V10.7483C18.4506 10.735 18.4532 10.7218 18.4582 10.7095C18.4633 10.6972 18.4708 10.686 18.4802 10.6765C18.4896 10.6671 18.5008 10.6597 18.5131 10.6546C18.5254 10.6495 18.5386 10.6469 18.552 10.647H18.7997C18.813 10.6469 18.8262 10.6495 18.8385 10.6546C18.8508 10.6597 18.862 10.6671 18.8715 10.6765C18.8809 10.686 18.8883 10.6972 18.8934 10.7095C18.8985 10.7218 18.9011 10.735 18.901 10.7483V10.8464C19.0663 10.8604 19.2264 10.9107 19.3701 10.9936C19.3903 11.0057 19.4058 11.0244 19.4138 11.0466C19.4217 11.0687 19.4218 11.093 19.4139 11.1152L19.3141 11.3791C19.3089 11.3928 19.3007 11.4053 19.2902 11.4155C19.2797 11.4258 19.2671 11.4337 19.2533 11.4387C19.2395 11.4434 19.2249 11.4452 19.2104 11.4439C19.1959 11.4427 19.1818 11.4384 19.169 11.4314C19.032 11.3499 18.8752 11.3078 18.7158 11.3098C18.4782 11.3098 18.3939 11.4351 18.3939 11.5531C18.3939 11.6795 18.4563 11.7622 18.8264 11.9151C19.0135 11.9611 19.1809 12.0662 19.3037 12.2147C19.4265 12.3632 19.4982 12.5472 19.5083 12.7397C19.5063 12.9198 19.4426 13.0937 19.3277 13.2324C19.2128 13.371 19.0537 13.466 18.8771 13.5014V13.6401C18.877 13.6534 18.8743 13.6666 18.869 13.6789C18.8638 13.6912 18.8562 13.7023 18.8467 13.7117C18.8372 13.721 18.8259 13.7284 18.8135 13.7333C18.8011 13.7383 18.7879 13.7408 18.7745 13.7406ZM18.6241 13.5379H18.6732V13.4163C18.6732 13.3923 18.6817 13.3691 18.6972 13.3508C18.7127 13.3326 18.7342 13.3204 18.7579 13.3166C18.9045 13.3047 19.0415 13.2389 19.1424 13.1319C19.2434 13.0249 19.3011 12.8843 19.3044 12.7372C19.3044 12.4458 19.1422 12.2613 18.7482 12.0999C18.4316 11.9694 18.1899 11.8458 18.1899 11.5506C18.1915 11.4856 18.2068 11.4217 18.2348 11.363C18.2627 11.3043 18.3028 11.2523 18.3524 11.2101C18.4019 11.168 18.4598 11.1369 18.5222 11.1187C18.5846 11.1005 18.6501 11.0957 18.7145 11.1047C18.8693 11.1039 19.0225 11.1362 19.1637 11.1995L19.1909 11.1266C19.0661 11.0712 18.9313 11.0417 18.7948 11.0398C18.7686 11.0389 18.7437 11.0278 18.7255 11.0089C18.7073 10.99 18.6971 10.9647 18.6971 10.9385V10.8468H18.6521V10.9543C18.6521 10.9783 18.6436 11.0016 18.6281 11.0199C18.6126 11.0382 18.5911 11.0505 18.5674 11.0544C18.4285 11.0632 18.298 11.1239 18.2019 11.2246C18.1058 11.3253 18.0511 11.4585 18.0489 11.5976C18.0489 11.8595 18.2155 12.0266 18.6436 12.1944C18.8844 12.2917 19.1593 12.4441 19.1593 12.764C19.1557 12.8349 19.1378 12.9044 19.1065 12.9681C19.0752 13.0319 19.0312 13.0886 18.9772 13.1347C18.9233 13.1809 18.8605 13.2155 18.7926 13.2365C18.7248 13.2575 18.6534 13.2645 18.5828 13.257C18.4019 13.2561 18.2236 13.2135 18.0618 13.1325L18.0347 13.2083C18.1873 13.2831 18.3545 13.3233 18.5244 13.3259C18.551 13.3264 18.5763 13.3373 18.5949 13.3563C18.6135 13.3752 18.624 13.4007 18.6241 13.4272V13.5379Z" fill="url(#paint7_linear)"/>
<path d="M20.5499 6.60337H16.6925C16.5835 6.604 16.475 6.58702 16.3714 6.5531C16.1458 6.4853 15.948 6.3465 15.8076 6.15733C15.6671 5.96815 15.5914 5.73871 15.5918 5.5031C15.5904 5.25733 15.6719 5.01825 15.8233 4.8246C15.9746 4.63095 16.1869 4.49405 16.4257 4.43608C16.5127 4.41257 16.6024 4.40124 16.6925 4.40243H20.5499C20.6641 4.4019 20.7776 4.42054 20.8856 4.45756C21.0654 4.51471 21.2274 4.61727 21.356 4.75533C21.4846 4.89339 21.5754 5.06228 21.6197 5.24569C21.664 5.42909 21.6602 5.62081 21.6087 5.80233C21.5572 5.98384 21.4598 6.14901 21.3259 6.28189C21.1979 6.40971 21.0398 6.50326 20.8661 6.55391C20.7642 6.58779 20.6573 6.60451 20.5499 6.60337ZM16.6925 5.21324C16.6726 5.21257 16.6527 5.21462 16.6333 5.21932C16.5759 5.23177 16.523 5.25983 16.4805 5.3004C16.4301 5.35588 16.4024 5.42819 16.4026 5.5031C16.4026 5.56521 16.4227 5.62564 16.46 5.6753C16.4973 5.72495 16.5497 5.76113 16.6094 5.77837C16.6354 5.78767 16.6628 5.79247 16.6905 5.79256H20.5499C20.5729 5.79318 20.5958 5.78989 20.6176 5.78283C20.6684 5.77059 20.7149 5.74513 20.7526 5.70905C20.7885 5.6743 20.8147 5.63076 20.8286 5.58276C20.8425 5.53477 20.8436 5.48397 20.8318 5.43542C20.82 5.38686 20.7957 5.34224 20.7613 5.30597C20.727 5.2697 20.6837 5.24304 20.6359 5.22864C20.6084 5.21848 20.5793 5.21327 20.5499 5.21324H16.6925Z" fill="black"/>
<path d="M20.5499 6.60337H16.6925C16.5835 6.604 16.475 6.58702 16.3714 6.5531C16.1458 6.4853 15.948 6.3465 15.8076 6.15733C15.6671 5.96815 15.5914 5.73871 15.5918 5.5031C15.5904 5.25733 15.6719 5.01825 15.8233 4.8246C15.9746 4.63095 16.1869 4.49405 16.4257 4.43608C16.5127 4.41257 16.6024 4.40124 16.6925 4.40243H20.5499C20.6641 4.4019 20.7776 4.42054 20.8856 4.45756C21.0654 4.51471 21.2274 4.61727 21.356 4.75533C21.4846 4.89339 21.5754 5.06228 21.6197 5.24569C21.664 5.42909 21.6602 5.62081 21.6087 5.80233C21.5572 5.98384 21.4598 6.14901 21.3259 6.28189C21.1979 6.40971 21.0398 6.50326 20.8661 6.55391C20.7642 6.58779 20.6573 6.60451 20.5499 6.60337ZM16.6925 5.21324C16.6726 5.21257 16.6527 5.21462 16.6333 5.21932C16.5759 5.23177 16.523 5.25983 16.4805 5.3004C16.4301 5.35588 16.4024 5.42819 16.4026 5.5031C16.4026 5.56521 16.4227 5.62564 16.46 5.6753C16.4973 5.72495 16.5497 5.76113 16.6094 5.77837C16.6354 5.78767 16.6628 5.79247 16.6905 5.79256H20.5499C20.5729 5.79318 20.5958 5.78989 20.6176 5.78283C20.6684 5.77059 20.7149 5.74513 20.7526 5.70905C20.7885 5.6743 20.8147 5.63076 20.8286 5.58276C20.8425 5.53477 20.8436 5.48397 20.8318 5.43542C20.82 5.38686 20.7957 5.34224 20.7613 5.30597C20.727 5.2697 20.6837 5.24304 20.6359 5.22864C20.6084 5.21848 20.5793 5.21327 20.5499 5.21324H16.6925Z" fill="url(#paint8_linear)"/>
<defs>
<linearGradient id="paint0_linear" x1="17.8117" y1="19.624" x2="46.4716" y2="31.772" gradientUnits="userSpaceOnUse">
<stop stop-color="#FE173F"/>
<stop offset="1" stop-color="#240B36"/>
</linearGradient>
<linearGradient id="paint1_linear" x1="12.8302" y1="15.9112" x2="28.6948" y2="22.9644" gradientUnits="userSpaceOnUse">
<stop stop-color="#FE173F"/>
<stop offset="1" stop-color="#240B36"/>
</linearGradient>
<linearGradient id="paint2_linear" x1="4.02947" y1="17.0896" x2="13.479" y2="18.1476" gradientUnits="userSpaceOnUse">
<stop stop-color="#FE173F"/>
<stop offset="1" stop-color="#240B36"/>
</linearGradient>
<linearGradient id="paint3_linear" x1="18.625" y1="9.90515" x2="37.417" y2="15.8075" gradientUnits="userSpaceOnUse">
<stop stop-color="#FE173F"/>
<stop offset="1" stop-color="#240B36"/>
</linearGradient>
<linearGradient id="paint4_linear" x1="18.6202" y1="2.59582" x2="28.4558" y2="6.63093" gradientUnits="userSpaceOnUse">
<stop stop-color="#FE173F"/>
<stop offset="1" stop-color="#240B36"/>
</linearGradient>
<linearGradient id="paint5_linear" x1="18.6578" y1="11.6008" x2="27.0081" y2="13.5575" gradientUnits="userSpaceOnUse">
<stop stop-color="#FE173F"/>
<stop offset="1" stop-color="#240B36"/>
</linearGradient>
<linearGradient id="paint6_linear" x1="18.6586" y1="11.9056" x2="20.8468" y2="12.1706" gradientUnits="userSpaceOnUse">
<stop stop-color="#FE173F"/>
<stop offset="1" stop-color="#240B36"/>
</linearGradient>
<linearGradient id="paint7_linear" x1="18.6599" y1="11.8844" x2="21.1407" y2="12.2033" gradientUnits="userSpaceOnUse">
<stop stop-color="#FE173F"/>
<stop offset="1" stop-color="#240B36"/>
</linearGradient>
<linearGradient id="paint8_linear" x1="18.6211" y1="5.28278" x2="24.9799" y2="9.38423" gradientUnits="userSpaceOnUse">
<stop stop-color="#FE173F"/>
<stop offset="1" stop-color="#240B36"/>
</linearGradient>
</defs>
</svg>
