<svg width="40" height="35" viewBox="0 0 40 35" fill="none" xmlns="http://www.w3.org/2000/svg">
<path d="M30.8333 35C30.5133 35 30.1933 34.8783 29.95 34.6333L22.0333 26.7167C21.6766 26.36 21.5683 25.8217 21.7616 25.355C21.955 24.8883 22.4116 24.5833 22.9166 24.5833H26.6666V17.0833C26.6666 15.935 27.6016 15 28.75 15H32.9166C34.065 15 35 15.935 35 17.0833V24.5833H38.75C39.255 24.5833 39.7116 24.8883 39.905 25.355C40.0983 25.8217 39.9916 26.36 39.6333 26.7167L31.7166 34.6333C31.4733 34.8783 31.1533 35 30.8333 35Z" fill="white"/>
<path d="M35 0H5C2.25 0 0 2.25 0 5V25C0 27.75 2.25 30 5 30H20.6167L19.6833 29.0667C19 28.4 18.5833 27.5667 18.4167 26.6667H5C4.08333 26.6667 3.33333 25.9167 3.33333 25V5C3.33333 4.08333 4.08333 3.33333 5 3.33333H35C35.9167 3.33333 36.6667 4.08333 36.6667 5V13.1667C37.6833 14.1667 38.3333 15.55 38.3333 17.0833V21.25H38.75C39.1833 21.25 39.6 21.3167 40 21.4333V5C40 2.25 37.75 0 35 0Z" fill="white"/>
<path d="M12.0835 8.33398H2.0835C1.3935 8.33398 0.833496 8.89398 0.833496 9.58398V20.4173C0.833496 21.1073 1.3935 21.6673 2.0835 21.6673H12.0835C14.6118 21.6673 16.6668 19.6123 16.6668 17.084V12.9173C16.6668 10.389 14.6118 8.33398 12.0835 8.33398ZM10.0002 18.334C8.1585 18.334 6.66683 16.8423 6.66683 15.0006C6.66683 13.159 8.1585 11.6673 10.0002 11.6673C11.8418 11.6673 13.3335 13.159 13.3335 15.0006C13.3335 16.8423 11.8418 18.334 10.0002 18.334Z" fill="white"/>
</svg>
