<svg width="56" height="56" viewBox="0 0 56 56" fill="none" xmlns="http://www.w3.org/2000/svg">
<g filter="url(#filter0_d)">
<circle cx="28" cy="26" r="19" fill="#111111"/>
<circle cx="28" cy="26" r="19" fill="url(#paint0_linear)"/>
<circle cx="28" cy="26" r="19" fill="url(#paint1_radial)"/>
<circle cx="28" cy="26" r="19" stroke="#EB2163" stroke-width="2"/>
<circle cx="28" cy="26" r="19" stroke="url(#paint2_linear)" stroke-width="2"/>
<circle cx="28" cy="26" r="19" stroke="#FFD43B" stroke-width="2"/>
</g>
<g clip-path="url(#clip0)" filter="url(#filter1_i)">
<path d="M32.1356 29.7873C32.1433 28.9093 31.7656 28.2695 31.1708 27.809C30.6052 27.371 29.8485 27.0979 29.0786 26.8799L28.4424 26.6997V27.361V32.2627V32.8272L29.0027 32.7591C30.0937 32.6264 30.8849 32.22 31.4044 31.6552C31.9209 31.0936 32.1351 30.4113 32.1356 29.7873ZM32.1356 29.7873C32.1356 29.7881 32.1356 29.7889 32.1356 29.7897L31.6356 29.7849M32.1356 29.7873C32.1356 29.7865 32.1356 29.7857 32.1356 29.7849H31.6356M31.6356 29.7849C31.6356 30.7177 31.054 31.807 29.4424 32.1762V32.2627H28.9424L28.882 31.7664C28.9023 31.7639 28.9224 31.7614 28.9424 31.7587V27.8814C28.8975 27.8682 28.8521 27.8551 28.8061 27.8421L28.9424 27.361H29.4424V27.5132C30.7158 27.9329 31.6476 28.5302 31.6356 29.7849ZM28.4424 24.6677V25.0505L28.8119 25.1503C30.0581 25.4872 31.2635 25.8788 32.158 26.5408C33.0196 27.1785 33.5999 28.0714 33.5999 29.4887C33.5999 30.5704 33.263 31.5918 32.5349 32.3687C31.8092 33.1429 30.649 33.723 28.9094 33.8377L28.4423 33.8685V34.3366V35.8449C28.4423 36.0226 28.2985 36.1663 28.1208 36.1663H28.1084L28.096 36.1669C27.9132 36.176 27.7577 36.0362 27.7466 35.8547C27.7464 35.8488 27.7461 35.8437 27.7459 35.8396L27.7455 35.8329V34.3636V33.8795L27.2617 33.8638C25.5149 33.8072 23.8445 33.1364 22.5428 31.9699C22.45 31.8712 22.3987 31.7409 22.3993 31.6054H22.3994L22.3993 31.5965C22.3948 31.2468 22.6572 30.9543 23.0018 30.9187C23.1288 30.926 23.2497 30.9715 23.3477 31.048C24.435 31.9603 25.7603 32.5428 27.1656 32.7314L27.7321 32.8074V32.2358V26.8492V26.4664L27.3625 26.3665C26.1079 26.0275 24.9196 25.6654 24.041 25.0453C23.2003 24.4519 22.6418 23.6221 22.6418 22.2706C22.6418 20.1172 24.4167 18.3935 27.2676 18.1908L27.7321 18.1578V17.6921V16.1613C27.7362 15.9805 27.8828 15.8364 28.0624 15.834L28.0722 15.8354H28.1074C28.2851 15.8354 28.4289 15.9792 28.4289 16.1569V17.7459V18.2181L28.9003 18.2451C30.3356 18.3273 31.7054 18.8761 32.8003 19.8068C32.8905 19.9047 32.9405 20.0328 32.9402 20.166C32.9356 20.5237 32.6444 20.8126 32.2855 20.8145C32.1907 20.8126 32.1 20.7845 32.0214 20.7329C31.1422 20.064 30.1149 19.6182 29.0255 19.4345L28.4424 19.3361V19.9275V24.6677ZM27.1047 24.7165L27.7456 24.9046V24.2367V19.8332V19.2933L27.2073 19.3347C25.4738 19.468 24.1331 20.5037 24.1331 22.1091C24.1331 22.9295 24.5268 23.4967 25.1065 23.8935C25.6506 24.2661 26.378 24.5032 27.1047 24.7165Z" stroke="#FFD43B"/>
</g>
<defs>
<filter id="filter0_d" x="0" y="0" width="56" height="56" filterUnits="userSpaceOnUse" color-interpolation-filters="sRGB">
<feFlood flood-opacity="0" result="BackgroundImageFix"/>
<feColorMatrix in="SourceAlpha" type="matrix" values="0 0 0 0 0 0 0 0 0 0 0 0 0 0 0 0 0 0 127 0"/>
<feOffset dy="2"/>
<feGaussianBlur stdDeviation="4"/>
<feColorMatrix type="matrix" values="0 0 0 0 0 0 0 0 0 0 0 0 0 0 0 0 0 0 0.4 0"/>
<feBlend mode="normal" in2="BackgroundImageFix" result="effect1_dropShadow"/>
<feBlend mode="normal" in="SourceGraphic" in2="effect1_dropShadow" result="shape"/>
</filter>
<filter id="filter1_i" x="17.3333" y="15.334" width="21.3333" height="22.3333" filterUnits="userSpaceOnUse" color-interpolation-filters="sRGB">
<feFlood flood-opacity="0" result="BackgroundImageFix"/>
<feBlend mode="normal" in="SourceGraphic" in2="BackgroundImageFix" result="shape"/>
<feColorMatrix in="SourceAlpha" type="matrix" values="0 0 0 0 0 0 0 0 0 0 0 0 0 0 0 0 0 0 127 0" result="hardAlpha"/>
<feOffset dy="1"/>
<feGaussianBlur stdDeviation="0.5"/>
<feComposite in2="hardAlpha" operator="arithmetic" k2="-1" k3="1"/>
<feColorMatrix type="matrix" values="0 0 0 0 0 0 0 0 0 0 0 0 0 0 0 0 0 0 0.5 0"/>
<feBlend mode="normal" in2="shape" result="effect1_innerShadow"/>
</filter>
<linearGradient id="paint0_linear" x1="8" y1="7.2037" x2="13.9411" y2="54.9189" gradientUnits="userSpaceOnUse">
<stop stop-color="#2F4D52"/>
<stop offset="0.435761" stop-color="#152E32"/>
<stop offset="1" stop-color="#091416"/>
</linearGradient>
<radialGradient id="paint1_radial" cx="0" cy="0" r="1" gradientUnits="userSpaceOnUse" gradientTransform="translate(15.2152 2.22641) rotate(80.5889) scale(43.3508 55.9449)">
<stop stop-color="#494949"/>
<stop offset="1" stop-color="#111111"/>
</radialGradient>
<linearGradient id="paint2_linear" x1="46.56" y1="-253.993" x2="19.575" y2="-253.965" gradientUnits="userSpaceOnUse">
<stop stop-color="#EB2163"/>
<stop offset="1" stop-color="#950552"/>
</linearGradient>
<clipPath id="clip0">
<rect width="21.3333" height="21.3333" fill="white" transform="translate(17.3333 15.334)"/>
</clipPath>
</defs>
</svg>
