<svg width="1137" height="1137" viewBox="0 0 1137 1137" fill="none" xmlns="http://www.w3.org/2000/svg">
<path d="M1137 568.5C1137 882.474 882.474 1137 568.5 1137C402.985 1137 253.992 1066.27 150.107 953.386C122.819 923.754 98.6637 891.199 78.1049 856.277C28.4714 771.86 0 673.498 0 568.5C0 254.526 254.526 0 568.5 0C673.522 0 771.884 28.4714 856.277 78.1281C891.199 98.6637 923.731 122.819 953.363 150.13C1066.25 253.969 1137 402.985 1137 568.5Z" fill="#F0CD00"/>
<path d="M1137 568.5C1137 875.397 893.844 1125.49 589.662 1136.61C285.48 1125.49 42.3242 875.397 42.3242 568.5C42.3242 261.603 285.48 11.5092 589.662 0.394409C893.844 11.5092 1137 261.603 1137 568.5Z" fill="#FFDE50"/>
<path d="M953.362 150.13L150.107 953.386C122.819 923.754 98.6633 891.199 78.1045 856.277L856.276 78.1282C891.199 98.6638 923.731 122.819 953.362 150.13Z" fill="#FFEA94"/>
<path d="M1097.79 360.661L360.638 1097.81C308.452 1077.3 260.025 1049.29 216.703 1015.11L1015.11 216.703C1049.29 260.025 1077.3 308.452 1097.79 360.661Z" fill="#FFEA94"/>
<path d="M1010.26 568.5C1010.26 812.468 812.467 1010.26 568.5 1010.26C483.526 1010.26 404.168 986.266 336.807 944.685C307.454 926.585 280.398 905.122 256.126 880.85C238.282 863.029 221.947 843.654 207.351 822.979C187.256 794.508 170.434 763.554 157.462 730.673C138.249 682.061 127.436 629.202 126.787 573.93C126.74 572.12 126.74 570.31 126.74 568.5C126.74 324.532 324.509 126.741 568.5 126.741C570.31 126.741 572.143 126.741 573.953 126.787C629.225 127.437 682.06 138.273 730.673 157.463C763.553 170.457 794.507 187.257 822.979 207.352C843.654 221.97 863.006 238.283 880.85 256.127C905.121 280.375 926.585 307.454 944.684 336.807C986.266 404.169 1010.26 483.527 1010.26 568.5Z" fill="#FAA300"/>
<path d="M880.85 256.127L256.126 880.85C238.282 863.029 221.947 843.654 207.351 822.979C187.256 794.508 170.434 763.554 157.462 730.673C138.249 682.061 127.436 629.202 126.787 573.93C126.74 572.12 126.74 570.31 126.74 568.5C126.74 324.532 324.509 126.741 568.5 126.741C570.309 126.741 572.143 126.741 573.953 126.787C629.225 127.437 682.06 138.273 730.673 157.463C763.553 170.457 794.507 187.257 822.979 207.352C843.654 221.97 863.006 238.283 880.85 256.127Z" fill="#FFBD00"/>
<path d="M1010.25 568.5C1010.25 812.468 812.456 1010.26 568.488 1010.26C560.112 1010.26 551.805 1010.03 543.544 1009.56C775.91 996.638 960.336 804.091 960.336 568.5C960.336 332.909 775.91 140.362 543.544 127.437C551.805 126.973 560.112 126.741 568.488 126.741C812.456 126.741 1010.25 324.532 1010.25 568.5Z" fill="#F68E00"/>
<path d="M593.947 537.555V358.649C621.829 374.031 640.764 403.718 640.764 437.752C640.764 461.759 660.225 481.22 684.232 481.22C708.239 481.22 727.7 461.759 727.7 437.752C727.7 355.027 670.718 285.373 593.947 265.942V230.56C593.947 206.553 574.486 187.092 550.479 187.092C526.472 187.092 507.011 206.553 507.011 230.56V265.939C430.24 285.373 373.258 355.024 373.258 437.749C373.258 487.144 387.765 525.663 417.608 555.505C439.366 577.264 468.269 593.365 507.011 605.169V784.356C479.129 768.974 460.194 739.289 460.194 705.255C460.194 681.248 440.733 661.787 416.726 661.787C392.719 661.787 373.258 681.248 373.258 705.255C373.258 787.98 430.24 857.632 507.011 877.065V912.444C507.011 936.451 526.472 955.913 550.479 955.913C574.486 955.913 593.947 936.451 593.947 912.444V877.065C670.718 857.632 727.7 787.982 727.7 705.255C727.7 656.545 712.571 616.72 682.735 586.884C661.051 565.198 631.788 548.941 593.947 537.555ZM479.082 494.033C470.288 485.241 460.197 470.896 460.197 437.749C460.197 403.716 479.131 374.031 507.013 358.647V512.527C495.288 507.097 486.006 500.96 479.082 494.033ZM593.947 784.356V630C631.726 647.593 640.764 672.763 640.764 705.255C640.764 739.289 621.829 768.974 593.947 784.356Z" fill="#F68E00"/>
<path d="M611.961 534.555V355.649C639.843 371.031 658.777 400.718 658.777 434.752C658.777 458.759 678.239 478.22 702.246 478.22C726.253 478.22 745.714 458.759 745.714 434.752C745.714 352.027 688.732 282.373 611.961 262.942V227.56C611.961 203.553 592.5 184.092 568.493 184.092C544.486 184.092 525.024 203.553 525.024 227.56V262.939C448.254 282.373 391.271 352.024 391.271 434.749C391.271 484.144 405.779 522.663 435.621 552.505C457.38 574.264 486.283 590.365 525.024 602.169V781.356C497.142 765.974 478.208 736.289 478.208 702.255C478.208 678.248 458.747 658.787 434.74 658.787C410.733 658.787 391.271 678.248 391.271 702.255C391.271 784.98 448.254 854.632 525.024 874.065V909.444C525.024 933.451 544.486 952.913 568.493 952.913C592.5 952.913 611.961 933.451 611.961 909.444V874.065C688.732 854.632 745.714 784.982 745.714 702.255C745.714 653.545 730.585 613.72 700.749 583.884C679.065 562.198 649.8 545.941 611.961 534.555ZM497.094 491.033C488.299 482.241 478.208 467.896 478.208 434.749C478.208 400.716 497.142 371.031 525.024 355.647V509.527C513.302 504.097 504.02 497.96 497.094 491.033ZM611.961 781.356V627C649.739 644.593 658.777 669.763 658.777 702.255C658.775 736.289 639.843 765.974 611.961 781.356Z" fill="#FFEA94"/>
</svg>
