<svg width="34" height="34" viewBox="0 0 34 34" fill="none" xmlns="http://www.w3.org/2000/svg">
<path d="M34 17C34 26.3889 26.3889 34 17 34C12.0506 34 7.59518 31.8851 4.48869 28.5093C3.67269 27.6233 2.95037 26.6498 2.33559 25.6055C0.851388 23.0811 0 20.1398 0 17C0 7.61114 7.61114 0 17 0C20.1405 0 23.0818 0.851388 25.6055 2.33629C26.6498 2.95037 27.6226 3.67269 28.5086 4.48939C31.8844 7.59449 34 12.0506 34 17Z" fill="#F0CD00"/>
<path d="M34 16.9999C34 26.1771 26.7288 33.6558 17.6328 33.9881C8.53677 33.6558 1.26562 26.1771 1.26562 16.9999C1.26562 7.8227 8.53677 0.344086 17.6328 0.0117188C26.7288 0.344086 34 7.8227 34 16.9999Z" fill="#FFDE50"/>
<path d="M28.5087 4.49002L4.4887 28.51C3.6727 27.6239 2.95038 26.6504 2.3356 25.6061L25.6055 2.33691C26.6498 2.951 27.6226 3.67332 28.5087 4.49002Z" fill="#FFEA94"/>
<path d="M32.8274 10.7843L10.7843 32.8274C9.22376 32.214 7.77563 31.3765 6.48016 30.3544L30.3551 6.47949C31.3772 7.77496 32.2147 9.22308 32.8274 10.7843Z" fill="#FFEA94"/>
<path d="M30.2101 16.9991C30.2101 24.2945 24.2954 30.2091 17 30.2091C14.459 30.2091 12.086 29.4917 10.0717 28.2482C9.1939 27.707 8.38484 27.0652 7.65904 26.3394C7.12545 25.8065 6.63696 25.2271 6.20051 24.6089C5.59961 23.7575 5.09655 22.8318 4.70867 21.8486C4.13414 20.3949 3.81079 18.8143 3.79137 17.1615C3.78998 17.1073 3.78998 17.0532 3.78998 16.9991C3.78998 9.70368 9.7039 3.78906 17 3.78906C17.0541 3.78906 17.109 3.78906 17.1631 3.79045C18.8159 3.80988 20.3959 4.13392 21.8495 4.70776C22.8328 5.09633 23.7584 5.5987 24.6098 6.19959C25.228 6.63674 25.8067 7.12453 26.3403 7.65812C27.0661 8.38323 27.7079 9.19298 28.2492 10.0707C29.4926 12.0851 30.2101 14.4581 30.2101 16.9991Z" fill="#FAA300"/>
<path d="M26.3403 7.65811L7.65904 26.3393C7.12545 25.8064 6.63696 25.227 6.20051 24.6088C5.59961 23.7574 5.09655 22.8318 4.70867 21.8486C4.13414 20.3949 3.81079 18.8142 3.79137 17.1614C3.78998 17.1073 3.78998 17.0532 3.78998 16.9991C3.78998 9.70366 9.7039 3.78906 17 3.78906C17.0541 3.78906 17.109 3.78906 17.1631 3.79045C18.8159 3.80988 20.3959 4.13392 21.8495 4.70775C22.8328 5.09632 23.7584 5.59869 24.6098 6.19959C25.228 6.63673 25.8067 7.12452 26.3403 7.65811Z" fill="#FFBD00"/>
<path d="M30.2096 16.9991C30.2096 24.2945 24.295 30.2091 16.9996 30.2091C16.7491 30.2091 16.5007 30.2022 16.2537 30.1883C23.2022 29.8018 28.7171 24.044 28.7171 16.9991C28.7171 9.95416 23.2022 4.19637 16.2537 3.80988C16.5007 3.796 16.7491 3.78906 16.9996 3.78906C24.295 3.78906 30.2096 9.70368 30.2096 16.9991Z" fill="#F68E00"/>
<path d="M17.761 16.0747V10.7248C18.5947 11.1848 19.1609 12.0726 19.1609 13.0903C19.1609 13.8082 19.7429 14.3901 20.4608 14.3901C21.1786 14.3901 21.7606 13.8082 21.7606 13.0903C21.7606 10.6165 20.0566 8.53364 17.761 7.95259V6.89457C17.761 6.17668 17.179 5.59473 16.4611 5.59473C15.7432 5.59473 15.1613 6.17668 15.1613 6.89457V7.95252C12.8656 8.53364 11.1616 10.6165 11.1616 13.0902C11.1616 14.5673 11.5954 15.7191 12.4878 16.6115C13.1385 17.2621 14.0028 17.7436 15.1613 18.0966V23.4549C14.3275 22.9949 13.7613 22.1072 13.7613 21.0895C13.7613 20.3716 13.1793 19.7897 12.4615 19.7897C11.7436 19.7897 11.1616 20.3716 11.1616 21.0895C11.1616 23.5632 12.8656 25.6461 15.1613 26.2272V27.2851C15.1613 28.003 15.7432 28.585 16.4611 28.585C17.179 28.585 17.761 28.003 17.761 27.2851V26.2272C20.0566 25.6461 21.7606 23.5633 21.7606 21.0895C21.7606 19.6329 21.3082 18.442 20.416 17.5498C19.7676 16.9013 18.8925 16.4152 17.761 16.0747ZM14.3261 14.7733C14.0631 14.5104 13.7614 14.0814 13.7614 13.0902C13.7614 12.0725 14.3276 11.1848 15.1613 10.7248V15.3263C14.8107 15.1639 14.5332 14.9804 14.3261 14.7733ZM17.761 23.4549V18.8391C18.8907 19.3652 19.1609 20.1179 19.1609 21.0895C19.1609 22.1072 18.5947 22.9949 17.761 23.4549Z" fill="#F68E00"/>
<path d="M18.2996 15.9849V10.635C19.1334 11.095 19.6996 11.9827 19.6996 13.0004C19.6996 13.7183 20.2815 14.3003 20.9994 14.3003C21.7173 14.3003 22.2992 13.7183 22.2992 13.0004C22.2992 10.5267 20.5953 8.4438 18.2996 7.86275V6.80472C18.2996 6.08684 17.7177 5.50488 16.9998 5.50488C16.2819 5.50488 15.6999 6.08684 15.6999 6.80472V7.86268C13.4043 8.4438 11.7003 10.5266 11.7003 13.0004C11.7003 14.4774 12.1341 15.6292 13.0265 16.5216C13.6772 17.1723 14.5415 17.6538 15.6999 18.0068V23.365C14.8662 22.905 14.3 22.0174 14.3 20.9997C14.3 20.2818 13.718 19.6998 13.0002 19.6998C12.2823 19.6998 11.7003 20.2818 11.7003 20.9997C11.7003 23.4734 13.4043 25.5562 15.6999 26.1373V27.1953C15.6999 27.9132 16.2819 28.4951 16.9998 28.4951C17.7177 28.4951 18.2996 27.9132 18.2996 27.1953V26.1373C20.5953 25.5562 22.2992 23.4735 22.2992 20.9997C22.2992 19.5431 21.8468 18.3522 20.9546 17.46C20.3062 16.8115 19.4311 16.3253 18.2996 15.9849ZM14.8647 14.6834C14.6018 14.4205 14.3 13.9916 14.3 13.0004C14.3 11.9826 14.8662 11.095 15.6999 10.6349V15.2364C15.3494 15.0741 15.0718 14.8905 14.8647 14.6834ZM18.2996 23.365V18.7493C19.4293 19.2754 19.6996 20.028 19.6996 20.9997C19.6995 22.0174 19.1334 22.905 18.2996 23.365Z" fill="#FFEA94"/>
</svg>
