<svg width="15" height="15" viewBox="0 0 15 15" fill="none" xmlns="http://www.w3.org/2000/svg">
<path opacity="0.2" d="M13.7597 0.656534C12.8843 -0.218845 11.4651 -0.218845 10.5898 0.656534L1.70328 9.54301C1.64238 9.60391 1.59841 9.67941 1.57545 9.7623L0.406848 13.9812C0.358789 14.1542 0.407626 14.3394 0.534487 14.4665C0.661543 14.5933 0.846775 14.6422 1.01975 14.5943L5.23865 13.4255C5.32154 13.4025 5.39703 13.3586 5.45793 13.2977L14.3442 4.41099C15.2182 3.53503 15.2182 2.11699 14.3442 1.24103L13.7597 0.656534ZM2.7886 9.86678L10.0615 2.59369L12.4071 4.93925L5.13397 12.2123L2.7886 9.86678ZM2.32007 10.807L4.19399 12.6811L1.60191 13.3992L2.32007 10.807ZM13.6399 3.70664L13.1116 4.2349L10.7659 1.88915L11.2943 1.36088C11.7805 0.874649 12.5689 0.874649 13.0552 1.36088L13.6399 1.94538C14.1253 2.4322 14.1253 3.22002 13.6399 3.70664Z" fill="white"/>
</svg>
