<svg width="20" height="20" viewBox="0 0 20 20" fill="none" xmlns="http://www.w3.org/2000/svg">
<path d="M10 8.24219C9.0307 8.24219 8.24219 9.0307 8.24219 10C8.24219 10.9693 9.0307 11.7578 10 11.7578C10.9693 11.7578 11.7578 10.9693 11.7578 10C11.7578 9.0307 10.9693 8.24219 10 8.24219Z" fill="white"/>
<path d="M10 0C4.50742 0 0 4.50742 0 10C0 15.4926 4.50742 20 10 20C15.4926 20 20 15.4926 20 10C20 4.50742 15.4926 0 10 0ZM16.4453 10.5859C16.4453 11.8786 15.3942 12.9297 14.1016 12.9297C13.3096 12.9297 12.6112 12.5328 12.1868 11.9298C11.6496 12.5379 10.8732 12.9297 10 12.9297C8.38465 12.9297 7.07031 11.6154 7.07031 10C7.07031 8.38465 8.38465 7.07031 10 7.07031C10.662 7.07031 11.2666 7.29941 11.7578 7.67121V7.65625H12.9297V10C12.9297 10.2006 12.909 10.3965 12.8704 10.5859H12.9297C12.9297 11.232 13.4555 11.7578 14.1016 11.7578C14.7476 11.7578 15.2734 11.232 15.2734 10.5859V10C15.2734 7.09207 12.9079 4.72656 10 4.72656C7.09207 4.72656 4.72656 7.09207 4.72656 10C4.72656 12.9079 7.09207 15.2734 10 15.2734C11.1719 15.2734 12.2802 14.8981 13.2055 14.1874L13.9196 15.1166C12.7872 15.9858 11.4322 16.4453 10 16.4453C6.44605 16.4453 3.55469 13.5539 3.55469 10C3.55469 6.44605 6.44605 3.55469 10 3.55469C13.5539 3.55469 16.4453 6.44605 16.4453 10V10.5859Z" fill="white"/>
</svg>
