<svg width="18" height="30" viewBox="0 0 18 30" fill="none" xmlns="http://www.w3.org/2000/svg">
<path d="M6.01613 29.9288C6.41299 30.0984 6.87442 29.9568 7.10621 29.5906L17.6531 12.8328C17.8239 12.5616 17.8342 12.2191 17.6797 11.9393C17.5252 11.6587 17.2299 11.4844 16.9098 11.4844H9.87078L12.4886 1.09522C12.5942 0.675512 12.3805 0.242035 11.9831 0.0712345C11.5883 -0.0986873 11.1239 0.0437541 10.893 0.409379L0.346135 17.1672C0.175334 17.4384 0.165021 17.7809 0.319533 18.0607C0.474045 18.3414 0.769299 18.5156 1.08946 18.5156H8.12844L5.51059 28.9048C5.405 29.3246 5.61869 29.758 6.01613 29.9288Z" fill="white"/>
</svg>
