<svg width="30" height="28" viewBox="0 0 30 28" fill="none" xmlns="http://www.w3.org/2000/svg">
<path d="M29.9621 8.68614C29.7566 6.52395 28.7163 4.48454 27.033 2.94343C25.3499 1.40256 23.2175 0.527725 21.0283 0.480081C18.8327 0.432494 16.7568 1.21064 14.9767 2.7392C13.0918 1.17372 10.9635 0.385787 8.77741 0.451834C6.62003 0.517235 4.52869 1.42032 2.88878 2.99465C1.23645 4.58094 0.222073 6.66372 0.0324901 8.85925C-0.179597 11.3162 0.649705 13.6907 2.43085 15.7262C2.43941 15.7359 2.44814 15.7455 2.45711 15.7549C2.53405 15.8353 5.58016 19.0193 8.5706 22.145L12.8817 26.6513C13.4375 27.2321 14.1857 27.552 14.9885 27.552C15.7914 27.552 16.5395 27.2321 17.0951 26.6514L22.9233 20.5599C25.3013 18.0744 27.3761 15.9059 27.5204 15.7551C27.5424 15.7322 27.5629 15.7083 27.5819 15.6836C29.3695 13.529 30.1925 11.1099 29.9621 8.68614ZM26.2232 14.5679C25.9364 14.8677 23.9343 16.9602 21.6531 19.3445L15.825 25.4359C15.6041 25.6667 15.3072 25.7939 14.9887 25.7939C14.6701 25.7939 14.3731 25.6667 14.1523 25.4359L9.84113 20.9296C6.93602 17.8933 3.97852 14.802 3.74147 14.5541C0.500266 10.8358 1.65693 6.61444 4.10639 4.26296C7.52856 0.977686 11.7337 2.04638 14.3832 4.56277C14.7283 4.89055 15.2717 4.88422 15.609 4.54818C19.0881 1.08276 23.3543 1.95918 25.8459 4.24016C28.3802 6.5604 29.4773 10.6519 26.2232 14.5679Z" fill="white"/>
</svg>
