<svg width="40" height="40" viewBox="0 0 40 40" fill="none" xmlns="http://www.w3.org/2000/svg">
<g clip-path="url(#clip0)">
<path d="M34.9145 23.4195C34.4563 17.4539 31.6788 13.7155 29.2285 10.4166C26.9596 7.36257 25 4.72523 25 0.834761C25 0.522261 24.825 0.236636 24.5475 0.0934326C24.2691 -0.05063 23.9347 -0.0270362 23.6816 0.15687C20.0016 2.79015 16.9312 7.22836 15.8586 11.463C15.114 14.4112 15.0155 17.7256 15.0016 19.9146C11.6032 19.1887 10.8334 14.1053 10.8252 14.0499C10.787 13.7862 10.6259 13.5568 10.3915 13.4315C10.1547 13.3078 9.87633 13.2988 9.63625 13.4177C9.45805 13.5039 5.26203 15.6359 5.01789 24.1485C5.00078 24.4317 5 24.7158 5 24.9998C5 33.2698 11.7293 39.9987 20 39.9987C20.0114 39.9995 20.0236 40.0012 20.0334 39.9987C20.0366 39.9987 20.0398 39.9987 20.0439 39.9987C28.2943 39.9751 35 33.2552 35 24.9998C35 24.5839 34.9145 23.4195 34.9145 23.4195ZM20 38.3322C17.2428 38.3322 15 35.943 15 33.0062C15 32.9062 14.9992 32.8052 15.0065 32.6816C15.0398 31.443 15.2751 30.5976 15.533 30.0352C16.0165 31.0736 16.8807 32.0281 18.2845 32.0281C18.7452 32.0281 19.1179 31.6554 19.1179 31.1948C19.1179 30.0084 19.1423 28.6397 19.4377 27.4044C19.7006 26.3091 20.3288 25.1437 21.1248 24.2096C21.4788 25.4221 22.1689 26.4034 22.8427 27.3612C23.8071 28.7316 24.804 30.1484 24.979 32.5644C24.9895 32.7076 25.0002 32.8516 25.0002 33.0062C25 35.943 22.7572 38.3322 20 38.3322Z" fill="white"/>
</g>
<defs>
<clipPath id="clip0">
<rect width="40" height="40" fill="white"/>
</clipPath>
</defs>
</svg>
