<svg width="40" height="40" viewBox="0 0 40 40" fill="none" xmlns="http://www.w3.org/2000/svg">
<path d="M33.7076 5.32814C31.3853 4.92814 28.9927 5.25359 26.6707 5.48261C24.3573 5.71084 21.9417 5.99015 19.6496 5.44759C16.9508 4.80878 15.2434 3.03967 13.9844 0.6427C13.6373 1.5819 13.2902 2.52102 12.9431 3.46031C10.6723 9.60458 8.40158 15.7488 6.13085 21.8931L0 38.4825L2.36768 39.3576L7.88514 24.4281C8.90912 25.5206 10.1733 26.3139 11.7963 26.698C14.0882 27.2402 16.504 26.9614 18.8173 26.7331C21.1391 26.5036 23.5319 26.1785 25.8542 26.5785C28.8384 27.0925 30.7666 28.8799 32.1465 31.5076C34.7646 24.4242 37.3822 17.3407 40 10.2572C38.6199 7.62939 36.6922 5.84229 33.7076 5.32814ZM33.9987 17.9398C32.8311 16.9545 31.5778 16.2955 30.0666 16.005C29.5624 17.3688 29.0584 18.7325 28.5544 20.0962C30.0657 20.3869 31.3188 21.0458 32.4866 22.0311C32.0244 23.2817 31.5622 24.5324 31.1001 25.7828C29.9325 24.7975 28.679 24.1382 27.1678 23.8481C27.63 22.5974 28.0922 21.3468 28.5544 20.0962C27.0157 19.848 25.5132 19.8495 23.9606 19.9445C23.4985 21.1951 23.0361 22.4458 22.574 23.6964C20.9675 23.8261 19.3664 24.0104 17.76 24.1399C18.2221 22.8891 18.6844 21.6386 19.1465 20.3882C17.5939 20.4833 16.0913 20.4849 14.5526 20.2366C14.0904 21.4872 13.6282 22.7378 13.166 23.9883C11.6549 23.698 10.401 23.0387 9.23378 22.0533C9.69588 20.8029 10.1582 19.5522 10.6203 18.3017C11.788 19.2871 13.0412 19.9461 14.5526 20.2366C15.0565 18.8728 15.5607 17.5089 16.0646 16.1452C14.5533 15.8554 13.2999 15.1954 12.1323 14.2105C12.6364 12.8466 13.1404 11.4827 13.6444 10.119C14.8121 11.1047 16.0654 11.763 17.5766 12.054C18.0388 10.8033 18.501 9.55279 18.9632 8.30234C20.5019 8.55051 22.0047 8.5491 23.5571 8.45382C23.095 9.70436 22.6327 10.955 22.1706 12.2055C23.777 12.0757 25.378 11.8916 26.9845 11.7619C27.4466 10.5114 27.909 9.26078 28.3711 8.01015C29.9239 7.91505 31.4261 7.91355 32.965 8.16181C32.5028 9.41243 32.0406 10.663 31.5784 11.9137C33.0897 12.2043 34.3428 12.863 35.5107 13.8484C35.0068 15.2122 34.5029 16.5761 33.9987 17.9398Z" fill="white"/>
<path d="M20.6586 16.2968C20.1546 17.6607 19.6506 19.0244 19.1465 20.3882C20.753 20.2583 22.3541 20.0741 23.9606 19.9444C24.4646 18.5808 24.9686 17.217 25.4726 15.8533C23.866 15.983 22.265 16.1673 20.6586 16.2968Z" fill="white"/>
<path d="M20.6587 16.297C21.1628 14.9333 21.6668 13.5694 22.1708 12.2058C20.6178 12.3006 19.1158 12.3022 17.5767 12.0542C17.0727 13.4179 16.5687 14.7817 16.0647 16.1455C17.6035 16.3939 19.106 16.3924 20.6587 16.297Z" fill="white"/>
<path d="M26.9847 11.762C26.4807 13.1257 25.9767 14.4894 25.4727 15.8533C27.0254 15.7584 28.5277 15.7568 30.0666 16.005C30.5705 14.6413 31.0746 13.2775 31.5785 11.9137C30.0398 11.6655 28.5375 11.6667 26.9847 11.762Z" fill="white"/>
</svg>
