<svg width="42" height="48" viewBox="0 0 42 48" fill="none" xmlns="http://www.w3.org/2000/svg">
<g filter="url(#filter0_d)">
<path fill-rule="evenodd" clip-rule="evenodd" d="M20.8618 8.65082H31.9158V6.06992H23.4547L20.8618 8.65082ZM35 10.865V11.9109V34.7994C35 36.0084 34.0038 37 32.7892 37H12.5236C11.309 37 10.3128 36.0084 10.3128 34.7994V14.6412L8.79798 13.1334L8.53869 13.3915C8.30669 13.6225 7.92458 13.6225 7.69258 13.3915L7.174 12.8754C6.942 12.6444 6.942 12.2641 7.174 12.0332L13.7927 5.44507C14.0247 5.21414 14.4068 5.21414 14.6388 5.44507L15.1574 5.96125C15.3894 6.19217 15.3894 6.57251 15.1574 6.80344L14.8981 7.06153L16.4948 8.65082L21.7079 3.46185C21.9945 3.17659 22.3766 3 22.8133 3H33.4579C34.304 3 35 3.69277 35 4.53496V10.865ZM17.3955 19.7895L14.3796 16.7875C13.9974 16.4071 13.9974 15.7958 14.3796 15.4155C14.7617 15.0352 15.3758 15.0352 15.7579 15.4155L18.7739 18.4175H26.5253L29.5412 15.4155C29.9234 15.0352 30.5375 15.0352 30.9196 15.4155C31.3017 15.7958 31.3017 16.4071 30.9196 16.7875L27.9036 19.7895V27.505L30.9196 30.507C31.3017 30.8873 31.3017 31.4986 30.9196 31.8789C30.5375 32.2593 29.9234 32.2593 29.5412 31.8789L26.5253 28.8769H18.7739L15.7579 31.8789C15.3758 32.2593 14.7617 32.2593 14.3796 31.8789C13.9974 31.4986 13.9974 30.8873 14.3796 30.507L17.3955 27.505V19.7895ZM25.9658 20.36H19.347V26.9481H25.9658V20.36Z" fill="#FE183F"/>
</g>
<defs>
<filter id="filter0_d" x="0" y="0" width="42" height="48" filterUnits="userSpaceOnUse" color-interpolation-filters="sRGB">
<feFlood flood-opacity="0" result="BackgroundImageFix"/>
<feColorMatrix in="SourceAlpha" type="matrix" values="0 0 0 0 0 0 0 0 0 0 0 0 0 0 0 0 0 0 127 0" result="hardAlpha"/>
<feOffset dy="4"/>
<feGaussianBlur stdDeviation="3.5"/>
<feComposite in2="hardAlpha" operator="out"/>
<feColorMatrix type="matrix" values="0 0 0 0 0 0 0 0 0 0 0 0 0 0 0 0 0 0 0.5 0"/>
<feBlend mode="normal" in2="BackgroundImageFix" result="effect1_dropShadow"/>
<feBlend mode="normal" in="SourceGraphic" in2="effect1_dropShadow" result="shape"/>
</filter>
</defs>
</svg>
