<svg width="28" height="34" viewBox="0 0 28 34" fill="none" xmlns="http://www.w3.org/2000/svg">
<path fill-rule="evenodd" clip-rule="evenodd" d="M13.8618 5.65082H24.9158V3.06992H16.4547L13.8618 5.65082ZM28 7.86496V8.91091V31.7994C28 33.0084 27.0038 34 25.7892 34H5.52358C4.30901 34 3.31278 33.0084 3.31278 31.7994V11.6412L1.79798 10.1334L1.53869 10.3915C1.30669 10.6225 0.924577 10.6225 0.69258 10.3915L0.173998 9.87535C-0.0579993 9.64443 -0.0579993 9.26408 0.173998 9.03316L6.79274 2.44507C7.02474 2.21414 7.40685 2.21414 7.63885 2.44507L8.15743 2.96125C8.38942 3.19217 8.38942 3.57251 8.15743 3.80344L7.89814 4.06153L9.49482 5.65082L14.7079 0.461846C14.9945 0.176588 15.3766 0 15.8133 0H26.4579C27.304 0 28 0.692769 28 1.53496V7.86496ZM10.3955 16.7895L7.37955 13.7875C6.99744 13.4071 6.99744 12.7958 7.37955 12.4155C7.76167 12.0352 8.37578 12.0352 8.75789 12.4155L11.7739 15.4175H19.5253L22.5412 12.4155C22.9234 12.0352 23.5375 12.0352 23.9196 12.4155C24.3017 12.7958 24.3017 13.4071 23.9196 13.7875L20.9036 16.7895V24.505L23.9196 27.507C24.3017 27.8873 24.3017 28.4986 23.9196 28.8789C23.5375 29.2593 22.9234 29.2593 22.5412 28.8789L19.5253 25.8769H11.7739L8.75789 28.8789C8.37578 29.2593 7.76167 29.2593 7.37955 28.8789C6.99744 28.4986 6.99744 27.8873 7.37955 27.507L10.3955 24.505V16.7895ZM18.9658 17.36H12.347V23.9481H18.9658V17.36Z" fill="white"/>
</svg>
