<svg width="40" height="40" viewBox="0 0 40 40" fill="none" xmlns="http://www.w3.org/2000/svg">
<g clip-path="url(#clip0)">
<path fill-rule="evenodd" clip-rule="evenodd" d="M39.8666 25.7446L37.1853 14.3506C36.4632 11.2811 33.634 8.125 29.3255 8.125H10.6741C7.52067 8.125 3.80058 10.1566 2.81395 14.3506L0.132675 25.7446C-0.59517 28.8376 1.75255 31.8048 4.93401 31.8048C6.28593 31.8048 7.5576 31.0846 8.25249 29.9258L10.3179 26.4841C10.671 25.8951 11.3168 25.5295 12.0034 25.5295H27.9955C28.6822 25.5295 29.3282 25.8954 29.6813 26.4844L31.7464 29.9255C32.4416 31.0846 33.7133 31.8048 35.0668 31.8048C38.2433 31.8048 40.595 28.8406 39.8666 25.7446ZM14.9795 17.999H13.641V19.3375C13.641 19.9844 13.1164 20.509 12.4691 20.509C11.8221 20.509 11.2975 19.9844 11.2975 19.3375V17.999H9.95903C9.31206 17.999 8.78746 17.4744 8.78746 16.8274C8.78746 16.1801 9.31206 15.6555 9.95903 15.6555H11.2975V14.317C11.2975 13.67 11.8221 13.1454 12.4691 13.1454C13.1164 13.1454 13.641 13.67 13.641 14.317V15.6555H14.9795C15.6264 15.6555 16.151 16.1801 16.151 16.8274C16.151 17.4744 15.6264 17.999 14.9795 17.999ZM25.0198 17.999C24.3731 17.999 23.8482 17.4741 23.8482 16.8274C23.8482 16.1804 24.3734 15.6555 25.0198 15.6555C25.6667 15.6555 26.1916 16.1804 26.1916 16.8274C26.1916 17.4741 25.6667 17.999 25.0198 17.999ZM27.5301 20.509C26.8835 20.509 26.3583 19.9841 26.3583 19.3375C26.3583 18.6908 26.8835 18.1656 27.5301 18.1656C28.1768 18.1656 28.7017 18.6908 28.7017 19.3375C28.7017 19.9841 28.1768 20.509 27.5301 20.509ZM27.5301 15.4889C26.8835 15.4889 26.3583 14.964 26.3583 14.317C26.3583 13.6703 26.8835 13.1454 27.5301 13.1454C28.1768 13.1454 28.7017 13.6703 28.7017 14.317C28.7017 14.964 28.1768 15.4889 27.5301 15.4889ZM30.0402 17.999C29.3935 17.999 28.8683 17.4741 28.8683 16.8274C28.8683 16.1804 29.3935 15.6555 30.0402 15.6555C30.6869 15.6555 31.2118 16.1804 31.2118 16.8274C31.2118 17.4741 30.6869 17.999 30.0402 17.999Z" fill="white"/>
</g>
<defs>
<clipPath id="clip0">
<rect width="40" height="40" fill="white"/>
</clipPath>
</defs>
</svg>
