<svg width="45" height="53" viewBox="0 0 45 53" fill="none" xmlns="http://www.w3.org/2000/svg">
<path d="M14.5824 37.8048L12.5814 34.5584L8.35653 35.3175L13.9129 25.4629H3.07812V51.3795H21.5397V25.4629L14.5824 37.8048Z" fill="white"/>
<path d="M44.9689 13.0954H32.7094C33.4263 12.726 34.0664 12.3401 34.6334 11.9304C36.8135 10.3684 37.9713 8.38949 37.9676 6.42517C37.9676 4.81385 37.2049 2.50568 36.0966 1.54365C34.9864 0.570639 33.514 0 31.943 0C30.264 0 28.7038 0.576127 27.3669 1.47232C25.3568 2.81845 23.7839 5.73383 22.6628 7.95786C22.606 8.06941 22.5494 8.17733 22.4945 8.28525C22.0849 7.42745 21.6056 5.71005 21.0624 4.92725C20.1113 3.57015 18.9682 2.37035 17.6258 1.47232C16.2925 0.576127 14.7341 0 13.057 0C11.3853 0.00548691 9.85449 0.705982 8.70955 1.78691C7.57011 2.85685 6.77268 5.2656 6.76536 6.98667C6.75804 7.99078 7.05068 9.04243 7.65608 9.99899C8.41693 11.197 9.62221 12.2413 11.2866 13.0954H0L0.0256057 23.4017H21.2197V13.0954H23.8022V23.4017H45L44.9689 13.0954ZM12.0182 9.87279C11.1677 9.33507 10.6446 8.79552 10.3373 8.31084C10.0392 7.82983 9.93497 6.98484 9.93497 6.56966C9.92766 5.87648 10.2733 4.66021 10.8879 4.08959C11.4878 3.51712 12.3035 3.16412 13.0351 3.16412H13.057C13.9989 3.17143 14.9317 3.48602 15.8718 4.10604C17.271 5.02966 18.5896 7.54085 19.506 9.3808C19.9852 10.3172 20.351 11.2957 20.5979 12.2523C16.3529 11.8133 13.6094 10.8769 12.0182 9.87279ZM26.5274 7.6323C27.2919 6.53674 28.1936 4.72973 29.1282 4.10604C30.0573 3.48602 31.0011 3.17143 31.943 3.16412H31.9521C32.7368 3.16412 33.4921 3.47138 34.0061 3.9268C34.5219 4.38953 34.7979 5.23634 34.7979 5.83259C34.787 6.53674 34.423 8.15721 32.7788 9.35885C31.2188 10.4965 28.51 11.6615 24.3454 12.4772C24.7386 10.8257 25.5087 9.07719 26.5274 7.6323Z" fill="white"/>
<path d="M36.6665 35.2754L32.4434 34.5584L30.4497 37.8432L23.582 25.6294V51.3795H41.9503V25.4629H31.1155L36.6665 35.2754Z" fill="white"/>
</svg>
