<svg width="32" height="37" viewBox="0 0 32 37" fill="none" xmlns="http://www.w3.org/2000/svg">
<path d="M10.3693 26.8834L8.9464 24.5748L5.94201 25.1146L9.89324 18.1069H2.18848V36.5365H15.3167V18.1069L10.3693 26.8834Z" fill="#00D1FF"/>
<path d="M31.9779 9.31231H23.26C23.7698 9.04959 24.225 8.77516 24.6282 8.48382C26.1785 7.37311 27.0018 5.96586 26.9992 4.56901C26.9992 3.42318 26.4568 1.78182 25.6687 1.09771C24.8792 0.405788 23.8322 0 22.715 0C21.5211 0 20.4116 0.40969 19.4609 1.04698C18.0315 2.00423 16.913 4.07739 16.1158 5.65892C16.0754 5.73825 16.0351 5.81499 15.9961 5.89173C15.7048 5.28174 15.364 4.06048 14.9777 3.50382C14.3014 2.53877 13.4885 1.68558 12.5339 1.04698C11.5858 0.40969 10.4776 0 9.28499 0C8.09624 0.0039018 7.00764 0.502032 6.19346 1.27069C5.38319 2.03154 4.81613 3.74443 4.81092 4.9683C4.80572 5.68233 5.01382 6.43017 5.44432 7.11039C5.98537 7.96228 6.84246 8.70493 8.02601 9.31231H0L0.0182085 16.6412H15.0896V9.31231H16.926V16.6412H32L31.9779 9.31231ZM8.54625 7.02065C7.94147 6.63827 7.5695 6.25459 7.351 5.90993C7.139 5.56788 7.06487 4.967 7.06487 4.67176C7.05967 4.17883 7.30548 3.31393 7.74248 2.90815C8.16908 2.50106 8.74915 2.25004 9.26939 2.25004H9.28499C9.9548 2.25524 10.6181 2.47895 11.2866 2.91985C12.2816 3.57665 13.2193 5.36238 13.8709 6.67079C14.2117 7.33669 14.4718 8.03252 14.6474 8.71273C11.6287 8.40059 9.67778 7.73468 8.54625 7.02065ZM18.8639 5.42741C19.4076 4.64835 20.0488 3.36336 20.7134 2.91985C21.3741 2.47895 22.0452 2.25524 22.715 2.25004H22.7215C23.2795 2.25004 23.8166 2.46854 24.1821 2.79239C24.5489 3.12144 24.7452 3.72362 24.7452 4.14762C24.7374 4.64835 24.4786 5.80068 23.3094 6.65518C22.2 7.46415 20.2738 8.29264 17.3123 8.8727C17.5919 7.69826 18.1395 6.45489 18.8639 5.42741Z" fill="#00D1FF"/>
<path d="M26.0731 25.0847L23.07 24.5748L21.6523 26.9107L16.7686 18.2253V36.5365H29.8305V18.1069H22.1257L26.0731 25.0847Z" fill="#00D1FF"/>
</svg>
