<svg width="40" height="40" viewBox="0 0 40 40" fill="none" xmlns="http://www.w3.org/2000/svg">
<g clip-path="url(#clip0)">
<path d="M40 31.1679C39.4284 31.0848 35.8517 30.5651 35.2762 30.4815C35.0205 29.9635 33.421 26.7226 33.1637 26.2012V26.2013L33.1636 26.2014C32.9071 26.7212 31.3086 29.9599 31.0512 30.4815C30.5369 30.5564 27.5922 30.9842 26.5868 31.1302C27.2998 30.4352 27.9373 29.8138 28.2332 29.5253C26.6925 29.3014 23.453 28.8307 22.5438 28.6986C21.8548 27.3025 20.4061 24.367 19.9995 23.5432C19.3105 24.9393 17.8617 27.8748 17.4552 28.6986C15.9145 28.9225 12.6751 29.3932 11.7659 29.5253C12.1902 29.9388 12.7926 30.526 13.4123 31.1301C12.4076 30.9841 9.4662 30.5567 8.94881 30.4815C8.69311 29.9635 7.09365 26.7226 6.83635 26.2011L6.83595 26.2019L6.83555 26.2027C6.57905 26.7225 4.98118 29.9601 4.7238 30.4816C4.15201 30.5646 0.575467 31.0842 0 31.1679C0.413669 31.5711 3.00171 34.0938 3.41817 34.4997C3.32052 35.0691 2.70955 38.6313 2.61126 39.2046C3.12426 38.9348 6.32064 37.2543 6.83547 36.9836L6.83587 36.9833L6.83627 36.9831C7.34759 37.252 10.5466 38.9339 11.0614 39.2046C10.9637 38.6351 10.3527 35.0729 10.2544 34.4997C10.6406 34.1232 12.922 31.8995 13.5618 31.2759C14.5233 32.213 15.4952 33.1605 15.8826 33.5381C15.6195 35.0725 15.0661 38.2989 14.9108 39.2043C16.2888 38.4799 19.1863 36.9565 19.9994 36.5292C21.3775 37.2536 24.2749 38.7769 25.088 39.2043C24.8248 37.67 24.2715 34.4436 24.1161 33.5382C24.6948 32.9742 25.6042 32.0876 26.4376 31.2754C27.0753 31.897 29.3566 34.1207 29.7454 34.4997C29.6477 35.0691 29.0368 38.6313 28.9385 39.2046C29.4498 38.9357 32.6487 37.2539 33.1634 36.9832H33.1635V36.9831C33.6748 37.252 36.8738 38.9339 37.3886 39.2046C37.2909 38.6351 36.68 35.0729 36.5817 34.4997C36.9955 34.0964 39.5835 31.5737 40 31.1679Z" fill="white"/>
<path d="M9.62794 21.14V19.9433C9.62794 17.9581 10.189 16.1018 11.1601 14.5235C10.7564 14.2459 10.3221 14.0131 9.86561 13.8305C10.5773 13.174 11.0241 12.2345 11.0241 11.1922C11.0241 9.21261 9.41356 7.60205 7.43393 7.60205C5.45439 7.60205 3.84375 9.21261 3.84375 11.1922C3.84375 12.2339 4.29005 13.173 5.00099 13.8294C2.5729 14.7991 0.851929 17.1732 0.851929 19.9433V21.1401H7.43393H9.62794V21.14Z" fill="white"/>
<path d="M30.3714 19.9434V21.1401H32.5655H39.1475V19.9434C39.1475 17.1733 37.4266 14.7991 34.9984 13.8294C35.7093 13.173 36.1556 12.2339 36.1556 11.1922C36.1556 9.21261 34.5451 7.60205 32.5655 7.60205C30.5857 7.60205 28.9753 9.21269 28.9753 11.1922C28.9753 12.2345 29.422 13.1741 30.1338 13.8305C29.6766 14.0134 29.2425 14.2464 28.8392 14.5235C29.8104 16.1018 30.3714 17.9582 30.3714 19.9434Z" fill="white"/>
<path d="M27.9767 19.9433H27.9772C27.9772 16.53 25.8335 13.6179 22.8191 12.4785C24.8138 11.4516 26.1822 9.37261 26.1822 6.97875C26.1822 3.56951 23.4084 0.795654 19.9991 0.795654C16.5897 0.795654 13.816 3.56951 13.816 6.97875C13.816 9.37261 15.1843 11.4516 17.179 12.4785C14.1646 13.6179 12.0209 16.53 12.0209 19.9433V21.14H27.9767V19.9433Z" fill="white"/>
</g>
<defs>
<clipPath id="clip0">
<rect width="40" height="40" fill="white"/>
</clipPath>
</defs>
</svg>
