<svg width="30" height="26" viewBox="0 0 30 26" fill="none" xmlns="http://www.w3.org/2000/svg">
<path d="M25.6692 14.0146H23.3491C23.5856 14.6621 23.7148 15.3608 23.7148 16.0891V24.8577C23.7148 25.1613 23.662 25.4528 23.5658 25.7238H27.4014C28.8342 25.7238 29.9998 24.5581 29.9998 23.1254V18.3453C29.9999 15.9574 28.0571 14.0146 25.6692 14.0146Z" fill="white"/>
<path d="M6.28507 16.0891C6.28507 15.3608 6.41427 14.6621 6.65075 14.0146H4.33067C1.94274 14.0146 0 15.9574 0 18.3453V23.1255C0 24.5582 1.16561 25.7239 2.5984 25.7239H6.43407C6.33792 25.4527 6.28507 25.1613 6.28507 24.8577V16.0891Z" fill="white"/>
<path d="M17.6525 11.7588H12.3485C9.96056 11.7588 8.01782 13.7015 8.01782 16.0895V24.858C8.01782 25.3363 8.4056 25.7242 8.88396 25.7242H21.1171C21.5954 25.7242 21.9832 25.3364 21.9832 24.858V16.0895C21.9832 13.7015 20.0405 11.7588 17.6525 11.7588Z" fill="white"/>
<path d="M15.0011 0.275391C12.1293 0.275391 9.79297 2.61176 9.79297 5.48362C9.79297 7.43158 10.8681 9.13285 12.4559 10.0261C13.209 10.4497 14.0772 10.6918 15.0011 10.6918C15.925 10.6918 16.7933 10.4497 17.5464 10.0261C19.1342 9.13285 20.2093 7.43152 20.2093 5.48362C20.2093 2.61182 17.8729 0.275391 15.0011 0.275391Z" fill="white"/>
<path d="M5.85426 5.12988C3.7065 5.12988 1.95923 6.87715 1.95923 9.02491C1.95923 11.1727 3.7065 12.9199 5.85426 12.9199C6.39906 12.9199 6.91785 12.8071 7.38912 12.6042C8.20393 12.2534 8.87576 11.6325 9.29149 10.8546C9.58329 10.3087 9.74928 9.68591 9.74928 9.02491C9.74928 6.87721 8.00201 5.12988 5.85426 5.12988Z" fill="white"/>
<path d="M24.1453 5.12988C21.9975 5.12988 20.2502 6.87715 20.2502 9.02491C20.2502 9.68597 20.4162 10.3088 20.708 10.8546C21.1238 11.6325 21.7956 12.2535 22.6104 12.6042C23.0817 12.8071 23.6005 12.9199 24.1453 12.9199C26.293 12.9199 28.0403 11.1727 28.0403 9.02491C28.0403 6.87715 26.293 5.12988 24.1453 5.12988Z" fill="white"/>
</svg>
