<svg width="30" height="30" viewBox="0 0 30 30" fill="none" xmlns="http://www.w3.org/2000/svg">
<g clip-path="url(#clip0)">
<path d="M22.3166 18.51H29.814C29.4949 17.4329 28.8222 15.448 27.727 13.6252H19.3862L22.3166 18.51Z" fill="white"/>
<path d="M15.1248 17.6748L11.0562 11.8626H28.0193C27.6146 10.6328 26.6977 8.55786 24.7153 6.44819C21.8944 3.44614 17.7834 1.72437 13.4363 1.72437H12.9729C9.50777 1.72437 6.2499 3.07378 3.79969 5.52405C1.34941 7.97427 0 11.232 0 14.6973V15.3026C0 18.7678 1.34941 22.0256 3.79969 24.4758C6.2499 26.9261 9.50777 28.2755 12.9729 28.2755H29.165L30 20.2727H20.1144C18.1287 20.2727 16.2635 19.3016 15.1248 17.6748ZM25.4129 23.09H27.0701V24.8598H25.4129V23.09ZM21.5494 23.09H23.2067V24.8598H21.5494V23.09Z" fill="white"/>
<path d="M17.3306 13.6252H14.4417L16.5688 16.664C17.378 17.8199 18.7034 18.51 20.1144 18.51H20.2609L17.3306 13.6252Z" fill="white"/>
</g>
<defs>
<clipPath id="clip0">
<rect width="30" height="30" fill="white"/>
</clipPath>
</defs>
</svg>
