<svg width="40" height="40" viewBox="0 0 40 40" fill="none" xmlns="http://www.w3.org/2000/svg">
<path d="M39.4673 13.7148L32.1945 6.44203C31.8516 6.11083 31.3923 5.92757 30.9156 5.93171C30.4389 5.93585 29.9829 6.12707 29.6458 6.46417C29.3087 6.80128 29.1174 7.2573 29.1133 7.73402C29.1092 8.21075 29.2924 8.67002 29.6236 9.01294L33.7925 13.182H9.09089C8.60868 13.182 8.14621 13.3736 7.80524 13.7146C7.46426 14.0555 7.27271 14.518 7.27271 15.0002C7.27271 15.4824 7.46426 15.9449 7.80524 16.2859C8.14621 16.6268 8.60868 16.8184 9.09089 16.8184H38.1818C38.5413 16.8183 38.8928 16.7116 39.1917 16.5119C39.4906 16.3121 39.7236 16.0281 39.8612 15.6959C39.9988 15.3638 40.0348 14.9983 39.9647 14.6456C39.8946 14.293 39.7215 13.969 39.4673 13.7148Z" fill="white"/>
<path d="M30.9091 20.4541H1.81816C1.45861 20.4542 1.10716 20.5609 0.808236 20.7606C0.509309 20.9604 0.276328 21.2444 0.138747 21.5765C0.00116462 21.9087 -0.0348413 22.2742 0.0352815 22.6269C0.105404 22.9795 0.278508 23.3035 0.532707 23.5577L7.80543 30.8305C8.14835 31.1617 8.60762 31.3449 9.08434 31.3408C9.56106 31.3366 10.0171 31.1454 10.3542 30.8083C10.6913 30.4712 10.8825 30.0152 10.8867 29.5385C10.8908 29.0617 10.7075 28.6025 10.3763 28.2596L6.20743 24.0905H30.9091C31.3913 24.0905 31.8537 23.8989 32.1947 23.5579C32.5357 23.217 32.7272 22.7545 32.7272 22.2723C32.7272 21.7901 32.5357 21.3276 32.1947 20.9866C31.8537 20.6457 31.3913 20.4541 30.9091 20.4541Z" fill="white"/>
</svg>
