<svg width="40" height="40" viewBox="0 0 40 40" fill="none" xmlns="http://www.w3.org/2000/svg">
<g clip-path="url(#clip0)">
<path d="M20 5.76167C19.31 5.76167 18.75 5.20167 18.75 4.51167V1.25C18.75 0.56 19.31 0 20 0C20.69 0 21.25 0.56 21.25 1.25V4.51167C21.25 5.20167 20.69 5.76167 20 5.76167Z" fill="white"/>
<path d="M30.9518 10.2984C30.6318 10.2984 30.3119 10.1767 30.0685 9.93173C29.5802 9.44339 29.5802 8.65173 30.0685 8.16339L32.3752 5.85673C32.8635 5.3684 33.6552 5.3684 34.1435 5.85673C34.6318 6.34506 34.6318 7.13673 34.1435 7.62506L31.8368 9.93173C31.5918 10.1751 31.2718 10.2984 30.9518 10.2984Z" fill="white"/>
<path d="M38.7497 21.25H35.488C34.798 21.25 34.238 20.69 34.238 20C34.238 19.31 34.798 18.75 35.488 18.75H38.7497C39.4397 18.75 39.9997 19.31 39.9997 20C39.9997 20.69 39.4397 21.25 38.7497 21.25Z" fill="white"/>
<path d="M33.2585 34.5083C32.9385 34.5083 32.6185 34.3867 32.3752 34.1417L30.0685 31.835C29.5802 31.3467 29.5802 30.555 30.0685 30.0667C30.5569 29.5784 31.3485 29.5784 31.8368 30.0667L34.1435 32.3734C34.6318 32.8617 34.6318 33.6533 34.1435 34.1417C33.8985 34.3867 33.5785 34.5083 33.2585 34.5083Z" fill="white"/>
<path d="M6.74152 34.5083C6.42153 34.5083 6.10153 34.3867 5.85819 34.1417C5.36986 33.6533 5.36986 32.8617 5.85819 32.3734L8.16486 30.0667C8.65319 29.5784 9.44485 29.5784 9.93319 30.0667C10.4215 30.555 10.4215 31.3467 9.93319 31.835L7.62652 34.1417C7.38152 34.3867 7.06152 34.5083 6.74152 34.5083Z" fill="white"/>
<path d="M4.51167 21.25H1.25C0.56 21.25 0 20.69 0 20C0 19.31 0.56 18.75 1.25 18.75H4.51167C5.20167 18.75 5.76167 19.31 5.76167 20C5.76167 20.69 5.20167 21.25 4.51167 21.25Z" fill="white"/>
<path d="M9.04819 10.2984C8.72819 10.2984 8.40819 10.1767 8.16486 9.93173L5.85819 7.62506C5.36986 7.13673 5.36986 6.34506 5.85819 5.85673C6.34653 5.3684 7.13819 5.3684 7.62652 5.85673L9.93319 8.16339C10.4215 8.65173 10.4215 9.44339 9.93319 9.93173C9.68652 10.1751 9.36819 10.2984 9.04819 10.2984Z" fill="white"/>
<path d="M25 35V37.0833C25 38.6833 23.6833 40 22.0833 40H17.9167C16.5167 40 15 38.9333 15 36.6V35H25Z" fill="white"/>
<path d="M27.3496 10.9334C24.6163 8.71674 21.0163 7.85007 17.4996 8.60007C13.083 9.51674 9.49962 13.1167 8.58295 17.5334C7.64962 22.0667 9.34962 26.5667 12.983 29.3167C13.9663 30.0501 14.6496 31.1834 14.883 32.5001V32.5167C14.9163 32.5001 14.9663 32.5001 14.9996 32.5001H24.9996C25.033 32.5001 25.0496 32.5001 25.083 32.5167V32.5001C25.3163 31.2334 26.0663 30.0667 27.2163 29.1667C30.033 26.9334 31.6663 23.6001 31.6663 20.0001C31.6663 16.4667 30.0996 13.1667 27.3496 10.9334ZM26.2496 20.8334C25.5663 20.8334 24.9996 20.2667 24.9996 19.5834C24.9996 17.0501 22.9496 15.0001 20.4163 15.0001C19.733 15.0001 19.1663 14.4334 19.1663 13.7501C19.1663 13.0667 19.733 12.5001 20.4163 12.5001C24.3163 12.5001 27.4996 15.6834 27.4996 19.5834C27.4996 20.2667 26.933 20.8334 26.2496 20.8334Z" fill="white"/>
<path d="M14.8832 32.5H14.9998C14.9665 32.5 14.9165 32.5 14.8832 32.5167V32.5Z" fill="white"/>
<path d="M25.0833 32.5V32.5167C25.05 32.5 25.0333 32.5 25 32.5H25.0833Z" fill="white"/>
</g>
<defs>
<clipPath id="clip0">
<rect width="40" height="40" fill="white"/>
</clipPath>
</defs>
</svg>
