<svg width="1138" height="1137" viewBox="0 0 1138 1137" fill="none" xmlns="http://www.w3.org/2000/svg">
<path d="M1138 568.5C1138 882.474 883.25 1137 569 1137C403.34 1137 254.215 1066.27 150.239 953.386C122.927 923.754 98.7505 891.199 78.1736 856.277C28.4964 771.86 0 673.498 0 568.5C0 254.526 254.749 0 569 0C674.114 0 772.563 28.4714 857.03 78.1281C891.983 98.6637 924.544 122.819 954.201 150.13C1067.19 253.969 1138 402.985 1138 568.5Z" fill="#111111"/>
<path d="M1138 568.5C1138 882.474 883.25 1137 569 1137C403.34 1137 254.215 1066.27 150.239 953.386C122.927 923.754 98.7505 891.199 78.1736 856.277C28.4964 771.86 0 673.498 0 568.5C0 254.526 254.749 0 569 0C674.114 0 772.563 28.4714 857.03 78.1281C891.983 98.6637 924.544 122.819 954.201 150.13C1067.19 253.969 1138 402.985 1138 568.5Z" fill="url(#paint0_linear)" fill-opacity="0.7"/>
<path d="M1138 568.5C1138 875.397 894.63 1125.49 590.18 1136.61C285.731 1125.49 42.3613 875.397 42.3613 568.5C42.3613 261.603 285.731 11.5093 590.18 0.394531C894.63 11.5093 1138 261.603 1138 568.5Z" fill="url(#paint1_linear)"/>
<path d="M954.201 150.13L150.239 953.386C122.927 923.755 98.7507 891.199 78.1738 856.277L857.03 78.1282C891.983 98.6638 924.544 122.819 954.201 150.13Z" fill="#A9FFFF"/>
<path d="M1098.75 360.661L360.955 1097.81C308.723 1077.3 260.254 1049.29 216.894 1015.11L1016 216.703C1050.21 260.025 1078.24 308.452 1098.75 360.661Z" fill="#A9FFFF"/>
<path d="M1011.15 568.5C1011.15 812.468 813.183 1010.26 569 1010.26C483.952 1010.26 404.525 986.266 337.104 944.684C307.725 926.585 280.645 905.121 256.352 880.85C238.493 863.029 222.143 843.654 207.534 822.979C187.422 794.508 170.584 763.553 157.602 730.673C138.372 682.061 127.549 629.202 126.899 573.93C126.853 572.12 126.853 570.31 126.853 568.5C126.853 324.532 324.795 126.741 569 126.741C570.812 126.741 572.647 126.741 574.458 126.787C629.779 127.437 682.661 138.273 731.316 157.463C764.225 170.457 795.207 187.257 823.703 207.352C844.396 221.97 863.766 238.283 881.625 256.127C905.918 280.375 927.401 307.454 945.516 336.807C987.134 404.169 1011.15 483.527 1011.15 568.5Z" fill="#FAA300"/>
<path d="M1011.15 568.5C1011.15 812.468 813.183 1010.26 569 1010.26C483.952 1010.26 404.525 986.266 337.104 944.684C307.725 926.585 280.645 905.121 256.352 880.85C238.493 863.029 222.143 843.654 207.534 822.979C187.422 794.508 170.584 763.553 157.602 730.673C138.372 682.061 127.549 629.202 126.899 573.93C126.853 572.12 126.853 570.31 126.853 568.5C126.853 324.532 324.795 126.741 569 126.741C570.812 126.741 572.647 126.741 574.458 126.787C629.779 127.437 682.661 138.273 731.316 157.463C764.225 170.457 795.207 187.257 823.703 207.352C844.396 221.97 863.766 238.283 881.625 256.127C905.918 280.375 927.401 307.454 945.516 336.807C987.134 404.169 1011.15 483.527 1011.15 568.5Z" fill="#111111"/>
<path d="M1011.15 568.5C1011.15 812.468 813.183 1010.26 569 1010.26C483.952 1010.26 404.525 986.266 337.104 944.684C307.725 926.585 280.645 905.121 256.352 880.85C238.493 863.029 222.143 843.654 207.534 822.979C187.422 794.508 170.584 763.553 157.602 730.673C138.372 682.061 127.549 629.202 126.899 573.93C126.853 572.12 126.853 570.31 126.853 568.5C126.853 324.532 324.795 126.741 569 126.741C570.812 126.741 572.647 126.741 574.458 126.787C629.779 127.437 682.661 138.273 731.316 157.463C764.225 170.457 795.207 187.257 823.703 207.352C844.396 221.97 863.766 238.283 881.625 256.127C905.918 280.375 927.401 307.454 945.516 336.807C987.134 404.169 1011.15 483.527 1011.15 568.5Z" fill="url(#paint2_linear)" fill-opacity="0.7"/>
<path d="M881.625 256.127L256.352 880.85C238.493 863.029 222.143 843.654 207.534 822.979C187.422 794.508 170.584 763.553 157.602 730.673C138.372 682.061 127.549 629.202 126.899 573.93C126.853 572.12 126.853 570.31 126.853 568.5C126.853 324.532 324.795 126.741 569 126.741C570.812 126.741 572.647 126.741 574.458 126.787C629.779 127.437 682.661 138.273 731.316 157.463C764.225 170.457 795.207 187.257 823.703 207.352C844.396 221.97 863.766 238.283 881.625 256.127Z" fill="#20DBDB"/>
<path d="M1011.14 568.5C1011.14 812.468 813.171 1010.26 568.989 1010.26C560.605 1010.26 552.29 1010.03 544.022 1009.56C776.593 996.638 961.181 804.091 961.181 568.5C961.181 332.909 776.593 140.361 544.022 127.437C552.29 126.973 560.605 126.741 568.989 126.741C813.171 126.741 1011.14 324.532 1011.14 568.5Z" fill="#F68E00"/>
<path d="M1011.14 568.5C1011.14 812.468 813.171 1010.26 568.989 1010.26C560.605 1010.26 552.29 1010.03 544.022 1009.56C776.593 996.638 961.181 804.091 961.181 568.5C961.181 332.909 776.593 140.361 544.022 127.437C552.29 126.973 560.605 126.741 568.989 126.741C813.171 126.741 1011.14 324.532 1011.14 568.5Z" fill="#111111"/>
<path d="M1011.14 568.5C1011.14 812.468 813.171 1010.26 568.989 1010.26C560.605 1010.26 552.29 1010.03 544.022 1009.56C776.593 996.638 961.181 804.091 961.181 568.5C961.181 332.909 776.593 140.361 544.022 127.437C552.29 126.973 560.605 126.741 568.989 126.741C813.171 126.741 1011.14 324.532 1011.14 568.5Z" fill="url(#paint3_linear)" fill-opacity="0.5"/>
<g filter="url(#filter0_d)">
<path d="M885.696 371.318H799.317V767.443H885.696V371.318Z" fill="#1CFFFF"/>
<path d="M337.539 371.318H251.16V767.443H337.539V371.318Z" fill="#1CFFFF"/>
<path d="M534.274 566.161C534.274 570.589 535.167 575.073 536.874 579.205C538.582 583.336 541.116 587.116 544.277 590.259C547.439 593.413 551.228 595.94 555.36 597.644C559.491 599.347 563.963 600.237 568.436 600.237C572.909 600.237 577.381 599.347 581.512 597.644C585.643 595.94 589.433 593.402 592.595 590.259C595.756 587.105 598.29 583.325 599.998 579.205C601.705 575.073 602.598 570.589 602.598 566.161V402.724C602.598 398.296 601.705 393.812 599.998 389.68C598.29 385.549 595.756 381.768 592.595 378.626C589.433 375.472 585.643 372.944 581.512 371.241C577.392 369.527 572.92 368.637 568.447 368.637C563.974 368.637 559.502 369.527 555.371 371.23C551.24 372.933 547.45 375.472 544.288 378.615C541.127 381.757 538.593 385.549 536.885 389.669C535.178 393.79 534.285 398.285 534.285 402.713V566.161H534.274Z" fill="#1CFFFF"/>
<path d="M509.211 374.383V468.788C498.701 475.15 489.161 483.282 481.185 492.71C473.209 502.128 466.798 512.842 462.27 524.303C457.731 535.754 455.077 547.962 454.438 560.259C453.799 572.555 455.176 584.973 458.503 596.83C461.83 608.697 467.106 620.016 474.047 630.203C480.987 640.389 489.613 649.444 499.45 656.883C509.288 664.334 520.348 670.169 532.059 674.092C543.769 678.015 556.118 680.037 568.467 680.037C580.817 680.037 593.166 678.015 604.876 674.092C616.587 670.169 627.647 664.323 637.485 656.883C647.322 649.433 655.937 640.389 662.888 630.203C669.829 620.016 675.105 608.697 678.432 596.83C681.759 584.962 683.136 572.555 682.497 560.259C681.858 547.951 679.193 535.754 674.665 524.303C670.126 512.853 663.726 502.139 655.75 492.71C647.774 483.293 638.234 475.15 627.724 468.788V374.383C650.374 381.35 671.977 392.448 690.914 406.921C709.851 421.393 726.133 439.239 738.802 459.348C751.471 479.469 760.537 501.864 765.417 525.128C770.286 548.391 770.97 572.533 767.422 596.027C763.875 619.532 756.097 642.389 744.574 663.191C733.051 683.993 717.783 702.729 699.727 718.234C681.671 733.739 660.817 746.003 638.487 754.277C616.146 762.541 592.329 766.816 568.501 766.816C544.672 766.816 520.844 762.552 498.514 754.277C476.173 746.014 455.33 733.739 437.274 718.234C419.218 702.729 403.95 683.993 392.427 663.191C380.904 642.389 373.126 619.521 369.579 596.027C366.032 572.522 366.715 548.391 371.584 525.128C376.453 501.864 385.519 479.469 398.199 459.348C410.868 439.228 427.15 421.393 446.087 406.921C464.958 392.448 486.561 381.35 509.211 374.383Z" fill="#1CFFFF"/>
</g>
<defs>
<filter id="filter0_d" x="241.16" y="368.637" width="644.536" height="410.806" filterUnits="userSpaceOnUse" color-interpolation-filters="sRGB">
<feFlood flood-opacity="0" result="BackgroundImageFix"/>
<feColorMatrix in="SourceAlpha" type="matrix" values="0 0 0 0 0 0 0 0 0 0 0 0 0 0 0 0 0 0 127 0"/>
<feOffset dx="-8" dy="10"/>
<feGaussianBlur stdDeviation="1"/>
<feColorMatrix type="matrix" values="0 0 0 0 0 0 0 0 0 0 0 0 0 0 0 0 0 0 0.25 0"/>
<feBlend mode="normal" in2="BackgroundImageFix" result="effect1_dropShadow"/>
<feBlend mode="normal" in="SourceGraphic" in2="effect1_dropShadow" result="shape"/>
</filter>
<linearGradient id="paint0_linear" x1="543.439" y1="-61.0693" x2="-125.417" y2="931.721" gradientUnits="userSpaceOnUse">
<stop stop-color="#00F0FF"/>
<stop offset="1" stop-color="#0098D9"/>
<stop offset="1" stop-color="#0098D9"/>
</linearGradient>
<linearGradient id="paint1_linear" x1="903.51" y1="117.697" x2="-178.516" y2="911.141" gradientUnits="userSpaceOnUse">
<stop stop-color="#1CFFFF"/>
<stop offset="1" stop-color="#0098D9"/>
<stop offset="1" stop-color="#0098D9"/>
</linearGradient>
<linearGradient id="paint2_linear" x1="952.195" y1="170.917" x2="-32.1744" y2="832.569" gradientUnits="userSpaceOnUse">
<stop stop-color="#00F0FF"/>
<stop offset="0.883466" stop-color="#0098D9"/>
<stop offset="1" stop-color="#0098D9"/>
</linearGradient>
<linearGradient id="paint3_linear" x1="979.996" y1="170.917" x2="309.608" y2="408.942" gradientUnits="userSpaceOnUse">
<stop stop-color="#00F0FF"/>
<stop offset="1" stop-color="#0098D9"/>
<stop offset="1" stop-color="#0098D9"/>
</linearGradient>
</defs>
</svg>
