<svg width="40" height="40" viewBox="0 0 40 40" fill="none" xmlns="http://www.w3.org/2000/svg">
<path d="M40 20C40 31.0457 31.0457 40 20 40C14.1771 40 8.93551 37.5118 5.28082 33.5404C4.32082 32.498 3.47102 31.3526 2.74775 30.1241C1.00163 27.1543 0 23.6939 0 20C0 8.95428 8.95428 0 20 0C23.6947 0 27.1551 1.00163 30.1241 2.74857C31.3526 3.47102 32.4971 4.32082 33.5396 5.28163C37.511 8.93469 40 14.1771 40 20Z" fill="#111111"/>
<path d="M40 20C40 31.0457 31.0457 40 20 40C14.1771 40 8.93551 37.5118 5.28082 33.5404C4.32082 32.498 3.47102 31.3526 2.74775 30.1241C1.00163 27.1543 0 23.6939 0 20C0 8.95428 8.95428 0 20 0C23.6947 0 27.1551 1.00163 30.1241 2.74857C31.3526 3.47102 32.4971 4.32082 33.5396 5.28163C37.511 8.93469 40 14.1771 40 20Z" fill="url(#paint0_linear)" fill-opacity="0.7"/>
<path d="M39.9999 19.9998C39.9999 30.7965 31.4457 39.5949 20.7444 39.9859C10.0432 39.5949 1.48892 30.7965 1.48892 19.9998C1.48892 9.20306 10.0432 0.404692 20.7444 0.0136719C31.4457 0.404692 39.9999 9.20306 39.9999 19.9998Z" fill="url(#paint1_linear)"/>
<path d="M33.5396 5.28208L5.28086 33.5409C4.32086 32.4984 3.47107 31.3531 2.7478 30.1245L30.1241 2.74902C31.3527 3.47147 32.4972 4.32127 33.5396 5.28208Z" fill="#A9FFFF"/>
<path d="M38.6204 12.6885L12.6874 38.6216C10.8514 37.8999 9.14777 36.9146 7.62369 35.7122L35.7118 7.62402C36.9143 9.1481 37.8996 10.8518 38.6204 12.6885Z" fill="#A9FFFF"/>
<path d="M35.5413 20.0002C35.5413 28.5831 28.583 35.5414 20.0001 35.5414C17.0107 35.5414 14.2189 34.6973 11.8491 33.2345C10.8164 32.5978 9.86461 31.8426 9.01073 30.9888C8.38297 30.3618 7.80828 29.6802 7.29481 28.9529C6.58787 27.9512 5.99604 26.8622 5.53971 25.7055C4.86379 23.9953 4.48338 22.1357 4.46053 20.1912C4.45889 20.1276 4.45889 20.0639 4.45889 20.0002C4.45889 11.4174 11.4164 4.45898 20.0001 4.45898C20.0638 4.45898 20.1283 4.45898 20.192 4.46062C22.1364 4.48347 23.9952 4.8647 25.7054 5.5398C26.8622 5.99694 27.9511 6.58796 28.9528 7.2949C29.6801 7.80919 30.3609 8.38306 30.9887 9.01082C31.8426 9.86388 32.5977 10.8165 33.2344 11.8492C34.6973 14.219 35.5413 17.0108 35.5413 20.0002Z" fill="#FAA300"/>
<path d="M35.5413 20.0002C35.5413 28.5831 28.583 35.5414 20.0001 35.5414C17.0107 35.5414 14.2189 34.6973 11.8491 33.2345C10.8164 32.5978 9.86461 31.8426 9.01073 30.9888C8.38297 30.3618 7.80828 29.6802 7.29481 28.9529C6.58787 27.9512 5.99604 26.8622 5.53971 25.7055C4.86379 23.9953 4.48338 22.1357 4.46053 20.1912C4.45889 20.1276 4.45889 20.0639 4.45889 20.0002C4.45889 11.4174 11.4164 4.45898 20.0001 4.45898C20.0638 4.45898 20.1283 4.45898 20.192 4.46062C22.1364 4.48347 23.9952 4.8647 25.7054 5.5398C26.8622 5.99694 27.9511 6.58796 28.9528 7.2949C29.6801 7.80919 30.3609 8.38306 30.9887 9.01082C31.8426 9.86388 32.5977 10.8165 33.2344 11.8492C34.6973 14.219 35.5413 17.0108 35.5413 20.0002Z" fill="#111111"/>
<path d="M35.5413 20.0002C35.5413 28.5831 28.583 35.5414 20.0001 35.5414C17.0107 35.5414 14.2189 34.6973 11.8491 33.2345C10.8164 32.5978 9.86461 31.8426 9.01073 30.9888C8.38297 30.3618 7.80828 29.6802 7.29481 28.9529C6.58787 27.9512 5.99604 26.8622 5.53971 25.7055C4.86379 23.9953 4.48338 22.1357 4.46053 20.1912C4.45889 20.1276 4.45889 20.0639 4.45889 20.0002C4.45889 11.4174 11.4164 4.45898 20.0001 4.45898C20.0638 4.45898 20.1283 4.45898 20.192 4.46062C22.1364 4.48347 23.9952 4.8647 25.7054 5.5398C26.8622 5.99694 27.9511 6.58796 28.9528 7.2949C29.6801 7.80919 30.3609 8.38306 30.9887 9.01082C31.8426 9.86388 32.5977 10.8165 33.2344 11.8492C34.6973 14.219 35.5413 17.0108 35.5413 20.0002Z" fill="url(#paint2_linear)" fill-opacity="0.7"/>
<path d="M30.9887 9.01082L9.01073 30.9888C8.38297 30.3618 7.80828 29.6802 7.29481 28.9529C6.58787 27.9512 5.99604 26.8622 5.53971 25.7055C4.86379 23.9953 4.48338 22.1357 4.46053 20.1912C4.45889 20.1276 4.45889 20.0639 4.45889 20.0002C4.45889 11.4174 11.4164 4.45898 20.0001 4.45898C20.0638 4.45898 20.1283 4.45898 20.1919 4.46062C22.1364 4.48347 23.9952 4.8647 25.7054 5.5398C26.8621 5.99694 27.9511 6.58796 28.9528 7.2949C29.6801 7.80919 30.3609 8.38307 30.9887 9.01082Z" fill="#20DBDB"/>
<path d="M35.5409 20.0002C35.5409 28.5831 28.5825 35.5414 19.9996 35.5414C19.7049 35.5414 19.4127 35.5333 19.1221 35.5169C27.2968 35.0622 33.7849 28.2884 33.7849 20.0002C33.7849 11.712 27.2968 4.93817 19.1221 4.48347C19.4127 4.46715 19.7049 4.45898 19.9996 4.45898C28.5825 4.45898 35.5409 11.4174 35.5409 20.0002Z" fill="#F68E00"/>
<path d="M35.5409 20.0002C35.5409 28.5831 28.5825 35.5414 19.9996 35.5414C19.7049 35.5414 19.4127 35.5333 19.1221 35.5169C27.2968 35.0622 33.7849 28.2884 33.7849 20.0002C33.7849 11.712 27.2968 4.93817 19.1221 4.48347C19.4127 4.46715 19.7049 4.45898 19.9996 4.45898C28.5825 4.45898 35.5409 11.4174 35.5409 20.0002Z" fill="#111111"/>
<path d="M35.5409 20.0002C35.5409 28.5831 28.5825 35.5414 19.9996 35.5414C19.7049 35.5414 19.4127 35.5333 19.1221 35.5169C27.2968 35.0622 33.7849 28.2884 33.7849 20.0002C33.7849 11.712 27.2968 4.93817 19.1221 4.48347C19.4127 4.46715 19.7049 4.45898 19.9996 4.45898C28.5825 4.45898 35.5409 11.4174 35.5409 20.0002Z" fill="url(#paint3_linear)" fill-opacity="0.5"/>
<g filter="url(#filter0_d)">
<path d="M31.1316 13.0625H28.0954V26.9983H31.1316V13.0625Z" fill="#1CFFFF"/>
<path d="M11.8643 13.0625H8.82812V26.9983H11.8643V13.0625Z" fill="#1CFFFF"/>
<path d="M18.7794 19.9177C18.7794 20.0735 18.8108 20.2312 18.8708 20.3766C18.9308 20.5219 19.0198 20.6549 19.131 20.7655C19.2421 20.8764 19.3753 20.9654 19.5205 21.0253C19.6657 21.0852 19.8229 21.1165 19.9801 21.1165C20.1374 21.1165 20.2946 21.0852 20.4398 21.0253C20.585 20.9654 20.7182 20.8761 20.8293 20.7655C20.9404 20.6545 21.0295 20.5216 21.0895 20.3766C21.1495 20.2312 21.1809 20.0735 21.1809 19.9177V14.168C21.1809 14.0122 21.1495 13.8544 21.0895 13.7091C21.0295 13.5637 20.9404 13.4307 20.8293 13.3202C20.7182 13.2092 20.585 13.1203 20.4398 13.0604C20.295 13.0001 20.1377 12.9688 19.9805 12.9688C19.8233 12.9688 19.6661 13.0001 19.5209 13.06C19.3757 13.1199 19.2425 13.2092 19.1314 13.3198C19.0202 13.4303 18.9312 13.5637 18.8712 13.7087C18.8111 13.8537 18.7798 14.0118 18.7798 14.1676V19.9177H18.7794Z" fill="#1CFFFF"/>
<path d="M17.8986 13.1709V16.4921C17.5291 16.7159 17.1938 17.002 16.9135 17.3337C16.6331 17.665 16.4078 18.0419 16.2486 18.4451C16.0891 18.848 15.9958 19.2775 15.9733 19.7101C15.9509 20.1427 15.9993 20.5795 16.1162 20.9966C16.2331 21.4142 16.4186 21.8123 16.6626 22.1707C16.9065 22.5291 17.2097 22.8476 17.5555 23.1094C17.9013 23.3715 18.29 23.5767 18.7016 23.7148C19.1133 23.8528 19.5473 23.9239 19.9814 23.9239C20.4155 23.9239 20.8495 23.8528 21.2611 23.7148C21.6728 23.5767 22.0615 23.3711 22.4073 23.1094C22.7531 22.8472 23.0559 22.5291 23.3002 22.1707C23.5442 21.8123 23.7297 21.4142 23.8466 20.9966C23.9635 20.5791 24.0119 20.1427 23.9895 19.7101C23.967 19.2771 23.8733 18.848 23.7142 18.4451C23.5546 18.0423 23.3297 17.6654 23.0493 17.3337C22.769 17.0024 22.4336 16.7159 22.0642 16.4921V13.1709C22.8604 13.416 23.6197 13.8065 24.2853 14.3156C24.9509 14.8247 25.5232 15.4526 25.9685 16.16C26.4138 16.8679 26.7325 17.6557 26.9041 18.4741C27.0752 19.2926 27.0992 20.1419 26.9745 20.9684C26.8499 21.7953 26.5765 22.5994 26.1714 23.3313C25.7664 24.0631 25.2297 24.7222 24.5951 25.2677C23.9604 25.8132 23.2274 26.2446 22.4425 26.5357C21.6573 26.8264 20.8201 26.9768 19.9826 26.9768C19.145 26.9768 18.3075 26.8268 17.5226 26.5357C16.7373 26.245 16.0047 25.8132 15.37 25.2677C14.7354 24.7222 14.1987 24.0631 13.7937 23.3313C13.3886 22.5994 13.1153 21.7949 12.9906 20.9684C12.8659 20.1415 12.8899 19.2926 13.0611 18.4741C13.2322 17.6557 13.5509 16.8679 13.9966 16.16C14.4419 15.4522 15.0142 14.8247 15.6798 14.3156C16.3431 13.8065 17.1024 13.416 17.8986 13.1709Z" fill="#1CFFFF"/>
</g>
<defs>
<filter id="filter0_d" x="7.82812" y="12.9688" width="23.3034" height="15.5296" filterUnits="userSpaceOnUse" color-interpolation-filters="sRGB">
<feFlood flood-opacity="0" result="BackgroundImageFix"/>
<feColorMatrix in="SourceAlpha" type="matrix" values="0 0 0 0 0 0 0 0 0 0 0 0 0 0 0 0 0 0 127 0"/>
<feOffset dx="-0.5" dy="1"/>
<feGaussianBlur stdDeviation="0.25"/>
<feColorMatrix type="matrix" values="0 0 0 0 0 0 0 0 0 0 0 0 0 0 0 0 0 0 0.25 0"/>
<feBlend mode="normal" in2="BackgroundImageFix" result="effect1_dropShadow"/>
<feBlend mode="normal" in="SourceGraphic" in2="effect1_dropShadow" result="shape"/>
</filter>
<linearGradient id="paint0_linear" x1="19.1016" y1="-2.14844" x2="-4.43678" y2="32.7591" gradientUnits="userSpaceOnUse">
<stop stop-color="#00F0FF"/>
<stop offset="1" stop-color="#0098D9"/>
<stop offset="1" stop-color="#0098D9"/>
</linearGradient>
<linearGradient id="paint1_linear" x1="31.7578" y1="4.14041" x2="-6.29815" y2="32.0221" gradientUnits="userSpaceOnUse">
<stop stop-color="#1CFFFF"/>
<stop offset="1" stop-color="#0098D9"/>
<stop offset="1" stop-color="#0098D9"/>
</linearGradient>
<linearGradient id="paint2_linear" x1="33.4692" y1="6.01311" x2="-1.14973" y2="29.2621" gradientUnits="userSpaceOnUse">
<stop stop-color="#00F0FF"/>
<stop offset="0.883466" stop-color="#0098D9"/>
<stop offset="1" stop-color="#0098D9"/>
</linearGradient>
<linearGradient id="paint3_linear" x1="34.4463" y1="6.01311" x2="10.8779" y2="14.3739" gradientUnits="userSpaceOnUse">
<stop stop-color="#00F0FF"/>
<stop offset="1" stop-color="#0098D9"/>
<stop offset="1" stop-color="#0098D9"/>
</linearGradient>
</defs>
</svg>
