<svg width="40" height="27" viewBox="0 0 40 27" fill="none" xmlns="http://www.w3.org/2000/svg">
<path d="M0 26.6667H18.6376L19.6609 20.7614H10.5248C15.2755 17.753 20.5745 13.2591 21.5246 7.948C22.219 3.82544 20.4648 0 14.1061 0C9.17263 0 4.27569 2.78551 2.85046 9.69359H9.79389C10.3055 7.09378 11.146 6.12813 12.5347 6.12813C13.8138 6.12813 14.3985 6.87094 14.1061 8.61653C13.4483 12.3677 7.12615 16.8617 0.950153 21.2071L0 26.6667Z" fill="white"/>
<path d="M31.1582 26.6667H37.3729L33.1638 18.4967L40 10H33.9266L30.9322 14.1889L28.7853 10H22.5706L26.6949 18.0214L20 26.6667H26.0452L29.0113 22.4777L31.1582 26.6667Z" fill="white"/>
<path fill-rule="evenodd" clip-rule="evenodd" d="M36.6654 6.79542C36.6654 7.59176 36.0198 8.23732 35.2235 8.23732H24.5122C23.7159 8.23732 23.0703 7.59176 23.0703 6.79542V6.79542C23.0703 5.99908 23.7159 5.35352 24.5122 5.35352H35.2235C36.0198 5.35352 36.6654 5.99908 36.6654 6.79542V6.79542Z" fill="white"/>
<path fill-rule="evenodd" clip-rule="evenodd" d="M30.6884 2.26417C30.6884 3.06051 30.0428 3.70607 29.2465 3.70607H23.0669C22.2706 3.70607 21.625 3.06051 21.625 2.26417V2.26417C21.625 1.46783 22.2706 0.822266 23.0669 0.822266H29.2465C30.0428 0.822266 30.6884 1.46783 30.6884 2.26417V2.26417Z" fill="white"/>
</svg>
