<svg width="40" height="40" viewBox="0 0 40 40" fill="none" xmlns="http://www.w3.org/2000/svg">
<g opacity="0.8">
<path d="M18.8484 0.415947C16.4024 0.723549 14.21 1.75435 12.4948 3.39275C10.8948 4.91595 9.85644 6.73115 9.33324 8.87715C9.14084 9.69235 9.13324 9.80795 9.08724 12.9463L9.04124 16.1771L8.65644 16.2311C7.27204 16.4311 5.88724 17.4387 5.26404 18.7155C4.74884 19.7771 4.77164 19.3615 4.77164 27.8923C4.77164 36.4615 4.74843 36.0151 5.28683 37.0923C5.63283 37.7767 6.52524 38.6923 7.21004 39.0459C7.47164 39.1843 7.94844 39.3615 8.27924 39.4459C8.85604 39.5919 9.17164 39.5999 19.956 39.5999C32.2404 39.5999 31.602 39.6231 32.694 39.0923C33.4708 38.7079 34.3324 37.8539 34.7248 37.0847C35.248 36.0307 35.2324 36.3923 35.2324 27.8927C35.2324 22.6543 35.2092 20.0927 35.1476 19.8159C35.0168 19.1775 34.5244 18.2315 34.0476 17.7007C33.3552 16.9391 32.3016 16.3699 31.3476 16.2315L30.9632 16.1775L30.9172 13.0239C30.8708 9.60075 30.8404 9.30115 30.3864 7.90115C29.5096 5.23195 27.5712 2.94755 25.0636 1.63995C23.4484 0.801548 22.0868 0.447548 20.2716 0.409145C19.6404 0.393147 18.9944 0.400749 18.8484 0.415947ZM21.4328 2.71595C23.356 3.05435 24.9172 3.89275 26.302 5.33115C27.2328 6.30035 27.8172 7.26955 28.248 8.52355C28.648 9.70794 28.694 10.2003 28.694 13.3003V16.1387H19.994H11.302L11.3252 13.0003L11.356 9.86954L11.5712 9.10035C11.9712 7.63875 12.6712 6.40795 13.702 5.33115C14.7636 4.23115 15.8328 3.53115 17.1944 3.06955C18.5328 2.60835 20.0788 2.48515 21.4328 2.71595ZM31.6324 18.6231C31.8864 18.7463 32.2168 18.9999 32.4172 19.2231C33.0404 19.9155 33.0096 19.3771 32.9864 27.9919L32.9632 35.6379L32.7864 35.9995C32.5556 36.4611 32.1016 36.9147 31.6324 37.1455L31.2708 37.3303H20.002H8.73324L8.37163 37.1455C7.91003 36.9223 7.44844 36.4763 7.21764 36.0455L7.04083 35.7147L7.01764 28.0303C6.99444 19.4307 6.96363 19.9227 7.54843 19.2611C7.91003 18.8459 8.29443 18.5995 8.77163 18.4763C9.04083 18.3995 11.6024 18.3839 20.156 18.3915L31.194 18.4079L31.6324 18.6231Z" fill="white"/>
<path d="M18.8484 0.415947C16.4024 0.723549 14.21 1.75435 12.4948 3.39275C10.8948 4.91595 9.85644 6.73115 9.33324 8.87715C9.14084 9.69235 9.13324 9.80795 9.08724 12.9463L9.04124 16.1771L8.65644 16.2311C7.27204 16.4311 5.88724 17.4387 5.26404 18.7155C4.74884 19.7771 4.77164 19.3615 4.77164 27.8923C4.77164 36.4615 4.74843 36.0151 5.28683 37.0923C5.63283 37.7767 6.52524 38.6923 7.21004 39.0459C7.47164 39.1843 7.94844 39.3615 8.27924 39.4459C8.85604 39.5919 9.17164 39.5999 19.956 39.5999C32.2404 39.5999 31.602 39.6231 32.694 39.0923C33.4708 38.7079 34.3324 37.8539 34.7248 37.0847C35.248 36.0307 35.2324 36.3923 35.2324 27.8927C35.2324 22.6543 35.2092 20.0927 35.1476 19.8159C35.0168 19.1775 34.5244 18.2315 34.0476 17.7007C33.3552 16.9391 32.3016 16.3699 31.3476 16.2315L30.9632 16.1775L30.9172 13.0239C30.8708 9.60075 30.8404 9.30115 30.3864 7.90115C29.5096 5.23195 27.5712 2.94755 25.0636 1.63995C23.4484 0.801548 22.0868 0.447548 20.2716 0.409145C19.6404 0.393147 18.9944 0.400749 18.8484 0.415947ZM21.4328 2.71595C23.356 3.05435 24.9172 3.89275 26.302 5.33115C27.2328 6.30035 27.8172 7.26955 28.248 8.52355C28.648 9.70794 28.694 10.2003 28.694 13.3003V16.1387H19.994H11.302L11.3252 13.0003L11.356 9.86954L11.5712 9.10035C11.9712 7.63875 12.6712 6.40795 13.702 5.33115C14.7636 4.23115 15.8328 3.53115 17.1944 3.06955C18.5328 2.60835 20.0788 2.48515 21.4328 2.71595ZM31.6324 18.6231C31.8864 18.7463 32.2168 18.9999 32.4172 19.2231C33.0404 19.9155 33.0096 19.3771 32.9864 27.9919L32.9632 35.6379L32.7864 35.9995C32.5556 36.4611 32.1016 36.9147 31.6324 37.1455L31.2708 37.3303H20.002H8.73324L8.37163 37.1455C7.91003 36.9223 7.44844 36.4763 7.21764 36.0455L7.04083 35.7147L7.01764 28.0303C6.99444 19.4307 6.96363 19.9227 7.54843 19.2611C7.91003 18.8459 8.29443 18.5995 8.77163 18.4763C9.04083 18.3995 11.6024 18.3839 20.156 18.3915L31.194 18.4079L31.6324 18.6231Z" fill="url(#paint0_linear)"/>
<path d="M19.1773 23.6073C18.7005 23.7921 18.1929 24.2765 17.9697 24.7533C17.8545 25.0073 17.8081 25.2457 17.8157 25.6765C17.8157 26.3917 18.0541 26.9073 18.5773 27.3381L18.9233 27.6305V29.5993C18.9233 31.4069 18.9385 31.5761 19.0773 31.8069C19.4697 32.4609 20.5313 32.4609 20.9233 31.8069C21.0617 31.5761 21.0773 31.4069 21.0773 29.5993V27.6301L21.4081 27.3609C21.5849 27.2069 21.8313 26.8993 21.9621 26.6685C22.2621 26.1149 22.2853 25.2917 22.0161 24.7453C21.4929 23.6765 20.2773 23.1841 19.1773 23.6073Z" fill="white"/>
<path d="M19.1773 23.6073C18.7005 23.7921 18.1929 24.2765 17.9697 24.7533C17.8545 25.0073 17.8081 25.2457 17.8157 25.6765C17.8157 26.3917 18.0541 26.9073 18.5773 27.3381L18.9233 27.6305V29.5993C18.9233 31.4069 18.9385 31.5761 19.0773 31.8069C19.4697 32.4609 20.5313 32.4609 20.9233 31.8069C21.0617 31.5761 21.0773 31.4069 21.0773 29.5993V27.6301L21.4081 27.3609C21.5849 27.2069 21.8313 26.8993 21.9621 26.6685C22.2621 26.1149 22.2853 25.2917 22.0161 24.7453C21.4929 23.6765 20.2773 23.1841 19.1773 23.6073Z" fill="url(#paint1_linear)"/>
</g>
<defs>
<linearGradient id="paint0_linear" x1="20.002" y1="39.6001" x2="20.002" y2="0.400246" gradientUnits="userSpaceOnUse">
<stop offset="0.130208" stop-color="#7F3519"/>
<stop offset="0.520833" stop-color="#FEA67E"/>
<stop offset="0.90625" stop-color="#D5805E"/>
<stop offset="1" stop-color="#F5C7AC"/>
</linearGradient>
<linearGradient id="paint1_linear" x1="20.0092" y1="32.2974" x2="20.0092" y2="23.4561" gradientUnits="userSpaceOnUse">
<stop offset="0.130208" stop-color="#7F3519"/>
<stop offset="0.520833" stop-color="#FEA67E"/>
<stop offset="0.90625" stop-color="#D5805E"/>
<stop offset="1" stop-color="#F5C7AC"/>
</linearGradient>
</defs>
</svg>
