<svg width="32" height="40" viewBox="0 0 32 40" fill="none" xmlns="http://www.w3.org/2000/svg">
<path d="M14.8484 0.415947C12.4024 0.723549 10.21 1.75435 8.49484 3.39275C6.89484 4.91595 5.85644 6.73115 5.33324 8.87715C5.14084 9.69235 5.13324 9.80795 5.08724 12.9463L5.04124 16.1771L4.65644 16.2311C3.27204 16.4311 1.88724 17.4387 1.26404 18.7155C0.748835 19.7771 0.771635 19.3615 0.771635 27.8923C0.771635 36.4615 0.748435 36.0151 1.28683 37.0923C1.63283 37.7767 2.52524 38.6923 3.21004 39.0459C3.47164 39.1843 3.94844 39.3615 4.27924 39.4459C4.85604 39.5919 5.17164 39.5999 15.956 39.5999C28.2404 39.5999 27.602 39.6231 28.694 39.0923C29.4708 38.7079 30.3324 37.8539 30.7248 37.0847C31.248 36.0307 31.2324 36.3923 31.2324 27.8927C31.2324 22.6543 31.2092 20.0927 31.1476 19.8159C31.0168 19.1775 30.5244 18.2315 30.0476 17.7007C29.3552 16.9391 28.3016 16.3699 27.3476 16.2315L26.9632 16.1775L26.9172 13.0239C26.8708 9.60075 26.8404 9.30115 26.3864 7.90115C25.5096 5.23195 23.5712 2.94755 21.0636 1.63995C19.4484 0.801548 18.0868 0.447548 16.2716 0.409145C15.6404 0.393147 14.9944 0.400749 14.8484 0.415947ZM17.4328 2.71595C19.356 3.05435 20.9172 3.89275 22.302 5.33115C23.2328 6.30035 23.8172 7.26955 24.248 8.52355C24.648 9.70794 24.694 10.2003 24.694 13.3003V16.1387H15.994H7.30204L7.32524 13.0003L7.35604 9.86954L7.57124 9.10035C7.97124 7.63875 8.67124 6.40795 9.70204 5.33115C10.7636 4.23115 11.8328 3.53115 13.1944 3.06955C14.5328 2.60835 16.0788 2.48515 17.4328 2.71595ZM27.6324 18.6231C27.8864 18.7463 28.2168 18.9999 28.4172 19.2231C29.0404 19.9155 29.0096 19.3771 28.9864 27.9919L28.9632 35.6379L28.7864 35.9995C28.5556 36.4611 28.1016 36.9147 27.6324 37.1455L27.2708 37.3303H16.002H4.73324L4.37163 37.1455C3.91003 36.9223 3.44844 36.4763 3.21764 36.0455L3.04083 35.7147L3.01764 28.0303C2.99444 19.4307 2.96363 19.9227 3.54843 19.2611C3.91003 18.8459 4.29443 18.5995 4.77163 18.4763C5.04083 18.3995 7.60244 18.3839 16.156 18.3915L27.194 18.4079L27.6324 18.6231Z" fill="white"/>
<path d="M14.8484 0.415947C12.4024 0.723549 10.21 1.75435 8.49484 3.39275C6.89484 4.91595 5.85644 6.73115 5.33324 8.87715C5.14084 9.69235 5.13324 9.80795 5.08724 12.9463L5.04124 16.1771L4.65644 16.2311C3.27204 16.4311 1.88724 17.4387 1.26404 18.7155C0.748835 19.7771 0.771635 19.3615 0.771635 27.8923C0.771635 36.4615 0.748435 36.0151 1.28683 37.0923C1.63283 37.7767 2.52524 38.6923 3.21004 39.0459C3.47164 39.1843 3.94844 39.3615 4.27924 39.4459C4.85604 39.5919 5.17164 39.5999 15.956 39.5999C28.2404 39.5999 27.602 39.6231 28.694 39.0923C29.4708 38.7079 30.3324 37.8539 30.7248 37.0847C31.248 36.0307 31.2324 36.3923 31.2324 27.8927C31.2324 22.6543 31.2092 20.0927 31.1476 19.8159C31.0168 19.1775 30.5244 18.2315 30.0476 17.7007C29.3552 16.9391 28.3016 16.3699 27.3476 16.2315L26.9632 16.1775L26.9172 13.0239C26.8708 9.60075 26.8404 9.30115 26.3864 7.90115C25.5096 5.23195 23.5712 2.94755 21.0636 1.63995C19.4484 0.801548 18.0868 0.447548 16.2716 0.409145C15.6404 0.393147 14.9944 0.400749 14.8484 0.415947ZM17.4328 2.71595C19.356 3.05435 20.9172 3.89275 22.302 5.33115C23.2328 6.30035 23.8172 7.26955 24.248 8.52355C24.648 9.70794 24.694 10.2003 24.694 13.3003V16.1387H15.994H7.30204L7.32524 13.0003L7.35604 9.86954L7.57124 9.10035C7.97124 7.63875 8.67124 6.40795 9.70204 5.33115C10.7636 4.23115 11.8328 3.53115 13.1944 3.06955C14.5328 2.60835 16.0788 2.48515 17.4328 2.71595ZM27.6324 18.6231C27.8864 18.7463 28.2168 18.9999 28.4172 19.2231C29.0404 19.9155 29.0096 19.3771 28.9864 27.9919L28.9632 35.6379L28.7864 35.9995C28.5556 36.4611 28.1016 36.9147 27.6324 37.1455L27.2708 37.3303H16.002H4.73324L4.37163 37.1455C3.91003 36.9223 3.44844 36.4763 3.21764 36.0455L3.04083 35.7147L3.01764 28.0303C2.99444 19.4307 2.96363 19.9227 3.54843 19.2611C3.91003 18.8459 4.29443 18.5995 4.77163 18.4763C5.04083 18.3995 7.60244 18.3839 16.156 18.3915L27.194 18.4079L27.6324 18.6231Z" fill="url(#paint0_linear)"/>
<path d="M14.8484 0.415947C12.4024 0.723549 10.21 1.75435 8.49484 3.39275C6.89484 4.91595 5.85644 6.73115 5.33324 8.87715C5.14084 9.69235 5.13324 9.80795 5.08724 12.9463L5.04124 16.1771L4.65644 16.2311C3.27204 16.4311 1.88724 17.4387 1.26404 18.7155C0.748835 19.7771 0.771635 19.3615 0.771635 27.8923C0.771635 36.4615 0.748435 36.0151 1.28683 37.0923C1.63283 37.7767 2.52524 38.6923 3.21004 39.0459C3.47164 39.1843 3.94844 39.3615 4.27924 39.4459C4.85604 39.5919 5.17164 39.5999 15.956 39.5999C28.2404 39.5999 27.602 39.6231 28.694 39.0923C29.4708 38.7079 30.3324 37.8539 30.7248 37.0847C31.248 36.0307 31.2324 36.3923 31.2324 27.8927C31.2324 22.6543 31.2092 20.0927 31.1476 19.8159C31.0168 19.1775 30.5244 18.2315 30.0476 17.7007C29.3552 16.9391 28.3016 16.3699 27.3476 16.2315L26.9632 16.1775L26.9172 13.0239C26.8708 9.60075 26.8404 9.30115 26.3864 7.90115C25.5096 5.23195 23.5712 2.94755 21.0636 1.63995C19.4484 0.801548 18.0868 0.447548 16.2716 0.409145C15.6404 0.393147 14.9944 0.400749 14.8484 0.415947ZM17.4328 2.71595C19.356 3.05435 20.9172 3.89275 22.302 5.33115C23.2328 6.30035 23.8172 7.26955 24.248 8.52355C24.648 9.70794 24.694 10.2003 24.694 13.3003V16.1387H15.994H7.30204L7.32524 13.0003L7.35604 9.86954L7.57124 9.10035C7.97124 7.63875 8.67124 6.40795 9.70204 5.33115C10.7636 4.23115 11.8328 3.53115 13.1944 3.06955C14.5328 2.60835 16.0788 2.48515 17.4328 2.71595ZM27.6324 18.6231C27.8864 18.7463 28.2168 18.9999 28.4172 19.2231C29.0404 19.9155 29.0096 19.3771 28.9864 27.9919L28.9632 35.6379L28.7864 35.9995C28.5556 36.4611 28.1016 36.9147 27.6324 37.1455L27.2708 37.3303H16.002H4.73324L4.37163 37.1455C3.91003 36.9223 3.44844 36.4763 3.21764 36.0455L3.04083 35.7147L3.01764 28.0303C2.99444 19.4307 2.96363 19.9227 3.54843 19.2611C3.91003 18.8459 4.29443 18.5995 4.77163 18.4763C5.04083 18.3995 7.60244 18.3839 16.156 18.3915L27.194 18.4079L27.6324 18.6231Z" fill="url(#paint1_linear)"/>
<path d="M15.1778 23.6073C14.701 23.7921 14.1934 24.2765 13.9702 24.7533C13.855 25.0073 13.8086 25.2457 13.8162 25.6765C13.8162 26.3917 14.0546 26.9073 14.5778 27.3381L14.9238 27.6305V29.5993C14.9238 31.4069 14.939 31.5761 15.0778 31.8069C15.4702 32.4609 16.5318 32.4609 16.9238 31.8069C17.0622 31.5761 17.0778 31.4069 17.0778 29.5993V27.6301L17.4086 27.3609C17.5854 27.2069 17.8318 26.8993 17.9626 26.6685C18.2626 26.1149 18.2858 25.2917 18.0166 24.7453C17.4934 23.6765 16.2778 23.1841 15.1778 23.6073Z" fill="white"/>
<path d="M15.1778 23.6073C14.701 23.7921 14.1934 24.2765 13.9702 24.7533C13.855 25.0073 13.8086 25.2457 13.8162 25.6765C13.8162 26.3917 14.0546 26.9073 14.5778 27.3381L14.9238 27.6305V29.5993C14.9238 31.4069 14.939 31.5761 15.0778 31.8069C15.4702 32.4609 16.5318 32.4609 16.9238 31.8069C17.0622 31.5761 17.0778 31.4069 17.0778 29.5993V27.6301L17.4086 27.3609C17.5854 27.2069 17.8318 26.8993 17.9626 26.6685C18.2626 26.1149 18.2858 25.2917 18.0166 24.7453C17.4934 23.6765 16.2778 23.1841 15.1778 23.6073Z" fill="url(#paint2_linear)"/>
<path d="M15.1778 23.6073C14.701 23.7921 14.1934 24.2765 13.9702 24.7533C13.855 25.0073 13.8086 25.2457 13.8162 25.6765C13.8162 26.3917 14.0546 26.9073 14.5778 27.3381L14.9238 27.6305V29.5993C14.9238 31.4069 14.939 31.5761 15.0778 31.8069C15.4702 32.4609 16.5318 32.4609 16.9238 31.8069C17.0622 31.5761 17.0778 31.4069 17.0778 29.5993V27.6301L17.4086 27.3609C17.5854 27.2069 17.8318 26.8993 17.9626 26.6685C18.2626 26.1149 18.2858 25.2917 18.0166 24.7453C17.4934 23.6765 16.2778 23.1841 15.1778 23.6073Z" fill="url(#paint3_linear)"/>
<defs>
<linearGradient id="paint0_linear" x1="16.002" y1="39.6001" x2="16.002" y2="0.400246" gradientUnits="userSpaceOnUse">
<stop offset="0.130208" stop-color="#7F3519"/>
<stop offset="0.520833" stop-color="#FEA67E"/>
<stop offset="0.90625" stop-color="#D5805E"/>
<stop offset="1" stop-color="#F5C7AC"/>
</linearGradient>
<linearGradient id="paint1_linear" x1="16.002" y1="39.6001" x2="16.002" y2="0.400246" gradientUnits="userSpaceOnUse">
<stop stop-color="#79A3AC"/>
<stop offset="0.651042" stop-color="#E4FCFF"/>
<stop offset="0.833333" stop-color="#B1CCD1"/>
<stop offset="0.9999" stop-color="#939393"/>
</linearGradient>
<linearGradient id="paint2_linear" x1="16.0097" y1="32.2974" x2="16.0097" y2="23.4562" gradientUnits="userSpaceOnUse">
<stop offset="0.130208" stop-color="#7F3519"/>
<stop offset="0.520833" stop-color="#FEA67E"/>
<stop offset="0.90625" stop-color="#D5805E"/>
<stop offset="1" stop-color="#F5C7AC"/>
</linearGradient>
<linearGradient id="paint3_linear" x1="16.0097" y1="32.2974" x2="16.0097" y2="23.4562" gradientUnits="userSpaceOnUse">
<stop stop-color="#79A3AC"/>
<stop offset="0.651042" stop-color="#E4FCFF"/>
<stop offset="0.833333" stop-color="#B1CCD1"/>
<stop offset="0.9999" stop-color="#939393"/>
</linearGradient>
</defs>
</svg>
