<svg width="40" height="40" viewBox="0 0 40 40" fill="none" xmlns="http://www.w3.org/2000/svg">
<path d="M7.0342 4.68044H16.5799C17.814 4.68044 18.8143 3.63289 18.8143 2.34044C18.8143 1.04756 17.814 0 16.5799 0H5.36296C2.40118 0 0 2.51467 0 5.61644V34.384C0 37.4853 2.40118 40 5.36296 40H16.5799C17.814 40 18.8143 38.9524 18.8143 37.66C18.8143 36.3676 17.814 35.32 16.5799 35.32H7.03504C5.61802 35.32 4.46921 34.1169 4.46921 32.6329V7.36667C4.46921 5.88311 5.6176 4.68044 7.0342 4.68044Z" fill="white"/>
<path d="M22.8733 24.6569V30.6089C22.8733 31.5182 23.8443 32.0578 24.5632 31.548L39.5245 20.9387C40.1585 20.4889 40.1589 19.5107 39.5245 19.0609L24.5636 8.44888C23.8447 7.93911 22.8737 8.47822 22.8737 9.38755V15.3391L11.5719 15.34C10.9739 15.34 10.4893 15.8476 10.4893 16.4738V23.5218C10.4893 24.148 10.9739 24.6556 11.5719 24.6556L22.8733 24.6569Z" fill="white"/>
</svg>
