<svg width="30" height="18" viewBox="0 0 30 18" fill="none" xmlns="http://www.w3.org/2000/svg">
<path d="M29.9029 0.740932C29.8386 0.593237 29.7454 0.46117 29.6294 0.35065C29.6218 0.34345 29.6143 0.342222 29.608 0.336249C29.4945 0.234158 29.3647 0.148923 29.2185 0.091263C29.0987 0.0444315 28.9727 0.0300303 28.8467 0.0192016C28.8089 0.0168014 28.7773 0 28.7395 0H18.6556C17.9586 0 17.3951 0.536749 17.3951 1.20082C17.3951 1.86489 17.9586 2.40164 18.6556 2.40164H25.7093L15.7313 11.9612L11.9347 7.33089C11.7154 7.06313 11.3889 6.89741 11.036 6.87218C10.6692 6.84695 10.3314 6.96584 10.0743 7.1976L0.393749 15.9286C-0.111731 16.385 -0.133117 17.145 0.344589 17.6266C0.594194 17.8751 0.926942 18 1.26098 18C1.57234 18 1.88364 17.8907 2.12692 17.6722L10.8003 9.84897L14.6233 14.5116C14.8465 14.7842 15.1805 14.9511 15.5422 14.9715C15.904 14.9907 16.2557 14.8635 16.5115 14.6197L27.479 4.11152V10.8072C27.479 11.4712 28.0424 12.008 28.7395 12.008C29.4365 12.008 30 11.4713 30 10.8072V1.20087V1.19965C29.9987 1.04235 29.9659 0.887455 29.9029 0.740932Z" fill="white"/>
</svg>
