<svg width="50" height="40" viewBox="0 0 50 40" fill="none" xmlns="http://www.w3.org/2000/svg">
<path d="M46.3987 6.51367H3.59418C1.61232 6.51367 0 8.10245 0 10.0554L0.483917 20.2275C0.494913 22.1565 2.08083 23.7258 4.0385 23.7475L12.9536 24.4997C14.3525 24.6188 15.5711 24.7488 16.6797 24.8983C17.542 25.0133 18.4087 25.1108 19.2775 25.191V23.6457C19.2797 23.6022 19.2797 23.5588 19.2818 23.5155H19.3457C19.4248 21.4565 21.156 19.8027 23.2632 19.8027H26.732C28.837 19.8027 30.5682 21.4565 30.6473 23.5155H30.7133C30.7155 23.5588 30.7177 23.6022 30.7177 23.6457V25.1888C31.5865 25.1065 32.4553 25.0112 33.3155 24.8962C34.4218 24.7467 35.6403 24.6167 37.0415 24.4975L45.9567 23.7453C47.912 23.7237 49.5002 22.1543 49.5112 20.2253L49.993 10.0922L49.9952 10.0532C49.9907 8.10245 48.3783 6.51367 46.3987 6.51367Z" fill="white"/>
<path d="M46.0365 25.3431L37.1765 26.0907C35.8215 26.2057 34.6315 26.3314 33.5338 26.4809C32.6891 26.5936 31.794 26.6956 30.8656 26.7822L30.4521 26.8212C29.9375 28.3624 28.4636 29.4742 26.7305 29.4742H23.2616C21.5283 29.4742 20.0546 28.3602 19.5376 26.8212L19.1241 26.7822C18.1981 26.6956 17.3006 26.5957 16.4582 26.4809C15.3606 26.3336 14.1684 26.2057 12.8134 26.0907L3.95333 25.3431C3.5992 25.3344 3.24945 25.2909 2.91072 25.2129H2.15625V36.2651C2.15625 37.8342 3.31985 39.1109 4.7518 39.1109H45.238C46.67 39.1109 47.8335 37.8342 47.8335 36.2651V25.2259H47.0218C46.7008 25.2974 46.3708 25.3344 46.0365 25.3431Z" fill="white"/>
<path d="M17.5185 5.404C17.8506 5.404 18.1696 5.28263 18.4181 5.0637L20.1405 3.53562H29.854L31.5763 5.0637C31.8226 5.28263 32.1438 5.404 32.4758 5.404C32.8565 5.404 33.2215 5.24362 33.4766 4.964C33.7165 4.70173 33.8396 4.36143 33.8198 4.00813C33.8 3.65483 33.6438 3.3297 33.3755 3.09345L31.2683 1.22506C31.022 1.00615 30.703 0.884766 30.3686 0.884766H19.6235C19.2913 0.884766 18.9703 1.00615 18.7238 1.22506L16.6166 3.09345C16.0645 3.5833 16.0205 4.42213 16.5177 4.96617C16.7728 5.24362 17.1358 5.404 17.5185 5.404Z" fill="white"/>
<path d="M26.7318 27.8723C27.9964 27.8723 29.0259 26.858 29.0259 25.6117V23.6522C29.0192 22.4102 27.9921 21.4023 26.7318 21.4023H23.2629C22.0026 21.4023 20.9752 22.4102 20.9688 23.6522V25.6117C20.9688 26.858 21.9981 27.8723 23.2629 27.8723H26.7318Z" fill="white"/>
</svg>
