<svg width="20" height="20" viewBox="0 0 20 20" fill="none" xmlns="http://www.w3.org/2000/svg">
<path d="M10 0C4.47715 0 0 4.47715 0 10C0 15.5228 4.47715 20 10 20C15.5228 20 20 15.5228 20 10C19.9941 4.47962 15.5204 0.00590124 10 0ZM10 18.5714C5.26612 18.5714 1.42856 14.7339 1.42856 10C1.42856 5.26612 5.26612 1.42856 10 1.42856C14.7339 1.42856 18.5714 5.26612 18.5714 10C18.5663 14.7318 14.7318 18.5663 10 18.5714Z" fill="url(#paint0_linear)"/>
<path d="M15.4879 5.92317C15.211 5.65582 14.7722 5.65582 14.4954 5.92317L7.85756 12.561L5.50539 10.2089C5.23134 9.92509 4.77912 9.91726 4.4954 10.1913C4.21164 10.4654 4.20381 10.9176 4.47786 11.2013C4.4836 11.2072 4.48946 11.2131 4.4954 11.2188L7.35256 14.076C7.63147 14.3549 8.08364 14.3549 8.36255 14.076L15.5054 6.93312C15.7795 6.6494 15.7716 6.19722 15.4879 5.92317Z" fill="url(#paint1_linear)"/>
<defs>
<linearGradient id="paint0_linear" x1="0.5" y1="11.5" x2="19.5" y2="13.5" gradientUnits="userSpaceOnUse">
<stop stop-color="#59C36A"/>
<stop offset="1" stop-color="#409F4F"/>
</linearGradient>
<linearGradient id="paint1_linear" x1="7.00049" y1="9" x2="16.0005" y2="10.5" gradientUnits="userSpaceOnUse">
<stop stop-color="#59C36A"/>
<stop offset="1" stop-color="#409F4F"/>
</linearGradient>
</defs>
</svg>
