<svg width="155" height="36" viewBox="0 0 155 36" fill="none" xmlns="http://www.w3.org/2000/svg">
<path d="M17.7345 0.253906C7.94505 0.253906 0 8.19896 0 17.9884C0 27.7778 7.94505 35.7229 17.7345 35.7229C27.5239 35.7229 35.469 27.7778 35.469 17.9884C35.469 8.19896 27.5239 0.253906 17.7345 0.253906ZM8.76084 18.5914L8.83178 18.485L13.4427 11.2493C13.5137 11.1429 13.6556 11.1429 13.7265 11.2848C14.5068 13.0227 15.1453 15.1509 14.8615 16.4987C14.7196 17.0307 14.3649 17.8111 13.9393 18.485C13.8684 18.5914 13.8329 18.6978 13.762 18.7687C13.7265 18.8042 13.691 18.8397 13.6201 18.8397H8.86725C8.76084 18.8397 8.6899 18.6978 8.76084 18.5914ZM29.2974 21.0742C29.2974 21.1451 29.2619 21.2161 29.191 21.2161C28.8363 21.358 27.5949 21.9255 27.0983 22.6348C25.786 24.4438 24.8283 27.033 22.5937 27.033H13.3718C10.1087 27.033 7.44849 24.3728 7.44849 21.0742V20.9678C7.44849 20.8969 7.51943 20.8259 7.62583 20.8259H12.7688C12.8752 20.8259 12.9462 20.9323 12.9462 21.0033C12.9107 21.3225 12.9817 21.6772 13.1235 21.9964C13.4427 22.6348 14.0812 22.9895 14.7551 22.9895H17.3089V21.0033H14.7906C14.6487 21.0033 14.5778 20.8614 14.6487 20.755C14.6842 20.7195 14.7196 20.684 14.7551 20.6131C15.0034 20.2584 15.3226 19.7619 15.6773 19.1589C15.9256 18.7687 16.1384 18.3076 16.3157 17.882C16.3512 17.8111 16.3867 17.7401 16.4221 17.6337C16.4576 17.4918 16.5285 17.35 16.564 17.2436C16.5995 17.1371 16.635 17.0307 16.6704 16.9243C16.7414 16.5696 16.7768 16.1795 16.7768 15.7539C16.7768 15.612 16.7768 15.4346 16.7414 15.2573C16.7414 15.0799 16.7059 14.9026 16.7059 14.7253C16.7059 14.5834 16.6704 14.406 16.635 14.2642C16.5995 14.0159 16.564 13.8031 16.4931 13.5548L16.4576 13.4838C16.4221 13.3065 16.3867 13.1646 16.3157 13.0227C16.1739 12.5262 15.9965 12.0296 15.8192 11.604C15.7482 11.4266 15.6773 11.2493 15.6064 11.0719C15.4999 10.8237 15.3935 10.5754 15.2871 10.3626C15.2162 10.2562 15.1807 10.1852 15.1453 10.0788C15.1098 9.97241 15.0389 9.866 15.0034 9.75959C14.9679 9.68866 14.9324 9.61772 14.897 9.54678L14.5778 8.97928C14.5423 8.90834 14.6132 8.80193 14.6842 8.8374L16.635 9.36944L16.8832 9.44037L17.167 9.51131L17.2734 9.54678V8.3763C17.2734 7.8088 17.7345 7.3477 18.2665 7.3477C18.5503 7.3477 18.7986 7.45411 18.9759 7.63146C19.1533 7.8088 19.2597 8.05708 19.2597 8.34084V10.0788L19.4725 10.1498C19.4725 10.1498 19.5079 10.1498 19.5079 10.1852C19.5434 10.2207 19.6498 10.2916 19.7208 10.3626C19.7917 10.4335 19.8626 10.5044 19.969 10.5754C20.1464 10.7173 20.3947 10.9301 20.643 11.1429C20.7139 11.2138 20.7848 11.2493 20.8203 11.3202C21.1395 11.604 21.4942 11.9587 21.8489 12.3488C21.9553 12.4552 22.0262 12.5616 22.1327 12.6681C22.2391 12.7745 22.31 12.8809 22.4164 13.0227C22.5228 13.1646 22.6647 13.342 22.7711 13.5193C22.8066 13.5902 22.8775 13.6612 22.913 13.7676C23.0548 13.9804 23.1612 14.1932 23.3031 14.406C23.3386 14.5124 23.4095 14.6188 23.445 14.7253C23.5869 15.009 23.6933 15.2928 23.7288 15.612C23.7642 15.6829 23.7642 15.7539 23.7642 15.7893C23.7997 15.8603 23.7997 15.9667 23.7997 16.0731C23.8352 16.3923 23.7997 16.676 23.7642 16.9953C23.7288 17.1371 23.6933 17.2436 23.6578 17.3854C23.6223 17.4918 23.5869 17.6337 23.5159 17.7756C23.4095 18.0239 23.2677 18.2722 23.1258 18.5204C23.0903 18.5914 23.0194 18.6978 22.9484 18.8042C22.8775 18.9106 22.8066 18.9815 22.7711 19.0879C22.7002 19.1943 22.5937 19.3008 22.5228 19.4072C22.4519 19.5136 22.3809 19.62 22.2745 19.7264C22.1681 19.8683 22.0262 20.0101 21.9198 20.152C21.8489 20.2229 21.778 20.3294 21.6716 20.4003C21.6006 20.4712 21.5297 20.5776 21.4587 20.6486C21.3169 20.755 21.2459 20.8614 21.1395 20.9323L20.9267 21.1097C20.8912 21.1451 20.8558 21.1451 20.8203 21.1451H19.2597V23.1314H21.2105C21.6361 23.1314 22.0617 22.9895 22.3809 22.7058C22.4873 22.5994 22.9839 22.1737 23.5869 21.5353C23.6223 21.4998 23.6223 21.4998 23.6578 21.4998L29.12 19.7619C29.2264 19.7264 29.3329 19.7973 29.3329 19.9037V21.0742H29.2974Z" fill="white"/>
<path d="M52.7436 26.5001C51.1475 26.5001 49.6578 26.1454 48.3099 25.436C46.9976 24.7267 45.9335 23.7335 45.1177 22.4212C44.3374 21.1088 43.9473 19.6546 43.9473 18.0585C43.9473 16.4624 44.3374 15.0082 45.1177 13.7313C45.8981 12.4544 46.9621 11.4613 48.3099 10.7164C49.6578 10.007 51.112 9.65234 52.7436 9.65234C54.3397 9.65234 55.8294 10.007 57.1417 10.7164C58.4896 11.4258 59.5536 12.4189 60.2985 13.7313C61.0788 15.0082 61.4689 16.4624 61.4689 18.0585C61.4689 19.6546 61.0788 21.1088 60.2985 22.4212C59.5182 23.6981 58.4541 24.6912 57.1417 25.436C55.8294 26.1454 54.3397 26.5001 52.7436 26.5001ZM52.7436 22.8468C54.0914 22.8468 55.1909 22.4212 56.0067 21.5345C56.8225 20.6477 57.2481 19.5127 57.2481 18.0585C57.2481 16.6043 56.8225 15.4338 56.0067 14.5825C55.1909 13.6958 54.1269 13.2702 52.7436 13.2702C51.3603 13.2702 50.2607 13.6958 49.445 14.5471C48.6292 15.3983 48.239 16.5688 48.239 18.023C48.239 19.4773 48.6292 20.6477 49.445 21.499C50.2607 22.4212 51.3603 22.8468 52.7436 22.8468Z" fill="white"/>
<path d="M67.9253 15.1158C68.3154 14.5128 68.8829 14.0163 69.5923 13.6261C70.3017 13.2359 71.1529 13.0586 72.1106 13.0586C73.2101 13.0586 74.2387 13.3423 75.1609 13.8744C76.0831 14.4064 76.7925 15.1867 77.2891 16.2153C77.8211 17.2439 78.1049 18.4144 78.1049 19.7622C78.1049 21.1101 77.8211 22.2805 77.2891 23.3091C76.757 24.3377 76.0477 25.118 75.1609 25.6856C74.2387 26.2176 73.2456 26.5013 72.1106 26.5013C71.1884 26.5013 70.3372 26.324 69.5923 25.9338C68.8829 25.5437 68.3154 25.0826 67.9253 24.4796V30.1901H63.7754V13.2714H67.9253V15.1158ZM73.8486 19.7622C73.8486 18.7691 73.5648 17.9888 72.9619 17.4213C72.3944 16.8538 71.685 16.57 70.8337 16.57C70.0179 16.57 69.3086 16.8538 68.7056 17.4213C68.1381 17.9888 67.8543 18.8046 67.8543 19.7977C67.8543 20.7908 68.1381 21.5712 68.7056 22.1741C69.2731 22.7416 69.9825 23.0254 70.8337 23.0254C71.6495 23.0254 72.3589 22.7416 72.9619 22.1741C73.5648 21.5712 73.8486 20.7908 73.8486 19.7622Z" fill="white"/>
<path d="M93.0355 19.5862C93.0355 19.9764 93 20.3665 92.9645 20.7567H83.5653C83.6362 21.5725 83.8845 22.2109 84.381 22.6365C84.8776 23.0622 85.4451 23.275 86.1545 23.275C87.1831 23.275 87.9279 22.8494 88.3181 21.9981H92.7517C92.5389 22.8494 92.1133 23.6297 91.5103 24.3036C90.9428 24.9775 90.198 25.545 89.3112 25.9352C88.4245 26.3253 87.4314 26.5381 86.3318 26.5381C85.0195 26.5381 83.8135 26.2544 82.7849 25.7224C81.7563 25.1903 80.9406 24.41 80.3731 23.3814C79.8055 22.3528 79.4863 21.1823 79.4863 19.8345C79.4863 18.4867 79.7701 17.2807 80.3376 16.2876C80.9051 15.259 81.7209 14.4787 82.7495 13.9466C83.7781 13.4146 84.984 13.1309 86.3318 13.1309C87.6442 13.1309 88.8147 13.3791 89.8433 13.9112C90.8719 14.4432 91.6522 15.1881 92.2197 16.1812C92.7517 17.1389 93.0355 18.2739 93.0355 19.5862ZM88.7792 18.5221C88.7792 17.8482 88.5309 17.2807 88.0344 16.8906C87.5378 16.5004 86.9348 16.2876 86.2254 16.2876C85.5161 16.2876 84.9486 16.5004 84.452 16.8906C83.9909 17.2807 83.7071 17.8482 83.5653 18.5576H88.7792V18.5221Z" fill="white"/>
<path d="M103.498 13.1309C105.094 13.1309 106.336 13.6274 107.294 14.6206C108.251 15.6137 108.712 16.9615 108.712 18.6995V26.3253H104.598V19.2315C104.598 18.3448 104.35 17.6709 103.888 17.2098C103.427 16.7132 102.789 16.5004 102.009 16.5004C101.228 16.5004 100.59 16.7487 100.129 17.2098C99.6677 17.7064 99.4194 18.3803 99.4194 19.2315V26.3253H95.2695V13.2727H99.4194V15.0107C99.845 14.4432 100.413 13.9821 101.122 13.6629C101.796 13.3082 102.612 13.1309 103.498 13.1309Z" fill="white"/>
<path d="M117.756 26.5001C116.515 26.5001 115.38 26.2873 114.387 25.8971C113.393 25.507 112.613 24.9395 112.01 24.1592C111.443 23.3788 111.123 22.4566 111.088 21.3926H115.522C115.592 21.9956 115.805 22.4566 116.195 22.8113C116.55 23.1306 117.047 23.2724 117.65 23.2724C118.253 23.2724 118.749 23.1306 119.104 22.8823C119.459 22.5985 119.636 22.2084 119.636 21.7473C119.636 21.3571 119.494 21.0024 119.21 20.7541C118.927 20.5059 118.572 20.2576 118.182 20.1157C117.792 19.9384 117.189 19.761 116.444 19.5127C115.344 19.1935 114.457 18.8743 113.748 18.5196C113.039 18.2004 112.436 17.7038 111.939 17.0654C111.443 16.4269 111.194 15.5757 111.194 14.5471C111.194 13.0219 111.762 11.816 112.932 10.9647C114.067 10.078 115.592 9.65234 117.437 9.65234C119.317 9.65234 120.842 10.078 121.977 10.9647C123.112 11.816 123.75 13.0219 123.821 14.5825H119.317C119.281 14.0505 119.068 13.6249 118.714 13.3411C118.324 13.0219 117.862 12.88 117.295 12.88C116.798 12.88 116.373 13.0219 116.089 13.2702C115.77 13.5185 115.628 13.8732 115.628 14.3697C115.628 14.9018 115.876 15.3274 116.408 15.6111C116.94 15.8949 117.721 16.2141 118.82 16.5688C119.92 16.9235 120.806 17.2782 121.48 17.5974C122.19 17.9166 122.793 18.4132 123.289 19.0162C123.786 19.6546 124.034 20.4349 124.034 21.428C124.034 22.3502 123.786 23.2015 123.289 23.9818C122.793 24.7621 122.083 25.3651 121.161 25.8262C120.168 26.2873 119.068 26.5001 117.756 26.5001Z" fill="white"/>
<path d="M139.321 19.5862C139.321 19.9764 139.285 20.3665 139.25 20.7567H129.85C129.921 21.5725 130.17 22.2109 130.666 22.6365C131.163 23.0622 131.73 23.275 132.44 23.275C133.468 23.275 134.213 22.8494 134.603 21.9981H139.037C138.824 22.8494 138.398 23.6297 137.795 24.3036C137.228 24.9775 136.483 25.545 135.596 25.9352C134.71 26.3253 133.717 26.5381 132.617 26.5381C131.305 26.5381 130.099 26.2544 129.07 25.7224C128.041 25.1903 127.226 24.41 126.658 23.3814C126.091 22.3528 125.771 21.1823 125.771 19.8345C125.771 18.4867 126.055 17.2807 126.623 16.2876C127.19 15.259 128.006 14.4787 129.035 13.9466C130.063 13.4146 131.269 13.1309 132.617 13.1309C133.929 13.1309 135.1 13.3791 136.128 13.9112C137.157 14.4432 137.937 15.1881 138.505 16.1812C139.037 17.1389 139.321 18.2739 139.321 19.5862ZM135.064 18.5221C135.064 17.8482 134.816 17.2807 134.32 16.8906C133.823 16.5004 133.22 16.2876 132.511 16.2876C131.801 16.2876 131.234 16.5004 130.737 16.8906C130.276 17.2807 129.992 17.8482 129.85 18.5576H135.064V18.5221Z" fill="white"/>
<path d="M140.705 19.7622C140.705 18.4144 140.953 17.2439 141.485 16.2153C142.017 15.1867 142.727 14.4064 143.649 13.8744C144.571 13.3423 145.564 13.0586 146.699 13.0586C147.657 13.0586 148.473 13.2359 149.218 13.6261C149.962 14.0163 150.495 14.4774 150.885 15.1158V13.2714H154.999V26.3595H150.849V24.5151C150.459 25.1181 149.892 25.6146 149.147 26.0048C148.437 26.3949 147.586 26.5723 146.628 26.5723C145.529 26.5723 144.536 26.2885 143.614 25.7565C142.691 25.189 141.982 24.4087 141.45 23.3801C140.953 22.316 140.705 21.1101 140.705 19.7622ZM150.849 19.7977C150.849 18.8046 150.565 18.0243 149.962 17.4213C149.395 16.8538 148.686 16.57 147.87 16.57C147.054 16.57 146.345 16.8538 145.742 17.4213C145.174 17.9888 144.89 18.7691 144.89 19.7622C144.89 20.7554 145.174 21.5712 145.742 22.1387C146.309 22.7062 147.019 22.9899 147.87 22.9899C148.686 22.9899 149.395 22.7062 149.962 22.1387C150.565 21.5712 150.849 20.7908 150.849 19.7977Z" fill="white"/>
</svg>
