<svg width="24" height="24" viewBox="0 0 24 24" fill="none" xmlns="http://www.w3.org/2000/svg">
<g clip-path="url(#clip0)">
<path d="M12.0002 12.8438C9.67398 12.8438 7.78149 14.7363 7.78149 17.0625C7.78149 19.3887 9.67398 21.2812 12.0002 21.2812C14.3263 21.2812 16.2188 19.3887 16.2188 17.0625C16.2188 14.7363 14.3263 12.8438 12.0002 12.8438ZM12.0002 19.4062C10.7078 19.4062 9.65645 18.3548 9.65645 17.0625C9.65645 15.7702 10.7078 14.7188 12.0002 14.7188C13.2925 14.7188 14.3439 15.7702 14.3439 17.0625C14.3439 18.3548 13.2925 19.4062 12.0002 19.4062Z" fill="url(#paint0_radial)"/>
<path d="M23.8992 14.8418C22.8652 12.7939 21.2266 11.059 19.1595 9.82242L21.6972 7.2847C22.0633 6.91861 22.0633 6.32503 21.6972 5.95889C21.3311 5.5928 20.7376 5.5928 20.3714 5.95889L17.3943 8.93606C15.9912 8.35533 14.4851 8.00602 12.9375 7.90547V3.65625C12.9375 3.13847 12.5178 2.71875 12 2.71875C11.4822 2.71875 11.0625 3.13847 11.0625 3.65625V7.90542C9.5149 8.00597 8.00881 8.35528 6.60565 8.93602L3.62857 5.95884C3.26243 5.5927 2.66881 5.5927 2.30271 5.95884C1.93667 6.32494 1.93667 6.91852 2.30276 7.28466L4.84043 9.82238C2.77334 11.059 1.13478 12.7939 0.100807 14.8418C-0.132537 15.304 0.052994 15.8678 0.515181 16.1012C0.977228 16.3346 1.54128 16.1491 1.77457 15.6869C3.51354 12.2427 7.38889 9.75 12 9.75C16.6146 9.75 20.488 12.2457 22.2254 15.687C22.4592 16.1499 23.0233 16.3343 23.4848 16.1013C23.9471 15.8679 24.1326 15.304 23.8992 14.8418Z" fill="url(#paint1_radial)"/>
</g>
<defs>
<radialGradient id="paint0_radial" cx="0" cy="0" r="1" gradientUnits="userSpaceOnUse" gradientTransform="translate(6.00028 12.1771) rotate(58.6275) scale(16.0069 15.4282)">
<stop stop-color="#F3683A"/>
<stop offset="1" stop-color="#F9EC32"/>
</radialGradient>
<radialGradient id="paint1_radial" cx="0" cy="0" r="1" gradientUnits="userSpaceOnUse" gradientTransform="translate(-5.06667 1.6534) rotate(42.6563) scale(32.231 34.8288)">
<stop stop-color="#F3683A"/>
<stop offset="1" stop-color="#F9EC32"/>
</radialGradient>
<clipPath id="clip0">
<rect width="24" height="24" fill="white"/>
</clipPath>
</defs>
</svg>
