<svg width="40" height="40" viewBox="0 0 40 40" fill="none" xmlns="http://www.w3.org/2000/svg">
<path d="M21.7707 0C9.73877 0 0 9.73713 0 21.7707C0 22.4186 0.525157 22.9437 1.17297 22.9437H21.7707C22.4186 22.9437 22.9437 22.4186 22.9437 21.7707V1.17297C22.9437 0.525157 22.4186 0 21.7707 0Z" fill="white"/>
<path d="M13.4254 26.335C13.2196 25.9592 12.8251 25.7256 12.3967 25.7256H5.45966C5.0863 25.7256 4.73513 25.9033 4.51419 26.2044C4.29317 26.5055 4.2288 26.8936 4.34059 27.2499C6.5499 34.2865 12.9223 39.5181 20.5977 40.0001V31.2079C17.5872 30.8343 14.9066 29.0392 13.4254 26.335Z" fill="white"/>
<path d="M27.2498 4.33991C26.8936 4.2282 26.5052 4.29265 26.2043 4.51351C25.9032 4.73453 25.7255 5.08562 25.7255 5.45906V12.396C25.7255 12.8244 25.9591 13.2188 26.3348 13.4246C29.0389 14.906 30.8341 17.5865 31.2077 20.5969H39.9999C39.5168 12.9049 34.2698 6.54406 27.2498 4.33991Z" fill="white"/>
<path d="M31.2092 22.9443C30.6771 27.2528 27.2522 30.6777 22.9437 31.2098V39.9998C32.0963 39.4237 39.4223 32.1094 39.9991 22.9443H31.2092Z" fill="white"/>
</svg>
