<svg width="69" height="69" viewBox="0 0 69 69" fill="none" xmlns="http://www.w3.org/2000/svg">
<path d="M68.3453 37.2612C69.2182 35.5322 69.2182 33.4678 68.3453 31.7388L67.4413 29.9483C67.2443 29.5579 67.1754 29.1233 67.2421 28.6911L67.5485 26.7089C67.8445 24.7948 67.2066 22.8314 65.8419 21.4568L64.4291 20.0333C64.121 19.7229 63.9211 19.3307 63.8512 18.899L63.5301 16.9191C63.2234 15.0285 62.0334 13.3742 60.3413 12.4813L58.6029 11.4561C58.5693 11.4363 58.5352 11.4174 58.5004 11.3996C58.1115 11.1997 57.8004 10.8885 57.6005 10.4996L56.6832 8.71593C55.8183 7.03391 54.0548 5.79006 52.0807 5.46983L50.101 5.14879C49.6693 5.07871 49.2771 4.87897 48.9667 4.571L47.5432 3.15787C46.1686 1.79339 44.2056 1.1559 42.2912 1.45133L40.309 1.75767C39.8765 1.82452 39.442 1.75565 39.0517 1.55861L37.2612 0.654661C35.5323 -0.218153 33.4679 -0.218288 31.739 0.654661L29.9483 1.55861C29.5582 1.75552 29.1236 1.82425 28.6911 1.75781L26.709 1.45146C24.7945 1.15536 22.8314 1.79352 21.4569 3.158L20.0332 4.57087C19.723 4.87897 19.3308 5.07871 18.8991 5.14879L16.9191 5.46983C14.9451 5.79006 13.1816 7.03378 12.3167 8.71593L11.3996 10.4996C11.1995 10.8884 10.8883 11.1997 10.4994 11.3996L8.71561 12.3169C7.03359 13.1818 5.78974 14.9453 5.46964 16.9192L5.14847 18.8993C5.07852 19.3309 4.87865 19.723 4.57055 20.0334L3.15782 21.4569C1.79334 22.8315 1.15544 24.7948 1.45128 26.7089L1.75776 28.6912C1.82461 29.1233 1.75574 29.5579 1.55856 29.9483L0.654611 31.7388C-0.218204 33.4677 -0.218204 35.5321 0.654611 37.2611L1.55856 39.0516C1.7556 39.4419 1.82447 39.8766 1.75776 40.3088L1.45128 42.2911C1.15544 44.2052 1.79347 46.1685 3.15782 47.5431L4.57082 48.9667C4.87892 49.2771 5.07879 49.6692 5.14874 50.101L5.46991 52.0807C5.79001 54.0548 7.03386 55.8184 8.71588 56.6832L10.4995 57.6004C10.8885 57.8004 11.1997 58.1116 11.3997 58.5006L12.3168 60.2843C13.1818 61.9664 14.9454 63.2102 16.9193 63.5303L18.8992 63.8515C19.3309 63.9216 19.7231 64.1213 20.0333 64.4293L21.457 65.8424C22.8319 67.2069 24.795 67.8444 26.709 67.5488L28.6913 67.2423C29.1232 67.1755 29.5582 67.2445 29.9483 67.4415L31.739 68.3455C32.6034 68.7819 33.5517 69.0001 34.5 69.0001C35.4484 69.0001 36.3967 68.7819 37.2612 68.3455L39.0517 67.4415C39.442 67.2445 39.8769 67.1757 40.3089 67.2423L42.2911 67.5487C44.2052 67.8444 46.1684 67.2066 47.5432 65.8421L48.9667 64.4291C49.2769 64.121 49.6691 63.9213 50.101 63.8512L52.0807 63.53C53.9713 63.2234 55.6257 62.0335 56.5186 60.3412L57.5439 58.6029C57.5637 58.5692 57.5826 58.5351 57.6003 58.5003C57.8002 58.1115 58.1115 57.8003 58.5004 57.6003L60.284 56.6831C62.0065 55.7975 63.22 54.1273 63.5301 52.2154L63.8512 50.2357C63.9212 49.804 64.121 49.4118 64.4291 49.1014C64.4505 49.0798 65.8774 47.5072 65.8774 47.5072C67.2175 46.1344 67.8419 44.1885 67.5485 42.2911L67.2421 40.3089C67.1753 39.8767 67.2442 39.4419 67.4412 39.0516L68.3453 37.2612Z" fill="url(#paint0_linear)"/>
<path d="M34.504 10.1074C21.1111 10.1074 10.1094 21.1121 10.1094 34.502C10.1094 47.8949 21.114 58.8966 34.504 58.8966C47.8969 58.8966 58.8985 47.8919 58.8985 34.502C58.8985 21.1091 47.8938 10.1074 34.504 10.1074ZM48.5951 28.9274L44.5518 45.1006C44.3269 46.0005 43.5182 46.6319 42.5906 46.6319H26.4174C25.4897 46.6319 24.681 46.0005 24.4561 45.1006L20.4128 28.9274C20.1746 27.9746 20.6557 26.9885 21.5531 26.5895C22.4505 26.1907 23.5048 26.4947 24.0524 27.3099C24.6057 28.1232 26.607 30.4587 28.439 30.4587C28.7738 30.4587 29.811 29.6794 30.8795 27.2704C31.8382 25.1093 32.4823 22.3284 32.4823 20.3505C32.4823 19.234 33.3875 18.3288 34.504 18.3288C35.6205 18.3288 36.5256 19.234 36.5256 20.3505C36.5256 22.3284 37.1697 25.1093 38.1284 27.2704C39.197 29.6794 40.2341 30.4587 40.5689 30.4587C42.4554 30.4587 44.5088 27.975 44.9555 27.3099C45.5031 26.4948 46.5576 26.1909 47.4548 26.5895C48.3523 26.9885 48.8333 27.9746 48.5951 28.9274Z" fill="url(#paint1_linear)"/>
<defs>
<linearGradient id="paint0_linear" x1="34.5" y1="69.0001" x2="34.5" y2="4.93527e-05" gradientUnits="userSpaceOnUse">
<stop stop-color="#FD5900"/>
<stop offset="1" stop-color="#FFDE00"/>
</linearGradient>
<linearGradient id="paint1_linear" x1="34.504" y1="58.8966" x2="34.504" y2="10.1074" gradientUnits="userSpaceOnUse">
<stop stop-color="#FFE59A"/>
<stop offset="1" stop-color="#FFFFD5"/>
</linearGradient>
</defs>
</svg>
