<svg width="128" height="32" viewBox="0 0 128 32" fill="none" xmlns="http://www.w3.org/2000/svg">
<path d="M36.5441 0.0805921C34.6065 0.0809556 32.6902 0.485165 30.9175 1.26743C29.1449 2.0497 27.5547 3.19286 26.2485 4.62398C25.8807 4.9972 25.546 5.40165 25.2481 5.83277C23.5107 8.21778 22.5764 11.0934 22.5804 14.0442C22.5808 15.44 22.2372 16.8143 21.5801 18.0457C20.7901 19.5091 19.6061 20.7221 18.1621 21.547V27.3242C20.499 26.5957 22.5996 25.2576 24.2477 23.4478C26.6247 20.8889 27.9365 17.52 27.9158 14.0275C27.9235 11.7454 28.8364 9.55953 30.454 7.94971C32.0717 6.33989 34.2619 5.43763 36.5441 5.44095C38.0715 5.44194 39.5714 5.8484 40.8903 6.61881C42.2093 7.38922 43.3001 8.49596 44.0512 9.82595C44.8024 11.1559 45.1871 12.6615 45.1659 14.1888C45.1447 15.7162 44.7185 17.2105 43.9307 18.5191C43.1429 19.8278 42.0219 20.9039 40.6821 21.6374C39.3423 22.371 37.8317 22.7357 36.3048 22.6943C34.7779 22.653 33.2894 22.207 31.9912 21.402C30.6931 20.597 29.6319 19.4618 28.9162 18.1124C28.3861 20.0616 27.4798 21.8882 26.2485 23.4894C27.8198 25.1995 29.7926 26.4909 31.9885 27.2469C34.1844 28.0028 36.5341 28.1995 38.8251 27.8191C41.1161 27.4388 43.2761 26.4933 45.1099 25.0683C46.9436 23.6433 48.3933 21.7837 49.3277 19.6576C50.2621 17.5315 50.6518 15.206 50.4616 12.8915C50.2714 10.5769 49.5072 8.34627 48.2383 6.40128C46.9693 4.45628 45.2355 2.85827 43.1937 1.75176C41.1518 0.645259 38.8664 0.0651568 36.5441 0.0639191V0.0805921Z" fill="white"/>
<path d="M34.0428 10.2509V17.7954L40.587 14.044L34.0428 10.2509Z" fill="white"/>
<path d="M13.9895 17.7954C13.2834 17.7998 12.6074 18.0823 12.108 18.5816C11.6087 19.0809 11.3262 19.7569 11.3218 20.4631V22.2138C10.7902 22.0346 10.2743 21.8115 9.77959 21.5468C8.61061 20.8912 7.61063 19.9719 6.8591 18.8621C6.10757 17.7523 5.62519 16.4826 5.45027 15.1537C5.27536 13.8248 5.41274 12.4735 5.8515 11.207C6.29026 9.94057 7.0183 8.79387 7.9778 7.85802C8.9373 6.92217 10.1018 6.22296 11.3788 5.81594C12.6559 5.40892 14.0102 5.30531 15.3343 5.51332C16.6583 5.72133 17.9157 6.23525 19.0064 7.01424C20.0971 7.79323 20.9911 8.81583 21.6174 10.0008C22.1558 8.04208 23.0611 6.20332 24.2851 4.5821C22.8396 2.99814 21.0487 1.76827 19.0514 0.987805C17.0541 0.207341 14.9039 -0.102763 12.7674 0.0815231C10.6309 0.26581 8.56559 0.939538 6.73141 2.0505C4.89723 3.16146 3.34348 4.67982 2.19055 6.48792C1.03763 8.29601 0.31649 10.3453 0.083028 12.4769C-0.150434 14.6086 0.110046 16.7654 0.844284 18.7802C1.57852 20.7949 2.7668 22.6136 4.31704 24.0952C5.86727 25.5769 7.73783 26.6817 9.78376 27.324C10.2862 27.493 10.8021 27.6185 11.326 27.6992V28.4078C11.3168 28.7082 11.3737 29.0071 11.4927 29.2831C11.6717 29.8039 12.0081 30.2561 12.4554 30.5773C12.9028 30.8984 13.4389 31.0725 13.9895 31.0754C14.5422 31.079 15.0819 30.9075 15.5311 30.5855C15.9804 30.2635 16.3162 29.8076 16.4905 29.2831C16.586 29.0004 16.6421 28.7058 16.6572 28.4078V20.4631C16.6617 20.1115 16.5957 19.7626 16.4633 19.4369C16.3308 19.1113 16.1344 18.8154 15.8858 18.5668C15.6372 18.3182 15.3413 18.1218 15.0157 17.9894C14.69 17.8569 14.3411 17.7909 13.9895 17.7954Z" fill="white"/>
<path d="M13.9895 17.7954C13.2834 17.7998 12.6074 18.0823 12.108 18.5816C11.6087 19.0809 11.3262 19.7569 11.3218 20.4631V22.2138C10.7902 22.0346 10.2743 21.8115 9.77959 21.5468C8.61061 20.8912 7.61063 19.9719 6.8591 18.8621C6.10757 17.7523 5.62519 16.4826 5.45027 15.1537C5.27536 13.8248 5.41274 12.4735 5.8515 11.207C6.29026 9.94057 7.0183 8.79387 7.9778 7.85802C8.9373 6.92217 10.1018 6.22296 11.3788 5.81594C12.6559 5.40892 14.0102 5.30531 15.3343 5.51332C16.6583 5.72133 17.9157 6.23525 19.0064 7.01424C20.0971 7.79323 20.9911 8.81583 21.6174 10.0008C22.1558 8.04208 23.0611 6.20332 24.2851 4.5821C22.8396 2.99814 21.0487 1.76827 19.0514 0.987805C17.0541 0.207341 14.9039 -0.102763 12.7674 0.0815231C10.6309 0.26581 8.56559 0.939538 6.73141 2.0505C4.89723 3.16146 3.34348 4.67982 2.19055 6.48792C1.03763 8.29601 0.31649 10.3453 0.083028 12.4769C-0.150434 14.6086 0.110046 16.7654 0.844284 18.7802C1.57852 20.7949 2.7668 22.6136 4.31704 24.0952C5.86727 25.5769 7.73783 26.6817 9.78376 27.324C10.2862 27.493 10.8021 27.6185 11.326 27.6992V28.4078C11.3168 28.7082 11.3737 29.0071 11.4927 29.2831C11.6717 29.8039 12.0081 30.2561 12.4554 30.5773C12.9028 30.8984 13.4389 31.0725 13.9895 31.0754C14.5422 31.079 15.0819 30.9075 15.5311 30.5855C15.9804 30.2635 16.3162 29.8076 16.4905 29.2831C16.586 29.0004 16.6421 28.7058 16.6572 28.4078V20.4631C16.6617 20.1115 16.5957 19.7626 16.4633 19.4369C16.3308 19.1113 16.1344 18.8154 15.8858 18.5668C15.6372 18.3182 15.3413 18.1218 15.0157 17.9894C14.69 17.8569 14.3411 17.7909 13.9895 17.7954Z" fill="white"/>
<path d="M61.097 21.9337H65.3963L67.1624 13.7255L68.8928 21.9337H73.192L76.2782 8.53838H72.4963L71.0335 17.6206L69.1068 8.53838H65.2714L63.2912 17.6966L61.8284 8.53838H58.0465L61.097 21.9337Z" fill="white"/>
<path d="M86.3961 21.9337H90.0888L85.522 8.53838H81.4903L76.9056 21.9337H80.5805L81.2584 19.7487H85.7182L86.3961 21.9337ZM84.8441 16.8986H82.1504L83.4883 12.5665L84.8441 16.8986Z" fill="white"/>
<path d="M91.2285 8.53838V21.9337H98.6317V19.0837H94.725V8.53838H91.2285Z" fill="white"/>
<path d="M99.9913 8.53838V21.9337H107.395V19.0837H103.488V8.53838H99.9913Z" fill="white"/>
<path d="M116.8 8.53838H108.754V21.9337H116.8V18.9506H112.251V16.5376H116.264V13.7065H112.251V11.5215H116.8V8.53838Z" fill="white"/>
<path d="M117.832 11.5025H121.15V21.9337H124.646V11.5025H128V8.53838H117.832V11.5025Z" fill="white"/>
</svg>
