<svg width="173" height="52" viewBox="0 0 173 52" fill="none" xmlns="http://www.w3.org/2000/svg">
<path d="M101.885 36.4494C103.22 37.9588 103.278 40.1649 102.059 41.6743C101.768 40.9776 101.652 40.2229 101.652 39.4102V36.1592C101.71 36.2753 101.827 36.3914 101.885 36.4494Z" fill="white"/>
<path d="M138.574 14.5633C138.458 13.9828 138.342 13.4022 138.11 12.8217C137.935 12.2412 137.761 11.7187 137.471 11.1381C137.007 10.0351 136.426 8.99015 135.788 8.0613C135.729 8.00324 135.729 7.94519 135.671 7.88713C135.265 7.3066 134.801 6.72606 134.278 6.20358C134.22 6.14552 134.22 6.14552 134.162 6.08747C131.027 2.77841 126.557 0.688477 121.622 0.688477C118.952 0.688477 116.456 1.26901 114.25 2.37203C113.553 2.72036 112.914 3.06868 112.276 3.47505L112.218 3.53311C108.851 5.73915 106.238 9.22237 105.135 13.2861C104.729 14.7375 104.497 16.3049 104.497 17.8724V26.8126V39.4103C104.497 40.2811 104.787 41.0938 105.251 41.7905C106.006 42.8355 107.167 43.474 108.56 43.474C110.824 43.474 112.624 41.6744 112.624 39.4103V34.9982V32.4438C113.321 32.9083 114.075 33.2566 114.83 33.6049C116.92 34.5338 119.242 35.0563 121.68 35.0563C124.931 35.0563 128.008 34.1274 130.563 32.56C130.621 32.56 130.679 32.5019 130.679 32.5019C131.317 32.0955 131.898 31.6891 132.478 31.2247C132.537 31.1667 132.537 31.1667 132.595 31.1086C134.743 29.3089 136.484 26.9868 137.529 24.3744C137.604 24.1869 137.669 24.0369 137.752 23.8168C137.836 23.5967 137.882 23.4353 137.994 23.0972C138.122 22.7067 138.284 22.1103 138.4 21.6459C138.458 21.4136 138.527 20.9961 138.585 20.7639C138.643 20.2994 138.695 19.9789 138.748 19.4979C138.806 18.9754 138.862 18.266 138.862 17.896C138.862 16.7858 138.806 15.6083 138.574 14.5633ZM130.563 19.672C130.214 21.2975 129.46 22.8069 128.357 23.968C128.299 24.0261 128.241 24.0841 128.182 24.1422C127.892 24.4905 127.544 24.7808 127.196 25.013C126.847 25.3032 126.499 25.5355 126.151 25.7096C124.873 26.4063 123.364 26.8707 121.797 26.8707C119.068 26.8707 116.63 25.6516 114.946 23.7358C113.611 22.1683 112.74 20.1365 112.74 17.8724C112.74 15.6083 113.553 13.5764 114.946 12.0089C116.572 10.0932 119.068 8.87405 121.797 8.87405C123.48 8.87405 125.048 9.33848 126.383 10.1512C127.776 10.964 128.879 12.1831 129.634 13.5764C129.692 13.6344 129.692 13.7506 129.75 13.8086C130.389 15.0277 130.737 16.421 130.737 17.8724C130.737 18.1046 130.737 18.2787 130.737 18.511C130.737 18.6851 130.679 18.8593 130.679 19.0334C130.679 19.0334 130.679 19.0334 130.679 19.0915C130.621 19.3237 130.621 19.4979 130.563 19.672Z" fill="white"/>
<path d="M85.8037 8.87415C90.7963 8.87415 94.802 12.8799 94.802 17.8725C94.802 21.3557 92.7701 24.4325 89.8675 25.8839C92.2477 26.7547 95.0923 28.0319 97.9369 29.9476C99.5044 28.3802 100.782 26.4644 101.652 24.4325C101.943 23.7939 102.175 23.0973 102.349 22.4587C102.755 21.0074 102.988 19.498 102.988 17.9305C102.988 16.3631 102.755 14.7956 102.349 13.3443C102.175 12.6476 101.943 12.009 101.652 11.3705C99.098 5.15871 92.9443 0.804688 85.8618 0.804688C80.8691 0.804688 76.341 2.95267 73.2061 6.37784C75.1799 8.58388 76.7473 11.1382 77.7342 13.9829C79.1856 10.9641 82.2624 8.87415 85.8037 8.87415Z" fill="white"/>
<path d="M101.595 36.1594C100.492 34.9403 99.2724 33.8373 98.0533 32.9084C97.4147 32.3859 96.718 31.9215 96.0794 31.5151C91.319 28.3802 86.5586 27.1611 84.5267 26.7547C84.5267 26.7547 84.5267 26.7547 84.4687 26.7547C84.1784 26.6967 83.9462 26.6386 83.772 26.6386C83.714 26.6386 83.714 26.6386 83.714 26.6386C82.3788 26.3484 81.2177 25.7098 80.1727 24.897C79.7663 24.6068 79.418 24.2004 79.0697 23.8521C79.0117 24.4906 78.9536 25.1873 78.8375 25.8259C78.4892 28.09 77.7925 30.238 76.8056 32.2698C76.8056 32.3279 76.7476 32.3859 76.7476 32.444C76.8056 32.5021 76.8637 32.502 76.9217 32.5601C77.1539 32.6762 77.3281 32.7923 77.5603 32.9084C78.6053 33.489 79.7663 34.0114 80.9855 34.3598C81.3338 34.4759 81.7402 34.592 82.0885 34.65C82.2046 34.7081 82.3207 34.7081 82.4368 34.7081C82.4368 34.7081 82.5529 34.7081 82.669 34.7661C82.7271 34.7661 82.7271 34.7661 82.7851 34.7661C82.9012 34.8242 83.0174 34.8242 83.1335 34.8242C84.2945 35.0564 86.6747 35.695 89.4033 37.0302C91.6093 38.1333 93.9314 39.7007 95.9053 41.9068C96.718 42.7776 97.821 43.242 98.9241 43.242C99.911 43.242 100.84 42.8937 101.653 42.197C101.827 42.0229 102.001 41.8487 102.117 41.6745C103.336 40.1651 103.336 37.9591 101.943 36.4497C101.827 36.3916 101.711 36.2755 101.595 36.1594Z" fill="white"/>
<path d="M76.8054 35.1143C76.0507 35.1143 75.3541 35.2884 74.7155 35.6367C73.8447 36.1592 73.2061 36.9139 72.9158 37.8428C72.7997 38.2492 72.6836 38.6555 72.6836 39.12C72.6836 41.3841 74.4833 43.1837 76.7474 43.1837C79.0114 43.1837 80.8111 41.3841 80.8111 39.12C80.8111 38.0169 80.3467 37.03 79.65 36.2753C78.9534 35.5787 77.9665 35.1143 76.8054 35.1143Z" fill="white"/>
<path d="M151.753 0.688477C146.237 0.688477 141.187 2.77841 137.413 6.26163C137.413 6.31969 137.471 6.31968 137.529 6.37774C139.271 8.69988 140.432 11.4865 140.955 14.4472C143.335 11.022 147.282 8.75794 151.753 8.75794C159.009 8.75794 164.873 14.6214 164.873 21.8781C164.873 29.1348 159.009 34.9982 151.753 34.9982C146.005 34.9982 141.129 31.3408 139.387 26.174C138.11 28.8445 136.194 31.2247 133.872 33.0824C133.814 33.0824 133.814 33.1405 133.756 33.1405C137.529 39.12 144.206 43.1257 151.753 43.1257C163.479 43.1257 173 33.6049 173 21.8781C173 10.2093 163.421 0.688477 151.753 0.688477Z" fill="white"/>
<path d="M27.7271 51.3856H28.0508V48.1522H27.7271V51.3856Z" fill="white"/>
<path d="M32.813 48.1522V50.8675L31.0229 48.1522H30.6991V51.3856H31.0229V48.6657L32.813 51.3856H33.1368V48.1522H32.813Z" fill="white"/>
<path d="M35.7853 51.3856H36.109V49.8961H37.3117V49.6278H36.109V48.4205H37.5338V48.1522H35.7853V51.3856Z" fill="white"/>
<path d="M39.9815 51.3856H40.3053V48.1522H39.9815V51.3856Z" fill="white"/>
<path d="M45.0675 48.1522V50.8675L43.2774 48.1522H42.9536V51.3856H43.2774V48.6657L45.0675 51.3856H45.3913V48.1522H45.0675Z" fill="white"/>
<path d="M48.0397 51.3856H48.3635V48.1522H48.0397V51.3856Z" fill="white"/>
<path d="M50.7805 48.4205H51.6825V51.3856H52.0063V48.4205H52.9037V48.1522H50.7805V48.4205Z" fill="white"/>
<path d="M57.0183 48.1476H55.33V51.3856H57.0183V51.1173H55.6538V49.8915H56.8796V49.6232H55.6538V48.4159H57.0183V48.1476Z" fill="white"/>
<path d="M65.8087 49.7666C65.8087 48.7998 65.1195 48.1152 64.2082 48.1152C63.3016 48.1152 62.6077 48.7998 62.6077 49.7666C62.6077 50.738 63.3016 51.418 64.2082 51.418C65.1195 51.418 65.8087 50.738 65.8087 49.7666ZM62.9408 49.7666C62.9408 48.9201 63.4912 48.402 64.2082 48.402C64.9252 48.402 65.4756 48.9201 65.4756 49.7666C65.4756 50.6131 64.9252 51.1358 64.2082 51.1358C63.4912 51.1358 62.9408 50.6131 62.9408 49.7666Z" fill="white"/>
<path d="M70.4301 48.1522V50.8675L68.64 48.1522H68.3162V51.3856H68.64V48.6657L70.4301 51.3856H70.7539V48.1522H70.4301Z" fill="white"/>
<path d="M73.1711 49.8082H74.9704V49.5353H73.1711V49.8082Z" fill="white"/>
<path d="M77.568 49.7666C77.568 50.738 78.2526 51.4133 79.15 51.4133C79.8716 51.4133 80.4082 51.0525 80.6394 50.4419H80.2601C80.0797 50.8629 79.7004 51.1312 79.15 51.1312C78.4423 51.1312 77.9011 50.6085 77.9011 49.7666C77.9011 48.9201 78.4423 48.3974 79.15 48.3974C79.7004 48.3974 80.0797 48.6657 80.2601 49.0959H80.6394C80.4082 48.476 79.8716 48.1152 79.15 48.1152C78.2526 48.1152 77.568 48.7952 77.568 49.7666Z" fill="white"/>
<path d="M85.2766 51.3856H85.6004V48.1522H85.2766V49.6047H83.5235V48.1522H83.1997V51.3856H83.5235V49.873H85.2766V51.3856Z" fill="white"/>
<path d="M90.4098 51.3856H90.7521L89.5771 48.1939H89.2117L88.0322 51.3856H88.3745L88.6566 50.6177H90.1276L90.4098 51.3856ZM90.0305 50.3494H88.7538L89.3921 48.6009L90.0305 50.3494Z" fill="white"/>
<path d="M93.1868 51.3856H93.5105V48.1522H93.1868V51.3856Z" fill="white"/>
<path d="M98.2727 48.1522V50.8675L96.4826 48.1522H96.1588V51.3856H96.4826V48.6657L98.2727 51.3856H98.5965V48.1522H98.2727Z" fill="white"/>
<path d="M104.429 51.3856H104.753V48.1522H104.429V51.3856Z" fill="white"/>
<path d="M109.515 48.1522V50.8675L107.725 48.1522H107.401V51.3856H107.725V48.6657L109.515 51.3856H109.839V48.1522H109.515Z" fill="white"/>
<path d="M113.445 48.1522H112.488V51.3856H113.445C114.523 51.3856 115.157 50.7796 115.157 49.7758C115.157 48.7628 114.523 48.1522 113.445 48.1522ZM112.811 51.1173V48.4205H113.445C114.361 48.4205 114.828 48.9386 114.828 49.7758C114.828 50.6085 114.361 51.1173 113.445 51.1173H112.811Z" fill="white"/>
<path d="M117.655 50.1829C117.655 51.0387 118.173 51.418 118.83 51.418C119.486 51.418 120.004 51.0387 120.004 50.1829V48.1522H119.681V50.1875C119.681 50.8583 119.338 51.1312 118.834 51.1312C118.33 51.1312 117.978 50.8583 117.978 50.1875V48.1522H117.655V50.1829Z" fill="white"/>
<path d="M124.663 50.5345C124.663 49.3318 122.887 49.9054 122.887 48.971C122.887 48.5963 123.201 48.3881 123.581 48.3928C124.029 48.3974 124.247 48.6749 124.284 48.9016H124.635C124.58 48.4575 124.21 48.1152 123.595 48.1152C122.97 48.1152 122.558 48.4807 122.558 48.9802C122.558 50.1968 124.335 49.5954 124.335 50.5483C124.335 50.8814 124.071 51.145 123.622 51.145C123.1 51.145 122.901 50.8212 122.873 50.553H122.531C122.549 51.0479 122.975 51.418 123.622 51.418C124.307 51.418 124.663 50.9739 124.663 50.5345Z" fill="white"/>
<path d="M126.973 48.4205H127.875V51.3856H128.198V48.4205H129.096V48.1522H126.973V48.4205Z" fill="white"/>
<path d="M133.261 49.0913C133.261 49.4844 133.025 49.7712 132.498 49.7712H131.846V48.4252H132.493C133.039 48.4252 133.261 48.6842 133.261 49.0913ZM131.522 48.1522V51.3856H131.846V50.0349H132.443L133.243 51.3856H133.631L132.799 50.0118C133.345 49.91 133.594 49.5353 133.594 49.0913C133.594 48.5593 133.243 48.1522 132.493 48.1522H131.522Z" fill="white"/>
<path d="M136.152 51.3856H136.476V48.1522H136.152V51.3856Z" fill="white"/>
<path d="M140.812 48.1476H139.124V51.3856H140.812V51.1173H139.448V49.8915H140.674V49.6232H139.448V48.4159H140.812V48.1476Z" fill="white"/>
<path d="M145.387 50.5345C145.387 49.3318 143.611 49.9054 143.611 48.971C143.611 48.5963 143.925 48.3881 144.304 48.3928C144.753 48.3974 144.971 48.6749 145.008 48.9016H145.359C145.304 48.4575 144.934 48.1152 144.318 48.1152C143.694 48.1152 143.282 48.4807 143.282 48.9802C143.282 50.1968 145.058 49.5954 145.058 50.5483C145.058 50.8814 144.795 51.145 144.346 51.145C143.823 51.145 143.624 50.8212 143.597 50.553H143.254C143.273 51.0479 143.699 51.418 144.346 51.418C145.031 51.418 145.387 50.9739 145.387 50.5345Z" fill="white"/>
<path d="M171.427 40.0991C170.56 40.0991 169.854 40.8046 169.854 41.6718C169.854 42.539 170.56 43.2446 171.427 43.2446C172.294 43.2446 173 42.539 173 41.6718C173 40.8046 172.294 40.0991 171.427 40.0991V40.0991ZM171.427 42.93C170.733 42.93 170.169 42.3656 170.169 41.6718C170.169 40.9781 170.733 40.4137 171.427 40.4137C172.121 40.4137 172.685 40.9781 172.685 41.6718C172.685 42.3656 172.121 42.93 171.427 42.93V42.93Z" fill="white"/>
<path d="M172.057 41.3576C172.057 41.0974 171.845 40.8857 171.585 40.8857H170.798V42.4585H171.113V41.8294H171.343L171.763 42.4585H172.141L171.709 41.8107C171.809 41.7836 171.896 41.7246 171.959 41.6428C172.022 41.5609 172.056 41.4607 172.057 41.3576V41.3576ZM171.113 41.2003H171.585C171.626 41.2003 171.666 41.2169 171.696 41.2464C171.725 41.2758 171.742 41.3158 171.742 41.3576C171.742 41.3993 171.725 41.4393 171.696 41.4688C171.666 41.4983 171.626 41.5148 171.585 41.5148H171.113V41.2003Z" fill="white"/>
<path d="M55.5446 0.688477C49.3307 0.688477 43.8143 3.35158 39.883 7.59986C39.3124 8.17052 38.8051 8.80459 38.3613 9.43866C35.825 12.9261 34.3032 17.2377 34.3032 21.9299C34.3032 24.1491 33.7325 26.2416 32.7814 28.017C31.5767 30.2362 29.8013 32.075 27.582 33.3432V42.1568C31.1962 41.0154 34.3666 38.9864 36.8395 36.2599C37.4101 35.6892 37.854 35.0552 38.3613 34.4211C40.8975 30.9337 42.4193 26.622 42.4193 21.9299C42.4193 19.7106 42.99 17.6182 43.9411 15.8428C46.1603 11.6579 50.472 8.868 55.5446 8.868C62.773 8.868 68.6699 14.7649 68.6699 21.9933C68.6699 29.2217 62.773 35.1186 55.5446 35.1186C50.5354 35.1186 46.1603 32.2652 43.9411 28.1438C43.1168 31.1873 41.7218 33.9138 39.883 36.3233C43.7509 40.5716 49.3307 43.2347 55.5446 43.2347C67.2115 43.2347 76.786 33.7236 76.786 21.9933C76.786 10.1996 67.2749 0.688477 55.5446 0.688477Z" fill="white"/>
<path d="M51.7402 16.1597V27.6364L61.6952 21.9297L51.7402 16.1597Z" fill="url(#paint0_linear_643_1566)"/>
<path d="M21.2414 27.637C19.0222 27.637 17.1833 29.4758 17.1833 31.6951V31.8853V34.3582C16.3591 34.1045 15.5982 33.7241 14.8373 33.3437C10.8426 31.1244 8.11612 26.8127 8.11612 21.9304C8.11612 14.7019 14.013 8.80508 21.2414 8.80508C26.2506 8.80508 30.6257 11.6584 32.8449 15.7799C33.6692 12.7363 35.0642 10.0098 36.903 7.53694C33.0351 3.35207 27.4553 0.688965 21.2414 0.688965C9.57448 0.688965 0 10.2 0 21.9304C0 31.378 6.27731 39.4307 14.8373 42.1573C15.5982 42.4109 16.3591 42.6011 17.1833 42.7279V43.8058C17.1833 44.2497 17.2468 44.7569 17.437 45.1374C18.0076 46.7226 19.466 47.8639 21.2414 47.8639C23.0168 47.8639 24.5386 46.7226 25.0458 45.1374C25.1726 44.6935 25.2995 44.2497 25.2995 43.8058V42.7279V34.3582V31.8853V31.6951C25.2995 29.4124 23.5241 27.637 21.2414 27.637Z" fill="url(#paint1_linear_643_1566)"/>
<defs>
<linearGradient id="paint0_linear_643_1566" x1="51.7425" y1="21.8801" x2="61.6799" y2="21.8801" gradientUnits="userSpaceOnUse">
<stop stop-color="#1CFFFF"/>
<stop offset="1" stop-color="#1CD6FF"/>
</linearGradient>
<linearGradient id="paint1_linear_643_1566" x1="0.0533254" y1="24.2585" x2="36.9091" y2="24.2585" gradientUnits="userSpaceOnUse">
<stop stop-color="#1CFFFF"/>
<stop offset="1" stop-color="#1CD6FF"/>
</linearGradient>
</defs>
</svg>
