<svg width="16" height="16" viewBox="0 0 16 16" fill="none" xmlns="http://www.w3.org/2000/svg">
<g opacity="0.25">
<path d="M8.0001 0.531278C6.5229 0.53126 5.07888 0.969284 3.85063 1.78996C2.62239 2.61064 1.66508 3.7771 1.09978 5.14185C0.534484 6.5066 0.386577 8.00833 0.674768 9.45713C0.962959 10.9059 1.6743 12.2368 2.71885 13.2813C3.41239 13.9748 4.23575 14.525 5.1419 14.9003C6.04806 15.2757 7.01928 15.4688 8.0001 15.4688C8.98092 15.4688 9.95213 15.2757 10.8583 14.9003C11.7644 14.525 12.5878 13.9748 13.2813 13.2813C13.9749 12.5877 14.525 11.7644 14.9004 10.8582C15.2757 9.95206 15.4689 8.98085 15.4689 8.00003C15.4689 7.01921 15.2757 6.04799 14.9004 5.14184C14.525 4.23568 13.9749 3.41232 13.2813 2.71878C12.5894 2.02307 11.7664 1.47151 10.8598 1.09602C9.95331 0.720537 8.98131 0.528585 8.0001 0.531278ZM8.0001 14.5938C4.36428 14.5938 1.40635 11.6358 1.40635 8.00003C1.40635 4.36422 4.36428 1.40628 8.0001 1.40628C11.6359 1.40628 14.5938 4.36422 14.5938 8.00003C14.5938 11.6358 11.6359 14.5938 8.0001 14.5938Z" fill="white"/>
<path d="M7.99965 3.54468C7.35105 3.54541 6.72922 3.80338 6.27058 4.26202C5.81194 4.72065 5.55396 5.34248 5.55322 5.99109H6.42822C6.42822 5.57432 6.59378 5.17462 6.88848 4.87991C7.18318 4.58521 7.58288 4.41965 7.99965 4.41965C8.41642 4.41965 8.81612 4.58521 9.11082 4.87991C9.40552 5.17462 9.57109 5.57432 9.57109 5.99109C9.57109 6.81434 9.18437 7.20106 8.69474 7.69069C8.16387 8.22156 7.56215 8.82328 7.56215 10.009H8.43715C8.43715 9.18572 8.82387 8.79897 9.31346 8.30938C9.84437 7.7785 10.4461 7.17678 10.4461 5.99109C10.4453 5.34248 10.1874 4.72065 9.72872 4.26202C9.27009 3.80338 8.64826 3.54541 7.99965 3.54468Z" fill="white"/>
<path d="M7.49805 11.0781H8.5025V11.9531H7.49805V11.0781Z" fill="white"/>
</g>
</svg>
