<svg width="45" height="43" viewBox="0 0 45 43" fill="none" xmlns="http://www.w3.org/2000/svg">
<g clip-path="url(#clip0)">
<path d="M18.1496 12.7148C16.7269 15.0481 15.3094 17.3813 13.8867 19.7145C16.1736 21.2091 18.334 22.9294 20.2046 24.9455C21.6273 22.6123 23.0448 20.279 24.4675 17.9458C22.5969 15.9298 20.4365 14.2094 18.1496 12.7148Z" fill="white"/>
<path d="M14.4432 0C9.63232 7.90825 4.81616 15.8165 0 23.7247C5.59075 26.6278 10.4754 28.8643 15.1124 33.305C16.9988 35.1113 18.8115 36.993 20.9824 38.4606C23.8964 40.4337 27.3741 40.9605 30.5568 42.3476C35.373 34.4393 40.1891 26.5311 45 18.6228C41.8173 17.2358 38.3396 16.7143 35.4256 14.7413C33.26 13.2736 31.4473 11.3973 29.5662 9.59097C24.9239 5.14493 20.0392 2.90847 14.4432 0ZM22.1996 37.2833C23.6066 34.9715 25.0135 32.6544 26.4204 30.3427C24.1493 28.7998 22.0732 26.9665 20.2078 24.9397C18.8009 27.2568 17.3888 29.5686 15.9818 31.8803C14.0744 29.9073 11.9403 28.16 9.65866 26.6493C11.0656 24.3376 12.4778 22.0205 13.8847 19.7088C11.603 18.1712 9.00527 17.3111 6.53396 16.1659C7.95667 13.8327 9.37412 11.4995 10.7968 9.16626C13.2681 10.3114 15.8659 11.1715 18.1475 12.7091C19.5544 10.3974 20.9614 8.08566 22.3735 5.76856C24.6499 7.27924 26.784 9.02648 28.6967 10.9995C27.2898 13.3112 25.8776 15.6283 24.4707 17.9401C26.3413 19.9615 28.4174 21.8001 30.6833 23.343C32.0902 21.0313 33.5023 18.7142 34.9092 16.4025C37.2278 18.0368 40.0363 18.4024 42.6499 19.3056C41.243 21.6173 39.8308 23.9344 38.4239 26.2461C35.8103 25.3429 32.9965 24.9774 30.678 23.343C29.2553 25.6763 27.8378 28.0095 26.4151 30.3427C28.7336 31.9771 31.5474 32.3426 34.161 33.2458C32.7541 35.5575 31.3419 37.8746 29.935 40.1864C27.3267 39.2886 24.5129 38.9176 22.1996 37.2833Z" fill="white"/>
</g>
<defs>
<clipPath id="clip0">
<rect width="45" height="42.3529" fill="white"/>
</clipPath>
</defs>
</svg>
