<svg width="30" height="30" viewBox="0 0 30 30" fill="none" xmlns="http://www.w3.org/2000/svg">
<g clip-path="url(#clip0)">
<path d="M15 21.25C12.9325 21.25 11.25 19.5675 11.25 17.5C11.25 15.4325 12.9325 13.75 15 13.75C17.0675 13.75 18.75 15.4325 18.75 17.5C18.75 19.5675 17.0675 21.25 15 21.25Z" fill="url(#paint0_linear)"/>
<path d="M22.4888 22.1375C22.1438 22.1375 21.8 21.995 21.5525 21.7175C21.0938 21.2013 21.1413 20.4112 21.6575 19.9525C23.7825 18.0688 25 15.3525 25 12.5C25 6.98625 20.5138 2.5 15 2.5C9.48625 2.5 5 6.98625 5 12.5C5 15.3525 6.2175 18.0688 8.34125 19.9525C8.8575 20.41 8.905 21.2013 8.44625 21.7175C7.98875 22.2338 7.19875 22.2825 6.68125 21.8225C4.025 19.465 2.5 16.0675 2.5 12.5C2.5 5.6075 8.1075 0 15 0C21.8925 0 27.5 5.6075 27.5 12.5C27.5 16.0675 25.975 19.465 23.3175 21.8225C23.0788 22.0338 22.7838 22.1375 22.4888 22.1375Z" fill="url(#paint1_linear)"/>
<path d="M19.9612 13.1375C19.3375 13.1375 18.7987 12.6725 18.7225 12.0388C18.4937 10.1637 16.895 8.75 15 8.75C13.105 8.75 11.5062 10.1638 11.2775 12.0375C11.195 12.7238 10.5687 13.2038 9.88621 13.1275C9.20121 13.045 8.71371 12.4213 8.79621 11.7363C9.17621 8.60875 11.8425 6.25 15 6.25C18.1575 6.25 20.8237 8.60875 21.2037 11.7363C21.2862 12.4213 20.7987 13.045 20.1137 13.1275C20.0625 13.1338 20.0112 13.1375 19.9612 13.1375Z" fill="url(#paint2_linear)"/>
<path d="M21.5625 30H8.4375C7.92 30 7.5 29.58 7.5 29.0625V27.1875C7.5 25.2912 9.04125 23.75 10.9375 23.75H19.0625C20.9587 23.75 22.5 25.2912 22.5 27.1875V29.0625C22.5 29.58 22.08 30 21.5625 30Z" fill="url(#paint3_linear)"/>
</g>
<defs>
<linearGradient id="paint0_linear" x1="18.25" y1="14.125" x2="9.89667" y2="19.7348" gradientUnits="userSpaceOnUse">
<stop stop-color="#00F0FF"/>
<stop offset="1" stop-color="#0098D9"/>
<stop offset="1" stop-color="#0098D9"/>
</linearGradient>
<linearGradient id="paint1_linear" x1="25.8333" y1="1.10692" x2="0.183228" y2="20.5593" gradientUnits="userSpaceOnUse">
<stop stop-color="#00F0FF"/>
<stop offset="1" stop-color="#0098D9"/>
<stop offset="1" stop-color="#0098D9"/>
</linearGradient>
<linearGradient id="paint2_linear" x1="20.3844" y1="6.59438" x2="12.2475" y2="16.4528" gradientUnits="userSpaceOnUse">
<stop stop-color="#00F0FF"/>
<stop offset="1" stop-color="#0098D9"/>
<stop offset="1" stop-color="#0098D9"/>
</linearGradient>
<linearGradient id="paint3_linear" x1="21.5" y1="24.0625" x2="14.7621" y2="34.9224" gradientUnits="userSpaceOnUse">
<stop stop-color="#00F0FF"/>
<stop offset="1" stop-color="#0098D9"/>
<stop offset="1" stop-color="#0098D9"/>
</linearGradient>
<clipPath id="clip0">
<rect width="30" height="30" fill="white"/>
</clipPath>
</defs>
</svg>
