<svg width="40" height="40" viewBox="0 0 40 40" fill="none" xmlns="http://www.w3.org/2000/svg">
<path d="M38.8014 24.3834L35.1248 21.5084C35.1714 21.065 35.2114 20.5467 35.2114 19.9984C35.2114 19.45 35.1731 18.9317 35.1248 18.4884L38.8048 15.6117C39.4881 15.0717 39.6748 14.1134 39.2398 13.3151L35.4164 6.7C35.0081 5.95336 34.1131 5.57 33.2048 5.905L28.8664 7.64664C28.0348 7.04664 27.1631 6.54 26.2614 6.135L25.6014 1.53336C25.4931 0.66 24.7331 0 23.8348 0H16.1681C15.2698 0 14.5115 0.66 14.4048 1.52L13.7431 6.13836C12.8698 6.53172 12.0115 7.03172 11.1431 7.65L6.79313 5.90336C5.97806 5.58836 5.00306 5.94164 4.59806 6.685L0.769774 13.3084C0.318133 14.0717 0.504774 15.0634 1.20313 15.6167L4.87977 18.4917C4.82142 19.0534 4.79313 19.5417 4.79313 20.0001C4.79313 20.4584 4.82149 20.9467 4.87977 21.5101L1.19977 24.3867C0.516415 24.9284 0.331415 25.8867 0.766415 26.6834L4.58977 33.2984C4.99813 34.0434 5.88477 34.43 6.80142 34.0934L11.1398 32.3517C11.9698 32.9501 12.8414 33.4567 13.7431 33.8634L14.4031 38.4634C14.5114 39.34 15.2698 40 16.1698 40H23.8364C24.7348 40 25.4948 39.34 25.6014 38.48L26.2631 33.8634C27.1364 33.4684 27.9931 32.97 28.8631 32.35L33.2131 34.0966C33.4231 34.1783 33.6414 34.22 33.8664 34.22C34.5131 34.22 35.1081 33.8666 35.4081 33.3166L39.2481 26.6666C39.6748 25.8866 39.4881 24.9284 38.8014 24.3834ZM20.0014 26.6666C16.3248 26.6666 13.3348 23.6766 13.3348 20C13.3348 16.3234 16.3248 13.3334 20.0014 13.3334C23.6781 13.3334 26.6681 16.3234 26.6681 20C26.6681 23.6766 23.6781 26.6666 20.0014 26.6666Z" fill="white"/>
</svg>
