<svg width="30" height="18" viewBox="0 0 30 18" fill="none" xmlns="http://www.w3.org/2000/svg">
<path d="M29.9029 17.2591C29.8386 17.4068 29.7454 17.5388 29.6294 17.6493C29.6218 17.6566 29.6143 17.6578 29.608 17.6638C29.4945 17.7658 29.3647 17.8511 29.2185 17.9087C29.0987 17.9556 28.9727 17.97 28.8467 17.9808C28.8089 17.9832 28.7773 18 28.7395 18H18.6556C17.9586 18 17.3951 17.4633 17.3951 16.7992C17.3951 16.1351 17.9586 15.5984 18.6556 15.5984H25.7093L15.7313 6.03881L11.9347 10.6691C11.7154 10.9369 11.3889 11.1026 11.036 11.1278C10.6692 11.1531 10.3314 11.0342 10.0743 10.8024L0.393749 2.07136C-0.111731 1.61505 -0.133117 0.854969 0.344589 0.373425C0.594194 0.124866 0.926942 0 1.26098 0C1.57234 0 1.88364 0.109291 2.12692 0.32782L10.8003 8.15103L14.6233 3.48836C14.8465 3.2158 15.1805 3.04885 15.5422 3.02848C15.904 3.00928 16.2557 3.13654 16.5115 3.3803L27.479 13.8885V7.1928C27.479 6.52878 28.0424 5.99198 28.7395 5.99198C29.4365 5.99198 30 6.52873 30 7.1928V16.7991V16.8004C29.9987 16.9576 29.9659 17.1125 29.9029 17.2591Z" fill="white"/>
</svg>
