<svg width="40" height="40" viewBox="0 0 40 40" fill="none" xmlns="http://www.w3.org/2000/svg">
<path d="M40 31.1676C39.4284 31.0846 35.8517 30.5649 35.2762 30.4813C35.0205 29.9633 33.421 26.7224 33.1637 26.201V26.2011L33.1636 26.2011C32.9071 26.7209 31.3086 29.9597 31.0512 30.4813C30.5369 30.5561 27.5922 30.9839 26.5868 31.13C27.2998 30.4349 27.9373 29.8135 28.2332 29.525C26.6925 29.3011 23.453 28.8304 22.5438 28.6984C21.8548 27.3022 20.4061 24.3668 19.9995 23.543C19.3105 24.9391 17.8617 27.8746 17.4552 28.6984C15.9145 28.9223 12.6751 29.393 11.7659 29.525C12.1902 29.9386 12.7926 30.5258 13.4123 31.1298C12.4076 30.9838 9.4662 30.5564 8.94881 30.4813C8.69311 29.9633 7.09365 26.7224 6.83635 26.2008L6.83595 26.2017L6.83555 26.2025C6.57905 26.7223 4.98118 29.9598 4.7238 30.4814C4.15201 30.5643 0.575467 31.084 0 31.1676C0.413669 31.5709 3.00171 34.0936 3.41817 34.4995C3.32052 35.0689 2.70955 38.6311 2.61126 39.2043C3.12426 38.9346 6.32064 37.254 6.83547 36.9833L6.83587 36.9831L6.83627 36.9829C7.34759 37.2517 10.5466 38.9336 11.0614 39.2043C10.9637 38.6348 10.3527 35.0727 10.2544 34.4995C10.6406 34.1229 12.922 31.8992 13.5618 31.2757C14.5233 32.2128 15.4952 33.1603 15.8826 33.5379C15.6195 35.0723 15.0661 38.2986 14.9108 39.2041C16.2888 38.4797 19.1863 36.9563 19.9994 36.5289C21.3775 37.2533 24.2749 38.7767 25.088 39.2041C24.8248 37.6697 24.2715 34.4433 24.1161 33.538C24.6948 32.974 25.6042 32.0874 26.4376 31.2752C27.0753 31.8968 29.3566 34.1205 29.7454 34.4995C29.6477 35.0689 29.0368 38.6311 28.9385 39.2043C29.4498 38.9354 32.6487 37.2536 33.1634 36.9829H33.1635V36.9829C33.6748 37.2517 36.8738 38.9336 37.3886 39.2043C37.2909 38.6348 36.68 35.0727 36.5817 34.4995C36.9955 34.0962 39.5835 31.5735 40 31.1676Z" fill="white"/>
<path d="M9.62757 21.1405V19.9438C9.62757 17.9586 10.1886 16.1023 11.1598 14.524C10.756 14.2464 10.3218 14.0136 9.86524 13.831C10.5769 13.1745 11.0238 12.235 11.0238 11.1927C11.0238 9.2131 9.4132 7.60254 7.43357 7.60254C5.45402 7.60254 3.84338 9.2131 3.84338 11.1927C3.84338 12.2344 4.28968 13.1735 5.00062 13.8299C2.57254 14.7996 0.851562 17.1737 0.851562 19.9438V21.1406H7.43357H9.62757V21.1405Z" fill="white"/>
<path d="M30.3721 19.9438V21.1406H32.5661H39.1481V19.9438C39.1481 17.1738 37.4272 14.7996 34.999 13.8299C35.71 13.1735 36.1563 12.2344 36.1563 11.1927C36.1563 9.2131 34.5457 7.60254 32.5661 7.60254C30.5864 7.60254 28.9759 9.21318 28.9759 11.1927C28.9759 12.235 29.4227 13.1746 30.1344 13.831C29.6772 14.0139 29.2431 14.2469 28.8398 14.524C29.811 16.1023 30.3721 17.9587 30.3721 19.9438Z" fill="white"/>
<path d="M27.9753 19.9436H27.9759C27.9759 16.5302 25.8322 13.6181 22.8178 12.4788C24.8125 11.4518 26.1808 9.37285 26.1808 6.97899C26.1808 3.56976 23.407 0.795898 19.9977 0.795898C16.5884 0.795898 13.8146 3.56976 13.8146 6.97899C13.8146 9.37285 15.183 11.4518 17.1777 12.4788C14.1633 13.6181 12.0195 16.5302 12.0195 19.9436V21.1403H27.9753V19.9436Z" fill="white"/>
</svg>
