<svg width="15" height="14" viewBox="0 0 15 14" fill="none" xmlns="http://www.w3.org/2000/svg">
<path d="M9.16776 4.47117C9.19649 4.56807 9.24766 4.65632 9.31685 4.7283C9.38605 4.80028 9.47119 4.85383 9.56494 4.88432C9.62725 4.9046 9.69233 4.91438 9.75767 4.91328L13.8369 4.8176C13.9663 4.81544 14.093 4.85544 14.1989 4.93191C14.3045 5.00918 14.3832 5.1195 14.4232 5.24649C14.4632 5.37347 14.4624 5.51037 14.421 5.63686C14.3788 5.76286 14.2991 5.87194 14.1933 5.94855L10.8383 8.34237C10.7847 8.38094 10.7376 8.42832 10.6988 8.4826C10.6189 8.59101 10.5771 8.72415 10.5801 8.86026C10.5805 8.9277 10.5916 8.99462 10.6128 9.0584L11.9619 13.0275C12.004 13.1536 12.0062 13.2901 11.9683 13.4175C11.9298 13.5449 11.8524 13.6561 11.7477 13.7345C11.6431 13.8129 11.5166 13.8544 11.3872 13.8528C11.258 13.8508 11.1327 13.8068 11.0293 13.7269L7.78326 11.1768C7.73108 11.1361 7.67273 11.1045 7.61057 11.0834C7.48622 11.0388 7.35092 11.0388 7.22658 11.0834C7.16442 11.1045 7.10606 11.1361 7.05388 11.1768L3.80734 13.7259C3.70393 13.8058 3.57867 13.8498 3.44949 13.8518C3.32007 13.8534 3.19361 13.8119 3.08891 13.7335C2.98421 13.655 2.90687 13.5439 2.86838 13.4165C2.83048 13.2891 2.83271 13.1526 2.87473 13.0265L4.22381 9.05638C4.24509 8.99261 4.25615 8.92568 4.25655 8.85824C4.25958 8.72214 4.21773 8.589 4.13783 8.48059C4.09909 8.4263 4.05197 8.37893 3.99836 8.34035L0.642871 5.94779C0.537049 5.87118 0.457381 5.76211 0.415215 5.6361C0.373767 5.50961 0.372983 5.37272 0.41298 5.24573C0.452977 5.11874 0.531624 5.00843 0.637253 4.93115C0.743221 4.85469 0.869917 4.81468 0.999255 4.81685L5.0785 4.91252C5.14384 4.91362 5.20892 4.90385 5.27123 4.88357C5.36498 4.85307 5.45012 4.79952 5.51932 4.72754C5.58851 4.65557 5.63968 4.56732 5.66841 4.47041L6.84088 0.442112C6.87884 0.314714 6.95484 0.202908 7.05804 0.122618C7.16191 0.0429978 7.28791 0 7.41735 0C7.5468 0 7.6728 0.0429978 7.77667 0.122618C7.87987 0.202908 7.95586 0.314714 7.99382 0.442112L9.16776 4.47117Z" fill="url(#paint0_linear)"/>
<defs>
<linearGradient id="paint0_linear" x1="13.5147" y1="0.692646" x2="-2.00339" y2="11.2767" gradientUnits="userSpaceOnUse">
<stop stop-color="#00F0FF"/>
<stop offset="1" stop-color="#0098D9"/>
<stop offset="1" stop-color="#0098D9"/>
</linearGradient>
</defs>
</svg>
