<svg width="537" height="537" viewBox="0 0 537 537" fill="none" xmlns="http://www.w3.org/2000/svg">
<g clip-path="url(#clip0)">
<path d="M537 268.5C537 416.789 416.789 537 268.5 537C190.328 537 119.959 503.596 70.8949 450.28C58.0069 436.285 46.5984 420.909 36.8886 404.416C13.4469 364.546 0 318.09 0 268.5C0 120.211 120.211 0 268.5 0C318.101 0 364.557 13.4469 404.416 36.8996C420.909 46.5984 436.274 58.0069 450.269 70.9059C503.585 119.948 537 190.328 537 268.5Z" fill="#111111"/>
<path d="M537 268.5C537 416.789 416.789 537 268.5 537C190.328 537 119.959 503.596 70.8949 450.28C58.0069 436.285 46.5984 420.909 36.8886 404.416C13.4469 364.546 0 318.09 0 268.5C0 120.211 120.211 0 268.5 0C318.101 0 364.557 13.4469 404.416 36.8996C420.909 46.5984 436.274 58.0069 450.269 70.9059C503.585 119.948 537 190.328 537 268.5Z" fill="url(#paint0_linear)" fill-opacity="0.7"/>
<path d="M537 268.5C537 416.789 416.789 537 268.5 537C190.328 537 119.959 503.596 70.8949 450.28C58.0069 436.285 46.5984 420.909 36.8886 404.416C13.4469 364.546 0 318.09 0 268.5C0 120.211 120.211 0 268.5 0C318.101 0 364.557 13.4469 404.416 36.8996C420.909 46.5984 436.274 58.0069 450.269 70.9059C503.585 119.948 537 190.328 537 268.5Z" fill="url(#paint1_linear)"/>
<path d="M537.001 268.503C537.001 413.449 422.16 531.567 278.496 536.816C134.832 531.567 19.9907 413.449 19.9907 268.503C19.9907 123.556 134.832 5.43841 278.496 0.188965C422.16 5.43841 537.001 123.556 537.001 268.503Z" fill="url(#paint2_linear)"/>
<path d="M450.268 70.9092L70.8941 450.283C58.006 436.288 46.5975 420.913 36.8877 404.419L404.415 36.9028C420.908 46.6017 436.273 58.0102 450.268 70.9092Z" fill="#FFF8BD"/>
<path d="M518.481 170.335L170.329 518.487C145.682 508.799 122.81 495.571 102.35 479.428L479.433 102.345C495.576 122.806 508.804 145.677 518.481 170.335Z" fill="#FFF8BD"/>
<path d="M477.144 268.508C477.144 383.733 383.728 477.149 268.503 477.149C228.37 477.149 190.89 465.817 159.075 446.178C145.212 437.63 132.434 427.493 120.97 416.03C112.543 407.613 104.827 398.462 97.934 388.697C88.4434 375.25 80.498 360.631 74.3718 345.102C65.2976 322.142 60.1906 297.177 59.8837 271.072C59.8618 270.218 59.8618 269.363 59.8618 268.508C59.8618 153.283 153.267 59.8672 268.503 59.8672C269.358 59.8672 270.223 59.8672 271.078 59.8891C297.183 60.196 322.137 65.3139 345.096 74.3771C360.626 80.5143 375.245 88.4487 388.692 97.9394C398.457 104.844 407.597 112.548 416.024 120.976C427.488 132.428 437.625 145.217 446.173 159.081C465.812 190.895 477.144 228.376 477.144 268.508Z" fill="#FAA300"/>
<path d="M477.144 268.508C477.144 383.733 383.728 477.149 268.503 477.149C228.37 477.149 190.89 465.817 159.075 446.178C145.212 437.63 132.434 427.493 120.97 416.03C112.543 407.613 104.827 398.462 97.934 388.697C88.4434 375.25 80.498 360.631 74.3718 345.102C65.2976 322.142 60.1906 297.177 59.8837 271.072C59.8618 270.218 59.8618 269.363 59.8618 268.508C59.8618 153.283 153.267 59.8672 268.503 59.8672C269.358 59.8672 270.223 59.8672 271.078 59.8891C297.183 60.196 322.137 65.3139 345.096 74.3771C360.626 80.5143 375.245 88.4487 388.692 97.9394C398.457 104.844 407.597 112.548 416.024 120.976C427.488 132.428 437.625 145.217 446.173 159.081C465.812 190.895 477.144 228.376 477.144 268.508Z" fill="#111111"/>
<path d="M477.144 268.508C477.144 383.733 383.728 477.149 268.503 477.149C228.37 477.149 190.89 465.817 159.075 446.178C145.212 437.63 132.434 427.493 120.97 416.03C112.543 407.613 104.827 398.462 97.934 388.697C88.4434 375.25 80.498 360.631 74.3718 345.102C65.2976 322.142 60.1906 297.177 59.8837 271.072C59.8618 270.218 59.8618 269.363 59.8618 268.508C59.8618 153.283 153.267 59.8672 268.503 59.8672C269.358 59.8672 270.223 59.8672 271.078 59.8891C297.183 60.196 322.137 65.3139 345.096 74.3771C360.626 80.5143 375.245 88.4487 388.692 97.9394C398.457 104.844 407.597 112.548 416.024 120.976C427.488 132.428 437.625 145.217 446.173 159.081C465.812 190.895 477.144 228.376 477.144 268.508Z" fill="url(#paint3_linear)" fill-opacity="0.7"/>
<path d="M477.144 268.508C477.144 383.733 383.728 477.149 268.503 477.149C228.37 477.149 190.89 465.817 159.075 446.178C145.212 437.63 132.434 427.493 120.97 416.03C112.543 407.613 104.827 398.462 97.934 388.697C88.4434 375.25 80.498 360.631 74.3718 345.102C65.2976 322.142 60.1906 297.177 59.8837 271.072C59.8618 270.218 59.8618 269.363 59.8618 268.508C59.8618 153.283 153.267 59.8672 268.503 59.8672C269.358 59.8672 270.223 59.8672 271.078 59.8891C297.183 60.196 322.137 65.3139 345.096 74.3771C360.626 80.5143 375.245 88.4487 388.692 97.9394C398.457 104.844 407.597 112.548 416.024 120.976C427.488 132.428 437.625 145.217 446.173 159.081C465.812 190.895 477.144 228.376 477.144 268.508Z" fill="url(#paint4_linear)"/>
<path d="M416.024 120.976L120.97 416.03C112.543 407.613 104.827 398.462 97.934 388.697C88.4434 375.251 80.498 360.631 74.3718 345.102C65.2976 322.142 60.1906 297.177 59.8837 271.073C59.8618 270.218 59.8618 269.363 59.8618 268.508C59.8618 153.283 153.267 59.8672 268.503 59.8672C269.357 59.8672 270.223 59.8672 271.078 59.8891C297.183 60.196 322.137 65.3139 345.096 74.3771C360.626 80.5143 375.245 88.4487 388.692 97.9394C398.457 104.844 407.597 112.548 416.024 120.976Z" fill="#20DBDB"/>
<path d="M416.024 120.976L120.97 416.03C112.543 407.613 104.827 398.462 97.934 388.697C88.4434 375.251 80.498 360.631 74.3718 345.102C65.2976 322.142 60.1906 297.177 59.8837 271.073C59.8618 270.218 59.8618 269.363 59.8618 268.508C59.8618 153.283 153.267 59.8672 268.503 59.8672C269.357 59.8672 270.223 59.8672 271.078 59.8891C297.183 60.196 322.137 65.3139 345.096 74.3771C360.626 80.5143 375.245 88.4487 388.692 97.9394C398.457 104.844 407.597 112.548 416.024 120.976Z" fill="url(#paint5_linear)"/>
<path d="M477.134 268.508C477.134 383.733 383.717 477.149 268.493 477.149C264.536 477.149 260.613 477.039 256.711 476.82C366.457 470.716 453.56 379.777 453.56 268.508C453.56 157.24 366.457 66.3002 256.711 60.196C260.613 59.9768 264.536 59.8672 268.493 59.8672C383.717 59.8672 477.134 153.283 477.134 268.508Z" fill="#F68E00"/>
<path d="M477.134 268.508C477.134 383.733 383.717 477.149 268.493 477.149C264.536 477.149 260.613 477.039 256.711 476.82C366.457 470.716 453.56 379.777 453.56 268.508C453.56 157.24 366.457 66.3002 256.711 60.196C260.613 59.9768 264.536 59.8672 268.493 59.8672C383.717 59.8672 477.134 153.283 477.134 268.508Z" fill="#111111"/>
<path d="M477.134 268.508C477.134 383.733 383.717 477.149 268.493 477.149C264.536 477.149 260.613 477.039 256.711 476.82C366.457 470.716 453.56 379.777 453.56 268.508C453.56 157.24 366.457 66.3002 256.711 60.196C260.613 59.9768 264.536 59.8672 268.493 59.8672C383.717 59.8672 477.134 153.283 477.134 268.508Z" fill="url(#paint6_linear)" fill-opacity="0.5"/>
<path d="M477.134 268.508C477.134 383.733 383.717 477.149 268.493 477.149C264.536 477.149 260.613 477.039 256.711 476.82C366.457 470.716 453.56 379.777 453.56 268.508C453.56 157.24 366.457 66.3002 256.711 60.196C260.613 59.9768 264.536 59.8672 268.493 59.8672C383.717 59.8672 477.134 153.283 477.134 268.508Z" fill="url(#paint7_linear)"/>
<g clip-path="url(#clip1)">
<path d="M381.33 234.308C378.233 231.21 376.528 227.092 376.528 222.713C376.528 218.333 378.235 214.215 381.33 211.118L386.64 205.81L320.45 139.62L315.142 144.93C312.045 148.027 307.927 149.732 303.547 149.732C299.168 149.732 295.05 148.027 291.952 144.93L286.643 139.62L263.681 162.582L274.299 173.201L263.681 183.818L253.064 173.201L128.88 297.383L134.19 302.693C137.287 305.79 138.992 309.908 138.992 314.287C138.992 318.667 137.285 322.785 134.19 325.882L128.88 331.19L195.07 397.38L200.378 392.07C203.475 388.975 207.593 387.268 211.973 387.268C216.354 387.268 220.47 388.975 223.567 392.07L228.877 397.38L353.059 273.196L342.442 262.579L353.059 251.961L363.678 262.579L386.64 239.617L381.33 234.308ZM195.886 348.555L182.699 335.367L177.469 340.598L172.803 335.929L189.281 319.452L193.947 324.12L188.718 329.347L201.906 342.535L195.886 348.555ZM210.604 333.837L192.75 315.983L198.769 309.963L216.624 327.817L210.604 333.837ZM231.088 314.171C225.347 319.91 217.286 320.266 211.804 314.783C206.319 309.298 206.677 301.239 212.415 295.501C215.91 292.006 219.941 290.526 223.996 291.062L223.587 298.254C221.215 297.975 219.2 298.459 217.593 300.065C215.094 302.565 215.145 305.983 217.874 308.712C220.602 311.442 224.02 311.493 226.521 308.993C228.128 307.387 228.612 305.371 228.332 302.999L235.524 302.59C236.061 306.647 234.582 310.677 231.088 314.171V314.171ZM254.069 290.372L243.687 288.919L243.841 291.774L248.254 296.187L242.336 302.107L224.482 284.25L230.399 278.333L236.877 284.813L236.265 272.467L242.82 265.912L243.534 280.909L261.032 283.409L254.069 290.372ZM263.764 280.679L245.907 262.823L260.421 248.31L264.961 252.85L256.366 261.446L258.458 263.539L266.008 255.987L270.344 260.325L262.794 267.875L265.14 270.221L274.067 261.293L278.607 265.833L263.764 280.679ZM286.719 257.721L273.532 244.534L268.305 249.763L263.636 245.096L280.114 228.618L284.782 233.285L279.551 238.514L292.739 251.702L286.719 257.721ZM286.184 206.322L274.934 195.071L285.551 184.452L296.802 195.704L286.184 206.322ZM308.688 228.825L297.435 217.572L308.053 206.955L319.305 218.208L308.688 228.825ZM331.189 251.328L319.938 240.076L330.556 229.458L341.808 240.709L331.189 251.328Z" fill="white"/>
</g>
</g>
<defs>
<linearGradient id="paint0_linear" x1="256.438" y1="-28.8428" x2="-59.5638" y2="439.79" gradientUnits="userSpaceOnUse">
<stop stop-color="#00F0FF"/>
<stop offset="1" stop-color="#0098D9"/>
<stop offset="1" stop-color="#0098D9"/>
</linearGradient>
<linearGradient id="paint1_linear" x1="422.07" y1="55.4399" x2="-94.6279" y2="448.363" gradientUnits="userSpaceOnUse">
<stop stop-color="#FFDB1C"/>
<stop offset="1" stop-color="#8A670D"/>
</linearGradient>
<linearGradient id="paint2_linear" x1="426.35" y1="55.5904" x2="-84.5506" y2="429.902" gradientUnits="userSpaceOnUse">
<stop stop-color="#FFDB1C"/>
<stop offset="1" stop-color="#D99C00"/>
</linearGradient>
<linearGradient id="paint3_linear" x1="449.325" y1="80.7313" x2="-15.4339" y2="392.848" gradientUnits="userSpaceOnUse">
<stop stop-color="#00F0FF"/>
<stop offset="0.883466" stop-color="#0098D9"/>
<stop offset="1" stop-color="#0098D9"/>
</linearGradient>
<linearGradient id="paint4_linear" x1="434.975" y1="53.7001" x2="92.8927" y2="470.726" gradientUnits="userSpaceOnUse">
<stop stop-color="#FFDB1C"/>
<stop offset="1" stop-color="#8A670D"/>
</linearGradient>
<linearGradient id="paint5_linear" x1="339.798" y1="96.6374" x2="-2.89971" y2="357.242" gradientUnits="userSpaceOnUse">
<stop stop-color="#FFDB1C"/>
<stop offset="1" stop-color="#8A670D"/>
</linearGradient>
<linearGradient id="paint6_linear" x1="462.439" y1="80.7313" x2="146.033" y2="192.974" gradientUnits="userSpaceOnUse">
<stop stop-color="#00F0FF"/>
<stop offset="1" stop-color="#0098D9"/>
<stop offset="1" stop-color="#0098D9"/>
</linearGradient>
<linearGradient id="paint7_linear" x1="220.17" y1="-64.4399" x2="97.5397" y2="313.185" gradientUnits="userSpaceOnUse">
<stop stop-color="#FFDB1C"/>
<stop offset="1" stop-color="#8A670D"/>
</linearGradient>
<clipPath id="clip0">
<rect width="537" height="537" fill="white"/>
</clipPath>
<clipPath id="clip1">
<rect width="257.76" height="257.76" fill="white" transform="translate(128.88 139.62)"/>
</clipPath>
</defs>
</svg>
