<svg width="30" height="30" viewBox="0 0 30 30" fill="none" xmlns="http://www.w3.org/2000/svg">
<path d="M13.6726 24.9917H16.3276V28.7417H13.6726V24.9917Z" fill="white"/>
<path d="M24.375 17.4917H22.5V11.8667H15.8789V6.17121C16.9555 6.26115 18.0278 6.41906 19.1156 6.34717V2.60127C18.0278 2.67316 16.9555 2.51525 15.8789 2.42531V1.2583H14.1211V11.8667H11.25V9.9917C11.2529 6.91611 8.74395 4.36494 5.625 4.3667C2.51836 4.3667 0 6.88506 0 9.9917V28.7417H11.9147V24.9917H3.75V9.9917C3.74531 8.99209 4.57148 8.12549 5.625 8.1167C6.66035 8.1167 7.5 8.95635 7.5 9.9917V15.6167H18.75V21.2417H24.375C25.3746 21.237 26.2412 22.0632 26.25 23.1167C26.25 24.1526 25.4104 24.9917 24.375 24.9917H18.0853V28.7417H24.375C25.9283 28.7417 27.3346 28.1124 28.3523 27.094C29.3707 26.0763 30 24.67 30 23.1167C30 20.0101 27.4816 17.4917 24.375 17.4917Z" fill="white"/>
</svg>
