<svg width="36" height="34" viewBox="0 0 36 34" fill="none" xmlns="http://www.w3.org/2000/svg">
<path d="M35.1338 8.61537L27.6338 1.11538C27.2763 0.757875 26.74 0.652876 26.2713 0.844125C25.8038 1.03788 25.5 1.49412 25.5 1.99912V5.74912H6.75C4.67875 5.74912 3 7.42787 3 9.49912C3 11.5704 4.67875 13.2491 6.75 13.2491H25.5V16.9991C25.5 17.5041 25.8038 17.9604 26.2713 18.1541C26.7413 18.3479 27.2775 18.2391 27.6338 17.8829L35.1338 10.3829C35.6225 9.89537 35.6225 9.10287 35.1338 8.61537Z" fill="white"/>
<path d="M29.2502 20.7486H10.5002V16.9986C10.5002 16.4936 10.1965 16.0373 9.72898 15.8436C9.26148 15.6498 8.72523 15.7561 8.36648 16.1148L0.866479 23.6148C0.378979 24.1023 0.378979 24.8948 0.866479 25.3823L8.36648 32.8823C8.72273 33.2386 9.25898 33.3473 9.72898 33.1536C10.1965 32.9598 10.5002 32.5036 10.5002 31.9986V28.2486H29.2502C31.3215 28.2486 33.0002 26.5698 33.0002 24.4986C33.0002 22.4273 31.3215 20.7486 29.2502 20.7486Z" fill="white"/>
</svg>
