<svg width="32" height="32" viewBox="0 0 32 32" fill="none" xmlns="http://www.w3.org/2000/svg">
<g clip-path="url(#clip0)">
<path d="M32 16C32 24.8367 24.8367 32 16 32C7.16333 32 0 24.8367 0 16C0 7.16333 7.16333 0 16 0C24.8367 0 32 7.16333 32 16Z" fill="#4A7AFF"/>
<path d="M32 16C32 24.8367 24.8367 32 16 32C7.16333 32 0 24.8367 0 16C0 7.16333 7.16333 0 16 0C24.8367 0 32 7.16333 32 16Z" fill="#00ACEE"/>
<path d="M31.9998 16C31.9998 15.0234 31.9119 14.0676 31.7444 13.1394L26.1755 7.57031L17.7117 16.3013L7.19312 16.375L10.8123 19.9944L9.15137 20.0142L11.6704 22.5332L10.5957 23.6418L5.22949 22.7681L14.3804 31.9189C14.9128 31.9724 15.4531 32 15.9998 32C24.8364 32 31.9998 24.8367 31.9998 16Z" fill="#0089BD"/>
<path d="M12.0046 24.7532C20.1335 24.7532 24.5789 18.0186 24.5789 12.179C24.5789 11.9875 24.5749 11.7974 24.5662 11.6079C25.429 10.9839 26.179 10.2056 26.7707 9.31958C25.9788 9.67139 25.1267 9.90845 24.2327 10.0151C25.1453 9.46826 25.8457 8.60254 26.1763 7.57056C25.322 8.0769 24.3767 8.44482 23.3701 8.64331C22.5635 7.78442 21.415 7.24707 20.1443 7.24707C17.7034 7.24707 15.7241 9.22632 15.7241 11.666C15.7241 12.0129 15.7629 12.3501 15.8386 12.6738C12.166 12.489 8.90893 10.7302 6.72949 8.0564C6.34961 8.70947 6.1311 9.46826 6.1311 10.2776C6.1311 11.8108 6.91138 13.1646 8.09766 13.9563C7.3728 13.9341 6.69165 13.7346 6.09619 13.4033C6.09521 13.4219 6.09521 13.4404 6.09521 13.4597C6.09521 15.6003 7.61865 17.3872 9.64062 17.7922C9.26953 17.8933 8.87891 17.9478 8.47559 17.9478C8.19092 17.9478 7.91406 17.9194 7.64477 17.8682C8.20752 19.6238 9.83887 20.9016 11.7734 20.9377C10.2605 22.123 8.35522 22.8293 6.28467 22.8293C5.92822 22.8293 5.57642 22.8091 5.23047 22.7681C7.18628 24.0215 9.50854 24.7532 12.0046 24.7532Z" fill="white"/>
</g>
<defs>
<clipPath id="clip0">
<rect width="32" height="32" fill="white"/>
</clipPath>
</defs>
</svg>
