<svg width="122" height="35" viewBox="0 0 122 35" fill="none" xmlns="http://www.w3.org/2000/svg">
<path fill-rule="evenodd" clip-rule="evenodd" d="M99.8562 0.0078125H94.9791V27.2223H99.8562V0.0078125ZM21.1501 14.4794L24.1387 13.3434C24.2865 13.2858 24.4261 13.4504 24.344 13.5903L15.4848 28.2677C15.3945 28.4076 15.2385 28.4982 15.0743 28.4982H9.27765C9.11344 28.4982 8.94923 28.4076 8.86712 28.2595L0.0243852 13.5821C-0.0577201 13.4422 0.0818589 13.2775 0.229648 13.3352L3.20186 14.4794C3.33323 14.5288 3.44818 14.3971 3.39891 14.2736L0.0654378 6.17346C0.0161746 6.04998 0.131122 5.9265 0.25428 5.96766L6.5846 8.19026C6.70776 8.23142 6.80628 8.32197 6.85555 8.44544L11.1661 19.3032C11.2235 19.4432 11.084 19.5749 10.9526 19.5255L8.26776 18.5377C8.11176 18.48 7.98039 18.6447 8.06249 18.7846L11.9953 25.4936C12.0774 25.6417 12.2909 25.6417 12.373 25.4936L16.3059 18.7846C16.388 18.6447 16.2484 18.48 16.1006 18.5377L13.4158 19.5255C13.2762 19.5831 13.1448 19.4432 13.2023 19.3032L17.4964 8.43721C17.5457 8.32197 17.6442 8.22318 17.7673 8.18202L24.0977 5.95943C24.2208 5.91827 24.3358 6.04175 24.2865 6.16523L20.953 14.2736C20.912 14.3971 21.0269 14.5288 21.1501 14.4794ZM64.7151 8.6677C65.8236 9.14515 66.7924 9.8037 67.6299 10.668C68.4591 11.5324 69.1242 12.5696 69.6168 13.7797C70.1012 14.9898 70.3476 16.3233 70.3476 17.7639C70.3476 17.9861 70.3394 18.2002 70.3065 18.4142C70.2983 18.4883 70.2819 18.5706 70.2737 18.6447C70.2573 18.7764 70.2408 18.8999 70.2244 19.0233C70.2162 19.0974 70.208 19.1715 70.1998 19.2374C70.1834 19.3773 70.1669 19.5173 70.1423 19.649H56.8166C57.0383 20.5956 57.5063 21.3859 58.237 22.028C58.9596 22.6701 59.9448 22.9911 61.1928 22.9911C61.8332 22.9911 62.3669 22.9252 62.7939 22.7853C63.2208 22.6454 63.5903 22.4807 63.8941 22.2832C64.2225 22.0609 64.5017 21.8057 64.7234 21.5341H69.7154C69.4608 22.2585 69.0831 22.9829 68.5659 23.7073C68.0486 24.4317 67.4246 25.0737 66.6939 25.65C65.9549 26.218 65.1257 26.6872 64.1979 27.0494C63.2619 27.4116 62.2602 27.5927 61.1764 27.5927C59.8709 27.5927 58.6394 27.3293 57.4899 26.8189C56.3404 26.3085 55.3223 25.6088 54.452 24.7115C53.5735 23.8225 52.8838 22.7853 52.3747 21.5999C51.8575 20.4228 51.6029 19.1386 51.6029 17.7803C51.6029 16.4221 51.8657 15.1462 52.3747 13.9608C52.8838 12.7836 53.5817 11.7464 54.452 10.8491C55.3305 9.9601 56.3404 9.25216 57.4899 8.74179C58.6394 8.22318 59.8709 7.968 61.1764 7.968C62.4244 7.95976 63.6067 8.19849 64.7151 8.6677ZM58.1139 13.6315C57.3257 14.3559 56.8166 15.2532 56.5949 16.3068H65.7579C65.5362 15.2449 65.0271 14.3559 64.2389 13.6315C63.4507 12.9071 62.4326 12.5449 61.1764 12.5449C59.9202 12.5449 58.9021 12.9071 58.1139 13.6315ZM41.5697 23.6414H40.8718L36.4134 7.93507H31.2244L37.3494 27.214H45.1002L51.217 7.93507H46.028L41.5697 23.6414ZM78.7634 10.4622C79.3791 9.13692 80.9309 7.62226 84.3793 7.62226C88.8705 7.62226 91.8591 10.9232 91.8509 15.7059V27.214H86.9739V16.101C86.9739 13.187 85.5042 11.7464 82.8686 11.7464C79.88 11.7464 78.1394 13.8455 78.1394 17.4181V27.214H73.2623V7.93507H78.0655V10.4622H78.7634ZM117.123 17.731V7.93507H122V30.6385C122 33.2809 120.3 34.9931 117.739 34.9931H105.645V30.7208H116.105C116.803 30.7208 117.189 30.3339 117.189 29.5601V24.6951H116.491C115.875 26.0204 114.323 27.5351 110.875 27.5351C106.384 27.5351 103.395 24.2341 103.395 19.4514V7.93507H108.272V19.0563C108.272 21.9703 109.742 23.4109 112.377 23.4109C115.382 23.4109 117.123 21.3118 117.123 17.731Z" fill="white"/>
</svg>
