<svg width="40" height="35" viewBox="0 0 40 35" fill="none" xmlns="http://www.w3.org/2000/svg">
<path d="M32.9168 34.9996H28.7501C27.6018 34.9996 26.6668 34.0646 26.6668 32.9162V25.4162H22.9168C22.4118 25.4162 21.9551 25.1112 21.7618 24.6446C21.5684 24.1779 21.6751 23.6396 22.0334 23.2829L29.9501 15.3662C30.4384 14.8779 31.2301 14.8779 31.7184 15.3662L39.6351 23.2829C39.9918 23.6396 40.1001 24.1779 39.9068 24.6446C39.7134 25.1112 39.2568 25.4162 38.7518 25.4162H35.0001V32.9162C35.0001 34.0646 34.0651 34.9996 32.9168 34.9996Z" fill="white"/>
<path d="M35 0H5C2.25 0 0 2.25 0 5V25C0 27.75 2.25 30 5 30H23.3333V28.75H22.9167C21.3333 28.75 19.9167 27.95 19.1 26.6667H5C4.08333 26.6667 3.33333 25.9167 3.33333 25V5C3.33333 4.08333 4.08333 3.33333 5 3.33333H35C35.9167 3.33333 36.6667 4.08333 36.6667 5V15.6167L40 18.95V5C40 2.25 37.75 0 35 0Z" fill="white"/>
<path d="M12.0835 8.33398H2.0835C1.3935 8.33398 0.833496 8.89398 0.833496 9.58398V20.4173C0.833496 21.1073 1.3935 21.6673 2.0835 21.6673H12.0835C14.6118 21.6673 16.6668 19.6123 16.6668 17.084V12.9173C16.6668 10.389 14.6118 8.33398 12.0835 8.33398ZM10.0002 18.334C8.1585 18.334 6.66683 16.8423 6.66683 15.0006C6.66683 13.159 8.1585 11.6673 10.0002 11.6673C11.8418 11.6673 13.3335 13.159 13.3335 15.0006C13.3335 16.8423 11.8418 18.334 10.0002 18.334Z" fill="white"/>
</svg>
