<svg width="40" height="40" viewBox="0 0 40 40" fill="none" xmlns="http://www.w3.org/2000/svg">
<g clip-path="url(#clip0)">
<path d="M39.18 0.00495592C31.3717 -0.135044 22.4667 3.94662 16.83 10.2783C11.4434 10.38 6.19835 12.5883 2.33668 16.45C2.11168 16.6716 2.03168 17.0033 2.13002 17.3033C2.23002 17.605 2.49002 17.8233 2.80335 17.8683L9.22668 18.7883L8.43335 19.6766C8.13835 20.0066 8.15335 20.5083 8.46668 20.8216L19.1784 31.5333C19.34 31.695 19.5534 31.7766 19.7684 31.7766C19.9667 31.7766 20.165 31.7066 20.3234 31.565L21.2117 30.7716L22.1317 37.195C22.1767 37.5083 22.4234 37.7383 22.7217 37.8383C22.7984 37.8633 22.8784 37.875 22.96 37.875C23.1967 37.875 23.4384 37.7716 23.605 37.6066C27.4134 33.7983 29.6217 28.5533 29.7234 23.1666C36.0617 17.5183 40.1767 8.61662 39.995 0.818289C39.9834 0.374956 39.625 0.0166226 39.18 0.00495592V0.00495592ZM31.5 14.3916C30.6884 15.2033 29.6217 15.61 28.5534 15.61C27.485 15.61 26.4184 15.2033 25.6067 14.3916C23.9834 12.7666 23.9834 10.1233 25.6067 8.49829C27.2317 6.87329 29.875 6.87329 31.5 8.49829C33.125 10.1233 33.125 12.7683 31.5 14.3916Z" fill="url(#paint0_linear)"/>
<path d="M4.5401 28.1748C2.75676 29.9582 0.308429 38.0148 0.0350957 38.9265C-0.0532377 39.2198 0.028429 39.5382 0.243429 39.7548C0.403429 39.9149 0.615096 39.9998 0.833429 39.9998C0.913429 39.9998 0.993429 39.9882 1.07343 39.9648C1.9851 39.6915 10.0418 37.2432 11.8251 35.4598C13.8334 33.4515 13.8334 30.1832 11.8251 28.1748C9.81509 26.1665 6.54843 26.1681 4.5401 28.1748V28.1748Z" fill="url(#paint1_linear)"/>
</g>
<defs>
<linearGradient id="paint0_linear" x1="40.7632" y1="0.00146648" x2="-4.63334" y2="27.8096" gradientUnits="userSpaceOnUse">
<stop stop-color="#FE173F"/>
<stop offset="1" stop-color="#950552"/>
</linearGradient>
<linearGradient id="paint1_linear" x1="13.5994" y1="26.6692" x2="-2.37214" y2="36.4433" gradientUnits="userSpaceOnUse">
<stop stop-color="#FE173F"/>
<stop offset="1" stop-color="#950552"/>
</linearGradient>
<clipPath id="clip0">
<rect width="40" height="40" fill="white"/>
</clipPath>
</defs>
</svg>
