<svg width="135" height="108" viewBox="0 0 135 108" fill="none" xmlns="http://www.w3.org/2000/svg">
<g filter="url(#filter0_dd)">
<path d="M22.1837 28.8651C24.5571 26.2756 27.0443 23.9455 29.7827 21.7822C30.1048 21.5279 30.5685 21.8324 30.4607 22.2283C28.9257 27.8699 26.2439 33.4453 22.1097 37.5901C21.9239 34.6885 21.9212 31.7627 22.1837 28.8651Z" fill="#FF901D"/>
<path d="M22.1837 28.8651C24.5571 26.2756 27.0443 23.9455 29.7827 21.7822C30.1048 21.5279 30.5685 21.8324 30.4607 22.2283C28.9257 27.8699 26.2439 33.4453 22.1097 37.5901C21.9239 34.6885 21.9212 31.7627 22.1837 28.8651Z" fill="url(#paint0_linear)"/>
<path d="M22.1102 37.592C19.7232 34.7115 17.6721 31.7334 15.824 28.5182C15.6127 28.1506 15.0506 28.2816 15.0291 28.7053C14.6957 35.2914 17.2121 42.9977 23.343 46.1059C22.732 43.3051 22.2918 40.4549 22.1102 37.592Z" fill="#FF901D"/>
<path d="M22.1102 37.592C19.7232 34.7115 17.6721 31.7334 15.824 28.5182C15.6127 28.1506 15.0506 28.2816 15.0291 28.7053C14.6957 35.2914 17.2121 42.9977 23.343 46.1059C22.732 43.3051 22.2918 40.4549 22.1102 37.592Z" fill="url(#paint1_linear)"/>
<path d="M23.3428 46.1038C24.8449 43.013 26.5264 40.1374 28.4973 37.3501C28.7311 37.0194 29.2555 37.171 29.2725 37.5757C29.5125 43.2649 28.5363 49.279 25.8104 54.2731C24.7998 51.6149 23.9475 48.8845 23.3428 46.1038Z" fill="#FF901D"/>
<path d="M23.3428 46.1038C24.8449 43.013 26.5264 40.1374 28.4973 37.3501C28.7311 37.0194 29.2555 37.171 29.2725 37.5757C29.5125 43.2649 28.5363 49.279 25.8104 54.2731C24.7998 51.6149 23.9475 48.8845 23.3428 46.1038Z" fill="url(#paint2_linear)"/>
<path d="M25.8105 54.2749C22.7111 52.2829 19.8799 50.1049 17.164 47.6585C16.8507 47.3762 16.3593 47.671 16.4654 48.079C18.1015 54.3698 22.7804 60.8255 29.4418 61.9657C28.057 59.493 26.8166 56.9264 25.8105 54.2749Z" fill="#FF901D"/>
<path d="M25.8105 54.2749C22.7111 52.2829 19.8799 50.1049 17.164 47.6585C16.8507 47.3762 16.3593 47.671 16.4654 48.079C18.1015 54.3698 22.7804 60.8255 29.4418 61.9657C28.057 59.493 26.8166 56.9264 25.8105 54.2749Z" fill="url(#paint3_linear)"/>
<path d="M29.4409 61.9647C29.9839 58.5929 30.7604 55.3763 31.8415 52.1604C31.97 51.778 32.5132 51.7706 32.648 52.1511C34.5386 57.4886 35.3044 63.5102 34.1638 69.0442C32.4298 66.8001 30.8257 64.4417 29.4409 61.9647Z" fill="#FF901D"/>
<path d="M29.4409 61.9647C29.9839 58.5929 30.7604 55.3763 31.8415 52.1604C31.97 51.778 32.5132 51.7706 32.648 52.1511C34.5386 57.4886 35.3044 63.5102 34.1638 69.0442C32.4298 66.8001 30.8257 64.4417 29.4409 61.9647Z" fill="url(#paint4_linear)"/>
<path d="M34.1651 69.0455C30.632 68.0445 27.2942 66.7928 23.9885 65.2584C23.6067 65.0811 23.2238 65.5061 23.444 65.8649C26.8428 71.4076 33.2061 76.2065 39.9082 75.3795C37.8508 73.4084 35.9067 71.3027 34.1651 69.0455Z" fill="#FF901D"/>
<path d="M34.1651 69.0455C30.632 68.0445 27.2942 66.7928 23.9885 65.2584C23.6067 65.0811 23.2238 65.5061 23.444 65.8649C26.8428 71.4076 33.2061 76.2065 39.9082 75.3795C37.8508 73.4084 35.9067 71.3027 34.1651 69.0455Z" fill="url(#paint5_linear)"/>
<path d="M39.9062 75.3778C39.4242 71.9805 39.2193 68.667 39.3141 65.261C39.3252 64.8573 39.8432 64.6919 40.083 65.0169C43.4682 69.6063 45.9935 75.1813 46.5978 80.8335C44.2439 79.1792 41.9838 77.371 39.9062 75.3778Z" fill="#FF901D"/>
<path d="M39.9062 75.3778C39.4242 71.9805 39.2193 68.667 39.3141 65.261C39.3252 64.8573 39.8432 64.6919 40.083 65.0169C43.4682 69.6063 45.9935 75.1813 46.5978 80.8335C44.2439 79.1792 41.9838 77.371 39.9062 75.3778Z" fill="url(#paint6_linear)"/>
<path d="M107.816 28.8651C105.443 26.2756 102.956 23.9455 100.217 21.7822C99.8952 21.5279 99.4315 21.8324 99.5394 22.2283C101.074 27.8699 103.756 33.4453 107.89 37.5901C108.076 34.6885 108.079 31.7627 107.816 28.8651Z" fill="#FF901D"/>
<path d="M107.816 28.8651C105.443 26.2756 102.956 23.9455 100.217 21.7822C99.8952 21.5279 99.4315 21.8324 99.5394 22.2283C101.074 27.8699 103.756 33.4453 107.89 37.5901C108.076 34.6885 108.079 31.7627 107.816 28.8651Z" fill="url(#paint7_linear)"/>
<path d="M107.89 37.592C110.276 34.7115 112.328 31.7334 114.176 28.5182C114.387 28.1506 114.949 28.2816 114.971 28.7053C115.304 35.2914 112.788 42.9977 106.657 46.1059C107.268 43.3051 107.708 40.4549 107.89 37.592Z" fill="#FF901D"/>
<path d="M107.89 37.592C110.276 34.7115 112.328 31.7334 114.176 28.5182C114.387 28.1506 114.949 28.2816 114.971 28.7053C115.304 35.2914 112.788 42.9977 106.657 46.1059C107.268 43.3051 107.708 40.4549 107.89 37.592Z" fill="url(#paint8_linear)"/>
<path d="M106.658 46.1038C105.155 43.013 103.474 40.1374 101.503 37.3501C101.269 37.0194 100.745 37.171 100.728 37.5757C100.488 43.2649 101.464 49.279 104.19 54.2731C105.201 51.6149 106.053 48.8845 106.658 46.1038Z" fill="#FF901D"/>
<path d="M106.658 46.1038C105.155 43.013 103.474 40.1374 101.503 37.3501C101.269 37.0194 100.745 37.171 100.728 37.5757C100.488 43.2649 101.464 49.279 104.19 54.2731C105.201 51.6149 106.053 48.8845 106.658 46.1038Z" fill="url(#paint9_linear)"/>
<path d="M104.189 54.2749C107.289 52.2829 110.12 50.1049 112.836 47.6585C113.149 47.3762 113.641 47.671 113.534 48.079C111.898 54.3698 107.219 60.8255 100.558 61.9657C101.943 59.493 103.183 56.9264 104.189 54.2749Z" fill="#FF901D"/>
<path d="M104.189 54.2749C107.289 52.2829 110.12 50.1049 112.836 47.6585C113.149 47.3762 113.641 47.671 113.534 48.079C111.898 54.3698 107.219 60.8255 100.558 61.9657C101.943 59.493 103.183 56.9264 104.189 54.2749Z" fill="url(#paint10_linear)"/>
<path d="M100.559 61.9647C100.016 58.5929 99.2395 55.3763 98.1585 52.1604C98.03 51.778 97.4868 51.7706 97.352 52.1511C95.4614 57.4886 94.6956 63.5102 95.8362 69.0442C97.5702 66.8001 99.1743 64.4417 100.559 61.9647Z" fill="#FF901D"/>
<path d="M100.559 61.9647C100.016 58.5929 99.2395 55.3763 98.1585 52.1604C98.03 51.778 97.4868 51.7706 97.352 52.1511C95.4614 57.4886 94.6956 63.5102 95.8362 69.0442C97.5702 66.8001 99.1743 64.4417 100.559 61.9647Z" fill="url(#paint11_linear)"/>
<path d="M95.835 69.0455C99.368 68.0445 102.706 66.7928 106.012 65.2584C106.393 65.0811 106.776 65.5061 106.556 65.8649C103.157 71.4076 96.7939 76.2065 90.0918 75.3795C92.1492 73.4084 94.0934 71.3027 95.835 69.0455Z" fill="#FF901D"/>
<path d="M95.835 69.0455C99.368 68.0445 102.706 66.7928 106.012 65.2584C106.393 65.0811 106.776 65.5061 106.556 65.8649C103.157 71.4076 96.7939 76.2065 90.0918 75.3795C92.1492 73.4084 94.0934 71.3027 95.835 69.0455Z" fill="url(#paint12_linear)"/>
<path d="M90.0939 75.3778C90.576 71.9805 90.7809 68.667 90.6861 65.261C90.675 64.8573 90.157 64.6919 89.9172 65.0169C86.532 69.6063 84.0066 75.1813 83.4023 80.8335C85.7562 79.1792 88.0164 77.371 90.0939 75.3778Z" fill="#FF901D"/>
<path d="M90.0939 75.3778C90.576 71.9805 90.7809 68.667 90.6861 65.261C90.675 64.8573 90.157 64.6919 89.9172 65.0169C86.532 69.6063 84.0066 75.1813 83.4023 80.8335C85.7562 79.1792 88.0164 77.371 90.0939 75.3778Z" fill="url(#paint13_linear)"/>
<path d="M54.864 83.9335C52.1591 82.5997 49.6866 81.1486 47.5149 79.6208C47.5144 79.6204 47.514 79.6202 47.5134 79.6198C47.513 79.6196 47.5128 79.6193 47.5124 79.6191C45.0888 77.9159 42.9036 76.1349 41.0169 74.3249C41.0165 74.3245 41.0161 74.3239 41.0157 74.3235C38.898 72.295 37.0214 70.2259 35.4378 68.1734C35.4374 68.1728 35.4368 68.1722 35.4364 68.1716C35.4362 68.1714 35.4362 68.1712 35.436 68.171C33.6497 65.8589 32.1062 63.5458 30.8483 61.2954C30.8478 61.2943 30.847 61.2933 30.8464 61.2921C29.4198 58.7439 28.2337 56.2323 27.3212 53.8269C27.3208 53.8259 27.3204 53.8251 27.32 53.8243V53.8241C26.2778 51.0818 25.4714 48.4126 24.9228 45.8907C24.9228 45.8903 24.9226 45.8902 24.9226 45.89C24.2927 43.0023 23.8898 40.2216 23.7251 37.6257C23.7251 37.6243 23.7247 37.6232 23.7247 37.622C23.5333 34.6323 23.5571 31.7827 23.7956 29.1525C23.7985 29.1206 23.7985 29.089 23.7993 29.0573C24.1142 24.99 24.8671 20.9128 26.0409 16.9368C26.2769 16.1374 25.82 15.2982 25.0206 15.0622C24.2216 14.8261 23.3819 15.2827 23.146 16.0825C21.8997 20.3042 21.103 24.636 20.7782 28.9577C20.7761 28.9872 20.7767 29.0161 20.7761 29.0452C20.5374 31.7839 20.5149 34.7327 20.7124 37.8153C20.7124 37.8159 20.7124 37.8163 20.7124 37.8169C20.8866 40.562 21.3103 43.4917 21.9718 46.5251C21.9724 46.5275 21.9726 46.53 21.973 46.5323C22.5532 49.2003 23.4028 52.0146 24.4983 54.8964C24.4985 54.8968 24.4985 54.8972 24.4987 54.8976C25.4642 57.4421 26.7138 60.09 28.213 62.7675C28.2132 62.7679 28.2134 62.7683 28.2136 62.7687C28.2142 62.7696 28.2146 62.7704 28.2151 62.7712C28.2151 62.7712 28.2151 62.7712 28.2153 62.7714C29.5456 65.1503 31.1712 67.5878 33.0474 70.0163C33.0482 70.0173 33.0489 70.0179 33.0495 70.0189C34.7235 72.1882 36.6999 74.3687 38.9239 76.4993C38.9245 76.4999 38.9249 76.5005 38.9255 76.5011C40.9226 78.4173 43.2278 80.2972 45.7774 82.0888C45.7778 82.089 45.778 82.0892 45.7784 82.0894C48.0769 83.7067 50.6847 85.238 53.529 86.6407C53.7439 86.7466 53.9714 86.7968 54.1954 86.7968C54.7519 86.7968 55.2874 86.4876 55.5501 85.9548C55.9187 85.2071 55.6114 84.3023 54.864 83.9335Z" fill="#F7BC14"/>
<path d="M109.224 29.0449C109.224 29.0158 109.224 28.9871 109.222 28.9578C108.897 24.6353 108.101 20.3033 106.854 16.0824C106.618 15.2832 105.779 14.8273 104.979 15.0623C104.18 15.2982 103.723 16.1376 103.959 16.9371C105.133 20.9121 105.886 24.989 106.201 29.0568C106.202 29.0886 106.202 29.1205 106.205 29.1525C106.443 31.7818 106.467 34.6316 106.276 37.6224C106.276 37.623 106.276 37.6236 106.276 37.624C106.276 37.6246 106.276 37.625 106.276 37.6255C106.111 40.2203 105.708 43.0007 105.078 45.8898C105.078 45.89 105.078 45.8904 105.078 45.8906C104.529 48.4125 103.723 51.0816 102.68 53.8238C102.68 53.8242 102.68 53.8244 102.68 53.8248C102.68 53.8255 102.679 53.8261 102.679 53.8267C101.767 56.232 100.58 58.7443 99.1525 61.2945C99.1523 61.2947 99.1521 61.2951 99.1519 61.2953C97.8943 63.5451 96.3508 65.8582 94.564 68.1709C94.5637 68.1714 94.5633 68.172 94.5629 68.1726C94.5627 68.1728 94.5627 68.1728 94.5625 68.173C92.9795 70.2248 91.1025 72.2939 88.9845 74.3232C88.9842 74.3236 88.9838 74.3242 88.9834 74.3246C87.0974 76.1339 84.9119 77.9152 82.4877 79.6187C82.4871 79.6191 82.4865 79.6197 82.4857 79.6203C82.4855 79.6203 82.4853 79.6205 82.4851 79.6205C80.3135 81.1486 77.841 82.5996 75.1361 83.9332C74.3884 84.3017 74.0812 85.2066 74.45 85.9541C74.7127 86.4873 75.248 86.7962 75.8047 86.7962C76.0287 86.7962 76.2562 86.746 76.4709 86.6402C79.3148 85.2378 81.9222 83.7068 84.2207 82.0896C84.2215 82.089 84.2222 82.0888 84.223 82.0882C86.773 80.296 89.0783 78.4162 91.0748 76.5005C91.0754 76.5 91.0758 76.4994 91.0763 76.4988C93.3013 74.3668 95.2783 72.1859 96.9519 70.0167C96.9521 70.0167 96.9521 70.0166 96.9523 70.0164C96.9525 70.0162 96.9527 70.016 96.9529 70.0158C98.8301 67.5857 100.457 65.1472 101.787 62.7681C101.788 62.7666 101.788 62.765 101.789 62.7634C103.288 60.0861 104.537 57.4394 105.501 54.8972C105.501 54.897 105.501 54.897 105.501 54.8966C105.501 54.8964 105.502 54.8964 105.502 54.896C106.596 52.0158 107.445 49.2033 108.026 46.5365C108.026 46.5359 108.026 46.5355 108.026 46.5349C108.689 43.4964 109.113 40.5632 109.288 37.8164C109.288 37.8142 109.288 37.8123 109.288 37.8103C109.485 34.7283 109.463 31.781 109.224 29.0449Z" fill="#F7BC14"/>
<path d="M56.4241 58.8637C52.0733 58.8639 47.8327 57.3223 44.4583 54.4508C40.2954 50.9082 37.9077 45.7422 37.9077 40.2775V35.1744C37.9077 34.5846 38.1378 34.0299 38.5554 33.6133C38.9716 33.1982 39.5243 32.9697 40.1118 32.9697C40.1138 32.9697 40.1157 32.9697 40.1177 32.9697L53.4786 32.999C54.312 33.0008 54.9862 33.6779 54.9845 34.5115C54.9825 35.3437 54.3071 36.0174 53.4755 36.0174C53.4743 36.0174 53.4731 36.0174 53.472 36.0174L40.9261 35.9898L40.9259 40.2773C40.9259 44.8555 42.9263 49.1836 46.4142 52.1518C49.8753 55.0971 54.4255 56.3711 58.8956 55.6459C59.0507 55.6207 59.2067 55.5943 59.3643 55.5668C60.1862 55.4244 60.9675 55.9721 61.1112 56.793C61.255 57.6141 60.7059 58.3961 59.8851 58.5398C59.7149 58.5695 59.546 58.5982 59.3786 58.6254C58.3944 58.7852 57.4061 58.8637 56.4241 58.8637Z" fill="#FFB125"/>
<path d="M56.4241 58.8637C52.0733 58.8639 47.8327 57.3223 44.4583 54.4508C40.2954 50.9082 37.9077 45.7422 37.9077 40.2775V35.1744C37.9077 34.5846 38.1378 34.0299 38.5554 33.6133C38.9716 33.1982 39.5243 32.9697 40.1118 32.9697C40.1138 32.9697 40.1157 32.9697 40.1177 32.9697L53.4786 32.999C54.312 33.0008 54.9862 33.6779 54.9845 34.5115C54.9825 35.3437 54.3071 36.0174 53.4755 36.0174C53.4743 36.0174 53.4731 36.0174 53.472 36.0174L40.9261 35.9898L40.9259 40.2773C40.9259 44.8555 42.9263 49.1836 46.4142 52.1518C49.8753 55.0971 54.4255 56.3711 58.8956 55.6459C59.0507 55.6207 59.2067 55.5943 59.3643 55.5668C60.1862 55.4244 60.9675 55.9721 61.1112 56.793C61.255 57.6141 60.7059 58.3961 59.8851 58.5398C59.7149 58.5695 59.546 58.5982 59.3786 58.6254C58.3944 58.7852 57.4061 58.8637 56.4241 58.8637Z" fill="url(#paint14_linear)"/>
<path d="M73.5759 58.8645C72.5935 58.8645 71.606 58.7859 70.6212 58.6264C70.4538 58.5992 70.2849 58.5705 70.1148 58.5408C69.2937 58.3971 68.7448 57.6148 68.8886 56.7939C69.0323 55.9729 69.8154 55.425 70.6355 55.5678C70.7929 55.5955 70.9491 55.6219 71.1042 55.6469C75.5753 56.3715 80.1245 55.098 83.5857 52.1527C87.0736 49.1848 89.0739 44.8566 89.0739 40.2783V35.9908L76.5281 36.0184C76.5269 36.0184 76.5257 36.0184 76.5245 36.0184C75.6927 36.0184 75.0173 35.3449 75.0155 34.5125C75.0136 33.6789 75.6878 33.0018 76.5214 33L89.8829 32.9707C89.8849 32.9707 89.8868 32.9707 89.8888 32.9707C90.4759 32.9707 91.0284 33.199 91.4448 33.6143C91.8624 34.0311 92.0925 34.5854 92.0925 35.1754V40.2785C92.0925 45.7432 89.705 50.9092 85.5419 54.4518C82.1675 57.3229 77.9265 58.8645 73.5759 58.8645Z" fill="#FFB125"/>
<path d="M73.5759 58.8645C72.5935 58.8645 71.606 58.7859 70.6212 58.6264C70.4538 58.5992 70.2849 58.5705 70.1148 58.5408C69.2937 58.3971 68.7448 57.6148 68.8886 56.7939C69.0323 55.9729 69.8154 55.425 70.6355 55.5678C70.7929 55.5955 70.9491 55.6219 71.1042 55.6469C75.5753 56.3715 80.1245 55.098 83.5857 52.1527C87.0736 49.1848 89.0739 44.8566 89.0739 40.2783V35.9908L76.5281 36.0184C76.5269 36.0184 76.5257 36.0184 76.5245 36.0184C75.6927 36.0184 75.0173 35.3449 75.0155 34.5125C75.0136 33.6789 75.6878 33.0018 76.5214 33L89.8829 32.9707C89.8849 32.9707 89.8868 32.9707 89.8888 32.9707C90.4759 32.9707 91.0284 33.199 91.4448 33.6143C91.8624 34.0311 92.0925 34.5854 92.0925 35.1754V40.2785C92.0925 45.7432 89.705 50.9092 85.5419 54.4518C82.1675 57.3229 77.9265 58.8645 73.5759 58.8645Z" fill="url(#paint15_linear)"/>
<path d="M55.0771 80.7351H74.9226C66.7021 70.3105 67.56 55.2866 67.56 55.2866H65H62.44C62.44 55.2868 63.2979 70.3106 55.0771 80.7351Z" fill="#FED130"/>
<path d="M55.0771 80.7351H74.9226C66.7021 70.3105 67.56 55.2866 67.56 55.2866H65H62.44C62.44 55.2868 63.2979 70.3106 55.0771 80.7351Z" fill="#FFD43B"/>
<path d="M67.5601 55.2866H65.0001H62.4402C62.4402 55.2866 62.573 57.6192 62.2314 61.0837C61.5802 67.6874 63.2183 74.3491 67.0831 79.7431C67.323 80.0778 67.5714 80.4087 67.8286 80.7349H74.923C66.7023 70.3105 67.5601 55.2866 67.5601 55.2866Z" fill="#F7BC14"/>
<path d="M50.0298 28.645V41.8112C50.0298 49.6007 53.7319 56.9265 60.0032 61.5468C62.9747 63.7358 67.0251 63.7358 69.9966 61.5468C76.2679 56.9267 79.97 49.6007 79.97 41.8112V28.645H50.0298Z" fill="#FFD43B"/>
<path d="M72.8423 28.645V41.8112C72.8423 49.6007 69.1401 56.9265 62.8688 61.5468C62.414 61.8819 61.9337 62.1651 61.436 62.3976C64.1896 63.6841 67.48 63.4009 69.9966 61.5468C76.2679 56.9267 79.97 49.6007 79.97 41.8112V28.645H72.8423Z" fill="#F7BC14"/>
<path d="M81.0428 30.7019H48.9576C48.474 30.7019 48.082 30.31 48.082 29.8264V26.1978C48.082 25.7143 48.474 25.3223 48.9576 25.3223H81.0428C81.5264 25.3223 81.9184 25.7143 81.9184 26.1978V29.8264C81.9182 30.31 81.5262 30.7019 81.0428 30.7019Z" fill="#FFB125"/>
<path d="M81.0424 25.3223H74.79V30.7018H81.0424C81.526 30.7018 81.9178 30.3098 81.9178 29.8262V26.1977C81.9178 25.7143 81.5258 25.3223 81.0424 25.3223Z" fill="#FF901D"/>
<path d="M81.0424 25.3223H74.79V30.7018H81.0424C81.526 30.7018 81.9178 30.3098 81.9178 29.8262V26.1977C81.9178 25.7143 81.5258 25.3223 81.0424 25.3223Z" fill="url(#paint16_linear)"/>
<path d="M82.0242 87.0976H48.1102C47.6186 87.0976 47.2774 86.6079 47.4477 86.1468L49.9662 79.3226C50.0686 79.045 50.333 78.8608 50.6287 78.8608H79.5057C79.8014 78.8608 80.0658 79.045 80.1682 79.3226L82.6867 86.1468C82.8571 86.6079 82.5158 87.0976 82.0242 87.0976Z" fill="#FFB125"/>
<path d="M82.6868 86.1468L80.1683 79.3226C80.0657 79.045 79.8015 78.8608 79.5056 78.8608H72.6177L75.6575 87.0976H82.0241C82.5157 87.0976 82.8569 86.6079 82.6868 86.1468Z" fill="#FF901D"/>
<path d="M82.6868 86.1468L80.1683 79.3226C80.0657 79.045 79.8015 78.8608 79.5056 78.8608H72.6177L75.6575 87.0976H82.0241C82.5157 87.0976 82.8569 86.6079 82.6868 86.1468Z" fill="url(#paint17_linear)"/>
</g>
<defs>
<filter id="filter0_dd" x="0" y="0" width="135" height="107.098" filterUnits="userSpaceOnUse" color-interpolation-filters="sRGB">
<feFlood flood-opacity="0" result="BackgroundImageFix"/>
<feColorMatrix in="SourceAlpha" type="matrix" values="0 0 0 0 0 0 0 0 0 0 0 0 0 0 0 0 0 0 127 0"/>
<feOffset dx="5" dy="5"/>
<feGaussianBlur stdDeviation="7.5"/>
<feColorMatrix type="matrix" values="0 0 0 0 0 0 0 0 0 0 0 0 0 0 0 0 0 0 0.9 0"/>
<feBlend mode="normal" in2="BackgroundImageFix" result="effect1_dropShadow"/>
<feColorMatrix in="SourceAlpha" type="matrix" values="0 0 0 0 0 0 0 0 0 0 0 0 0 0 0 0 0 0 127 0"/>
<feOffset dx="-5" dy="-5"/>
<feGaussianBlur stdDeviation="5"/>
<feColorMatrix type="matrix" values="0 0 0 0 1 0 0 0 0 1 0 0 0 0 1 0 0 0 0.09 0"/>
<feBlend mode="normal" in2="effect1_dropShadow" result="effect2_dropShadow"/>
<feBlend mode="normal" in="SourceGraphic" in2="effect2_dropShadow" result="shape"/>
</filter>
<linearGradient id="paint0_linear" x1="31.7121" y1="25.3256" x2="0.148423" y2="20.4735" gradientUnits="userSpaceOnUse">
<stop stop-color="#FFD43B"/>
<stop offset="0.526042" stop-color="#EB2163"/>
<stop offset="1" stop-color="#950552"/>
</linearGradient>
<linearGradient id="paint1_linear" x1="24.5558" y1="32.3748" x2="-6.59457" y2="28.1762" gradientUnits="userSpaceOnUse">
<stop stop-color="#FFD43B"/>
<stop offset="0.526042" stop-color="#EB2163"/>
<stop offset="1" stop-color="#950552"/>
</linearGradient>
<linearGradient id="paint2_linear" x1="30.1746" y1="41.0811" x2="7.72521" y2="38.8294" gradientUnits="userSpaceOnUse">
<stop stop-color="#FFD43B"/>
<stop offset="0.526042" stop-color="#EB2163"/>
<stop offset="1" stop-color="#950552"/>
</linearGradient>
<linearGradient id="paint3_linear" x1="31.3303" y1="50.8445" x2="-14.9485" y2="38.8522" gradientUnits="userSpaceOnUse">
<stop stop-color="#FFD43B"/>
<stop offset="0.526042" stop-color="#EB2163"/>
<stop offset="1" stop-color="#950552"/>
</linearGradient>
<linearGradient id="paint4_linear" x1="35.4631" y1="55.7975" x2="15.629" y2="54.0512" gradientUnits="userSpaceOnUse">
<stop stop-color="#FFD43B"/>
<stop offset="0.526042" stop-color="#EB2163"/>
<stop offset="1" stop-color="#950552"/>
</linearGradient>
<linearGradient id="paint5_linear" x1="42.311" y1="67.5624" x2="-9.41144" y2="43.5878" gradientUnits="userSpaceOnUse">
<stop stop-color="#FFD43B"/>
<stop offset="0.526042" stop-color="#EB2163"/>
<stop offset="1" stop-color="#950552"/>
</linearGradient>
<linearGradient id="paint6_linear" x1="47.66" y1="68.5014" x2="20.3561" y2="64.9129" gradientUnits="userSpaceOnUse">
<stop stop-color="#FFD43B"/>
<stop offset="0.526042" stop-color="#EB2163"/>
<stop offset="1" stop-color="#950552"/>
</linearGradient>
<linearGradient id="paint7_linear" x1="109.258" y1="25.3256" x2="77.6943" y2="20.4734" gradientUnits="userSpaceOnUse">
<stop stop-color="#FFD43B"/>
<stop offset="0.526042" stop-color="#EB2163"/>
<stop offset="1" stop-color="#950552"/>
</linearGradient>
<linearGradient id="paint8_linear" x1="116.213" y1="32.3748" x2="85.0621" y2="28.1761" gradientUnits="userSpaceOnUse">
<stop stop-color="#FFD43B"/>
<stop offset="0.526042" stop-color="#EB2163"/>
<stop offset="1" stop-color="#950552"/>
</linearGradient>
<linearGradient id="paint9_linear" x1="107.525" y1="41.0811" x2="85.0753" y2="38.8294" gradientUnits="userSpaceOnUse">
<stop stop-color="#FFD43B"/>
<stop offset="0.526042" stop-color="#EB2163"/>
<stop offset="1" stop-color="#950552"/>
</linearGradient>
<linearGradient id="paint10_linear" x1="115.438" y1="50.8445" x2="69.1589" y2="38.8522" gradientUnits="userSpaceOnUse">
<stop stop-color="#FFD43B"/>
<stop offset="0.526042" stop-color="#EB2163"/>
<stop offset="1" stop-color="#950552"/>
</linearGradient>
<linearGradient id="paint11_linear" x1="101.323" y1="55.7975" x2="81.4893" y2="54.0512" gradientUnits="userSpaceOnUse">
<stop stop-color="#FFD43B"/>
<stop offset="0.526042" stop-color="#EB2163"/>
<stop offset="1" stop-color="#950552"/>
</linearGradient>
<linearGradient id="paint12_linear" x1="109.023" y1="67.5624" x2="57.301" y2="43.5878" gradientUnits="userSpaceOnUse">
<stop stop-color="#FFD43B"/>
<stop offset="0.526042" stop-color="#EB2163"/>
<stop offset="1" stop-color="#950552"/>
</linearGradient>
<linearGradient id="paint13_linear" x1="91.7708" y1="68.5014" x2="64.467" y2="64.9129" gradientUnits="userSpaceOnUse">
<stop stop-color="#FFD43B"/>
<stop offset="0.526042" stop-color="#EB2163"/>
<stop offset="1" stop-color="#950552"/>
</linearGradient>
<linearGradient id="paint14_linear" x1="64.5105" y1="38.8918" x2="-18.2761" y2="17.5344" gradientUnits="userSpaceOnUse">
<stop stop-color="#FFD43B"/>
<stop offset="0.526042" stop-color="#EB2163"/>
<stop offset="1" stop-color="#950552"/>
</linearGradient>
<linearGradient id="paint15_linear" x1="95.469" y1="38.8927" x2="12.6812" y2="17.5345" gradientUnits="userSpaceOnUse">
<stop stop-color="#FFD43B"/>
<stop offset="0.526042" stop-color="#EB2163"/>
<stop offset="1" stop-color="#950552"/>
</linearGradient>
<linearGradient id="paint16_linear" x1="70" y1="25" x2="93.7435" y2="42.351" gradientUnits="userSpaceOnUse">
<stop stop-color="#FFD43B"/>
<stop offset="0.526042" stop-color="#EB2163"/>
<stop offset="1" stop-color="#950552"/>
</linearGradient>
<linearGradient id="paint17_linear" x1="65.8212" y1="78.3674" x2="101.253" y2="102.362" gradientUnits="userSpaceOnUse">
<stop stop-color="#FFD43B"/>
<stop offset="0.526042" stop-color="#EB2163"/>
<stop offset="1" stop-color="#950552"/>
</linearGradient>
</defs>
</svg>
