<svg width="104" height="145" viewBox="0 0 104 145" fill="none" xmlns="http://www.w3.org/2000/svg">
<g filter="url(#filter0_dd)">
<path d="M78.3043 57.2062C77.815 56.1934 76.7908 55.5469 75.6635 55.5469H56.9666L72.4248 24.24C72.8797 23.333 72.831 22.2545 72.2961 21.3904C71.7611 20.5264 70.8199 20 69.8043 20H49.2965H34.648C33.3033 20 32.1332 20.9156 31.807 22.2201L20.0883 69.4857C19.868 70.3611 20.0654 71.2883 20.6205 71.9977C21.1756 72.71 22.0281 73.1248 22.9293 73.1248H36.7537L25.9476 116.361C25.6129 117.697 26.2537 119.084 27.4898 119.696C28.7476 120.312 30.226 119.962 31.0775 118.901L49.2965 96.1273L77.9525 60.3074C78.6562 59.4264 78.7906 58.2219 78.3043 57.2062Z" fill="#FED843"/>
<path d="M78.3043 57.2062C77.815 56.1934 76.7908 55.5469 75.6635 55.5469H56.9666L72.4248 24.24C72.8797 23.333 72.831 22.2545 72.2961 21.3904C71.7611 20.5264 70.8199 20 69.8043 20H49.2965H34.648C33.3033 20 32.1332 20.9156 31.807 22.2201L20.0883 69.4857C19.868 70.3611 20.0654 71.2883 20.6205 71.9977C21.1756 72.71 22.0281 73.1248 22.9293 73.1248H36.7537L25.9476 116.361C25.6129 117.697 26.2537 119.084 27.4898 119.696C28.7476 120.312 30.226 119.962 31.0775 118.901L49.2965 96.1273L77.9525 60.3074C78.6562 59.4264 78.7906 58.2219 78.3043 57.2062Z" fill="#FFD43B"/>
<path d="M78.3042 57.2062C77.8149 56.1934 76.7907 55.5469 75.6634 55.5469H56.9665L72.4247 24.24C72.8796 23.333 72.8309 22.2545 72.296 21.3904C71.761 20.5264 70.8198 20 69.8042 20H49.2964V96.1275L77.9524 60.3076C78.6561 59.4264 78.7905 58.2219 78.3042 57.2062Z" fill="#FABE2C"/>
<path d="M78.3042 57.2062C77.8149 56.1934 76.7907 55.5469 75.6634 55.5469H56.9665L72.4247 24.24C72.8796 23.333 72.8309 22.2545 72.296 21.3904C71.761 20.5264 70.8198 20 69.8042 20H49.2964V96.1275L77.9524 60.3076C78.6561 59.4264 78.7905 58.2219 78.3042 57.2062Z" fill="#FDCE26"/>
</g>
<defs>
<filter id="filter0_dd" x="0" y="0" width="103.593" height="145" filterUnits="userSpaceOnUse" color-interpolation-filters="sRGB">
<feFlood flood-opacity="0" result="BackgroundImageFix"/>
<feColorMatrix in="SourceAlpha" type="matrix" values="0 0 0 0 0 0 0 0 0 0 0 0 0 0 0 0 0 0 127 0"/>
<feOffset dx="5" dy="5"/>
<feGaussianBlur stdDeviation="10"/>
<feColorMatrix type="matrix" values="0 0 0 0 0 0 0 0 0 0 0 0 0 0 0 0 0 0 0.9 0"/>
<feBlend mode="normal" in2="BackgroundImageFix" result="effect1_dropShadow"/>
<feColorMatrix in="SourceAlpha" type="matrix" values="0 0 0 0 0 0 0 0 0 0 0 0 0 0 0 0 0 0 127 0"/>
<feOffset dx="-5" dy="-5"/>
<feGaussianBlur stdDeviation="7.5"/>
<feColorMatrix type="matrix" values="0 0 0 0 1 0 0 0 0 1 0 0 0 0 1 0 0 0 0.08 0"/>
<feBlend mode="normal" in2="effect1_dropShadow" result="effect2_dropShadow"/>
<feBlend mode="normal" in="SourceGraphic" in2="effect2_dropShadow" result="shape"/>
</filter>
</defs>
</svg>
