<svg width="112" height="145" viewBox="0 0 112 145" fill="none" xmlns="http://www.w3.org/2000/svg">
<g filter="url(#filter0_dd)">
<path d="M86.3713 109.816V118.276C86.3713 119.229 85.5998 120 84.6474 120H21.7239C20.7715 120 20 119.229 20 118.276V109.816C20 100.94 27.1953 93.7489 36.0735 93.7467C39.211 93.7446 41.9736 92.1305 43.564 89.6826C45.1616 87.2272 44.997 85.0922 44.997 83.3665L45.0293 83.2868C37.2932 80.0846 31.852 72.4627 31.852 63.5693V62.8948C28.7802 62.8948 26.4647 60.4673 26.4647 57.6067V48.6509C26.3958 45.5327 26.538 34.5362 34.481 26.8798C43.717 17.9778 58.3531 18.7062 68.9553 23.4686C69.3001 23.6237 69.2893 24.1172 68.9402 24.2616L66.1755 25.3994C65.7617 25.5696 65.8501 26.1794 66.294 26.2269L67.6365 26.3712C74.0646 27.0586 80.0359 30.5496 83.738 36.3593C83.8371 36.5166 83.8091 36.7558 83.682 36.8915C81.3978 39.3072 80.122 42.5137 80.122 45.8473V57.6067C80.122 60.5266 77.7538 62.8948 74.8339 62.8948H74.5193V63.5693C74.5193 72.4627 69.0781 80.0846 61.342 83.2868L61.3743 83.3665C61.3743 85.0424 61.1961 87.2066 62.8073 89.6826C64.3977 92.1305 67.1602 93.7446 70.2978 93.7467C79.176 93.7489 86.3713 100.94 86.3713 109.816Z" fill="#FFDFBA"/>
<path d="M86.3713 109.816V118.276C86.3713 119.228 85.5994 120 84.6474 120H21.7239C20.7719 120 20 119.228 20 118.276V109.816C20 100.94 27.1963 93.75 36.0724 93.7468C39.2108 93.7457 41.9741 92.1297 43.564 89.6826C49.1137 94.4239 57.2543 94.4267 62.8073 89.6826C64.397 92.1297 67.1605 93.7457 70.2989 93.7468C79.175 93.75 86.3713 100.94 86.3713 109.816Z" fill="#EB2163"/>
<path d="M83.7367 36.3607C83.8367 36.5178 83.8087 36.7557 83.6809 36.891C81.3974 39.3084 80.1217 42.5138 80.1217 45.8477V57.6071C80.1217 60.2766 78.1105 62.8952 74.5189 62.8952V49.5843C74.5189 43.8716 69.888 39.2407 64.1753 39.2407H42.1952C36.4825 39.2407 31.8516 43.8716 31.8516 49.5843V62.8952C28.7798 62.8952 26.4643 60.4677 26.4643 57.6071V48.6512C26.3954 45.5331 26.5376 34.5366 34.4806 26.8802C43.7159 17.978 58.3536 18.7068 68.954 23.4696C69.2988 23.6245 69.2898 24.1182 68.94 24.2622L66.1751 25.4004C65.7618 25.5706 65.8488 26.1798 66.2932 26.2274L67.6361 26.3716C74.0653 27.0584 80.035 30.5493 83.7367 36.3607Z" fill="#42434D"/>
<path d="M83.7367 36.3607C83.8367 36.5178 83.8087 36.7557 83.6809 36.891C81.3974 39.3084 80.1217 42.5138 80.1217 45.8477V57.6071C80.1217 60.2766 78.1105 62.8952 74.5189 62.8952V49.5843C74.5189 43.8716 69.888 39.2407 64.1753 39.2407H42.1952C36.4825 39.2407 31.8516 43.8716 31.8516 49.5843V62.8952C28.7798 62.8952 26.4643 60.4677 26.4643 57.6071V48.6512C26.3954 45.5331 26.5376 34.5366 34.4806 26.8802C43.7159 17.978 58.3536 18.7068 68.954 23.4696C69.2988 23.6245 69.2898 24.1182 68.94 24.2622L66.1751 25.4004C65.7618 25.5706 65.8488 26.1798 66.2932 26.2274L67.6361 26.3716C74.0653 27.0584 80.035 30.5493 83.7367 36.3607Z" fill="#950552"/>
<path d="M74.5188 63.5692C74.5188 75.3557 64.9622 84.9028 53.1852 84.9028C42.0891 84.9028 31.8516 76.2765 31.8516 62.8947V49.5838C31.8516 43.8711 36.4825 39.2402 42.1951 39.2402H64.1752C69.8879 39.2402 74.5188 43.8711 74.5188 49.5838V63.5692Z" fill="#FFEBD2"/>
<path d="M70.6404 116.337H65.4686C64.5165 116.337 63.7446 115.565 63.7446 114.613C63.7446 113.661 64.5165 112.889 65.4686 112.889H70.6404C71.5924 112.889 72.3643 113.661 72.3643 114.613C72.3643 115.565 71.5926 116.337 70.6404 116.337Z" fill="#FFD43B"/>
<path d="M48.3547 77.3456C51.8623 79.54 49.0965 84.9214 45.2568 83.3802C37.3625 80.2117 31.8516 72.5186 31.8516 63.5697V49.5843C31.8516 47.4113 32.5217 45.3947 33.6664 43.7299C35.0701 41.6885 38.3163 42.5903 38.3163 45.2745V59.2599C38.3163 67.1275 42.452 73.6525 48.3547 77.3456Z" fill="#FFF3E4"/>
<path d="M61.6178 86.9047C56.3087 89.1271 50.4743 89.2995 44.7534 86.9047C45.0456 85.6924 44.9969 84.9071 44.9969 83.3664L45.0292 83.2866C50.2187 85.4407 56.1423 85.445 61.3419 83.2866L61.3743 83.3664C61.3743 84.9078 61.3256 85.6928 61.6178 86.9047Z" fill="#FFD6A6"/>
<path d="M44.7561 98.9524C43.9592 99.203 43.1045 99.3411 42.1883 99.3491C33.2893 99.4276 26.0338 106.464 26.0338 115.363V116.983C26.0338 118.649 24.6831 120 23.0169 120H21.7239C20.7719 120 20 119.228 20 118.276V109.816C20 100.94 27.1963 93.75 36.0724 93.7468C39.2108 93.7457 41.9741 92.1297 43.564 89.6826C44.2048 90.23 44.891 90.7219 45.6137 91.1527C48.7929 93.0471 48.2862 97.8424 44.7561 98.9524Z" fill="#FF6D7A"/>
<path d="M44.7561 98.9524C43.9592 99.203 43.1045 99.3411 42.1883 99.3491C33.2893 99.4276 26.0338 106.464 26.0338 115.363V116.983C26.0338 118.649 24.6831 120 23.0169 120H21.7239C20.7719 120 20 119.228 20 118.276V109.816C20 100.94 27.1963 93.75 36.0724 93.7468C39.2108 93.7457 41.9741 92.1297 43.564 89.6826C44.2048 90.23 44.891 90.7219 45.6137 91.1527C48.7929 93.0471 48.2862 97.8424 44.7561 98.9524Z" fill="url(#paint0_linear)"/>
<path d="M61.6152 98.9524C62.4121 99.203 63.2667 99.3411 64.183 99.3491C73.0819 99.4276 80.3375 106.464 80.3375 115.363V116.983C80.3375 118.649 81.6882 120 83.3544 120H84.6473C85.5994 120 86.3713 119.228 86.3713 118.276V109.816C86.3713 100.94 79.1749 93.75 70.2988 93.7468C67.1604 93.7457 64.3972 92.1297 62.8073 89.6826C62.1664 90.23 61.4803 90.7219 60.7575 91.1527C57.5786 93.0471 58.085 97.8424 61.6152 98.9524Z" fill="#E84857"/>
<path d="M61.6152 98.9524C62.4121 99.203 63.2667 99.3411 64.183 99.3491C73.0819 99.4276 80.3375 106.464 80.3375 115.363V116.983C80.3375 118.649 81.6882 120 83.3544 120H84.6473C85.5994 120 86.3713 119.228 86.3713 118.276V109.816C86.3713 100.94 79.1749 93.75 70.2988 93.7468C67.1604 93.7457 64.3972 92.1297 62.8073 89.6826C62.1664 90.23 61.4803 90.7219 60.7575 91.1527C57.5786 93.0471 58.085 97.8424 61.6152 98.9524Z" fill="url(#paint1_linear)"/>
<path d="M68.9398 24.2616C66.4061 25.3043 66.0449 25.5343 65.167 25.3981C51.0148 23.2044 38.5982 29.0599 34.3815 42.8067V42.8089C32.8041 44.6233 31.8516 46.9937 31.8516 49.5839V57.6698C31.8516 61.1582 26.4643 61.4011 26.4643 57.6067V48.6509C26.3954 45.5327 26.5376 34.5362 34.4806 26.8798C43.7166 17.9778 58.3527 18.7062 68.9549 23.4686C69.2997 23.6237 69.2889 24.1172 68.9398 24.2616Z" fill="#4D4E59"/>
<path d="M68.9398 24.2616C66.4061 25.3043 66.0449 25.5343 65.167 25.3981C51.0148 23.2044 38.5982 29.0599 34.3815 42.8067V42.8089C32.8041 44.6233 31.8516 46.9937 31.8516 49.5839V57.6698C31.8516 61.1582 26.4643 61.4011 26.4643 57.6067V48.6509C26.3954 45.5327 26.5376 34.5362 34.4806 26.8798C43.7166 17.9778 58.3527 18.7062 68.9549 23.4686C69.2997 23.6237 69.2889 24.1172 68.9398 24.2616Z" fill="#B70262"/>
</g>
<defs>
<filter id="filter0_dd" x="0" y="0" width="111.371" height="145" filterUnits="userSpaceOnUse" color-interpolation-filters="sRGB">
<feFlood flood-opacity="0" result="BackgroundImageFix"/>
<feColorMatrix in="SourceAlpha" type="matrix" values="0 0 0 0 0 0 0 0 0 0 0 0 0 0 0 0 0 0 127 0"/>
<feOffset dx="5" dy="5"/>
<feGaussianBlur stdDeviation="10"/>
<feColorMatrix type="matrix" values="0 0 0 0 0 0 0 0 0 0 0 0 0 0 0 0 0 0 0.9 0"/>
<feBlend mode="normal" in2="BackgroundImageFix" result="effect1_dropShadow"/>
<feColorMatrix in="SourceAlpha" type="matrix" values="0 0 0 0 0 0 0 0 0 0 0 0 0 0 0 0 0 0 127 0"/>
<feOffset dx="-5" dy="-5"/>
<feGaussianBlur stdDeviation="7.5"/>
<feColorMatrix type="matrix" values="0 0 0 0 1 0 0 0 0 1 0 0 0 0 1 0 0 0 0.08 0"/>
<feBlend mode="normal" in2="effect1_dropShadow" result="effect2_dropShadow"/>
<feBlend mode="normal" in="SourceGraphic" in2="effect2_dropShadow" result="shape"/>
</filter>
<linearGradient id="paint0_linear" x1="-1.5" y1="88" x2="53.4699" y2="124.967" gradientUnits="userSpaceOnUse">
<stop stop-color="#FFD43B"/>
<stop offset="0.526042" stop-color="#EB2163"/>
<stop offset="1" stop-color="#950552"/>
</linearGradient>
<linearGradient id="paint1_linear" x1="198" y1="49.5" x2="53.4427" y2="87.212" gradientUnits="userSpaceOnUse">
<stop stop-color="#FFD43B"/>
<stop offset="0.526042" stop-color="#EB2163"/>
<stop offset="1" stop-color="#950552"/>
</linearGradient>
</defs>
</svg>
