<svg width="122" height="145" viewBox="0 0 122 145" fill="none" xmlns="http://www.w3.org/2000/svg">
<g filter="url(#filter0_dd)">
<path d="M84.4533 46.3672C84.4533 51.5353 82.9243 57.9493 80.3731 63.9453L58.0861 66.2478C33.4981 63.7072 35.9761 63.9636 35.7991 63.9453C33.2478 57.9493 31.7189 51.5353 31.7189 46.3672C32.021 46.3473 28.381 46.5854 58.0861 44.6406L84.4533 46.3672Z" fill="#575F64"/>
<path d="M84.4533 46.3672C84.4533 51.5353 82.9243 57.9493 80.3731 63.9453L58.0861 66.2478C33.4981 63.7072 35.9761 63.9636 35.7991 63.9453C33.2478 57.9493 31.7189 51.5353 31.7189 46.3672C32.021 46.3473 28.381 46.5854 58.0861 44.6406L84.4533 46.3672Z" fill="#950552"/>
<path d="M84.4533 46.3672C84.4533 51.5353 82.9243 57.9493 80.3731 63.9453L58.0861 66.2478C33.4981 63.7072 35.9761 63.9636 35.7991 63.9453C33.2478 57.9493 31.7189 51.5353 31.7189 46.3672C32.021 46.3473 28.381 46.5854 58.0861 44.6406L84.4533 46.3672Z" fill="#EB2163"/>
<path d="M84.4531 46.3672C84.4531 51.5353 82.9242 57.9493 80.3729 63.9453L58.0859 66.2478V44.6406L84.4531 46.3672Z" fill="#474F54"/>
<path d="M84.4531 46.3672C84.4531 51.5353 82.9242 57.9493 80.3729 63.9453L58.0859 66.2478V44.6406L84.4531 46.3672Z" fill="#950552"/>
<path d="M84.9414 99.4922L81.5234 120H34.6484L30.6445 99.4922L40.5078 84.8438H75.6641L84.9414 99.4922Z" fill="#0095FF"/>
<path d="M84.9414 99.4922L81.5234 120H34.6484L30.6445 99.4922L40.5078 84.8438H75.6641L84.9414 99.4922Z" fill="url(#paint0_linear)"/>
<path d="M81.5234 99.4922V120H58.0859V84.8438H75.6641V93.6328C75.6641 96.8692 78.287 99.4922 81.5234 99.4922Z" fill="#006EFF"/>
<path d="M81.5234 99.4922V120H58.0859V84.8438H75.6641V93.6328C75.6641 96.8692 78.287 99.4922 81.5234 99.4922Z" fill="url(#paint1_linear)"/>
<path d="M72.7344 75.4048V81.9142C72.7344 89.9907 66.1639 96.5626 58.0859 96.5626C50.0079 96.5626 43.4375 89.9907 43.4375 81.9142V75.4048H72.7344Z" fill="#4BB9EC"/>
<path d="M72.7344 75.4048V81.9142C72.7344 89.9907 66.1639 96.5626 58.0859 96.5626C50.0079 96.5626 43.4375 89.9907 43.4375 81.9142V75.4048H72.7344Z" fill="#23FFFF"/>
<path d="M72.7344 75.4048V81.9142C72.7344 89.9907 66.1639 96.5626 58.0859 96.5626V75.4048H72.7344Z" fill="#0095FF"/>
<path d="M72.7344 75.4048V81.9142C72.7344 89.9907 66.1639 96.5626 58.0859 96.5626V75.4048H72.7344Z" fill="url(#paint2_linear)"/>
<path d="M20 99.4922V120H34.6484V99.4922L27.3242 97.5391L20 99.4922Z" fill="#4BB9EC"/>
<path d="M20 99.4922V120H34.6484V99.4922L27.3242 97.5391L20 99.4922Z" fill="#23FFFF"/>
<path d="M40.5078 93.6328V84.8438H34.6484C26.5712 84.8438 20 91.4149 20 99.4922H34.6484C37.8848 99.4922 40.5078 96.8684 40.5078 93.6328Z" fill="#575F64"/>
<path d="M81.5234 120H96.1719V99.4922L88.8477 97.7344L81.5234 99.4922V120Z" fill="#0095FF"/>
<path d="M81.5234 120H96.1719V99.4922L88.8477 97.7344L81.5234 99.4922V120Z" fill="url(#paint3_linear)"/>
<path d="M81.5234 84.8438H75.6641V93.6328C75.6641 96.8684 78.287 99.4922 81.5234 99.4922H96.1719C96.1719 91.4149 89.6007 84.8438 81.5234 84.8438Z" fill="#474F54"/>
<path d="M80.3728 63.9453C79.4374 66.1449 78.3647 68.2872 77.1799 70.2907C71.7791 79.4238 64.998 84.4531 58.0858 84.4531C51.1736 84.4531 44.3926 79.4238 38.9917 70.2907C37.8069 68.2872 36.7342 66.1449 35.7988 63.9453H80.3728Z" fill="#E7E7F2"/>
<path d="M80.3729 63.9453C79.4376 66.1449 78.3649 68.2872 77.18 70.2907C71.7792 79.4238 64.9982 84.4531 58.0859 84.4531V63.9453H80.3729Z" fill="#CECEE6"/>
<path d="M84.4531 46.3672H66.875L64.1406 43.9746L61.0156 46.3672H55.1562L52.2266 44.2188L49.2969 46.3672H31.7188C31.7188 34.9124 39.0643 25.1346 49.2969 21.506L53.0078 23.8086L55.1562 20.1617C56.1176 20.0549 57.0956 20 58.0859 20C59.0762 20 60.0543 20.0549 61.0156 20.1617L63.9453 23.3203L66.875 21.506C77.1037 25.1331 84.4531 34.904 84.4531 46.3672Z" fill="#E7E7F2"/>
<path d="M84.4531 46.3672H66.875L64.1406 43.9746L61.0156 46.3672H58.0859V20C59.0762 20 60.0543 20.0549 61.0156 20.1617L63.9453 23.3203L66.875 21.506C77.1037 25.1331 84.4531 34.904 84.4531 46.3672Z" fill="#CECEE6"/>
<path d="M55.1562 20.1616V46.3671H49.2969V21.5059C51.1623 20.8437 53.1253 20.3867 55.1562 20.1616Z" fill="#FF637B"/>
<path d="M55.1562 20.1616V46.3671H49.2969V21.5059C51.1623 20.8437 53.1253 20.3867 55.1562 20.1616Z" fill="#EB2163"/>
<path d="M66.875 21.5059V46.3671H61.0156V20.1616C63.0466 20.3867 65.0096 20.8437 66.875 21.5059Z" fill="#950552"/>
</g>
<defs>
<filter id="filter0_dd" x="0" y="0" width="121.172" height="145" filterUnits="userSpaceOnUse" color-interpolation-filters="sRGB">
<feFlood flood-opacity="0" result="BackgroundImageFix"/>
<feColorMatrix in="SourceAlpha" type="matrix" values="0 0 0 0 0 0 0 0 0 0 0 0 0 0 0 0 0 0 127 0"/>
<feOffset dx="5" dy="5"/>
<feGaussianBlur stdDeviation="10"/>
<feColorMatrix type="matrix" values="0 0 0 0 0 0 0 0 0 0 0 0 0 0 0 0 0 0 0.9 0"/>
<feBlend mode="normal" in2="BackgroundImageFix" result="effect1_dropShadow"/>
<feColorMatrix in="SourceAlpha" type="matrix" values="0 0 0 0 0 0 0 0 0 0 0 0 0 0 0 0 0 0 127 0"/>
<feOffset dx="-5" dy="-5"/>
<feGaussianBlur stdDeviation="7.5"/>
<feColorMatrix type="matrix" values="0 0 0 0 1 0 0 0 0 1 0 0 0 0 1 0 0 0 0.08 0"/>
<feBlend mode="normal" in2="effect1_dropShadow" result="effect2_dropShadow"/>
<feBlend mode="normal" in="SourceGraphic" in2="effect2_dropShadow" result="shape"/>
</filter>
<linearGradient id="paint0_linear" x1="175.788" y1="73.2878" x2="32.0512" y2="68.3804" gradientUnits="userSpaceOnUse">
<stop stop-color="#2B16F7"/>
<stop offset="0.0001" stop-color="#2B16F7"/>
<stop offset="1" stop-color="#23FFFF"/>
</linearGradient>
<linearGradient id="paint1_linear" x1="120.738" y1="73.2878" x2="17.6948" y2="46.2593" gradientUnits="userSpaceOnUse">
<stop stop-color="#2B16F7"/>
<stop offset="0.0001" stop-color="#2B16F7"/>
<stop offset="1" stop-color="#23FFFF"/>
</linearGradient>
<linearGradient id="paint2_linear" x1="97.2434" y1="68.4501" x2="33.1653" y2="50.995" gradientUnits="userSpaceOnUse">
<stop stop-color="#2B16F7"/>
<stop offset="0.0001" stop-color="#2B16F7"/>
<stop offset="1" stop-color="#23FFFF"/>
</linearGradient>
<linearGradient id="paint3_linear" x1="120.681" y1="90.4156" x2="56.1704" y2="73.717" gradientUnits="userSpaceOnUse">
<stop stop-color="#2B16F7"/>
<stop offset="0.0001" stop-color="#2B16F7"/>
<stop offset="1" stop-color="#23FFFF"/>
</linearGradient>
</defs>
</svg>
