<svg width="24" height="22" viewBox="0 0 24 22" fill="none" xmlns="http://www.w3.org/2000/svg">
<path d="M14.9847 7.04206C15.0337 7.19469 15.121 7.33367 15.239 7.44704C15.3571 7.5604 15.5023 7.64474 15.6623 7.69277C15.7686 7.72472 15.8796 7.74011 15.991 7.73837L22.9497 7.58769C23.1703 7.58428 23.3864 7.64729 23.5672 7.76772C23.7474 7.88943 23.8816 8.06318 23.9498 8.26318C24.018 8.46318 24.0167 8.67879 23.946 8.87801C23.874 9.07647 23.7381 9.24826 23.5576 9.36892L17.8344 13.1392C17.743 13.1999 17.6626 13.2745 17.5965 13.36C17.4602 13.5308 17.3888 13.7405 17.394 13.9548C17.3947 14.0611 17.4135 14.1665 17.4498 14.2669L19.7512 20.5183C19.8229 20.7168 19.8267 20.9318 19.762 21.1325C19.6964 21.3331 19.5644 21.5082 19.3858 21.6317C19.2072 21.7552 18.9915 21.8206 18.7707 21.8181C18.5504 21.815 18.3367 21.7456 18.1603 21.6198L12.6229 17.6034C12.5339 17.5392 12.4344 17.4895 12.3283 17.4562C12.1162 17.386 11.8854 17.386 11.6733 17.4562C11.5673 17.4895 11.4677 17.5392 11.3787 17.6034L5.84055 21.6183C5.66414 21.744 5.45046 21.8134 5.2301 21.8165C5.00933 21.819 4.7936 21.7537 4.615 21.6301C4.4364 21.5066 4.30446 21.3315 4.2388 21.1309C4.17415 20.9302 4.17795 20.7152 4.24964 20.5167L6.551 14.2637C6.5873 14.1633 6.60615 14.0579 6.60683 13.9517C6.61201 13.7373 6.54062 13.5276 6.40432 13.3569C6.33822 13.2714 6.25785 13.1968 6.16639 13.136L0.442376 9.36773C0.261858 9.24707 0.125954 9.07528 0.0540242 8.87682C-0.0166805 8.6776 -0.0180173 8.46199 0.0502123 8.26199C0.118442 8.06199 0.252603 7.88824 0.432792 7.76653C0.613561 7.6461 0.829687 7.58309 1.05032 7.5865L8.00898 7.73719C8.12043 7.73892 8.23145 7.72352 8.33775 7.69158C8.49767 7.64355 8.64292 7.55921 8.76095 7.44585C8.87899 7.33249 8.96627 7.1935 9.01528 7.04087L11.0154 0.696324C11.0801 0.495672 11.2098 0.319579 11.3858 0.193122C11.563 0.0677213 11.7779 0 11.9988 0C12.2196 0 12.4345 0.0677213 12.6117 0.193122C12.7877 0.319579 12.9174 0.495672 12.9821 0.696324L14.9847 7.04206Z" fill="white"/>
</svg>
