<svg width="28" height="40" viewBox="0 0 28 40" fill="none" xmlns="http://www.w3.org/2000/svg">
<path d="M23.7491 13.4267C23.7491 16.7483 21.1859 18.0827 21.1859 18.0827C21.1859 18.0827 22.695 6.73627 10.8266 0C11.2001 13.7317 0 15.1104 0 26.7373C0 32.7837 3.87419 37.9296 9.28802 39.8541C9.38883 39.8899 9.49017 39.9251 9.59204 39.9587C7.30495 38.5155 5.78675 35.9744 5.78675 33.0808C5.78675 30.7867 6.45376 28.0928 8.27115 25.3011C7.82451 29.8939 11.0459 30.9189 11.0459 30.9189C11.0459 30.9189 9.29366 22.4147 15.7321 17.4536C15.7895 25.2965 22.1519 26.2853 22.1519 33.0808C22.1519 36.0024 20.6044 38.5643 18.2803 40C18.4275 39.9531 18.5734 39.9032 18.7187 39.8515C24.129 37.9251 28.0003 32.7811 28.0003 26.7373C28 22.8123 26.7014 18.2032 23.7491 13.4267Z" fill="#00D1FF"/>
</svg>
