<svg width="22" height="22" viewBox="0 0 22 22" fill="none" xmlns="http://www.w3.org/2000/svg">
<g opacity="0.4">
<path d="M7.79102 0.917969H3.20768C1.94203 0.917969 0.916016 1.94398 0.916016 3.20964V5.04297C0.916016 6.30862 1.94203 7.33464 3.20768 7.33464H7.79102C9.05667 7.33464 10.0827 6.30862 10.0827 5.04297V3.20964C10.0827 1.94398 9.05667 0.917969 7.79102 0.917969Z" fill="white"/>
<path d="M18.791 14.668H14.2077C12.942 14.668 11.916 15.694 11.916 16.9596V18.793C11.916 20.0586 12.942 21.0846 14.2077 21.0846H18.791C20.0567 21.0846 21.0827 20.0586 21.0827 18.793V16.9596C21.0827 15.694 20.0567 14.668 18.791 14.668Z" fill="white"/>
<path d="M7.79102 8.25H3.20768C1.94203 8.25 0.916016 9.27601 0.916016 10.5417V18.7917C0.916016 20.0573 1.94203 21.0833 3.20768 21.0833H7.79102C9.05667 21.0833 10.0827 20.0573 10.0827 18.7917V10.5417C10.0827 9.27601 9.05667 8.25 7.79102 8.25Z" fill="white"/>
<path d="M18.791 0.917969H14.2077C12.942 0.917969 11.916 1.94398 11.916 3.20964V11.4596C11.916 12.7253 12.942 13.7513 14.2077 13.7513H18.791C20.0567 13.7513 21.0827 12.7253 21.0827 11.4596V3.20964C21.0827 1.94398 20.0567 0.917969 18.791 0.917969Z" fill="white"/>
</g>
</svg>
