<svg width="20" height="20" viewBox="0 0 20 20" fill="none" xmlns="http://www.w3.org/2000/svg">
<rect width="20" height="20" rx="5" fill="url(#paint0_linear)"/>
<path d="M15.9612 6.29637C15.9355 6.23729 15.8981 6.18447 15.8518 6.14026C15.8487 6.13738 15.8457 6.13689 15.8432 6.1345C15.7978 6.09366 15.7459 6.05957 15.6874 6.03651C15.6395 6.01777 15.5891 6.01201 15.5387 6.00768C15.5235 6.00672 15.5109 6 15.4958 6H11.4623C11.1834 6 10.9581 6.2147 10.9581 6.48033C10.9581 6.74596 11.1834 6.96066 11.4623 6.96066H14.2837L10.2925 10.7845L8.77388 8.93236C8.68615 8.82525 8.55556 8.75896 8.4144 8.74887C8.26768 8.73878 8.13255 8.78634 8.0297 8.87904L4.1575 12.3715C3.95531 12.554 3.94675 12.858 4.13784 13.0506C4.23768 13.1501 4.37078 13.2 4.50439 13.2C4.62894 13.2 4.75346 13.1563 4.85077 13.0689L8.32011 9.93959L9.84934 11.8047C9.93858 11.9137 10.0722 11.9805 10.2169 11.9886C10.3616 11.9963 10.5023 11.9454 10.6046 11.8479L14.9916 7.64461V10.3229C14.9916 10.5885 15.217 10.8032 15.4958 10.8032C15.7746 10.8032 16 10.5885 16 10.3229V6.48035V6.47986C15.9995 6.41694 15.9864 6.35498 15.9612 6.29637Z" fill="white"/>
<defs>
<linearGradient id="paint0_linear" x1="81.8333" y1="22.2727" x2="5.63792" y2="31.0872" gradientUnits="userSpaceOnUse">
<stop stop-color="#2B16F7"/>
<stop offset="1" stop-color="#23FFFF"/>
</linearGradient>
</defs>
</svg>
