<svg width="30" height="30" viewBox="0 0 30 30" fill="none" xmlns="http://www.w3.org/2000/svg">
<path d="M12.0328 30.0001C13.9914 30.0001 15.5792 28.4123 15.5792 26.4537C15.5792 24.495 13.9914 22.9072 12.0328 22.9072C10.0741 22.9072 8.48633 24.495 8.48633 26.4537C8.48633 28.4123 10.0741 30.0001 12.0328 30.0001Z" fill="white"/>
<path d="M22.3829 22.9072C20.4242 22.9072 18.8364 24.495 18.8364 26.4537C18.8364 28.4123 20.4242 30.0001 22.3829 30.0001C24.3415 30.0001 25.9293 28.4123 25.9293 26.4537C25.9293 24.495 24.3415 22.9072 22.3829 22.9072Z" fill="white"/>
<path d="M28.4265 19.2884H9.93435L9.57247 17.1895H24.7715C25.2186 17.1908 25.6208 16.9178 25.7847 16.5019L29.4035 7.38248C29.6234 6.82467 29.3494 6.19421 28.7916 5.97439C28.6638 5.924 28.5276 5.89834 28.3903 5.89877H7.69069L6.82217 0.90481C6.73298 0.376761 6.272 -0.00738436 5.73653 0.000107711H1.5749C0.975323 0.000107711 0.489258 0.486173 0.489258 1.08575C0.489258 1.68533 0.975323 2.17139 1.5749 2.17139H4.83183L7.944 20.5549C8.0332 21.083 8.49418 21.4671 9.02965 21.4596H28.4265C29.026 21.4596 29.5121 20.9736 29.5121 20.374C29.5121 19.7744 29.026 19.2884 28.4265 19.2884Z" fill="white"/>
</svg>
