<svg width="22" height="22" viewBox="0 0 22 22" fill="none" xmlns="http://www.w3.org/2000/svg">
<g opacity="0.4" clip-path="url(#clip0)">
<path d="M16.0769 7.82737H22V5.07737C22 3.32772 20.5766 1.9043 18.8269 1.9043H3.17307C1.42343 1.9043 0 3.32772 0 5.07737V16.9235C0 18.6732 1.42343 20.0966 3.17307 20.0966H18.8269C20.5766 20.0966 22 18.6732 22 16.9235V14.1735H16.0769C14.3273 14.1735 12.9039 12.7501 12.9039 11.0004C12.9039 9.25079 14.3273 7.82737 16.0769 7.82737Z" fill="white"/>
<path d="M16.0777 9.0957C15.0279 9.0957 14.1738 9.94975 14.1738 10.9996C14.1738 12.0494 15.0279 12.9034 16.0777 12.9034H22.0008V9.09575H16.0777V9.0957ZM16.9238 11.6342H16.0777C15.7272 11.6342 15.4431 11.35 15.4431 10.9996C15.4431 10.6491 15.7272 10.365 16.0777 10.365H16.9238C17.2743 10.365 17.5584 10.6491 17.5584 10.9996C17.5584 11.35 17.2743 11.6342 16.9238 11.6342Z" fill="white"/>
</g>
<defs>
<clipPath id="clip0">
<rect width="22" height="22" fill="white"/>
</clipPath>
</defs>
</svg>
