<svg width="20" height="20" viewBox="0 0 20 20" fill="none" xmlns="http://www.w3.org/2000/svg">
<g clip-path="url(#clip0)">
<path d="M9.99543 1.76669e-07C8.84484 1.76669e-07 7.91211 0.932735 7.91211 2.08332C7.91406 2.18328 7.92328 2.28301 7.93961 2.38164C7.96965 2.58809 8.1477 2.74047 8.35629 2.73832C8.39605 2.73828 8.43559 2.73266 8.47379 2.72164C9.46941 2.42707 10.529 2.42707 11.5246 2.72164C11.643 2.75094 11.7682 2.7282 11.8688 2.65914C11.9715 2.58891 12.0401 2.47891 12.058 2.35582C12.0729 2.26543 12.0813 2.1741 12.083 2.0825C12.0825 0.931914 11.1494 -0.000468573 9.99879 1.76669e-07C9.99766 1.76669e-07 9.99656 1.76669e-07 9.99543 1.76669e-07Z" fill="#00D1FF"/>
<path d="M12.4955 16.6664H7.49554C7.26542 16.6664 7.07886 16.8529 7.07886 17.0831C7.07886 18.6939 8.38468 19.9997 9.99554 19.9997C11.6064 19.9997 12.9122 18.6939 12.9122 17.0831C12.9122 16.8529 12.7257 16.6664 12.4955 16.6664Z" fill="#00D1FF"/>
<path d="M17.7629 15.1742C17.6313 14.8834 17.4654 14.5584 17.2821 14.2C16.1545 12.2899 15.5124 10.1325 15.4121 7.91669C15.4121 4.61419 13.6621 2.19087 10.9554 1.74337C9.37599 1.4895 7.76603 1.95884 6.57045 3.02169C5.24697 4.177 4.51271 5.86587 4.57045 7.62169C4.53595 9.94302 3.89474 12.2149 2.71045 14.2117C2.53127 14.565 2.36795 14.8867 2.23795 15.1734C1.8624 16.0016 2.22935 16.9775 3.05763 17.3531C3.27365 17.4511 3.50826 17.5012 3.74545 17.5H16.2588C17.1682 17.5028 17.9076 16.7677 17.9103 15.8583C17.911 15.6224 17.861 15.3891 17.7637 15.1742H17.7629V15.1742Z" fill="#00D1FF"/>
</g>
<defs>
<clipPath id="clip0">
<rect width="20" height="20" fill="white"/>
</clipPath>
</defs>
</svg>
