<svg width="24" height="30" viewBox="0 0 24 30" fill="none" xmlns="http://www.w3.org/2000/svg">
<path d="M7.85205 27.2936C8.55628 28.8857 10.15 29.9999 11.9999 29.9999C13.8499 29.9999 15.4435 28.8857 16.1478 27.2936H7.85205Z" fill="white"/>
<path d="M11.9996 2.86621C13.2204 2.86621 14.3926 3.0816 15.4803 3.47594V3.34195C15.4803 1.49919 13.9811 0 12.1384 0H11.8615C10.0187 0 8.51953 1.49919 8.51953 3.34195V3.47424C9.60671 3.08107 10.7785 2.86621 11.9996 2.86621Z" fill="white"/>
<path d="M22.985 25.5329H1.0149C0.599252 25.5329 0.218527 25.2526 0.132076 24.8459C0.046505 24.4434 0.229971 24.046 0.602187 23.8741C0.690516 23.8168 1.35536 23.3519 2.02097 21.9454C3.24344 19.3624 3.50003 15.7239 3.50003 13.1264C3.50003 8.43966 7.31298 4.62683 11.9996 4.62683C16.6752 4.62683 20.4811 8.42129 20.4992 13.0926C20.4996 13.1039 20.4998 13.1151 20.4998 13.1264C20.4998 15.7239 20.7564 19.3624 21.9789 21.9454C22.6445 23.3519 23.3093 23.8169 23.3977 23.8741C23.7699 24.046 23.9534 24.4433 23.8678 24.8459C23.7814 25.2525 23.4007 25.5329 22.985 25.5329ZM23.4076 23.8803H23.4081H23.4076Z" fill="white"/>
</svg>
