<svg width="20" height="20" viewBox="0 0 20 20" fill="none" xmlns="http://www.w3.org/2000/svg">
<rect width="20" height="20" rx="5" fill="#C4C4C4"/>
<rect width="20" height="20" rx="5" fill="#FE183F"/>
<path d="M15.9612 13.7036C15.9355 13.7627 15.8981 13.8155 15.8518 13.8597C15.8487 13.8626 15.8457 13.8631 15.8432 13.8655C15.7978 13.9063 15.7459 13.9404 15.6874 13.9635C15.6395 13.9822 15.5891 13.988 15.5387 13.9923C15.5235 13.9933 15.5109 14 15.4958 14H11.4623C11.1834 14 10.9581 13.7853 10.9581 13.5197C10.9581 13.254 11.1834 13.0393 11.4623 13.0393H14.2837L10.2925 9.21553L8.77388 11.0676C8.68615 11.1747 8.55556 11.241 8.4144 11.2511C8.26768 11.2612 8.13255 11.2137 8.0297 11.121L4.1575 7.62854C3.95531 7.44602 3.94675 7.14199 4.13784 6.94937C4.23768 6.84995 4.37078 6.8 4.50439 6.8C4.62894 6.8 4.75346 6.84372 4.85077 6.93113L8.32011 10.0604L9.84934 8.19535C9.93858 8.08632 10.0722 8.01954 10.2169 8.01139C10.3616 8.00371 10.5023 8.05462 10.6046 8.15212L14.9916 12.3554V9.67712C14.9916 9.41151 15.217 9.19679 15.4958 9.19679C15.7746 9.19679 16 9.41149 16 9.67712V13.5197V13.5201C15.9995 13.5831 15.9864 13.645 15.9612 13.7036Z" fill="white"/>
</svg>
