<svg width="24" height="30" viewBox="0 0 24 30" fill="none" xmlns="http://www.w3.org/2000/svg">
<path d="M12.0371 23.8619C14.9451 23.8619 17.3105 21.4965 17.3105 18.5885C17.3105 15.6806 14.9451 13.3151 12.0371 13.3151C9.12916 13.3151 6.76367 15.6806 6.76367 18.5885C6.76367 21.4965 9.12916 23.8619 12.0371 23.8619ZM8.77895 17.9671C9.12225 17.6238 9.67848 17.6238 10.0218 17.9671L11.1582 19.1035L14.0524 16.2093C14.3957 15.866 14.952 15.866 15.2953 16.2093C15.6386 16.5526 15.6386 17.1088 15.2953 17.4521L11.7796 20.9678C11.608 21.1394 11.3831 21.2253 11.1583 21.2253C10.9334 21.2253 10.7085 21.1394 10.5369 20.9678L8.77906 19.2099C8.43564 18.8666 8.43564 18.3104 8.77895 17.9671Z" fill="white"/>
<path d="M1.45312 1.75781C0.967324 1.75781 0.574219 2.15092 0.574219 2.63672V29.1211C0.574219 29.6069 0.967324 30 1.45312 30H22.5469C23.0327 30 23.4258 29.6069 23.4258 29.1211V2.63672C23.4258 2.15092 23.0327 1.75781 22.5469 1.75781H18.1523V6.15234C18.1523 6.63773 17.7588 7.03125 17.2734 7.03125H6.72656C6.24117 7.03125 5.84766 6.63773 5.84766 6.15234V1.75781H1.45312ZM12.0369 11.4987C15.9139 11.4987 19.0682 14.7116 19.0682 18.5886C19.0682 22.4655 15.9139 25.6198 12.0369 25.6198C8.15994 25.6198 5.00566 22.4655 5.00566 18.5886C5.00566 14.7116 8.15994 11.4987 12.0369 11.4987Z" fill="white"/>
<path d="M14.4865 1.75781C14.1234 0.734707 13.1459 0 12 0C10.8541 0 9.87656 0.734707 9.51346 1.75781H7.60547V5.27344H16.3945V1.75781H14.4865Z" fill="white"/>
</svg>
