<svg width="30" height="22" viewBox="0 0 30 22" fill="none" xmlns="http://www.w3.org/2000/svg">
<path d="M15 12.3184C11.8499 12.3184 9.28711 14.8811 9.28711 18.0312V21.5469H20.7129V18.0312C20.7129 14.8811 18.1501 12.3184 15 12.3184Z" fill="white"/>
<path d="M18.9551 8.36328C18.9551 6.18227 17.181 4.4082 15 4.4082C12.819 4.4082 11.0449 6.18227 11.0449 8.36328C11.0449 10.5443 12.819 12.3184 15 12.3184C17.181 12.3184 18.9551 10.5443 18.9551 8.36328Z" fill="white"/>
<path d="M9.72656 4.4082C9.72656 2.22719 7.9525 0.453125 5.77148 0.453125C3.59047 0.453125 1.81641 2.22719 1.81641 4.4082C1.81641 6.58922 3.59047 8.36328 5.77148 8.36328C7.9525 8.36328 9.72656 6.58922 9.72656 4.4082Z" fill="white"/>
<path d="M24.2287 8.36328C21.9069 8.36328 19.9127 9.76083 19.02 11.7544C21.0893 13.0842 22.4709 15.3943 22.4709 18.0312H30.0002V14.0762C30.0002 10.9261 27.3788 8.36328 24.2287 8.36328Z" fill="white"/>
<path d="M28.1836 4.4082C28.1836 2.22719 26.4095 0.453125 24.2285 0.453125C22.0475 0.453125 20.2734 2.22719 20.2734 4.4082C20.2734 6.58922 22.0475 8.36328 24.2285 8.36328C26.4095 8.36328 28.1836 6.58922 28.1836 4.4082Z" fill="white"/>
<path d="M10.9801 11.7544C10.0875 9.76083 8.09326 8.36328 5.77148 8.36328C2.62138 8.36328 0 10.9261 0 14.0762V18.0312H7.5293C7.5293 15.3943 8.91083 13.0842 10.9801 11.7544Z" fill="white"/>
</svg>
