<svg width="32" height="40" viewBox="0 0 32 40" fill="none" xmlns="http://www.w3.org/2000/svg">
<path d="M28.8 2.39952H27.156H24.224L22.532 0.583883C22.232 0.263947 21.628 0 21.188 0H10.812C10.372 0 9.764 0.263947 9.464 0.583883L7.776 2.39952H4.844H3.2C1.44 2.39952 0 3.83923 0 5.59888V36.8006C0 38.5603 1.44 40 3.2 40H28.8C30.56 40 32 38.5603 32 36.8006V5.59888C32 3.83923 30.56 2.39952 28.8 2.39952ZM27.956 35.201C27.956 35.6409 27.596 36.0008 27.156 36.0008H4.844C4.404 36.0008 4.044 35.6409 4.044 35.201V7.19856C4.044 6.75865 4.404 6.39872 4.844 6.39872H7.776L9.468 8.21436C9.768 8.53429 10.372 8.79824 10.812 8.79824H21.184C21.624 8.79824 22.232 8.53429 22.532 8.21436L24.224 6.39872H27.156C27.596 6.39872 27.956 6.75865 27.956 7.19856V35.201Z" fill="#FE173F"/>
<path d="M21.3 12.106C20.988 11.7941 20.48 11.7941 20.168 12.106L14.344 17.9249L11.692 15.3214C11.376 15.0134 10.868 15.0174 10.56 15.3334L9.48805 16.4252C9.18005 16.7411 9.18405 17.249 9.50005 17.5569L13.784 21.7561C13.824 21.7961 13.868 21.8281 13.912 21.8601C14.224 22.072 14.656 22.044 14.932 21.7681L22.38 14.3176C22.692 14.0056 22.692 13.4977 22.38 13.1858L21.3 12.106Z" fill="#FE173F"/>
<path d="M21.3 22.232C20.988 21.9201 20.48 21.9201 20.168 22.232L14.344 28.0508L11.692 25.4474C11.376 25.1394 10.868 25.1434 10.56 25.4594L9.48805 26.5511C9.18005 26.8671 9.18405 27.375 9.50005 27.6829L13.784 31.8861C13.824 31.9261 13.868 31.9581 13.912 31.9901C14.224 32.202 14.656 32.174 14.932 31.8981L22.384 24.4476C22.696 24.1356 22.696 23.6277 22.384 23.3158L21.3 22.232Z" fill="#FE173F"/>
</svg>
