<svg width="53" height="37" viewBox="0 0 53 37" fill="none" xmlns="http://www.w3.org/2000/svg">
<path d="M12.5201 14.5816C12.5773 14.5816 12.6345 14.5816 12.6926 14.5807C13.3611 13.4835 14.165 12.458 15.0969 11.5261C15.7154 10.9076 16.3758 10.3462 17.0706 9.84213C15.6573 9.98746 14.1241 10.0665 12.5201 10.0665C6.25552 10.0665 1.05006 8.85481 0.000976562 7.26074V11.1819C0.000976563 13.0593 5.60609 14.5816 12.5201 14.5816Z" fill="#FE173F"/>
<path d="M10.3792 21.852C10.4882 20.3042 10.8143 18.7992 11.3411 17.3723C5.61244 17.2315 0.983756 16.0743 0.000976562 14.5811V18.5022C0.000976563 20.1816 4.48525 21.5768 10.3792 21.852Z" fill="#FE173F"/>
<path d="M11.5563 29.2123C10.9613 27.769 10.5771 26.2395 10.4191 24.6608C5.12099 24.4256 0.930098 23.3138 0 21.9023V25.8235C0.000908299 27.6119 5.09283 29.0788 11.5563 29.2123Z" fill="#FE173F"/>
<path d="M13.0587 32.0248C12.8797 32.0266 12.7008 32.0284 12.5201 32.0284C6.25552 32.0284 1.05006 30.8167 0.000976562 29.2227V33.1438C0.000976562 35.0212 5.60609 36.5426 12.5201 36.5426C14.1813 36.5426 15.7672 36.4545 17.2178 36.2947C16.4684 35.7642 15.7591 35.1666 15.0969 34.5035C14.3294 33.7378 13.6482 32.9067 13.0587 32.0248Z" fill="#FE173F"/>
<path d="M12.5203 6.79771C19.4344 6.79771 25.0394 5.27599 25.0394 3.39885C25.0394 1.52172 19.4344 0 12.5203 0C5.6062 0 0.0012207 1.52172 0.0012207 3.39885C0.0012207 5.27599 5.6062 6.79771 12.5203 6.79771Z" fill="#FE173F"/>
<path d="M42.7782 24.3628C42.6492 25.9432 42.295 27.4774 41.7291 28.927C47.812 28.6954 52.4916 27.2766 52.4916 25.5618V21.6406C51.6041 22.9894 47.7402 24.064 42.7782 24.3628Z" fill="#FE173F"/>
<path d="M40.2821 31.7639C39.6545 32.7431 38.917 33.6614 38.075 34.5034C37.4828 35.0956 36.8533 35.6351 36.1912 36.1229C37.3847 36.2255 38.6545 36.2809 39.9724 36.2809C46.8864 36.2809 52.4915 34.7595 52.4915 32.8821V28.9609C51.4597 30.5278 46.4077 31.7249 40.2821 31.7639Z" fill="#FE173F"/>
<path d="M52.4916 18.241C52.4916 16.4244 47.2425 14.9411 40.6383 14.8467C41.8291 16.8876 42.5575 19.1675 42.7683 21.5545C48.337 21.2102 52.4916 19.8578 52.4916 18.241Z" fill="#FE173F"/>
<path d="M26.4832 36.5426C33.7756 36.5426 39.6872 30.631 39.6872 23.3387C39.6872 16.0464 33.7756 10.1348 26.4832 10.1348C19.1909 10.1348 13.2793 16.0464 13.2793 23.3387C13.2793 30.631 19.1909 36.5426 26.4832 36.5426Z" fill="#FE173F"/>
</svg>
