<svg width="35" height="38" viewBox="0 0 35 38" fill="none" xmlns="http://www.w3.org/2000/svg">
<path d="M2.56509 11.9054C2.18448 11.8009 1.52464 11.6185 1.2113 11.5283C0.838985 11.4209 0.777239 11.2509 0.889671 10.8861C2.50243 5.6708 5.25425 1.71134 10.1709 0.0527049C10.5432 -0.0726905 10.7699 0.0128063 10.9127 0.44884C11.0141 0.759479 11.0528 1.08247 11.039 1.5052C11.0242 1.94598 10.9265 2.12173 10.7432 2.29557C7.05224 5.79144 5.55561 8.2034 5.11141 13.8481C4.82572 17.477 3.55671 24.1676 2.59182 27.0954C1.92552 29.1178 3.471 31.3626 5.61182 31.3626C7.36466 31.3626 8.79125 29.893 8.79125 28.0862V18.6559C8.79125 16.0539 10.8602 14.1939 13.0452 14.1967C13.118 14.1967 13.3503 14.1967 13.5622 14.1967V2.28322C13.5622 1.07202 14.5152 0.0907034 15.6892 0.0907034H30.1985C31.3735 0.0907034 32.3255 1.07202 32.3255 2.28322C32.3255 4.08911 32.3255 34.6447 32.3255 34.6818C32.3255 35.0276 32.5974 35.3002 32.9328 35.3002C32.9328 35.3002 33.084 35.3002 33.5927 35.3002C33.9281 35.3002 34.2 35.5728 34.2 35.9186V37.373C34.2 37.7188 33.9281 38 33.5927 38H12.2942C11.9587 38 11.6868 37.7198 11.6868 37.373V35.9186C11.6868 35.5728 11.9587 35.3002 12.2942 35.3002C12.8029 35.3002 12.954 35.3002 12.954 35.3002C13.2895 35.3002 13.5613 35.0276 13.5613 34.6818V16.6809C13.4019 16.6809 13.2535 16.6809 13.2047 16.6809C11.7845 16.6809 11.2205 17.8522 11.2205 18.6559C11.2205 21.1429 11.2205 25.526 11.2205 28.0862C11.2205 31.2799 8.70831 33.8686 5.60998 33.8686C2.03427 33.8686 -0.923988 30.3034 0.26853 26.3515C1.42234 22.526 2.68674 16.0568 2.84157 12.2664C2.84617 12.1372 2.75863 11.9596 2.56509 11.9054ZM15.9915 13.1138C15.9915 13.4596 16.2634 13.7407 16.5988 13.7407H29.1065C29.4419 13.7407 29.7147 13.4605 29.7147 13.1138V3.31488C29.7147 2.9691 29.4428 2.68791 29.1065 2.68791H16.5998C16.2643 2.68791 15.9924 2.96815 15.9924 3.31488V13.1138H15.9915Z" fill="#FE173F"/>
</svg>
