<svg width="48" height="47" viewBox="0 0 48 47" fill="none" xmlns="http://www.w3.org/2000/svg">
<path d="M45.5211 31.7162C43.9577 29.7364 42.1258 29.4195 40.6426 28.9447C39.3295 28.5233 32.7254 26.9848 30.9362 25.3314C30.9362 25.3314 30.8822 25.2899 30.7976 25.2234C30.9083 26.7344 30.7906 28.8799 30.8464 31.7162C30.9266 35.794 26.8477 42.7633 26.8477 42.7633C26.8477 42.7633 26.608 39.0412 26.3281 37.1806C26.0482 35.32 24.8885 34.4091 24.8885 34.4091L26.4876 32.5088L26.6873 31.2422L24.5284 30.4902L28.9273 26.5306C29.8864 25.8874 29.9361 24.8643 29.9091 24.4352C29.8969 24.4205 29.8856 24.4058 29.8768 24.392C29.8019 23.0675 29.6641 20.7312 29.6074 20.3936C29.6074 20.3936 31.2065 17.0678 30.9668 16.1966C30.9668 16.1966 31.4664 16.4341 31.7262 15.9989C31.986 15.5638 33.0655 13.9596 32.7254 11.2278C32.7254 11.2278 32.7856 10.6735 32.1055 10.8514C32.1055 10.8514 33.2251 5.52593 32.0052 3.94246C30.7854 2.35899 30.3259 2.83386 30.1262 1.94283C29.9265 1.05181 26.131 -0.0386605 24 0.0010557C21.869 -0.0386605 18.0735 1.05008 17.8738 1.94111C17.6741 2.83213 17.2137 2.35726 15.9948 3.94073C14.7749 5.5242 15.8945 10.8496 15.8945 10.8496C15.2144 10.6718 15.2745 11.2261 15.2745 11.2261C14.9345 13.9578 16.014 15.562 16.2738 15.9972C16.5336 16.4323 17.0332 16.1949 17.0332 16.1949C16.7935 17.0661 18.3926 20.3919 18.3926 20.3919C18.3359 20.7295 18.1981 23.0658 18.1232 24.3903C18.1144 24.4032 18.1031 24.4179 18.0909 24.4334C18.0639 24.8625 18.1136 25.8857 19.0727 26.5289L23.4716 30.4884L21.3127 31.2404L21.5124 32.507L23.1115 34.4074C23.1115 34.4074 21.9518 35.3183 21.6719 37.1789C21.392 39.0395 21.1523 42.7616 21.1523 42.7616C21.1523 42.7616 17.0734 35.7931 17.1536 31.7144C17.2094 28.8782 17.0908 26.7327 17.2024 25.2217C17.1178 25.2882 17.0638 25.3296 17.0638 25.3296C15.2745 26.983 8.67052 28.5216 7.35738 28.9429C5.87509 29.4178 4.04229 29.7347 2.47891 31.7144C0.202289 34.6008 0 42.0899 0 42.0899C8.23717 46.6831 24 47 24 47C24 47 39.7628 46.6831 48 42.0899C48 42.0899 47.7977 34.6008 45.5211 31.7162Z" fill="#FE173F"/>
</svg>
