<svg width="40" height="40" viewBox="0 0 40 40" fill="none" xmlns="http://www.w3.org/2000/svg">
<path d="M8.95291 39.1903C8.51467 39.1903 8.07948 39.0536 7.70807 38.785C7.01622 38.2836 6.69303 37.4218 6.88132 36.5902L9.45463 25.2547L0.727602 17.6013C0.0861063 17.0413 -0.158956 16.1544 0.104417 15.343C0.367791 14.533 1.08436 13.9596 1.93277 13.8811L13.4797 12.8328L18.0449 2.14926C18.3816 1.36433 19.1482 0.857422 19.9999 0.857422C20.8517 0.857422 21.6183 1.36433 21.955 2.14743L26.5202 12.8328L38.0653 13.8811C38.9155 13.9577 39.6321 14.533 39.8955 15.343C40.1589 16.1529 39.9153 17.0413 39.2738 17.6013L30.5468 25.2532L33.1201 36.5883C33.3087 37.4218 32.9852 38.2836 32.2937 38.7835C31.6036 39.2834 30.6835 39.3219 29.9569 38.8851L19.9999 32.935L10.043 38.8885C9.70641 39.0884 9.33134 39.1903 8.95291 39.1903ZM19.9999 30.3717C20.3784 30.3717 20.7531 30.4734 21.0901 30.6733L30.487 36.2935L28.0583 25.5947C27.885 24.8333 28.1435 24.0383 28.7319 23.5231L36.9721 16.2964L26.07 15.3063C25.2851 15.2346 24.6101 14.7411 24.3033 14.0179L19.9999 3.93581L15.6914 14.0194C15.388 14.7378 14.7129 15.2313 13.9298 15.303L3.02625 16.293L11.2662 23.5197C11.8564 24.0364 12.1146 24.8299 11.9397 25.5932L9.51292 36.2917L18.9098 30.6733C19.2464 30.4734 19.6215 30.3717 19.9999 30.3717ZM13.3915 13.0394C13.3915 13.0394 13.3915 13.0413 13.3897 13.0428L13.3915 13.0394ZM26.605 13.0346L26.6069 13.0379C26.6069 13.0361 26.6069 13.0361 26.605 13.0346Z" fill="url(#paint0_linear)"/>
<defs>
<linearGradient id="paint0_linear" x1="37.3334" y1="2.77407" x2="-6.02009" y2="33.1551" gradientUnits="userSpaceOnUse">
<stop stop-color="#00F0FF"/>
<stop offset="1" stop-color="#0098D9"/>
<stop offset="1" stop-color="#0098D9"/>
</linearGradient>
</defs>
</svg>
