<svg width="40" height="40" viewBox="0 0 40 40" fill="none" xmlns="http://www.w3.org/2000/svg">
<path d="M39.8953 15.342C39.632 14.532 38.9136 13.9586 38.067 13.882L26.5202 12.8337L21.9568 2.14992C21.6199 1.365 20.8533 0.858398 20 0.858398C19.1467 0.858398 18.3798 1.365 18.045 2.14992L13.4816 12.8337L1.93298 13.882C1.08641 13.9601 0.369537 14.5336 0.10464 15.342C-0.158731 16.1519 0.0844982 17.0403 0.724768 17.6018L9.45325 25.2555L6.87966 36.5905C6.69136 37.424 7.01485 38.2858 7.70639 38.7857C8.0781 39.0558 8.51482 39.1906 8.95305 39.1906C9.32965 39.1906 9.70655 39.0905 10.0432 38.8891L20 32.9357L29.955 38.8891C30.6853 39.3255 31.6036 39.2856 32.2936 38.7857C32.9851 38.2858 33.3086 37.424 33.1203 36.5905L30.5467 25.2555L39.2752 17.6018C39.9152 17.0403 40.1587 16.1538 39.8953 15.342Z" fill="url(#paint0_linear)"/>
<defs>
<linearGradient id="paint0_linear" x1="37.3333" y1="2.77502" x2="-6.01972" y2="33.1563" gradientUnits="userSpaceOnUse">
<stop stop-color="#00F0FF"/>
<stop offset="1" stop-color="#0098D9"/>
<stop offset="1" stop-color="#0098D9"/>
</linearGradient>
</defs>
</svg>
