<svg width="16" height="20" viewBox="0 0 16 20" fill="none" xmlns="http://www.w3.org/2000/svg">
<path d="M13.625 20H2.375C1.34167 20 0.5 19.1592 0.5 18.125V9.375C0.5 8.34083 1.34167 7.5 2.375 7.5H13.625C14.6583 7.5 15.5 8.34083 15.5 9.375V18.125C15.5 19.1592 14.6583 20 13.625 20ZM2.375 8.75C2.03083 8.75 1.75 9.03 1.75 9.375V18.125C1.75 18.47 2.03083 18.75 2.375 18.75H13.625C13.9692 18.75 14.25 18.47 14.25 18.125V9.375C14.25 9.03 13.9692 8.75 13.625 8.75H2.375Z" fill="white"/>
<path d="M12.375 8.75C12.03 8.75 11.75 8.47 11.75 8.125V5C11.75 2.9325 10.0675 1.25 8 1.25C5.9325 1.25 4.25 2.9325 4.25 5V8.125C4.25 8.47 3.97 8.75 3.625 8.75C3.28 8.75 3 8.47 3 8.125V5C3 2.2425 5.2425 0 8 0C10.7575 0 13 2.2425 13 5V8.125C13 8.47 12.72 8.75 12.375 8.75Z" fill="white"/>
<path d="M7.99992 14.1673C7.08075 14.1673 6.33325 13.4198 6.33325 12.5006C6.33325 11.5815 7.08075 10.834 7.99992 10.834C8.91908 10.834 9.66658 11.5815 9.66658 12.5006C9.66658 13.4198 8.91908 14.1673 7.99992 14.1673ZM7.99992 12.084C7.77075 12.084 7.58325 12.2706 7.58325 12.5006C7.58325 12.7306 7.77075 12.9173 7.99992 12.9173C8.22908 12.9173 8.41658 12.7306 8.41658 12.5006C8.41658 12.2706 8.22908 12.084 7.99992 12.084Z" fill="white"/>
<path d="M8 16.6667C7.655 16.6667 7.375 16.3867 7.375 16.0417V13.75C7.375 13.405 7.655 13.125 8 13.125C8.345 13.125 8.625 13.405 8.625 13.75V16.0417C8.625 16.3867 8.345 16.6667 8 16.6667Z" fill="white"/>
</svg>
