<svg width="39" height="39" viewBox="0 0 39 39" fill="none" xmlns="http://www.w3.org/2000/svg">
<path d="M14.9998 16.6667C19.6022 16.6667 23.3332 12.9357 23.3332 8.33333C23.3332 3.73096 19.6022 0 14.9998 0C10.3975 0 6.6665 3.73096 6.6665 8.33333C6.6665 12.9357 10.3975 16.6667 14.9998 16.6667Z" fill="white"/>
<path d="M19.2233 34.6667C18.355 33.1633 18.5283 31.3117 19.5617 30C18.5283 28.6883 18.355 26.8383 19.2233 25.3333L20.5717 23C21.3133 21.715 22.6967 20.9167 24.1817 20.9167C24.385 20.9167 24.585 20.9317 24.7833 20.96C24.8383 20.8233 24.9083 20.695 24.9767 20.565C24.0767 20.21 23.105 20 22.0833 20H7.91667C3.55167 20 0 23.5517 0 27.9167V33.75C0 34.44 0.56 35 1.25 35H19.415L19.2233 34.6667Z" fill="white"/>
<path d="M36.1715 30.782C36.2048 30.5237 36.2498 30.267 36.2498 30.0003C36.2498 29.732 36.2031 29.477 36.1715 29.2187L37.6731 28.082C38.0081 27.8287 38.1015 27.3653 37.8915 27.0003L36.5431 24.667C36.3331 24.3037 35.8848 24.152 35.4981 24.3153L33.7698 25.0437C33.3481 24.722 32.8998 24.4387 32.4048 24.232L32.1748 22.397C32.1215 21.9803 31.7681 21.667 31.3481 21.667H28.6531C28.2331 21.667 27.8781 21.9803 27.8265 22.397L27.5965 24.232C27.1015 24.4387 26.6515 24.7237 26.2315 25.0437L24.5031 24.3153C24.1165 24.152 23.6681 24.302 23.4581 24.667L22.1098 27.0003C21.8998 27.3637 21.9931 27.827 22.3281 28.082L23.8298 29.2187C23.7965 29.477 23.7515 29.7337 23.7515 30.0003C23.7515 30.2687 23.7981 30.5237 23.8298 30.782L22.3281 31.9187C21.9931 32.172 21.8998 32.6353 22.1098 33.0003L23.4581 35.3353C23.6681 35.6987 24.1165 35.8503 24.5031 35.687L26.2315 34.957C26.6531 35.2787 27.1015 35.562 27.5965 35.7687L27.8265 37.6037C27.8781 38.0203 28.2315 38.3337 28.6515 38.3337H31.3465C31.7665 38.3337 32.1215 38.0203 32.1731 37.6037L32.4031 35.7687C32.8981 35.562 33.3481 35.277 33.7681 34.957L35.4965 35.6853C35.8831 35.8487 36.3315 35.6987 36.5415 35.3337L37.8898 32.9987C38.0998 32.6353 38.0065 32.172 37.6715 31.917L36.1715 30.782ZM29.9998 33.3337C28.1581 33.3337 26.6665 31.842 26.6665 30.0003C26.6665 28.1587 28.1581 26.667 29.9998 26.667C31.8415 26.667 33.3331 28.1587 33.3331 30.0003C33.3331 31.842 31.8415 33.3337 29.9998 33.3337Z" fill="white"/>
</svg>
