<svg width="24" height="24" viewBox="0 0 24 24" fill="none" xmlns="http://www.w3.org/2000/svg">
<path d="M13.9241 11.2647L13.1675 11.0764V6.7713C13.9367 7.08109 14.353 7.60325 14.6879 8.0236C15.033 8.45667 15.2147 8.66482 15.5695 8.66482C16.0414 8.66482 16.5178 8.39137 16.5178 7.7805C16.5178 6.77793 15.5935 6.06067 15.0427 5.72239C14.4894 5.38279 13.8364 5.12601 13.1674 4.97387V3.74214C13.1674 3.0974 12.6447 2.57471 11.9999 2.57471C11.3552 2.57471 10.8325 3.0974 10.8325 3.74214V4.88393C9.96004 5.0039 9.17635 5.28237 8.56575 5.69808C7.53271 6.4015 6.98661 7.48461 6.98661 8.83043C6.98661 9.98974 7.74449 11.7898 9.90451 12.396L10.8325 12.6553V17.4585C9.73324 17.1385 9.22129 16.397 8.82231 15.8181C8.44877 15.2758 8.23298 14.9927 7.7881 14.9927C7.28683 14.9927 6.94995 15.3725 6.94995 15.9377C6.94995 16.6637 7.38714 17.4462 8.11958 18.0311C8.63618 18.4437 9.49581 18.9184 10.8325 19.104V20.2587C10.8325 20.9034 11.3551 21.4261 11.9999 21.4261C12.6446 21.4261 13.1674 20.9035 13.1674 20.2587V19.1144C14.2053 18.9778 15.0569 18.6412 15.7078 18.108C16.5858 17.3889 17.0498 16.3242 17.0498 15.0291C17.0499 13.4645 16.2406 11.8424 13.9241 11.2647ZM10.8325 10.478C9.88223 10.1821 9.03019 9.71335 9.03019 8.64863C9.03019 8.00912 9.27548 7.46885 9.7397 7.08633C10.0333 6.84435 10.4037 6.67511 10.8325 6.58373L10.8325 10.478ZM14.1235 16.9162C13.8526 17.1526 13.5301 17.3311 13.1674 17.4491V13.3078L13.3001 13.3449C14.3295 13.6281 14.8963 14.3121 14.8963 15.2712C14.8963 15.8879 14.6147 16.4874 14.1235 16.9162Z" fill="white"/>
<path d="M23.203 4.26339C22.7344 3.23243 22.0639 2.30515 21.2761 1.49485L21.5875 0.734518C21.74 0.36258 21.4227 -0.0492241 21.023 0.00480316L15.9703 0.689896C15.5712 0.74403 15.3746 1.22541 15.6205 1.54348L18.7397 5.57719C18.8653 5.73944 19.0784 5.81655 19.2784 5.77161C19.4682 5.72907 19.5959 5.59494 19.6675 5.42008C19.7383 5.24737 19.8091 5.07454 19.88 4.90177C20.3836 5.22482 20.8559 5.59723 21.2472 6.05248C21.4543 6.2943 21.6397 6.55118 21.7973 6.82789C21.9121 7.02941 22.0047 7.23991 22.0894 7.45543C22.2238 7.79659 22.305 8.17804 22.3288 8.54228C22.3436 8.77063 22.3428 8.99491 22.334 9.22347C22.3234 9.48901 22.5177 9.72714 22.7799 9.77042C23.02 9.81002 23.2626 9.67589 23.3572 9.4516C23.452 9.22571 23.5409 9.00009 23.6119 8.76528C23.7488 8.31217 23.8366 7.83453 23.8481 7.36031C23.8819 6.29008 23.6454 5.23689 23.203 4.26339Z" fill="white"/>
<path d="M5.26026 18.4228C5.13457 18.2605 4.92156 18.1834 4.72154 18.2283C4.53177 18.2708 4.40405 18.405 4.33239 18.5798C4.26153 18.7525 4.19078 18.9253 4.11992 19.0981C3.61636 18.7751 3.14401 18.4027 2.75278 17.9474C2.5457 17.7057 2.36026 17.4487 2.20262 17.172C2.08778 16.9706 1.99522 16.7601 1.91047 16.5445C1.77612 16.2034 1.69484 15.8219 1.67111 15.4576C1.65631 15.2293 1.65716 15.0049 1.66587 14.7765C1.67651 14.5109 1.48226 14.2728 1.21992 14.2296C0.979925 14.19 0.737257 14.3241 0.642776 14.5484C0.547975 14.7744 0.458998 14.9999 0.388084 15.2346C0.251226 15.6878 0.163425 16.1654 0.151882 16.6397C0.118002 17.7099 0.354471 18.763 0.796895 19.7366C1.26551 20.7675 1.93606 21.6949 2.72381 22.5052L2.41231 23.2655C2.25974 23.6375 2.57723 24.0492 2.97674 23.9952L8.02949 23.3101C8.42857 23.2559 8.62528 22.7746 8.3793 22.4565L5.26026 18.4228Z" fill="white"/>
</svg>
